<svg width="64" height="64" viewBox="0 0 64 64" fill="none" xmlns="http://www.w3.org/2000/svg">
<g clip-path="url(#clip0_88_4675)">
<path d="M55.3969 63.9887C53.4051 63.9889 51.4749 63.2933 49.9352 62.0205C48.3954 60.7477 47.3415 58.9765 46.953 57.0086C46.5644 55.0408 46.8654 52.9981 47.8045 51.2287C48.7435 49.4593 50.2627 48.0727 52.103 47.3051C53.9433 46.5376 55.9909 46.4366 57.8968 47.0194C59.8027 47.6022 61.449 48.8328 62.5552 50.5013C63.6613 52.1699 64.1588 54.1732 63.963 56.1699C63.7671 58.1666 62.8899 60.033 61.481 61.4512C60.6836 62.2581 59.7353 62.8978 58.6911 63.3334C57.6468 63.7689 56.5272 63.9916 55.3969 63.9887Z" fill="#6F3DFF"/>
<path d="M8.61416 17.7519C6.91157 17.7513 5.24735 17.2425 3.83168 16.2896C2.416 15.3368 1.31239 13.9828 0.660208 12.3986C0.00802941 10.8143 -0.163455 9.0709 0.167412 7.38854C0.498279 5.70617 1.31666 4.16031 2.51918 2.94618C4.1345 1.31985 6.32486 0.40625 8.60869 0.40625C10.8925 0.40625 13.0829 1.31985 14.6982 2.94618C15.4983 3.7515 16.133 4.70775 16.566 5.76027C16.999 6.81279 17.2219 7.94096 17.2219 9.08029C17.2219 10.2196 16.999 11.3478 16.566 12.4003C16.133 13.4528 15.4983 14.4091 14.6982 15.2144C13.9013 16.022 12.9532 16.6622 11.9088 17.0978C10.8644 17.5334 9.74454 17.7557 8.61416 17.7519Z" fill="#6F3DFF"/>
<path d="M55.0081 17.4919C53.3055 17.4913 51.6413 16.9825 50.2256 16.0297C48.81 15.0769 47.7064 13.7228 47.0542 12.1386C46.402 10.5543 46.2305 8.81094 46.5614 7.12858C46.8922 5.44621 47.7106 3.90035 48.9132 2.68622C49.9141 1.67566 51.147 0.929453 52.5027 0.513755C53.8584 0.0980569 55.295 0.0257066 56.6851 0.303118C58.0753 0.580529 59.376 1.19913 60.4719 2.10409C61.5679 3.00905 62.4253 4.17241 62.9682 5.49104C63.511 6.80967 63.7225 8.24284 63.5839 9.66351C63.4453 11.0842 62.9609 12.4485 62.1736 13.6354C61.3863 14.8224 60.3204 15.7953 59.0705 16.468C57.8206 17.1408 56.4253 17.4924 55.0081 17.4919Z" fill="#6F3DFF"/>
<path d="M8.83854 63.9894C7.13657 63.9903 5.47251 63.483 4.05665 62.5316C2.64079 61.5802 1.53667 60.2274 0.883817 58.6441C0.23096 57.0608 0.0586663 55.3181 0.388708 53.6362C0.718749 51.9543 1.53631 50.4087 2.73809 49.1947C3.10884 48.823 3.51618 48.4903 3.9538 48.2017C4.10166 48.0969 4.23308 48.0142 4.37546 47.9314C4.69308 47.7439 5.0107 47.5784 5.30641 47.4405C5.4707 47.3688 5.63498 47.2916 5.81022 47.2254C6.15749 47.0923 6.51223 46.9799 6.8726 46.8889L7.09165 46.8282L7.22307 46.7951L9.13973 46.6627C9.38068 46.6627 9.64354 46.7013 9.91735 46.7399H10.0269H10.2678H10.3445H10.4321H10.5088H10.9304C12.6017 46.7265 14.2535 46.3782 15.7898 45.7152C17.326 45.0523 18.7159 44.088 19.8785 42.8785C21.0463 41.6818 21.9651 40.2622 22.581 38.703C23.197 37.1438 23.4976 35.4765 23.4654 33.7987V33.7049V33.6001C23.4509 33.507 23.4417 33.413 23.438 33.3188C23.438 33.2085 23.4271 33.0981 23.4052 32.9878V32.7947C23.4052 32.6237 23.3723 32.4638 23.3614 32.2983L23.5037 30.3621C23.5158 30.3135 23.5304 30.2656 23.5475 30.2186L23.5804 30.0973C23.6631 29.7226 23.7711 29.354 23.9035 28.994C23.9641 28.8213 24.0335 28.6519 24.1116 28.4865C24.2476 28.1773 24.3994 27.8754 24.5661 27.5819C24.6483 27.4439 24.7304 27.306 24.8235 27.1681C25.115 26.7278 25.4469 26.316 25.8147 25.938C27.4326 24.3111 29.6259 23.3983 31.9119 23.4004C34.198 23.4025 36.3896 24.3192 38.0046 25.949C39.6197 27.5788 40.5258 29.7881 40.5238 32.0909C40.5217 34.3938 39.6116 36.6014 37.9937 38.2283C37.6201 38.5968 37.2131 38.9292 36.778 39.2212C36.6356 39.3205 36.4987 39.4033 36.3618 39.4805C36.0614 39.6642 35.7505 39.83 35.4308 39.977C35.2611 40.0542 35.0913 40.1314 34.9325 40.1921C34.5919 40.3223 34.2423 40.4274 33.8866 40.5065L33.6785 40.5617L33.5416 40.6058L31.603 40.7437C31.3785 40.7437 31.1375 40.6996 30.8856 40.6665H30.7158H30.4749H30.4092H30.3106H29.8123C26.4551 40.7116 23.2522 42.0934 20.9034 44.5101C18.5546 46.9267 17.251 50.1817 17.2773 53.5636V53.6629V53.7566C17.2919 53.8498 17.301 53.9437 17.3047 54.038C17.3047 54.1538 17.3047 54.2586 17.3376 54.369C17.3429 54.4706 17.3539 54.5719 17.3704 54.6724C17.3704 54.8047 17.3704 54.9371 17.3704 55.0695V55.1137L17.2335 56.9726C17.2335 57.0113 17.1623 57.2264 17.1459 57.2926C17.0652 57.6672 16.9591 58.0358 16.8283 58.3959C16.7707 58.5635 16.7031 58.7275 16.6257 58.8868C16.4759 59.2169 16.3095 59.5391 16.1273 59.8521C16.0452 59.9845 15.9521 60.139 15.8535 60.2824C15.5667 60.7164 15.2384 61.121 14.8733 61.4905C13.2698 63.096 11.0993 63.9947 8.83854 63.9894Z" fill="#6F3DFF"/>
<path d="M32.0958 63.989C30.395 63.9888 28.7323 63.4812 27.3176 62.53C25.9029 61.5789 24.7996 60.2269 24.147 58.6448C23.4944 57.0626 23.3216 55.3212 23.6506 53.6402C23.9796 51.9592 24.7955 50.4141 25.9954 49.1998C26.3715 48.8265 26.7822 48.4903 27.222 48.1959C27.348 48.1076 27.4849 48.0249 27.6273 47.9421C27.9307 47.7589 28.2433 47.5913 28.5637 47.4401L29.062 47.225C29.4022 47.102 29.7497 47.0007 30.1025 46.9216L30.442 46.8223L32.3915 46.6789C32.6215 46.6789 32.868 46.723 33.1253 46.7561H33.2732H33.5306H33.6237H33.6839H33.7661H34.1932C37.5475 46.7067 40.7462 45.3229 43.0914 42.9068C45.4367 40.4906 46.7381 37.2381 46.7117 33.859V33.4563L46.6789 33.4122C46.6758 33.3977 46.6758 33.3826 46.6789 33.3681V33.0812L46.646 32.8054C46.646 32.651 46.6077 32.502 46.6022 32.3476L46.7336 30.472C46.7336 30.4224 46.8103 30.1907 46.8267 30.1245C46.8943 29.7626 46.9839 29.4052 47.0951 29.0543C47.1573 28.8833 47.2286 28.7157 47.3086 28.5524C47.4558 28.2274 47.6204 27.9107 47.8015 27.6035L47.8398 27.5429C47.9055 27.427 47.9712 27.3167 48.0479 27.2064C48.342 26.763 48.6756 26.3476 49.0446 25.9652C50.6608 24.3385 52.8521 23.4248 55.1368 23.4248C57.4215 23.4248 59.6128 24.3385 61.229 25.9652C62.8385 27.5962 63.742 29.8024 63.742 32.1021C63.742 34.4018 62.8385 36.608 61.229 38.239C60.8507 38.6043 60.4422 38.9365 60.0079 39.2319L59.7231 39.4139L59.5752 39.5077C59.2809 39.6822 58.9774 39.8405 58.6662 39.9821C58.491 40.0648 58.3322 40.1366 58.1624 40.2028C57.8172 40.3289 57.4641 40.4321 57.1055 40.5117L56.8864 40.5779L56.755 40.611L54.8384 40.7489C54.5591 40.7489 54.2579 40.6937 53.9622 40.6551H53.7103H53.6665H53.5022H53.075C49.7122 40.6929 46.5017 42.0735 44.1485 44.4936C41.7952 46.9138 40.4915 50.1757 40.5237 53.5632V53.6625V53.7563C40.5291 53.8555 40.5291 53.9549 40.5237 54.0542C40.5237 54.1535 40.5237 54.2583 40.551 54.352C40.5784 54.4458 40.551 54.5396 40.551 54.6444C40.5722 54.7906 40.585 54.938 40.5894 55.0857L40.5237 56.9888L40.4415 57.2867C40.3587 57.6608 40.2526 58.0293 40.1239 58.39C40.0691 58.5444 39.9979 58.6989 39.9322 58.8533L39.9048 58.9085C39.7616 59.2227 39.6007 59.5284 39.4229 59.8242C39.3353 59.9731 39.2532 60.1166 39.1601 60.2545C38.38 61.4159 37.3267 62.3648 36.0941 63.0164C34.8614 63.668 33.4878 64.0022 32.0958 63.989Z" fill="#6F3DFF"/>
<path d="M8.84402 40.5834C7.1405 40.585 5.47476 40.0777 4.05741 39.1257C2.64006 38.1738 1.53474 36.8198 0.881209 35.2351C0.227673 33.6504 0.0552654 31.9061 0.385783 30.2227C0.716301 28.5393 1.5349 26.9925 2.73809 25.7777C3.11424 25.4082 3.52298 25.074 3.95928 24.7792L4.38094 24.5089C4.67665 24.3324 4.98332 24.1724 5.30641 24.018C5.4707 23.9463 5.63498 23.869 5.8157 23.8028C6.15191 23.6791 6.49582 23.5778 6.84522 23.4994L7.06426 23.4388C7.10183 23.4252 7.14025 23.4141 7.17926 23.4057L9.12878 23.2622C9.38068 23.2622 9.6764 23.3119 9.94473 23.3505H10.005H10.2623H10.3445H10.4266H10.9523C12.6208 23.3349 14.2695 22.9855 15.8028 22.3226C17.3361 21.6597 18.7233 20.6966 19.884 19.4891C21.0509 18.2909 21.9688 16.8701 22.5838 15.3101C23.1987 13.75 23.4985 12.082 23.4654 10.4038V10.31V10.2162C23.4461 10.1106 23.4351 10.0036 23.4325 9.89626V9.63148L23.3613 9.37773C23.3613 9.22327 23.323 9.05778 23.3175 8.89781L23.449 7.07744V7.03331V7.00021C23.449 6.95608 23.5311 6.71336 23.5311 6.71336C23.6144 6.33938 23.7204 5.97093 23.8487 5.6101C23.909 5.44462 23.9856 5.27913 24.0623 5.11364C24.2061 4.78698 24.3707 4.47005 24.5551 4.16484V4.11519C24.6318 3.98831 24.703 3.86144 24.7906 3.74008C25.0783 3.30336 25.4065 2.89516 25.7709 2.52098C27.3888 0.888261 29.5844 -0.030154 31.8745 -0.0322231C34.1647 -0.0342921 36.3619 0.880155 37.9827 2.50995C39.6036 4.13974 40.5153 6.35138 40.5174 8.65833C40.5194 10.9653 39.6116 13.1786 37.9937 14.8113C37.6196 15.1776 37.2126 15.5081 36.778 15.7987C36.6465 15.8925 36.5315 15.9587 36.4165 16.0304L36.3508 16.069C36.0332 16.2565 35.7265 16.422 35.4308 16.5599C35.2556 16.6372 35.0968 16.7144 34.9325 16.7751C34.5869 16.9015 34.2339 17.0065 33.8756 17.0895C33.7997 17.1057 33.7248 17.126 33.6511 17.1502L33.5142 17.1888L31.603 17.3212C31.362 17.3212 31.1046 17.2771 30.8363 17.244H30.7158H30.4694H30.3106H30.223H29.7958C26.4406 17.2934 23.2411 18.6779 20.8957 21.0953C18.5502 23.5126 17.2495 26.7665 17.2773 30.1466V30.2403V30.3396C17.2921 30.4365 17.3013 30.5341 17.3047 30.632C17.3047 30.7368 17.3047 30.8361 17.3321 30.9354C17.3595 31.0347 17.3321 31.1229 17.3649 31.2222C17.384 31.3649 17.395 31.5086 17.3978 31.6525L17.2609 33.5446C17.2507 33.5949 17.2379 33.6446 17.2226 33.6935L17.1733 33.8645C17.0949 34.2392 16.9906 34.6078 16.8611 34.9678C16.8009 35.1333 16.7188 35.3043 16.6421 35.4753C16.5029 35.7939 16.3475 36.105 16.1766 36.4076C16.089 36.562 16.0068 36.6999 15.9138 36.8323C15.6236 37.2736 15.2916 37.6856 14.9226 38.0624C14.1256 38.8684 13.1783 39.5076 12.135 39.9431C11.0918 40.3786 9.9733 40.6018 8.84402 40.5999V40.5834Z" fill="#6F3DFF"/>
</g>
<defs>
<clipPath id="clip0_88_4675">
<rect width="64" height="64" fill="white"/>
</clipPath>
</defs>
</svg>
