<svg width="86" height="85" viewBox="0 0 86 85" fill="none" xmlns="http://www.w3.org/2000/svg">
<circle cx="43" cy="42.5" r="42.5" fill="#6F3DFF"/>
<path d="M43 23.75C38.0875 23.75 34.0938 27.7438 34.0938 32.6563C34.0938 37.475 37.8625 41.375 42.775 41.5438C42.925 41.525 43.075 41.525 43.1875 41.5438C43.225 41.5438 43.2437 41.5438 43.2812 41.5438C43.3 41.5438 43.3 41.5438 43.3188 41.5438C48.1188 41.375 51.8875 37.475 51.9062 32.6563C51.9062 27.7438 47.9125 23.75 43 23.75Z" fill="white"/>
<path d="M52.5251 46.5312C47.2938 43.0437 38.7625 43.0437 33.4938 46.5312C31.1125 48.1249 29.8 50.2812 29.8 52.5874C29.8 54.8937 31.1125 57.0312 33.475 58.6062C36.1 60.3687 39.55 61.2499 43 61.2499C46.45 61.2499 49.9 60.3687 52.5251 58.6062C54.8876 57.0124 56.2001 54.8749 56.2001 52.5499C56.1813 50.2437 54.8876 48.1062 52.5251 46.5312Z" fill="white"/>
</svg>
