<svg width="20" height="21" viewBox="0 0 20 21" fill="none" xmlns="http://www.w3.org/2000/svg">
<g clip-path="url(#clip0_1995_11696)">
<path d="M16.25 20.5H3.75C1.67875 20.5 0 18.8212 0 16.75V4.25C0 2.17875 1.67875 0.5 3.75 0.5H16.25C18.3212 0.5 20 2.17875 20 4.25V16.75C20 18.8212 18.3212 20.5 16.25 20.5Z" fill="#F1ECFF"/>
<path d="M15.0659 5.95136C14.4604 5.33763 13.6554 5 12.7993 5C11.9432 5 11.1382 5.33763 10.5327 5.95061L10 6.49081L9.4673 5.95136C8.86182 5.33763 8.05752 5 7.2007 5C6.34463 5 5.53958 5.33763 4.9341 5.95136C3.68863 7.21408 3.68863 9.26835 4.9341 10.5296L9.7329 15.3921C9.80343 15.4642 9.89946 15.5039 10 15.5039C10.1005 15.5039 10.1966 15.4642 10.2671 15.3921L15.0659 10.5296C16.3114 9.2676 16.3114 7.21408 15.0659 5.95136V5.95136Z" fill="#6F3DFF"/>
</g>
<defs>
<clipPath id="clip0_1995_11696">
<rect width="20" height="20" fill="white" transform="translate(0 0.5)"/>
</clipPath>
</defs>
</svg>
