<svg width="18" height="18" viewBox="0 0 18 18" fill="none" xmlns="http://www.w3.org/2000/svg">
<path d="M14.625 18H3.375C1.51088 18 0 16.4891 0 14.625V3.375C0 1.51088 1.51088 0 3.375 0H14.625C16.4891 0 18 1.51088 18 3.375V14.625C18 16.4891 16.4891 18 14.625 18Z" fill="#D9E8EC"/>
<path d="M13.5594 4.90627C13.0145 4.35391 12.2899 4.05005 11.5195 4.05005C10.749 4.05005 10.0245 4.35391 9.47953 4.90559L9.0001 5.39178L8.52067 4.90627C7.97574 4.35391 7.25187 4.05005 6.48073 4.05005C5.71026 4.05005 4.98572 4.35391 4.44079 4.90627C3.31987 6.04272 3.31987 7.89156 4.44079 9.02667L8.75971 13.403C8.82318 13.4678 8.90961 13.5036 9.0001 13.5036C9.09058 13.5036 9.17701 13.4678 9.24049 13.403L13.5594 9.02667C14.6803 7.89089 14.6803 6.04272 13.5594 4.90627Z" fill="#00677D"/>
</svg>
