<svg width="34" height="34" viewBox="0 0 34 34" fill="none" xmlns="http://www.w3.org/2000/svg">
<rect x="34" y="34" width="34" height="34" rx="17" transform="rotate(-180 34 34)" fill="#2ECC71" fill-opacity="0.15"/>
<circle cx="17" cy="17" r="10" transform="rotate(-180 17 17)" fill="#2ECC71"/>
<path d="M12.8359 20.9226C12.9309 21.0176 13.0541 21.0747 13.1783 21.0835L16.4786 21.3149C16.7359 21.333 16.9339 21.135 16.9158 20.8777C16.8978 20.6204 16.6699 20.3926 16.4126 20.3745L14.239 20.2221L20.9212 13.5399C21.0903 13.3708 21.0692 13.0692 20.8745 12.8745C20.6799 12.6799 20.383 12.6635 20.2139 12.8326L13.5359 19.5106L13.384 17.3459C13.366 17.0886 13.1381 16.8608 12.8808 16.8427C12.7478 16.8334 12.6362 16.8785 12.5578 16.9569C12.4794 17.0353 12.4343 17.1469 12.4436 17.28L12.6745 20.5714C12.6788 20.6335 12.6968 20.701 12.7278 20.7649C12.7325 20.7697 12.7373 20.7744 12.7379 20.7833C12.7635 20.8337 12.7932 20.8799 12.8359 20.9226Z" fill="white"/>
</svg>
