<svg width="21" height="22" viewBox="0 0 21 22" fill="none" xmlns="http://www.w3.org/2000/svg">
<path d="M3.56107 20.0451L4.00191 19.4383L3.56107 20.0451ZM2.45491 18.9389L3.06168 18.4981L2.45491 18.9389ZM18.5451 18.9389L17.9383 18.4981L18.5451 18.9389ZM17.4389 20.0451L16.9981 19.4383L17.4389 20.0451ZM17.4389 1.95491L16.9981 2.56168L17.4389 1.95491ZM18.5451 3.06107L17.9383 3.50191L18.5451 3.06107ZM3.56107 1.95491L4.00191 2.56168L3.56107 1.95491ZM2.45491 3.06107L3.06168 3.50191L2.45491 3.06107ZM6.5 14.25C6.08579 14.25 5.75 14.5858 5.75 15C5.75 15.4142 6.08579 15.75 6.5 15.75V14.25ZM14.5 15.75C14.9142 15.75 15.25 15.4142 15.25 15C15.25 14.5858 14.9142 14.25 14.5 14.25V15.75ZM6.5 10.25C6.08579 10.25 5.75 10.5858 5.75 11C5.75 11.4142 6.08579 11.75 6.5 11.75V10.25ZM14.5 11.75C14.9142 11.75 15.25 11.4142 15.25 11C15.25 10.5858 14.9142 10.25 14.5 10.25V11.75ZM6.5 6.25C6.08579 6.25 5.75 6.58579 5.75 7C5.75 7.41421 6.08579 7.75 6.5 7.75V6.25ZM14.5 7.75C14.9142 7.75 15.25 7.41421 15.25 7C15.25 6.58579 14.9142 6.25 14.5 6.25V7.75ZM18.75 10V12H20.25V10H18.75ZM2.25 12V10H0.75V12H2.25ZM10.5 20.25C8.60843 20.25 7.24999 20.249 6.19804 20.135C5.16013 20.0225 4.50992 19.8074 4.00191 19.4383L3.12023 20.6518C3.92656 21.2377 4.87094 21.5 6.03648 21.6263C7.18798 21.751 8.64184 21.75 10.5 21.75V20.25ZM0.75 12C0.75 13.8582 0.748971 15.312 0.873728 16.4635C1.00001 17.6291 1.26232 18.5734 1.84815 19.3798L3.06168 18.4981C2.69259 17.9901 2.47745 17.3399 2.365 16.302C2.25103 15.25 2.25 13.8916 2.25 12H0.75ZM4.00191 19.4383C3.64111 19.1762 3.32382 18.8589 3.06168 18.4981L1.84815 19.3798C2.20281 19.8679 2.63209 20.2972 3.12023 20.6518L4.00191 19.4383ZM18.75 12C18.75 13.8916 18.749 15.25 18.635 16.302C18.5225 17.3399 18.3074 17.9901 17.9383 18.4981L19.1518 19.3798C19.7377 18.5734 20 17.6291 20.1263 16.4635C20.251 15.312 20.25 13.8582 20.25 12H18.75ZM10.5 21.75C12.3582 21.75 13.812 21.751 14.9635 21.6263C16.1291 21.5 17.0734 21.2377 17.8798 20.6518L16.9981 19.4383C16.4901 19.8074 15.8399 20.0225 14.802 20.135C13.75 20.249 12.3916 20.25 10.5 20.25V21.75ZM17.9383 18.4981C17.6762 18.8589 17.3589 19.1762 16.9981 19.4383L17.8798 20.6518C18.3679 20.2972 18.7972 19.8679 19.1518 19.3798L17.9383 18.4981ZM10.5 1.75C12.3916 1.75 13.75 1.75103 14.802 1.865C15.8399 1.97745 16.4901 2.19259 16.9981 2.56168L17.8798 1.34815C17.0734 0.762324 16.1291 0.500006 14.9635 0.373728C13.812 0.248971 12.3582 0.25 10.5 0.25V1.75ZM20.25 10C20.25 8.14184 20.251 6.68798 20.1263 5.53648C20 4.37094 19.7377 3.42656 19.1518 2.62023L17.9383 3.50191C18.3074 4.00992 18.5225 4.66013 18.635 5.69804C18.749 6.74999 18.75 8.10843 18.75 10H20.25ZM16.9981 2.56168C17.3589 2.82382 17.6762 3.14111 17.9383 3.50191L19.1518 2.62023C18.7972 2.13209 18.3679 1.70281 17.8798 1.34815L16.9981 2.56168ZM10.5 0.25C8.64184 0.25 7.18798 0.248971 6.03648 0.373728C4.87094 0.500006 3.92656 0.762324 3.12023 1.34815L4.00191 2.56168C4.50992 2.19259 5.16013 1.97745 6.19804 1.865C7.24999 1.75103 8.60843 1.75 10.5 1.75V0.25ZM2.25 10C2.25 8.10843 2.25103 6.74999 2.365 5.69804C2.47745 4.66013 2.69259 4.00992 3.06168 3.50191L1.84815 2.62023C1.26232 3.42656 1.00001 4.37094 0.873728 5.53648C0.748971 6.68798 0.75 8.14184 0.75 10H2.25ZM3.12023 1.34815C2.63209 1.70281 2.20281 2.13209 1.84815 2.62023L3.06168 3.50191C3.32382 3.14111 3.64111 2.82382 4.00191 2.56168L3.12023 1.34815ZM6.5 15.75H14.5V14.25H6.5V15.75ZM6.5 11.75H14.5V10.25H6.5V11.75ZM6.5 7.75H14.5V6.25H6.5V7.75Z" fill="#808080"/>
</svg>
