<svg width="85" height="85" viewBox="0 0 85 85" fill="none" xmlns="http://www.w3.org/2000/svg">
<circle cx="42.5" cy="42.5" r="42.5" fill="#6F3DFF"/>
<path d="M29.375 48.125C25.2312 48.125 21.875 51.4812 21.875 55.625C21.875 57.0312 22.2688 58.3625 22.9625 59.4875C24.2563 61.6625 26.6375 63.125 29.375 63.125C32.1125 63.125 34.4938 61.6625 35.7875 59.4875C36.4812 58.3625 36.875 57.0312 36.875 55.625C36.875 51.4812 33.5188 48.125 29.375 48.125ZM33.0687 55.0063L29.075 58.7C28.8125 58.9437 28.4562 59.075 28.1187 59.075C27.7625 59.075 27.4062 58.9438 27.125 58.6625L25.2687 56.8062C24.725 56.2625 24.725 55.3625 25.2687 54.8187C25.8125 54.275 26.7125 54.275 27.2562 54.8187L28.1562 55.7187L31.1562 52.9437C31.7188 52.4187 32.6188 52.4563 33.1438 53.0188C33.6688 53.5813 33.6312 54.4813 33.0687 55.0063Z" fill="white"/>
<path d="M60.3125 43.4375H55.625C53.5625 43.4375 51.875 45.125 51.875 47.1875C51.875 49.25 53.5625 50.9375 55.625 50.9375H60.3125C60.8375 50.9375 61.25 50.525 61.25 50V44.375C61.25 43.85 60.8375 43.4375 60.3125 43.4375Z" fill="white"/>
<path d="M50.9938 30.1248C51.5563 30.6686 51.0875 31.5123 50.3 31.5123L34.775 31.4936C33.875 31.4936 33.425 30.4061 34.0625 29.7686L37.3438 26.4686C40.1188 23.7123 44.6 23.7123 47.375 26.4686L50.9188 30.0498C50.9375 30.0686 50.975 30.1061 50.9938 30.1248Z" fill="white"/>
<path d="M61.0063 54.9875C59.8626 58.85 56.5626 61.25 52.0626 61.25H39.8751C39.1438 61.25 38.675 60.4437 38.975 59.7687C39.5375 58.4562 39.8938 56.975 39.8938 55.625C39.8938 49.9438 35.2626 45.3125 29.5813 45.3125C28.1563 45.3125 26.7688 45.6125 25.4938 46.175C24.8 46.475 23.9563 46.0063 23.9563 45.2563V42.5C23.9563 37.4 27.0313 33.8375 31.8126 33.2375C32.2813 33.1625 32.7875 33.125 33.3125 33.125H52.0626C52.5501 33.125 53.0188 33.1438 53.4688 33.2188C57.2563 33.65 59.9938 35.9563 61.0063 39.3875C61.1938 40.0063 60.7438 40.625 60.1063 40.625H55.8125C51.7438 40.625 48.5188 44.3375 49.4001 48.5562C50.0188 51.6312 52.8688 53.75 56 53.75H60.1063C60.7626 53.75 61.1938 54.3875 61.0063 54.9875Z" fill="white"/>
</svg>
