<svg width="34" height="34" viewBox="0 0 34 34" fill="none" xmlns="http://www.w3.org/2000/svg">
<rect width="34" height="34" rx="17" fill="#FA9F18" fill-opacity="0.15"/>
<path d="M24.97 6.75H22.03C20.76 6.75 20 7.51 20 8.78V11.72C20 12.99 20.76 13.75 22.03 13.75H24.97C26.24 13.75 27 12.99 27 11.72V8.78C27 7.51 26.24 6.75 24.97 6.75ZM25.19 10.06C25.07 10.18 24.91 10.24 24.75 10.24C24.59 10.24 24.43 10.18 24.31 10.06L24.13 9.88V12.12C24.13 12.47 23.85 12.75 23.5 12.75C23.15 12.75 22.87 12.47 22.87 12.12V9.88L22.69 10.06C22.45 10.3 22.05 10.3 21.81 10.06C21.57 9.82 21.57 9.42 21.81 9.18L23.06 7.93C23.11 7.88 23.18 7.84 23.25 7.81C23.27 7.8 23.29 7.8 23.31 7.79C23.36 7.77 23.41 7.76 23.47 7.76C23.49 7.76 23.51 7.76 23.53 7.76C23.6 7.76 23.66 7.77 23.73 7.8C23.74 7.8 23.74 7.8 23.75 7.8C23.82 7.83 23.88 7.87 23.93 7.92C23.94 7.93 23.94 7.93 23.95 7.93L25.2 9.18C25.44 9.42 25.44 9.82 25.19 10.06Z" fill="#FA9F18"/>
<path d="M7 16.46V21.46C7 23.75 8.85 25.6 11.14 25.6H22.85C25.14 25.6 27 23.74 27 21.45V16.46C27 15.79 26.46 15.25 25.79 15.25H8.21C7.54 15.25 7 15.79 7 16.46ZM13 22.25H11C10.59 22.25 10.25 21.91 10.25 21.5C10.25 21.09 10.59 20.75 11 20.75H13C13.41 20.75 13.75 21.09 13.75 21.5C13.75 21.91 13.41 22.25 13 22.25ZM19.5 22.25H15.5C15.09 22.25 14.75 21.91 14.75 21.5C14.75 21.09 15.09 20.75 15.5 20.75H19.5C19.91 20.75 20.25 21.09 20.25 21.5C20.25 21.91 19.91 22.25 19.5 22.25Z" fill="#FA9F18"/>
<path d="M18.5 9.60941V12.5394C18.5 13.2094 17.96 13.7494 17.29 13.7494H8.21C7.53 13.7494 7 13.1894 7 12.5194C7.01 11.3894 7.46 10.3594 8.21 9.60941C8.96 8.85941 10 8.39941 11.14 8.39941H17.29C17.96 8.39941 18.5 8.93941 18.5 9.60941Z" fill="#FA9F18"/>
</svg>
