<svg width="34" height="34" viewBox="0 0 34 34" fill="none" xmlns="http://www.w3.org/2000/svg">
<rect width="34" height="34" rx="17" fill="#FAE2E0"/>
<circle cx="17" cy="17" r="10" fill="#E74C3C"/>
<path d="M21.1641 13.0774C21.0691 12.9824 20.9459 12.9253 20.8217 12.9165L17.5214 12.6851C17.2641 12.667 17.0661 12.865 17.0842 13.1223C17.1022 13.3796 17.3301 13.6074 17.5874 13.6255L19.761 13.7779L13.0788 20.4601C12.9097 20.6292 12.9308 20.9308 13.1255 21.1255C13.3201 21.3201 13.617 21.3365 13.7861 21.1674L20.4641 14.4894L20.616 16.6541C20.634 16.9114 20.8619 17.1392 21.1192 17.1573C21.2522 17.1666 21.3638 17.1215 21.4422 17.0431C21.5206 16.9647 21.5657 16.8531 21.5564 16.72L21.3255 13.4286C21.3212 13.3665 21.3032 13.299 21.2722 13.2351C21.2675 13.2303 21.2627 13.2256 21.2621 13.2167C21.2365 13.1663 21.2068 13.1201 21.1641 13.0774Z" fill="white"/>
</svg>
