<svg width="24" height="24" viewBox="0 0 24 24" fill="none" xmlns="http://www.w3.org/2000/svg">
<path d="M12 21.1426C17.0495 21.1426 21.1429 17.0493 21.1429 11.9998C21.1429 6.95033 17.0495 2.85693 12 2.85693C6.95057 2.85693 2.85718 6.95033 2.85718 11.9998C2.85718 17.0493 6.95057 21.1426 12 21.1426Z" stroke="#202021" stroke-linecap="round" stroke-linejoin="round"/>
<path fill-rule="evenodd" clip-rule="evenodd" d="M12 13.1426C12.5714 13.1426 13.1429 12.5712 13.1429 11.9998C13.1429 11.4284 12.5714 10.8569 12 10.8569C11.4286 10.8569 10.8583 11.4284 10.8583 11.9998C10.8583 12.5712 11.4286 13.1426 12 13.1426ZM7.42858 13.1426C8.00001 13.1426 8.57144 12.5712 8.57144 11.9998C8.57144 11.4284 8.00001 10.8569 7.42858 10.8569C6.85715 10.8569 6.28687 11.4284 6.28687 11.9998C6.28687 12.5712 6.85715 13.1426 7.42858 13.1426ZM16.5714 13.1426C17.1429 13.1426 17.7143 12.5712 17.7143 11.9998C17.7143 11.4284 17.1429 10.8569 16.5714 10.8569C16 10.8569 15.4297 11.4284 15.4297 11.9998C15.4297 12.5712 16 13.1426 16.5714 13.1426Z" fill="#202021"/>
</svg>
