<svg width="45" height="45" viewBox="0 0 45 45" fill="none" xmlns="http://www.w3.org/2000/svg">
<path d="M26.9062 3.75H18.0937C16.1437 3.75 14.55 5.325 14.55 7.275V9.0375C14.55 10.9875 16.125 12.5625 18.075 12.5625H26.9062C28.8562 12.5625 30.4312 10.9875 30.4312 9.0375V7.275C30.45 5.325 28.8562 3.75 26.9062 3.75Z" fill="white"/>
<path d="M32.325 9.03752C32.325 12.0188 29.8875 14.4563 26.9063 14.4563H18.0938C15.1125 14.4563 12.675 12.0188 12.675 9.03752C12.675 7.98752 11.55 7.33127 10.6125 7.81877C7.96876 9.22502 6.16876 12.0188 6.16876 15.225V32.8688C6.16876 37.4813 9.93751 41.25 14.55 41.25H30.45C35.0625 41.25 38.8313 37.4813 38.8313 32.8688V15.225C38.8313 12.0188 37.0313 9.22502 34.3875 7.81877C33.45 7.33127 32.325 7.98752 32.325 9.03752ZM23.2125 31.7813H15C14.2313 31.7813 13.5938 31.1438 13.5938 30.375C13.5938 29.6063 14.2313 28.9688 15 28.9688H23.2125C23.9813 28.9688 24.6188 29.6063 24.6188 30.375C24.6188 31.1438 23.9813 31.7813 23.2125 31.7813ZM28.125 24.2813H15C14.2313 24.2813 13.5938 23.6438 13.5938 22.875C13.5938 22.1063 14.2313 21.4688 15 21.4688H28.125C28.8938 21.4688 29.5313 22.1063 29.5313 22.875C29.5313 23.6438 28.8938 24.2813 28.125 24.2813Z" fill="white"/>
</svg>
