<svg width="17" height="18" viewBox="0 0 17 18" fill="none" xmlns="http://www.w3.org/2000/svg">
<path d="M8.50008 0.666504C3.90841 0.666504 0.166748 4.40817 0.166748 8.99984C0.166748 13.5915 3.90841 17.3332 8.50008 17.3332C13.0917 17.3332 16.8334 13.5915 16.8334 8.99984C16.8334 4.40817 13.0917 0.666504 8.50008 0.666504ZM12.1251 11.9748C12.0084 12.1748 11.8001 12.2832 11.5834 12.2832C11.4751 12.2832 11.3667 12.2582 11.2667 12.1915L8.68341 10.6498C8.04175 10.2665 7.56675 9.42484 7.56675 8.68317V5.2665C7.56675 4.92484 7.85008 4.6415 8.19175 4.6415C8.53341 4.6415 8.81675 4.92484 8.81675 5.2665V8.68317C8.81675 8.98317 9.06675 9.42484 9.32508 9.57484L11.9084 11.1165C12.2084 11.2915 12.3084 11.6748 12.1251 11.9748Z" fill="#6F3DFF"/>
</svg>
