<svg width="85" height="85" viewBox="0 0 85 85" fill="none" xmlns="http://www.w3.org/2000/svg">
<path d="M85 42.5C85 65.9721 65.9721 85 42.5 85C19.0279 85 0 65.9721 0 42.5C0 19.0279 19.0279 0 42.5 0C65.9721 0 85 19.0279 85 42.5Z" fill="#6F3DFF"/>
<path d="M51.875 26.5625H33.125C27.5 26.5625 23.75 29.375 23.75 35.9375V49.0625C23.75 55.625 27.5 58.4375 33.125 58.4375H51.875C57.5 58.4375 61.25 55.625 61.25 49.0625V35.9375C61.25 29.375 57.5 26.5625 51.875 26.5625ZM52.7562 37.9813L46.8875 42.6688C45.65 43.6625 44.075 44.15 42.5 44.15C40.925 44.15 39.3312 43.6625 38.1125 42.6688L32.2438 37.9813C31.6438 37.4938 31.55 36.5937 32.0187 35.9937C32.5062 35.3937 33.3875 35.2812 33.9875 35.7687L39.8563 40.4562C41.2812 41.6 43.7 41.6 45.125 40.4562L50.9938 35.7687C51.5938 35.2812 52.4937 35.375 52.9625 35.9937C53.45 36.5937 53.3562 37.4938 52.7562 37.9813Z" fill="white"/>
</svg>
