<svg width="85" height="85" viewBox="0 0 85 85" fill="none" xmlns="http://www.w3.org/2000/svg">
<circle cx="42.5" cy="42.5" r="42.5" fill="#6F3DFF"/>
<path d="M41.0938 54.2186H36.875C34.8125 54.2186 33.125 55.9061 33.125 57.9686V58.4373H31.25C30.4812 58.4373 29.8438 59.0748 29.8438 59.8436C29.8438 60.6123 30.4812 61.2498 31.25 61.2498H53.75C54.5187 61.2498 55.1562 60.6123 55.1562 59.8436C55.1562 59.0748 54.5187 58.4373 53.75 58.4373H51.875V57.9686C51.875 55.9061 50.1875 54.2186 48.125 54.2186H43.9062V49.9248C43.4375 49.9811 42.9688 49.9998 42.5 49.9998C42.0312 49.9998 41.5625 49.9811 41.0938 49.9248V54.2186Z" fill="white"/>
<path d="M54.65 41.825C55.8875 41.3563 56.975 40.5875 57.8375 39.725C59.5813 37.7938 60.725 35.4875 60.725 32.7875C60.725 30.0875 58.6063 27.9688 55.9063 27.9688H54.8563C53.6375 25.475 51.0875 23.75 48.125 23.75H36.875C33.9125 23.75 31.3625 25.475 30.1438 27.9688H29.0938C26.3938 27.9688 24.275 30.0875 24.275 32.7875C24.275 35.4875 25.4188 37.7938 27.1625 39.725C28.025 40.5875 29.1125 41.3563 30.35 41.825C32.3 46.625 36.9875 50 42.5 50C48.0125 50 52.7 46.625 54.65 41.825ZM47.825 35.8438L46.6625 37.2688C46.475 37.475 46.3438 37.8875 46.3625 38.1687L46.475 40.0063C46.55 41.1313 45.7438 41.7125 44.6938 41.3L42.9875 40.625C42.725 40.5312 42.275 40.5312 42.0125 40.625L40.3063 41.3C39.2563 41.7125 38.45 41.1313 38.525 40.0063L38.6375 38.1687C38.6563 37.8875 38.525 37.475 38.3375 37.2688L37.175 35.8438C36.4438 34.9812 36.7625 34.025 37.85 33.7437L39.6313 33.2938C39.9125 33.2188 40.25 32.9563 40.4 32.7125L41.3938 31.175C42.0125 30.2188 42.9875 30.2188 43.6063 31.175L44.6 32.7125C44.75 32.9563 45.0875 33.2188 45.3688 33.2938L47.15 33.7437C48.2375 34.025 48.5563 34.9812 47.825 35.8438Z" fill="white"/>
</svg>
