<svg width="50" height="50" viewBox="0 0 50 50" fill="none" xmlns="http://www.w3.org/2000/svg">
<rect width="50" height="50" rx="15" fill="#00677D"/>
<g clip-path="url(#clip0_1111_3729)">
<path d="M31.5804 33.9969C31.0202 33.997 30.4774 33.8013 30.0443 33.4434C29.6113 33.0854 29.3148 32.5872 29.2056 32.0338C29.0963 31.4803 29.1809 30.9058 29.445 30.4082C29.7092 29.9105 30.1364 29.5205 30.654 29.3047C31.1716 29.0888 31.7475 29.0604 32.2835 29.2243C32.8196 29.3882 33.2826 29.7343 33.5937 30.2036C33.9048 30.6729 34.0447 31.2363 33.9896 31.7979C33.9345 32.3594 33.6878 32.8844 33.2916 33.2833C33.0673 33.5102 32.8006 33.6901 32.5069 33.8126C32.2132 33.9351 31.8983 33.9977 31.5804 33.9969V33.9969Z" fill="white"/>
<path d="M18.4227 20.9925C17.9438 20.9923 17.4758 20.8492 17.0776 20.5812C16.6795 20.3132 16.3691 19.9324 16.1856 19.4869C16.0022 19.0413 15.954 18.5509 16.047 18.0778C16.1401 17.6046 16.3703 17.1698 16.7085 16.8284C17.1628 16.371 17.7788 16.114 18.4212 16.114C19.0635 16.114 19.6795 16.371 20.1338 16.8284C20.3588 17.0549 20.5374 17.3238 20.6591 17.6198C20.7809 17.9159 20.8436 18.2332 20.8436 18.5536C20.8436 18.874 20.7809 19.1913 20.6591 19.4873C20.5374 19.7834 20.3588 20.0523 20.1338 20.2788C19.9097 20.506 19.643 20.686 19.3493 20.8085C19.0556 20.931 18.7406 20.9936 18.4227 20.9925V20.9925Z" fill="white"/>
<path d="M31.471 20.9197C30.9922 20.9195 30.5241 20.7764 30.126 20.5084C29.7278 20.2405 29.4174 19.8596 29.234 19.4141C29.0506 18.9685 29.0023 18.4782 29.0954 18.005C29.1884 17.5318 29.4186 17.0971 29.7568 16.7556C30.0383 16.4714 30.3851 16.2615 30.7664 16.1446C31.1477 16.0277 31.5517 16.0073 31.9427 16.0853C32.3337 16.1634 32.6995 16.3373 33.0077 16.5919C33.316 16.8464 33.5571 17.1736 33.7098 17.5444C33.8625 17.9153 33.9219 18.3184 33.883 18.718C33.844 19.1175 33.7077 19.5012 33.4863 19.8351C33.2649 20.1689 32.9651 20.4425 32.6136 20.6317C32.262 20.8209 31.8696 20.9198 31.471 20.9197V20.9197Z" fill="white"/>
<path d="M18.4858 33.9969C18.0072 33.9972 17.5391 33.8545 17.1409 33.587C16.7427 33.3194 16.4322 32.9389 16.2486 32.4936C16.0649 32.0483 16.0165 31.5582 16.1093 31.0851C16.2021 30.6121 16.4321 30.1774 16.7701 29.8359C16.8744 29.7314 16.9889 29.6378 17.112 29.5567C17.1536 29.5272 17.1905 29.5039 17.2306 29.4807C17.3199 29.4279 17.4092 29.3814 17.4924 29.3426C17.5386 29.3224 17.5848 29.3007 17.6341 29.2821C17.7318 29.2446 17.8316 29.213 17.9329 29.1874L17.9945 29.1704L18.0315 29.1611L18.5705 29.1238C18.6383 29.1238 18.7122 29.1347 18.7892 29.1455H18.82H18.8878H18.9094H18.934H18.9556H19.0742C19.5442 29.1418 20.0088 29.0438 20.4409 28.8573C20.8729 28.6709 21.2638 28.3997 21.5908 28.0595C21.9193 27.7229 22.1777 27.3237 22.3509 26.8852C22.5241 26.4466 22.6087 25.9777 22.5996 25.5058V25.4795V25.45C22.5955 25.4238 22.593 25.3974 22.5919 25.3708C22.5919 25.3398 22.5889 25.3088 22.5827 25.2778V25.2235C22.5827 25.1754 22.5735 25.1304 22.5704 25.0838L22.6104 24.5393C22.6138 24.5256 22.6179 24.5121 22.6227 24.4989L22.632 24.4648C22.6553 24.3594 22.6856 24.2557 22.7228 24.1545C22.7399 24.1059 22.7594 24.0583 22.7814 24.0118C22.8196 23.9248 22.8623 23.8399 22.9092 23.7573C22.9323 23.7185 22.9554 23.6798 22.9816 23.641C23.0636 23.5171 23.1569 23.4013 23.2604 23.295C23.7154 22.8374 24.3323 22.5807 24.9752 22.5813C25.6182 22.5819 26.2346 22.8397 26.6888 23.2981C27.143 23.7565 27.3979 24.3779 27.3973 25.0255C27.3967 25.6732 27.1408 26.2941 26.6857 26.7516C26.5806 26.8553 26.4662 26.9488 26.3438 27.0309C26.3038 27.0588 26.2652 27.0821 26.2267 27.1038C26.1423 27.1555 26.0548 27.2021 25.9649 27.2435C25.9172 27.2652 25.8694 27.2869 25.8248 27.304C25.729 27.3406 25.6306 27.3701 25.5306 27.3924L25.4721 27.4079L25.4336 27.4203L24.8883 27.4591C24.8252 27.4591 24.7574 27.4467 24.6866 27.4374H24.6388H24.5711H24.5526H24.5249H24.3847C23.4405 27.4501 22.5397 27.8387 21.8791 28.5184C21.2185 29.1981 20.8518 30.1135 20.8592 31.0647V31.0926V31.119C20.8633 31.1452 20.8659 31.1716 20.8669 31.1981C20.8669 31.2307 20.8669 31.2602 20.8762 31.2912C20.8777 31.3198 20.8808 31.3483 20.8854 31.3765C20.8854 31.4138 20.8854 31.451 20.8854 31.4882V31.5007L20.8469 32.0235C20.8469 32.0344 20.8269 32.0949 20.8223 32.1135C20.7996 32.2188 20.7697 32.3225 20.7329 32.4238C20.7168 32.4709 20.6977 32.517 20.676 32.5619C20.6338 32.6547 20.587 32.7453 20.5358 32.8334C20.5127 32.8706 20.4865 32.914 20.4588 32.9544C20.3781 33.0764 20.2858 33.1902 20.1831 33.2941C19.7321 33.7457 19.1217 33.9985 18.4858 33.9969Z" fill="white"/>
<path d="M25.0269 33.9968C24.5485 33.9968 24.0809 33.854 23.683 33.5865C23.2851 33.319 22.9748 32.9387 22.7913 32.4938C22.6077 32.0488 22.5592 31.559 22.6517 31.0862C22.7442 30.6134 22.9737 30.1789 23.3111 29.8374C23.4169 29.7324 23.5325 29.6378 23.6561 29.555C23.6916 29.5302 23.7301 29.5069 23.7701 29.4836C23.8555 29.4321 23.9434 29.385 24.0335 29.3424L24.1736 29.2819C24.2693 29.2474 24.3671 29.2189 24.4663 29.1966L24.5618 29.1687L25.1101 29.1283C25.1748 29.1283 25.2441 29.1408 25.3165 29.1501H25.358H25.4304H25.4566H25.4735H25.4967H25.6168C26.5602 29.1362 27.4598 28.747 28.1194 28.0674C28.779 27.3879 29.145 26.4731 29.1376 25.5228V25.4095L29.1284 25.3971C29.1275 25.393 29.1275 25.3888 29.1284 25.3847V25.304L29.1191 25.2264C29.1191 25.183 29.1084 25.1411 29.1068 25.0977L29.1438 24.5702C29.1438 24.5562 29.1653 24.491 29.17 24.4724C29.189 24.3706 29.2142 24.2701 29.2454 24.1714C29.2629 24.1233 29.283 24.0762 29.3055 24.0303C29.3469 23.9389 29.3932 23.8498 29.4441 23.7634L29.4549 23.7463C29.4734 23.7138 29.4919 23.6827 29.5134 23.6517C29.5961 23.527 29.69 23.4102 29.7937 23.3026C30.2483 22.8451 30.8646 22.5881 31.5072 22.5881C32.1498 22.5881 32.766 22.8451 33.2206 23.3026C33.6733 23.7613 33.9274 24.3818 33.9274 25.0286C33.9274 25.6754 33.6733 26.2959 33.2206 26.7546C33.1142 26.8574 32.9993 26.9508 32.8772 27.0339L32.7971 27.0851L32.7555 27.1115C32.6727 27.1605 32.5874 27.2051 32.4998 27.2449C32.4505 27.2681 32.4059 27.2883 32.3581 27.3069C32.261 27.3424 32.1617 27.3714 32.0609 27.3938L31.9993 27.4124L31.9623 27.4217L31.4232 27.4605C31.3447 27.4605 31.26 27.445 31.1768 27.4342H31.106H31.0936H31.0474H30.9273C29.9815 27.4448 29.0786 27.8331 28.4167 28.5137C27.7548 29.1944 27.3882 30.1118 27.3972 31.0646V31.0925V31.1189C27.3987 31.1468 27.3987 31.1747 27.3972 31.2026C27.3972 31.2306 27.3972 31.26 27.4049 31.2864C27.4126 31.3128 27.4049 31.3392 27.4049 31.3686C27.4109 31.4098 27.4145 31.4512 27.4157 31.4928L27.3972 32.028L27.3741 32.1118C27.3508 32.217 27.321 32.3206 27.2848 32.4221C27.2694 32.4655 27.2494 32.509 27.2309 32.5524L27.2232 32.5679C27.1829 32.6563 27.1376 32.7423 27.0876 32.8255C27.063 32.8674 27.0399 32.9077 27.0137 32.9465C26.7943 33.2731 26.4981 33.54 26.1514 33.7233C25.8047 33.9065 25.4184 34.0005 25.0269 33.9968V33.9968Z" fill="white"/>
<path d="M18.4874 27.4141C18.0083 27.4145 17.5398 27.2719 17.1412 27.0041C16.7426 26.7364 16.4317 26.3556 16.2479 25.9099C16.0641 25.4642 16.0156 24.9736 16.1085 24.5002C16.2015 24.0267 16.4317 23.5917 16.7701 23.25C16.8759 23.1461 16.9909 23.0521 17.1136 22.9692L17.2322 22.8932C17.3153 22.8435 17.4016 22.7985 17.4925 22.7551C17.5387 22.7349 17.5849 22.7132 17.6357 22.6946C17.7303 22.6598 17.827 22.6313 17.9253 22.6092L17.9869 22.5922C17.9974 22.5884 18.0082 22.5853 18.0192 22.5829L18.5675 22.5425C18.6384 22.5425 18.7215 22.5565 18.797 22.5674H18.8139H18.8863H18.9094H18.9325H19.0804C19.5496 22.563 20.0133 22.4647 20.4446 22.2783C20.8758 22.0918 21.266 21.8209 21.5924 21.4813C21.9206 21.1443 22.1788 20.7447 22.3517 20.306C22.5247 19.8672 22.609 19.3981 22.5997 18.9261V18.8997V18.8733C22.5942 18.8436 22.5911 18.8135 22.5904 18.7834V18.7089L22.5704 18.6375C22.5704 18.5941 22.5596 18.5475 22.5581 18.5025L22.5951 17.9906V17.9781V17.9688C22.5951 17.9564 22.6182 17.8882 22.6182 17.8882C22.6416 17.783 22.6714 17.6794 22.7075 17.5779C22.7244 17.5313 22.746 17.4848 22.7676 17.4382C22.808 17.3464 22.8543 17.2572 22.9062 17.1714V17.1574C22.9277 17.1217 22.9478 17.0861 22.9724 17.0519C23.0533 16.9291 23.1456 16.8143 23.2481 16.7091C23.7031 16.2499 24.3206 15.9915 24.9647 15.991C25.6089 15.9904 26.2268 16.2476 26.6827 16.706C27.1385 17.1643 27.395 17.7864 27.3955 18.4352C27.3961 19.084 27.1408 19.7065 26.6858 20.1657C26.5805 20.2687 26.4661 20.3617 26.3438 20.4434C26.3069 20.4698 26.2745 20.4884 26.2422 20.5086L26.2237 20.5194C26.1344 20.5722 26.0481 20.6187 25.965 20.6575C25.9157 20.6792 25.871 20.701 25.8248 20.718C25.7276 20.7536 25.6283 20.7831 25.5275 20.8065C25.5062 20.811 25.4851 20.8167 25.4644 20.8235L25.4259 20.8344L24.8884 20.8716C24.8206 20.8716 24.7482 20.8592 24.6728 20.8499H24.6389H24.5696H24.5249H24.5003H24.3801C23.4365 20.8638 22.5366 21.2532 21.8769 21.9331C21.2173 22.613 20.8515 23.5281 20.8593 24.4788V24.5051V24.5331C20.8634 24.5603 20.866 24.5877 20.867 24.6153C20.867 24.6448 20.867 24.6727 20.8747 24.7006C20.8824 24.7285 20.8747 24.7534 20.8839 24.7813C20.8893 24.8214 20.8924 24.8618 20.8932 24.9023L20.8547 25.4344C20.8518 25.4486 20.8482 25.4626 20.8439 25.4763L20.83 25.5244C20.808 25.6298 20.7787 25.7335 20.7422 25.8347C20.7253 25.8813 20.7022 25.9294 20.6806 25.9775C20.6415 26.0671 20.5978 26.1546 20.5497 26.2397C20.5251 26.2831 20.502 26.3219 20.4758 26.3591C20.3942 26.4832 20.3008 26.5991 20.197 26.7051C19.9729 26.9318 19.7064 27.1115 19.413 27.234C19.1196 27.3565 18.805 27.4193 18.4874 27.4188V27.4141Z" fill="white"/>
</g>
<defs>
<clipPath id="clip0_1111_3729">
<rect width="18" height="18" fill="white" transform="translate(16 16)"/>
</clipPath>
</defs>
</svg>
