<svg width="86" height="85" viewBox="0 0 86 85" fill="none" xmlns="http://www.w3.org/2000/svg">
<path d="M85.5 42.5C85.5 65.9721 66.4721 85 43 85C19.5279 85 0.5 65.9721 0.5 42.5C0.5 19.0279 19.5279 0 43 0C66.4721 0 85.5 19.0279 85.5 42.5Z" fill="#00677D"/>
<path d="M56.411 32.6838C56.411 25.6801 50.6289 20 43.4994 20C36.3699 20 30.5878 25.6801 30.5878 32.6838C30.5878 39.6875 36.3699 45.3676 43.4994 45.3676C50.6289 45.3676 56.411 39.6875 56.411 32.6838ZM33.956 32.6838C33.956 27.5 38.2225 23.3088 43.4994 23.3088C48.7763 23.3088 53.0428 27.5 53.0428 32.6838C53.0428 37.8676 48.7763 42.0588 43.4994 42.0588C38.2225 42.0588 33.956 37.8676 33.956 32.6838Z" fill="white"/>
<path d="M21.8861 64.7793C22.1668 64.9447 22.4475 64.9999 22.7282 64.9999C23.2896 64.9999 23.9071 64.7242 24.1878 64.1727C28.1174 57.3344 35.5275 53.0881 43.4991 53.0881C51.4706 53.0881 58.8808 57.3344 62.8665 64.1727C63.3156 64.9447 64.3822 65.2205 65.1682 64.7793C65.9541 64.3381 66.2348 63.2903 65.7857 62.5183C61.2385 54.6874 52.7056 49.7793 43.4991 49.7793C34.2925 49.7793 25.7596 54.6874 21.2125 62.5183C20.7634 63.2903 21.0441 64.3381 21.8861 64.7793Z" fill="white"/>
<path d="M59 49.66L64.66 44" stroke="white" stroke-width="3.3" stroke-linecap="round" stroke-linejoin="round"/>
<path d="M64.66 49.66L59 44" stroke="white" stroke-width="3.3" stroke-linecap="round" stroke-linejoin="round"/>
</svg>
