<svg width="512" height="512" viewBox="0 0 512 512" fill="none" xmlns="http://www.w3.org/2000/svg">
<path d="M381.95 210.382H290.801L391.609 305.478C393.645 307.41 395.055 309.907 395.656 312.647C396.258 315.388 396.024 318.245 394.984 320.851C393.944 323.457 392.147 325.692 389.824 327.268C387.501 328.843 384.758 329.687 381.95 329.691H269.55V434.963C269.562 437.69 268.768 440.359 267.269 442.637C265.769 444.916 263.63 446.702 261.12 447.771C259.362 448.595 257.442 449.015 255.5 449C251.911 448.96 248.467 447.584 245.841 445.14L119.391 325.831C117.998 324.527 116.889 322.951 116.133 321.2C115.378 319.449 114.992 317.561 115 315.654V196.345C115 192.623 116.48 189.052 119.115 186.42C121.75 183.788 125.324 182.309 129.05 182.309H220.199L119.391 87.2127C117.355 85.2806 115.945 82.7833 115.344 80.0432C114.742 77.303 114.976 74.4456 116.016 71.8397C117.056 69.2337 118.853 66.9988 121.176 65.4231C123.5 63.8475 126.242 63.0035 129.05 63H381.95C385.676 63 389.25 64.4788 391.885 67.1112C394.52 69.7435 396 73.3137 396 77.0363V196.345C396 200.068 394.52 203.638 391.885 206.271C389.25 208.903 385.676 210.382 381.95 210.382Z" fill="#335EF7"/>
</svg>
