<svg width="21" height="21" viewBox="0 0 21 21" fill="none" xmlns="http://www.w3.org/2000/svg">
<path d="M2.29167 20.7042C1.76458 20.7042 1.31321 20.5107 0.937542 20.1238C0.562514 19.7375 0.375 19.2728 0.375 18.7299V4.90937C0.375 4.36642 0.562514 3.90146 0.937542 3.51448C1.31321 3.12817 1.76458 2.93501 2.29167 2.93501H10.8448L4.20833 9.77123V16.7555H10.9885L17.625 9.89462V18.7299C17.625 19.2728 17.4375 19.7375 17.0625 20.1238C16.6868 20.5107 16.2354 20.7042 15.7083 20.7042H2.29167ZM6.125 14.7812V10.5856L13.001 3.50264L17.0979 7.64879L10.1979 14.7812H6.125ZM18.4635 6.24206L14.3667 2.09591L15.3969 1.03469C15.7802 0.639819 16.2396 0.442383 16.775 0.442383C17.3097 0.442383 17.7608 0.639819 18.1281 1.03469L19.4698 2.44142C19.8372 2.81984 20.0208 3.28052 20.0208 3.82347C20.0208 4.36642 19.8372 4.8271 19.4698 5.20552L18.4635 6.24206Z" fill="#00677D"/>
</svg>
