<svg width="18" height="18" viewBox="0 0 18 18" fill="none" xmlns="http://www.w3.org/2000/svg">
<path d="M12.615 1.43262H5.38499C3.79499 1.43262 2.48999 2.73762 2.48999 4.32762V14.8951C2.48999 16.2451 3.45749 16.8151 4.64249 16.1626L8.30249 14.1301C8.69249 13.9126 9.32249 13.9126 9.70499 14.1301L13.365 16.1626C14.55 16.8226 15.5175 16.2526 15.5175 14.8951V4.32762C15.51 2.73762 14.2125 1.43262 12.615 1.43262ZM11.715 6.77262L8.71499 9.77262C8.60249 9.88512 8.45999 9.93762 8.31749 9.93762C8.17499 9.93762 8.03249 9.88512 7.91999 9.77262L6.79499 8.64762C6.57749 8.43012 6.57749 8.07012 6.79499 7.85262C7.01249 7.63512 7.37249 7.63512 7.58999 7.85262L8.31749 8.58012L10.92 5.97762C11.1375 5.76012 11.4975 5.76012 11.715 5.97762C11.9325 6.19512 11.9325 6.55512 11.715 6.77262Z" fill="#335EF7"/>
</svg>
