<svg width="143" height="31" viewBox="0 0 143 31" fill="none" xmlns="http://www.w3.org/2000/svg">
<path d="M44.4589 17.1724C43.2583 17.1724 42.2012 16.9484 41.2877 16.5004C40.3872 16.0524 39.689 15.4426 39.1931 14.671C38.6972 13.887 38.4492 12.9973 38.4492 12.0017C38.4492 10.9937 38.6906 10.1039 39.1735 9.33236C39.6694 8.54836 40.3415 7.93859 41.1898 7.50303C42.038 7.05503 42.9972 6.83103 44.0674 6.83103C45.0983 6.83103 46.0249 7.04259 46.8471 7.4657C47.6823 7.87636 48.3413 8.4737 48.8242 9.2577C49.3071 10.0293 49.5485 10.9564 49.5485 12.039C49.5485 12.151 49.542 12.2817 49.5289 12.431C49.5159 12.5679 49.5028 12.6986 49.4898 12.823H40.9353V11.1244H47.8846L46.7101 11.6284C46.7101 11.1057 46.5991 10.6515 46.3773 10.2657C46.1554 9.87992 45.8487 9.58125 45.4572 9.3697C45.0657 9.1457 44.609 9.0337 44.0869 9.0337C43.5649 9.0337 43.1016 9.1457 42.6971 9.3697C42.3056 9.58125 41.9989 9.88614 41.777 10.2844C41.5552 10.6701 41.4443 11.1306 41.4443 11.6657V12.1137C41.4443 12.6613 41.5682 13.1466 41.8162 13.5697C42.0772 13.9804 42.4361 14.2977 42.8928 14.5217C43.3627 14.7333 43.9108 14.839 44.5372 14.839C45.0983 14.839 45.5877 14.7581 46.0053 14.5964C46.436 14.4346 46.8275 14.1919 47.1799 13.8684L48.8046 15.5484C48.3218 16.071 47.7149 16.4755 46.9841 16.7617C46.2533 17.0355 45.4115 17.1724 44.4589 17.1724Z" fill="#202021"/>
<path d="M51.3812 12.935V10.6017H56.9211V12.935H51.3812Z" fill="#202021"/>
<path d="M59.5391 17.023V3.95636H62.7104V17.023H59.5391Z" fill="#202021"/>
<path d="M72.1482 6.83103C72.9834 6.83103 73.7273 6.99281 74.3798 7.31636C75.0453 7.62747 75.5673 8.11281 75.9458 8.77236C76.3243 9.41948 76.5135 10.2533 76.5135 11.2737V17.023H73.4597V11.7217C73.4597 10.9128 73.2705 10.3155 72.892 9.9297C72.5266 9.54392 72.0046 9.35103 71.326 9.35103C70.8431 9.35103 70.406 9.45059 70.0145 9.6497C69.636 9.83636 69.3358 10.1288 69.114 10.527C68.9052 10.9253 68.8008 11.4355 68.8008 12.0577V17.023H65.747V6.98036H68.6637V9.7617L68.1156 8.9217C68.4941 8.2497 69.0357 7.73325 69.7404 7.37236C70.4451 7.01147 71.2477 6.83103 72.1482 6.83103Z" fill="#202021"/>
<path d="M83.5882 17.1724C82.3484 17.1724 81.3827 16.8737 80.691 16.2764C79.9993 15.6666 79.6535 14.7644 79.6535 13.5697V4.75903H82.7073V13.5324C82.7073 13.9555 82.8247 14.2853 83.0596 14.5217C83.2945 14.7457 83.6143 14.8577 84.0188 14.8577C84.5017 14.8577 84.9128 14.7333 85.2521 14.4844L86.0743 16.5377C85.7611 16.7493 85.3826 16.911 84.9389 17.023C84.5082 17.1226 84.058 17.1724 83.5882 17.1724ZM78.0288 9.44436V7.20436H85.3304V9.44436H78.0288Z" fill="#202021"/>
<path d="M92.6901 17.1724C91.4895 17.1724 90.4324 16.9484 89.5189 16.5004C88.6185 16.0524 87.9203 15.4426 87.4244 14.671C86.9284 13.887 86.6805 12.9973 86.6805 12.0017C86.6805 10.9937 86.9219 10.1039 87.4048 9.33236C87.9007 8.54836 88.5728 7.93859 89.421 7.50303C90.2693 7.05503 91.2285 6.83103 92.2986 6.83103C93.3296 6.83103 94.2562 7.04259 95.0783 7.4657C95.9136 7.87636 96.5726 8.4737 97.0555 9.2577C97.5383 10.0293 97.7798 10.9564 97.7798 12.039C97.7798 12.151 97.7732 12.2817 97.7602 12.431C97.7471 12.5679 97.7341 12.6986 97.721 12.823H89.1666V11.1244H96.1158L94.9413 11.6284C94.9413 11.1057 94.8304 10.6515 94.6085 10.2657C94.3867 9.87992 94.08 9.58125 93.6885 9.3697C93.297 9.1457 92.8402 9.0337 92.3182 9.0337C91.7962 9.0337 91.3329 9.1457 90.9284 9.3697C90.5368 9.58125 90.2302 9.88614 90.0083 10.2844C89.7865 10.6701 89.6755 11.1306 89.6755 11.6657V12.1137C89.6755 12.6613 89.7995 13.1466 90.0475 13.5697C90.3085 13.9804 90.6673 14.2977 91.1241 14.5217C91.5939 14.7333 92.142 14.839 92.7684 14.839C93.3296 14.839 93.819 14.7581 94.2366 14.5964C94.6673 14.4346 95.0588 14.1919 95.4111 13.8684L97.0359 15.5484C96.553 16.071 95.9462 16.4755 95.2154 16.7617C94.4846 17.0355 93.6428 17.1724 92.6901 17.1724Z" fill="#202021"/>
<path d="M99.8128 17.023V3.17236H102.867V17.023H99.8128Z" fill="#202021"/>
<path d="M105.701 17.023V3.17236H108.755V17.023H105.701Z" fill="#202021"/>
<path d="M116.815 17.1724C115.615 17.1724 114.558 16.9484 113.644 16.5004C112.744 16.0524 112.045 15.4426 111.55 14.671C111.054 13.887 110.806 12.9973 110.806 12.0017C110.806 10.9937 111.047 10.1039 111.53 9.33236C112.026 8.54836 112.698 7.93859 113.546 7.50303C114.395 7.05503 115.354 6.83103 116.424 6.83103C117.455 6.83103 118.381 7.04259 119.204 7.4657C120.039 7.87636 120.698 8.4737 121.181 9.2577C121.664 10.0293 121.905 10.9564 121.905 12.039C121.905 12.151 121.898 12.2817 121.885 12.431C121.872 12.5679 121.859 12.6986 121.846 12.823H113.292V11.1244H120.241L119.067 11.6284C119.067 11.1057 118.956 10.6515 118.734 10.2657C118.512 9.87992 118.205 9.58125 117.814 9.3697C117.422 9.1457 116.965 9.0337 116.443 9.0337C115.921 9.0337 115.458 9.1457 115.054 9.3697C114.662 9.58125 114.355 9.88614 114.134 10.2844C113.912 10.6701 113.801 11.1306 113.801 11.6657V12.1137C113.801 12.6613 113.925 13.1466 114.173 13.5697C114.434 13.9804 114.793 14.2977 115.249 14.5217C115.719 14.7333 116.267 14.839 116.894 14.839C117.455 14.839 117.944 14.7581 118.362 14.5964C118.792 14.4346 119.184 14.1919 119.536 13.8684L121.161 15.5484C120.678 16.071 120.071 16.4755 119.341 16.7617C118.61 17.0355 117.768 17.1724 116.815 17.1724Z" fill="#202021"/>
<path d="M129.028 17.1724C127.892 17.1724 126.881 16.9546 125.993 16.519C125.106 16.071 124.408 15.455 123.899 14.671C123.403 13.887 123.155 12.9973 123.155 12.0017C123.155 10.9937 123.403 10.1039 123.899 9.33236C124.408 8.54836 125.106 7.93859 125.993 7.50303C126.881 7.05503 127.892 6.83103 129.028 6.83103C130.137 6.83103 131.103 7.05503 131.925 7.50303C132.747 7.93859 133.354 8.56703 133.745 9.38836L131.377 10.6017C131.103 10.1288 130.757 9.78036 130.339 9.55636C129.935 9.33236 129.491 9.22036 129.008 9.22036C128.486 9.22036 128.016 9.33236 127.599 9.55636C127.181 9.78036 126.848 10.0977 126.6 10.5084C126.365 10.919 126.248 11.4168 126.248 12.0017C126.248 12.5866 126.365 13.0844 126.6 13.495C126.848 13.9057 127.181 14.223 127.599 14.447C128.016 14.671 128.486 14.783 129.008 14.783C129.491 14.783 129.935 14.6773 130.339 14.4657C130.757 14.2417 131.103 13.887 131.377 13.4017L133.745 14.6337C133.354 15.4426 132.747 16.071 131.925 16.519C131.103 16.9546 130.137 17.1724 129.028 17.1724Z" fill="#202021"/>
<path d="M139.963 17.1724C138.723 17.1724 137.758 16.8737 137.066 16.2764C136.374 15.6666 136.028 14.7644 136.028 13.5697V4.75903H139.082V13.5324C139.082 13.9555 139.2 14.2853 139.435 14.5217C139.67 14.7457 139.989 14.8577 140.394 14.8577C140.877 14.8577 141.288 14.7333 141.627 14.4844L142.449 16.5377C142.136 16.7493 141.758 16.911 141.314 17.023C140.883 17.1226 140.433 17.1724 139.963 17.1724ZM134.404 9.44436V7.20436H141.705V9.44436H134.404Z" fill="#202021"/>
<path d="M72.9892 28.3169C72.5045 28.3169 72.0682 28.2085 71.6804 27.9917C71.2991 27.7749 70.9986 27.4752 70.7788 27.0927C70.5591 26.7037 70.4492 26.2574 70.4492 25.7537C70.4492 25.2436 70.5591 24.7972 70.7788 24.4147C70.9986 24.0321 71.2991 23.7356 71.6804 23.5252C72.0682 23.3084 72.5045 23.2 72.9892 23.2C73.4352 23.2 73.8327 23.2988 74.1817 23.4965C74.5372 23.6941 74.8183 23.9843 75.0251 24.3668C75.2384 24.743 75.3451 25.2053 75.3451 25.7537C75.3451 26.2956 75.2416 26.7579 75.0348 27.1405C74.828 27.5231 74.5469 27.8164 74.1914 28.0204C73.8424 28.2181 73.4417 28.3169 72.9892 28.3169ZM73.0377 27.7143C73.3996 27.7143 73.7228 27.6346 74.0072 27.4752C74.298 27.3095 74.5242 27.0799 74.6858 26.7866C74.8539 26.4869 74.9379 26.1426 74.9379 25.7537C74.9379 25.3583 74.8539 25.014 74.6858 24.7207C74.5242 24.4274 74.298 24.2011 74.0072 24.0417C73.7228 23.8759 73.3996 23.793 73.0377 23.793C72.6822 23.793 72.3623 23.8759 72.0779 24.0417C71.7936 24.2011 71.5673 24.4274 71.3993 24.7207C71.2313 25.014 71.1472 25.3583 71.1472 25.7537C71.1472 26.1426 71.2313 26.4869 71.3993 26.7866C71.5673 27.0799 71.7936 27.3095 72.0779 27.4752C72.3623 27.6346 72.6822 27.7143 73.0377 27.7143ZM74.9573 28.2691V26.7579L75.0251 25.7441L74.9282 24.7303V21.1724H75.6165V28.2691H74.9573Z" fill="#202021"/>
<path d="M77.5335 28.2691V23.2478H78.2218V28.2691H77.5335ZM77.8825 22.1384C77.7403 22.1384 77.6207 22.0905 77.5238 21.9949C77.4268 21.8992 77.3784 21.7845 77.3784 21.6506C77.3784 21.5167 77.4268 21.4051 77.5238 21.3158C77.6207 21.2202 77.7403 21.1724 77.8825 21.1724C78.0247 21.1724 78.1443 21.217 78.2412 21.3063C78.3381 21.3955 78.3866 21.5071 78.3866 21.641C78.3866 21.7813 78.3381 21.8992 78.2412 21.9949C78.1507 22.0905 78.0312 22.1384 77.8825 22.1384Z" fill="#202021"/>
<path d="M82.3087 30.1724C81.8433 30.1724 81.3974 30.1054 80.9708 29.9715C80.5442 29.8376 80.1985 29.6463 79.9335 29.3977L80.2825 28.8812C80.5216 29.0916 80.8157 29.2574 81.1647 29.3785C81.5202 29.5061 81.895 29.5698 82.2893 29.5698C82.9356 29.5698 83.4106 29.42 83.7144 29.1203C84.0182 28.827 84.1701 28.3679 84.1701 27.743V26.4901L84.267 25.6293L84.1991 24.7685V23.2478H84.8584V27.657C84.8584 28.5241 84.6419 29.1585 84.2088 29.5602C83.7823 29.9683 83.1489 30.1724 82.3087 30.1724ZM82.1826 28.0778C81.6979 28.0778 81.2616 27.9758 80.8739 27.7717C80.4861 27.5613 80.1791 27.2712 79.9529 26.9014C79.7331 26.5316 79.6232 26.1075 79.6232 25.6293C79.6232 25.1511 79.7331 24.7303 79.9529 24.3668C80.1791 23.997 80.4861 23.7101 80.8739 23.5061C81.2616 23.302 81.6979 23.2 82.1826 23.2C82.6351 23.2 83.0422 23.2924 83.4042 23.4774C83.7661 23.6623 84.0537 23.9364 84.267 24.2999C84.4803 24.6633 84.5869 25.1065 84.5869 25.6293C84.5869 26.1522 84.4803 26.5953 84.267 26.9588C84.0537 27.3222 83.7661 27.5996 83.4042 27.7909C83.0422 27.9821 82.6351 28.0778 82.1826 28.0778ZM82.2505 27.4752C82.6254 27.4752 82.9582 27.3987 83.2491 27.2457C83.5399 27.0863 83.7693 26.8695 83.9374 26.5953C84.1054 26.3148 84.1894 25.9928 84.1894 25.6293C84.1894 25.2659 84.1054 24.9471 83.9374 24.6729C83.7693 24.3987 83.5399 24.1851 83.2491 24.0321C82.9582 23.8727 82.6254 23.793 82.2505 23.793C81.8821 23.793 81.5493 23.8727 81.2519 24.0321C80.9611 24.1851 80.7317 24.3987 80.5636 24.6729C80.402 24.9471 80.3213 25.2659 80.3213 25.6293C80.3213 25.9928 80.402 26.3148 80.5636 26.5953C80.7317 26.8695 80.9611 27.0863 81.2519 27.2457C81.5493 27.3987 81.8821 27.4752 82.2505 27.4752Z" fill="#202021"/>
<path d="M86.7738 28.2691V23.2478H87.4621V28.2691H86.7738ZM87.1228 22.1384C86.9806 22.1384 86.861 22.0905 86.7641 21.9949C86.6671 21.8992 86.6187 21.7845 86.6187 21.6506C86.6187 21.5167 86.6671 21.4051 86.7641 21.3158C86.861 21.2202 86.9806 21.1724 87.1228 21.1724C87.265 21.1724 87.3845 21.217 87.4815 21.3063C87.5784 21.3955 87.6269 21.5071 87.6269 21.641C87.6269 21.7813 87.5784 21.8992 87.4815 21.9949C87.391 22.0905 87.2714 22.1384 87.1228 22.1384Z" fill="#202021"/>
<path d="M90.9867 28.3169C90.5084 28.3169 90.14 28.1894 89.8815 27.9343C89.6229 27.6793 89.4937 27.319 89.4937 26.8536V22.1384H90.182V26.8153C90.182 27.1086 90.2563 27.335 90.405 27.4944C90.5601 27.6538 90.7798 27.7335 91.0642 27.7335C91.368 27.7335 91.6201 27.6474 91.8204 27.4752L92.0628 27.963C91.9271 28.0842 91.7622 28.1734 91.5683 28.2308C91.3809 28.2882 91.187 28.3169 90.9867 28.3169ZM88.5824 23.8121V23.2478H91.7332V23.8121H88.5824Z" fill="#202021"/>
<path d="M96.5054 28.2691V27.1596L96.4763 26.9779V25.1224C96.4763 24.6952 96.3535 24.3668 96.1079 24.1373C95.8688 23.9078 95.5101 23.793 95.0318 23.793C94.7022 23.793 94.3887 23.8472 94.0914 23.9556C93.7941 24.064 93.542 24.2074 93.3352 24.386L93.025 23.8791C93.2835 23.6623 93.5937 23.4965 93.9557 23.3817C94.3176 23.2606 94.6989 23.2 95.0997 23.2C95.7589 23.2 96.2662 23.3626 96.6217 23.6878C96.9837 24.0066 97.1646 24.4944 97.1646 25.1511V28.2691H96.5054ZM94.7506 28.3169C94.3693 28.3169 94.0365 28.2563 93.7521 28.1352C93.4742 28.0076 93.2609 27.8355 93.1122 27.6187C92.9636 27.3955 92.8893 27.1405 92.8893 26.8536C92.8893 26.5921 92.9507 26.3562 93.0735 26.1458C93.2027 25.929 93.4095 25.7568 93.6939 25.6293C93.9848 25.4954 94.3725 25.4285 94.8573 25.4285H96.612V25.9354H94.8767C94.3855 25.9354 94.0429 26.0215 93.849 26.1936C93.6616 26.3658 93.5679 26.5794 93.5679 26.8344C93.5679 27.1214 93.681 27.3509 93.9072 27.5231C94.1334 27.6952 94.4501 27.7813 94.8573 27.7813C95.2451 27.7813 95.5779 27.6952 95.8558 27.5231C96.1402 27.3445 96.347 27.0895 96.4763 26.7579L96.6314 27.2266C96.5022 27.5581 96.2759 27.8227 95.9528 28.0204C95.6361 28.2181 95.2354 28.3169 94.7506 28.3169Z" fill="#202021"/>
<path d="M99.0342 28.2691V21.1724H99.7225V28.2691H99.0342Z" fill="#202021"/>
<path d="M104.175 28.2691V21.1724H104.863V28.2691H104.175Z" fill="#202021"/>
<path d="M108.941 28.3169C108.411 28.3169 107.945 28.2085 107.544 27.9917C107.144 27.7685 106.83 27.4657 106.604 27.0831C106.378 26.6941 106.265 26.251 106.265 25.7537C106.265 25.2563 106.371 24.8164 106.585 24.4338C106.804 24.0512 107.102 23.7515 107.477 23.5347C107.858 23.3116 108.285 23.2 108.756 23.2C109.235 23.2 109.658 23.3084 110.026 23.5252C110.401 23.7356 110.695 24.0353 110.909 24.4242C111.122 24.8068 111.228 25.2499 111.228 25.7537C111.228 25.7855 111.225 25.8206 111.219 25.8589C111.219 25.8907 111.219 25.9258 111.219 25.9641H106.788V25.4572H110.85L110.579 25.658C110.579 25.2946 110.498 24.9726 110.337 24.692C110.181 24.4051 109.968 24.1819 109.697 24.0225C109.425 23.8631 109.112 23.7834 108.756 23.7834C108.407 23.7834 108.094 23.8631 107.816 24.0225C107.538 24.1819 107.322 24.4051 107.166 24.692C107.011 24.979 106.934 25.3073 106.934 25.6771V25.7824C106.934 26.1649 107.018 26.5029 107.186 26.7962C107.36 27.0831 107.599 27.3095 107.903 27.4752C108.213 27.6346 108.566 27.7143 108.96 27.7143C109.27 27.7143 109.558 27.6601 109.823 27.5517C110.094 27.4434 110.327 27.2776 110.521 27.0544L110.909 27.4944C110.682 27.7622 110.398 27.9662 110.055 28.1065C109.719 28.2468 109.348 28.3169 108.941 28.3169Z" fill="#202021"/>
<path d="M115.677 28.2691V27.1596L115.648 26.9779V25.1224C115.648 24.6952 115.525 24.3668 115.28 24.1373C115.04 23.9078 114.682 23.793 114.203 23.793C113.874 23.793 113.56 23.8472 113.263 23.9556C112.966 24.064 112.714 24.2074 112.507 24.386L112.197 23.8791C112.455 23.6623 112.765 23.4965 113.127 23.3817C113.489 23.2606 113.871 23.2 114.271 23.2C114.931 23.2 115.438 23.3626 115.793 23.6878C116.155 24.0066 116.336 24.4944 116.336 25.1511V28.2691H115.677ZM113.922 28.3169C113.541 28.3169 113.208 28.2563 112.924 28.1352C112.646 28.0076 112.433 27.8355 112.284 27.6187C112.135 27.3955 112.061 27.1405 112.061 26.8536C112.061 26.5921 112.122 26.3562 112.245 26.1458C112.374 25.929 112.581 25.7568 112.866 25.6293C113.156 25.4954 113.544 25.4285 114.029 25.4285H115.784V25.9354H114.048C113.557 25.9354 113.215 26.0215 113.021 26.1936C112.833 26.3658 112.74 26.5794 112.74 26.8344C112.74 27.1214 112.853 27.3509 113.079 27.5231C113.305 27.6952 113.622 27.7813 114.029 27.7813C114.417 27.7813 114.75 27.6952 115.028 27.5231C115.312 27.3445 115.519 27.0895 115.648 26.7579L115.803 27.2266C115.674 27.5581 115.448 27.8227 115.124 28.0204C114.808 28.2181 114.407 28.3169 113.922 28.3169Z" fill="#202021"/>
<path d="M118.206 28.2691V23.2478H118.865V24.6155L118.797 24.3764C118.939 23.9938 119.179 23.7037 119.515 23.5061C119.851 23.302 120.268 23.2 120.765 23.2V23.8599C120.739 23.8599 120.714 23.8599 120.688 23.8599C120.662 23.8536 120.636 23.8504 120.61 23.8504C120.074 23.8504 119.654 24.013 119.35 24.3381C119.046 24.657 118.894 25.1129 118.894 25.7058V28.2691H118.206Z" fill="#202021"/>
<path d="M124.619 23.2C125.033 23.2 125.395 23.2797 125.705 23.4391C126.022 23.5921 126.268 23.828 126.442 24.1469C126.623 24.4657 126.714 24.8674 126.714 25.352V28.2691H126.025V25.4189C126.025 24.8897 125.889 24.4912 125.618 24.2234C125.353 23.9492 124.978 23.8121 124.493 23.8121C124.132 23.8121 123.815 23.8854 123.543 24.0321C123.278 24.1724 123.072 24.3796 122.923 24.6538C122.781 24.9216 122.71 25.2468 122.71 25.6293V28.2691H122.021V23.2478H122.681V24.6251L122.574 24.3668C122.735 24.0034 122.994 23.7197 123.349 23.5156C123.705 23.3052 124.128 23.2 124.619 23.2Z" fill="#202021"/>
<path d="M128.573 28.2691V23.2478H129.261V28.2691H128.573ZM128.922 22.1384C128.78 22.1384 128.66 22.0905 128.563 21.9949C128.466 21.8992 128.418 21.7845 128.418 21.6506C128.418 21.5167 128.466 21.4051 128.563 21.3158C128.66 21.2202 128.78 21.1724 128.922 21.1724C129.064 21.1724 129.184 21.217 129.281 21.3063C129.377 21.3955 129.426 21.5071 129.426 21.641C129.426 21.7813 129.377 21.8992 129.281 21.9949C129.19 22.0905 129.07 22.1384 128.922 22.1384Z" fill="#202021"/>
<path d="M133.775 23.2C134.188 23.2 134.55 23.2797 134.86 23.4391C135.177 23.5921 135.423 23.828 135.597 24.1469C135.778 24.4657 135.869 24.8674 135.869 25.352V28.2691H135.18V25.4189C135.18 24.8897 135.045 24.4912 134.773 24.2234C134.508 23.9492 134.133 23.8121 133.649 23.8121C133.287 23.8121 132.97 23.8854 132.698 24.0321C132.433 24.1724 132.227 24.3796 132.078 24.6538C131.936 24.9216 131.865 25.2468 131.865 25.6293V28.2691H131.176V23.2478H131.836V24.6251L131.729 24.3668C131.891 24.0034 132.149 23.7197 132.505 23.5156C132.86 23.3052 133.283 23.2 133.775 23.2Z" fill="#202021"/>
<path d="M139.9 30.1724C139.434 30.1724 138.988 30.1054 138.562 29.9715C138.135 29.8376 137.789 29.6463 137.524 29.3977L137.873 28.8812C138.112 29.0916 138.407 29.2574 138.756 29.3785C139.111 29.5061 139.486 29.5698 139.88 29.5698C140.526 29.5698 141.001 29.42 141.305 29.1203C141.609 28.827 141.761 28.3679 141.761 27.743V26.4901L141.858 25.6293L141.79 24.7685V23.2478H142.449V27.657C142.449 28.5241 142.233 29.1585 141.8 29.5602C141.373 29.9683 140.74 30.1724 139.9 30.1724ZM139.773 28.0778C139.289 28.0778 138.852 27.9758 138.465 27.7717C138.077 27.5613 137.77 27.2712 137.544 26.9014C137.324 26.5316 137.214 26.1075 137.214 25.6293C137.214 25.1511 137.324 24.7303 137.544 24.3668C137.77 23.997 138.077 23.7101 138.465 23.5061C138.852 23.302 139.289 23.2 139.773 23.2C140.226 23.2 140.633 23.2924 140.995 23.4774C141.357 23.6623 141.645 23.9364 141.858 24.2999C142.071 24.6633 142.178 25.1065 142.178 25.6293C142.178 26.1522 142.071 26.5953 141.858 26.9588C141.645 27.3222 141.357 27.5996 140.995 27.7909C140.633 27.9821 140.226 28.0778 139.773 28.0778ZM139.841 27.4752C140.216 27.4752 140.549 27.3987 140.84 27.2457C141.131 27.0863 141.36 26.8695 141.528 26.5953C141.696 26.3148 141.78 25.9928 141.78 25.6293C141.78 25.2659 141.696 24.9471 141.528 24.6729C141.36 24.3987 141.131 24.1851 140.84 24.0321C140.549 23.8727 140.216 23.793 139.841 23.793C139.473 23.793 139.14 23.8727 138.843 24.0321C138.552 24.1851 138.322 24.3987 138.154 24.6729C137.993 24.9471 137.912 25.2659 137.912 25.6293C137.912 25.9928 137.993 26.3148 138.154 26.5953C138.322 26.8695 138.552 27.0863 138.843 27.2457C139.14 27.3987 139.473 27.4752 139.841 27.4752Z" fill="#202021"/>
<g clip-path="url(#clip0_1075_3648)">
<path d="M25.9673 29.9948C25.0337 29.9949 24.1289 29.6689 23.4071 29.0722C22.6854 28.4756 22.1913 27.6453 22.0092 26.7229C21.8271 25.8005 21.9682 24.843 22.4084 24.0136C22.8485 23.1842 23.5606 22.5342 24.4233 22.1744C25.2859 21.8146 26.2457 21.7673 27.1391 22.0405C28.0325 22.3137 28.8042 22.8905 29.3228 23.6726C29.8413 24.4548 30.0745 25.3938 29.9827 26.3298C29.8908 27.2657 29.4797 28.1406 28.8192 28.8054C28.4454 29.1836 28.001 29.4835 27.5115 29.6876C27.022 29.8918 26.4971 29.9962 25.9673 29.9948V29.9948Z" fill="#6F3DFF"/>
<path d="M4.03786 8.32098C3.23977 8.32069 2.45966 8.08217 1.79607 7.63555C1.13247 7.18892 0.615151 6.55421 0.309442 5.8116C0.00373375 5.06898 -0.0766497 4.25176 0.0784442 3.46315C0.233538 2.67454 0.617153 1.94992 1.18084 1.3808C1.93802 0.618452 2.96475 0.190203 4.03529 0.190203C5.10584 0.190203 6.13257 0.618452 6.88975 1.3808C7.26478 1.75829 7.5623 2.20653 7.76528 2.6999C7.96826 3.19327 8.07274 3.7221 8.07274 4.25616C8.07274 4.79022 7.96826 5.31905 7.76528 5.81242C7.5623 6.30579 7.26478 6.75403 6.88975 7.13153C6.51622 7.5101 6.07179 7.81019 5.58223 8.01437C5.09266 8.21855 4.56772 8.32277 4.03786 8.32098V8.32098Z" fill="#6F3DFF"/>
<path d="M25.785 8.19945C24.987 8.19916 24.2069 7.96064 23.5433 7.51402C22.8797 7.06739 22.3623 6.43268 22.0566 5.69007C21.7509 4.94745 21.6705 4.13023 21.8256 3.34162C21.9807 2.55301 22.3643 1.82839 22.928 1.25927C23.3972 0.785564 23.9752 0.43578 24.6106 0.240922C25.2461 0.0460634 25.9195 0.0121492 26.5712 0.142186C27.2228 0.272222 27.8325 0.562192 28.3462 0.986391C28.86 1.41059 29.2619 1.95592 29.5163 2.57402C29.7708 3.19213 29.8699 3.86393 29.8049 4.52987C29.74 5.19581 29.5129 5.83531 29.1439 6.3917C28.7748 6.94808 28.2752 7.40416 27.6893 7.71949C27.1034 8.03483 26.4493 8.19968 25.785 8.19945V8.19945Z" fill="#6F3DFF"/>
<path d="M4.14305 29.9948C3.34525 29.9953 2.56522 29.7575 1.90154 29.3115C1.23786 28.8655 0.720299 28.2314 0.414273 27.4892C0.108246 26.7471 0.0274831 25.9302 0.18219 25.1418C0.336897 24.3534 0.72013 23.6289 1.28346 23.0598C1.45725 22.8856 1.64819 22.7297 1.85333 22.5944C1.92263 22.5453 1.98424 22.5065 2.05098 22.4677C2.19987 22.3798 2.34875 22.3022 2.48736 22.2375C2.56437 22.2039 2.64138 22.1677 2.72352 22.1367C2.8863 22.0743 3.05259 22.0217 3.22151 21.979L3.32419 21.9505L3.3858 21.935L4.28423 21.873C4.39718 21.873 4.52039 21.8911 4.64874 21.9092H4.70008H4.81303H4.84896H4.89003H4.92597H5.12363C5.90702 21.9029 6.68133 21.7396 7.40144 21.4288C8.12156 21.1181 8.77308 20.6661 9.31803 20.0991C9.86543 19.5382 10.2961 18.8727 10.5848 18.1419C10.8736 17.411 11.0145 16.6294 10.9994 15.843V15.799V15.7499C10.9926 15.7062 10.9883 15.6622 10.9866 15.618C10.9866 15.5663 10.9814 15.5146 10.9712 15.4629V15.3724C10.9712 15.2922 10.9558 15.2172 10.9506 15.1396L11.0174 14.232C11.023 14.2093 11.0299 14.1868 11.0379 14.1648L11.0533 14.1079C11.0921 13.9323 11.1427 13.7595 11.2047 13.5908C11.2331 13.5098 11.2657 13.4304 11.3023 13.3529C11.3661 13.2079 11.4372 13.0664 11.5153 12.9288C11.5539 12.8642 11.5924 12.7995 11.636 12.7349C11.7727 12.5285 11.9282 12.3354 12.1006 12.1582C12.859 11.3957 13.8871 10.9678 14.9587 10.9687C16.0303 10.9697 17.0576 11.3995 17.8147 12.1634C18.5717 12.9274 18.9965 13.963 18.9955 15.0424C18.9945 16.1219 18.5679 17.1567 17.8095 17.9193C17.6344 18.092 17.4436 18.2479 17.2397 18.3848C17.1729 18.4313 17.1087 18.4701 17.0446 18.5063C16.9038 18.5924 16.758 18.6701 16.6082 18.739C16.5286 18.7752 16.449 18.8114 16.3746 18.8399C16.2149 18.9009 16.0511 18.9502 15.8843 18.9872L15.7868 19.0131L15.7226 19.0338L14.8139 19.0984C14.7086 19.0984 14.5957 19.0777 14.4776 19.0622H14.398H14.2851H14.2543H14.2081H13.9745C12.4008 19.0834 10.8995 19.7311 9.79847 20.8639C8.69747 21.9967 8.08638 23.5225 8.09873 25.1077V25.1543V25.1982C8.10555 25.2419 8.10983 25.2859 8.11156 25.3301C8.11156 25.3844 8.11156 25.4335 8.12697 25.4853C8.12949 25.5329 8.13463 25.5804 8.14237 25.6275C8.14237 25.6895 8.14237 25.7516 8.14237 25.8137V25.8343L8.07819 26.7057C8.07819 26.7238 8.04482 26.8247 8.03712 26.8557C7.99929 27.0313 7.94954 27.2041 7.88824 27.3729C7.86126 27.4515 7.82954 27.5283 7.79326 27.603C7.72304 27.7577 7.64508 27.9088 7.55967 28.0555C7.52116 28.1176 7.47753 28.19 7.43132 28.2572C7.29687 28.4606 7.14298 28.6503 6.97184 28.8235C6.22022 29.576 5.2028 29.9973 4.14305 29.9948Z" fill="#6F3DFF"/>
<path d="M15.0449 29.9948C14.2476 29.9948 13.4683 29.7568 12.8051 29.3109C12.142 28.8651 11.6248 28.2314 11.3189 27.4897C11.013 26.7481 10.932 25.9318 11.0862 25.1438C11.2404 24.3559 11.6229 23.6316 12.1853 23.0624C12.3616 22.8874 12.5542 22.7298 12.7603 22.5918C12.8194 22.5504 12.8835 22.5116 12.9503 22.4728C13.0925 22.3869 13.239 22.3084 13.3892 22.2375L13.6228 22.1367C13.7823 22.0791 13.9452 22.0316 14.1105 21.9945L14.2697 21.9479L15.1835 21.8807C15.2913 21.8807 15.4069 21.9014 15.5275 21.9169H15.5968H15.7175H15.7611H15.7893H15.8278H16.0281C17.6004 21.8937 19.0998 21.2451 20.1991 20.1125C21.2984 18.9799 21.9085 17.4554 21.8961 15.8714V15.6826L21.8807 15.662C21.8793 15.6551 21.8793 15.6481 21.8807 15.6413V15.5068L21.8653 15.3775C21.8653 15.3051 21.8473 15.2353 21.8448 15.1629L21.9064 14.2837C21.9064 14.2605 21.9423 14.1519 21.95 14.1208C21.9817 13.9512 22.0237 13.7837 22.0758 13.6192C22.105 13.539 22.1384 13.4605 22.1759 13.3839C22.2449 13.2316 22.322 13.0831 22.4069 12.9391L22.4249 12.9107C22.4557 12.8564 22.4865 12.8047 22.5225 12.753C22.6603 12.5451 22.8167 12.3504 22.9896 12.1712C23.7473 11.4087 24.7744 10.9804 25.8454 10.9804C26.9163 10.9804 27.9435 11.4087 28.7011 12.1712C29.4556 12.9357 29.879 13.9699 29.879 15.0478C29.879 16.1258 29.4556 17.16 28.7011 17.9245C28.5238 18.0958 28.3323 18.2515 28.1287 18.3899L27.9952 18.4753L27.9259 18.5192C27.7879 18.601 27.6457 18.6752 27.4998 18.7416C27.4176 18.7804 27.3432 18.814 27.2636 18.845C27.1018 18.9041 26.9363 18.9525 26.7682 18.9898L26.6655 19.0209L26.6039 19.0364L25.7055 19.101C25.5746 19.101 25.4334 19.0752 25.2948 19.0571H25.1767H25.1561H25.0791H24.8789C23.3026 19.0748 21.7977 19.7219 20.6946 20.8564C19.5915 21.9908 18.9804 23.5198 18.9955 25.1077V25.1543V25.1982C18.998 25.2447 18.998 25.2914 18.9955 25.3379C18.9955 25.3844 18.9955 25.4335 19.0083 25.4775C19.0211 25.5215 19.0083 25.5654 19.0083 25.6145C19.0182 25.6831 19.0242 25.7522 19.0263 25.8214L18.9955 26.7135L18.957 26.8531C18.9181 27.0285 18.8684 27.2012 18.8081 27.3703C18.7824 27.4427 18.749 27.5151 18.7182 27.5875L18.7054 27.6133C18.6382 27.7606 18.5628 27.9039 18.4795 28.0426C18.4384 28.1124 18.3999 28.1796 18.3563 28.2443C17.9906 28.7887 17.4969 29.2335 16.9191 29.5389C16.3413 29.8444 15.6974 30.001 15.0449 29.9948V29.9948Z" fill="#6F3DFF"/>
<path d="M4.14565 19.0234C3.34713 19.0242 2.56631 18.7864 1.90193 18.3402C1.23755 17.8939 0.719432 17.2593 0.413087 16.5165C0.106742 15.7736 0.0259262 14.956 0.180856 14.1669C0.335787 13.3778 0.719506 12.6527 1.2835 12.0833C1.45982 11.9101 1.65142 11.7534 1.85593 11.6152L2.05359 11.4885C2.1922 11.4058 2.33595 11.3308 2.4874 11.2584C2.56441 11.2248 2.64142 11.1886 2.72613 11.1576C2.88373 11.0996 3.04494 11.0521 3.20872 11.0153L3.31139 10.9869C3.32901 10.9805 3.34701 10.9754 3.3653 10.9714L4.27914 10.9042C4.39722 10.9042 4.53583 10.9274 4.66161 10.9455H4.68985H4.8105H4.849H4.8875H5.13393C5.91602 10.9382 6.68887 10.7744 7.40759 10.4637C8.12631 10.153 8.77658 9.7015 9.32063 9.13549C9.86765 8.57383 10.2979 7.90785 10.5862 7.17657C10.8744 6.44529 11.0149 5.66341 10.9994 4.87675V4.83279V4.78883C10.9904 4.73933 10.9852 4.68918 10.984 4.63886V4.51474L10.9507 4.39579C10.9507 4.32339 10.9327 4.24582 10.9301 4.17083L10.9917 3.31753V3.29685V3.28133C10.9917 3.26064 11.0302 3.14687 11.0302 3.14687C11.0692 2.97157 11.119 2.79885 11.1791 2.62972C11.2073 2.55215 11.2433 2.47457 11.2792 2.397C11.3466 2.24388 11.4238 2.09532 11.5102 1.95225V1.92898C11.5462 1.86951 11.5796 1.81003 11.6206 1.75315C11.7555 1.54843 11.9093 1.35709 12.0801 1.18169C12.8385 0.416355 13.8677 -0.0141519 14.9412 -0.0151217C16.0147 -0.0160916 17.0446 0.412555 17.8044 1.17652C18.5642 1.94049 18.9916 2.97719 18.9925 4.05857C18.9935 5.13995 18.568 6.17743 17.8096 6.94277C17.6342 7.11446 17.4434 7.26941 17.2397 7.40562C17.1781 7.44958 17.1242 7.48061 17.0703 7.51422L17.0395 7.53232C16.8906 7.62024 16.7468 7.69781 16.6082 7.76245C16.5261 7.79866 16.4516 7.83486 16.3746 7.8633C16.2126 7.92255 16.0472 7.97178 15.8792 8.01069C15.8436 8.01829 15.8085 8.02778 15.774 8.03913L15.7098 8.05723L14.8139 8.11929C14.701 8.11929 14.5803 8.0986 14.4545 8.08309H14.3981H14.2826H14.2081H14.167H13.9668C12.3941 8.10625 10.8943 8.75525 9.79486 9.88839C8.69545 11.0215 8.08571 12.5468 8.09876 14.1312V14.1751V14.2217C8.10571 14.2671 8.10999 14.3128 8.1116 14.3587C8.1116 14.4079 8.1116 14.4544 8.12443 14.5009C8.13727 14.5475 8.12443 14.5889 8.13984 14.6354C8.14879 14.7023 8.15393 14.7696 8.15524 14.8371L8.09106 15.724C8.08628 15.7476 8.08028 15.7709 8.0731 15.7938L8.04999 15.874C8.01327 16.0496 7.96438 16.2224 7.90368 16.3911C7.87544 16.4687 7.83694 16.5489 7.801 16.629C7.73575 16.7784 7.66293 16.9242 7.58281 17.066C7.54174 17.1384 7.50323 17.2031 7.45959 17.2651C7.32358 17.472 7.16798 17.6651 6.99497 17.8418C6.62142 18.2196 6.17733 18.5192 5.68831 18.7233C5.19929 18.9274 4.675 19.0321 4.14565 19.0312V19.0234Z" fill="#6F3DFF"/>
</g>
<defs>
<clipPath id="clip0_1075_3648">
<rect width="30" height="30" fill="white"/>
</clipPath>
</defs>
</svg>
