<svg width="217" height="34" viewBox="0 0 217 34" fill="none" xmlns="http://www.w3.org/2000/svg">
<path fill-rule="evenodd" clip-rule="evenodd" d="M18.2242 8.3246L0 32.6235C0.833785 32.7426 2.50135 32.339 3.21603 32.1603C4.87123 31.7464 17.5095 26.5488 24.2989 23.6901C26.3238 22.9754 30.7309 21.6175 32.1603 21.9034C33.9469 22.2607 26.4429 16.9007 18.5815 19.7594L17.8668 20.1167C19.0579 17.8536 22.0534 13.3392 23.9415 12.2553C25.3709 11.4348 27.8722 10.3628 30.7309 11.898C31.5495 12.3376 32.3032 13.1844 32.8749 14.042C33.4467 14.8996 41.2128 24.4047 45.0244 29.0501C46.2155 30.4795 47.8831 32.2662 52.1711 32.9808C54.7983 33.2728 55.0408 33.2367 56.0156 33.092C56.2341 33.0596 56.4893 33.0217 56.8165 32.9808C59.6752 32.6235 65.3925 31.5515 68.9659 26.5488C72.7787 21.2108 72.5393 15.4713 70.7526 10.1113C68.6086 4.75126 64.6779 1.53524 60.3898 0.463233C55.6254 -0.489664 45.0244 -0.608809 40.7363 6.53792C45.6199 5.58503 55.5403 4.75128 56.4591 11.1833C57.5311 18.6874 52.1711 22.6181 46.4537 20.1167C45.3576 19.5687 43.914 17.7045 42.9223 16.424C42.6208 16.0347 42.3612 15.6994 42.1657 15.4713C41.8863 15.1454 41.5279 14.6312 41.0875 13.9993C38.1488 9.78269 31.5557 0.32264 20.3682 6.53792L19.2962 7.25264L18.2242 8.3246ZM58.6032 5.00265C60.7472 5.71732 62.1765 6.78933 63.9632 8.57601C63.9632 8.57601 67.5366 11.792 66.7826 18.2241C65.7499 21.4401 64.6571 23.0285 61.1045 25.4767C59.437 26.5487 54.8154 28.0866 51.0991 26.0855C57.8885 24.2988 60.7472 21.0828 61.4619 19.2961C62.5588 16.5538 62.5454 14.6342 62.5356 13.2323C62.5347 13.1054 62.5339 12.9827 62.5339 12.864C62.5339 11.4347 62.1765 9.29068 58.6032 5.00265Z" fill="#00677D"/>
<path d="M96.1105 13.151L99.3386 21.3167H95.2736L93.5101 16.7309H86.1872C85.7886 16.7309 85.3901 16.7605 84.9916 16.8197C84.593 16.8788 84.2144 16.9972 83.8558 17.1747C83.2779 17.4706 82.7797 17.8848 82.3613 18.4173C82.0026 18.9104 81.7037 19.4627 81.4646 20.0741L81.0162 21.3167H80L84.4835 9.95577C84.7226 9.36405 84.9816 8.71316 85.2606 8.0031C85.5396 7.29304 85.7886 6.56326 86.0078 5.81375C86.227 5.04452 86.3765 4.28515 86.4562 3.53565C86.5359 2.76642 86.4861 2.0465 86.3067 1.37588H91.388L92.4341 4.00902C93.0319 5.54748 93.6297 7.06622 94.2275 8.56523C94.8452 10.0642 95.453 11.583 96.0508 13.1214L96.1105 13.151ZM93.2112 15.9617L88.399 3.32855L83.1384 15.9617H93.2112Z" fill="#00677D"/>
<path d="M115.747 1.31671V4.39364C115.289 3.93999 114.831 3.56523 114.372 3.26938C113.934 2.97352 113.466 2.73683 112.968 2.55932C112.489 2.3818 111.971 2.26346 111.413 2.20429C110.875 2.12539 110.268 2.08594 109.59 2.08594H108.992V21.2575H105.435V2.08594H104.838C104.16 2.08594 103.542 2.12539 102.984 2.20429C102.446 2.26346 101.928 2.3818 101.43 2.55932C100.952 2.73683 100.484 2.97352 100.025 3.26938C99.587 3.56523 99.1387 3.93999 98.6803 4.39364V1.31671H115.747Z" fill="#00677D"/>
<path d="M124.166 20.5179C125.143 20.5179 126.109 20.5278 127.065 20.5475C128.042 20.5672 128.998 20.5179 129.935 20.3996C130.871 20.2812 131.778 20.0642 132.655 19.7487C133.532 19.4134 134.369 18.9005 135.166 18.2102V21.3167H120.041V6.73091C120.041 5.66582 119.982 4.70922 119.862 3.86109C119.743 2.99324 119.454 2.15498 118.995 1.3463H123.598V20.5179H124.196H124.166Z" fill="#00677D"/>
<path d="M154.693 13.151L157.921 21.3167H153.856L152.093 16.7309H144.77C144.371 16.7309 143.973 16.7605 143.574 16.8197C143.176 16.8788 142.797 16.9972 142.438 17.1747C141.86 17.4706 141.362 17.8848 140.944 18.4173C140.585 18.9104 140.286 19.4627 140.047 20.0741L139.599 21.3167H138.583L143.066 9.95577C143.305 9.36405 143.564 8.71316 143.843 8.0031C144.122 7.29304 144.371 6.56326 144.59 5.81375C144.81 5.04452 144.959 4.28515 145.039 3.53565C145.118 2.76642 145.069 2.0465 144.889 1.37588H149.971L151.017 4.00902C151.614 5.54748 152.212 7.06622 152.81 8.56523C153.428 10.0642 154.036 11.583 154.633 13.1214L154.693 13.151ZM151.794 15.9617L146.982 3.32855L141.721 15.9617H151.794Z" fill="#00677D"/>
<path d="M176.008 17.1747V1.37588H177.234V21.3167H173.886L161.87 3.68358V21.3167H160.645V6.73091C160.645 5.66582 160.585 4.70922 160.466 3.86109C160.346 2.99324 160.057 2.15498 159.599 1.3463H165.098L175.978 17.1451L176.008 17.1747Z" fill="#00677D"/>
<path d="M197.652 1.31671V4.39364C197.194 3.93999 196.735 3.56523 196.277 3.26938C195.839 2.97352 195.37 2.73683 194.872 2.55932C194.394 2.3818 193.876 2.26346 193.318 2.20429C192.78 2.12539 192.172 2.08594 191.495 2.08594H190.897V21.2575H187.34V2.08594H186.742C186.065 2.08594 185.447 2.12539 184.889 2.20429C184.351 2.26346 183.833 2.3818 183.335 2.55932C182.857 2.73683 182.388 2.97352 181.93 3.26938C181.492 3.56523 181.043 3.93999 180.585 4.39364V1.31671H197.652Z" fill="#00677D"/>
<path d="M213.772 13.151L217 21.3167H212.935L211.172 16.7309H203.849C203.45 16.7309 203.051 16.7605 202.653 16.8197C202.254 16.8788 201.876 16.9972 201.517 17.1747C200.939 17.4706 200.441 17.8848 200.023 18.4173C199.664 18.9104 199.365 19.4627 199.126 20.0741L198.678 21.3167H197.661L202.145 9.95577C202.384 9.36405 202.643 8.71316 202.922 8.0031C203.201 7.29304 203.45 6.56326 203.669 5.81375C203.888 5.04452 204.038 4.28515 204.118 3.53565C204.197 2.76642 204.147 2.0465 203.968 1.37588H209.049L210.095 4.00902C210.693 5.54748 211.291 7.06622 211.889 8.56523C212.507 10.0642 213.114 11.583 213.712 13.1214L213.772 13.151ZM210.873 15.9617L206.06 3.32855L200.8 15.9617H210.873Z" fill="#00677D"/>
<path d="M85.327 28.9407C85.327 29.3834 85.2704 29.786 85.1572 30.1487C85.0441 30.506 84.8743 30.8154 84.648 31.0767C84.427 31.338 84.1495 31.538 83.8154 31.6767C83.4867 31.8154 83.104 31.8847 82.6675 31.8847C82.2149 31.8847 81.8215 31.8154 81.4874 31.6767C81.1532 31.5327 80.8757 31.3327 80.6548 31.0767C80.4338 30.8154 80.2694 30.5034 80.1617 30.1407C80.0539 29.778 80 29.3754 80 28.9327C80 28.346 80.097 27.834 80.291 27.3967C80.485 26.9594 80.7787 26.618 81.1721 26.3727C81.5709 26.1274 82.0721 26.0047 82.6756 26.0047C83.2522 26.0047 83.7372 26.1274 84.1306 26.3727C84.524 26.6127 84.8204 26.954 85.0198 27.3967C85.2246 27.834 85.327 28.3487 85.327 28.9407ZM80.7679 28.9407C80.7679 29.4207 80.8353 29.834 80.97 30.1807C81.1047 30.5274 81.3122 30.794 81.5924 30.9807C81.8781 31.1674 82.2364 31.2607 82.6675 31.2607C83.104 31.2607 83.4597 31.1674 83.7346 30.9807C84.0148 30.794 84.2223 30.5274 84.357 30.1807C84.4917 29.834 84.5591 29.4207 84.5591 28.9407C84.5591 28.2207 84.4082 27.658 84.1064 27.2527C83.8046 26.842 83.3277 26.6367 82.6756 26.6367C82.2391 26.6367 81.8781 26.73 81.5924 26.9167C81.3122 27.098 81.1047 27.362 80.97 27.7087C80.8353 28.05 80.7679 28.4607 80.7679 28.9407Z" fill="#00677D"/>
<path d="M93.1619 31.8047H92.2889L89.6779 28.9087V31.8047H88.9504V26.0927H89.6779V28.8607L92.2242 26.0927H93.0487L90.5428 28.8687L93.1619 31.8047Z" fill="#00677D"/>
<path d="M99.5168 31.8047H96.2915V26.0927H99.5168V26.7247H97.019V28.5087H99.3713V29.1327H97.019V31.1727H99.5168V31.8047Z" fill="#00677D"/>
<path d="M106.749 31.8047L106.054 30.0367H103.766L103.079 31.8047H102.343L104.599 26.0687H105.253L107.5 31.8047H106.749ZM105.189 27.6687C105.172 27.626 105.146 27.5487 105.108 27.4367C105.07 27.3247 105.032 27.21 104.995 27.0927C104.962 26.97 104.935 26.8767 104.914 26.8127C104.887 26.9194 104.857 27.0287 104.825 27.1407C104.798 27.2474 104.768 27.346 104.736 27.4367C104.709 27.5274 104.685 27.6047 104.663 27.6687L104.008 29.3967H105.835L105.189 27.6687Z" fill="#00677D"/>
<path d="M115.048 31.8047H114.32V29.1407H111.362V31.8047H110.634V26.0927H111.362V28.5087H114.32V26.0927H115.048V31.8047Z" fill="#00677D"/>
<path d="M125.181 26.0927C125.661 26.0927 126.062 26.138 126.386 26.2287C126.715 26.3194 126.96 26.4687 127.121 26.6767C127.288 26.8847 127.372 27.162 127.372 27.5087C127.372 27.7327 127.329 27.9327 127.243 28.1087C127.162 28.2794 127.038 28.4234 126.871 28.5407C126.709 28.6527 126.51 28.73 126.273 28.7727V28.8127C126.515 28.85 126.733 28.9194 126.927 29.0207C127.127 29.122 127.283 29.266 127.396 29.4527C127.509 29.6394 127.566 29.882 127.566 30.1807C127.566 30.5274 127.485 30.8234 127.323 31.0687C127.162 31.3087 126.93 31.4927 126.628 31.6207C126.332 31.7434 125.976 31.8047 125.561 31.8047H123.532V26.0927H125.181ZM125.327 28.5247C125.823 28.5247 126.162 28.4474 126.345 28.2927C126.529 28.1327 126.62 27.898 126.62 27.5887C126.62 27.274 126.507 27.05 126.281 26.9167C126.06 26.778 125.704 26.7087 125.214 26.7087H124.26V28.5247H125.327ZM124.26 29.1247V31.1967H125.424C125.936 31.1967 126.292 31.098 126.491 30.9007C126.69 30.7034 126.79 30.4447 126.79 30.1247C126.79 29.922 126.744 29.746 126.653 29.5967C126.566 29.4474 126.418 29.3327 126.208 29.2527C126.003 29.1674 125.723 29.1247 125.367 29.1247H124.26Z" fill="#00677D"/>
<path d="M136.17 28.9407C136.17 29.3834 136.113 29.786 136 30.1487C135.887 30.506 135.717 30.8154 135.491 31.0767C135.27 31.338 134.992 31.538 134.658 31.6767C134.33 31.8154 133.947 31.8847 133.51 31.8847C133.058 31.8847 132.664 31.8154 132.33 31.6767C131.996 31.5327 131.719 31.3327 131.498 31.0767C131.277 30.8154 131.112 30.5034 131.005 30.1407C130.897 29.778 130.843 29.3754 130.843 28.9327C130.843 28.346 130.94 27.834 131.134 27.3967C131.328 26.9594 131.622 26.618 132.015 26.3727C132.414 26.1274 132.915 26.0047 133.519 26.0047C134.095 26.0047 134.58 26.1274 134.974 26.3727C135.367 26.6127 135.663 26.954 135.863 27.3967C136.068 27.834 136.17 28.3487 136.17 28.9407ZM131.611 28.9407C131.611 29.4207 131.678 29.834 131.813 30.1807C131.948 30.5274 132.155 30.794 132.435 30.9807C132.721 31.1674 133.079 31.2607 133.51 31.2607C133.947 31.2607 134.303 31.1674 134.578 30.9807C134.858 30.794 135.065 30.5274 135.2 30.1807C135.335 29.834 135.402 29.4207 135.402 28.9407C135.402 28.2207 135.251 27.658 134.949 27.2527C134.648 26.842 134.171 26.6367 133.519 26.6367C133.082 26.6367 132.721 26.73 132.435 26.9167C132.155 27.098 131.948 27.362 131.813 27.7087C131.678 28.05 131.611 28.4607 131.611 28.9407Z" fill="#00677D"/>
<path d="M143.126 27.4287C143.126 27.818 143.002 28.1274 142.754 28.3567C142.506 28.5807 142.174 28.7247 141.76 28.7887V28.8207C142.245 28.8847 142.614 29.034 142.867 29.2687C143.12 29.5034 143.247 29.81 143.247 30.1887C143.247 30.5247 143.161 30.8207 142.988 31.0767C142.816 31.3274 142.557 31.5247 142.212 31.6687C141.867 31.8127 141.436 31.8847 140.919 31.8847C140.606 31.8847 140.307 31.8607 140.022 31.8127C139.741 31.77 139.48 31.69 139.237 31.5727V30.9167C139.405 30.9967 139.582 31.066 139.771 31.1247C139.965 31.178 140.159 31.2207 140.353 31.2527C140.547 31.2794 140.733 31.2927 140.911 31.2927C141.428 31.2927 141.819 31.1967 142.083 31.0047C142.352 30.8127 142.487 30.5407 142.487 30.1887C142.487 29.826 142.331 29.562 142.018 29.3967C141.706 29.2314 141.269 29.1487 140.709 29.1487H139.884V28.5487H140.668C141.051 28.5487 141.366 28.506 141.614 28.4207C141.867 28.3354 142.056 28.2154 142.18 28.0607C142.309 27.9007 142.374 27.714 142.374 27.5007C142.374 27.2127 142.266 26.9914 142.051 26.8367C141.835 26.682 141.555 26.6047 141.21 26.6047C140.849 26.6047 140.547 26.65 140.304 26.7407C140.067 26.8314 139.836 26.9487 139.609 27.0927L139.262 26.6047C139.413 26.4927 139.585 26.394 139.779 26.3087C139.978 26.218 140.199 26.146 140.442 26.0927C140.684 26.0394 140.943 26.0127 141.218 26.0127C141.633 26.0127 141.98 26.074 142.261 26.1967C142.546 26.3194 142.762 26.4874 142.907 26.7007C143.053 26.9087 143.126 27.1514 143.126 27.4287Z" fill="#00677D"/>
<path d="M149.357 31.8047L147.457 26.7967H147.425C147.436 26.9034 147.444 27.0394 147.449 27.2047C147.46 27.37 147.468 27.5514 147.474 27.7487C147.479 27.9407 147.482 28.138 147.482 28.3407V31.8047H146.811V26.0927H147.886L149.664 30.7727H149.697L151.507 26.0927H152.574V31.8047H151.855V28.2927C151.855 28.106 151.858 27.922 151.863 27.7407C151.868 27.554 151.876 27.3807 151.887 27.2207C151.898 27.0554 151.906 26.9167 151.911 26.8047H151.879L149.955 31.8047H149.357Z" fill="#00677D"/>
<path d="M161.524 28.9407C161.524 29.3834 161.468 29.786 161.355 30.1487C161.242 30.506 161.072 30.8154 160.845 31.0767C160.625 31.338 160.347 31.538 160.013 31.6767C159.684 31.8154 159.302 31.8847 158.865 31.8847C158.412 31.8847 158.019 31.8154 157.685 31.6767C157.351 31.5327 157.073 31.3327 156.852 31.0767C156.631 30.8154 156.467 30.5034 156.359 30.1407C156.251 29.778 156.197 29.3754 156.197 28.9327C156.197 28.346 156.294 27.834 156.488 27.3967C156.682 26.9594 156.976 26.618 157.37 26.3727C157.768 26.1274 158.27 26.0047 158.873 26.0047C159.45 26.0047 159.935 26.1274 160.328 26.3727C160.722 26.6127 161.018 26.954 161.217 27.3967C161.422 27.834 161.524 28.3487 161.524 28.9407ZM156.965 28.9407C156.965 29.4207 157.033 29.834 157.167 30.1807C157.302 30.5274 157.51 30.794 157.79 30.9807C158.076 31.1674 158.434 31.2607 158.865 31.2607C159.302 31.2607 159.657 31.1674 159.932 30.9807C160.212 30.794 160.42 30.5274 160.554 30.1807C160.689 29.834 160.757 29.4207 160.757 28.9407C160.757 28.2207 160.606 27.658 160.304 27.2527C160.002 26.842 159.525 26.6367 158.873 26.6367C158.437 26.6367 158.076 26.73 157.79 26.9167C157.51 27.098 157.302 27.362 157.167 27.7087C157.033 28.05 156.965 28.4607 156.965 28.9407Z" fill="#00677D"/>
<path d="M166.534 28.8687L164.295 26.0927H165.103L167.31 28.8607V26.0927H168.005V28.8607L170.212 26.0927H171.02L168.781 28.8607L171.093 31.8047H170.26L168.005 28.9087V31.8047H167.31V28.9087L165.047 31.8047H164.214L166.534 28.8687Z" fill="#00677D"/>
<path d="M178.647 31.8047H177.92V29.1407H174.961V31.8047H174.234V26.0927H174.961V28.5087H177.92V26.0927H178.647V31.8047Z" fill="#00677D"/>
<path d="M187.605 28.9407C187.605 29.3834 187.549 29.786 187.436 30.1487C187.322 30.506 187.153 30.8154 186.926 31.0767C186.705 31.338 186.428 31.538 186.094 31.6767C185.765 31.8154 185.382 31.8847 184.946 31.8847C184.493 31.8847 184.1 31.8154 183.766 31.6767C183.432 31.5327 183.154 31.3327 182.933 31.0767C182.712 30.8154 182.548 30.5034 182.44 30.1407C182.332 29.778 182.278 29.3754 182.278 28.9327C182.278 28.346 182.375 27.834 182.569 27.3967C182.763 26.9594 183.057 26.618 183.45 26.3727C183.849 26.1274 184.35 26.0047 184.954 26.0047C185.531 26.0047 186.016 26.1274 186.409 26.3727C186.802 26.6127 187.099 26.954 187.298 27.3967C187.503 27.834 187.605 28.3487 187.605 28.9407ZM183.046 28.9407C183.046 29.4207 183.114 29.834 183.248 30.1807C183.383 30.5274 183.59 30.794 183.871 30.9807C184.156 31.1674 184.515 31.2607 184.946 31.2607C185.382 31.2607 185.738 31.1674 186.013 30.9807C186.293 30.794 186.501 30.5274 186.635 30.1807C186.77 29.834 186.837 29.4207 186.837 28.9407C186.837 28.2207 186.686 27.658 186.385 27.2527C186.083 26.842 185.606 26.6367 184.954 26.6367C184.517 26.6367 184.156 26.73 183.871 26.9167C183.59 27.098 183.383 27.362 183.248 27.7087C183.114 28.05 183.046 28.4607 183.046 28.9407Z" fill="#00677D"/>
<path d="M193.702 26.6447C193.395 26.6447 193.117 26.698 192.87 26.8047C192.622 26.906 192.412 27.058 192.239 27.2607C192.067 27.458 191.935 27.7007 191.843 27.9887C191.751 28.2714 191.706 28.5914 191.706 28.9487C191.706 29.418 191.778 29.826 191.924 30.1727C192.075 30.5194 192.296 30.786 192.587 30.9727C192.883 31.1594 193.252 31.2527 193.694 31.2527C193.947 31.2527 194.187 31.2314 194.414 31.1887C194.64 31.146 194.861 31.0927 195.076 31.0287V31.6527C194.861 31.7327 194.637 31.7914 194.405 31.8287C194.179 31.866 193.907 31.8847 193.589 31.8847C193.002 31.8847 192.511 31.7647 192.118 31.5247C191.724 31.2847 191.428 30.9434 191.229 30.5007C191.035 30.058 190.938 29.538 190.938 28.9407C190.938 28.5087 190.997 28.114 191.115 27.7567C191.239 27.3994 191.417 27.09 191.649 26.8287C191.886 26.5674 192.177 26.3674 192.522 26.2287C192.867 26.0847 193.263 26.0127 193.71 26.0127C194.007 26.0127 194.292 26.042 194.567 26.1007C194.842 26.1594 195.087 26.242 195.303 26.3487L195.012 26.9567C194.834 26.8767 194.634 26.8047 194.414 26.7407C194.198 26.6767 193.961 26.6447 193.702 26.6447Z" fill="#00677D"/>
<path d="M200.507 31.8047H199.78V26.7247H197.977V26.0927H202.302V26.7247H200.507V31.8047Z" fill="#00677D"/>
<path d="M208.741 31.8047H205.516V26.0927H208.741V26.7247H206.244V28.5087H208.596V29.1327H206.244V31.1727H208.741V31.8047Z" fill="#00677D"/>
<path d="M216.289 24.3167C216.267 24.5834 216.2 24.8074 216.087 24.9887C215.979 25.17 215.817 25.306 215.602 25.3967C215.386 25.4874 215.106 25.5327 214.761 25.5327C214.411 25.5327 214.128 25.4874 213.912 25.3967C213.702 25.306 213.548 25.1727 213.451 24.9967C213.354 24.8154 213.295 24.5887 213.274 24.3167H213.936C213.963 24.6047 214.039 24.7994 214.163 24.9007C214.292 24.9967 214.497 25.0447 214.777 25.0447C215.025 25.0447 215.219 24.994 215.359 24.8927C215.505 24.786 215.591 24.594 215.618 24.3167H216.289ZM212.36 26.0927H213.039V29.2287C213.039 29.362 213.036 29.5087 213.031 29.6687C213.031 29.8234 213.028 29.978 213.023 30.1327C213.018 30.2874 213.009 30.426 212.999 30.5487C212.993 30.666 212.988 30.7567 212.983 30.8207H213.015L216.192 26.0927H217V31.8047H216.321V28.7007C216.321 28.5567 216.324 28.402 216.329 28.2367C216.334 28.066 216.34 27.9034 216.345 27.7487C216.356 27.5887 216.364 27.4474 216.37 27.3247C216.375 27.202 216.38 27.1114 216.386 27.0527H216.353L213.168 31.8047H212.36V26.0927Z" fill="#00677D"/>
</svg>
