<svg width="30" height="30" viewBox="0 0 30 30" fill="none" xmlns="http://www.w3.org/2000/svg">
<g clip-path="url(#clip0_1060_3894)">
<path d="M25.9673 29.9948C25.0337 29.9949 24.1289 29.6689 23.4071 29.0722C22.6854 28.4756 22.1913 27.6454 22.0092 26.7229C21.8271 25.8005 21.9682 24.843 22.4084 24.0136C22.8485 23.1842 23.5606 22.5342 24.4233 22.1744C25.2859 21.8146 26.2457 21.7673 27.1391 22.0405C28.0325 22.3137 28.8042 22.8905 29.3228 23.6726C29.8413 24.4548 30.0745 25.3938 29.9827 26.3298C29.8908 27.2657 29.4797 28.1406 28.8192 28.8054C28.4454 29.1836 28.001 29.4835 27.5115 29.6876C27.022 29.8918 26.4971 29.9962 25.9673 29.9948V29.9948Z" fill="#6F3DFF"/>
<path d="M4.03786 8.32098C3.23977 8.32069 2.45966 8.08218 1.79607 7.63555C1.13247 7.18892 0.615151 6.55422 0.309442 5.8116C0.00373375 5.06898 -0.0766497 4.25176 0.0784442 3.46315C0.233538 2.67454 0.617153 1.94992 1.18084 1.3808C1.93802 0.618453 2.96475 0.190205 4.03529 0.190205C5.10584 0.190205 6.13257 0.618453 6.88975 1.3808C7.26478 1.75829 7.5623 2.20653 7.76528 2.6999C7.96826 3.19327 8.07274 3.7221 8.07274 4.25616C8.07274 4.79023 7.96826 5.31905 7.76528 5.81242C7.5623 6.30579 7.26478 6.75403 6.88975 7.13153C6.51622 7.5101 6.07179 7.81019 5.58223 8.01437C5.09266 8.21856 4.56772 8.32277 4.03786 8.32098V8.32098Z" fill="#6F3DFF"/>
<path d="M25.785 8.19945C24.987 8.19916 24.2069 7.96064 23.5433 7.51402C22.8797 7.06739 22.3623 6.43268 22.0566 5.69007C21.7509 4.94745 21.6705 4.13023 21.8256 3.34162C21.9807 2.55301 22.3643 1.82839 22.928 1.25927C23.3972 0.785564 23.9752 0.43578 24.6106 0.240922C25.2461 0.0460634 25.9195 0.0121492 26.5712 0.142186C27.2228 0.272222 27.8325 0.562192 28.3462 0.986391C28.86 1.41059 29.2619 1.95592 29.5163 2.57402C29.7708 3.19213 29.8699 3.86393 29.8049 4.52987C29.74 5.19581 29.5129 5.83531 29.1439 6.3917C28.7748 6.94808 28.2752 7.40416 27.6893 7.71949C27.1034 8.03483 26.4493 8.19968 25.785 8.19945V8.19945Z" fill="#6F3DFF"/>
<path d="M4.14305 29.9948C3.34525 29.9953 2.56522 29.7575 1.90154 29.3115C1.23786 28.8655 0.720299 28.2314 0.414273 27.4892C0.108246 26.7471 0.0274831 25.9302 0.18219 25.1418C0.336897 24.3534 0.72013 23.6289 1.28346 23.0598C1.45725 22.8856 1.64819 22.7297 1.85333 22.5944C1.92263 22.5453 1.98424 22.5065 2.05098 22.4677C2.19987 22.3798 2.34875 22.3022 2.48736 22.2375C2.56437 22.2039 2.64138 22.1677 2.72352 22.1367C2.8863 22.0743 3.05259 22.0217 3.22151 21.979L3.32419 21.9505L3.3858 21.935L4.28423 21.873C4.39718 21.873 4.52039 21.8911 4.64874 21.9092H4.70008H4.81303H4.84896H4.89003H4.92597H5.12363C5.90702 21.9029 6.68133 21.7396 7.40144 21.4288C8.12156 21.1181 8.77308 20.6661 9.31803 20.0991C9.86543 19.5381 10.2961 18.8727 10.5848 18.1419C10.8736 17.411 11.0145 16.6294 10.9994 15.843V15.799V15.7499C10.9926 15.7062 10.9883 15.6622 10.9866 15.618C10.9866 15.5663 10.9814 15.5146 10.9712 15.4629V15.3724C10.9712 15.2922 10.9558 15.2172 10.9506 15.1396L11.0174 14.232C11.023 14.2093 11.0299 14.1868 11.0379 14.1648L11.0533 14.1079C11.0921 13.9323 11.1427 13.7595 11.2047 13.5908C11.2331 13.5098 11.2657 13.4304 11.3023 13.3529C11.3661 13.2079 11.4372 13.0664 11.5153 12.9288C11.5539 12.8642 11.5924 12.7995 11.636 12.7349C11.7727 12.5285 11.9282 12.3354 12.1006 12.1582C12.859 11.3957 13.8871 10.9678 14.9587 10.9687C16.0303 10.9697 17.0576 11.3995 17.8147 12.1634C18.5717 12.9274 18.9965 13.963 18.9955 15.0424C18.9945 16.1219 18.5679 17.1567 17.8095 17.9193C17.6344 18.092 17.4436 18.2479 17.2397 18.3848C17.1729 18.4313 17.1087 18.4701 17.0446 18.5063C16.9038 18.5924 16.758 18.6701 16.6082 18.739C16.5286 18.7752 16.449 18.8114 16.3746 18.8399C16.2149 18.9009 16.0511 18.9502 15.8843 18.9872L15.7868 19.0131L15.7226 19.0338L14.8139 19.0984C14.7086 19.0984 14.5957 19.0777 14.4776 19.0622H14.398H14.2851H14.2543H14.2081H13.9745C12.4008 19.0834 10.8995 19.7311 9.79847 20.8639C8.69747 21.9967 8.08638 23.5225 8.09873 25.1077V25.1543V25.1982C8.10555 25.2419 8.10983 25.2859 8.11156 25.3301C8.11156 25.3844 8.11156 25.4335 8.12697 25.4853C8.12949 25.5329 8.13463 25.5804 8.14237 25.6275C8.14237 25.6895 8.14237 25.7516 8.14237 25.8137V25.8343L8.07819 26.7057C8.07819 26.7238 8.04482 26.8247 8.03712 26.8557C7.99929 27.0313 7.94954 27.2041 7.88824 27.3729C7.86126 27.4515 7.82954 27.5283 7.79326 27.603C7.72304 27.7577 7.64508 27.9088 7.55967 28.0555C7.52116 28.1176 7.47753 28.19 7.43132 28.2572C7.29687 28.4606 7.14298 28.6503 6.97184 28.8235C6.22022 29.576 5.2028 29.9973 4.14305 29.9948Z" fill="#6F3DFF"/>
<path d="M15.0449 29.9948C14.2476 29.9948 13.4683 29.7568 12.8051 29.3109C12.142 28.8651 11.6248 28.2314 11.3189 27.4897C11.013 26.7481 10.932 25.9318 11.0862 25.1438C11.2404 24.3559 11.6229 23.6316 12.1853 23.0624C12.3616 22.8874 12.5542 22.7298 12.7603 22.5918C12.8194 22.5504 12.8835 22.5116 12.9503 22.4728C13.0925 22.3869 13.239 22.3084 13.3892 22.2375L13.6228 22.1367C13.7823 22.0791 13.9452 22.0316 14.1105 21.9945L14.2697 21.9479L15.1835 21.8807C15.2913 21.8807 15.4069 21.9014 15.5275 21.9169H15.5968H15.7175H15.7611H15.7893H15.8278H16.0281C17.6004 21.8937 19.0998 21.2451 20.1991 20.1125C21.2984 18.9799 21.9085 17.4554 21.8961 15.8714V15.6826L21.8807 15.662C21.8793 15.6551 21.8793 15.6481 21.8807 15.6413V15.5068L21.8653 15.3775C21.8653 15.3051 21.8473 15.2353 21.8448 15.1629L21.9064 14.2837C21.9064 14.2605 21.9423 14.1519 21.95 14.1208C21.9817 13.9512 22.0237 13.7837 22.0758 13.6192C22.105 13.539 22.1384 13.4605 22.1759 13.3839C22.2449 13.2316 22.322 13.0831 22.4069 12.9391L22.4249 12.9107C22.4557 12.8564 22.4865 12.8047 22.5225 12.753C22.6603 12.5451 22.8167 12.3504 22.9896 12.1712C23.7473 11.4087 24.7744 10.9804 25.8454 10.9804C26.9163 10.9804 27.9435 11.4087 28.7011 12.1712C29.4556 12.9357 29.879 13.9699 29.879 15.0478C29.879 16.1258 29.4556 17.16 28.7011 17.9245C28.5238 18.0958 28.3323 18.2515 28.1287 18.3899L27.9952 18.4753L27.9259 18.5192C27.7879 18.601 27.6457 18.6752 27.4998 18.7416C27.4176 18.7804 27.3432 18.814 27.2636 18.845C27.1018 18.9041 26.9363 18.9525 26.7682 18.9898L26.6655 19.0209L26.6039 19.0364L25.7055 19.101C25.5746 19.101 25.4334 19.0752 25.2948 19.0571H25.1767H25.1561H25.0791H24.8789C23.3026 19.0748 21.7977 19.7219 20.6946 20.8564C19.5915 21.9908 18.9804 23.5198 18.9955 25.1077V25.1543V25.1982C18.998 25.2447 18.998 25.2914 18.9955 25.3379C18.9955 25.3844 18.9955 25.4335 19.0083 25.4775C19.0211 25.5215 19.0083 25.5654 19.0083 25.6145C19.0182 25.6831 19.0242 25.7522 19.0263 25.8214L18.9955 26.7135L18.957 26.8531C18.9181 27.0285 18.8684 27.2012 18.8081 27.3703C18.7824 27.4427 18.749 27.5151 18.7182 27.5875L18.7054 27.6133C18.6382 27.7606 18.5628 27.9039 18.4795 28.0426C18.4384 28.1124 18.3999 28.1796 18.3563 28.2443C17.9906 28.7887 17.4969 29.2335 16.9191 29.5389C16.3413 29.8444 15.6974 30.001 15.0449 29.9948V29.9948Z" fill="#6F3DFF"/>
<path d="M4.14565 19.0234C3.34713 19.0242 2.56631 18.7864 1.90193 18.3402C1.23755 17.8939 0.719432 17.2593 0.413087 16.5165C0.106742 15.7736 0.0259262 14.956 0.180856 14.1669C0.335787 13.3778 0.719506 12.6527 1.2835 12.0833C1.45982 11.9101 1.65142 11.7534 1.85593 11.6152L2.05359 11.4885C2.1922 11.4058 2.33595 11.3308 2.4874 11.2584C2.56441 11.2248 2.64142 11.1886 2.72613 11.1576C2.88373 11.0996 3.04494 11.0521 3.20872 11.0153L3.31139 10.9869C3.32901 10.9805 3.34701 10.9754 3.3653 10.9714L4.27914 10.9042C4.39722 10.9042 4.53583 10.9274 4.66161 10.9455H4.68985H4.8105H4.849H4.8875H5.13393C5.91602 10.9382 6.68887 10.7744 7.40759 10.4637C8.12631 10.153 8.77658 9.7015 9.32063 9.13549C9.86765 8.57383 10.2979 7.90785 10.5862 7.17657C10.8744 6.44529 11.0149 5.66341 10.9994 4.87674V4.83279V4.78883C10.9904 4.73933 10.9852 4.68918 10.984 4.63885V4.51474L10.9507 4.39579C10.9507 4.32339 10.9327 4.24582 10.9301 4.17083L10.9917 3.31753V3.29684V3.28133C10.9917 3.26064 11.0302 3.14687 11.0302 3.14687C11.0692 2.97156 11.119 2.79885 11.1791 2.62972C11.2073 2.55214 11.2433 2.47457 11.2792 2.397C11.3466 2.24388 11.4238 2.09532 11.5102 1.95225V1.92898C11.5462 1.8695 11.5796 1.81003 11.6206 1.75314C11.7555 1.54843 11.9093 1.35709 12.0801 1.18169C12.8385 0.416353 13.8677 -0.0141538 14.9412 -0.0151236C16.0147 -0.0160935 17.0446 0.412553 17.8044 1.17652C18.5642 1.94049 18.9916 2.97719 18.9925 4.05857C18.9935 5.13995 18.568 6.17743 17.8096 6.94277C17.6342 7.11446 17.4434 7.26941 17.2397 7.40562C17.1781 7.44958 17.1242 7.4806 17.0703 7.51422L17.0395 7.53232C16.8906 7.62024 16.7468 7.69781 16.6082 7.76245C16.5261 7.79865 16.4516 7.83485 16.3746 7.8633C16.2126 7.92255 16.0472 7.97177 15.8792 8.01069C15.8436 8.01828 15.8085 8.02778 15.774 8.03913L15.7098 8.05723L14.8139 8.11929C14.701 8.11929 14.5803 8.0986 14.4545 8.08309H14.3981H14.2826H14.2081H14.167H13.9668C12.3941 8.10625 10.8943 8.75525 9.79486 9.88839C8.69545 11.0215 8.08571 12.5468 8.09876 14.1312V14.1751V14.2217C8.10571 14.2671 8.10999 14.3128 8.1116 14.3587C8.1116 14.4079 8.1116 14.4544 8.12443 14.5009C8.13727 14.5475 8.12443 14.5889 8.13984 14.6354C8.14879 14.7023 8.15393 14.7696 8.15524 14.8371L8.09106 15.724C8.08628 15.7476 8.08028 15.7709 8.0731 15.7938L8.04999 15.874C8.01327 16.0496 7.96438 16.2224 7.90368 16.3911C7.87544 16.4687 7.83694 16.5489 7.801 16.629C7.73575 16.7784 7.66293 16.9242 7.58281 17.066C7.54174 17.1384 7.50323 17.2031 7.45959 17.2651C7.32358 17.472 7.16798 17.6651 6.99497 17.8417C6.62142 18.2195 6.17733 18.5192 5.68831 18.7233C5.19929 18.9274 4.675 19.0321 4.14565 19.0312V19.0234Z" fill="#6F3DFF"/>
</g>
<defs>
<clipPath id="clip0_1060_3894">
<rect width="30" height="30" fill="white"/>
</clipPath>
</defs>
</svg>
