<svg width="20" height="20" viewBox="0 0 20 20" fill="none" xmlns="http://www.w3.org/2000/svg">
<path d="M15.7381 5.63725C15.7381 2.52451 13.1682 0 9.99958 0C6.83093 0 4.26108 2.52451 4.26108 5.63725C4.26108 8.75 6.83093 11.2745 9.99958 11.2745C13.1682 11.2745 15.7381 8.75 15.7381 5.63725ZM5.75808 5.63725C5.75808 3.33333 7.65428 1.47059 9.99958 1.47059C12.3449 1.47059 14.2411 3.33333 14.2411 5.63725C14.2411 7.94118 12.3449 9.80392 9.99958 9.80392C7.65428 9.80392 5.75808 7.94118 5.75808 5.63725Z" fill="#9E9E9E"/>
<path d="M0.393829 19.902C0.518579 19.9755 0.643329 20 0.768079 20C1.01758 20 1.29203 19.8774 1.41678 19.6323C3.16328 16.5931 6.45668 14.7059 9.99959 14.7059C13.5425 14.7059 16.8359 16.5931 18.6073 19.6323C18.8069 19.9755 19.281 20.098 19.6303 19.902C19.9796 19.7059 20.1043 19.2402 19.9047 18.8971C17.8838 15.4167 14.0914 13.2353 9.99959 13.2353C5.90778 13.2353 2.11538 15.4167 0.0944286 18.8971C-0.105171 19.2402 0.0195788 19.7059 0.393829 19.902Z" fill="#9E9E9E"/>
</svg>
