<svg width="20" height="20" viewBox="0 0 20 20" fill="none" xmlns="http://www.w3.org/2000/svg">
<path d="M16.4916 12.4417C14.7749 14.1501 12.3166 14.6751 10.1583 14.0001L6.23325 17.9167C5.94992 18.2084 5.39159 18.3834 4.99159 18.3251L3.17492 18.0751C2.57492 17.9917 2.01659 17.4251 1.92492 16.8251L1.67492 15.0084C1.61659 14.6084 1.80825 14.0501 2.08325 13.7667L5.99992 9.85006C5.33325 7.68339 5.84992 5.22506 7.56659 3.51672C10.0249 1.05839 14.0166 1.05839 16.4833 3.51672C18.9499 5.97506 18.9499 9.98339 16.4916 12.4417Z" stroke="#9E9E9E" stroke-width="1.5" stroke-miterlimit="10" stroke-linecap="round" stroke-linejoin="round"/>
<path d="M5.74158 14.575L7.65824 16.4916" stroke="#9E9E9E" stroke-width="1.5" stroke-miterlimit="10" stroke-linecap="round" stroke-linejoin="round"/>
<path d="M12.0833 9.16663C12.7737 9.16663 13.3333 8.60698 13.3333 7.91663C13.3333 7.22627 12.7737 6.66663 12.0833 6.66663C11.393 6.66663 10.8333 7.22627 10.8333 7.91663C10.8333 8.60698 11.393 9.16663 12.0833 9.16663Z" stroke="#9E9E9E" stroke-width="1.5" stroke-linecap="round" stroke-linejoin="round"/>
</svg>
