<svg width="86" height="85" viewBox="0 0 86 85" fill="none" xmlns="http://www.w3.org/2000/svg">
<rect x="0.5" width="85" height="85" rx="42.5" fill="#6F3DFF"/>
<path d="M43 61.25C53.3553 61.25 61.75 52.8553 61.75 42.5C61.75 32.1447 53.3553 23.75 43 23.75C32.6447 23.75 24.25 32.1447 24.25 42.5C24.25 52.8553 32.6447 61.25 43 61.25Z" stroke="white" stroke-width="3.3" stroke-linecap="round" stroke-linejoin="round"/>
<path d="M35.5 25.625H37.375C33.7188 36.575 33.7188 48.425 37.375 59.375H35.5" stroke="white" stroke-width="3.3" stroke-linecap="round" stroke-linejoin="round"/>
<path d="M48.625 25.625C52.2813 36.575 52.2813 48.425 48.625 59.375" stroke="white" stroke-width="3.3" stroke-linecap="round" stroke-linejoin="round"/>
<path d="M26.125 50V48.125C37.075 51.7813 48.925 51.7813 59.875 48.125V50" stroke="white" stroke-width="3.3" stroke-linecap="round" stroke-linejoin="round"/>
<path d="M26.125 36.875C37.075 33.2188 48.925 33.2188 59.875 36.875" stroke="white" stroke-width="3.3" stroke-linecap="round" stroke-linejoin="round"/>
</svg>
