<svg width="20" height="27" viewBox="0 0 20 27" fill="none" xmlns="http://www.w3.org/2000/svg">
<path d="M18.4375 10.6562H12.3555L19.082 17.0078C19.2179 17.1369 19.3119 17.3037 19.3521 17.4867C19.3922 17.6697 19.3766 17.8605 19.3072 18.0346C19.2379 18.2086 19.1179 18.3579 18.9629 18.4632C18.8079 18.5684 18.6249 18.6248 18.4375 18.625H10.9375V25.6562C10.9383 25.8384 10.8853 26.0167 10.7853 26.1688C10.6852 26.321 10.5425 26.4403 10.375 26.5117C10.2577 26.5667 10.1296 26.5948 10 26.5938C9.76054 26.5911 9.53069 26.4992 9.35548 26.3359L0.917977 18.3672C0.825021 18.2801 0.751024 18.1748 0.700614 18.0579C0.650204 17.9409 0.624466 17.8149 0.625008 17.6875V9.71875C0.625008 9.47011 0.723781 9.23165 0.899596 9.05584C1.07541 8.88002 1.31387 8.78125 1.56251 8.78125H7.64454L0.917977 2.42969C0.782135 2.30064 0.688079 2.13385 0.647941 1.95083C0.607804 1.76781 0.623428 1.57696 0.692797 1.40291C0.762166 1.22886 0.882098 1.07958 1.03712 0.974343C1.19214 0.869106 1.37514 0.812734 1.56251 0.8125H18.4375C18.6861 0.8125 18.9246 0.911272 19.1004 1.08709C19.2762 1.2629 19.375 1.50136 19.375 1.75V9.71875C19.375 9.96739 19.2762 10.2058 19.1004 10.3817C18.9246 10.5575 18.6861 10.6562 18.4375 10.6562Z" fill="#335EF7"/>
</svg>
