<svg width="250" height="250" viewBox="0 0 250 250" fill="none" xmlns="http://www.w3.org/2000/svg">
<path d="M250 191.2H0V191.325H250V191.2Z" fill="#E0E0E0"/>
<path d="M189.665 195.81H172.465V195.935H189.665V195.81Z" fill="#E0E0E0"/>
<path d="M209.9 195.455H200.22V195.58H209.9V195.455Z" fill="#E0E0E0"/>
<path d="M123.67 195.75H110.83V195.875H123.67V195.75Z" fill="#E0E0E0"/>
<path d="M132.945 197.525H124.175V197.65H132.945V197.525Z" fill="#E0E0E0"/>
<path d="M72.335 194.485H45.84V194.61H72.335V194.485Z" fill="#E0E0E0"/>
<path d="M118.5 168.9H21.955C21.1987 168.899 20.4738 168.597 19.9394 168.062C19.4051 167.527 19.105 166.801 19.105 166.045V30.33C19.1116 29.578 19.4146 28.859 19.9482 28.3291C20.4818 27.7992 21.203 27.5013 21.955 27.5H118.5C119.257 27.5 119.983 27.8008 120.519 28.3362C121.054 28.8716 121.355 29.5978 121.355 30.355V166.045C121.355 166.802 121.054 167.528 120.519 168.064C119.983 168.599 119.257 168.9 118.5 168.9ZM21.955 27.6C21.2318 27.6013 20.5387 27.8895 20.0278 28.4014C19.5169 28.9132 19.23 29.6068 19.23 30.33V166.045C19.23 166.768 19.5169 167.462 20.0278 167.974C20.5387 168.485 21.2318 168.774 21.955 168.775H118.5C119.224 168.774 119.917 168.486 120.429 167.974C120.941 167.462 121.229 166.769 121.23 166.045V30.33C121.229 29.6064 120.941 28.9127 120.429 28.4011C119.917 27.8894 119.224 27.6013 118.5 27.6H21.955Z" fill="#E0E0E0"/>
<path d="M226.655 168.9H130.105C129.348 168.899 128.623 168.597 128.088 168.062C127.553 167.527 127.251 166.802 127.25 166.045V30.33C127.258 29.5776 127.562 28.8585 128.096 28.3288C128.631 27.7991 129.353 27.5013 130.105 27.5H226.655C227.406 27.5026 228.126 27.8011 228.659 28.3309C229.191 28.8606 229.493 29.5789 229.5 30.33V166.045C229.5 166.8 229.201 167.525 228.667 168.06C228.134 168.595 227.41 168.897 226.655 168.9ZM130.105 27.6C129.381 27.6013 128.688 27.8894 128.176 28.4011C127.664 28.9127 127.376 29.6064 127.375 30.33V166.045C127.376 166.769 127.664 167.462 128.176 167.974C128.688 168.486 129.381 168.774 130.105 168.775H226.655C227.379 168.774 228.072 168.486 228.584 167.974C229.096 167.462 229.384 166.769 229.385 166.045V30.33C229.384 29.6064 229.096 28.9127 228.584 28.4011C228.072 27.8894 227.379 27.6013 226.655 27.6H130.105Z" fill="#E0E0E0"/>
<path d="M217.015 39.635H141.665V104.415H217.015V39.635Z" fill="#E0E0E0"/>
<path d="M218.69 39.635H143.34V104.415H218.69V39.635Z" fill="#F0F0F0"/>
<path d="M215.685 101.375V42.675L146.345 42.675V101.375H215.685Z" fill="#FAFAFA"/>
<path d="M193.525 101.375V42.675H188.995V101.375H193.525Z" fill="#E0E0E0"/>
<path d="M169.695 101.375V42.675H165.165V101.375H169.695Z" fill="#E0E0E0"/>
<path d="M195.12 103.3V40.4099H190.59V103.3H195.12Z" fill="#F0F0F0"/>
<path d="M171.285 103.305V40.415H166.755V103.305H171.285Z" fill="#F0F0F0"/>
<path d="M215.685 101.37V42.6699H214.42V101.37H215.685Z" fill="#E0E0E0"/>
<path d="M88.67 90.795C88.67 90.795 79.5 75 92.225 62.405C92.225 62.405 95.545 64.57 95.495 67.48C95.445 70.39 91.935 71.125 92.69 73.555C93.445 75.985 96.75 78.36 94.58 80.37C92.41 82.38 94.93 84.16 94.785 86.62C94.64 89.08 88.67 90.795 88.67 90.795Z" fill="#E0E0E0"/>
<path d="M90.11 93.3801C90.11 93.3801 93.83 75.4901 77.79 67.5601C77.79 67.5601 75.32 70.6601 76.29 73.4051C77.26 76.1501 80.8149 75.7401 80.8649 78.2851C80.9149 80.8301 78.53 84.1301 81.22 85.3501C83.91 86.5701 82.0849 89.0601 82.9999 91.3501C83.9149 93.6401 90.11 93.3801 90.11 93.3801Z" fill="#E6E6E6"/>
<path d="M81.9449 88.835C81.9449 88.835 82.1049 104.28 88.2799 104.28C94.4549 104.28 94.6099 88.835 94.6099 88.835H81.9449Z" fill="#F0F0F0"/>
<path d="M44.845 98.47C44.845 98.47 45.19 104.28 58.375 104.28C71.56 104.28 71.91 98.47 71.91 98.47H44.845Z" fill="#E6E6E6"/>
<path d="M183.85 133.5H176.89C176.023 133.5 175.32 134.203 175.32 135.07V146.58C175.32 147.447 176.023 148.15 176.89 148.15H183.85C184.717 148.15 185.42 147.447 185.42 146.58V135.07C185.42 134.203 184.717 133.5 183.85 133.5Z" fill="#F0F0F0"/>
<path d="M202.31 138.29H197.625C197.042 138.29 196.57 138.762 196.57 139.345V147.095C196.57 147.678 197.042 148.15 197.625 148.15H202.31C202.893 148.15 203.365 147.678 203.365 147.095V139.345C203.365 138.762 202.893 138.29 202.31 138.29Z" fill="#E6E6E6"/>
<path d="M203.01 137.335H196.925C196.729 137.335 196.57 137.494 196.57 137.69V138.09C196.57 138.286 196.729 138.445 196.925 138.445H203.01C203.206 138.445 203.365 138.286 203.365 138.09V137.69C203.365 137.494 203.206 137.335 203.01 137.335Z" fill="#F0F0F0"/>
<path d="M159.21 140C159.21 140 159.46 148.15 169.005 148.15C178.55 148.15 178.805 140 178.805 140H159.21Z" fill="#E6E6E6"/>
<path d="M135.47 129.235H149.915V126.385H135.47V129.235Z" fill="#E0E0E0"/>
<path d="M221.73 126.39H149.915V129.24H221.73V126.39Z" fill="#F0F0F0"/>
<path d="M135.47 151H149.915V148.15H135.47V151Z" fill="#E0E0E0"/>
<path d="M221.73 148.15H149.915V151H221.73V148.15Z" fill="#F0F0F0"/>
<path d="M140.675 129.235H138.01V191.195H140.675V129.235Z" fill="#E0E0E0"/>
<path d="M152.58 129.235H149.915V191.195H152.58V129.235Z" fill="#F0F0F0"/>
<path d="M212.49 129.235H209.825V191.195H212.49V129.235Z" fill="#E0E0E0"/>
<path d="M221.73 129.235H219.065V191.195H221.73V129.235Z" fill="#F0F0F0"/>
<path d="M44.8451 107.905H31.1851V187.45H44.8451V107.905Z" fill="#E6E6E6"/>
<path d="M101.17 187.445H33.8101V191.2H101.17V187.445Z" fill="#E6E6E6"/>
<path d="M44.845 187.445H103.79L103.79 107.9L44.845 107.9L44.845 187.445Z" fill="#F0F0F0"/>
<path d="M50.215 157.39H98.42V137.96H50.215V157.39Z" fill="#E6E6E6"/>
<path d="M50.215 180.36H98.42V160.93H50.215V180.36Z" fill="#E6E6E6"/>
<path d="M79.73 140.09H68.905C68.5526 140.089 68.2151 139.948 67.966 139.699C67.7168 139.45 67.5763 139.112 67.575 138.76C67.5749 138.407 67.7149 138.068 67.9642 137.818C68.2135 137.568 68.5518 137.426 68.905 137.425H79.73C80.0832 137.426 80.4214 137.568 80.6707 137.818C80.92 138.068 81.06 138.407 81.06 138.76C81.0586 139.112 80.9181 139.45 80.669 139.699C80.4198 139.948 80.0823 140.089 79.73 140.09Z" fill="#F0F0F0"/>
<path d="M50.215 134.415H98.42V114.985H50.215V134.415Z" fill="#E6E6E6"/>
<path d="M79.73 117.12H68.905C68.5518 117.119 68.2135 116.978 67.9642 116.727C67.7149 116.477 67.5749 116.138 67.575 115.785C67.5763 115.433 67.7168 115.095 67.966 114.846C68.2151 114.597 68.5526 114.456 68.905 114.455H79.73C80.0823 114.456 80.4198 114.597 80.669 114.846C80.9181 115.095 81.0586 115.433 81.06 115.785C81.06 116.138 80.92 116.477 80.6707 116.727C80.4214 116.978 80.0832 117.119 79.73 117.12Z" fill="#F0F0F0"/>
<path d="M79.73 163.06H68.905C68.5526 163.059 68.2151 162.918 67.966 162.669C67.7168 162.42 67.5763 162.082 67.575 161.73C67.5749 161.377 67.7149 161.038 67.9642 160.788C68.2135 160.538 68.5518 160.396 68.905 160.395H79.73C80.0832 160.396 80.4214 160.538 80.6707 160.788C80.92 161.038 81.06 161.377 81.06 161.73C81.0586 162.082 80.9181 162.42 80.669 162.669C80.4198 162.918 80.0823 163.059 79.73 163.06Z" fill="#F0F0F0"/>
<path d="M105.61 104.28H44.845V107.905H105.61V104.28Z" fill="#E6E6E6"/>
<path d="M29.275 107.9H44.845V104.275H29.275V107.9Z" fill="#E0E0E0"/>
<path d="M60.07 42.675H37.97V66.945H60.07V42.675Z" fill="#E6E6E6"/>
<path d="M62.465 42.675H39.635V66.945H62.465V42.675Z" fill="#F0F0F0"/>
<path d="M60.55 65.03V44.585H41.5451V65.03H60.55Z" fill="#FAFAFA"/>
<path d="M55.9449 60.075V49.54H46.1549V60.075H55.9449Z" fill="#F0F0F0"/>
<path d="M83.37 35.51H66.61V53.515H83.37V35.51Z" fill="#E6E6E6"/>
<path d="M85.15 35.51H68.215V53.515H85.15V35.51Z" fill="#F0F0F0"/>
<path d="M83.73 52.0949V36.9299H69.635V52.0949H83.73Z" fill="#FAFAFA"/>
<path d="M76.68 40.675L72.825 47.355H80.535L76.68 40.675Z" fill="#F0F0F0"/>
<path d="M125 213.78C178.541 213.78 221.945 211.246 221.945 208.12C221.945 204.994 178.541 202.46 125 202.46C71.4588 202.46 28.0551 204.994 28.0551 208.12C28.0551 211.246 71.4588 213.78 125 213.78Z" fill="#F5F5F5"/>
<path d="M209.9 72.9099H160.85C158.263 72.9099 156.165 75.0075 156.165 77.5949V90.9349C156.165 93.5224 158.263 95.6199 160.85 95.6199H209.9C212.487 95.6199 214.585 93.5224 214.585 90.9349V77.5949C214.585 75.0075 212.487 72.9099 209.9 72.9099Z" fill="#00677D"/>
<path d="M200.17 76.74H161.855C161.402 76.74 161.035 77.1071 161.035 77.56V78.46C161.035 78.9129 161.402 79.28 161.855 79.28H200.17C200.623 79.28 200.99 78.9129 200.99 78.46V77.56C200.99 77.1071 200.623 76.74 200.17 76.74Z" fill="#00677D"/>
<path d="M188.035 82.8599H161.855C161.402 82.8599 161.035 83.227 161.035 83.6799V84.5799C161.035 85.0327 161.402 85.3999 161.855 85.3999H188.035C188.488 85.3999 188.855 85.0327 188.855 84.5799V83.6799C188.855 83.227 188.488 82.8599 188.035 82.8599Z" fill="#00677D"/>
<path d="M181.015 88.98H161.855C161.402 88.98 161.035 89.3471 161.035 89.8V90.7C161.035 91.1528 161.402 91.52 161.855 91.52H181.015C181.468 91.52 181.835 91.1528 181.835 90.7V89.8C181.835 89.3471 181.468 88.98 181.015 88.98Z" fill="#00677D"/>
<path d="M204.76 88.98H185.6C185.147 88.98 184.78 89.3471 184.78 89.8V90.7C184.78 91.1528 185.147 91.52 185.6 91.52H204.76C205.213 91.52 205.58 91.1528 205.58 90.7V89.8C205.58 89.3471 205.213 88.98 204.76 88.98Z" fill="#00677D"/>
<g opacity="0.5">
<path d="M200.17 76.74H161.855C161.402 76.74 161.035 77.1071 161.035 77.56V78.46C161.035 78.9129 161.402 79.28 161.855 79.28H200.17C200.623 79.28 200.99 78.9129 200.99 78.46V77.56C200.99 77.1071 200.623 76.74 200.17 76.74Z" fill="white"/>
<path d="M188.035 82.8601H161.855C161.402 82.8601 161.035 83.2272 161.035 83.6801V84.5801C161.035 85.033 161.402 85.4001 161.855 85.4001H188.035C188.488 85.4001 188.855 85.033 188.855 84.5801V83.6801C188.855 83.2272 188.488 82.8601 188.035 82.8601Z" fill="white"/>
<path d="M181.015 88.98H161.855C161.402 88.98 161.035 89.3471 161.035 89.8V90.7C161.035 91.1528 161.402 91.52 161.855 91.52H181.015C181.468 91.52 181.835 91.1528 181.835 90.7V89.8C181.835 89.3471 181.468 88.98 181.015 88.98Z" fill="white"/>
<path d="M204.76 88.98H185.6C185.147 88.98 184.78 89.3471 184.78 89.8V90.7C184.78 91.1528 185.147 91.52 185.6 91.52H204.76C205.213 91.52 205.58 91.1528 205.58 90.7V89.8C205.58 89.3471 205.213 88.98 204.76 88.98Z" fill="white"/>
</g>
<path d="M170.61 67.615H114.935C111.141 67.615 108.065 70.6908 108.065 74.485V94.045C108.065 97.8392 111.141 100.915 114.935 100.915H170.61C174.404 100.915 177.48 97.8392 177.48 94.045V74.485C177.48 70.6908 174.404 67.615 170.61 67.615Z" fill="#00677D"/>
<path d="M172.58 73.23H116.41C115.744 73.23 115.205 73.7695 115.205 74.435V75.75C115.205 76.4155 115.744 76.955 116.41 76.955H172.58C173.245 76.955 173.785 76.4155 173.785 75.75V74.435C173.785 73.7695 173.245 73.23 172.58 73.23Z" fill="#00677D"/>
<path d="M154.785 82.2048H116.41C115.744 82.2048 115.205 82.7443 115.205 83.4098V84.7248C115.205 85.3903 115.744 85.9298 116.41 85.9298H154.785C155.45 85.9298 155.99 85.3903 155.99 84.7248V83.4098C155.99 82.7443 155.45 82.2048 154.785 82.2048Z" fill="#00677D"/>
<path d="M144.495 91.1799H116.41C115.744 91.1799 115.205 91.7194 115.205 92.3849V93.6999C115.205 94.3654 115.744 94.9049 116.41 94.9049H144.495C145.16 94.9049 145.7 94.3654 145.7 93.6999V92.3849C145.7 91.7194 145.16 91.1799 144.495 91.1799Z" fill="#00677D"/>
<path d="M174.625 91.1799H151.225C150.56 91.1799 150.02 91.7194 150.02 92.3849V93.6999C150.02 94.3654 150.56 94.9049 151.225 94.9049H174.625C175.291 94.9049 175.83 94.3654 175.83 93.6999V92.3849C175.83 91.7194 175.291 91.1799 174.625 91.1799Z" fill="#00677D"/>
<g opacity="0.5">
<path d="M172.58 73.23H116.41C115.744 73.23 115.205 73.7695 115.205 74.435V75.75C115.205 76.4155 115.744 76.955 116.41 76.955H172.58C173.245 76.955 173.785 76.4155 173.785 75.75V74.435C173.785 73.7695 173.245 73.23 172.58 73.23Z" fill="white"/>
<path d="M154.785 82.2051H116.41C115.744 82.2051 115.205 82.7446 115.205 83.4101V84.7251C115.205 85.3906 115.744 85.9301 116.41 85.9301H154.785C155.45 85.9301 155.99 85.3906 155.99 84.7251V83.4101C155.99 82.7446 155.45 82.2051 154.785 82.2051Z" fill="white"/>
<path d="M144.495 91.1799H116.41C115.744 91.1799 115.205 91.7194 115.205 92.3849V93.6999C115.205 94.3654 115.744 94.9049 116.41 94.9049H144.495C145.16 94.9049 145.7 94.3654 145.7 93.6999V92.3849C145.7 91.7194 145.16 91.1799 144.495 91.1799Z" fill="white"/>
<path d="M174.625 91.1799H151.225C150.559 91.1799 150.02 91.7194 150.02 92.3849V93.6999C150.02 94.3654 150.559 94.9049 151.225 94.9049H174.625C175.29 94.9049 175.83 94.3654 175.83 93.6999V92.3849C175.83 91.7194 175.29 91.1799 174.625 91.1799Z" fill="white"/>
</g>
<path d="M135.995 106.95H109.18C107.407 106.95 105.97 108.387 105.97 110.16V150.33C105.97 152.103 107.407 153.54 109.18 153.54H135.995C137.768 153.54 139.205 152.103 139.205 150.33V110.16C139.205 108.387 137.768 106.95 135.995 106.95Z" fill="#00677D"/>
<path opacity="0.4" d="M135.995 106.95H109.18C107.407 106.95 105.97 108.387 105.97 110.16V150.33C105.97 152.103 107.407 153.54 109.18 153.54H135.995C137.768 153.54 139.205 152.103 139.205 150.33V110.16C139.205 108.387 137.768 106.95 135.995 106.95Z" fill="black"/>
<path d="M134.765 111.81H110.405C110.079 111.81 109.815 112.074 109.815 112.4V113.285C109.815 113.611 110.079 113.875 110.405 113.875H134.765C135.091 113.875 135.355 113.611 135.355 113.285V112.4C135.355 112.074 135.091 111.81 134.765 111.81Z" fill="#FAFAFA"/>
<path d="M127.01 116.78H110.405C110.079 116.78 109.815 117.044 109.815 117.37V118.255C109.815 118.581 110.079 118.845 110.405 118.845H127.01C127.336 118.845 127.6 118.581 127.6 118.255V117.37C127.6 117.044 127.336 116.78 127.01 116.78Z" fill="#FAFAFA"/>
<path d="M134.765 121.755H110.405C110.079 121.755 109.815 122.019 109.815 122.345V123.23C109.815 123.556 110.079 123.82 110.405 123.82H134.765C135.091 123.82 135.355 123.556 135.355 123.23V122.345C135.355 122.019 135.091 121.755 134.765 121.755Z" fill="#FAFAFA"/>
<path d="M119.46 126.725H110.405C110.079 126.725 109.815 126.989 109.815 127.315V128.2C109.815 128.526 110.079 128.79 110.405 128.79H119.46C119.786 128.79 120.05 128.526 120.05 128.2V127.315C120.05 126.989 119.786 126.725 119.46 126.725Z" fill="#FAFAFA"/>
<path d="M132.13 126.725H123.075C122.749 126.725 122.485 126.989 122.485 127.315V128.2C122.485 128.526 122.749 128.79 123.075 128.79H132.13C132.456 128.79 132.72 128.526 132.72 128.2V127.315C132.72 126.989 132.456 126.725 132.13 126.725Z" fill="#FAFAFA"/>
<path d="M134.765 131.7H110.405C110.079 131.7 109.815 131.964 109.815 132.29V133.175C109.815 133.501 110.079 133.765 110.405 133.765H134.765C135.091 133.765 135.355 133.501 135.355 133.175V132.29C135.355 131.964 135.091 131.7 134.765 131.7Z" fill="#FAFAFA"/>
<path d="M134.765 136.67H110.405C110.079 136.67 109.815 136.934 109.815 137.26V138.145C109.815 138.471 110.079 138.735 110.405 138.735H134.765C135.091 138.735 135.355 138.471 135.355 138.145V137.26C135.355 136.934 135.091 136.67 134.765 136.67Z" fill="#FAFAFA"/>
<path d="M130.445 141.645H110.405C110.079 141.645 109.815 141.909 109.815 142.235V143.12C109.815 143.446 110.079 143.71 110.405 143.71H130.445C130.771 143.71 131.035 143.446 131.035 143.12V142.235C131.035 141.909 130.771 141.645 130.445 141.645Z" fill="#FAFAFA"/>
<path d="M119.755 146.615H110.405C110.079 146.615 109.815 146.879 109.815 147.205V148.09C109.815 148.416 110.079 148.68 110.405 148.68H119.755C120.081 148.68 120.345 148.416 120.345 148.09V147.205C120.345 146.879 120.081 146.615 119.755 146.615Z" fill="#FAFAFA"/>
<path d="M143.25 106.665H106.055L122.5 119.75L147.715 129.25V111.12C147.712 109.937 147.241 108.804 146.404 107.969C145.567 107.134 144.432 106.665 143.25 106.665Z" fill="#00677D"/>
<path opacity="0.4" d="M143.25 106.665H106.055L122.5 119.75L147.715 129.25V111.12C147.712 109.937 147.241 108.804 146.404 107.969C145.567 107.134 144.432 106.665 143.25 106.665Z" fill="black"/>
<path d="M141.625 113.405H114.41C114.001 113.405 113.67 113.736 113.67 114.145V115.525C113.67 115.933 114.001 116.265 114.41 116.265H141.625C142.034 116.265 142.365 115.933 142.365 115.525V114.145C142.365 113.736 142.034 113.405 141.625 113.405Z" fill="#FAFAFA"/>
<path d="M207.575 142.085V115.925C207.575 113.92 205.95 112.295 203.945 112.295H158.52C156.515 112.295 154.89 113.92 154.89 115.925V142.085C154.89 144.09 156.515 145.715 158.52 145.715H203.945C205.95 145.715 207.575 144.09 207.575 142.085Z" fill="#00677D"/>
<path d="M215.87 133.795V107.635C215.87 105.63 214.245 104.005 212.24 104.005H166.815C164.81 104.005 163.185 105.63 163.185 107.635V133.795C163.185 135.8 164.81 137.425 166.815 137.425H212.24C214.245 137.425 215.87 135.8 215.87 133.795Z" fill="#00677D"/>
<path opacity="0.5" d="M215.87 133.795V107.635C215.87 105.63 214.245 104.005 212.24 104.005H166.815C164.81 104.005 163.185 105.63 163.185 107.635V133.795C163.185 135.8 164.81 137.425 166.815 137.425H212.24C214.245 137.425 215.87 135.8 215.87 133.795Z" fill="white"/>
<path d="M211.26 124.83V108.725C211.26 107.833 210.537 107.11 209.645 107.11H194.8C193.908 107.11 193.185 107.833 193.185 108.725V124.83C193.185 125.722 193.908 126.445 194.8 126.445H209.645C210.537 126.445 211.26 125.722 211.26 124.83Z" fill="#00677D"/>
<path opacity="0.7" d="M211.26 124.83V108.725C211.26 107.833 210.537 107.11 209.645 107.11H194.8C193.908 107.11 193.185 107.833 193.185 108.725V124.83C193.185 125.722 193.908 126.445 194.8 126.445H209.645C210.537 126.445 211.26 125.722 211.26 124.83Z" fill="white"/>
<path d="M190.355 132.62V120.28C190.355 119.595 189.8 119.04 189.115 119.04H177.74C177.055 119.04 176.5 119.595 176.5 120.28V132.62C176.5 133.305 177.055 133.86 177.74 133.86H189.115C189.8 133.86 190.355 133.305 190.355 132.62Z" fill="#00677D"/>
<path opacity="0.3" d="M190.355 132.62V120.28C190.355 119.595 189.8 119.04 189.115 119.04H177.74C177.055 119.04 176.5 119.595 176.5 120.28V132.62C176.5 133.305 177.055 133.86 177.74 133.86H189.115C189.8 133.86 190.355 133.305 190.355 132.62Z" fill="white"/>
<path d="M183.425 54.3799V47.7149C183.425 45.677 181.773 44.0249 179.735 44.0249L57.6701 44.0249C55.6321 44.0249 53.98 45.677 53.98 47.7149V54.3799C53.98 56.4178 55.6321 58.0699 57.6701 58.0699L179.735 58.0699C181.773 58.0699 183.425 56.4178 183.425 54.3799Z" fill="#00677D"/>
<path opacity="0.5" d="M183.425 54.3799V47.7149C183.425 45.677 181.773 44.0249 179.735 44.0249L57.6701 44.0249C55.6321 44.0249 53.98 45.677 53.98 47.7149V54.3799C53.98 56.4178 55.6321 58.0699 57.6701 58.0699L179.735 58.0699C181.773 58.0699 183.425 56.4178 183.425 54.3799Z" fill="white"/>
<path d="M160.33 60.42V55.585H125.205V60.42H160.33Z" fill="#00677D"/>
<path opacity="0.5" d="M160.33 60.42V55.585H125.205V60.42H160.33Z" fill="white"/>
<path d="M196.02 33.6299V26.9649C196.02 24.927 194.368 23.2749 192.33 23.2749L70.265 23.2749C68.2271 23.2749 66.575 24.927 66.575 26.9649V33.6299C66.575 35.6678 68.2271 37.3199 70.265 37.3199L192.33 37.3199C194.368 37.3199 196.02 35.6678 196.02 33.6299Z" fill="#00677D"/>
<path d="M65.18 97.1299C64.74 98.1299 64.255 99.2099 63.83 100.265C63.405 101.32 62.965 102.405 62.58 103.485C61.7901 105.59 61.1567 107.751 60.685 109.95L60.54 110.75L60.49 111.05C60.49 111.135 60.49 111.245 60.46 111.345C60.441 111.832 60.4511 112.319 60.49 112.805C60.585 113.86 60.755 114.99 60.99 116.12C61.41 118.385 61.945 120.72 62.49 123.02L59.925 124.02C58.7294 121.84 57.7111 119.568 56.88 117.225C56.4422 116.005 56.0881 114.758 55.82 113.49C55.6699 112.789 55.5762 112.076 55.54 111.36C55.54 111.16 55.54 110.97 55.54 110.755C55.54 110.54 55.54 110.3 55.575 110.16L55.675 109.16C55.8244 107.872 56.0532 106.595 56.36 105.335C56.64 104.085 57 102.87 57.36 101.67C57.72 100.47 58.17 99.2899 58.645 98.1299C58.88 97.5499 59.145 96.9749 59.375 96.3999C59.605 95.8249 59.875 95.2749 60.195 94.6599L65.18 97.1299Z" fill="#E4897B"/>
<path d="M62.355 122.345L64.305 124.25L60.05 126.25C60.05 126.25 59.02 124.445 59.735 122.815L62.355 122.345Z" fill="#E4897B"/>
<path d="M65.8801 127.085L62.2851 128.555L60.0551 126.23L64.3051 124.25L65.8801 127.085Z" fill="#E4897B"/>
<path opacity="0.4" d="M138.705 125.035C131.63 124.241 124.95 121.367 119.509 116.776C114.067 112.186 110.109 106.085 108.135 99.2457C106.16 92.4061 106.257 85.1346 108.415 78.3503C110.572 71.5661 114.692 65.5738 120.255 61.1309C125.817 56.6881 132.572 53.9942 139.665 53.3898C146.759 52.7854 153.872 54.2976 160.106 57.7353C166.34 61.173 171.415 66.3818 174.689 72.7032C177.963 79.0246 179.289 86.1749 178.5 93.25C177.976 97.9507 176.53 102.502 174.246 106.644C171.962 110.786 168.885 114.437 165.189 117.389C161.493 120.34 157.252 122.535 152.708 123.847C148.164 125.159 143.405 125.563 138.705 125.035Z" fill="#FAFAFA"/>
<path opacity="0.4" d="M164.895 60.895L110.145 104.64C109.915 104.14 109.69 103.64 109.48 103.14C108.107 99.8751 107.229 96.4239 106.875 92.9L154.165 55.115C158.048 56.4101 161.677 58.3654 164.895 60.895Z" fill="#FAFAFA"/>
<path opacity="0.4" d="M177.53 80.06L126.055 121.185C121.165 118.636 116.927 114.995 113.67 110.545L169.875 65.635C173.498 69.7935 176.117 74.7288 177.53 80.06Z" fill="#FAFAFA"/>
<path d="M102.195 75.5L101.72 75.34C102.543 72.9126 103.577 70.5619 104.81 68.3151L105.245 68.555C104.028 70.7767 103.007 73.1006 102.195 75.5ZM108.265 63.8301L107.86 63.535C111.969 57.979 117.347 53.4858 123.545 50.43L123.77 50.8801C117.642 53.9042 112.326 58.3494 108.265 63.8451V63.8301ZM163.06 51.565C161.426 50.6887 159.736 49.922 158 49.2701L158.18 48.8C159.933 49.4673 161.64 50.249 163.29 51.14L163.06 51.565Z" fill="#00677D"/>
<path opacity="0.3" d="M102.195 75.5L101.72 75.34C102.543 72.9126 103.577 70.5619 104.81 68.3151L105.245 68.555C104.028 70.7767 103.007 73.1006 102.195 75.5ZM108.265 63.8301L107.86 63.535C111.969 57.979 117.347 53.4858 123.545 50.43L123.77 50.8801C117.642 53.9042 112.326 58.3494 108.265 63.8451V63.8301ZM163.06 51.565C161.426 50.6887 159.736 49.922 158 49.2701L158.18 48.8C159.933 49.4673 161.64 50.249 163.29 51.14L163.06 51.565Z" fill="black"/>
<path d="M179.935 70.8699C175.305 61.2676 167.158 53.8151 157.182 50.0575C147.206 46.2998 136.166 46.5252 126.352 50.6869C116.538 54.8486 108.701 62.6274 104.467 72.4107C100.233 82.194 99.9262 93.2315 103.61 103.235C100.27 104.405 96.97 105.66 93.69 106.955C88.96 108.832 84.2733 110.792 79.63 112.835C74.99 114.89 70.37 116.985 65.795 119.175C63.5 120.25 61.235 121.385 58.95 122.485C57.7613 122.996 56.6843 123.735 55.78 124.66C55.2907 125.172 54.8597 125.737 54.495 126.345C54.0501 127.063 53.7131 127.843 53.495 128.66C53.1188 130.131 53.2815 131.689 53.9537 133.051C54.6259 134.412 55.7632 135.489 57.16 136.085C57.9357 136.41 58.754 136.622 59.59 136.715C60.2961 136.795 61.0089 136.795 61.715 136.715C62.9981 136.559 64.2382 136.153 65.365 135.52C67.63 134.375 69.91 133.27 72.16 132.095C76.66 129.8 81.16 127.405 85.605 124.975C90.05 122.545 94.5 120 98.84 117.39C101.84 115.575 104.87 113.72 107.84 111.78C113.543 120.783 122.491 127.247 132.831 129.833C143.17 132.418 154.108 130.927 163.377 125.667C172.647 120.408 179.538 111.784 182.622 101.583C185.707 91.3811 184.748 80.384 179.945 70.8699H179.935ZM157.205 118.635C151.394 121.503 144.864 122.584 138.439 121.741C132.014 120.897 125.983 118.168 121.11 113.897C116.236 109.627 112.738 104.007 111.058 97.7488C109.378 91.4903 109.591 84.8743 111.671 78.7372C113.751 72.6001 117.604 67.2176 122.743 63.2702C127.882 59.3228 134.076 56.9878 140.542 56.5605C147.008 56.1332 153.455 57.6327 159.069 60.8695C164.683 64.1063 169.21 68.935 172.08 74.7449C173.986 78.6034 175.113 82.7995 175.396 87.0935C175.68 91.3876 175.115 95.6955 173.734 99.7712C172.353 103.847 170.182 107.611 167.346 110.847C164.51 114.084 161.064 116.73 157.205 118.635Z" fill="#00677D"/>
<path opacity="0.3" d="M179.935 70.8699C175.305 61.2676 167.158 53.8151 157.182 50.0575C147.206 46.2998 136.166 46.5252 126.352 50.6869C116.538 54.8486 108.701 62.6274 104.467 72.4107C100.233 82.194 99.9262 93.2315 103.61 103.235C100.27 104.405 96.97 105.66 93.69 106.955C88.96 108.832 84.2733 110.792 79.63 112.835C74.99 114.89 70.37 116.985 65.795 119.175C63.5 120.25 61.235 121.385 58.95 122.485C57.7613 122.996 56.6843 123.735 55.78 124.66C55.2907 125.172 54.8597 125.737 54.495 126.345C54.0501 127.063 53.7131 127.843 53.495 128.66C53.1188 130.131 53.2815 131.689 53.9537 133.051C54.6259 134.412 55.7632 135.489 57.16 136.085C57.9357 136.41 58.754 136.622 59.59 136.715C60.2961 136.795 61.0089 136.795 61.715 136.715C62.9981 136.559 64.2382 136.153 65.365 135.52C67.63 134.375 69.91 133.27 72.16 132.095C76.66 129.8 81.16 127.405 85.605 124.975C90.05 122.545 94.5 120 98.84 117.39C101.84 115.575 104.87 113.72 107.84 111.78C113.543 120.783 122.491 127.247 132.831 129.833C143.17 132.418 154.108 130.927 163.377 125.667C172.647 120.408 179.538 111.784 182.622 101.583C185.707 91.3811 184.748 80.384 179.945 70.8699H179.935ZM157.205 118.635C151.394 121.503 144.864 122.584 138.439 121.741C132.014 120.897 125.983 118.168 121.11 113.897C116.236 109.627 112.738 104.007 111.058 97.7488C109.378 91.4903 109.591 84.8743 111.671 78.7372C113.751 72.6001 117.604 67.2176 122.743 63.2702C127.882 59.3228 134.076 56.9878 140.542 56.5605C147.008 56.1332 153.455 57.6327 159.069 60.8695C164.683 64.1063 169.21 68.935 172.08 74.7449C173.986 78.6034 175.113 82.7995 175.396 87.0935C175.68 91.3876 175.115 95.6955 173.734 99.7712C172.353 103.847 170.182 107.611 167.346 110.847C164.51 114.084 161.064 116.73 157.205 118.635Z" fill="black"/>
<path d="M79 79.275C79 79.57 79.155 79.81 79.35 79.81C79.545 79.81 79.7 79.57 79.7 79.275C79.7 78.98 79.545 78.74 79.35 78.74C79.155 78.74 79 79 79 79.275Z" fill="#263238"/>
<path d="M79.14 79.8101C79.4939 80.7156 79.97 81.5685 80.555 82.3451C80.3528 82.4898 80.1213 82.5884 79.8769 82.6342C79.6324 82.68 79.3809 82.6718 79.14 82.6101V79.8101Z" fill="#DE5753"/>
<path d="M77.965 77.6298C77.9372 77.6298 77.9096 77.6236 77.8845 77.6114C77.8594 77.5993 77.8374 77.5817 77.82 77.5598C77.794 77.5217 77.7836 77.4749 77.791 77.4293C77.7985 77.3837 77.8232 77.3427 77.86 77.3148C78.0802 77.1478 78.3376 77.0365 78.61 76.9904C78.8825 76.9442 79.1621 76.9646 79.425 77.0498C79.4487 77.0563 79.4707 77.0676 79.4896 77.083C79.5086 77.0985 79.5241 77.1178 79.5352 77.1396C79.5462 77.1614 79.5526 77.1853 79.5538 77.2098C79.5551 77.2342 79.5512 77.2587 79.5424 77.2815C79.5336 77.3043 79.5201 77.3251 79.5028 77.3424C79.4855 77.3597 79.4648 77.3732 79.4419 77.382C79.4191 77.3908 79.3947 77.3947 79.3702 77.3935C79.3458 77.3922 79.3219 77.3859 79.3 77.3748C79.0912 77.3108 78.87 77.2978 78.6551 77.3369C78.4402 77.3761 78.2379 77.4662 78.065 77.5998C78.0354 77.6195 78.0006 77.6299 77.965 77.6298Z" fill="#263238"/>
<path d="M68.9001 81.5C69.4001 84.185 69.9501 89.11 68.0701 90.905C68.0701 90.905 68.8051 93.63 73.8001 93.63C79.3001 93.63 76.4201 90.905 76.4201 90.905C73.4201 90.185 73.5051 87.965 74.0251 85.875L68.9001 81.5Z" fill="#E4897B"/>
<path d="M65.825 92.32C66.42 91.395 65.42 89.15 65.42 89.15C65.42 89.15 74.26 86.925 77.875 90.34C78.625 91.045 77.795 92.085 77.795 92.085L65.825 92.32Z" fill="#00677D"/>
<path opacity="0.1" d="M65.825 92.32C66.42 91.395 65.42 89.15 65.42 89.15C65.42 89.15 74.26 86.925 77.875 90.34C78.625 91.045 77.795 92.085 77.795 92.085L65.825 92.32Z" fill="black"/>
<path d="M51.2 194.335C50.735 194.335 49.99 193.56 49.77 193.27C49.7605 193.256 49.7555 193.239 49.7555 193.222C49.7555 193.205 49.7605 193.189 49.77 193.175C49.7781 193.161 49.7898 193.149 49.8038 193.141C49.8179 193.134 49.8339 193.13 49.85 193.13C49.905 193.13 51.13 193.24 51.465 193.675C51.5014 193.721 51.5274 193.774 51.5413 193.831C51.5551 193.888 51.5563 193.947 51.545 194.005C51.5407 194.079 51.5133 194.151 51.4667 194.209C51.4202 194.267 51.3567 194.309 51.285 194.33L51.2 194.335ZM50.04 193.335C50.405 193.755 50.99 194.23 51.24 194.17C51.24 194.17 51.34 194.145 51.37 193.985C51.3766 193.952 51.3755 193.917 51.3668 193.884C51.3582 193.851 51.3422 193.821 51.32 193.795C50.9496 193.514 50.5039 193.351 50.04 193.325V193.335Z" fill="#00677D"/>
<path d="M50.0951 193.325C50.0053 193.334 49.9149 193.334 49.8251 193.325C49.8093 193.324 49.7942 193.318 49.7817 193.308C49.7693 193.298 49.76 193.285 49.7551 193.27C49.748 193.256 49.7444 193.241 49.7444 193.225C49.7444 193.209 49.748 193.194 49.7551 193.18C49.7901 193.15 50.5251 192.385 51.0801 192.385C51.1465 192.383 51.2125 192.396 51.2737 192.422C51.3349 192.448 51.3899 192.486 51.4351 192.535C51.4849 192.577 51.5189 192.634 51.5317 192.698C51.5444 192.761 51.535 192.827 51.5051 192.885C51.3601 193.165 50.5951 193.325 50.0951 193.325ZM50.0301 193.15C50.5301 193.15 51.2551 192.995 51.3751 192.775C51.3751 192.775 51.4101 192.71 51.3301 192.63C51.301 192.598 51.2653 192.573 51.2256 192.557C51.1859 192.541 51.143 192.533 51.1001 192.535C50.6902 192.629 50.3177 192.843 50.0301 193.15Z" fill="#00677D"/>
<path d="M84.1951 205.685C83.8161 205.682 83.438 205.647 83.0651 205.58C83.0465 205.577 83.0299 205.567 83.018 205.552C83.0061 205.537 82.9997 205.519 83.0001 205.5C82.9973 205.483 82.9996 205.465 83.0067 205.449C83.0138 205.433 83.0254 205.42 83.0401 205.41C83.0951 205.38 84.3751 204.645 84.9901 204.815C85.0471 204.828 85.1009 204.852 85.1482 204.887C85.1955 204.921 85.2352 204.965 85.2651 205.015C85.3042 205.071 85.3252 205.137 85.3252 205.205C85.3252 205.273 85.3042 205.339 85.2651 205.395C85.1201 205.62 84.6651 205.685 84.1951 205.685ZM83.3501 205.45C84.0301 205.55 84.9601 205.545 85.1301 205.305C85.1551 205.275 85.1751 205.22 85.1301 205.115C85.0919 205.053 85.0309 205.008 84.9601 204.99C84.5701 204.89 83.7951 205.22 83.3501 205.45Z" fill="#00677D"/>
<path d="M83.085 205.585C83.0687 205.59 83.0513 205.59 83.035 205.585C83.0211 205.576 83.0103 205.563 83.0041 205.548C82.9978 205.533 82.9964 205.516 83 205.5C83.0339 204.979 83.2336 204.484 83.57 204.085C83.638 204.026 83.7179 203.983 83.8042 203.958C83.8905 203.933 83.9811 203.927 84.07 203.94C84.31 203.94 84.38 204.085 84.395 204.18C84.46 204.595 83.585 205.39 83.14 205.59L83.085 205.585ZM83.98 204.085C83.87 204.084 83.7634 204.123 83.68 204.195C83.3973 204.511 83.2222 204.908 83.18 205.33C83.63 205.055 84.23 204.435 84.18 204.185C84.18 204.185 84.18 204.1 84.01 204.085H83.98Z" fill="#00677D"/>
<path d="M79.045 205.495H82.72L83.085 196.99H79.41L79.045 205.495Z" fill="#E4897B"/>
<path d="M46.3201 190.895L49.3901 192.905L56.1701 187.18L53.0951 185.165L46.3201 190.895Z" fill="#E4897B"/>
<path d="M49.895 192.715L46.705 190.1C46.6487 190.054 46.578 190.028 46.505 190.028C46.4321 190.028 46.3614 190.054 46.305 190.1L43.675 192.165C43.6115 192.216 43.5602 192.28 43.5249 192.353C43.4896 192.426 43.4713 192.506 43.4713 192.587C43.4713 192.669 43.4896 192.749 43.5249 192.822C43.5602 192.895 43.6115 192.959 43.675 193.01C44.805 193.905 45.4 194.285 46.805 195.435C47.67 196.14 49.805 198.3 51.01 199.275C52.215 200.25 53.32 199.2 52.92 198.695C51.125 196.42 50.42 194.475 50.215 193.27C50.1796 193.052 50.0658 192.855 49.895 192.715Z" fill="#263238"/>
<path d="M82.695 205.07H78.695C78.6221 205.07 78.5513 205.095 78.4942 205.14C78.4371 205.186 78.3968 205.249 78.38 205.32L77.655 208.585C77.6368 208.664 77.6368 208.746 77.6551 208.825C77.6734 208.904 77.7094 208.978 77.7605 209.041C77.8115 209.105 77.8763 209.155 77.9498 209.19C78.0234 209.224 78.1038 209.241 78.185 209.24C79.63 209.215 81.72 209.13 83.54 209.13C85.665 209.13 87.505 209.245 89.995 209.245C91.495 209.245 91.925 207.72 91.29 207.585C88.42 206.955 86.07 206.89 83.59 205.355C83.3239 205.179 83.014 205.08 82.695 205.07Z" fill="#263238"/>
<path d="M60.8301 91.9999C57.6451 93.4999 55.8301 103.55 55.8301 103.55L63.6151 106.655C64.7546 103.872 65.6757 101.005 66.3701 98.0799C67.4401 93.4499 64.0901 90.4499 60.8301 91.9999Z" fill="#263238"/>
<path d="M64.96 97.6648C63.035 99.6148 62.155 103.435 61.77 105.92L63.635 106.665C64.7422 103.961 65.6447 101.178 66.335 98.3398C66.17 97.2798 65.76 96.8548 64.96 97.6648Z" fill="#203048"/>
<path d="M82.07 91.9299C82.07 91.9299 85.98 96.3499 82.29 123.68H62.645C62.51 120.68 64.405 105.955 61.495 91.7449C63.666 91.3239 65.8625 91.0466 68.07 90.9149C70.8509 90.7497 73.6391 90.7497 76.42 90.9149C78.3267 91.1067 80.2157 91.4461 82.07 91.9299Z" fill="#263238"/>
<path d="M83.865 102.54L80.555 96.835C79.916 99.4968 79.6551 102.235 79.78 104.97C79.87 106.93 81.665 114.19 83.28 115.25C83.7085 111.027 83.9038 106.784 83.865 102.54Z" fill="#203048"/>
<path d="M84.325 95.835C84.825 98.265 85.325 100.755 85.86 103.195C86.395 105.635 86.95 108.085 87.595 110.45C87.76 111.035 87.915 111.635 88.095 112.195L88.23 112.625L88.295 112.84V112.815C88.26 112.77 88.22 112.765 88.25 112.815C88.4555 113.039 88.7182 113.204 89.01 113.29C89.4827 113.466 89.9694 113.601 90.465 113.695C92.8289 114.07 95.2224 114.225 97.615 114.16L98.09 116.88C97.42 117.095 96.795 117.25 96.135 117.405C95.475 117.56 94.825 117.69 94.16 117.79C92.7841 118.019 91.3891 118.113 89.995 118.07C89.2201 118.049 88.4493 117.949 87.695 117.77C86.7358 117.56 85.8345 117.142 85.055 116.545C84.5459 116.134 84.1257 115.624 83.82 115.045C83.74 114.895 83.67 114.725 83.605 114.58L83.515 114.345L83.33 113.845C83.075 113.21 82.865 112.585 82.635 111.96C81.79 109.46 81.085 106.935 80.465 104.415C79.845 101.895 79.31 99.38 78.865 96.795L84.325 95.835Z" fill="#E4897B"/>
<path d="M77.165 94.61C76.13 97.965 80.325 107.97 80.325 107.97L88.68 105.87C88.68 105.87 88.36 100.67 86.455 96.545C83.585 90.325 78.405 90.585 77.165 94.61Z" fill="#263238"/>
<path d="M97.545 114.16L101.705 114.055L99.705 118.385C99.705 118.385 98.01 118.61 96.62 116.325L95.155 114.575L96.84 114.24C97.072 114.191 97.308 114.164 97.545 114.16Z" fill="#E4897B"/>
<path d="M104.33 114.86L101.95 118.45L99.7051 118.385L101.705 114.055L104.33 114.86Z" fill="#E4897B"/>
<path d="M83.085 196.99L82.895 201.375H79.22L79.41 196.99H83.085Z" fill="#CE6F64"/>
<path d="M53.095 185.165L56.17 187.18L52.67 190.13L49.6 188.12L53.095 185.165Z" fill="#CE6F64"/>
<path d="M69.13 78.64C69.35 82.275 69.295 84.42 71.13 86.285C73.89 89.1 78.385 87.435 79.255 83.785C80.04 80.515 79.55 75.115 75.99 73.665C75.2045 73.3479 74.3513 73.2356 73.5105 73.3386C72.6697 73.4416 71.8689 73.7566 71.1831 74.2539C70.4974 74.7512 69.9492 75.4146 69.5901 76.1818C69.231 76.949 69.0727 77.7948 69.13 78.64Z" fill="#E4897B"/>
<path d="M64.85 77.9998C65.755 81.3148 67.885 85.1348 70.64 85.3798C74.06 85.6798 75.605 82.1448 76.055 78.4948C78.105 77.0898 77.03 75.5448 79.085 75.3498C81.725 75.0998 80.88 70.2698 77.405 69.4948C77.405 69.4948 78.57 71.6698 76.125 70.5698C73.7998 69.4648 71.2165 69.0169 68.655 69.2748C68.655 69.2748 71.775 70.8348 68.725 71.5298C65.675 72.2248 64.765 74.1048 66.17 75.2398C66.17 75.2448 64.255 75.8198 64.85 77.9998Z" fill="#263238"/>
<path d="M73.97 79.2449C74.0371 80.1485 74.401 81.0045 75.005 81.6799C75.805 82.5649 76.64 82.0149 76.78 80.9399C76.91 79.9749 76.645 78.3499 75.665 77.8599C74.685 77.3699 73.905 78.1549 73.97 79.2449Z" fill="#E4897B"/>
<path d="M75.32 123.68C75.32 123.68 78.9 149.605 76.08 159.995C71.61 176.445 54.52 190.33 54.52 190.33L48.725 186.53C48.725 186.53 63.28 174.805 65.06 161.03C66.66 148.665 62.645 133.71 62.645 123.675L75.32 123.68Z" fill="#00677D"/>
<path opacity="0.1" d="M75.32 123.68C75.32 123.68 78.9 149.605 76.08 159.995C71.61 176.445 54.52 190.33 54.52 190.33L48.725 186.53C48.725 186.53 63.28 174.805 65.06 161.03C66.66 148.665 62.645 133.71 62.645 123.675L75.32 123.68Z" fill="black"/>
<path d="M76.8 138.5C75.847 137.408 74.7978 136.404 73.665 135.5C74.275 143.915 74.775 156.38 74.22 165.235C74.9663 163.537 75.5879 161.788 76.08 160C77.455 154.925 77.31 146.16 76.8 138.5Z" fill="#00677D"/>
<path opacity="0.3" d="M76.8 138.5C75.847 137.408 74.7978 136.404 73.665 135.5C74.275 143.915 74.775 156.38 74.22 165.235C74.9663 163.537 75.5879 161.788 76.08 160C77.455 154.925 77.31 146.16 76.8 138.5Z" fill="black"/>
<path d="M56.855 189.035C56.88 189.035 54.61 190.535 54.61 190.535L48.28 186.385L50.28 184.73L56.855 189.035Z" fill="#00677D"/>
<path opacity="0.3" d="M56.855 189.035C56.88 189.035 54.61 190.535 54.61 190.535L48.28 186.385L50.28 184.73L56.855 189.035Z" fill="black"/>
<path d="M82.29 123.68C82.29 123.68 87.82 147.13 88.21 158.335C88.65 170.895 84.265 200.525 84.265 200.525H78.04C78.04 200.525 77.275 170.665 77 159.225C76.695 146.75 69.375 123.68 69.375 123.68H82.29Z" fill="#00677D"/>
<path opacity="0.1" d="M82.29 123.68C82.29 123.68 87.82 147.13 88.21 158.335C88.65 170.895 84.265 200.525 84.265 200.525H78.04C78.04 200.525 77.275 170.665 77 159.225C76.695 146.75 69.375 123.68 69.375 123.68H82.29Z" fill="black"/>
<path d="M85.46 198.05C85.49 198.05 85.11 200.63 85.11 200.63H77.54L77.335 198.325L85.46 198.05Z" fill="#00677D"/>
<path opacity="0.3" d="M85.46 198.05C85.49 198.05 85.11 200.63 85.11 200.63H77.54L77.335 198.325L85.46 198.05Z" fill="black"/>
<path d="M178 101.145C178.425 101.545 178.76 101.885 179.11 102.265C179.46 102.645 179.79 103.015 180.11 103.4C180.76 104.165 181.37 104.97 181.96 105.78C183.138 107.405 184.187 109.12 185.095 110.91L185.28 111.275C185.37 111.452 185.446 111.636 185.505 111.825C185.626 112.191 185.7 112.571 185.725 112.955C185.758 113.633 185.664 114.311 185.45 114.955C185.085 116.025 184.542 117.025 183.845 117.915C182.589 119.529 181.107 120.953 179.445 122.145L178.2 120.715C178.785 120.03 179.395 119.295 179.94 118.56C180.495 117.848 180.996 117.096 181.44 116.31C181.855 115.624 182.162 114.879 182.35 114.1C182.415 113.821 182.427 113.533 182.385 113.25C182.367 113.155 182.337 113.062 182.295 112.975C182.276 112.937 182.255 112.9 182.23 112.865L182.07 112.595C181.106 111.023 180.059 109.502 178.935 108.04C178.38 107.305 177.785 106.6 177.185 105.905C176.89 105.555 176.585 105.215 176.28 104.875C175.975 104.535 175.645 104.195 175.38 103.93L178 101.145Z" fill="#E4897B"/>
<path d="M178.68 120.295L174.945 119.685L176.9 122.955C176.9 122.955 179.305 122.87 179.99 121.455L178.68 120.295Z" fill="#E4897B"/>
<path d="M172.185 121.195L173.965 123.85L176.9 122.955L174.945 119.685L172.185 121.195Z" fill="#E4897B"/>
<path d="M178.5 205.64C178.246 205.662 177.993 205.593 177.785 205.445C177.722 205.386 177.676 205.312 177.651 205.229C177.625 205.147 177.622 205.059 177.64 204.975C177.644 204.921 177.662 204.87 177.693 204.826C177.724 204.782 177.766 204.747 177.815 204.725C178.25 204.53 179.39 205.26 179.52 205.345C179.535 205.354 179.546 205.368 179.553 205.384C179.559 205.4 179.56 205.418 179.555 205.435C179.553 205.452 179.546 205.468 179.534 205.481C179.522 205.493 179.507 205.502 179.49 205.505C179.166 205.587 178.834 205.633 178.5 205.64ZM178 204.865C177.964 204.859 177.926 204.859 177.89 204.865C177.868 204.875 177.849 204.892 177.836 204.912C177.823 204.932 177.816 204.956 177.815 204.98C177.802 205.036 177.803 205.094 177.819 205.149C177.835 205.205 177.864 205.255 177.905 205.295C178.095 205.465 178.585 205.49 179.24 205.36C178.865 205.112 178.443 204.944 178 204.865Z" fill="#00677D"/>
<path d="M179.5 205.5H179.455C179.1 205.295 178.415 204.5 178.5 204.065C178.516 203.997 178.554 203.935 178.608 203.89C178.662 203.845 178.73 203.819 178.8 203.815C178.868 203.805 178.936 203.811 179.001 203.832C179.066 203.853 179.126 203.888 179.175 203.935C179.585 204.295 179.59 205.375 179.59 205.435C179.589 205.45 179.585 205.465 179.577 205.478C179.569 205.491 179.558 205.502 179.545 205.51L179.5 205.5ZM178.86 204H178.82C178.71 204 178.685 204.06 178.675 204.105C178.625 204.36 179.05 204.97 179.405 205.255C179.414 204.836 179.293 204.424 179.06 204.075C179.03 204.047 178.995 204.026 178.956 204.013C178.917 204 178.876 203.996 178.835 204H178.86Z" fill="#00677D"/>
<path d="M161.46 205.64C161.141 205.67 160.821 205.589 160.555 205.41C160.495 205.357 160.449 205.29 160.42 205.215C160.391 205.14 160.381 205.06 160.39 204.98C160.393 204.931 160.409 204.884 160.435 204.843C160.461 204.802 160.497 204.768 160.54 204.745C161.005 204.485 162.495 205.245 162.665 205.34C162.681 205.35 162.693 205.364 162.701 205.381C162.709 205.398 162.712 205.417 162.71 205.435C162.707 205.453 162.699 205.469 162.686 205.481C162.674 205.494 162.658 205.502 162.64 205.505C162.252 205.588 161.857 205.633 161.46 205.64ZM160.795 204.865C160.738 204.861 160.681 204.873 160.63 204.9C160.612 204.909 160.597 204.922 160.586 204.939C160.576 204.956 160.57 204.975 160.57 204.995C160.562 205.047 160.567 205.1 160.585 205.15C160.602 205.2 160.631 205.244 160.67 205.28C160.9 205.485 161.515 205.52 162.345 205.38C161.861 205.122 161.337 204.948 160.795 204.865Z" fill="#00677D"/>
<path d="M162.625 205.5H162.585C162.14 205.3 161.255 204.5 161.325 204.065C161.325 203.965 161.415 203.84 161.66 203.815C161.749 203.805 161.84 203.814 161.926 203.841C162.012 203.868 162.092 203.911 162.16 203.97C162.63 204.36 162.72 205.37 162.72 205.415C162.722 205.43 162.72 205.446 162.714 205.46C162.707 205.474 162.697 205.486 162.685 205.495C162.666 205.503 162.645 205.505 162.625 205.5ZM161.73 204H161.675C161.515 204 161.505 204.08 161.5 204.1C161.46 204.355 162.06 204.99 162.5 205.265C162.457 204.838 162.282 204.434 162 204.11C161.924 204.045 161.829 204.007 161.73 204Z" fill="#00677D"/>
<path d="M168.535 89.6501C168.39 91.9101 168 96.5001 169.735 97.7701C169.735 97.7701 169.42 100.085 165.325 100.625C160.825 101.21 162.88 98.6701 162.88 98.6701C165.265 97.7601 164.96 95.9451 164.31 94.2851L168.535 89.6501Z" fill="#E4897B"/>
<path d="M159.22 85.655C159.195 85.6551 159.171 85.6497 159.148 85.6394C159.126 85.629 159.106 85.6139 159.09 85.595C158.947 85.4254 158.766 85.2918 158.562 85.2049C158.358 85.1181 158.136 85.0804 157.915 85.095C157.892 85.0993 157.868 85.0987 157.844 85.0934C157.821 85.0881 157.799 85.0781 157.78 85.0641C157.761 85.05 157.745 85.0322 157.733 85.0118C157.721 84.9913 157.713 84.9686 157.71 84.945C157.704 84.898 157.717 84.8506 157.746 84.8132C157.775 84.7757 157.818 84.7512 157.865 84.745C158.147 84.7211 158.431 84.766 158.692 84.8757C158.954 84.9854 159.184 85.1567 159.365 85.375C159.387 85.4011 159.401 85.4327 159.405 85.4663C159.409 85.4999 159.404 85.5341 159.39 85.5649C159.376 85.5958 159.354 85.622 159.325 85.6406C159.297 85.6591 159.264 85.6694 159.23 85.67L159.22 85.655Z" fill="#263238"/>
<path d="M158.44 87.8701C158.263 88.5873 157.988 89.2769 157.625 89.9201C157.792 90.0099 157.977 90.0619 158.166 90.0723C158.355 90.0826 158.544 90.0512 158.72 89.9801L158.44 87.8701Z" fill="#DE5753"/>
<path d="M158.64 87.3201C158.68 87.6201 158.555 87.8801 158.36 87.9101C158.165 87.9401 157.97 87.7101 157.935 87.4101C157.9 87.1101 158.02 86.8501 158.215 86.8251C158.41 86.8001 158.605 87.0001 158.64 87.3201Z" fill="#263238"/>
<path d="M158.305 86.8301L157.56 86.7151C157.56 86.7151 158 87.2301 158.305 86.8301Z" fill="#263238"/>
<path d="M166.745 205.42H162.995L162.745 196.745H166.495L166.745 205.42Z" fill="#E4897B"/>
<path d="M183.77 205.42H180.02L178.815 196.745H182.565L183.77 205.42Z" fill="#E4897B"/>
<path d="M179.79 205H184C184.072 204.999 184.141 205.025 184.196 205.072C184.25 205.119 184.285 205.184 184.295 205.255L184.795 208.59C184.804 208.674 184.795 208.759 184.769 208.84C184.743 208.92 184.701 208.994 184.644 209.057C184.587 209.12 184.518 209.17 184.441 209.204C184.363 209.238 184.28 209.256 184.195 209.255C182.73 209.23 182.02 209.145 180.17 209.145C179.03 209.145 177.365 209.26 175.795 209.26C174.225 209.26 174.14 207.705 174.795 207.565C177.73 206.935 178.195 206.065 179.18 205.23C179.352 205.087 179.567 205.006 179.79 205Z" fill="#263238"/>
<path d="M162.87 205H167.075C167.147 204.999 167.218 205.025 167.273 205.071C167.328 205.118 167.364 205.183 167.375 205.255L167.875 208.59C167.884 208.674 167.875 208.759 167.849 208.84C167.823 208.92 167.781 208.994 167.724 209.057C167.667 209.12 167.598 209.17 167.521 209.204C167.443 209.238 167.36 209.256 167.275 209.255C165.81 209.23 165.1 209.145 163.25 209.145C162.11 209.145 159.75 209.26 158.18 209.26C156.61 209.26 156.525 207.705 157.18 207.565C160.115 206.935 161.27 206.065 162.26 205.23C162.432 205.087 162.647 205.006 162.87 205Z" fill="#263238"/>
<path d="M162.745 196.745L162.875 201.22H166.625L166.495 196.745H162.745Z" fill="#CE6F64"/>
<path d="M182.565 196.745H178.815L179.44 201.22H183.185L182.565 196.745Z" fill="#CE6F64"/>
<path d="M168.585 84.9701C168.84 88.6801 169.025 90.2451 167.415 92.3801C164.99 95.5851 160.38 95.0901 159.02 91.5301C157.795 88.3251 157.585 82.8001 160.995 80.8601C161.745 80.4302 162.593 80.199 163.457 80.1886C164.322 80.1782 165.175 80.3888 165.935 80.8005C166.695 81.2122 167.338 81.8114 167.802 82.5411C168.265 83.2708 168.535 84.1069 168.585 84.9701Z" fill="#E4897B"/>
<path d="M170.745 88.4151C172.825 89.5751 174.37 86.7151 174.37 86.7151C174.37 86.7151 170.64 87.1201 170.975 84.9001C171.415 81.9551 169.305 78.3751 164.015 78.8351C163.72 78.8601 163.44 78.8951 163.165 78.9401C162.611 78.6776 161.985 78.6098 161.388 78.7478C160.791 78.8857 160.258 79.2213 159.875 79.7001C158.375 79.8251 156.35 81.6151 157.725 83.9801C157.821 83.7084 157.971 83.4585 158.165 83.2451C158.28 84.6301 159.49 86.8301 161 86.9751C161.325 88.8701 160.065 91.0651 160.5 93.0451C161.145 95.9001 165.96 96.5451 165.96 96.5451C165.794 96.1886 165.732 95.7923 165.782 95.4022C165.831 95.012 165.99 94.6438 166.24 94.3401C169.51 95.8401 171.665 94.3751 171.665 94.3751C169.435 93.5451 170.11 92.0651 170.11 92.0651C170.88 92.407 171.752 92.437 172.544 92.1489C173.336 91.8608 173.985 91.2769 174.355 90.5201C173.614 90.5553 172.879 90.3752 172.239 90.0017C171.598 89.6281 171.079 89.0771 170.745 88.4151Z" fill="#263238"/>
<path d="M162.305 87.545C162.314 87.9011 162.252 88.2554 162.123 88.5875C161.995 88.9196 161.801 89.2229 161.555 89.48C160.895 90.165 160.085 89.685 159.865 88.81C159.67 88.02 159.78 86.715 160.64 86.355C160.829 86.2807 161.034 86.2548 161.236 86.2797C161.438 86.3047 161.63 86.3797 161.796 86.498C161.961 86.6162 162.094 86.7739 162.183 86.9568C162.272 87.1397 162.314 87.3419 162.305 87.545Z" fill="#E4897B"/>
<path d="M165.42 122.11C165.42 122.11 166.37 146.79 168.63 161.28C170.45 172.99 178.535 200.35 178.535 200.35H183.645C183.645 200.35 179.43 173.925 178.505 162.35C176.165 133.055 182.24 126.765 176.505 120.665L165.42 122.11Z" fill="#263238"/>
<path d="M169.69 129.915C169.69 129.915 167.38 129.515 166.03 133.915C166.53 142.25 167.385 153.31 168.63 161.28C168.905 163.055 169.325 165.195 169.84 167.54C168.865 153.46 169.69 129.915 169.69 129.915Z" fill="#161F33"/>
<path d="M161.435 122.63C161.435 122.63 157.225 149.935 157.47 161.36C157.725 173.245 162.08 200.36 162.08 200.36H167.145C167.145 200.36 166.345 173.95 166.79 162.28C167.29 149.555 172.485 121.195 172.485 121.195L161.435 122.63Z" fill="#263238"/>
<path d="M184.385 200.59H177.59L177.06 198.31L184.335 198.36L184.385 200.59Z" fill="#00677D"/>
<path opacity="0.2" d="M184.385 200.59H177.59L177.06 198.31L184.335 198.36L184.385 200.59Z" fill="black"/>
<path d="M176.25 97.7751C178.205 97.9651 181.175 103.52 181.175 103.52L176.24 107.305C176.24 107.305 172.155 103.72 172.64 101.705C173.145 99.6101 174.375 97.6001 176.25 97.7751Z" fill="#00677D"/>
<path opacity="0.1" d="M176.25 97.7751C178.205 97.9651 181.175 103.52 181.175 103.52L176.24 107.305C176.24 107.305 172.155 103.72 172.64 101.705C173.145 99.6101 174.375 97.6001 176.25 97.7751Z" fill="black"/>
<path d="M174.775 100.165C174.277 100.031 173.761 99.9735 173.245 99.9952C172.983 100.542 172.78 101.115 172.64 101.705C172.14 103.705 176.24 107.305 176.24 107.305L176.605 107.025L174.775 100.165Z" fill="#00677D"/>
<path opacity="0.3" d="M174.775 100.165C174.277 100.031 173.761 99.9735 173.245 99.9952C172.983 100.542 172.78 101.115 172.64 101.705C172.14 103.705 176.24 107.305 176.24 107.305L176.605 107.025L174.775 100.165Z" fill="black"/>
<path d="M159.76 105.5C158.335 109.105 156.835 112.77 155.64 116.385C155.56 116.615 155.495 116.835 155.425 117.06L155.255 117.615C155.209 117.778 155.209 117.952 155.255 118.115C155.537 118.74 155.985 119.276 156.55 119.665C158.045 120.738 159.674 121.61 161.395 122.26L160.945 124.1C158.828 123.821 156.78 123.153 154.905 122.13C153.751 121.514 152.811 120.562 152.21 119.4C151.865 118.658 151.745 117.83 151.865 117.02C151.876 116.921 151.893 116.822 151.915 116.725L151.965 116.515L152.05 116.135C152.11 115.88 152.17 115.635 152.235 115.385C152.735 113.385 153.375 111.485 154.05 109.6C154.725 107.715 155.43 105.855 156.225 104L159.76 105.5Z" fill="#E4897B"/>
<path d="M156.725 100.44C156.725 100.44 155.035 101.295 161.435 122.63L176.525 120.66C175.465 114.55 174.965 110.765 176.25 97.7752C174.086 97.6202 171.914 97.6202 169.75 97.7752C167.446 97.9091 165.155 98.2099 162.895 98.6752C160 99.3202 156.725 100.44 156.725 100.44Z" fill="#00677D"/>
<path opacity="0.1" d="M156.725 100.44C156.725 100.44 155.035 101.295 161.435 122.63L176.525 120.66C175.465 114.55 174.965 110.765 176.25 97.7752C174.086 97.6202 171.914 97.6202 169.75 97.7752C167.446 97.9091 165.155 98.2099 162.895 98.6752C160 99.3202 156.725 100.44 156.725 100.44Z" fill="black"/>
<path d="M176.635 119.745L177.5 121C177.565 121.1 177.455 121.22 177.285 121.245L161.46 123.315C161.325 123.315 161.2 123.28 161.18 123.195L160.87 121.86C160.845 121.77 160.955 121.675 161.105 121.655L176.385 119.655C176.431 119.648 176.478 119.652 176.522 119.668C176.565 119.684 176.604 119.71 176.635 119.745Z" fill="#00677D"/>
<path opacity="0.2" d="M176.635 119.745L177.5 121C177.565 121.1 177.455 121.22 177.285 121.245L161.46 123.315C161.325 123.315 161.2 123.28 161.18 123.195L160.87 121.86C160.845 121.77 160.955 121.675 161.105 121.655L176.385 119.655C176.431 119.648 176.478 119.652 176.522 119.668C176.565 119.684 176.604 119.71 176.635 119.745Z" fill="black"/>
<path d="M174.805 121.72L175.215 121.665C175.295 121.665 175.35 121.605 175.34 121.555L174.92 119.825C174.904 119.796 174.879 119.772 174.848 119.76C174.817 119.747 174.782 119.745 174.75 119.755L174.34 119.805C174.255 119.805 174.2 119.865 174.215 119.92L174.635 121.645C174.645 121.7 174.725 121.73 174.805 121.72Z" fill="#263238"/>
<path d="M164.885 123L165.295 122.945C165.375 122.945 165.435 122.885 165.42 122.835L165 121.105C164.984 121.076 164.958 121.053 164.928 121.039C164.897 121.026 164.863 121.023 164.83 121.03L164.42 121.085C164.34 121.085 164.28 121.145 164.295 121.195L164.715 122.925C164.725 123 164.805 123.03 164.885 123Z" fill="#263238"/>
<path d="M157.43 107.68C157.845 109.61 158.43 112.055 159.285 115.15L159.47 107.305L157.43 107.68Z" fill="#00677D"/>
<path opacity="0.3" d="M157.43 107.68C157.845 109.61 158.43 112.055 159.285 115.15L159.47 107.305L157.43 107.68Z" fill="black"/>
<path d="M156.725 100.44C154.85 101.195 153.225 107.61 153.225 107.61L159.675 110.75C159.675 110.75 162.79 102.905 161.395 101.375C160 99.8451 158.885 99.5751 156.725 100.44Z" fill="#00677D"/>
<path opacity="0.1" d="M156.725 100.44C154.85 101.195 153.225 107.61 153.225 107.61L159.675 110.75C159.675 110.75 162.79 102.905 161.395 101.375C160 99.8451 158.885 99.5751 156.725 100.44Z" fill="black"/>
<path d="M168.01 200.59H161.215L160.685 198.31L168.25 198.36L168.01 200.59Z" fill="#00677D"/>
<path opacity="0.2" d="M168.01 200.59H161.215L160.685 198.31L168.25 198.36L168.01 200.59Z" fill="black"/>
<path d="M161.5 121.64L160.955 121.415C160.821 121.361 160.675 121.343 160.532 121.363C160.389 121.383 160.253 121.441 160.14 121.53C160.026 121.619 159.938 121.737 159.884 121.872C159.831 122.006 159.814 122.152 159.835 122.295L160.23 124.9C160.249 125.031 160.297 125.155 160.37 125.265C160.443 125.374 160.539 125.467 160.652 125.535C160.765 125.602 160.891 125.645 161.023 125.658C161.154 125.671 161.286 125.654 161.41 125.61C161.608 125.538 161.794 125.435 161.96 125.305C162.141 125.155 162.284 124.965 162.378 124.749C162.472 124.534 162.513 124.3 162.5 124.065L162.445 122.985C162.436 122.693 162.341 122.411 162.173 122.172C162.005 121.933 161.771 121.748 161.5 121.64Z" fill="#E4897B"/>
</svg>
