<svg width="228" height="226" viewBox="0 0 228 226" fill="none" xmlns="http://www.w3.org/2000/svg">

<defs>
<linearGradient id="paint0_linear_1974_9245" x1="112.728" y1="48.0714" x2="114.38" y2="225.003" gradientUnits="userSpaceOnUse">
<stop stop-color="#00677D"/>
<stop offset="1" stop-color="#BC9EF3"/>
</linearGradient>
<linearGradient id="paint1_linear_1974_9245" x1="94.5979" y1="178.918" x2="102.875" y2="178.918" gradientUnits="userSpaceOnUse">
<stop stop-color="#444B8C"/>
<stop offset="1" stop-color="#3E4177"/>
</linearGradient>
<linearGradient id="paint2_linear_1974_9245" x1="94.1968" y1="161.366" x2="96.0304" y2="183.547" gradientUnits="userSpaceOnUse">
<stop stop-color="#FFC444"/>
<stop offset="1" stop-color="#F36F56"/>
</linearGradient>
<linearGradient id="paint3_linear_1974_9245" x1="98.1004" y1="178.269" x2="92.0511" y2="134.639" gradientUnits="userSpaceOnUse">
<stop stop-color="#444B8C"/>
<stop offset="1" stop-color="#3E4177"/>
</linearGradient>
<linearGradient id="paint4_linear_1974_9245" x1="81.9416" y1="145.856" x2="96.3123" y2="145.856" gradientUnits="userSpaceOnUse">
<stop stop-color="#444B8C"/>
<stop offset="1" stop-color="#3E4177"/>
</linearGradient>
<linearGradient id="paint5_linear_1974_9245" x1="59.5609" y1="177.356" x2="66.0301" y2="177.356" gradientUnits="userSpaceOnUse">
<stop stop-color="#444B8C"/>
<stop offset="1" stop-color="#3E4177"/>
</linearGradient>
<linearGradient id="paint6_linear_1974_9245" x1="61.682" y1="164.052" x2="63.5151" y2="186.233" gradientUnits="userSpaceOnUse">
<stop stop-color="#FFC444"/>
<stop offset="1" stop-color="#F36F56"/>
</linearGradient>
<linearGradient id="paint7_linear_1974_9245" x1="60.3142" y1="146.567" x2="90.909" y2="146.567" gradientUnits="userSpaceOnUse">
<stop stop-color="#444B8C"/>
<stop offset="1" stop-color="#3E4177"/>
</linearGradient>
<linearGradient id="paint8_linear_1974_9245" x1="102.381" y1="109.992" x2="70.4843" y2="80.4165" gradientUnits="userSpaceOnUse">
<stop stop-color="#E38DDD"/>
<stop offset="1" stop-color="#9571F6"/>
</linearGradient>
<linearGradient id="paint9_linear_1974_9245" x1="66.4173" y1="81.3247" x2="66.0507" y2="67.0255" gradientUnits="userSpaceOnUse">
<stop stop-color="#FFC444"/>
<stop offset="1" stop-color="#F36F56"/>
</linearGradient>
<linearGradient id="paint10_linear_1974_9245" x1="63.2893" y1="80.1506" x2="66.0552" y2="60.8432" gradientUnits="userSpaceOnUse">
<stop stop-color="#444B8C"/>
<stop offset="1" stop-color="#3E4177"/>
</linearGradient>
<linearGradient id="paint11_linear_1974_9245" x1="69.9073" y1="70.3321" x2="57.9" y2="62.6328" gradientUnits="userSpaceOnUse">
<stop stop-color="#FFC444"/>
<stop offset="1" stop-color="#F36F56"/>
</linearGradient>
<linearGradient id="paint12_linear_1974_9245" x1="59.7012" y1="104.515" x2="103.387" y2="104.515" gradientUnits="userSpaceOnUse">
<stop stop-color="#E38DDD"/>
<stop offset="1" stop-color="#9571F6"/>
</linearGradient>
<linearGradient id="paint13_linear_1974_9245" x1="108.1" y1="85.0487" x2="138.175" y2="85.0487" gradientUnits="userSpaceOnUse">
<stop stop-color="#FFC444"/>
<stop offset="1" stop-color="#F36F56"/>
</linearGradient>
<linearGradient id="paint14_linear_1974_9245" x1="94.3927" y1="44.2747" x2="115.088" y2="77.5471" gradientUnits="userSpaceOnUse">
<stop stop-color="#311944"/>
<stop offset="1" stop-color="#893976"/>
</linearGradient>
<linearGradient id="paint15_linear_1974_9245" x1="95.164" y1="43.657" x2="115.859" y2="76.9299" gradientUnits="userSpaceOnUse">
<stop stop-color="#FF9085"/>
<stop offset="1" stop-color="#FB6FBB"/>
</linearGradient>
<linearGradient id="paint16_linear_1974_9245" x1="98.6472" y1="73.3135" x2="96.7223" y2="95.7698" gradientUnits="userSpaceOnUse">
<stop stop-color="#FFC444"/>
<stop offset="1" stop-color="#F36F56"/>
</linearGradient>
<linearGradient id="paint17_linear_1974_9245" x1="82.672" y1="91.9309" x2="55.1167" y2="79.3119" gradientUnits="userSpaceOnUse">
<stop stop-color="#E38DDD"/>
<stop offset="1" stop-color="#9571F6"/>
</linearGradient>
<linearGradient id="paint18_linear_1974_9245" x1="118.496" y1="88.1118" x2="115.38" y2="71.5213" gradientUnits="userSpaceOnUse">
<stop stop-color="#311944"/>
<stop offset="1" stop-color="#A03976"/>
</linearGradient>
<linearGradient id="paint19_linear_1974_9245" x1="142.698" y1="79.0355" x2="166.437" y2="98.0086" gradientUnits="userSpaceOnUse">
<stop stop-color="#311944"/>
<stop offset="1" stop-color="#893976"/>
</linearGradient>
<linearGradient id="paint20_linear_1974_9245" x1="142.721" y1="170.147" x2="153.476" y2="182.857" gradientUnits="userSpaceOnUse">
<stop stop-color="#444B8C"/>
<stop offset="1" stop-color="#3E4177"/>
</linearGradient>
<linearGradient id="paint21_linear_1974_9245" x1="150.663" y1="171.544" x2="151.275" y2="180.221" gradientUnits="userSpaceOnUse">
<stop stop-color="#311944"/>
<stop offset="1" stop-color="#893976"/>
</linearGradient>
<linearGradient id="paint22_linear_1974_9245" x1="135.995" y1="175.838" x2="146.75" y2="188.548" gradientUnits="userSpaceOnUse">
<stop stop-color="#444B8C"/>
<stop offset="1" stop-color="#3E4177"/>
</linearGradient>
<linearGradient id="paint23_linear_1974_9245" x1="140.475" y1="172.261" x2="141.086" y2="180.938" gradientUnits="userSpaceOnUse">
<stop stop-color="#311944"/>
<stop offset="1" stop-color="#893976"/>
</linearGradient>
<linearGradient id="paint24_linear_1974_9245" x1="133.353" y1="144.483" x2="153.754" y2="144.483" gradientUnits="userSpaceOnUse">
<stop stop-color="#444B8C"/>
<stop offset="1" stop-color="#3E4177"/>
</linearGradient>
<linearGradient id="paint25_linear_1974_9245" x1="133.353" y1="144.483" x2="153.268" y2="144.483" gradientUnits="userSpaceOnUse">
<stop stop-color="#444B8C"/>
<stop offset="1" stop-color="#3E4177"/>
</linearGradient>
<linearGradient id="paint26_linear_1974_9245" x1="130.134" y1="145.495" x2="153.935" y2="145.495" gradientUnits="userSpaceOnUse">
<stop stop-color="#444B8C"/>
<stop offset="1" stop-color="#3E4177"/>
</linearGradient>
<linearGradient id="paint27_linear_1974_9245" x1="127.957" y1="98.8429" x2="168.407" y2="98.8429" gradientUnits="userSpaceOnUse">
<stop stop-color="#FFC444"/>
<stop offset="1" stop-color="#F36F56"/>
</linearGradient>
<linearGradient id="paint28_linear_1974_9245" x1="133.63" y1="75.1913" x2="143.988" y2="69.6003" gradientUnits="userSpaceOnUse">
<stop stop-color="#311944"/>
<stop offset="1" stop-color="#A03976"/>
</linearGradient>
<linearGradient id="paint29_linear_1974_9245" x1="127.957" y1="99.3601" x2="168.407" y2="99.3601" gradientUnits="userSpaceOnUse">
<stop stop-color="#FFC444"/>
<stop offset="1" stop-color="#F36F56"/>
</linearGradient>
<linearGradient id="paint30_linear_1974_9245" x1="148.258" y1="60.5913" x2="140.467" y2="65.541" gradientUnits="userSpaceOnUse">
<stop stop-color="#311944"/>
<stop offset="1" stop-color="#A03976"/>
</linearGradient>
<linearGradient id="paint31_linear_1974_9245" x1="118.073" y1="88.5542" x2="152.669" y2="88.5542" gradientUnits="userSpaceOnUse">
<stop stop-color="#FFC444"/>
<stop offset="1" stop-color="#F36F56"/>
</linearGradient>
<linearGradient id="paint32_linear_1974_9245" x1="95.4975" y1="49.5348" x2="81.7362" y2="37.7552" gradientUnits="userSpaceOnUse">
<stop stop-color="#FFC444"/>
<stop offset="1" stop-color="#F36F56"/>
</linearGradient>
<clipPath id="clip0_1974_9245">
<rect width="150" height="149.378" fill="white" transform="translate(39 38)"/>
</clipPath>
</defs>


<path d="M150.15 6.30712C173.45 15.3433 190.753 34.4861 204.259 55.5122C218.036 76.9606 231.144 101.255 227.33 126.46C223.607 151.063 202.145 167.784 184.601 185.43C168.424 201.7 152.559 220.61 129.934 224.419C107.869 228.133 88.1726 213.343 67.3439 205.168C45.9525 196.772 19.0677 195.438 6.71714 176.059C-5.6707 156.622 2.18127 131.372 5.80497 108.609C9.1429 87.642 14.4967 67.4432 26.7666 50.1161C40.0539 31.3525 56.3965 14.2627 78.0631 6.56969C101.275 -1.67213 127.185 -2.59953 150.15 6.30712Z" fill="#FD6F00"/>
<path d="M150.15 6.30712C173.45 15.3433 190.753 34.4861 204.259 55.5122C218.036 76.9606 231.144 101.255 227.33 126.46C223.607 151.063 202.145 167.784 184.601 185.43C168.424 201.7 152.559 220.61 129.934 224.419C107.869 228.133 88.1726 213.343 67.3439 205.168C45.9525 196.772 19.0677 195.438 6.71714 176.059C-5.6707 156.622 2.18127 131.372 5.80497 108.609C9.1429 87.642 14.4967 67.4432 26.7666 50.1161C40.0539 31.3525 56.3965 14.2627 78.0631 6.56969C101.275 -1.67213 127.185 -2.59953 150.15 6.30712Z" fill="url(#paint0_linear_1974_9245)"/>
<g clip-path="url(#clip0_1974_9245)">
<path d="M152.942 46.9783C157.98 54.1906 152.072 65.8826 159.548 71.3056C166.824 76.5872 175.766 67.9312 182.622 72.4761C192.794 79.2183 190.937 110.069 176.063 129.236C171.59 134.998 167.852 137.244 166.198 143.763C162.643 157.762 175.135 166.089 172.759 173.013C167.405 188.605 85.0853 201.684 52.0552 154.835C36.626 132.952 34.3203 101.356 48.1036 77.3575C73.0102 33.9936 141.638 30.798 152.942 46.9783Z" fill="#F4F7FA"/>
<path d="M95.8436 176.954C95.7009 176.924 95.5536 176.926 95.4115 176.958C95.2694 176.99 95.136 177.053 95.0204 177.142C94.9047 177.23 94.8095 177.343 94.7413 177.472C94.6731 177.601 94.6335 177.743 94.6251 177.888C94.5862 178.598 94.576 179.445 94.7115 179.791C94.9634 180.434 101.007 180.984 102.568 180.893C104.006 180.808 100.194 177.853 95.8436 176.954Z" fill="url(#paint1_linear_1974_9245)"/>
<path d="M96.3281 173.891L96.7842 177.15C96.8963 177.95 96.0907 178.585 95.347 178.26L95.316 178.246C95.1793 178.181 95.0587 178.086 94.963 177.969C94.8673 177.852 94.7989 177.715 94.7628 177.567L94.0095 174.64L96.3281 173.891Z" fill="url(#paint2_linear_1974_9245)"/>
<path d="M97.6918 113.845C98.9043 124.12 99.4692 134.461 99.3829 144.807C99.2955 155.214 98.5491 165.606 97.1481 175.92C96.6801 176.268 96.1265 176.484 95.546 176.543C94.9655 176.603 94.3797 176.504 93.8506 176.258C89.7502 168.116 89.5005 162.027 90.0991 157.886C90.4512 155.446 90.9372 154.797 91.0455 152.26C91.2946 146.432 89.0182 143.055 86.4175 136.668C82.73 127.617 80.8867 123.093 82.5678 119.619C83.2122 118.291 85.7895 114.156 97.6918 113.845Z" fill="url(#paint3_linear_1974_9245)"/>
<path style="mix-blend-mode:multiply" opacity="0.3" d="M93.5669 162.973C94.5037 156.348 97.3013 152.662 95.95 145.559C94.7614 139.308 91.8042 137.999 89.6255 131.351C88.431 127.706 87.4536 122.397 88.5425 115.212C84.2708 116.627 82.9941 118.737 82.5673 119.619C80.8863 123.093 82.7274 127.617 86.417 136.667C89.0199 143.055 91.2942 146.43 91.0451 152.26C90.9384 154.797 90.4508 155.446 90.0987 157.885C89.5001 162.027 89.7498 168.116 93.8502 176.258C94.0935 176.369 94.3493 176.45 94.612 176.5C93.0873 171.039 93.0633 166.537 93.5669 162.973Z" fill="url(#paint4_linear_1974_9245)"/>
<path d="M59.8271 175.729C59.6679 175.94 59.5758 176.195 59.5627 176.459C59.5495 176.723 59.616 176.985 59.7535 177.211C60.4396 178.34 62.0043 180.262 64.6083 180.781C68.3342 181.523 63.6768 178.795 62.6098 174.941C61.944 172.534 60.7277 174.536 59.8271 175.729Z" fill="url(#paint5_linear_1974_9245)"/>
<path d="M61.7705 171.053L60.7745 174.389C60.5867 175.017 61.0706 175.66 61.7252 175.623H61.7588C61.9096 175.61 62.0552 175.562 62.1835 175.482C62.3118 175.402 62.4192 175.292 62.4966 175.162L64.1963 172.35L61.7705 171.053Z" fill="url(#paint6_linear_1974_9245)"/>
<path d="M72.7606 119.069C71.0214 130.464 70.4815 137.01 70.3844 141.057C70.3615 142.005 70.3311 144.124 69.4551 146.698C68.0312 150.88 65.3968 153.249 64.2359 154.54C61.7419 157.318 59.4521 162.476 60.6343 172.946L63.5947 174.066C67.9565 167.274 72.3882 159.76 76.7015 151.518C82.0515 141.296 86.7955 130.768 90.909 119.989L72.7606 119.069Z" fill="url(#paint7_linear_1974_9245)"/>
<path d="M66.1608 75.0725C68.3167 74.0775 70.8076 72.7849 71.9354 72.0481C76.0817 69.3401 75.083 65.4462 78.9935 56.9241C81.2299 52.0512 84.0953 46.0051 88.8311 45.3447C90.3707 45.1313 92.4775 45.4327 93.0585 46.6101C93.9611 48.44 90.6956 51.4073 88.7089 53.8998C80.6164 64.0527 83.6349 79.0465 83.8509 80.2058C85.0379 86.5725 87.5502 85.338 94.724 98.106C100.081 107.64 106.162 118.464 102.016 125.164C100.042 128.353 96.3693 129.609 94.7603 130.16C88.806 132.195 86.5061 128.986 78.3533 129.793C71.6451 130.458 69.8425 132.964 66.6207 131.351C62.5747 129.324 61.7222 123.523 61.5797 122.552C60.9966 118.582 62.3266 116.631 63.4128 112.011C63.5323 111.502 65.5532 102.545 63.6881 93.1296C62.0193 84.7079 58.1344 80.4229 60.3879 77.7309C61.1636 76.8026 61.8235 77.0758 66.1608 75.0725Z" fill="url(#paint8_linear_1974_9245)"/>
<path d="M64.9752 67.9287L64.335 72.7104C64.1835 73.8401 63.8623 74.9405 63.3822 75.9743L62.5452 77.7775C62.5452 77.7775 66.6792 77.7898 69.8983 74.7446C69.959 74.6868 70.0001 74.6113 70.0157 74.5289C70.0313 74.4465 70.0207 74.3613 69.9854 74.2852C69.9501 74.2091 69.8918 74.146 69.8187 74.1048C69.7457 74.0636 69.6616 74.0463 69.5782 74.0553V74.0553C68.9853 73.7852 68.4826 73.3502 68.1301 72.8022C67.7777 72.2542 67.5903 71.6164 67.5904 70.9648V68.6948L64.9752 67.9287Z" fill="url(#paint9_linear_1974_9245)"/>
<path d="M69.1755 65.9102C70.7759 64.274 71.2875 61.0896 70.2499 60.156C69.1669 59.1808 65.951 60.2627 64.5101 62.012C64.1158 62.4922 63.8251 63.0555 62.9928 63.7608C62.0859 64.5301 61.6767 64.4954 61.156 65.165C60.3808 66.1621 60.5457 67.3976 60.5841 67.6724C60.5969 67.7641 60.8668 69.5567 61.7348 69.729C62.3798 69.857 63.0958 69.0397 63.5567 69.3731C63.5886 69.3988 63.6183 69.4272 63.6453 69.458C64.1067 69.8896 64.9737 70.6002 66.4562 71.3332C66.459 70.868 66.5024 70.4038 66.5859 69.9461C66.6232 69.7418 66.7795 68.9416 67.1316 68.2256C67.7233 67.022 68.5534 66.5456 69.1755 65.9102Z" fill="url(#paint10_linear_1974_9245)"/>
<path d="M64.6156 70.6842C64.6156 70.6842 66.3388 72.4357 68.7806 71.6941C70.9679 71.0299 70.1266 65.9761 68.4605 65.2511C67.9051 65.0095 66.9235 65.0852 66.2038 65.4811C65.777 65.7153 65.6703 65.9404 64.9667 66.309C64.319 66.6489 64.1067 66.6185 63.9392 66.8425C63.7306 67.1226 63.6655 67.7041 64.4406 69.0581C63.9168 68.7284 63.3699 68.6847 63.0493 68.937C62.9418 69.0326 62.8629 69.1562 62.8215 69.2939C62.6449 69.9347 63.3342 70.5396 64.6156 70.6842Z" fill="url(#paint11_linear_1974_9245)"/>
<g style="mix-blend-mode:multiply" opacity="0.3">
<path d="M100.319 124.782C97.991 124.416 97.7051 122.165 94.8194 119.893C88.3562 114.808 80.9315 119.132 78.199 115.494C75.4958 111.895 82.3869 107.167 80.6429 100.462C78.5948 92.5866 67.4513 92.8128 62.6781 82.3767C61.9222 80.7129 61.3964 78.954 61.115 77.1484C60.8332 77.2887 60.5847 77.4877 60.3862 77.7321C58.1327 80.4241 62.0176 84.7091 63.6864 93.1308C65.5536 102.546 63.5306 111.503 63.4111 112.012C62.326 116.632 60.9949 118.583 61.578 122.553C61.7205 123.524 62.573 129.329 66.619 131.352C69.8408 132.965 71.6434 130.459 78.3516 129.794C86.5044 128.986 88.8043 132.195 94.7586 130.161C96.3692 129.611 100.04 128.355 102.014 125.165C102.131 124.976 102.239 124.782 102.34 124.587C101.669 124.807 100.992 124.887 100.319 124.782Z" fill="url(#paint12_linear_1974_9245)"/>
</g>
<path d="M108.507 79.0139C106.955 80.3812 109.795 90.6253 117.857 93.6796C124.212 96.0872 131.798 93.4171 135.437 88.1312C137.534 85.0845 139.435 79.6428 137.104 76.9967C136.998 76.8767 135.682 75.4272 133.805 75.5307C129.458 75.7691 129.178 83.9412 124.517 84.941C123.421 85.1757 123.028 84.8124 113.877 80.8219C109.462 78.8976 108.878 78.6874 108.507 79.0139Z" fill="url(#paint13_linear_1974_9245)"/>
<path d="M126.936 50.1026L88.2004 48.0167C85.0102 47.8449 82.4099 50.1938 82.4099 53.2636V74.4912C82.4099 77.5615 85.0102 80.1143 88.2004 80.1927L100.864 80.5048L106.774 87.4887C106.946 87.6915 107.189 87.8207 107.453 87.8497C107.717 87.8787 107.982 87.8052 108.194 87.6445V87.6445L113.876 80.8227L126.935 81.1428C129.889 81.2154 132.27 78.8979 132.27 75.9679V55.6984C132.272 52.7669 129.89 50.2616 126.936 50.1026Z" fill="url(#paint14_linear_1974_9245)"/>
<path d="M127.707 49.4854L88.9712 47.3995C85.7809 47.2277 83.1807 49.5761 83.1807 52.6464V73.8714C83.1807 76.9416 85.7809 79.4944 88.9712 79.5728L101.635 79.8849L107.401 86.6981C107.497 86.8123 107.617 86.9042 107.752 86.9676C107.888 87.031 108.035 87.0644 108.185 87.0656C108.334 87.0667 108.482 87.0355 108.618 86.9741C108.754 86.9127 108.876 86.8226 108.974 86.7099L114.648 80.2055L127.707 80.5256C130.66 80.5982 133.042 78.2802 133.042 75.3508V55.0812C133.042 52.1497 130.66 49.6444 127.707 49.4854Z" fill="url(#paint15_linear_1974_9245)"/>
<path d="M121.421 62.1053C121.208 58.0881 118.477 54.7127 115.077 54.2854C112.373 53.9456 109.967 55.474 108.686 57.9473C107.402 55.3524 104.974 53.5833 102.218 53.6586C98.7144 53.7541 95.8698 56.9358 95.6436 61.0298C95.4953 63.7346 96.4775 66.2212 98.0892 67.8975L107.98 75.9532C108.407 76.3011 108.964 76.3171 109.391 75.9932L119.079 68.6428C120.625 67.1148 121.562 64.7579 121.421 62.1053Z" fill="white"/>
<path d="M96.6572 83.3154C96.6572 83.3154 96.6572 78.7604 97.2974 77.3376C97.9376 75.9148 99.2223 75.6352 99.5914 76.0956C99.7675 76.3165 99.4794 78.2339 98.9512 80.0509C98.8878 80.2691 98.4471 81.6664 98.3111 82.6976C98.175 83.7288 97.0173 83.5496 96.6572 83.3154Z" fill="url(#paint16_linear_1974_9245)"/>
<path d="M96.3559 82.072C96.8989 81.7176 97.5121 81.4849 98.1535 81.3898C98.7948 81.2946 99.4492 81.3394 100.072 81.5209C99.8839 82.5996 97.0238 97.6222 84.3027 102.657C77.1299 105.495 66.8788 105.136 60.7906 98.3766C57.6195 94.8555 54.5589 88.4691 56.4453 83.0936C57.3976 80.3792 59.8447 77.2599 62.557 77.3212C64.1575 77.358 65.1711 78.4869 68.0066 81.6009C76.009 90.3934 76.7612 91.1088 78.1963 91.702C82.8148 93.6109 87.4556 91.3387 88.5744 90.7903C93.8543 88.2055 95.8971 83.2643 96.3559 82.072Z" fill="url(#paint17_linear_1974_9245)"/>
<path d="M119.964 82.5886C119.128 81.2442 120.17 80.1036 119.414 78.9219C118.904 78.1216 117.912 77.8373 117.811 77.9616C117.679 78.1216 118.931 79.1459 118.727 79.474C118.616 79.6512 118.135 79.5418 116.619 79.1075C114.45 78.486 114.067 78.3169 113.961 78.4673C113.736 78.7842 114.833 80.4498 116.515 81.3962C117.529 81.967 118.411 82.0817 118.819 82.9588C119.054 83.4646 118.999 83.9399 119.323 84.0589C119.648 84.1778 120.187 83.8567 120.284 83.463C120.367 83.1333 120.125 82.8462 119.964 82.5886Z" fill="url(#paint18_linear_1974_9245)"/>
<path d="M148.04 105.847C154.247 108.82 160.14 107.934 164.263 107.313C168.923 106.612 173.41 105.937 175.171 102.455C176.913 99.0095 175.356 94.0576 172.604 91.3645C169.371 88.2004 166.145 89.7758 163.897 86.6901C161.592 83.5286 164.313 80.9625 162.247 77.4324C159.646 72.99 154.06 74.8716 151.339 70.3748C149.108 66.6835 151.843 63.6677 149.598 61.3006C146.484 58.0175 137.404 59.7732 135.95 63.6405C135.381 65.1519 136.243 66.2802 136.879 68.4046C138.904 75.1618 134.763 78.9966 134.383 85.1317C133.869 93.4195 140.39 102.179 148.04 105.847Z" fill="url(#paint19_linear_1974_9245)"/>
<path d="M152.248 176.366C152.248 176.366 146.036 177.154 145.798 178.565C145.522 180.204 152.706 178.764 152.706 178.764C152.706 178.764 153.806 178.404 152.248 176.366Z" fill="url(#paint20_linear_1974_9245)"/>
<path d="M151.852 173.008L152.003 176.476C152.003 176.476 151.244 177.436 150.374 176.742L149.681 173.008H151.852Z" fill="url(#paint21_linear_1974_9245)"/>
<path d="M142.127 178.045C142.127 178.045 135.914 178.832 135.677 180.244C135.401 181.883 142.585 180.443 142.585 180.443C142.585 180.443 143.685 180.082 142.127 178.045Z" fill="url(#paint22_linear_1974_9245)"/>
<path d="M141.731 174.687L141.883 178.154C141.883 178.154 141.123 179.115 140.253 178.421L139.56 174.687H141.731Z" fill="url(#paint23_linear_1974_9245)"/>
<path d="M133.353 117.521C133.811 124.523 134.915 131.468 136.652 138.267C137.432 141.328 138.217 143.879 139.983 149.181C142.092 155.512 145.065 164.159 148.941 174.605L152.313 175.121C154.639 166.638 153.971 159.969 151.582 154.67C150.167 151.53 149.334 151.501 147.878 147.996C146.331 144.27 145.698 140.517 146.089 127.845C146.2 124.257 146.409 119.487 146.825 113.845L133.353 117.521Z" fill="url(#paint24_linear_1974_9245)"/>
<path style="mix-blend-mode:multiply" opacity="0.3" d="M133.353 117.521C133.811 124.523 134.915 131.468 136.652 138.267C137.432 141.328 138.217 143.879 139.983 149.181C142.092 155.512 145.065 164.159 148.941 174.605L152.313 175.121C154.301 167.205 152.846 163.048 151.037 160.701C149.92 159.251 148.517 158.294 147.493 155.799C146.288 152.864 147.141 151.533 146.515 148.095C145.671 143.461 143.668 143.392 142.961 139.768C142.126 135.493 144.492 133.436 146.089 127.845C146.977 124.734 147.758 120.072 146.825 113.845L133.353 117.521Z" fill="url(#paint25_linear_1974_9245)"/>
<path d="M141.137 116.726C138.31 120.286 130.369 131.243 130.138 147.188C129.925 162.062 136.54 172.657 139.196 176.466L142.512 176.165C142.915 171.666 142.73 167.134 141.962 162.683C140.516 154.337 138.228 153.436 138.571 148.676C139.003 142.707 142.777 141.749 148.654 130.906C151.821 125.062 155.604 118.083 153.145 115.498C152.679 115.011 150.398 113.006 141.137 116.726Z" fill="url(#paint26_linear_1974_9245)"/>
<path d="M138.263 73.0432C134.282 73.7677 131.896 76.4981 131.239 77.2727C130.422 78.233 128.004 81.3769 127.958 89.4139C127.914 97.1192 130.114 98.0106 130.781 105.32C131.764 116.101 127.617 121.162 130.509 123.592C132.97 125.661 135.962 121.986 144.255 122.384C151.099 122.712 152.418 125.377 158.301 124.71C159.2 124.608 167.056 123.638 168.269 119.527C169.112 116.672 166.011 114.799 161.76 107.887C157.692 101.271 155.69 95.1106 154.697 92.051C151.698 82.8216 152.942 80.2976 149.553 76.9227C149.131 76.5018 144.392 71.9303 138.263 73.0432Z" fill="url(#paint27_linear_1974_9245)"/>
<path d="M142.285 65.7207C142.285 65.7207 141.474 71.3533 144.565 74.3772C144.616 74.4249 144.652 74.4855 144.67 74.5523C144.688 74.6192 144.688 74.6897 144.669 74.7564C144.65 74.823 144.614 74.8833 144.563 74.9306C144.512 74.9779 144.45 75.0105 144.382 75.0248C142.946 75.3268 139.607 75.8128 136.368 74.725C136.304 74.7028 136.248 74.6639 136.204 74.6123C136.16 74.5607 136.131 74.4984 136.119 74.4317C136.108 74.365 136.114 74.2964 136.138 74.2331C136.162 74.1698 136.202 74.114 136.255 74.0715C136.932 73.5278 138.072 72.4891 138.679 71.2413C139.579 69.3922 139.74 66.2371 139.74 66.2371L142.285 65.7207Z" fill="url(#paint28_linear_1974_9245)"/>
<g style="mix-blend-mode:multiply" opacity="0.3">
<path d="M161.761 107.887C157.693 101.272 155.692 95.1114 154.698 92.0518C151.699 82.8224 152.943 80.2985 149.554 76.9236C149.337 76.7102 147.978 75.3957 145.878 74.3223C146.435 76.1361 146.768 78.2653 146.454 80.5732C145.387 88.4412 137.789 91.1764 138.755 96.0637C139.637 100.531 146.399 100.346 147.371 105.138C148.371 110.071 141.822 113.309 143.156 116.779C144.44 120.127 151.02 118.367 157.547 122.37C158.509 122.961 159.414 123.641 160.25 124.401C162.92 123.867 167.381 122.543 168.27 119.528C169.112 116.671 166.011 114.798 161.761 107.887Z" fill="url(#paint29_linear_1974_9245)"/>
</g>
<path d="M142.38 67.7332C142.38 67.7332 140.984 69.6489 138.795 68.8503C136.835 68.1354 138.004 63.0726 139.56 62.4953C140.078 62.3022 141.03 62.3886 141.667 62.785C142.115 63.064 143.311 64.5493 142.625 66.2138C143.121 66.0708 143.557 66.201 143.665 66.4458C143.804 66.7574 143.385 67.181 143.292 67.277C143.043 67.5205 142.724 67.6799 142.38 67.7332V67.7332Z" fill="url(#paint30_linear_1974_9245)"/>
<path d="M118.073 83.1936L120.286 82.3598C120.719 83.1499 123.617 88.233 129.039 89.005C134.152 89.7332 138.953 86.2644 141.184 82.8639C143.299 79.639 142.869 76.8307 144.85 76.2187C146.843 75.6031 149.313 77.8192 150.487 79.3354C153.261 82.9253 153.166 88.281 151.448 92.1216C148.656 98.3635 141.158 101.564 134.766 100.911C124.864 99.9037 120.276 89.9332 119.503 88.1338C118.826 86.5518 118.346 84.8926 118.073 83.1936V83.1936Z" fill="url(#paint31_linear_1974_9245)"/>
<path d="M91.7491 48.2089C90.1247 48.1988 90.0105 45.7602 91.6312 45.6481C91.8114 45.6368 91.9921 45.6402 92.1717 45.6583C94.7639 45.9053 95.2174 47.2929 95.8682 47.605C96.3468 47.8376 93.9557 48.2228 91.7491 48.2089Z" fill="url(#paint32_linear_1974_9245)"/>
</g>

</svg>
