<svg width="230" height="230" viewBox="0 0 230 230" fill="none" xmlns="http://www.w3.org/2000/svg">
<path d="M230 175.904H0V176.019H230V175.904Z" fill="#EBEBEB"/>
<path d="M206.954 183.305H191.719V183.42H206.954V183.305Z" fill="#EBEBEB"/>
<path d="M138.662 183.365H134.665V183.48H138.662V183.365Z" fill="#EBEBEB"/>
<path d="M191.254 179.037H162.992V179.152H191.254V179.037Z" fill="#EBEBEB"/>
<path d="M103.564 181.75H97.7271V181.865H103.564V181.75Z" fill="#EBEBEB"/>
<path d="M93.633 181.75H76.6912V181.865H93.633V181.75Z" fill="#EBEBEB"/>
<path d="M35.8294 179.809H24.1316V179.924H35.8294V179.809Z" fill="#EBEBEB"/>
<path d="M73.0388 179.809H38.5894V179.924H73.0388V179.809Z" fill="#EBEBEB"/>
<path d="M109.02 155.388H20.1987C19.5028 155.387 18.8359 155.109 18.3443 154.617C17.8528 154.124 17.5767 153.457 17.5767 152.761V27.9034C17.5827 27.2116 17.8615 26.5501 18.3524 26.0626C18.8434 25.5751 19.5068 25.301 20.1987 25.2998H109.02C109.717 25.2998 110.385 25.5765 110.877 26.0691C111.37 26.5617 111.647 27.2298 111.647 27.9264V152.761C111.647 153.458 111.37 154.126 110.877 154.618C110.385 155.111 109.717 155.388 109.02 155.388ZM20.1987 25.3918C19.5333 25.393 18.8957 25.6582 18.4257 26.1291C17.9556 26.5999 17.6917 27.2381 17.6917 27.9034V152.761C17.6917 153.427 17.9556 154.065 18.4257 154.536C18.8957 155.006 19.5333 155.272 20.1987 155.273H109.02C109.686 155.272 110.324 155.007 110.795 154.536C111.265 154.065 111.53 153.427 111.532 152.761V27.9034C111.53 27.2377 111.265 26.5995 110.795 26.1288C110.324 25.658 109.686 25.393 109.02 25.3918H20.1987Z" fill="#EBEBEB"/>
<path d="M208.523 155.388H119.697C119 155.387 118.333 155.109 117.841 154.617C117.348 154.125 117.071 153.457 117.07 152.761V27.9034C117.077 27.2112 117.357 26.5497 117.849 26.0623C118.34 25.5749 119.004 25.301 119.697 25.2998H208.523C209.214 25.3022 209.876 25.5768 210.366 26.0642C210.856 26.5516 211.134 27.2124 211.14 27.9034V152.761C211.14 153.456 210.864 154.123 210.374 154.615C209.883 155.108 209.218 155.385 208.523 155.388ZM119.697 25.3918C119.031 25.393 118.393 25.658 117.922 26.1288C117.451 26.5995 117.186 27.2377 117.185 27.9034V152.761C117.186 153.427 117.451 154.065 117.922 154.536C118.393 155.007 119.031 155.272 119.697 155.273H208.523C209.188 155.272 209.826 155.007 210.297 154.536C210.768 154.065 211.033 153.427 211.034 152.761V27.9034C211.033 27.2377 210.768 26.5995 210.297 26.1288C209.826 25.658 209.188 25.393 208.523 25.3918H119.697Z" fill="#EBEBEB"/>
<path d="M87.7589 114.774L199.557 114.774V33.1106L87.7589 33.1106L87.7589 114.774Z" fill="#E6E6E6"/>
<path d="M82.8183 114.774L198.412 114.774V33.1106L82.8183 33.1106L82.8183 114.774Z" fill="#F0F0F0"/>
<path d="M191.489 107.856V40.0288L89.7322 40.0288V107.856H191.489Z" fill="#FAFAFA"/>
<path d="M166.755 107.851L143.589 40.0288H121.468L144.633 107.851H166.755Z" fill="white"/>
<path d="M139.881 107.851L116.716 40.0288H108.095L131.261 107.851H139.881Z" fill="white"/>
<path d="M90.6154 107.856V40.0288H89.7368V107.856H90.6154Z" fill="#E6E6E6"/>
<path d="M29.7022 92.561H69.1794V36.5928L29.7022 36.5928L29.7022 92.561Z" fill="#E0E0E0"/>
<path d="M26.91 92.561H67.6016V36.5928L26.91 36.5928L26.91 92.561Z" fill="#F5F5F5"/>
<path d="M63.5858 88.1449V40.9995H30.9258V88.1449H63.5858Z" fill="white"/>
<path d="M45.0478 131.744C47.978 124.512 54.947 121.821 57.3574 117.254C60.5084 111.274 60.49 102.299 57.8174 99.0652C55.4806 96.25 47.7526 115.276 46.8832 117.401C44.498 123.136 43.0056 129.204 42.458 135.391C42.5224 130.925 42.5822 126.822 42.6328 123.657C42.7984 113.334 43.0008 110.013 43.0928 108.992C43.4148 108.491 43.7966 107.911 44.0128 107.612C45.885 104.976 50.0342 101.834 52.1088 98.0026C55.1356 92.4044 54.648 85.7068 52.5228 83.2136C50.301 80.6054 46.3772 86.7694 44.2934 92.8736C42.2096 98.9778 43.0974 104.834 42.5132 109.894C42.3936 110.887 42.2648 114.664 42.1498 119.908C41.515 114.268 40.2546 110.492 37.9224 106.968C35.052 102.639 32.5726 97.3678 30.2082 98.0486C27.8438 98.7294 29.1134 105.708 30.9856 110.602C32.66 114.963 40.871 119.314 42.0808 122.82C41.9382 129.922 41.8094 138.92 41.722 147.305C41.0734 142.977 41.5196 142.613 38.8608 135.985C37.283 132.047 30.82 127.19 30.038 129.894C29.256 132.599 30.4382 137.714 32.8808 141.302C34.8542 144.191 39.2288 144.187 40.2408 145.981C40.4754 146.399 41.2574 148.005 41.7036 148.925C41.5978 159.155 41.5518 168.189 41.6024 171.267L42.0256 171.299C42.0256 170.503 42.0578 165.319 42.1406 158.419C43.2032 154.739 50.3562 152.618 52.5642 148.805C54.8642 144.817 56.5386 140.162 55.545 137.047C54.717 134.448 48.185 137.967 45.5584 142.287C43.7966 145.157 42.7202 148.216 42.2188 152.329C42.2786 147.637 42.3476 142.595 42.412 137.839C42.9502 136.643 44.16 133.91 45.0478 131.744Z" fill="#E6E6E6"/>
<path d="M49.2475 175.904H34.2147C33.8175 175.903 33.4325 175.766 33.125 175.514C32.8174 175.263 32.606 174.913 32.5266 174.524L31.4594 169.28H52.0075L50.9403 174.538C50.8564 174.924 50.6427 175.271 50.3348 175.519C50.0269 175.768 49.6432 175.903 49.2475 175.904Z" fill="#F0F0F0"/>
<path d="M52.4399 171.299H31.0269C30.7789 171.298 30.5398 171.207 30.3549 171.041C30.17 170.876 30.0523 170.648 30.0241 170.402L29.5641 166.515C29.5487 166.374 29.563 166.231 29.6063 166.096C29.6496 165.961 29.7209 165.836 29.8154 165.73C29.91 165.624 30.0258 165.54 30.1553 165.482C30.2847 165.423 30.425 165.393 30.5669 165.393H52.8493C52.9915 165.392 53.1321 165.422 53.2619 165.48C53.3918 165.538 53.5079 165.623 53.6026 165.729C53.6973 165.835 53.7685 165.96 53.8115 166.095C53.8545 166.231 53.8684 166.374 53.8521 166.515L53.3921 170.402C53.3653 170.64 53.2548 170.861 53.0805 171.025C52.9061 171.189 52.6791 171.286 52.4399 171.299Z" fill="#F0F0F0"/>
<path d="M186.59 172.55H191.185V123.105H186.59V172.55Z" fill="#F0F0F0"/>
<path d="M92.9475 175.844H189.423V172.551H92.9475V175.844Z" fill="#F0F0F0"/>
<path d="M186.594 123.105H91.1858V172.55H186.594V123.105Z" fill="#F5F5F5"/>
<path d="M187.675 123.105H192.423V119.986H187.675V123.105Z" fill="#E0E0E0"/>
<path d="M187.675 119.986H89.9484V123.105H187.675V119.986Z" fill="#EBEBEB"/>
<path d="M179.745 144.44H98.0306C97.0546 144.44 96.1186 144.052 95.4284 143.362C94.7383 142.672 94.3506 141.736 94.3506 140.76V130.18C94.3506 129.204 94.7383 128.268 95.4284 127.578C96.1186 126.888 97.0546 126.5 98.0306 126.5H179.745C180.721 126.5 181.657 126.888 182.347 127.578C183.037 128.268 183.425 129.204 183.425 130.18V140.76C183.425 141.736 183.037 142.672 182.347 143.362C181.657 144.052 180.721 144.44 179.745 144.44ZM98.0306 127.42C97.2986 127.42 96.5966 127.711 96.079 128.228C95.5614 128.746 95.2706 129.448 95.2706 130.18V140.76C95.2706 141.492 95.5614 142.194 96.079 142.712C96.5966 143.229 97.2986 143.52 98.0306 143.52H179.745C180.477 143.52 181.179 143.229 181.697 142.712C182.214 142.194 182.505 141.492 182.505 140.76V130.18C182.505 129.448 182.214 128.746 181.697 128.228C181.179 127.711 180.477 127.42 179.745 127.42H98.0306Z" fill="white"/>
<path d="M179.745 166.607H98.0306C97.0546 166.607 96.1186 166.219 95.4284 165.529C94.7383 164.839 94.3506 163.903 94.3506 162.927V152.347C94.3506 151.371 94.7383 150.435 95.4284 149.745C96.1186 149.055 97.0546 148.667 98.0306 148.667H179.745C180.721 148.667 181.657 149.055 182.347 149.745C183.037 150.435 183.425 151.371 183.425 152.347V162.927C183.425 163.903 183.037 164.839 182.347 165.529C181.657 166.219 180.721 166.607 179.745 166.607ZM98.0306 149.55C97.2986 149.55 96.5966 149.841 96.079 150.359C95.5614 150.876 95.2706 151.578 95.2706 152.31V162.89C95.2706 163.622 95.5614 164.324 96.079 164.842C96.5966 165.359 97.2986 165.65 98.0306 165.65H179.745C180.477 165.65 181.179 165.359 181.697 164.842C182.214 164.324 182.505 163.622 182.505 162.89V152.31C182.505 151.578 182.214 150.876 181.697 150.359C181.179 149.841 180.477 149.55 179.745 149.55H98.0306Z" fill="white"/>
<path d="M161.175 137.08H116.601C116.284 137.08 115.981 136.955 115.757 136.731C115.533 136.508 115.406 136.205 115.405 135.889V135.015C115.406 134.698 115.533 134.395 115.757 134.172C115.981 133.949 116.284 133.823 116.601 133.823H161.175C161.491 133.823 161.795 133.949 162.019 134.172C162.243 134.395 162.37 134.698 162.371 135.015V135.889C162.37 136.205 162.243 136.508 162.019 136.731C161.795 136.955 161.491 137.08 161.175 137.08ZM116.601 134.78C116.529 134.781 116.46 134.81 116.408 134.861C116.357 134.911 116.327 134.979 116.325 135.051V135.925C116.327 135.997 116.357 136.066 116.408 136.116C116.46 136.167 116.529 136.196 116.601 136.197H161.175C161.247 136.197 161.317 136.168 161.368 136.118C161.42 136.067 161.45 135.998 161.451 135.925V135.051C161.45 134.979 161.42 134.91 161.368 134.859C161.317 134.808 161.247 134.78 161.175 134.78H116.601Z" fill="white"/>
<path d="M161.175 159.247H116.601C116.284 159.247 115.981 159.122 115.757 158.898C115.533 158.675 115.406 158.372 115.405 158.056V157.182C115.406 156.865 115.533 156.562 115.757 156.339C115.981 156.116 116.284 155.99 116.601 155.99H161.175C161.491 155.99 161.795 156.116 162.019 156.339C162.243 156.562 162.37 156.865 162.371 157.182V158.056C162.37 158.372 162.243 158.675 162.019 158.898C161.795 159.122 161.491 159.247 161.175 159.247ZM116.601 156.91C116.529 156.911 116.46 156.94 116.408 156.991C116.357 157.041 116.327 157.11 116.325 157.182V158.056C116.327 158.128 116.357 158.196 116.408 158.247C116.46 158.297 116.529 158.326 116.601 158.327H161.175C161.247 158.327 161.317 158.299 161.368 158.248C161.42 158.197 161.45 158.128 161.451 158.056V157.182C161.45 157.109 161.42 157.04 161.368 156.989C161.317 156.939 161.247 156.91 161.175 156.91H116.601Z" fill="white"/>
<path d="M112.7 196.678C161.958 196.678 201.889 194.346 201.889 191.47C201.889 188.595 161.958 186.263 112.7 186.263C63.4421 186.263 23.5106 188.595 23.5106 191.47C23.5106 194.346 63.4421 196.678 112.7 196.678Z" fill="#F5F5F5"/>
<path d="M172.404 77.1662L172.228 79.8745L172.687 79.9042L172.863 77.1959L172.404 77.1662Z" fill="#00677D"/>
<path d="M173.102 66.1665L172.528 75.0674L172.987 75.097L173.561 66.1961L173.102 66.1665Z" fill="#00677D"/>
<path d="M167.642 53.2405H113.569C112.181 53.2649 110.851 53.8057 109.84 54.7574C108.829 55.7091 108.208 57.0035 108.1 58.3879L101.113 166.258C101.062 166.919 101.149 167.584 101.368 168.21C101.588 168.835 101.935 169.409 102.388 169.893C102.841 170.378 103.389 170.763 103.999 171.024C104.608 171.285 105.266 171.416 105.929 171.41H159.993C161.384 171.387 162.716 170.846 163.73 169.894C164.744 168.941 165.366 167.645 165.476 166.258L172.459 58.3879C172.51 57.7269 172.423 57.0625 172.203 56.437C171.984 55.8114 171.636 55.2383 171.183 54.7542C170.73 54.2701 170.182 53.8856 169.572 53.625C168.962 53.3644 168.305 53.2334 167.642 53.2405Z" fill="#00677D"/>
<path opacity="0.7" d="M165.927 53.2405H113.569C112.181 53.2649 110.851 53.8057 109.84 54.7574C108.829 55.7091 108.208 57.0035 108.1 58.3879L101.113 166.258C101.062 166.919 101.149 167.584 101.368 168.21C101.588 168.835 101.935 169.409 102.388 169.893C102.841 170.378 103.389 170.763 103.999 171.024C104.608 171.285 105.266 171.416 105.929 171.41H158.277C159.668 171.387 161 170.846 162.014 169.894C163.028 168.941 163.65 167.645 163.76 166.258L170.743 58.3879C170.794 57.7269 170.707 57.0625 170.487 56.437C170.268 55.8114 169.921 55.2383 169.468 54.7542C169.015 54.2701 168.466 53.8856 167.856 53.625C167.247 53.3644 166.59 53.2334 165.927 53.2405Z" fill="white"/>
<path d="M161.511 163.438H103.919C103.703 163.439 103.49 163.395 103.292 163.309C103.094 163.224 102.916 163.099 102.769 162.942C102.621 162.785 102.508 162.6 102.435 162.397C102.362 162.194 102.332 161.979 102.345 161.764L108.666 64.1517C108.692 63.753 108.868 63.3791 109.159 63.1057C109.451 62.8323 109.835 62.68 110.234 62.6797H167.831C168.047 62.6799 168.26 62.7243 168.458 62.8101C168.656 62.8959 168.834 63.0213 168.981 63.1787C169.128 63.336 169.242 63.5219 169.315 63.7249C169.388 63.9278 169.418 64.1435 169.404 64.3587L163.084 161.966C163.058 162.366 162.881 162.74 162.589 163.014C162.296 163.287 161.911 163.439 161.511 163.438Z" fill="white"/>
<path d="M148.713 59.4873H127.779C127.671 59.4882 127.564 59.4668 127.465 59.4243C127.366 59.3818 127.277 59.3193 127.204 59.2406C127.13 59.1618 127.074 59.0687 127.038 58.9671C127.003 58.8654 126.989 58.7575 126.997 58.6501C127.018 58.427 127.12 58.2193 127.283 58.066C127.447 57.9127 127.661 57.8243 127.885 57.8175H148.819C148.927 57.8159 149.033 57.8367 149.132 57.8787C149.231 57.9206 149.32 57.9828 149.394 58.0611C149.468 58.1395 149.524 58.2323 149.56 58.3337C149.595 58.4351 149.61 58.5429 149.601 58.6501C149.581 58.874 149.48 59.0828 149.316 59.237C149.153 59.3913 148.938 59.4803 148.713 59.4873Z" fill="white"/>
<path d="M132.374 167.537C132.341 168.088 132.099 168.606 131.699 168.987C131.299 169.368 130.769 169.583 130.217 169.588C129.952 169.591 129.689 169.539 129.444 169.435C129.2 169.331 128.98 169.179 128.798 168.986C128.615 168.794 128.474 168.566 128.383 168.316C128.293 168.067 128.255 167.802 128.271 167.537C128.306 166.986 128.548 166.469 128.948 166.09C129.348 165.71 129.877 165.496 130.428 165.49C130.693 165.487 130.956 165.538 131.2 165.642C131.445 165.745 131.665 165.897 131.848 166.089C132.03 166.281 132.171 166.509 132.262 166.758C132.352 167.007 132.391 167.272 132.374 167.537Z" fill="white"/>
<path opacity="0.2" d="M155.236 89.7002H106.058L102.93 137.954H155.236C156.601 137.952 157.909 137.409 158.875 136.444C159.84 135.479 160.385 134.172 160.388 132.807V94.866C160.389 93.498 159.847 92.1854 158.881 91.2168C157.915 90.2481 156.604 89.7026 155.236 89.7002Z" fill="#00677D"/>
<path d="M150.655 85.4268H90.3854C87.54 85.4268 85.2334 87.7334 85.2334 90.5788V128.533C85.2334 131.379 87.54 133.685 90.3854 133.685H150.655C153.5 133.685 155.807 131.379 155.807 128.533V90.5788C155.807 87.7334 153.5 85.4268 150.655 85.4268Z" fill="#00677D"/>
<path d="M83.5866 84.8703C83.4659 84.8698 83.3502 84.8219 83.2645 84.7369L82.4366 83.9135C82.3499 83.8269 82.3013 83.7094 82.3013 83.5869C82.3013 83.4644 82.3499 83.3469 82.4366 83.2603C82.5232 83.1737 82.6407 83.125 82.7632 83.125C82.8856 83.125 83.0031 83.1737 83.0898 83.2603L83.9132 84.0883C83.9988 84.1745 84.0469 84.2911 84.0469 84.4126C84.0469 84.5341 83.9988 84.6507 83.9132 84.7369C83.8702 84.7795 83.8192 84.8132 83.7631 84.8361C83.7071 84.859 83.6471 84.8706 83.5866 84.8703Z" fill="#00677D"/>
<path d="M82.34 87.7589H81.1762C81.0542 87.7589 80.9372 87.7104 80.8509 87.6241C80.7647 87.5379 80.7162 87.4209 80.7162 87.2989C80.7162 87.1769 80.7647 87.0599 80.8509 86.9736C80.9372 86.8873 81.0542 86.8389 81.1762 86.8389H82.34C82.462 86.8389 82.579 86.8873 82.6653 86.9736C82.7515 87.0599 82.8 87.1769 82.8 87.2989C82.8 87.4209 82.7515 87.5379 82.6653 87.6241C82.579 87.7104 82.462 87.7589 82.34 87.7589Z" fill="#00677D"/>
<path d="M86.5168 83.6282C86.4002 83.6284 86.2878 83.5844 86.2024 83.505C86.117 83.4256 86.0649 83.3167 86.0568 83.2003L85.974 82.0365C85.9696 81.9761 85.9772 81.9154 85.9964 81.8579C86.0155 81.8004 86.0458 81.7473 86.0856 81.7015C86.1253 81.6558 86.1737 81.6184 86.228 81.5914C86.2823 81.5644 86.3413 81.5484 86.4018 81.5444C86.5231 81.5368 86.6425 81.5775 86.7338 81.6577C86.8252 81.7378 86.8811 81.8509 86.8894 81.9721L86.9768 83.1359C86.9812 83.1964 86.9736 83.2571 86.9544 83.3146C86.9353 83.3721 86.9049 83.4252 86.8652 83.471C86.8254 83.5167 86.777 83.5541 86.7228 83.5811C86.6685 83.6081 86.6094 83.6241 86.549 83.6282H86.5168Z" fill="#00677D"/>
<path d="M125.667 128.722L144.173 147.223V128.722H125.667Z" fill="#00677D"/>
<path d="M130.741 120.617L129.821 116.711C129.589 115.685 129.589 114.619 129.821 113.593L131.1 108.031C131.623 105.66 131.34 103.181 130.295 100.989C129.25 98.7966 127.503 97.0158 125.332 95.9287C125.372 95.8263 125.408 95.7219 125.437 95.6159C125.513 95.2785 125.521 94.9295 125.462 94.5889C125.403 94.2484 125.277 93.9228 125.092 93.6308C124.906 93.3389 124.665 93.0862 124.383 92.8874C124.1 92.6885 123.781 92.5473 123.443 92.4718C123.106 92.3963 122.757 92.3879 122.416 92.4473C122.076 92.5066 121.75 92.6325 121.458 92.8177C121.166 93.0028 120.914 93.2437 120.715 93.5265C120.516 93.8093 120.375 94.1285 120.299 94.4659C120.276 94.5734 120.263 94.6826 120.258 94.7925C117.83 94.8494 115.491 95.7146 113.61 97.251C111.73 98.7874 110.415 100.907 109.876 103.275L108.629 108.841C108.4 109.866 107.944 110.826 107.295 111.651L104.816 114.802C104.573 115.112 104.413 115.477 104.35 115.865C104.286 116.252 104.322 116.65 104.454 117.02C104.586 117.39 104.809 117.721 105.103 117.981C105.397 118.242 105.753 118.424 106.136 118.51L127.986 123.404C128.368 123.487 128.764 123.472 129.139 123.36C129.513 123.249 129.854 123.045 130.129 122.767C130.403 122.489 130.603 122.146 130.711 121.77C130.818 121.395 130.828 120.998 130.741 120.617Z" fill="white"/>
<path d="M114.241 121.822C114.075 121.785 113.902 121.79 113.738 121.836C113.574 121.882 113.424 121.968 113.302 122.086C113.179 122.204 113.087 122.35 113.034 122.512C112.981 122.674 112.969 122.846 112.999 123.014C113.124 123.753 113.467 124.438 113.983 124.982C114.499 125.525 115.166 125.903 115.897 126.067C116.629 126.231 117.393 126.173 118.091 125.901C118.79 125.629 119.392 125.156 119.821 124.541C119.919 124.402 119.981 124.242 120.002 124.073C120.023 123.905 120.003 123.734 119.942 123.575C119.882 123.416 119.784 123.275 119.656 123.164C119.528 123.052 119.374 122.974 119.209 122.935L114.241 121.822Z" fill="white"/>
<path d="M97.4602 114.08C97.3462 114.081 97.2338 114.053 97.1334 113.999C97.0329 113.946 96.9476 113.867 96.8852 113.772C94.7126 110.517 93.9219 106.532 94.6871 102.694C95.4523 98.8564 97.7106 95.4796 100.965 93.3066C101.118 93.2054 101.304 93.1688 101.484 93.2051C101.663 93.2413 101.821 93.3473 101.922 93.4998C102.023 93.6523 102.06 93.8388 102.024 94.0182C101.988 94.1977 101.882 94.3554 101.729 94.4566C98.7825 96.4301 96.7399 99.4925 96.0499 102.971C95.3599 106.45 96.0789 110.06 98.049 113.008C98.1508 113.16 98.1881 113.346 98.1527 113.526C98.1173 113.705 98.0122 113.863 97.8604 113.965C97.7418 114.043 97.6022 114.083 97.4602 114.08Z" fill="white"/>
<path d="M100.381 112.121C100.268 112.12 100.157 112.091 100.058 112.038C99.9581 111.984 99.8733 111.907 99.8108 111.812C98.1571 109.333 97.5553 106.298 98.1375 103.375C98.7197 100.452 100.438 97.8797 102.916 96.2229C102.991 96.1725 103.076 96.1374 103.165 96.1197C103.254 96.102 103.346 96.102 103.435 96.1197C103.524 96.1375 103.609 96.1726 103.684 96.223C103.76 96.2735 103.824 96.3383 103.875 96.4138C103.925 96.4893 103.96 96.574 103.978 96.6631C103.996 96.7522 103.996 96.8439 103.978 96.9329C103.96 97.022 103.925 97.1067 103.875 97.1822C103.824 97.2577 103.759 97.3225 103.684 97.3729C101.509 98.8242 100 101.08 99.4888 103.644C98.9772 106.207 99.505 108.869 100.956 111.044C101.058 111.196 101.095 111.382 101.06 111.562C101.024 111.741 100.919 111.899 100.768 112.001C100.653 112.078 100.519 112.119 100.381 112.121Z" fill="white"/>
<path d="M103.307 110.166C103.194 110.166 103.083 110.139 102.983 110.086C102.884 110.033 102.799 109.956 102.736 109.862C102.173 109.018 101.781 108.072 101.584 107.076C101.387 106.081 101.387 105.056 101.587 104.061C101.786 103.066 102.179 102.12 102.744 101.277C103.309 100.434 104.035 99.7109 104.88 99.1488C105.032 99.0544 105.214 99.0227 105.389 99.0604C105.564 99.098 105.717 99.2021 105.817 99.3506C105.917 99.4991 105.955 99.6805 105.923 99.8565C105.892 100.033 105.793 100.189 105.648 100.294C104.955 100.757 104.36 101.351 103.897 102.044C103.434 102.737 103.112 103.514 102.949 104.331C102.786 105.148 102.786 105.989 102.948 106.807C103.111 107.624 103.433 108.401 103.896 109.094C103.996 109.246 104.033 109.432 103.997 109.611C103.962 109.79 103.858 109.948 103.707 110.051C103.588 110.129 103.449 110.169 103.307 110.166Z" fill="white"/>
<path d="M137.241 123.781C137.087 123.781 136.937 123.729 136.816 123.634C136.695 123.538 136.609 123.405 136.572 123.255C136.536 123.105 136.55 122.947 136.614 122.807C136.678 122.666 136.787 122.551 136.924 122.48C140.075 120.851 142.451 118.038 143.529 114.659C144.608 111.279 144.3 107.61 142.674 104.457C142.624 104.376 142.592 104.286 142.579 104.192C142.566 104.098 142.572 104.002 142.598 103.911C142.624 103.82 142.668 103.735 142.728 103.661C142.788 103.588 142.862 103.527 142.946 103.484C143.031 103.44 143.123 103.415 143.218 103.409C143.312 103.403 143.407 103.416 143.497 103.448C143.586 103.48 143.667 103.531 143.736 103.596C143.805 103.661 143.86 103.739 143.897 103.827C144.785 105.549 145.326 107.43 145.487 109.362C145.648 111.294 145.427 113.238 144.837 115.084C144.247 116.93 143.298 118.642 142.046 120.122C140.794 121.602 139.263 122.82 137.54 123.708C137.447 123.753 137.345 123.779 137.241 123.781Z" fill="white"/>
<path d="M135.626 120.658C135.472 120.658 135.322 120.606 135.201 120.51C135.08 120.415 134.994 120.282 134.958 120.132C134.921 119.982 134.936 119.824 135 119.683C135.063 119.543 135.172 119.428 135.309 119.356C136.46 118.763 137.483 117.948 138.319 116.959C139.155 115.97 139.788 114.826 140.181 113.592C140.575 112.358 140.721 111.059 140.612 109.769C140.503 108.478 140.141 107.222 139.546 106.072C139.461 105.909 139.445 105.719 139.501 105.544C139.557 105.37 139.679 105.224 139.842 105.14C140.005 105.056 140.195 105.04 140.369 105.096C140.544 105.151 140.69 105.274 140.774 105.437C141.452 106.748 141.865 108.18 141.989 109.651C142.113 111.122 141.946 112.603 141.497 114.01C141.049 115.416 140.327 116.72 139.375 117.848C138.422 118.975 137.256 119.904 135.944 120.58C135.846 120.632 135.737 120.659 135.626 120.658Z" fill="white"/>
<path d="M134.012 117.535C133.858 117.532 133.709 117.479 133.589 117.383C133.469 117.287 133.384 117.153 133.348 117.004C133.312 116.855 133.326 116.697 133.389 116.557C133.451 116.417 133.559 116.301 133.694 116.228C134.435 115.847 135.093 115.324 135.631 114.688C136.169 114.052 136.577 113.316 136.83 112.523C137.083 111.729 137.178 110.894 137.108 110.064C137.038 109.234 136.805 108.426 136.422 107.686C136.338 107.523 136.322 107.333 136.378 107.159C136.433 106.984 136.556 106.839 136.719 106.754C136.882 106.67 137.071 106.654 137.246 106.71C137.421 106.765 137.566 106.888 137.65 107.051C138.587 108.873 138.762 110.992 138.137 112.943C137.513 114.893 136.14 116.517 134.32 117.456C134.225 117.506 134.119 117.532 134.012 117.535Z" fill="white"/>
<path d="M93.5456 57.8912H90.0312C89.94 57.8935 89.8525 57.9281 89.7843 57.9887C89.7161 58.0493 89.6716 58.1321 89.6586 58.2224L88.9226 65.2328C88.9173 65.275 88.9212 65.3179 88.9338 65.3585C88.9465 65.3992 88.9677 65.4366 88.996 65.4684C89.0243 65.5002 89.0591 65.5256 89.098 65.5429C89.1369 65.5602 89.179 65.5689 89.2216 65.5686H92.736C92.8279 65.5661 92.9159 65.5309 92.9842 65.4694C93.0524 65.4078 93.0966 65.3239 93.1086 65.2328L93.8446 58.2224C93.8499 58.1804 93.846 58.1377 93.8334 58.0973C93.8207 58.0569 93.7994 58.0197 93.771 57.9882C93.7426 57.9568 93.7078 57.9318 93.6689 57.9151C93.63 57.8984 93.5879 57.8902 93.5456 57.8912Z" fill="#00677D"/>
<path opacity="0.4" d="M93.2282 57.8908H90.0312C89.94 57.8931 89.8525 57.9277 89.7843 57.9883C89.7161 58.0489 89.6716 58.1317 89.6586 58.222L88.9226 65.2324C88.9173 65.2746 88.9212 65.3175 88.9338 65.3582C88.9465 65.3988 88.9677 65.4363 88.996 65.468C89.0243 65.4998 89.0591 65.5252 89.098 65.5425C89.1369 65.5598 89.179 65.5685 89.2216 65.5682H92.4416C92.5329 65.5656 92.6203 65.5302 92.6879 65.4686C92.7554 65.407 92.7986 65.3232 92.8096 65.2324L93.5456 58.222C93.5521 58.1782 93.5486 58.1335 93.5352 58.0912C93.5218 58.049 93.4989 58.0104 93.4682 57.9784C93.4376 57.9465 93.4 57.9219 93.3584 57.9067C93.3168 57.8915 93.2722 57.8861 93.2282 57.8908Z" fill="white"/>
<path d="M75.9322 187.519C76.3922 187.519 76.8522 187.45 77.0132 187.238C77.0524 187.181 77.0734 187.114 77.0734 187.045C77.0734 186.976 77.0524 186.909 77.0132 186.852C76.9462 186.749 76.8427 186.675 76.7234 186.645C76.0978 186.475 74.8282 187.22 74.773 187.252C74.7587 187.261 74.7474 187.274 74.7409 187.29C74.7343 187.306 74.7327 187.323 74.7362 187.339C74.7396 187.358 74.7485 187.375 74.7616 187.388C74.7747 187.401 74.7916 187.41 74.8098 187.413C75.1803 187.48 75.5558 187.515 75.9322 187.519ZM76.4934 186.797C76.5499 186.789 76.6071 186.789 76.6636 186.797C76.7367 186.814 76.8007 186.859 76.843 186.921C76.9074 187.031 76.889 187.086 76.843 187.114C76.682 187.358 75.739 187.362 75.0444 187.266C75.4905 187.013 75.9836 186.853 76.4934 186.797Z" fill="#00677D"/>
<path d="M74.8006 187.413H74.8374C75.2974 187.211 76.1346 186.406 76.0472 185.983C76.0472 185.886 75.9506 185.762 75.7068 185.739C75.6205 185.729 75.5332 185.737 75.4501 185.763C75.3671 185.788 75.2901 185.83 75.2238 185.886C74.7638 186.277 74.7132 187.266 74.7086 187.321C74.708 187.337 74.7115 187.353 74.7187 187.368C74.7259 187.382 74.7367 187.395 74.75 187.404C74.7656 187.412 74.7832 187.415 74.8006 187.413ZM75.647 185.904H75.6976C75.8586 185.904 75.8724 185.983 75.8724 186.001C75.9276 186.254 75.348 186.889 74.9018 187.165C74.9299 186.742 75.0909 186.34 75.3618 186.015C75.4415 185.946 75.5421 185.908 75.647 185.904Z" fill="#00677D"/>
<path d="M74.4234 178.701H70.6974V187.326H74.4234V178.701Z" fill="#FF8B7B"/>
<path d="M43.677 183.213L47.3984 183.618L49.8226 175.246L46.1012 174.841L43.677 183.213Z" fill="#FF8B7B"/>
<path d="M49.128 184.46C49.588 184.58 50.048 184.63 50.255 184.46C50.3056 184.413 50.3399 184.351 50.3531 184.283C50.3664 184.216 50.3578 184.145 50.3286 184.083C50.3097 184.025 50.2796 183.972 50.2401 183.926C50.2007 183.881 50.1526 183.843 50.0986 183.816C49.5236 183.499 48.0976 183.899 48.0378 183.913C48.0203 183.917 48.0046 183.927 47.9931 183.941C47.9816 183.955 47.9747 183.973 47.9734 183.991C47.9734 184.009 47.9785 184.027 47.9883 184.042C47.9981 184.058 48.0121 184.07 48.0286 184.078C48.3835 184.236 48.7513 184.364 49.128 184.46ZM49.8548 183.908C49.9106 183.921 49.9647 183.942 50.0158 183.968C50.084 184 50.1368 184.058 50.163 184.129C50.1998 184.253 50.163 184.299 50.163 184.327C49.9422 184.515 49.0176 184.29 48.3598 184.023C48.8462 183.889 49.354 183.852 49.8548 183.913V183.908Z" fill="#00677D"/>
<path d="M48.047 184.087H48.0838C48.5438 184 49.6018 183.439 49.6202 183.016C49.6202 182.914 49.5834 182.776 49.3488 182.694C49.2662 182.664 49.1784 182.651 49.0907 182.656C49.003 182.66 48.9172 182.683 48.8382 182.721C48.2954 182.983 47.9918 183.931 47.978 183.968C47.9703 183.981 47.9663 183.996 47.9663 184.011C47.9663 184.027 47.9703 184.042 47.978 184.055C47.9858 184.066 47.9963 184.075 48.0083 184.08C48.0204 184.086 48.0337 184.088 48.047 184.087ZM49.243 182.85H49.2982C49.45 182.905 49.4454 182.97 49.4454 182.988C49.4454 183.246 48.7094 183.71 48.2034 183.862C48.3308 183.464 48.5823 183.118 48.921 182.873C49.022 182.827 49.1364 182.819 49.243 182.85Z" fill="#00677D"/>
<path d="M47.5962 183.273L43.5252 182.105C43.4552 182.084 43.3801 182.088 43.3129 182.117C43.2457 182.145 43.1906 182.196 43.1572 182.261L41.6576 185.238C41.6226 185.313 41.6046 185.395 41.6049 185.478C41.6052 185.561 41.6238 185.643 41.6593 185.718C41.6949 185.793 41.7466 185.86 41.8107 185.913C41.8748 185.965 41.9497 186.004 42.0302 186.024C43.4562 186.406 44.1692 186.526 45.9586 187.036C47.058 187.354 49.2982 188.117 50.8208 188.554C52.3434 188.991 52.9046 187.561 52.3158 187.248C49.6754 185.845 48.829 184.713 48.1298 183.664C48.0044 183.474 47.8151 183.336 47.5962 183.273Z" fill="#263238"/>
<path d="M74.3819 186.894H70.3155C70.2424 186.893 70.1714 186.918 70.1156 186.966C70.0598 187.013 70.023 187.079 70.0119 187.151L69.4185 190.44C69.4052 190.522 69.4099 190.606 69.4322 190.686C69.4545 190.766 69.4939 190.841 69.5476 190.904C69.6014 190.968 69.6683 191.019 69.7437 191.054C69.8191 191.089 69.9012 191.107 69.9843 191.107C71.4517 191.08 73.5677 190.992 75.4123 190.992C77.5697 190.992 78.7473 191.112 81.2773 191.112C82.8045 191.112 83.1633 189.566 82.5147 189.424C79.5753 188.789 77.8779 188.72 75.2927 187.165C75.0181 186.996 74.7041 186.903 74.3819 186.894Z" fill="#263238"/>
<path opacity="0.2" d="M74.4234 178.701H70.6974V183.149H74.4234V178.701Z" fill="black"/>
<path opacity="0.2" d="M46.1012 174.846L49.8226 175.246L48.4748 179.892L44.85 179.161L46.1012 174.846Z" fill="black"/>
<path d="M68.2962 92.9199C68.2962 92.9199 66.24 121.044 64.4 131.707C62.3714 143.387 50.5678 179.147 50.5678 179.147L43.8058 177.91C43.8058 177.91 52.3296 144.33 53.2726 132.765C54.2984 120.216 55.5312 94.3505 55.5312 94.3505L68.2962 92.9199Z" fill="#00677D"/>
<path opacity="0.3" d="M64.8324 104.604C65.2004 103.058 66.0468 105.004 67.0312 108.376C66.286 116.72 65.3154 126.385 64.3862 131.712C64.1792 132.903 63.8664 134.348 63.4662 135.985C63.8204 124.08 63.8342 108.785 64.8324 104.604Z" fill="black"/>
<path d="M75.3203 92.1562C75.3203 92.1562 78.0205 120.428 78.1125 131.785C78.2091 143.603 75.7757 182.289 75.7757 182.289H69.4599C69.4599 182.289 67.5647 144.293 66.7781 132.687C65.9179 120.037 62.2977 93.5869 62.2977 93.5869L75.3203 92.1562Z" fill="#00677D"/>
<path d="M51.98 176.87C52.0076 176.87 50.9174 179.322 50.9174 179.322L43.309 177.942L43.769 175.665L51.98 176.87Z" fill="#263238"/>
<path d="M76.8798 179.772C76.9074 179.772 76.636 182.394 76.636 182.394H68.9632L68.6504 180.058L76.8798 179.772Z" fill="#263238"/>
<path d="M55.7152 66.9576C55.2092 67.9374 54.6526 68.9678 54.1466 69.9844L52.601 73.048C52.0996 74.0692 51.6074 75.095 51.1336 76.1208C50.6598 77.1466 50.2136 78.1678 49.8318 79.189L49.795 77.579C50.0639 78.4058 50.3865 79.214 50.761 79.9986C50.9404 80.4034 51.1704 80.7898 51.3682 81.19C51.566 81.5902 51.8282 81.972 52.0628 82.3492C52.5508 83.129 53.079 83.8828 53.6452 84.6078C53.9304 84.9712 54.2156 85.3438 54.5192 85.6934C54.8228 86.043 55.154 86.4064 55.4392 86.7054L55.5312 86.8066C55.7431 87.0394 55.8652 87.3399 55.8757 87.6545C55.8862 87.969 55.7844 88.2771 55.5884 88.5234C55.3925 88.7697 55.1152 88.9382 54.8064 88.9987C54.4975 89.0592 54.1772 89.0078 53.9028 88.8536C53.4273 88.5858 52.9666 88.2925 52.5228 87.975C52.0628 87.6714 51.658 87.354 51.244 87.0182C50.4152 86.3384 49.6373 85.5989 48.9164 84.8056C48.1805 83.9995 47.5113 83.1349 46.9154 82.2204C46.3031 81.2888 45.7706 80.307 45.3238 79.2856C45.1269 78.8522 45.0926 78.3623 45.2272 77.9056L45.2916 77.6894C45.6412 76.4888 46.0322 75.325 46.4646 74.1842C46.897 73.0434 47.357 71.9256 47.8446 70.8262C48.3322 69.7268 48.8428 68.6412 49.381 67.5694C49.9192 66.4976 50.462 65.4488 51.083 64.377C51.4262 63.7636 51.9975 63.3104 52.673 63.1159C53.3484 62.9214 54.0733 63.0013 54.6902 63.3382C55.3071 63.6751 55.7661 64.2419 55.9675 64.9153C56.1689 65.5887 56.0964 66.3144 55.7658 66.9346L55.7152 66.9576Z" fill="#FF8B7B"/>
<path d="M58.3556 65.3199C58.5396 68.8297 54.556 75.2743 54.556 75.2743L46.3542 71.1757C47.351 68.2687 48.8935 65.5786 50.8991 63.2499C55.2369 58.4567 58.1855 62.0999 58.3556 65.3199Z" fill="#263238"/>
<path d="M52.7988 88.196L54.4502 90.956L57.8864 88.7572C57.2863 87.6817 56.3463 86.8355 55.2138 86.3514C54.9519 86.2678 54.6688 86.2807 54.4156 86.3879C54.1624 86.495 53.9561 86.6894 53.8338 86.9356L52.7988 88.196Z" fill="#FF8B7B"/>
<path d="M55.8256 92.1332L57.4218 91.8342C57.5562 91.8093 57.6843 91.7581 57.7988 91.6835C57.9132 91.6089 58.0118 91.5124 58.0888 91.3995C58.1658 91.2866 58.2196 91.1596 58.2473 91.0257C58.2749 90.8919 58.2758 90.7539 58.2498 90.6198L57.8864 88.7798L54.4502 90.9786L54.6802 91.5352C54.7743 91.7505 54.9392 91.9273 55.1475 92.036C55.3558 92.1448 55.5951 92.1791 55.8256 92.1332Z" fill="#FF8B7B"/>
<path d="M65.5178 47.6835C65.55 47.9825 65.7386 48.2171 65.9318 48.1987C66.125 48.1803 66.2538 47.9273 66.217 47.6283C66.1802 47.3293 65.9962 47.0947 65.803 47.1085C65.6098 47.1223 65.481 47.3799 65.5178 47.6835Z" fill="#263238"/>
<path d="M65.7109 48.2173C66.1762 49.1107 66.7561 49.9396 67.4359 50.6829C66.9759 51.2211 66.0559 51.0647 66.0559 51.0647L65.7109 48.2173Z" fill="#FF5652"/>
<path d="M64.2298 46.0966C64.2537 46.1001 64.2781 46.0982 64.3012 46.0911C64.3243 46.0839 64.3455 46.0716 64.3632 46.0552C64.5227 45.9058 64.7164 45.7979 64.9273 45.741C65.1383 45.684 65.36 45.6798 65.573 45.7286C65.5947 45.7355 65.6177 45.7379 65.6404 45.7356C65.6631 45.7332 65.685 45.7262 65.7049 45.715C65.7248 45.7038 65.7421 45.6886 65.7558 45.6703C65.7695 45.6521 65.7793 45.6312 65.7846 45.609C65.7961 45.5633 65.7896 45.5149 65.7665 45.4738C65.7434 45.4327 65.7054 45.402 65.6604 45.3882C65.3914 45.324 65.1109 45.3265 64.8431 45.3954C64.5754 45.4644 64.3285 45.5977 64.124 45.7838C64.1069 45.8001 64.0932 45.8197 64.0839 45.8415C64.0746 45.8632 64.0698 45.8866 64.0698 45.9103C64.0698 45.9339 64.0746 45.9573 64.0839 45.9791C64.0932 46.0008 64.1069 46.0204 64.124 46.0368C64.1367 46.0533 64.1527 46.0671 64.1708 46.0774C64.189 46.0876 64.2091 46.0942 64.2298 46.0966Z" fill="#263238"/>
<path d="M56.2441 51.0142C57.1227 53.6776 58.2911 58.5858 56.6259 60.5546C56.6259 60.5546 57.7207 63.2364 62.7623 62.8086C68.3145 62.3486 65.0623 59.8416 65.0623 59.8416C61.9435 59.3816 61.7319 57.1322 61.9895 54.984L56.2441 51.0142Z" fill="#FF8B7B"/>
<path d="M55.4346 61.5252C54.9148 60.6926 54.3352 59.7404 55.3196 59.3862C56.4006 58.9952 62.4726 58.3604 64.6346 58.894C66.7966 59.4276 66.355 61.194 66.355 61.194L55.4346 61.5252Z" fill="#00677D"/>
<path d="M73.2136 62.6476C74.0048 63.3744 74.8604 64.1794 75.7114 64.9154C76.5624 65.6514 77.4226 66.4058 78.2874 67.1326C79.1522 67.8594 80.0354 68.5448 80.9232 69.2118C81.811 69.8788 82.7126 70.486 83.6142 71.0518L81.7742 70.877C82.5389 70.673 83.2625 70.3384 83.9132 69.888C84.6736 69.3566 85.3793 68.751 86.02 68.0802C86.7105 67.3736 87.3573 66.6254 87.9566 65.84C88.2648 65.4398 88.573 65.035 88.8766 64.6164C89.1802 64.1978 89.4562 63.7562 89.7092 63.3698L89.7598 63.2962C89.9345 63.0294 90.1993 62.8342 90.506 62.7464C90.8126 62.6586 91.1405 62.6839 91.43 62.8178C91.7195 62.9516 91.9512 63.1851 92.0829 63.4756C92.2146 63.7661 92.2374 64.0943 92.1472 64.4002C91.9724 64.9982 91.7884 65.5088 91.5768 66.0424C91.3652 66.576 91.1444 67.1004 90.896 67.6156C90.3923 68.6665 89.8031 69.6743 89.1342 70.6286C88.4321 71.6406 87.6138 72.5669 86.6962 73.3886C85.6806 74.2952 84.5021 75.0008 83.2232 75.4678C82.9487 75.5645 82.6577 75.6058 82.3671 75.5892C82.0766 75.5727 81.7922 75.4985 81.5304 75.3712L81.3786 75.293C80.2365 74.7317 79.1276 74.105 78.0574 73.4162C77.0132 72.74 76.0012 72.0362 75.026 71.2818C74.0508 70.5274 73.1078 69.7638 72.1878 68.9818C71.2678 68.1998 70.3846 67.381 69.4876 66.4656C69.0103 65.9678 68.7443 65.3044 68.7455 64.6147C68.7466 63.925 69.0149 63.2625 69.4938 62.7663C69.9728 62.27 70.6254 61.9786 71.3146 61.953C72.0038 61.9274 72.6762 62.1698 73.1906 62.6292L73.2136 62.6476Z" fill="#FF8B7B"/>
<path d="M70.403 60.2598C70.403 60.2598 75.0398 64.7586 75.578 92.584C68.1628 94.3826 61.0282 95.045 55.5174 94.3458C55.2552 90.8544 54.8642 78.738 51.3222 65.9638C51.17 65.4258 51.1314 64.862 51.2087 64.3083C51.286 63.7545 51.4776 63.2228 51.7713 62.7471C52.0649 62.2713 52.4543 61.8617 52.9147 61.5444C53.3751 61.2271 53.8964 61.009 54.4456 60.9038C55.1494 60.7658 55.89 60.6416 56.626 60.545C59.422 60.1451 62.2388 59.907 65.0624 59.832C66.8505 59.8466 68.6353 59.9896 70.403 60.2598Z" fill="#263238"/>
<path d="M66.8058 65.1083C67.2658 68.5905 73.2458 75.2836 73.2458 75.2836L80.3436 67.9236C78.2351 65.71 75.9557 63.6659 73.5264 61.8101C68.3238 57.9231 66.3918 61.8791 66.8058 65.1083Z" fill="#263238"/>
<path d="M91.6872 65.6237L94.0608 63.4479L91.218 60.5269C90.2776 61.3276 89.6303 62.4183 89.378 63.6273C89.3502 63.9037 89.4234 64.1807 89.584 64.4074C89.7447 64.634 89.982 64.7948 90.252 64.8601L91.6872 65.6237Z" fill="#FF8B7B"/>
<path d="M94.9348 61.8655L94.323 60.3613C94.2712 60.2322 94.194 60.1149 94.096 60.0162C93.9981 59.9175 93.8813 59.8395 93.7526 59.7867C93.6239 59.7339 93.486 59.7075 93.3469 59.709C93.2078 59.7106 93.0705 59.74 92.943 59.7955L91.1996 60.5269L94.0424 63.4479L94.5392 63.1121C94.7385 62.9816 94.8868 62.7863 94.9588 62.5592C95.0309 62.3321 95.0224 62.0871 94.9348 61.8655Z" fill="#FF8B7B"/>
<path d="M55.5358 47.8402C56.2028 51.5202 56.4052 53.7006 58.4752 55.4532C61.5894 58.089 65.8858 56.0374 66.2952 52.2792C66.6816 48.8936 65.527 43.4426 61.7826 42.2558C58.0382 41.069 54.8688 44.1602 55.5358 47.8402Z" fill="#FF8B7B"/>
<path d="M62.7899 49.1648C64.0825 49.4592 65.0899 47.9642 65.2279 47.541C64.5977 47.6008 63.4799 47.2788 63.2591 46.9936C63.9491 47.0534 64.6161 46.2024 64.6989 45.8758C63.9669 45.7344 63.3185 45.3138 62.8911 44.7028C64.0089 44.6798 65.3521 42.711 64.1239 40.9492C62.8957 39.1874 57.7621 40.664 57.0399 39.4082C55.9635 40.0338 56.9203 40.8664 56.9203 40.8664C56.9203 40.8664 49.6569 42.2464 53.0057 45.0478C50.5493 45.2686 50.2043 48.1712 52.2513 49.6478C54.2983 51.1244 54.4041 52.0996 53.5899 51.98C53.9165 52.6056 55.3747 52.6884 55.4575 52.0812C55.8025 53.3554 56.7961 55.0804 59.0869 54.7998C61.3777 54.5192 63.6225 51.313 62.7899 49.1648Z" fill="#263238"/>
<path d="M53.6406 44.6201C51.911 44.8593 51.1244 43.8841 51.5568 43.0239C49.4132 44.1187 51.7546 46.5383 53.6406 44.6201Z" fill="#263238"/>
<path d="M61.0006 48.6037C61.2983 49.3746 61.8248 50.036 62.5094 50.4989C63.4294 51.1061 64.262 50.4989 64.1056 49.5789C63.963 48.7325 63.3144 47.3939 62.3576 47.1547C62.1594 47.0897 61.9468 47.0826 61.7448 47.1343C61.5427 47.186 61.3596 47.2943 61.2171 47.4465C61.0745 47.5988 60.9784 47.7885 60.9401 47.9935C60.9017 48.1985 60.9227 48.4102 61.0006 48.6037Z" fill="#FF8B7B"/>
<path d="M177.919 178.259C174.515 170.228 173.139 160.779 177.036 161.17C181.033 161.557 180.564 175.798 181.212 177.362C179.966 178.434 177.919 178.259 177.919 178.259Z" fill="#00677D"/>
<path d="M179.023 163.02C178.186 166.083 177.298 170.817 176.622 174.828C177.008 175.978 177.445 177.128 177.919 178.259C177.919 178.259 179.961 178.434 181.217 177.362C180.702 176.13 180.886 167.003 179.023 163.02Z" fill="#263238"/>
<path d="M179.041 176.787C177.974 159.721 180.881 143.902 188.536 144.615C195.104 145.231 185.527 173.963 185.711 177.275C182.703 178.443 179.041 176.787 179.041 176.787Z" fill="#00677D"/>
<path d="M184 176.677C185.201 164.409 191.673 150.093 194.451 154.877C197.979 160.949 188.931 175.412 188.687 177.79C186.424 178.278 184 176.677 184 176.677Z" fill="#00677D"/>
<path d="M182.79 149.174C182.013 149.045 181.58 148.562 181.631 147.876C181.686 147.104 182.321 146.335 182.91 146.326C183.195 146.326 183.673 146.473 183.793 147.536L183.333 147.591C183.278 147.085 183.126 146.786 182.924 146.786C182.611 146.786 182.132 147.357 182.096 147.909C182.063 148.369 182.321 148.626 182.868 148.718L182.79 149.174Z" fill="#00677D"/>
<path d="M191.052 152.26C190.717 152.233 190.398 152.11 190.132 151.906L190.38 151.524C190.808 151.8 191.139 151.874 191.268 151.717C191.461 151.469 191.328 150.742 190.928 150.36C190.606 150.052 190.228 150.075 189.81 150.443L189.511 150.094C189.619 149.972 189.75 149.874 189.896 149.805C190.043 149.736 190.202 149.697 190.364 149.691C190.526 149.685 190.688 149.712 190.839 149.77C190.991 149.828 191.129 149.916 191.245 150.029C191.806 150.563 191.995 151.538 191.627 152.003C191.559 152.089 191.471 152.157 191.371 152.202C191.271 152.247 191.161 152.267 191.052 152.26Z" fill="#00677D"/>
<path d="M179.777 159.206C179.499 159.226 179.223 159.144 179.001 158.974C178.779 158.805 178.626 158.56 178.572 158.286C178.388 157.536 178.756 156.612 179.317 156.419C179.579 156.331 180.085 156.322 180.527 157.302L180.104 157.495C179.897 157.035 179.644 156.787 179.464 156.856C179.17 156.957 178.889 157.642 179.004 158.176C179.11 158.636 179.464 158.792 179.989 158.709L180.058 159.169C179.965 159.19 179.872 159.202 179.777 159.206Z" fill="#00677D"/>
<path d="M174.878 168.733C174.654 168.738 174.433 168.675 174.246 168.553C174.058 168.431 173.911 168.254 173.825 168.047C173.503 167.343 173.691 166.364 174.202 166.069C174.446 165.931 174.943 165.83 175.559 166.713L175.182 166.975C174.887 166.557 174.607 166.368 174.432 166.47C174.161 166.626 174.013 167.353 174.243 167.85C174.432 168.259 174.791 168.369 175.311 168.185L175.462 168.622C175.276 168.693 175.078 168.73 174.878 168.733Z" fill="#00677D"/>
<path d="M183.029 154.845C182.982 154.845 182.935 154.831 182.896 154.804C182.61 154.646 182.391 154.39 182.28 154.083C182.168 153.776 182.171 153.439 182.289 153.134C182.422 152.829 182.65 152.574 182.939 152.408C183.228 152.243 183.563 152.175 183.894 152.214C184.179 152.265 184.846 152.518 184.892 153.741C184.892 153.802 184.868 153.861 184.825 153.904C184.782 153.947 184.723 153.971 184.662 153.971C184.601 153.971 184.543 153.947 184.5 153.904C184.457 153.861 184.432 153.802 184.432 153.741C184.405 153.102 184.189 152.716 183.811 152.647C183.582 152.628 183.354 152.682 183.156 152.8C182.959 152.918 182.804 153.094 182.712 153.304C182.546 153.695 182.712 154.091 183.172 154.418C183.212 154.446 183.242 154.486 183.258 154.532C183.274 154.579 183.274 154.629 183.259 154.676C183.245 154.723 183.215 154.764 183.175 154.792C183.136 154.821 183.088 154.836 183.039 154.836L183.029 154.845Z" fill="white"/>
<path d="M188.48 167.261C188.428 167.261 188.376 167.243 188.336 167.209C188.295 167.176 188.268 167.129 188.26 167.077C188.253 167.047 188.252 167.017 188.257 166.987C188.262 166.958 188.274 166.929 188.29 166.904C188.306 166.879 188.327 166.857 188.352 166.84C188.377 166.823 188.405 166.811 188.434 166.805C189.06 166.676 189.405 166.396 189.414 166.014C189.394 165.785 189.302 165.569 189.153 165.394C189.004 165.219 188.804 165.095 188.582 165.039C188.168 164.938 187.8 165.163 187.556 165.669C187.543 165.696 187.524 165.72 187.501 165.741C187.479 165.761 187.452 165.776 187.424 165.786C187.395 165.796 187.365 165.8 187.335 165.798C187.304 165.796 187.275 165.788 187.248 165.775C187.22 165.762 187.196 165.743 187.176 165.72C187.156 165.698 187.141 165.671 187.131 165.643C187.121 165.614 187.117 165.584 187.119 165.554C187.121 165.523 187.129 165.494 187.142 165.467C187.255 165.161 187.471 164.906 187.754 164.745C188.037 164.584 188.368 164.529 188.687 164.588C189.012 164.668 189.303 164.85 189.516 165.108C189.73 165.365 189.855 165.685 189.874 166.019C189.874 166.308 189.727 167.008 188.531 167.256L188.48 167.261Z" fill="white"/>
<path d="M194.948 163.383C194.681 163.383 194.327 163.227 193.931 162.633L194.313 162.376C194.598 162.799 194.87 162.992 195.049 162.896C195.325 162.748 195.509 162.022 195.265 161.516C195.091 161.106 194.732 160.987 194.207 161.157L194.065 160.72C194.81 160.476 195.417 160.72 195.689 161.336C195.997 162.045 195.79 163.02 195.27 163.3C195.172 163.356 195.061 163.384 194.948 163.383Z" fill="#00677D"/>
<path d="M193.577 181.18C193.58 178.726 192.7 176.352 191.098 174.492C191.255 174.469 191.399 174.391 191.504 174.271C191.608 174.151 191.667 173.998 191.668 173.839C191.667 173.659 191.595 173.487 191.467 173.36C191.34 173.234 191.167 173.163 190.987 173.163H175.587C175.419 173.165 175.258 173.23 175.136 173.345C175.014 173.46 174.939 173.616 174.926 173.783C174.913 173.951 174.964 174.117 175.067 174.249C175.171 174.381 175.32 174.469 175.485 174.497C174.478 175.666 173.748 177.048 173.348 178.54C172.949 180.031 172.891 181.593 173.179 183.11C173.467 184.626 174.093 186.059 175.01 187.3C175.928 188.541 177.114 189.56 178.48 190.279C178.331 190.356 178.213 190.48 178.143 190.633C178.074 190.785 178.058 190.956 178.098 191.119C178.137 191.282 178.231 191.426 178.363 191.529C178.495 191.632 178.658 191.688 178.825 191.687H187.744C187.942 191.686 188.131 191.607 188.27 191.467C188.41 191.328 188.488 191.139 188.49 190.942C188.489 190.805 188.451 190.672 188.381 190.555C188.31 190.439 188.21 190.343 188.089 190.279C189.746 189.406 191.132 188.097 192.099 186.493C193.066 184.89 193.577 183.053 193.577 181.18Z" fill="#263238"/>
</svg>
