<svg width="200" height="219" viewBox="0 0 200 219" fill="none" xmlns="http://www.w3.org/2000/svg">

    
<defs>
<linearGradient id="paint0_linear_1940_7217" x1="98.8845" y1="46.6862" x2="100.66" y2="218.516" gradientUnits="userSpaceOnUse">
<stop stop-color="#00677D"/>
<stop offset="1" stop-color="#07B6DB"/>
</linearGradient>
<linearGradient id="paint1_linear_1940_7217" x1="156.332" y1="143.617" x2="95.8346" y2="148.771" gradientUnits="userSpaceOnUse">
<stop stop-color="#E38DDD"/>
<stop offset="1" stop-color="#9571F6"/>
</linearGradient>
<linearGradient id="paint2_linear_1940_7217" x1="147.172" y1="103.682" x2="101.649" y2="159.001" gradientUnits="userSpaceOnUse">
<stop stop-color="#AA80F9"/>
<stop offset="1" stop-color="#6165D7"/>
</linearGradient>
<linearGradient id="paint3_linear_1940_7217" x1="153.776" y1="124.283" x2="103.392" y2="158.202" gradientUnits="userSpaceOnUse">
<stop stop-color="#FF9085"/>
<stop offset="1" stop-color="#FB6FBB"/>
</linearGradient>
<linearGradient id="paint4_linear_1940_7217" x1="85.037" y1="106.198" x2="64.1192" y2="108.48" gradientUnits="userSpaceOnUse">
<stop stop-color="#444B8C"/>
<stop offset="1" stop-color="#26264F"/>
</linearGradient>
<linearGradient id="paint5_linear_1940_7217" x1="103.468" y1="53.4697" x2="51.7438" y2="229.561" gradientUnits="userSpaceOnUse">
<stop stop-color="#444B8C"/>
<stop offset="1" stop-color="#26264F"/>
</linearGradient>
<linearGradient id="paint6_linear_1940_7217" x1="80.7007" y1="95.8423" x2="130.297" y2="191.936" gradientUnits="userSpaceOnUse">
<stop stop-color="#FFC444"/>
<stop offset="1" stop-color="#F36F56"/>
</linearGradient>
<linearGradient id="paint7_linear_1940_7217" x1="84.0856" y1="49.1325" x2="23.2956" y2="213.772" gradientUnits="userSpaceOnUse">
<stop stop-color="#FFC444"/>
<stop offset="1" stop-color="#F36F56"/>
</linearGradient>
<linearGradient id="paint8_linear_1940_7217" x1="120.33" y1="192.445" x2="106.897" y2="145.309" gradientUnits="userSpaceOnUse">
<stop stop-color="#444B8C"/>
<stop offset="1" stop-color="#3E4177"/>
</linearGradient>
<linearGradient id="paint9_linear_1940_7217" x1="117.286" y1="193.313" x2="103.853" y2="146.177" gradientUnits="userSpaceOnUse">
<stop stop-color="#444B8C"/>
<stop offset="1" stop-color="#3E4177"/>
</linearGradient>
<linearGradient id="paint10_linear_1940_7217" x1="94.858" y1="194.154" x2="92.6291" y2="145.193" gradientUnits="userSpaceOnUse">
<stop stop-color="#444B8C"/>
<stop offset="1" stop-color="#3E4177"/>
</linearGradient>
<linearGradient id="paint11_linear_1940_7217" x1="92.0518" y1="194.282" x2="89.8234" y2="145.321" gradientUnits="userSpaceOnUse">
<stop stop-color="#444B8C"/>
<stop offset="1" stop-color="#3E4177"/>
</linearGradient>
<linearGradient id="paint12_linear_1940_7217" x1="120.528" y1="82.9292" x2="139.275" y2="118.726" gradientUnits="userSpaceOnUse">
<stop stop-color="#AA80F9"/>
<stop offset="1" stop-color="#6165D7"/>
</linearGradient>
<linearGradient id="paint13_linear_1940_7217" x1="150.013" y1="55.1909" x2="125.72" y2="105.193" gradientUnits="userSpaceOnUse">
<stop stop-color="#AB316D"/>
<stop offset="1" stop-color="#792D3D"/>
</linearGradient>
<linearGradient id="paint14_linear_1940_7217" x1="125.79" y1="77.9585" x2="112.495" y2="84.6528" gradientUnits="userSpaceOnUse">
<stop stop-color="#AB316D"/>
<stop offset="1" stop-color="#792D3D"/>
</linearGradient>
<linearGradient id="paint15_linear_1940_7217" x1="119.383" y1="80.0634" x2="122.645" y2="83.2681" gradientUnits="userSpaceOnUse">
<stop stop-color="#FFC444"/>
<stop offset="1" stop-color="#F36F56"/>
</linearGradient>
<linearGradient id="paint16_linear_1940_7217" x1="138.04" y1="58.9359" x2="116.953" y2="109.728" gradientUnits="userSpaceOnUse">
<stop stop-color="#FF9085"/>
<stop offset="1" stop-color="#FB6FBB"/>
</linearGradient>
<linearGradient id="paint17_linear_1940_7217" x1="158.647" y1="49.5221" x2="140.092" y2="86.9468" gradientUnits="userSpaceOnUse">
<stop stop-color="#FFC444"/>
<stop offset="1" stop-color="#F36F56"/>
</linearGradient>
<linearGradient id="paint18_linear_1940_7217" x1="21.2093" y1="127.899" x2="87.5355" y2="67.87" gradientUnits="userSpaceOnUse">
<stop stop-color="#311944"/>
<stop offset="1" stop-color="#893976"/>
</linearGradient>
<linearGradient id="paint19_linear_1940_7217" x1="84.5065" y1="86.8284" x2="104.591" y2="180.901" gradientUnits="userSpaceOnUse">
<stop stop-color="#AA80F9"/>
<stop offset="1" stop-color="#6165D7"/>
</linearGradient>
<linearGradient id="paint20_linear_1940_7217" x1="77.6405" y1="88.2933" x2="97.7245" y2="182.367" gradientUnits="userSpaceOnUse">
<stop stop-color="#AA80F9"/>
<stop offset="1" stop-color="#6165D7"/>
</linearGradient>
<linearGradient id="paint21_linear_1940_7217" x1="99.8459" y1="97.1251" x2="111.635" y2="72.8061" gradientUnits="userSpaceOnUse">
<stop stop-color="#FFC444"/>
<stop offset="1" stop-color="#F36F56"/>
</linearGradient>
<linearGradient id="paint22_linear_1940_7217" x1="104.74" y1="72.5055" x2="124.263" y2="95.9158" gradientUnits="userSpaceOnUse">
<stop stop-color="#FFC444"/>
<stop offset="1" stop-color="#F36F56"/>
</linearGradient>
<linearGradient id="paint23_linear_1940_7217" x1="52.5767" y1="66.2338" x2="48.3176" y2="101.043" gradientUnits="userSpaceOnUse">
<stop stop-color="#FFC444"/>
<stop offset="1" stop-color="#F36F56"/>
</linearGradient>
<linearGradient id="paint24_linear_1940_7217" x1="54.6625" y1="113.579" x2="93.3497" y2="116.182" gradientUnits="userSpaceOnUse">
<stop stop-color="#AA80F9"/>
<stop offset="1" stop-color="#6165D7"/>
</linearGradient>
<clipPath id="clip0_1940_7217">
<rect width="131.579" height="137.644" fill="white" transform="translate(34.2105 40.3508)"/>
</clipPath>
</defs>

<path d="M170.929 12.8516C193.516 29.4878 195.587 60.9568 198.93 88.8095C201.806 112.768 199.085 136.041 188.307 157.63C176.113 182.053 161.598 208.27 135.422 216.014C108.275 224.045 80.1996 211.496 56.0235 196.765C31.5089 181.828 7.65465 162.443 1.4868 134.406C-4.63703 106.57 9.13104 79.2768 24.9627 55.5763C40.2044 32.7591 60.6745 14.0846 87.0092 6.37641C115.001 -1.81692 147.445 -4.44515 170.929 12.8516Z" fill="#00DB2C"/>
<path d="M170.929 12.8516C193.516 29.4878 195.587 60.9568 198.93 88.8095C201.806 112.768 199.085 136.041 188.307 157.63C176.113 182.053 161.598 208.27 135.422 216.014C108.275 224.045 80.1996 211.496 56.0235 196.765C31.5089 181.828 7.65465 162.443 1.4868 134.406C-4.63703 106.57 9.13104 79.2768 24.9627 55.5763C40.2044 32.7591 60.6745 14.0846 87.0092 6.37641C115.001 -1.81692 147.445 -4.44515 170.929 12.8516Z" fill="url(#paint0_linear_1940_7217)"/>
<g clip-path="url(#clip0_1940_7217)">
<path d="M83.6242 51.2551C103.757 49.1739 106.909 39.2897 122.244 40.4431C136.536 41.5194 152.333 51.4999 159.281 65.4988C168.141 83.3513 155.007 92.4221 154.216 139.572C153.952 155.308 155.339 158.826 151.684 163.63C146.58 170.338 137.089 172.408 78.243 166.48C46.477 163.281 41.0258 161.851 37.7244 156.667C30.1408 144.759 46.4579 132.77 47.8538 103.17C49.3102 72.29 32.9844 54.9538 41.2061 47.4564C48.1418 41.1325 59.4405 53.7554 83.6242 51.2551Z" fill="#F4F7FA"/>
<path d="M94.1419 152.927L98.2743 162.191C98.2743 162.191 103.804 161.815 106.145 158.05C110.921 150.367 117.316 155.087 120.291 156.663C124.776 159.039 129.185 159.002 129.622 153.544C130.116 147.368 139.281 148.53 145.97 153.413C152.518 158.19 164.789 149.308 151.567 137.666C143.671 130.714 135.019 136.213 129.989 137.951C124.959 139.689 121.348 132.666 116.532 137.769C112.418 142.129 110.518 147.77 105.683 146.267C100.848 144.764 96.8139 146.182 94.1419 152.927Z" fill="url(#paint1_linear_1940_7217)"/>
<g style="mix-blend-mode:soft-light" opacity="0.5">
<path d="M95.0701 157.319L95.1909 157.495C95.3004 157.42 106.279 149.954 119.395 145.835C131.479 142.04 147.902 140.393 157.515 154.089L157.69 153.966C153.41 147.869 147.447 144.253 139.973 143.219C134 142.393 127.054 143.205 119.327 145.632C106.182 149.762 95.1791 157.243 95.0701 157.319Z" fill="#BEB8F2"/>
<path d="M136.83 142.922L136.941 143.103C143.041 139.419 153.312 137.79 153.415 137.773L153.382 137.561C153.279 137.578 142.965 139.216 136.83 142.922Z" fill="#BEB8F2"/>
<path d="M141.792 143.747C148.831 148.501 149.603 155.528 149.611 155.6L149.824 155.579C149.817 155.507 149.035 148.382 141.912 143.571L141.792 143.747Z" fill="#BEB8F2"/>
<path d="M110.967 148.995C121.162 147.07 129.015 158.601 129.082 158.719L129.275 158.628C129.22 158.506 121.212 146.844 110.929 148.787L110.967 148.995Z" fill="#BEB8F2"/>
<path d="M114.847 147.193L114.973 147.367C120.343 143.495 121.553 135.258 121.564 135.175L121.352 135.146C121.341 135.227 120.143 143.376 114.847 147.193Z" fill="#BEB8F2"/>
<path d="M96.9447 156.358C100.658 155.041 105.784 158.896 105.836 158.935L105.966 158.765C105.753 158.602 100.698 154.799 96.873 156.156L96.9447 156.358Z" fill="#BEB8F2"/>
<path d="M99.5209 154.555L99.6394 154.733C102.231 153.004 103.465 147.369 103.871 145.518C103.928 145.256 103.978 145.03 103.994 144.992L103.8 144.904C103.775 144.958 103.742 145.107 103.663 145.472C103.262 147.303 102.041 152.873 99.5209 154.555Z" fill="#BEB8F2"/>
</g>
<path d="M119.859 149.032C120.418 151.716 118.708 153.755 117.24 155.034C116.986 154.963 116.823 154.989 116.551 154.972C114.106 154.839 113.09 154.262 110.7 153.75C110.186 153.64 108.774 152.857 108.218 152.5L107.191 151.819C107.191 151.819 106.67 145.528 110.196 144.839C113.721 144.15 113.984 138.112 114.518 134.931C114.846 132.978 115.621 132.189 115.857 131.49C118.352 124.096 116.694 121.252 118.982 119.346C121.508 117.242 124.25 120.106 127.12 117.962C130.359 115.541 129.036 110.264 132.614 108.658C133.227 108.382 133.865 108.116 134.762 108.099C136.975 108.059 138.314 109.707 140.236 108.421C144.1 105.835 149.258 105.985 151.239 110.348C153.191 114.654 147.952 120.617 137.917 123.745C131.034 126.783 130.588 128.154 130.165 131.682C129.869 134.154 130.703 141.051 126.623 142.543C122.543 144.036 119.219 145.962 119.859 149.032Z" fill="url(#paint2_linear_1940_7217)"/>
<g style="mix-blend-mode:soft-light" opacity="0.5">
<path d="M111.901 154.188L111.734 154.119C112.107 153.197 112.495 152.272 112.888 151.37C115.797 144.695 119.272 138.554 123.216 133.124C126.559 128.523 130.284 124.366 134.29 120.767C137.511 117.874 140.929 115.324 144.45 113.189C146.926 111.688 149.426 110.406 151.881 109.379C152.309 109.2 152.759 109.041 153.193 108.886C153.773 108.681 154.372 108.468 154.924 108.205L155.01 108.358C154.45 108.622 153.847 108.836 153.264 109.043C152.831 109.197 152.384 109.356 151.961 109.533C149.513 110.556 147.02 111.834 144.552 113.331C141.039 115.462 137.629 118.005 134.414 120.894C130.418 124.485 126.699 128.634 123.363 133.226C119.426 138.647 115.956 144.776 113.052 151.443C112.662 152.343 112.273 153.267 111.901 154.188Z" fill="#FCFDFE"/>
<path d="M129.745 125.475L129.606 125.361C134.37 119.963 134.582 107.535 134.583 107.41L134.761 107.423C134.76 107.548 134.547 120.033 129.745 125.475Z" fill="#FCFDFE"/>
<path d="M117.881 141.772L117.73 141.674C120.494 137.617 130.4 136.707 130.5 136.698L130.527 136.867C130.428 136.876 120.601 137.779 117.881 141.772Z" fill="#FCFDFE"/>
<path d="M116.53 144.215L116.365 144.142C117.629 141.203 117.662 136.456 116.458 130.775C116.398 130.489 116.398 130.489 116.41 130.459L116.576 130.53L116.493 130.495L116.584 130.499C116.584 130.518 116.608 130.626 116.635 130.751C117.843 136.465 117.807 141.246 116.53 144.215Z" fill="#FCFDFE"/>
<path d="M112.607 152.518L112.467 152.405C114.799 149.739 120.366 150.015 120.422 150.018V150.187C120.367 150.182 114.885 149.912 112.607 152.518Z" fill="#FCFDFE"/>
<path d="M111.636 154.126C111.674 151.248 110.844 148.216 109.099 144.857L109.257 144.789C111.015 148.174 111.852 151.232 111.814 154.138L111.636 154.126Z" fill="#FCFDFE"/>
<path d="M142.502 114.625L142.369 114.504C145.203 111.654 147.445 107.992 148.182 106.789C148.36 106.498 148.423 106.396 148.454 106.364L148.59 106.479C148.569 106.504 148.467 106.67 148.338 106.881C147.598 108.088 145.348 111.761 142.502 114.625Z" fill="#FCFDFE"/>
<path d="M137.134 118.567L137.043 118.417C140.456 116.657 148.183 118.952 148.51 119.052L148.465 119.214C148.386 119.186 140.483 116.84 137.134 118.567Z" fill="#FCFDFE"/>
</g>
<path d="M112.202 162.19C111.675 161.859 107.077 165.833 107.164 161.373C107.186 160.259 108.206 156.843 104.121 154.769L101.742 153.562C101.889 151.428 102.424 149.446 105.19 149.887C109.488 150.572 112.433 144.233 112.396 141.49C112.35 138.095 112.411 130.196 119.069 131.154C124.609 131.95 128.079 133.56 131.095 127.736C134.111 121.911 139.213 119.77 144.758 122.773C150.593 125.933 158.913 120.615 162.695 125.44C169.284 133.848 155.628 143.434 143.499 142.417C131.37 141.401 135.752 147.749 133.845 152.777C133.546 153.448 133.169 154.082 132.721 154.665C129.218 159.212 123.509 157.628 117.788 160.028C109.983 163.299 113.091 162.746 112.202 162.19Z" fill="url(#paint3_linear_1940_7217)"/>
<g style="mix-blend-mode:soft-light" opacity="0.5">
<path d="M109.335 156.517L109.081 156.335C121.874 138.953 143.597 128.149 165.774 128.142L165.789 128.442C143.706 128.45 122.074 139.206 109.335 156.517Z" fill="#FCFDFE"/>
<path d="M117.175 147.665L116.892 147.532C120.382 139.797 116.141 130.509 116.098 130.416L116.378 130.304C116.421 130.398 120.72 139.807 117.175 147.665Z" fill="#FCFDFE"/>
<path d="M111.781 153.386L111.59 153.142C118.619 148.073 134.039 154.107 134.194 154.169L134.09 154.446C133.937 154.385 118.676 148.413 111.781 153.386Z" fill="#FCFDFE"/>
<path d="M134.787 135.614L134.576 135.387C139.752 130.897 139.801 120.282 139.798 120.174L140.106 120.189C140.109 120.297 140.061 131.042 134.787 135.614Z" fill="#FCFDFE"/>
<path d="M147.914 130.756L147.868 130.457C155.892 129.717 164.8 136.371 164.889 136.438L164.708 136.672C164.621 136.605 155.813 130.027 147.914 130.756Z" fill="#FCFDFE"/>
</g>
<path d="M110.014 53.4955L122.758 159.42C122.949 161.01 121.855 162.432 120.321 162.585L67.2421 168.412C63.9907 168.614 62.2101 166.953 62.0099 165.264L48.6326 52.6481C48.4333 50.9679 50.0281 49.448 53.2936 49.448L106.856 50.576C108.404 50.6019 109.824 51.9156 110.014 53.4955Z" fill="url(#paint4_linear_1940_7217)"/>
<path d="M112.403 53.3135L125.217 159.765C125.409 161.362 124.311 162.793 122.772 162.944L67.7439 168.425C66.0183 168.597 64.4376 167.348 64.2359 165.651L50.781 52.4556C50.5808 50.7677 51.8478 49.4131 53.592 49.4403L109.23 50.379C110.786 50.4053 112.212 51.7254 112.403 53.3135Z" fill="url(#paint5_linear_1940_7217)"/>
<path d="M111.359 59.185L123.236 157.888C123.417 159.378 122.386 160.713 120.946 160.853L69.1939 165.884C67.5904 166.04 66.1205 164.875 65.9325 163.296L53.4989 58.7287C53.31 57.1565 54.4907 55.885 56.1082 55.9023L108.391 56.459C109.847 56.4731 111.181 57.6992 111.359 59.185Z" fill="url(#paint6_linear_1940_7217)"/>
<path d="M83.607 53.2404C83.6747 53.8066 83.2682 54.2603 82.6988 54.2535C82.1293 54.2467 81.6089 53.7798 81.5421 53.2122C81.4754 52.6446 81.8823 52.1909 82.4531 52.1991C83.0239 52.2073 83.5393 52.6736 83.607 53.2404Z" fill="url(#paint7_linear_1940_7217)"/>
<g style="mix-blend-mode:soft-light">
<path d="M102.412 125.441C91.8169 105.853 75.9902 99.989 71.2247 79.8024C68.649 68.8901 70.4041 58.4455 73.359 49.7747L53.5911 49.4414C51.8468 49.4119 50.5799 50.7688 50.7806 52.4567L64.2359 165.651C64.4376 167.348 66.0183 168.597 67.7439 168.425L111.001 164.118C111.321 146.566 107.135 134.172 102.412 125.441Z" fill="white"/>
</g>
<path d="M104.109 166.04C103.936 170.391 103.26 172.074 102.889 174.545H112.496L112.905 170.599C113.802 159.317 114.755 150.405 115.455 144.378C116.289 137.195 116.872 133.187 114.207 130.383C110.82 126.816 103.455 126.533 100.53 129.731C98.8729 131.544 99.2793 133.779 101.345 145.688C103.941 160.657 104.246 162.59 104.109 166.04Z" fill="url(#paint8_linear_1940_7217)"/>
<path style="mix-blend-mode:multiply" opacity="0.3" d="M104.109 166.04C103.868 172.085 102.656 172.98 102.644 177.994H108.625C108.696 177.473 108.738 176.949 108.753 176.424C108.901 171.288 106.437 170.006 106.8 165.189C107.147 160.561 109.535 160.225 110.22 155.664C111.014 150.368 108.069 148.983 107.045 142.722C106.111 137.009 107.463 131.441 108.871 127.719C105.71 127.143 102.305 127.794 100.532 129.733C98.8742 131.546 99.2807 133.781 101.346 145.689C103.941 160.657 104.246 162.59 104.109 166.04Z" fill="url(#paint9_linear_1940_7217)"/>
<path d="M103.028 132.35C100.552 128.101 93.4499 126.129 89.8678 128.571C87.8379 129.954 87.7194 132.223 86.9901 144.287C86.0737 159.454 85.9266 161.404 84.9993 164.729C83.9476 168.501 82.9967 170.08 82.1407 172.047C82.8037 172.228 83.4655 172.415 84.126 172.606C86.5119 173.299 88.8783 174.063 91.2102 174.918C91.6434 173.675 92.0765 172.432 92.5094 171.189C95.977 160.416 98.9546 151.962 101.022 146.258C103.489 139.459 104.976 135.693 103.028 132.35Z" fill="url(#paint10_linear_1940_7217)"/>
<path style="mix-blend-mode:multiply" opacity="0.3" d="M82.6524 173.161C84.2921 173.344 85.9084 173.696 87.4751 174.214C87.9951 170.454 86.5324 168.562 87.813 164.52C89.2148 160.095 91.6162 160.317 93.3313 156.037C95.3231 151.066 92.7746 149.04 93.2187 142.71C93.6238 136.935 96.2208 131.827 98.4469 128.529C95.5024 127.241 92.0398 127.091 89.8678 128.571C87.8379 129.954 87.7194 132.223 86.9901 144.287C86.0737 159.454 85.9266 161.404 84.9993 164.729C83.7732 169.132 82.6833 170.547 81.7188 173.078C82.0309 173.099 82.3421 173.127 82.6524 173.161Z" fill="url(#paint11_linear_1940_7217)"/>
<path d="M122.12 83.8947L123.793 81.9602C124.407 82.0056 134.529 82.8871 138.157 90.8749C138.657 91.9738 140.495 96.0227 138.736 99.2378C135.784 104.627 124.092 105.177 117.448 99.8795C112.226 95.7166 110.059 87.8909 112.162 85.9037C114.708 83.4969 124.809 88.4159 125.579 88.7905C127.123 89.5421 128.558 90.3853 128.73 90.1492C129.021 89.7482 125.387 86.6058 122.12 83.8947Z" fill="url(#paint12_linear_1940_7217)"/>
<path d="M139.266 59.9295L139.207 58.1163L141.354 57.0932C141.587 56.9821 141.85 56.9482 142.103 56.9966C142.357 57.0449 142.589 57.1729 142.765 57.362C144.681 59.4164 150.23 66.2812 149.227 75.9579C149.201 76.206 149.1 76.4402 148.937 76.6286C148.773 76.8171 148.556 76.9508 148.314 77.0114C147.685 77.1606 147.048 77.2727 146.407 77.347L139.266 59.9295Z" fill="url(#paint13_linear_1940_7217)"/>
<path d="M122.212 77.4163L121.531 81.7622C121.531 81.7622 121.159 82.9583 121.191 83.4828C120.509 83.9337 119.243 83.8207 119.243 83.8207L118.525 78.3963L122.081 77.3555L122.212 77.4163Z" fill="url(#paint14_linear_1940_7217)"/>
<path d="M123.48 82.6646L122.615 81.1238C122.615 81.1238 121.703 79.894 119.88 80.0312C118.056 80.1683 118.275 81.121 118.275 81.121L119.504 81.2228C119.504 81.2228 120.298 81.2836 121.038 82.2618C121.986 83.2154 122.819 83.5733 122.819 83.5733L123.48 82.6646Z" fill="url(#paint15_linear_1940_7217)"/>
<path d="M115.547 74.5568C115.547 74.5568 133.282 66.4513 139.206 58.1179C147.752 64.0214 146.407 77.3487 146.407 77.3487C146.407 77.3487 125.2 76.9227 117.271 79.6029C115.211 78.3309 115.547 74.5568 115.547 74.5568Z" fill="url(#paint16_linear_1940_7217)"/>
<path d="M154.098 79.3486C153.861 79.1586 153.679 78.9085 153.571 78.6243C153.464 78.3401 153.434 78.0323 153.486 77.7329C156.483 60.3249 145.906 53.7012 145.802 53.6381C145.611 53.5225 145.445 53.3704 145.312 53.1905C145.18 53.0105 145.084 52.8063 145.031 52.5894C144.978 52.3726 144.967 52.1473 145.001 51.9265C145.035 51.7057 145.112 51.4937 145.227 51.3026C145.343 51.1115 145.495 50.9451 145.675 50.8128C145.855 50.6804 146.059 50.5849 146.276 50.5315C146.493 50.4781 146.718 50.4679 146.939 50.5016C147.16 50.5353 147.372 50.6121 147.563 50.7277C148.084 51.0415 160.227 58.6397 156.838 78.31C156.787 78.6016 156.662 78.8749 156.474 79.1031C156.285 79.3314 156.041 79.5066 155.764 79.6114C155.488 79.7163 155.188 79.7472 154.896 79.7011C154.604 79.655 154.329 79.5335 154.098 79.3486Z" fill="url(#paint17_linear_1940_7217)"/>
<path d="M100.901 86.177C102.867 85.89 106.049 86.1866 109.248 83.9973C110.211 83.3384 113.622 81.0033 113.471 77.3259C113.34 74.0881 110.409 72.1563 110.049 71.9256C107.972 70.5942 105.804 70.7136 103.398 70.8812C100.277 71.0969 99.193 71.8725 97.0055 72.308C91.5939 73.3847 89.9963 70.2736 84.6274 70.1673C77.7653 70.0311 76.8353 75.0436 71.0712 74.7843C64.6006 74.4927 63.7863 68.0866 57.4787 66.5876C48.7234 64.5059 34.6914 73.139 34.2227 84.1472C33.9535 90.5047 38.1917 98.0943 44.082 100.682C47.5146 102.19 51.3387 102.041 52.2687 104.401C52.9313 106.081 51.113 107.22 51.088 110.067C51.0535 113.739 54.0307 116.516 54.5116 116.965C58.9741 121.129 69.6875 119.894 77.2789 114.935C90.9681 105.99 90.2098 87.7383 100.901 86.177Z" fill="url(#paint18_linear_1940_7217)"/>
<path d="M91.5717 82.1069C96.5433 82.4248 102.692 82.8907 108.936 83.9779C122.36 86.3147 121.376 93.0056 118.515 98.9736C115.596 105.064 115.311 110.596 115.229 112.565C115.097 115.738 115.502 118.316 116.311 123.472C117.719 132.429 119.071 134.556 117.511 136.717C115.236 139.868 109.492 139.318 108.486 139.202C103.391 138.612 102.509 135.539 98.2312 134.775C93.261 133.887 91.8505 137.569 84.7182 139.631C76.2999 142.064 65.774 140.562 61.2302 134.73C59.4759 132.478 58.456 129.463 59.3338 128.592C60.529 127.409 64.1474 131.289 68.3588 130.13C71.1475 129.362 71.0426 127.251 74.4439 125.427C78.5359 123.232 80.7243 125.198 83.4935 123.789C87.813 121.592 87.4056 114.311 88.5418 102.446C89.1994 95.6186 90.2107 88.8297 91.5717 82.1069Z" fill="url(#paint19_linear_1940_7217)"/>
<path d="M91.5717 82.1068C84.3367 81.9733 81.2538 89.3063 73.6261 90.2809C69.0041 90.8712 62.2837 89.1824 53.1529 79.0361L48.8692 80.6773C49.7189 89.2932 53.3513 94.3402 55.1564 96.484C65.4707 108.732 86.5237 109.795 98.5745 100.7C102.356 97.8459 104.606 94.4787 105.856 92.2494C102.558 87.5317 97.6531 82.2213 91.5717 82.1068Z" fill="url(#paint20_linear_1940_7217)"/>
<path d="M107.732 77.6181C107.633 77.5358 107.515 77.4783 107.389 77.4502C107.263 77.4221 107.132 77.4243 107.007 77.4566C106.882 77.4888 106.766 77.5502 106.67 77.6358C106.573 77.7213 106.498 77.8286 106.451 77.9487C105.88 79.3774 104.737 81.7964 103.366 82.3282C101.39 83.0924 98.5337 82.5062 98.1436 82.8363C97.7535 83.1665 106.405 88.4187 112.518 86.7063C112.561 86.6943 112.603 86.6791 112.644 86.6609L112.996 86.501C113.695 86.1831 113.61 85.1659 112.869 84.967C111.733 84.6619 108.773 83.5924 108.1 82.2255C108.024 82.0689 108.079 80.8796 108.113 80.7084L108.487 78.8011C108.515 78.6565 108.504 78.5068 108.454 78.3681C108.405 78.2293 108.319 78.1065 108.205 78.0127L107.732 77.6181Z" fill="url(#paint21_linear_1940_7217)"/>
<path d="M106.254 78.53C106.254 78.53 107.109 80.3296 109.042 80.0104C110.772 79.7248 110.593 75.3603 109.398 74.6414C109 74.4021 108.199 74.3236 107.612 74.5533C107.199 74.7145 105.98 75.7554 106.287 77.2371C105.901 77.0419 105.52 77.0818 105.392 77.2671C105.229 77.5028 105.51 77.9178 105.574 78.0118C105.741 78.2514 105.979 78.4326 106.254 78.53Z" fill="url(#paint22_linear_1940_7217)"/>
<path d="M51.9517 79.4968L51.3614 78.1104C51.3614 78.1104 55.2168 72.661 52.4313 71.5589C49.6458 70.4567 50.3392 72.1338 50.6098 72.9308C50.8805 73.7277 50.1902 76.2199 49.644 76.9587C49.0977 77.6976 49.7843 80.3278 49.7843 80.3278L51.9517 79.4968Z" fill="url(#paint23_linear_1940_7217)"/>
<path style="mix-blend-mode:multiply" opacity="0.3" d="M72.9276 135.065C74.8058 133.964 73.7314 131.484 75.8943 129.684C77.8738 128.038 79.8388 129.23 83.2287 128.503C87.3039 127.632 90.6198 124.594 92.2337 121.854C93.384 119.901 93.3917 118.571 93.1556 108.15C92.9285 98.226 92.8414 95.7983 91.5953 95.3951C89.3279 94.6589 86.7753 101.767 82.2578 101.464C79.7062 101.293 79.5159 98.9576 76.383 97.5339C71.0658 95.118 66.8425 99.676 61.0235 99.1047C59.5359 98.9589 57.7539 98.449 55.769 97.152C63.6251 105.826 77.0446 108.508 88.2662 105.573C87.4429 115.589 87.417 121.796 83.4925 123.792C80.7225 125.199 78.535 123.234 74.4426 125.43C71.0422 127.253 71.1475 129.364 68.3574 130.132C64.1478 131.291 60.5277 127.411 59.3324 128.594C58.5364 129.383 59.3084 131.932 60.7661 134.081C61.78 133.732 62.8428 133.547 63.9149 133.531C68.243 133.483 70.712 136.365 72.9276 135.065Z" fill="url(#paint24_linear_1940_7217)"/>
</g>
</svg>
