<svg width="50" height="50" viewBox="0 0 50 50" fill="none" xmlns="http://www.w3.org/2000/svg">
<rect width="50" height="50" rx="15" fill="#6C8DFF"/>
<path d="M33.1 22.2199C31.29 22.2199 30.55 20.9399 31.45 19.3699C31.97 18.4599 31.66 17.2999 30.75 16.7799L29.02 15.7899C28.23 15.3199 27.21 15.5999 26.74 16.3899L26.63 16.5799C25.73 18.1499 24.25 18.1499 23.34 16.5799L23.23 16.3899C22.78 15.5999 21.76 15.3199 20.97 15.7899L19.24 16.7799C18.33 17.2999 18.02 18.4699 18.54 19.3799C19.45 20.9399 18.71 22.2199 16.9 22.2199C15.86 22.2199 15 23.0699 15 24.1199V25.8799C15 26.9199 15.85 27.7799 16.9 27.7799C18.71 27.7799 19.45 29.0599 18.54 30.6299C18.02 31.5399 18.33 32.6999 19.24 33.2199L20.97 34.2099C21.76 34.6799 22.78 34.3999 23.25 33.6099L23.36 33.4199C24.26 31.8499 25.74 31.8499 26.65 33.4199L26.76 33.6099C27.23 34.3999 28.25 34.6799 29.04 34.2099L30.77 33.2199C31.68 32.6999 31.99 31.5299 31.47 30.6299C30.56 29.0599 31.3 27.7799 33.11 27.7799C34.15 27.7799 35.01 26.9299 35.01 25.8799V24.1199C35 23.0799 34.15 22.2199 33.1 22.2199ZM25 28.2499C23.21 28.2499 21.75 26.7899 21.75 24.9999C21.75 23.2099 23.21 21.7499 25 21.7499C26.79 21.7499 28.25 23.2099 28.25 24.9999C28.25 26.7899 26.79 28.2499 25 28.2499Z" fill="white"/>
</svg>
