<svg width="50" height="50" viewBox="0 0 50 50" fill="none" xmlns="http://www.w3.org/2000/svg">
<rect width="50" height="50" rx="15" fill="#FA9F18"/>
<path d="M20.6501 33.9101C20.6201 33.9101 20.5801 33.9301 20.5501 33.9301C18.6101 32.9701 17.0301 31.3801 16.0601 29.4401C16.0601 29.4101 16.0801 29.3701 16.0801 29.3401C17.3001 29.7001 18.5601 29.9701 19.8101 30.1801C20.0301 31.4401 20.2901 32.6901 20.6501 33.9101Z" fill="white"/>
<path d="M33.94 29.4501C32.95 31.4401 31.3 33.0501 29.29 34.0201C29.67 32.7501 29.99 31.4701 30.2 30.1801C31.46 29.9701 32.7 29.7001 33.92 29.3401C33.91 29.3801 33.94 29.4201 33.94 29.4501Z" fill="white"/>
<path d="M34.02 20.71C32.76 20.33 31.49 20.02 30.2 19.8C29.99 18.51 29.68 17.23 29.29 15.98C31.36 16.97 33.03 18.64 34.02 20.71Z" fill="white"/>
<path d="M20.65 16.0901C20.29 17.3101 20.03 18.5501 19.82 19.8101C18.53 20.0101 17.25 20.3301 15.98 20.7101C16.95 18.7001 18.56 17.0501 20.55 16.0601C20.58 16.0601 20.62 16.0901 20.65 16.0901Z" fill="white"/>
<path d="M28.49 19.59C26.17 19.33 23.83 19.33 21.51 19.59C21.76 18.22 22.08 16.85 22.53 15.53C22.55 15.45 22.54 15.39 22.55 15.31C23.34 15.12 24.15 15 25 15C25.84 15 26.66 15.12 27.44 15.31C27.45 15.39 27.45 15.45 27.47 15.53C27.92 16.86 28.24 18.22 28.49 19.59Z" fill="white"/>
<path d="M19.59 28.49C18.21 28.24 16.85 27.92 15.53 27.47C15.45 27.45 15.39 27.46 15.31 27.45C15.12 26.66 15 25.85 15 25C15 24.16 15.12 23.34 15.31 22.56C15.39 22.55 15.45 22.55 15.53 22.53C16.86 22.09 18.21 21.76 19.59 21.51C19.34 23.83 19.34 26.17 19.59 28.49Z" fill="white"/>
<path d="M35 25C35 25.85 34.88 26.66 34.69 27.45C34.61 27.46 34.55 27.45 34.47 27.47C33.14 27.91 31.78 28.24 30.41 28.49C30.67 26.17 30.67 23.83 30.41 21.51C31.78 21.76 33.15 22.08 34.47 22.53C34.55 22.55 34.61 22.56 34.69 22.56C34.88 23.35 35 24.16 35 25Z" fill="white"/>
<path d="M28.49 30.4099C28.24 31.7899 27.92 33.1499 27.47 34.4699C27.45 34.5499 27.45 34.6099 27.44 34.6899C26.66 34.8799 25.84 34.9999 25 34.9999C24.15 34.9999 23.34 34.8799 22.55 34.6899C22.54 34.6099 22.55 34.5499 22.53 34.4699C22.09 33.1399 21.76 31.7899 21.51 30.4099C22.67 30.5399 23.83 30.6299 25 30.6299C26.17 30.6299 27.34 30.5399 28.49 30.4099Z" fill="white"/>
<path d="M28.7633 28.7633C26.2622 29.0789 23.7378 29.0789 21.2367 28.7633C20.9211 26.2622 20.9211 23.7378 21.2367 21.2367C23.7378 20.9211 26.2622 20.9211 28.7633 21.2367C29.0789 23.7378 29.0789 26.2622 28.7633 28.7633Z" fill="white"/>
</svg>
