<svg width="50" height="50" viewBox="0 0 50 50" fill="none" xmlns="http://www.w3.org/2000/svg">
<rect width="50" height="50" rx="15" fill="#2ECC71"/>
<path d="M25 15C22.38 15 20.25 17.13 20.25 19.75C20.25 22.32 22.26 24.4 24.88 24.49C24.96 24.48 25.04 24.48 25.1 24.49C25.12 24.49 25.13 24.49 25.15 24.49C25.16 24.49 25.16 24.49 25.17 24.49C27.73 24.4 29.74 22.32 29.75 19.75C29.75 17.13 27.62 15 25 15Z" fill="white"/>
<path d="M30.08 27.1499C27.29 25.2899 22.74 25.2899 19.93 27.1499C18.66 27.9999 17.96 29.1499 17.96 30.3799C17.96 31.6099 18.66 32.7499 19.92 33.5899C21.32 34.5299 23.16 34.9999 25 34.9999C26.84 34.9999 28.68 34.5299 30.08 33.5899C31.34 32.7399 32.04 31.5999 32.04 30.3599C32.03 29.1299 31.34 27.9899 30.08 27.1499Z" fill="white"/>
</svg>
