<svg width="50" height="50" viewBox="0 0 50 50" fill="none" xmlns="http://www.w3.org/2000/svg">
<rect width="50" height="50" rx="15" fill="#FF5D74"/>
<path d="M29.83 28.6399C30.5 28.1999 31.38 28.6799 31.38 29.4799V30.7699C31.38 32.0399 30.39 33.3999 29.2 33.7999L26.01 34.8599C25.45 35.0499 24.54 35.0499 23.99 34.8599L20.8 33.7999C19.6 33.3999 18.62 32.0399 18.62 30.7699V29.4699C18.62 28.6799 19.5 28.1999 20.16 28.6299L22.22 29.9699C23.01 30.4999 24.01 30.7599 25.01 30.7599C26.01 30.7599 27.01 30.4999 27.8 29.9699L29.83 28.6399Z" fill="white"/>
<path d="M32.98 19.4601L26.99 15.5301C25.91 14.8201 24.13 14.8201 23.05 15.5301L17.03 19.4601C15.1 20.7101 15.1 23.5401 17.03 24.8001L18.63 25.8401L23.05 28.7201C24.13 29.4301 25.91 29.4301 26.99 28.7201L31.38 25.8401L32.75 24.9401V28.0001C32.75 28.4101 33.09 28.7501 33.5 28.7501C33.91 28.7501 34.25 28.4101 34.25 28.0001V23.0801C34.65 21.7901 34.24 20.2901 32.98 19.4601Z" fill="white"/>
</svg>
