<svg width="14" height="14" viewBox="0 0 14 14" fill="none" xmlns="http://www.w3.org/2000/svg">
<path d="M3.904 8.12162C4.12733 8.12162 4.34151 8.03291 4.49943 7.87499C4.65735 7.71707 4.74606 7.50289 4.74606 7.27956C4.74606 7.05623 4.65735 6.84205 4.49943 6.68413C4.34151 6.52622 4.12733 6.4375 3.904 6.4375C3.68067 6.4375 3.46649 6.52622 3.30857 6.68413C3.15065 6.84205 3.06194 7.05623 3.06194 7.27956C3.06194 7.50289 3.15065 7.71707 3.30857 7.87499C3.46649 8.03291 3.68067 8.12162 3.904 8.12162ZM4.74663 10.0926C4.74663 10.316 4.65791 10.5301 4.49999 10.6881C4.34207 10.846 4.12789 10.9347 3.90456 10.9347C3.68123 10.9347 3.46705 10.846 3.30913 10.6881C3.15122 10.5301 3.0625 10.316 3.0625 10.0926C3.0625 9.8693 3.15122 9.65511 3.30913 9.4972C3.46705 9.33928 3.68123 9.25056 3.90456 9.25056C4.12789 9.25056 4.34207 9.33928 4.49999 9.4972C4.65791 9.65511 4.74663 9.8693 4.74663 10.0926ZM7 8.1205C7.22318 8.1205 7.43722 8.03184 7.59503 7.87403C7.75284 7.71622 7.8415 7.50218 7.8415 7.279C7.8415 7.05582 7.75284 6.84178 7.59503 6.68397C7.43722 6.52616 7.22318 6.4375 7 6.4375C6.77667 6.4375 6.56249 6.52622 6.40457 6.68413C6.24665 6.84205 6.15794 7.05623 6.15794 7.27956C6.15794 7.50289 6.24665 7.71707 6.40457 7.87499C6.56249 8.03291 6.77667 8.12162 7 8.12162V8.1205ZM7.84262 10.0915C7.84262 10.3148 7.75391 10.529 7.59599 10.6869C7.43807 10.8448 7.22389 10.9336 7.00056 10.9336C6.77723 10.9336 6.56305 10.8448 6.40513 10.6869C6.24722 10.529 6.1585 10.3148 6.1585 10.0915C6.1585 9.86817 6.24722 9.65399 6.40513 9.49607C6.56305 9.33815 6.77723 9.24944 7.00056 9.24944C7.22389 9.24944 7.43807 9.33815 7.59599 9.49607C7.75391 9.65399 7.84262 9.86817 7.84262 10.0915ZM10.0926 8.1205C10.316 8.1205 10.5301 8.03178 10.6881 7.87387C10.846 7.71595 10.9347 7.50177 10.9347 7.27844C10.9347 7.05511 10.846 6.84093 10.6881 6.68301C10.5301 6.52509 10.316 6.43638 10.0926 6.43638C9.8693 6.43638 9.65511 6.52509 9.4972 6.68301C9.33928 6.84093 9.25056 7.05511 9.25056 7.27844C9.25056 7.50177 9.33928 7.71595 9.4972 7.87387C9.65511 8.03178 9.8693 8.1205 10.0926 8.1205ZM13.75 3.0625C13.75 2.31658 13.4537 1.60121 12.9262 1.07376C12.3988 0.546316 11.6834 0.25 10.9375 0.25H3.0625C2.31658 0.25 1.60121 0.546316 1.07376 1.07376C0.546316 1.60121 0.25 2.31658 0.25 3.0625V10.9375C0.25 11.6834 0.546316 12.3988 1.07376 12.9262C1.60121 13.4537 2.31658 13.75 3.0625 13.75H10.9375C11.6834 13.75 12.3988 13.4537 12.9262 12.9262C13.4537 12.3988 13.75 11.6834 13.75 10.9375V3.0625ZM1.375 4.75H12.625V10.9375C12.625 11.3851 12.4472 11.8143 12.1307 12.1307C11.8143 12.4472 11.3851 12.625 10.9375 12.625H3.0625C2.61495 12.625 2.18572 12.4472 1.86926 12.1307C1.55279 11.8143 1.375 11.3851 1.375 10.9375V4.75ZM3.0625 1.375H10.9375C11.3851 1.375 11.8143 1.55279 12.1307 1.86926C12.4472 2.18572 12.625 2.61495 12.625 3.0625V3.625H1.375V3.0625C1.375 2.61495 1.55279 2.18572 1.86926 1.86926C2.18572 1.55279 2.61495 1.375 3.0625 1.375Z" fill="#808080"/>
</svg>
