<svg width="24" height="24" viewBox="0 0 24 24" fill="none" xmlns="http://www.w3.org/2000/svg">
<path d="M18.25 21.25H5.75C4.09296 21.25 2.75 19.907 2.75 18.25V5.75C2.75 4.09296 4.09296 2.75 5.75 2.75H18.25C19.907 2.75 21.25 4.09296 21.25 5.75V18.25C21.25 19.907 19.907 21.25 18.25 21.25Z" stroke="#2F2F2F" stroke-width="1.5"/>
<path d="M12.0004 9.05859L11.4663 8.51779L10.9336 7.97834L10.9334 7.97808C10.4678 7.50619 9.85542 7.25 9.2007 7.25C8.54667 7.25 7.93355 7.50623 7.46807 7.97803L12.0004 9.05859ZM12.0004 9.05859L12.534 8.51742M12.0004 9.05859L12.534 8.51742M12.534 8.51742L13.0663 7.97766C13.0664 7.97757 13.0665 7.97748 13.0665 7.97739C13.5321 7.50621 14.1453 7.25 14.7993 7.25C15.4533 7.25 16.0665 7.50623 16.5319 7.97803L12.534 8.51742ZM7.46775 11.5026L7.46792 11.5028L12 16.0951L16.5321 11.5028L16.5321 11.5027C17.4892 10.533 17.4894 8.94886 16.532 7.97808L7.46775 11.5026ZM7.46775 11.5026C6.51094 10.5337 6.51047 8.94895 7.46801 7.97808L7.46775 11.5026Z" stroke="#2F2F2F" stroke-width="1.5"/>
</svg>
