<svg width="14" height="12" viewBox="0 0 14 12" fill="none" xmlns="http://www.w3.org/2000/svg">
<path fill-rule="evenodd" clip-rule="evenodd" d="M1 2.57171V9.42885C1 9.88351 1.18061 10.3195 1.5021 10.641C1.82359 10.9625 2.25963 11.1431 2.71429 11.1431H11.2857C11.7404 11.1431 12.1764 10.9625 12.4979 10.641C12.8194 10.3195 13 9.88351 13 9.42885V2.57171C13 2.11705 12.8194 1.68102 12.4979 1.35952C12.1764 1.03803 11.7404 0.857422 11.2857 0.857422H2.71429C2.25963 0.857422 1.82359 1.03803 1.5021 1.35952C1.18061 1.68102 1 2.11705 1 2.57171V2.57171Z" stroke="#808080" stroke-linecap="round" stroke-linejoin="round"/>
<path d="M2.71429 3.42871L7.00001 6.00014L11.2857 3.42871" stroke="#808080" stroke-linecap="round" stroke-linejoin="round"/>
</svg>
