<svg width="215" height="215" viewBox="0 0 215 215" fill="none" xmlns="http://www.w3.org/2000/svg">
<path d="M215 164.432H0V164.539H215V164.432Z" fill="#EBEBEB"/>
<path d="M135.738 167.36H124.79V167.468H135.738V167.36Z" fill="#EBEBEB"/>
<path d="M195.839 169.687H169.897V169.794H195.839V169.687Z" fill="#EBEBEB"/>
<path d="M122.46 167.412H95.6577V167.519H122.46V167.412Z" fill="#EBEBEB"/>
<path d="M78.2771 170.628H72.6699V170.736H78.2771V170.628Z" fill="#EBEBEB"/>
<path d="M109.259 170.628H83.7253V170.736H109.259V170.628Z" fill="#EBEBEB"/>
<path d="M39.0914 168.813H22.5579V168.921H39.0914V168.813Z" fill="#EBEBEB"/>
<path d="M101.91 145.254H18.8814C18.231 145.253 17.6076 144.994 17.148 144.533C16.6885 144.073 16.4304 143.449 16.4304 142.799V26.0837C16.4361 25.437 16.6967 24.8186 17.1556 24.3629C17.6145 23.9072 18.2347 23.651 18.8814 23.6499H101.91C102.561 23.6499 103.186 23.9086 103.646 24.369C104.107 24.8295 104.365 25.454 104.365 26.1052V142.799C104.365 143.45 104.107 144.074 103.646 144.535C103.186 144.995 102.561 145.254 101.91 145.254ZM18.8814 23.7359C18.2595 23.737 17.6634 23.9849 17.2241 24.4251C16.7847 24.8652 16.5379 25.4618 16.5379 26.0837V142.799C16.5379 143.421 16.7847 144.017 17.2241 144.457C17.6634 144.897 18.2595 145.145 18.8814 145.146H101.91C102.532 145.145 103.129 144.898 103.569 144.457C104.009 144.017 104.257 143.421 104.258 142.799V26.0837C104.257 25.4614 104.009 24.8649 103.569 24.4248C103.129 23.9848 102.532 23.737 101.91 23.7359H18.8814Z" fill="#EBEBEB"/>
<path d="M194.923 145.254H111.89C111.24 145.253 110.616 144.994 110.155 144.534C109.695 144.073 109.436 143.449 109.435 142.799V26.0837C109.442 25.4366 109.703 24.8182 110.163 24.3627C110.623 23.9071 111.243 23.651 111.89 23.6499H194.923C195.569 23.6521 196.188 23.9089 196.646 24.3644C197.104 24.82 197.364 25.4377 197.37 26.0837V142.799C197.37 143.448 197.113 144.072 196.654 144.532C196.195 144.992 195.573 145.252 194.923 145.254ZM111.89 23.7359C111.268 23.737 110.672 23.9848 110.231 24.4248C109.791 24.8649 109.544 25.4614 109.543 26.0837V142.799C109.544 143.421 109.791 144.017 110.231 144.457C110.672 144.898 111.268 145.145 111.89 145.146H194.923C195.546 145.145 196.142 144.898 196.582 144.457C197.022 144.017 197.27 143.421 197.271 142.799V26.0837C197.27 25.4614 197.022 24.8649 196.582 24.4248C196.142 23.9848 195.546 23.737 194.923 23.7359H111.89Z" fill="#EBEBEB"/>
<path d="M84.2627 127.138H55.7107L53.9778 107.143H82.5298L84.2627 127.138Z" fill="#E6E6E6"/>
<path d="M85.7419 127.138H57.1899L55.457 107.143H84.009L85.7419 127.138Z" fill="#F0F0F0"/>
<path d="M61.0945 122.842L60.1399 111.434H80.1048L81.0594 122.842H61.0945Z" fill="white"/>
<path d="M90.6827 127.138H87.333V164.432H90.6827V127.138Z" fill="#E6E6E6"/>
<path d="M91.7406 127.138H89.4143V164.432H91.7406V127.138Z" fill="#F0F0F0"/>
<path d="M59.3142 131.253H91.7405V127.138H59.3142V131.253Z" fill="#F0F0F0"/>
<path d="M60.4581 131.253H57.1084V164.432H60.4581V131.253Z" fill="#E6E6E6"/>
<path d="M61.5158 131.253H59.1895V164.432H61.5158V131.253Z" fill="#F0F0F0"/>
<path d="M36.6146 131.253H33.2649V164.432H36.6146V131.253Z" fill="#E6E6E6"/>
<path d="M37.6722 131.253H35.3459V164.432H37.6722V131.253Z" fill="#F0F0F0"/>
<path d="M69.4837 131.253H66.134V164.432H69.4837V131.253Z" fill="#E6E6E6"/>
<path d="M70.5372 131.253H68.2109V164.432H70.5372V131.253Z" fill="#F0F0F0"/>
<path d="M59.3143 127.138H33.2649V131.253H59.3143V127.138Z" fill="#E6E6E6"/>
<path d="M156.451 34.1462H55.6892V90.244H156.451V34.1462Z" fill="#E0E0E0"/>
<path d="M161.985 34.1462H56.1968V90.244H161.985V34.1462Z" fill="#F5F5F5"/>
<path d="M160.257 88.5154V35.8748L57.9252 35.8748V88.5154H160.257Z" fill="white"/>
<path d="M99.3601 88.5154L118.68 35.8748H86.7955L67.4756 88.5154H99.3601Z" fill="#F5F5F5"/>
<path d="M130.049 88.5154L149.369 35.8748H125.315L105.995 88.5154H130.049Z" fill="#F5F5F5"/>
<path d="M188.387 110.854H179.822V164.432H188.387V110.854Z" fill="#E6E6E6"/>
<path d="M186.134 164.432H188.387V160.308H183.773L186.134 164.432Z" fill="#FAFAFA"/>
<path d="M109.413 110.854H100.848V164.432H109.413V110.854Z" fill="#E6E6E6"/>
<path d="M188.387 110.854H107.448V163.318H188.387V110.854Z" fill="#FAFAFA"/>
<path d="M186.856 127.783H108.983V112.965H186.856V127.783ZM109.413 127.353H186.426V113.395H109.413V127.353Z" fill="#E6E6E6"/>
<path d="M173.148 120.159H124.201C121.931 120.159 119.742 118.327 118.181 115.128L118.035 114.823H179.31L179.164 115.128C177.59 118.327 175.44 120.159 173.148 120.159ZM118.74 115.24C120.194 118.091 122.18 119.716 124.201 119.716H173.148C175.178 119.716 177.156 118.091 178.609 115.24H118.74Z" fill="#E6E6E6"/>
<path d="M109.702 164.432H107.448V160.308H112.062L109.702 164.432Z" fill="#FAFAFA"/>
<path d="M186.856 144.48H108.983V129.679H186.856V144.48ZM109.413 144.05H186.426V130.109H109.413V144.05Z" fill="#E6E6E6"/>
<path d="M173.148 136.873H124.201C121.931 136.873 119.742 135.037 118.181 131.842L118.035 131.533H179.31L179.164 131.842C177.59 135.02 175.44 136.873 173.148 136.873ZM118.74 131.963C120.194 134.814 122.18 136.443 124.201 136.443H173.148C175.178 136.443 177.156 134.814 178.609 131.963H118.74Z" fill="#E6E6E6"/>
<path d="M186.856 161.207H108.983V146.389H186.856V161.207ZM109.413 160.777H186.426V146.819H109.413V160.777Z" fill="#E6E6E6"/>
<path d="M173.148 153.583H124.201C121.931 153.583 119.742 151.751 118.181 148.556L118.035 148.247H179.31L179.164 148.556C177.59 151.751 175.44 153.583 173.148 153.583ZM118.74 148.677C120.194 151.527 122.18 153.153 124.201 153.153H173.148C175.178 153.153 177.156 151.527 178.609 148.677H118.74Z" fill="#E6E6E6"/>
<path d="M52.0215 117.94V118.981H51.3593L50.8089 127.138H42.7077L42.1616 118.981H41.4951V117.94H52.0215Z" fill="#E6E6E6"/>
<path d="M49.3553 97.7003C48.6931 92.8413 42.1356 91.4567 33.8151 91.2761C25.8988 91.1084 23.3618 88.3091 23.3618 88.3091C23.3618 88.3091 23.3876 99.6482 34.7955 103.759C45.6272 107.655 50.0218 102.568 49.3553 97.7003Z" fill="#E6E6E6"/>
<path d="M45.3133 108.713C45.4509 106.717 48.6415 103.045 56.317 104.714C61.864 105.922 63.928 103.045 63.928 103.045C63.928 103.045 63.4121 111.164 55.0701 113.602C47.1452 115.919 45.0682 112.23 45.3133 108.713Z" fill="#E6E6E6"/>
<path d="M47.0634 121.002C47.1066 121.002 47.1494 120.993 47.1888 120.975C47.2281 120.958 47.2631 120.931 47.2913 120.899C47.846 120.241 47.3902 118.667 46.7624 116.487C45.954 113.692 44.9478 110.209 45.7992 107.685C46.2711 106.351 46.8225 105.048 47.4504 103.78C48.6544 101.235 49.695 99.0503 48.8264 96.7369C48.8128 96.7001 48.7921 96.6664 48.7655 96.6376C48.7388 96.6089 48.7067 96.5857 48.671 96.5694C48.6353 96.5532 48.5967 96.5441 48.5575 96.5429C48.5183 96.5416 48.4793 96.5481 48.4426 96.5621C48.4059 96.576 48.3724 96.597 48.3439 96.624C48.3155 96.651 48.2926 96.6833 48.2767 96.7192C48.2608 96.755 48.2522 96.7937 48.2513 96.8329C48.2505 96.8721 48.2574 96.9111 48.2717 96.9476C49.05 99.0073 48.1083 101.003 46.9129 103.531C46.277 104.819 45.7171 106.142 45.2359 107.496C44.3286 110.196 45.3606 113.778 46.1905 116.65C46.6807 118.37 47.1881 120.09 46.8398 120.52C46.8121 120.55 46.791 120.585 46.7776 120.623C46.7643 120.662 46.7591 120.702 46.7623 120.743C46.7656 120.783 46.7772 120.823 46.7964 120.858C46.8157 120.894 46.8422 120.925 46.8742 120.95C46.9291 120.989 46.9962 121.008 47.0634 121.002Z" fill="#E6E6E6"/>
<path d="M107.5 183.851C153.545 183.851 190.873 181.672 190.873 178.983C190.873 176.295 153.545 174.116 107.5 174.116C61.4544 174.116 24.1272 176.295 24.1272 178.983C24.1272 181.672 61.4544 183.851 107.5 183.851Z" fill="#F5F5F5"/>
<path d="M107.483 155.251H46.4229L43.0818 57.0522H104.142L107.483 155.251Z" fill="#00677D"/>
<path d="M110.532 152.203H49.4716L46.1262 54.0037H107.186L110.532 152.203Z" fill="#00677D"/>
<path opacity="0.3" d="M110.532 152.203H49.4716L46.1262 54.0037H107.186L110.532 152.203Z" fill="white"/>
<path d="M90.0733 94.4124C96.6111 87.7618 96.333 76.887 89.4521 70.1228C82.5712 63.3586 71.6931 63.2664 65.1554 69.917C58.6176 76.5676 58.8957 87.4425 65.7766 94.2067C72.6575 100.971 83.5355 101.063 90.0733 94.4124Z" fill="#00677D"/>
<path d="M91.7922 82.1686C91.8801 84.5085 91.3695 86.8322 90.3087 88.9196C89.1637 91.1692 87.4146 93.0553 85.2575 94.3662C83.1005 95.6772 80.6208 96.3611 78.0967 96.3414C75.5133 96.3275 72.9789 95.6344 70.7479 94.3317C68.517 93.0291 66.6678 91.1626 65.3859 88.9196C64.1906 86.8643 63.5229 84.5449 63.4423 82.1686C63.363 80.3261 63.6591 78.4867 64.3126 76.7622C64.9662 75.0376 65.9635 73.4639 67.244 72.1368C68.5245 70.8096 70.0615 69.7566 71.7616 69.0418C73.4617 68.327 75.2893 67.9653 77.1335 67.9786C80.9326 68.0055 84.5754 69.4949 87.3052 72.1374C90.035 74.7799 91.6419 78.3723 91.7922 82.1686Z" fill="white"/>
<path opacity="0.6" d="M90.3 88.9198C89.155 91.1693 87.4059 93.0554 85.2488 94.3663C83.0918 95.6773 80.6121 96.3613 78.088 96.3416C75.5046 96.3276 72.9703 95.6345 70.7393 94.3319C68.5083 93.0292 66.6591 91.1628 65.3772 88.9198C69.0138 86.4404 73.3169 85.1225 77.7182 85.1401C82.1904 85.1497 86.5628 86.4632 90.3 88.9198Z" fill="#00677D"/>
<path opacity="0.6" d="M82.032 81.815C84.436 79.3696 84.3338 75.3708 81.8036 72.8835C79.2734 70.3963 75.2735 70.3624 72.8695 72.8079C70.4654 75.2534 70.5677 79.2522 73.0979 81.7394C75.628 84.2267 79.628 84.2605 82.032 81.815Z" fill="#00677D"/>
<path d="M98.2637 116.642H59.3143L59.052 108.902H98.0014L98.2637 116.642Z" fill="white"/>
<path d="M98.7367 130.475H59.7831L59.5208 122.735H98.4744L98.7367 130.475Z" fill="white"/>
<path d="M83.7038 123.801L74.3169 125.091C74.2273 125.101 74.1408 125.13 74.0629 125.175C73.9849 125.221 73.9171 125.281 73.8638 125.354C73.8105 125.427 73.7728 125.51 73.7531 125.598C73.7334 125.686 73.7321 125.777 73.7493 125.865L74.9834 132.156C75.0238 132.341 75.1318 132.504 75.2862 132.613C75.4405 132.722 75.6301 132.769 75.8176 132.745L85.2045 131.455C85.2939 131.444 85.3799 131.414 85.4574 131.368C85.5349 131.323 85.6021 131.261 85.6549 131.188C85.7078 131.115 85.745 131.032 85.7644 130.944C85.7838 130.856 85.785 130.765 85.7678 130.677L84.538 124.386C84.4976 124.202 84.3894 124.039 84.2349 123.931C84.0804 123.823 83.8908 123.776 83.7038 123.801ZM81.0077 130.174L79.2877 130.402L79.12 128.372C78.9428 128.296 78.7866 128.177 78.6646 128.028C78.5426 127.878 78.4584 127.701 78.4191 127.512C78.3875 127.366 78.387 127.214 78.4176 127.068C78.4482 126.921 78.5093 126.782 78.5968 126.661C78.6843 126.539 78.7964 126.437 78.9258 126.362C79.0552 126.286 79.199 126.239 79.3479 126.222C79.6533 126.183 79.9624 126.26 80.214 126.437C80.4656 126.615 80.6414 126.88 80.7067 127.181C80.744 127.363 80.7326 127.551 80.6737 127.727C80.6148 127.903 80.5105 128.06 80.3713 128.183L81.0077 130.174Z" fill="#00677D"/>
<path d="M82.7751 123.461C82.6091 123.483 82.4413 123.441 82.3044 123.345C82.1676 123.248 82.0717 123.105 82.0355 122.941L81.9151 122.326C81.7432 121.487 81.2729 120.739 80.5913 120.22C79.9097 119.701 79.0631 119.448 78.2085 119.506C77.7772 119.53 77.3563 119.647 76.9744 119.849C76.5924 120.051 76.2583 120.332 75.9948 120.674C75.7313 121.017 75.5445 121.411 75.4472 121.832C75.3498 122.253 75.3442 122.69 75.4307 123.113L75.5683 123.823C75.5843 123.901 75.5837 123.982 75.5666 124.061C75.5495 124.139 75.5162 124.213 75.4688 124.278C75.4214 124.343 75.3611 124.397 75.2916 124.437C75.2221 124.477 75.145 124.502 75.0652 124.511C74.8989 124.534 74.73 124.493 74.5927 124.396C74.4554 124.3 74.3599 124.155 74.3256 123.99L74.2095 123.393C74.0914 122.834 74.0875 122.257 74.198 121.697C74.3084 121.137 74.531 120.605 74.8524 120.133C75.1737 119.661 75.5871 119.259 76.0678 118.951C76.5485 118.643 77.0865 118.435 77.6495 118.34C78.8702 118.135 80.123 118.408 81.1479 119.102C82.1727 119.796 82.891 120.859 83.1535 122.068L83.2911 122.773C83.3071 122.853 83.3062 122.935 83.2883 123.014C83.2704 123.094 83.2359 123.168 83.1872 123.233C83.1385 123.298 83.0766 123.352 83.0056 123.391C82.9345 123.431 82.856 123.455 82.7751 123.461Z" fill="#00677D"/>
<path d="M92.3082 141.315H66.9511L66.7834 136.276H92.1362L92.3082 141.315Z" fill="#00677D"/>
<path d="M80.0746 112.772C80.0822 112.955 80.0523 113.139 79.9869 113.311C79.9215 113.483 79.8218 113.64 79.694 113.772C79.5661 113.904 79.4127 114.009 79.2431 114.08C79.0735 114.152 78.8912 114.188 78.7072 114.186C78.328 114.183 77.9645 114.035 77.6916 113.772C77.4188 113.508 77.2574 113.15 77.2409 112.772C77.2333 112.588 77.2632 112.404 77.3286 112.232C77.394 112.061 77.4937 111.904 77.6215 111.771C77.7494 111.639 77.9028 111.534 78.0724 111.463C78.242 111.392 78.4243 111.356 78.6083 111.357C78.9878 111.359 79.3519 111.507 79.625 111.77C79.8981 112.034 80.0591 112.393 80.0746 112.772Z" fill="#263238"/>
<path d="M73.9602 112.772C73.9684 112.956 73.939 113.139 73.8738 113.312C73.8086 113.484 73.7089 113.641 73.5809 113.773C73.453 113.906 73.2993 114.011 73.1294 114.082C72.9595 114.153 72.7769 114.188 72.5928 114.186C72.2141 114.183 71.851 114.035 71.5788 113.771C71.3067 113.508 71.1462 113.15 71.1308 112.772C71.1232 112.588 71.1531 112.404 71.2185 112.232C71.2839 112.061 71.3836 111.904 71.5114 111.771C71.6393 111.639 71.7927 111.534 71.9623 111.463C72.1319 111.392 72.3142 111.356 72.4982 111.357C72.8772 111.359 73.2409 111.507 73.5133 111.771C73.7857 112.034 73.9458 112.393 73.9602 112.772Z" fill="#263238"/>
<path d="M67.8843 112.772C67.8918 112.955 67.862 113.139 67.7966 113.311C67.7311 113.483 67.6315 113.64 67.5036 113.772C67.3758 113.904 67.2224 114.009 67.0528 114.08C66.8831 114.152 66.7008 114.188 66.5169 114.186C66.1378 114.184 65.7742 114.036 65.5018 113.773C65.2294 113.509 65.0693 113.15 65.0549 112.772C65.0473 112.588 65.0771 112.404 65.1426 112.232C65.208 112.061 65.3076 111.904 65.4355 111.771C65.5634 111.639 65.7167 111.534 65.8864 111.463C66.056 111.392 66.2383 111.356 66.4223 111.357C66.8013 111.359 67.165 111.507 67.4374 111.771C67.7098 112.034 67.8699 112.393 67.8843 112.772Z" fill="#263238"/>
<path d="M86.1679 112.772C86.1755 112.956 86.1456 113.139 86.0802 113.311C86.0148 113.483 85.9151 113.64 85.7872 113.772C85.6594 113.904 85.506 114.009 85.3364 114.081C85.1668 114.152 84.9844 114.188 84.8005 114.186C84.4214 114.185 84.0578 114.036 83.7854 113.773C83.513 113.509 83.3529 113.151 83.3385 112.772C83.3321 112.589 83.3629 112.406 83.4292 112.235C83.4955 112.064 83.5958 111.908 83.724 111.777C83.8523 111.646 84.0058 111.542 84.1753 111.472C84.3449 111.402 84.5268 111.368 84.7102 111.37C85.0863 111.373 85.4471 111.52 85.7182 111.781C85.9894 112.041 86.1503 112.396 86.1679 112.772Z" fill="#263238"/>
<path d="M92.261 112.772C92.2692 112.956 92.2398 113.139 92.1746 113.312C92.1094 113.484 92.0097 113.641 91.8817 113.773C91.7538 113.906 91.6001 114.011 91.4302 114.082C91.2603 114.153 91.0777 114.188 90.8936 114.186C90.5149 114.183 90.1518 114.035 89.8796 113.771C89.6074 113.508 89.447 113.15 89.4316 112.772C89.424 112.588 89.4538 112.404 89.5193 112.232C89.5847 112.061 89.6844 111.904 89.8122 111.771C89.9401 111.639 90.0935 111.534 90.2631 111.463C90.4327 111.392 90.615 111.356 90.799 111.357C91.178 111.359 91.5417 111.507 91.8141 111.771C92.0865 112.034 92.2466 112.393 92.261 112.772Z" fill="#263238"/>
<path d="M143.581 74.9404C144.153 75.8606 144.63 76.7378 145.121 77.6537C145.611 78.5696 146.054 79.4898 146.488 80.4315C147.374 82.3383 148.107 84.3125 148.681 86.3354C148.758 86.5891 148.814 86.86 148.879 87.1223L148.973 87.5222L149.021 87.72L149.077 88.0468C149.174 88.7882 149.128 89.5412 148.943 90.2656C148.646 91.3904 148.195 92.4685 147.602 93.4691C146.541 95.2875 145.258 96.9673 143.783 98.47L141.973 97.1026C142.882 95.4322 143.69 93.7092 144.394 91.9426C144.707 91.1643 144.928 90.3517 145.052 89.5217C145.091 89.2683 145.08 89.0095 145.017 88.7606L144.845 88.236C144.777 88.021 144.712 87.806 144.63 87.5867C143.976 85.8128 143.22 84.0784 142.364 82.3923C141.504 80.6723 140.58 78.9523 139.655 77.3097L143.581 74.9404Z" fill="#FF8B7B"/>
<path d="M142.433 96.5049L140.455 97.5498L142.725 100.207C142.725 100.207 144.144 99.2483 144.209 97.7863L142.433 96.5049Z" fill="#FF8B7B"/>
<path d="M137.802 99.1881L140.231 101.119L142.726 100.207L140.455 97.5498L137.802 99.1881Z" fill="#FF8B7B"/>
<path d="M129.495 60.8707C129.447 61.1115 129.28 61.2792 129.125 61.2491C128.97 61.219 128.88 60.9954 128.927 60.7589C128.974 60.5224 129.142 60.3289 129.301 60.3805C129.46 60.4321 129.542 60.6299 129.495 60.8707Z" fill="#263238"/>
<path d="M129.301 61.2834C128.868 61.957 128.344 62.5676 127.744 63.098C127.886 63.2448 128.058 63.3593 128.248 63.4335C128.438 63.5077 128.642 63.54 128.845 63.528L129.301 61.2834Z" fill="#FF5652"/>
<path d="M128.527 69.7202V66.8994L132.259 67.3294C132.259 67.3294 132.199 69.7546 130.109 70.4684L128.527 69.7202Z" fill="#FF8B7B"/>
<path d="M129.602 64.8696L132.229 65.6264L132.277 67.3507L128.544 66.8992L129.602 64.8696Z" fill="#FF8B7B"/>
<path opacity="0.2" d="M132.229 65.6264L129.602 64.8696L129.09 65.85C129.118 66.6225 129.36 67.3722 129.788 68.0159C130.216 68.6595 130.814 69.172 131.516 69.4964C131.967 68.8659 132.231 68.1205 132.277 67.3464L132.229 65.6264Z" fill="black"/>
<path d="M130.638 59.7227C130.666 59.722 130.693 59.7134 130.716 59.6981C130.738 59.6828 130.757 59.6613 130.768 59.6361C130.779 59.611 130.783 59.5831 130.779 59.5558C130.775 59.5285 130.764 59.5029 130.746 59.4819C130.595 59.3113 130.405 59.1794 130.193 59.0971C129.98 59.0148 129.751 58.9846 129.525 59.0089C129.488 59.0152 129.454 59.036 129.433 59.0666C129.411 59.0972 129.402 59.1352 129.408 59.1723C129.415 59.2096 129.435 59.243 129.466 59.2655C129.496 59.2879 129.534 59.2977 129.572 59.2927C129.751 59.2751 129.932 59.3006 130.1 59.3672C130.267 59.4338 130.417 59.5394 130.535 59.6754C130.548 59.6898 130.564 59.7013 130.582 59.7095C130.6 59.7176 130.619 59.7221 130.638 59.7227Z" fill="#263238"/>
<path d="M136.134 65.2224C135.704 67.4369 135.437 70.5028 136.994 71.9777C136.994 71.9777 136.392 74.2223 132.264 74.2223C127.744 74.2223 130.092 72.2529 130.092 72.2529C131.971 71.6681 131.954 69.531 131.524 67.811L136.134 65.2224Z" fill="#FF8B7B"/>
<path d="M137.832 73.4568C138.236 72.8892 138.219 71.0875 137.789 70.7693C137.097 70.2576 134.126 70.1372 130.131 71.0574C130.561 72.8032 129.636 73.7148 129.636 73.7148L137.832 73.4568Z" fill="#00677D"/>
<path d="M151.274 175.543C151.151 175.586 151.021 175.605 150.891 175.598C150.761 175.59 150.634 175.557 150.517 175.5C150.473 175.459 150.442 175.405 150.43 175.346C150.418 175.286 150.424 175.225 150.448 175.169C150.462 175.123 150.485 175.08 150.517 175.043C150.549 175.007 150.589 174.978 150.633 174.958C151.042 174.761 151.979 175.143 152.022 175.161C152.035 175.166 152.046 175.175 152.054 175.186C152.061 175.198 152.065 175.211 152.065 175.225C152.065 175.239 152.061 175.252 152.055 175.264C152.048 175.276 152.038 175.287 152.026 175.294C151.784 175.4 151.532 175.484 151.274 175.543ZM150.779 175.057C150.751 175.064 150.724 175.074 150.698 175.087C150.671 175.097 150.647 175.113 150.627 175.134C150.608 175.155 150.594 175.18 150.586 175.208C150.547 175.337 150.586 175.38 150.612 175.393C150.775 175.53 151.377 175.393 151.803 175.234C151.479 175.1 151.129 175.039 150.779 175.057Z" fill="#00677D"/>
<path d="M152.009 175.298H151.975C151.631 175.199 150.9 174.679 150.891 174.339C150.891 174.285 150.909 174.233 150.943 174.19C150.976 174.148 151.024 174.119 151.076 174.107C151.127 174.088 151.182 174.08 151.236 174.085C151.29 174.089 151.343 174.106 151.39 174.133C151.794 174.339 152.052 175.173 152.061 175.212C152.067 175.222 152.07 175.234 152.07 175.246C152.07 175.259 152.067 175.27 152.061 175.281C152.054 175.288 152.046 175.293 152.037 175.296C152.028 175.299 152.019 175.299 152.009 175.298ZM151.149 174.227H151.115C151.029 174.257 151.029 174.3 151.029 174.322C151.029 174.524 151.519 174.933 151.889 175.096C151.799 174.855 151.601 174.378 151.339 174.236C151.28 174.209 151.214 174.206 151.154 174.227H151.149Z" fill="#00677D"/>
<path d="M128.94 176.05C128.553 176.05 128.179 175.995 128.054 175.823C128.021 175.777 128.004 175.722 128.004 175.666C128.004 175.609 128.021 175.555 128.054 175.509C128.079 175.467 128.111 175.43 128.151 175.401C128.19 175.372 128.234 175.352 128.282 175.341C128.785 175.203 129.843 175.805 129.886 175.831C129.899 175.838 129.91 175.848 129.916 175.862C129.922 175.875 129.924 175.89 129.92 175.904C129.919 175.919 129.912 175.933 129.902 175.944C129.892 175.954 129.879 175.962 129.864 175.964C129.559 176.02 129.25 176.049 128.94 176.05ZM128.463 175.461C128.417 175.454 128.37 175.454 128.325 175.461C128.296 175.467 128.268 175.479 128.244 175.496C128.219 175.513 128.199 175.535 128.183 175.56C128.131 175.651 128.153 175.694 128.183 175.719C128.325 175.917 129.086 175.921 129.649 175.84C129.282 175.639 128.879 175.51 128.463 175.461Z" fill="#00677D"/>
<path d="M129.86 175.965H129.83C129.464 175.801 128.742 175.148 128.798 174.804C128.798 174.722 128.867 174.623 129.064 174.606C129.135 174.598 129.207 174.604 129.275 174.625C129.343 174.645 129.406 174.68 129.46 174.726C129.735 175.056 129.901 175.463 129.933 175.892C129.933 175.904 129.93 175.916 129.925 175.927C129.92 175.938 129.912 175.948 129.903 175.956C129.89 175.963 129.875 175.966 129.86 175.965ZM129.12 174.739H129.077C128.948 174.739 128.94 174.799 128.94 174.817C128.905 175.023 129.395 175.539 129.77 175.763C129.737 175.417 129.597 175.091 129.37 174.829C129.299 174.769 129.209 174.737 129.116 174.739H129.12Z" fill="#00677D"/>
<path d="M133.18 175.896H130.157L129.856 168.891H132.879L133.18 175.896Z" fill="#FF8B7B"/>
<path d="M155.38 174.494L152.426 175.135L149.455 168.612L152.413 167.971L155.38 174.494Z" fill="#FF8B7B"/>
<path d="M152.138 174.838L155.462 174.12C155.52 174.107 155.581 174.115 155.634 174.142C155.687 174.168 155.73 174.212 155.755 174.266L156.907 176.769C156.938 176.829 156.954 176.896 156.953 176.964C156.953 177.032 156.937 177.099 156.906 177.159C156.875 177.22 156.83 177.272 156.775 177.312C156.72 177.351 156.656 177.377 156.589 177.388C155.428 177.616 154.847 177.672 153.39 177.985C152.491 178.183 150.461 178.678 149.219 178.944C147.976 179.211 147.55 178.02 148.036 177.801C150.208 176.807 151.111 175.934 151.7 175.122C151.806 174.977 151.962 174.876 152.138 174.838Z" fill="#263238"/>
<path d="M130.178 175.543H133.481C133.541 175.544 133.599 175.564 133.646 175.602C133.692 175.639 133.725 175.691 133.739 175.75L134.336 178.437C134.354 178.502 134.356 178.57 134.342 178.636C134.329 178.702 134.3 178.764 134.258 178.816C134.216 178.869 134.163 178.911 134.102 178.94C134.04 178.968 133.974 178.981 133.906 178.979C132.715 178.957 130.995 178.889 129.499 178.889C127.744 178.889 126.235 178.983 124.18 178.983C122.937 178.983 122.593 177.728 123.113 177.612C125.478 177.096 127.413 177.04 129.456 175.78C129.67 175.636 129.92 175.554 130.178 175.543Z" fill="#263238"/>
<path d="M142.403 72.6699C145.237 73.3192 147.563 80.5561 147.563 80.5561L141.9 84.8862C140.43 83.3146 139.393 81.3885 138.89 79.2962C137.888 75.5036 139.505 71.9991 142.403 72.6699Z" fill="#00677D"/>
<path opacity="0.4" d="M142.403 72.6699C145.237 73.3192 147.563 80.5561 147.563 80.5561L141.9 84.8862C140.43 83.3146 139.393 81.3885 138.89 79.2962C137.888 75.5036 139.505 71.9991 142.403 72.6699Z" fill="black"/>
<path d="M127.495 81.2999C126.79 82.061 126.085 82.7404 125.345 83.4499C124.979 83.7939 124.61 84.1379 124.231 84.469L123.659 84.9721L123.517 85.0968L123.272 85.2946C123.02 85.4962 122.741 85.6612 122.442 85.7848C122.111 85.9257 121.754 85.9988 121.393 85.9998C121.085 86.0011 120.779 85.9473 120.49 85.8407C120.17 85.7186 119.877 85.5328 119.63 85.2946C119.315 84.9867 119.084 84.6033 118.959 84.1809C118.894 83.9727 118.852 83.7578 118.835 83.5402C118.812 83.2856 118.812 83.0295 118.835 82.7748C118.856 82.5684 118.882 82.3878 118.916 82.2201C119.034 81.6338 119.201 81.0584 119.415 80.5001C119.609 79.9694 119.831 79.4498 120.082 78.9435C120.357 78.3974 120.619 77.9975 120.882 77.5417C121.947 75.7965 123.163 74.1476 124.515 72.6139C125.854 71.0893 127.329 69.6903 128.923 68.4343L130.505 70.064C129.396 71.5518 128.303 73.1471 127.293 74.7166C126.287 76.2772 125.368 77.8922 124.541 79.5541C124.356 79.9583 124.111 80.4141 123.995 80.7409C123.841 81.1206 123.707 81.5081 123.595 81.9019C123.487 82.2566 123.405 82.6188 123.35 82.9855C123.347 83.0428 123.347 83.1002 123.35 83.1575C123.35 83.1919 123.35 83.2091 123.35 83.1188C123.343 83.0223 123.324 82.927 123.294 82.835C123.201 82.5302 123.031 82.2546 122.799 82.0352C122.594 81.8463 122.353 81.7001 122.09 81.6052C121.859 81.5178 121.614 81.4726 121.367 81.4719C121.13 81.4691 120.895 81.5144 120.675 81.6052C120.601 81.6356 120.529 81.6715 120.46 81.7127L120.624 81.5622L121.144 81.0892L122.172 80.126C122.851 79.4853 123.535 78.8016 124.18 78.1652L127.495 81.2999Z" fill="#FF8B7B"/>
<path opacity="0.2" d="M139.974 77.9846C141.513 79.5068 142.016 82.2846 142.124 84.6926L141.874 84.8861C140.404 83.3145 139.367 81.3884 138.864 79.2961C138.808 79.0725 138.757 78.8661 138.718 78.621L139.974 77.9846Z" fill="black"/>
<path d="M124.489 75.68C123.87 78.948 123.483 85.6603 125.276 98.9473H141.47C141.582 96.4662 140.021 84.3488 142.416 72.6485C140.626 72.3048 138.817 72.0765 136.998 71.9648C134.706 71.8334 132.409 71.8334 130.118 71.9648C129.361 72.0336 128.613 72.1454 127.968 72.2615C127.11 72.412 126.318 72.8194 125.697 73.4298C125.076 74.0402 124.655 74.8249 124.489 75.68Z" fill="#00677D"/>
<path opacity="0.4" d="M124.489 75.68C123.87 78.948 123.483 85.6603 125.276 98.9473H141.47C141.582 96.4662 140.021 84.3488 142.416 72.6485C140.626 72.3048 138.817 72.0765 136.998 71.9648C134.706 71.8334 132.409 71.8334 130.118 71.9648C129.361 72.0336 128.613 72.1454 127.968 72.2615C127.11 72.412 126.318 72.8194 125.697 73.4298C125.076 74.0402 124.655 74.8249 124.489 75.68Z" fill="black"/>
<path opacity="0.2" d="M126.966 80.5261L124.042 79.8252C123.952 81.5968 123.943 83.7898 124.072 86.5031C125.418 84.9723 127.138 82.5815 126.966 80.5261Z" fill="black"/>
<path opacity="0.2" d="M129.856 168.891L130.011 172.503H133.038L132.883 168.891H129.856Z" fill="black"/>
<path opacity="0.2" d="M152.413 167.971L149.455 168.612L150.986 171.974L153.944 171.334L152.413 167.971Z" fill="black"/>
<path d="M137.57 61.9888C136.796 64.887 136.486 66.6242 134.698 67.8282C132.01 69.66 128.656 67.5616 128.57 64.5C128.475 61.7351 129.761 57.4566 132.87 56.8718C133.553 56.7435 134.258 56.7914 134.917 57.0108C135.577 57.2303 136.17 57.614 136.64 58.126C137.11 58.6379 137.442 59.2612 137.605 59.937C137.768 60.6128 137.756 61.3189 137.57 61.9888Z" fill="#FF8B7B"/>
<path d="M130.784 62.0964C130.638 61.7094 129.972 58.7123 130.599 57.934C131.227 57.1557 138.387 57.719 139.445 58.7596C141.203 60.4796 139.982 62.0276 138.06 64.0185C136.615 65.5149 136.559 67.2005 135.828 67.4585C134.538 67.8885 132.569 67.4843 132.173 66.1212C131.778 64.7581 130.784 62.0964 130.784 62.0964Z" fill="#263238"/>
<path d="M138.576 55.3495C136.048 54.2745 131.305 55.4656 128.742 54.8464C128.709 55.7994 129.023 56.7319 129.624 57.4718C130.226 58.2116 131.075 58.7087 132.014 58.8712C134.14 59.2764 136.3 59.4765 138.464 59.4689C141.277 59.3399 140.726 56.2654 138.576 55.3495Z" fill="#263238"/>
<path d="M138.972 58.8498C139.895 58.9407 140.825 58.763 141.651 58.3381C142.124 59.4819 139.522 59.7958 138.972 58.8498Z" fill="#263238"/>
<path d="M132.16 62.2167C132.102 62.9624 131.8 63.6682 131.3 64.2248C130.638 64.9515 129.95 64.4957 129.834 63.6142C129.731 62.8144 129.946 61.4642 130.754 61.0772C131.563 60.6902 132.216 61.318 132.16 62.2167Z" fill="#FF8B7B"/>
<path d="M131.017 98.96C131.017 98.96 134.457 122.073 136.336 130.733C138.395 140.214 149.464 171.583 149.464 171.583L154.877 170.409C154.877 170.409 147.137 144.841 145.417 131.584C144.084 121.402 141.466 98.9514 141.466 98.9514L131.017 98.96Z" fill="#00677D"/>
<path d="M148.165 169.781C148.144 169.781 149.176 171.742 149.176 171.742L155.264 170.422L154.753 168.59L148.165 169.781Z" fill="#263238"/>
<path opacity="0.3" d="M133.188 107.195C137.157 107.973 136.736 122.773 136.258 130.389C135.115 125.005 133.438 114.651 132.294 107.302C132.571 107.165 132.886 107.127 133.188 107.195Z" fill="black"/>
<path d="M125.276 98.9601C125.276 98.9601 124.846 121.574 125.19 130.78C125.534 140.373 128.884 171.785 128.884 171.785H134.01C134.01 171.785 134.194 140.932 134.44 131.511C134.689 121.243 135.927 98.9429 135.927 98.9429L125.276 98.9601Z" fill="#00677D"/>
<path d="M127.899 169.764C127.873 169.764 128.187 171.888 128.187 171.888H134.418L134.59 169.992L127.899 169.764Z" fill="#263238"/>
<path d="M130.827 76.6862C132.277 80.5949 123.758 85.2002 123.758 85.2002L120.069 80.4702C120.069 80.4702 122.55 75.5596 125.56 73.3494C129.279 70.6232 129.722 73.7106 130.827 76.6862Z" fill="#00677D"/>
<path opacity="0.4" d="M130.827 76.6862C132.277 80.5949 123.758 85.2002 123.758 85.2002L120.069 80.4702C120.069 80.4702 122.55 75.5596 125.56 73.3494C129.279 70.6232 129.722 73.7106 130.827 76.6862Z" fill="black"/>
<path d="M164.204 47.0119C172.775 47.0119 179.723 42.584 179.723 37.1219C179.723 31.6598 172.775 27.2319 164.204 27.2319C155.633 27.2319 148.685 31.6598 148.685 37.1219C148.685 42.584 155.633 47.0119 164.204 47.0119Z" fill="#00677D"/>
<path d="M158.605 42.1012C157.583 42.0979 156.595 41.7345 155.814 41.0747C155.033 40.4149 154.509 39.501 154.335 38.4935C154.164 37.4023 154.411 36.2867 155.025 35.3688C155.639 34.4508 156.577 33.7979 157.651 33.5399C158.532 33.3368 159.455 33.4151 160.29 33.7638C161.124 34.1124 161.828 34.7138 162.303 35.4835L172.266 33.4281C172.649 33.3443 173.05 33.408 173.388 33.6064C173.726 33.8049 173.976 34.1236 174.09 34.4988C174.142 34.6961 174.153 34.902 174.123 35.1038C174.093 35.3056 174.022 35.4991 173.915 35.6726C173.807 35.8461 173.665 35.9958 173.498 36.1126C173.331 36.2295 173.141 36.311 172.942 36.3521L172.684 36.4037C172.645 36.4106 172.609 36.4262 172.578 36.4493C172.546 36.4724 172.521 36.5025 172.503 36.537C172.487 36.5722 172.479 36.6103 172.479 36.6488C172.479 36.6874 172.487 36.7255 172.503 36.7606L172.679 37.2164C172.738 37.3642 172.744 37.5279 172.695 37.6794C172.647 37.8309 172.547 37.9606 172.413 38.0463C172.307 38.1116 172.218 38.2002 172.151 38.3053C172.085 38.4103 172.043 38.5291 172.03 38.6526C172.017 38.7944 171.96 38.9285 171.867 39.0359C171.773 39.1432 171.648 39.2183 171.51 39.2503L171.308 39.2933C171.168 39.3192 171.023 39.2998 170.894 39.238C170.766 39.1761 170.661 39.075 170.594 38.9493C170.505 38.7994 170.371 38.681 170.211 38.6107C170.051 38.5404 169.874 38.5217 169.703 38.5572C169.532 38.5927 169.376 38.6806 169.258 38.8087C169.139 38.9368 169.064 39.0987 169.041 39.2718C169.03 39.4127 168.973 39.5461 168.88 39.6527C168.788 39.7594 168.663 39.8338 168.525 39.8652L168.323 39.9082C168.183 39.9334 168.039 39.9138 167.911 39.852C167.783 39.7902 167.677 39.6895 167.61 39.5642C167.545 39.4576 167.458 39.3662 167.355 39.2964C167.252 39.2266 167.135 39.1801 167.012 39.16C166.847 39.1401 166.694 39.0606 166.583 38.9363C166.472 38.812 166.411 38.6515 166.41 38.4849V37.9947C166.408 37.9564 166.398 37.9189 166.381 37.8847C166.363 37.8506 166.338 37.8207 166.308 37.797C166.278 37.7733 166.243 37.7565 166.206 37.7475C166.168 37.7386 166.129 37.7379 166.092 37.7453L162.914 38.3989C162.784 39.2793 162.387 40.0983 161.775 40.7446C161.163 41.3909 160.367 41.8331 159.495 42.0109C159.203 42.0708 158.904 42.1011 158.605 42.1012ZM157.745 33.9312C156.77 34.1591 155.917 34.7479 155.359 35.5793C154.8 36.4107 154.578 37.4228 154.735 38.4118C154.904 39.332 155.397 40.1612 156.125 40.7495C156.852 41.3379 157.766 41.6464 158.701 41.6194C159.636 41.5924 160.531 41.2316 161.223 40.6023C161.916 39.9729 162.36 39.1166 162.475 38.1882V38.0334L165.98 37.3239C166.08 37.2996 166.185 37.298 166.286 37.3192C166.388 37.3404 166.483 37.3838 166.565 37.4464C166.648 37.509 166.715 37.5891 166.762 37.681C166.81 37.7729 166.836 37.8742 166.84 37.9775V38.4677C166.841 38.5261 166.862 38.5823 166.899 38.627C166.937 38.6716 166.989 38.702 167.046 38.7128C167.234 38.7398 167.414 38.8091 167.571 38.9157C167.728 39.0222 167.859 39.1631 167.954 39.3277C167.976 39.3741 168.013 39.4123 168.059 39.437C168.104 39.4616 168.156 39.4715 168.207 39.4653L168.405 39.4223C168.455 39.4094 168.5 39.3807 168.532 39.3404C168.565 39.3002 168.584 39.2505 168.586 39.1987C168.613 38.9311 168.724 38.6789 168.904 38.4788C169.084 38.2786 169.323 38.1408 169.586 38.0853C169.849 38.0298 170.123 38.0594 170.369 38.1699C170.614 38.2804 170.818 38.466 170.951 38.6999C170.973 38.746 171.009 38.784 171.053 38.8087C171.098 38.8334 171.149 38.8434 171.2 38.8375L171.406 38.7945C171.456 38.7809 171.5 38.7518 171.531 38.7116C171.563 38.6714 171.581 38.6221 171.583 38.5709C171.604 38.3821 171.668 38.2007 171.77 38.0405C171.872 37.8803 172.01 37.7455 172.172 37.6464C172.219 37.6123 172.254 37.5632 172.27 37.5072C172.287 37.4511 172.284 37.3911 172.262 37.3368L172.086 36.881C172.049 36.7871 172.034 36.6863 172.04 36.5857C172.047 36.4851 172.075 36.3872 172.124 36.2987C172.172 36.2103 172.239 36.1334 172.32 36.0736C172.401 36.0137 172.495 35.9723 172.593 35.9522L172.856 35.8963C172.998 35.8661 173.132 35.8075 173.251 35.7241C173.37 35.6407 173.47 35.5342 173.547 35.4109C173.624 35.2877 173.675 35.1502 173.697 35.0068C173.719 34.8634 173.712 34.717 173.677 34.5762C173.593 34.3056 173.41 34.0768 173.164 33.9356C172.919 33.7944 172.629 33.7514 172.352 33.8151L162.11 35.9436L162.032 35.8103C161.621 35.0777 160.982 34.499 160.213 34.1615C159.443 33.8241 158.585 33.7463 157.767 33.9398L157.745 33.9312ZM158.605 40.5016C158.071 40.5076 157.547 40.3582 157.096 40.0716C156.563 39.7216 156.168 39.1974 155.978 38.5885C155.788 37.9796 155.815 37.3236 156.054 36.7325C156.294 36.1413 156.731 35.6515 157.291 35.3466C157.851 35.0416 158.5 34.9405 159.127 35.0603C159.753 35.1801 160.319 35.5135 160.727 36.0037C161.135 36.4938 161.361 37.1104 161.365 37.7482C161.369 38.3861 161.153 39.0057 160.751 39.5016C160.35 39.9974 159.789 40.3387 159.164 40.4672C158.981 40.5004 158.796 40.5148 158.61 40.5102L158.605 40.5016ZM158.605 35.4233C158.445 35.4242 158.285 35.4401 158.128 35.4706C157.829 35.5344 157.544 35.6566 157.292 35.8302C157.04 36.0038 156.824 36.2254 156.657 36.4824C156.491 36.7393 156.376 37.0266 156.321 37.3277C156.265 37.6289 156.269 37.9381 156.333 38.2377C156.397 38.5373 156.519 38.8213 156.692 39.0737C156.866 39.326 157.088 39.5417 157.345 39.7084C157.601 39.8751 157.889 39.9896 158.19 40.0452C158.491 40.1009 158.8 40.0967 159.1 40.0329C159.55 39.9393 159.962 39.7147 160.284 39.3873C160.606 39.0599 160.824 38.6444 160.91 38.1933C160.997 37.7422 160.948 37.2755 160.77 36.8522C160.591 36.4289 160.292 36.0679 159.908 35.8146C159.528 35.5615 159.08 35.4282 158.623 35.4319L158.605 35.4233Z" fill="white"/>
<path opacity="0.6" d="M151.575 52.8126C154.391 52.8126 156.675 51.3572 156.675 49.5618C156.675 47.7665 154.391 46.311 151.575 46.311C148.758 46.311 146.475 47.7665 146.475 49.5618C146.475 51.3572 148.758 52.8126 151.575 52.8126Z" fill="#00677D"/>
<path opacity="0.3" d="M143.461 54.1457C144.617 54.1457 145.555 53.5489 145.555 52.8127C145.555 52.0765 144.617 51.4797 143.461 51.4797C142.304 51.4797 141.367 52.0765 141.367 52.8127C141.367 53.5489 142.304 54.1457 143.461 54.1457Z" fill="#00677D"/>
</svg>
