<svg width="85" height="85" viewBox="0 0 85 85" fill="none" xmlns="http://www.w3.org/2000/svg">
<circle cx="42.5" cy="42.5" r="42.5" fill="#00677D"/>
<path d="M50.3563 23.75H34.6438C27.8187 23.75 23.75 27.8187 23.75 34.6437V50.3375C23.75 57.1813 27.8187 61.25 34.6438 61.25H50.3375C57.1625 61.25 61.2313 57.1813 61.2313 50.3563V34.6437C61.25 27.8187 57.1813 23.75 50.3563 23.75ZM51.4625 38.1875L40.8313 48.8187C40.5688 49.0812 40.2125 49.2313 39.8375 49.2313C39.4625 49.2313 39.1063 49.0812 38.8438 48.8187L33.5375 43.5125C32.9938 42.9687 32.9938 42.0687 33.5375 41.525C34.0813 40.9812 34.9813 40.9812 35.525 41.525L39.8375 45.8375L49.475 36.2C50.0188 35.6563 50.9188 35.6563 51.4625 36.2C52.0063 36.7438 52.0063 37.625 51.4625 38.1875Z" fill="white"/>
</svg>
