<svg width="90" height="90" viewBox="0 0 90 90" fill="none" xmlns="http://www.w3.org/2000/svg">
<rect width="90" height="90" rx="20" fill="white"/>
<g clip-path="url(#clip0_1066_3626)">
<path d="M66.4422 74.0236C64.6114 74.0238 62.8372 73.3881 61.4219 72.225C60.0067 71.0618 59.0379 69.4431 58.6808 67.6447C58.3237 65.8463 58.6003 63.9795 59.4635 62.3625C60.3266 60.7455 61.723 59.4783 63.4145 58.7768C65.106 58.0754 66.9881 57.9831 68.7399 58.5158C70.4918 59.0484 72.005 60.173 73.0218 61.6978C74.0385 63.2227 74.4958 65.0535 74.3157 66.8782C74.1357 68.7029 73.3295 70.4086 72.0344 71.7047C71.3015 72.4421 70.4299 73.0267 69.47 73.4247C68.5102 73.8227 67.4811 74.0263 66.4422 74.0236V74.0236Z" fill="#6F3DFF"/>
<path d="M23.4412 31.7681C21.8763 31.7676 20.3466 31.3025 19.0454 30.4318C17.7441 29.561 16.7297 28.3236 16.1303 26.8758C15.5308 25.428 15.3732 23.8347 15.6773 22.2973C15.9814 20.7598 16.7337 19.347 17.839 18.2375C19.3237 16.7512 21.337 15.9163 23.4362 15.9163C25.5354 15.9163 27.5487 16.7512 29.0334 18.2375C29.7688 18.9734 30.3522 19.8473 30.7503 20.8092C31.1483 21.7711 31.3532 22.8021 31.3532 23.8433C31.3532 24.8845 31.1483 25.9155 30.7503 26.8774C30.3522 27.8393 29.7688 28.7132 29.0334 29.4492C28.301 30.1872 27.4295 30.7723 26.4696 31.1703C25.5096 31.5684 24.4802 31.7716 23.4412 31.7681V31.7681Z" fill="#6F3DFF"/>
<path d="M66.0848 31.5312C64.5198 31.5306 62.9901 31.0656 61.6889 30.1949C60.3877 29.3241 59.3733 28.0867 58.7738 26.6389C58.1744 25.1911 58.0167 23.5978 58.3209 22.0603C58.625 20.5229 59.3772 19.1101 60.4825 18.0006C61.4025 17.077 62.5358 16.3951 63.7819 16.0152C65.0281 15.6353 66.3485 15.5692 67.6262 15.8227C68.904 16.0762 70.0995 16.6415 71.1069 17.4686C72.1143 18.2956 72.9024 19.3587 73.4014 20.5638C73.9003 21.7689 74.0947 23.0786 73.9673 24.377C73.8399 25.6753 73.3946 26.9221 72.671 28.0068C71.9473 29.0915 70.9677 29.9807 69.8188 30.5955C68.6699 31.2102 67.3874 31.5316 66.0848 31.5312V31.5312Z" fill="#6F3DFF"/>
<path d="M23.6474 74.0236C22.083 74.0245 20.5535 73.5609 19.2521 72.6914C17.9507 71.822 16.9358 70.5856 16.3358 69.1387C15.7357 67.6918 15.5773 66.0991 15.8807 64.5621C16.184 63.025 16.9355 61.6125 18.0401 60.5031C18.3809 60.1634 18.7553 59.8594 19.1576 59.5957C19.2935 59.4999 19.4143 59.4243 19.5451 59.3487C19.8371 59.1772 20.129 59.026 20.4008 58.9C20.5518 58.8344 20.7028 58.7639 20.8639 58.7034C21.1831 58.5818 21.5092 58.4791 21.8404 58.3959L22.0418 58.3404L22.1626 58.3102L23.9243 58.1892C24.1458 58.1892 24.3874 58.2245 24.639 58.2597H24.7397H24.9612H25.0316H25.1122H25.1826H25.5702C27.1064 58.2475 28.6247 57.9291 30.0367 57.3233C31.4488 56.7174 32.7263 55.8362 33.7949 54.7309C34.8683 53.6372 35.7129 52.3399 36.279 50.915C36.8451 49.4901 37.1215 47.9663 37.0919 46.433V46.3473V46.2516C37.0785 46.1664 37.0701 46.0806 37.0667 45.9945C37.0667 45.8936 37.0566 45.7928 37.0365 45.692V45.5155C37.0365 45.3593 37.0063 45.2131 36.9962 45.0618L37.1271 43.2924C37.1382 43.248 37.1517 43.2042 37.1674 43.1613L37.1976 43.0504C37.2736 42.7079 37.3729 42.3711 37.4946 42.0421C37.5502 41.8843 37.6141 41.7295 37.6858 41.5783C37.8109 41.2958 37.9503 41.0198 38.1036 40.7516C38.1791 40.6256 38.2546 40.4995 38.3402 40.3735C38.6082 39.9711 38.9132 39.5947 39.2512 39.2493C40.7384 37.7625 42.7543 36.9283 44.8556 36.9302C46.9569 36.9321 48.9713 37.7699 50.4558 39.2594C51.9403 40.7488 52.7732 42.7679 52.7713 44.8724C52.7694 46.9768 51.9329 48.9944 50.4457 50.4811C50.1023 50.8179 49.7282 51.1217 49.3283 51.3886C49.1974 51.4793 49.0716 51.5549 48.9457 51.6255C48.6696 51.7934 48.3839 51.9449 48.09 52.0792C47.934 52.1498 47.778 52.2204 47.632 52.2758C47.3189 52.3948 46.9976 52.4909 46.6706 52.5632L46.4793 52.6136L46.3535 52.6539L44.5716 52.7799C44.3653 52.7799 44.1438 52.7396 43.9123 52.7094H43.7562H43.5347H43.4743H43.3837H42.9257C39.8399 52.7506 36.8959 54.0134 34.737 56.2219C32.5781 58.4305 31.3798 61.4051 31.404 64.4957V64.5865V64.6722C31.4174 64.7573 31.4258 64.8432 31.4292 64.9293C31.4292 65.0351 31.4292 65.1309 31.4594 65.2318C31.4644 65.3247 31.4744 65.4172 31.4896 65.509C31.4896 65.63 31.4896 65.751 31.4896 65.872V65.9123L31.3638 67.6112C31.3638 67.6465 31.2983 67.8431 31.2832 67.9036C31.209 68.246 31.1115 68.5828 30.9913 68.9118C30.9384 69.0651 30.8762 69.2149 30.8051 69.3605C30.6674 69.6622 30.5145 69.9566 30.347 70.2427C30.2715 70.3637 30.1859 70.5049 30.0953 70.6359C29.8317 71.0325 29.5299 71.4023 29.1943 71.74C27.7205 73.2072 25.7255 74.0285 23.6474 74.0236Z" fill="#6F3DFF"/>
<path d="M45.0247 74.0236C43.4614 74.0235 41.9331 73.5595 40.6328 72.6903C39.3325 71.8211 38.3184 70.5856 37.7185 69.1397C37.1186 67.6938 36.9598 66.1023 37.2622 64.5661C37.5646 63.0299 38.3145 61.6178 39.4174 60.5081C39.7631 60.1669 40.1407 59.8597 40.5449 59.5906C40.6607 59.51 40.7865 59.4343 40.9174 59.3587C41.1964 59.1913 41.4836 59.0381 41.7781 58.9L42.2362 58.7034C42.5489 58.591 42.8683 58.4984 43.1926 58.4261L43.5046 58.3354L45.2965 58.2043C45.508 58.2043 45.7345 58.2446 45.971 58.2749H46.1069H46.3435H46.4291H46.4845H46.56H46.9526C50.0357 58.2297 52.9758 56.9651 55.1315 54.757C57.2872 52.5489 58.4834 49.5766 58.4591 46.4885V46.1205L58.4289 46.0802C58.4261 46.0669 58.4261 46.0531 58.4289 46.0398V45.7777L58.3987 45.5256C58.3987 45.3845 58.3635 45.2484 58.3584 45.1072L58.4792 43.3932C58.4792 43.3478 58.5497 43.1361 58.5648 43.0756C58.6269 42.7448 58.7093 42.4182 58.8115 42.0976C58.8686 41.9413 58.9342 41.7881 59.0078 41.6388C59.1431 41.3419 59.2943 41.0524 59.4608 40.7717L59.496 40.7163C59.5564 40.6104 59.6168 40.5096 59.6873 40.4088C59.9576 40.0036 60.2642 39.6239 60.6034 39.2745C62.089 37.7879 64.1031 36.9529 66.2031 36.9529C68.3032 36.9529 70.3173 37.7879 71.8029 39.2745C73.2823 40.765 74.1126 42.7812 74.1126 44.8829C74.1126 46.9845 73.2823 49.0007 71.8029 50.4912C71.4552 50.8251 71.0796 51.1287 70.6804 51.3986L70.4187 51.565L70.2828 51.6507C70.0122 51.8101 69.7333 51.9549 69.4472 52.0842C69.2861 52.1599 69.1402 52.2254 68.9841 52.2859C68.6668 52.4011 68.3423 52.4955 68.0127 52.5682L67.8113 52.6287L67.6905 52.6589L65.9288 52.785C65.6721 52.785 65.3953 52.7346 65.1234 52.6993H64.8919H64.8516H64.7006H64.308C61.217 52.7339 58.2661 53.9955 56.1031 56.2072C53.94 58.4189 52.7417 61.3999 52.7713 64.4957V64.5865V64.6722C52.7762 64.7628 52.7762 64.8537 52.7713 64.9444C52.7713 65.0351 52.7713 65.1309 52.7964 65.2166C52.8216 65.3023 52.7964 65.388 52.7964 65.4838C52.8159 65.6175 52.8276 65.7521 52.8317 65.8871L52.7713 67.6263L52.6958 67.8986C52.6196 68.2404 52.5221 68.5772 52.4038 68.9068C52.3535 69.048 52.2881 69.1891 52.2277 69.3303L52.2025 69.3807C52.0708 69.6678 51.9229 69.9472 51.7595 70.2175C51.679 70.3536 51.6035 70.4847 51.5179 70.6107C50.801 71.6722 49.8328 72.5393 48.6998 73.1348C47.5668 73.7303 46.3042 74.0357 45.0247 74.0236V74.0236Z" fill="#6F3DFF"/>
<path d="M23.6525 52.6337C22.0867 52.6352 20.5556 52.1716 19.2528 51.3016C17.95 50.4316 16.9341 49.1943 16.3334 47.7461C15.7327 46.2979 15.5742 44.7038 15.878 43.1653C16.1818 41.6269 16.9342 40.2133 18.0401 39.1031C18.3859 38.7655 18.7616 38.4601 19.1626 38.1906L19.5502 37.9436C19.822 37.7823 20.1039 37.6361 20.4009 37.4949C20.5519 37.4294 20.7029 37.3588 20.869 37.2983C21.178 37.1853 21.4941 37.0926 21.8153 37.0211L22.0166 36.9656C22.0511 36.9532 22.0864 36.9431 22.1223 36.9354L23.9142 36.8043C24.1458 36.8043 24.4176 36.8497 24.6642 36.885H24.7196H24.9562H25.0317H25.1072H25.5904C27.124 36.8707 28.6394 36.5514 30.0487 35.9456C31.4581 35.3398 32.7332 34.4596 33.8 33.3561C34.8726 32.2611 35.7163 30.9627 36.2815 29.537C36.8468 28.1113 37.1223 26.5869 37.0919 25.0532V24.9675V24.8818C37.0741 24.7853 37.064 24.6875 37.0617 24.5894V24.3474L36.9962 24.1156C36.9962 23.9744 36.961 23.8232 36.956 23.677L37.0768 22.0134V21.973V21.9428C37.0768 21.9025 37.1523 21.6806 37.1523 21.6806C37.2288 21.3389 37.3263 21.0021 37.4442 20.6724C37.4996 20.5212 37.5701 20.3699 37.6405 20.2187C37.7727 19.9202 37.924 19.6305 38.0935 19.3516V19.3062C38.164 19.1903 38.2295 19.0743 38.31 18.9634C38.5744 18.5643 38.8761 18.1913 39.211 17.8493C40.6981 16.3572 42.7162 15.5179 44.8212 15.516C46.9263 15.5141 48.9458 16.3498 50.4357 17.8392C51.9255 19.3287 52.7635 21.3498 52.7654 23.4581C52.7673 25.5664 51.9329 27.589 50.4457 29.0812C50.1019 29.4159 49.7278 29.718 49.3283 29.9835C49.2075 30.0692 49.1018 30.1297 48.9961 30.1953L48.9357 30.2305C48.6437 30.402 48.3619 30.5532 48.09 30.6792C47.929 30.7498 47.783 30.8204 47.632 30.8758C47.3143 30.9914 46.9899 31.0873 46.6605 31.1632C46.5908 31.178 46.5219 31.1965 46.4542 31.2186L46.3283 31.2539L44.5716 31.3749C44.3502 31.3749 44.1136 31.3346 43.867 31.3043H43.7562H43.5297H43.3837H43.3032H42.9106C39.8266 31.3495 36.8857 32.6148 34.7299 34.824C32.5741 37.0331 31.3785 40.0068 31.404 43.0957V43.1814V43.2722C31.4177 43.3607 31.4261 43.4499 31.4292 43.5394C31.4292 43.6352 31.4292 43.7259 31.4544 43.8166C31.4796 43.9074 31.4544 43.988 31.4846 44.0788C31.5021 44.2092 31.5122 44.3405 31.5148 44.472L31.3889 46.2011C31.3796 46.2471 31.3678 46.2925 31.3537 46.3372L31.3084 46.4935C31.2364 46.8359 31.1405 47.1728 31.0215 47.5018C30.9661 47.653 30.8906 47.8093 30.8202 47.9656C30.6922 48.2567 30.5494 48.5411 30.3923 48.8175C30.3118 48.9587 30.2363 49.0847 30.1507 49.2057C29.884 49.609 29.5789 49.9855 29.2397 50.3299C28.5071 51.0665 27.6364 51.6506 26.6774 52.0486C25.7185 52.4466 24.6905 52.6506 23.6525 52.6489V52.6337Z" fill="#6F3DFF"/>
</g>
<defs>
<clipPath id="clip0_1066_3626">
<rect width="58.8263" height="58.4882" fill="white" transform="translate(15.5234 15.5455)"/>
</clipPath>
</defs>
</svg>
