<svg width="72" height="34" viewBox="0 0 72 34" fill="none" xmlns="http://www.w3.org/2000/svg">
<path fill-rule="evenodd" clip-rule="evenodd" d="M18.2242 8.3246L0 32.6235C0.833785 32.7426 2.50135 32.339 3.21603 32.1603C4.87123 31.7464 17.5095 26.5488 24.2989 23.6901C26.3238 22.9754 30.7309 21.6175 32.1603 21.9034C33.9469 22.2607 26.4429 16.9007 18.5815 19.7594L17.8668 20.1167C19.0579 17.8536 22.0534 13.3392 23.9415 12.2553C25.3709 11.4348 27.8722 10.3628 30.7309 11.898C31.5495 12.3376 32.3032 13.1844 32.8749 14.042C33.4467 14.8996 41.2128 24.4047 45.0244 29.0501C46.2155 30.4795 47.8831 32.2662 52.1711 32.9808C54.7983 33.2728 55.0408 33.2367 56.0156 33.092C56.2341 33.0596 56.4893 33.0217 56.8165 32.9808C59.6752 32.6235 65.3925 31.5515 68.9659 26.5488C72.7787 21.2108 72.5393 15.4713 70.7526 10.1113C68.6086 4.75126 64.6779 1.53524 60.3898 0.463233C55.6254 -0.489664 45.0244 -0.608809 40.7363 6.53792C45.6199 5.58503 55.5403 4.75128 56.4591 11.1833C57.5311 18.6874 52.1711 22.6181 46.4537 20.1167C45.3576 19.5687 43.914 17.7045 42.9223 16.424C42.6208 16.0347 42.3612 15.6994 42.1657 15.4713C41.8863 15.1454 41.5279 14.6312 41.0875 13.9993C38.1488 9.78269 31.5557 0.32264 20.3682 6.53792L19.2962 7.25264L18.2242 8.3246ZM58.6032 5.00265C60.7472 5.71732 62.1765 6.78933 63.9632 8.57601C63.9632 8.57601 67.5366 11.792 66.7826 18.2241C65.7499 21.4401 64.6571 23.0285 61.1045 25.4767C59.437 26.5487 54.8154 28.0866 51.0991 26.0855C57.8885 24.2988 60.7472 21.0828 61.4619 19.2961C62.5588 16.5538 62.5454 14.6342 62.5356 13.2323C62.5347 13.1054 62.5339 12.9827 62.5339 12.864C62.5339 11.4347 62.1765 9.29068 58.6032 5.00265Z" fill="white"/>
</svg>
