<svg width="217" height="34" viewBox="0 0 217 34" fill="none" xmlns="http://www.w3.org/2000/svg">
<path fill-rule="evenodd" clip-rule="evenodd" d="M18.2242 8.3246L0 32.6235C0.833785 32.7426 2.50135 32.339 3.21603 32.1603C4.87123 31.7464 17.5095 26.5488 24.2989 23.6901C26.3238 22.9754 30.7309 21.6175 32.1603 21.9034C33.9469 22.2607 26.4429 16.9007 18.5815 19.7594L17.8668 20.1167C19.0579 17.8536 22.0534 13.3392 23.9415 12.2553C25.3709 11.4348 27.8722 10.3628 30.7309 11.898C31.5495 12.3376 32.3032 13.1844 32.8749 14.042C33.4467 14.8996 41.2128 24.4047 45.0244 29.0501C46.2155 30.4795 47.8831 32.2662 52.1711 32.9808C54.7983 33.2728 55.0408 33.2367 56.0156 33.092C56.2341 33.0596 56.4893 33.0217 56.8165 32.9808C59.6752 32.6235 65.3925 31.5515 68.9659 26.5488C72.7787 21.2108 72.5393 15.4713 70.7526 10.1113C68.6086 4.75126 64.6779 1.53524 60.3898 0.463233C55.6254 -0.489664 45.0244 -0.608809 40.7363 6.53792C45.6199 5.58503 55.5403 4.75128 56.4591 11.1833C57.5311 18.6874 52.1711 22.6181 46.4537 20.1167C45.3576 19.5687 43.914 17.7045 42.9223 16.424C42.6208 16.0347 42.3612 15.6994 42.1657 15.4713C41.8863 15.1454 41.5279 14.6312 41.0875 13.9993C38.1488 9.78269 31.5557 0.32264 20.3682 6.53792L19.2962 7.25264L18.2242 8.3246ZM58.6032 5.00265C60.7472 5.71732 62.1765 6.78933 63.9632 8.57601C63.9632 8.57601 67.5366 11.792 66.7826 18.2241C65.7499 21.4401 64.6571 23.0285 61.1045 25.4767C59.437 26.5487 54.8154 28.0866 51.0991 26.0855C57.8885 24.2988 60.7472 21.0828 61.4619 19.2961C62.5588 16.5538 62.5454 14.6342 62.5356 13.2323C62.5347 13.1054 62.5339 12.9827 62.5339 12.864C62.5339 11.4347 62.1765 9.29068 58.6032 5.00265Z" fill="white"/>
<path d="M96.1105 11.935L99.3386 20.1007H95.2736L93.5101 15.5149H86.1872C85.7886 15.5149 85.3901 15.5445 84.9916 15.6037C84.593 15.6628 84.2144 15.7812 83.8558 15.9587C83.2779 16.2546 82.7797 16.6688 82.3613 17.2013C82.0026 17.6944 81.7037 18.2467 81.4646 18.8581L81.0162 20.1007H80L84.4835 8.73976C84.7226 8.14805 84.9816 7.49716 85.2606 6.7871C85.5396 6.07704 85.7886 5.34726 86.0078 4.59775C86.227 3.82852 86.3765 3.06915 86.4562 2.31964C86.5359 1.55041 86.4861 0.830492 86.3067 0.159881H91.388L92.4341 2.79302C93.0319 4.33148 93.6297 5.85022 94.2275 7.34923C94.8452 8.84824 95.453 10.367 96.0508 11.9054L96.1105 11.935ZM93.2112 14.7457L88.399 2.11254L83.1384 14.7457H93.2112Z" fill="white"/>
<path d="M115.747 0.100708V3.17763C115.289 2.72398 114.831 2.34923 114.372 2.05337C113.934 1.75751 113.466 1.52083 112.968 1.34331C112.489 1.1658 111.971 1.04745 111.413 0.988283C110.875 0.909387 110.268 0.869939 109.59 0.869939H108.992V20.0415H105.435V0.869939H104.838C104.16 0.869939 103.542 0.909387 102.984 0.988283C102.446 1.04745 101.928 1.1658 101.43 1.34331C100.952 1.52083 100.484 1.75751 100.025 2.05337C99.587 2.34923 99.1387 2.72398 98.6803 3.17763V0.100708H115.747Z" fill="white"/>
<path d="M124.166 19.3019C125.143 19.3019 126.109 19.3118 127.065 19.3315C128.042 19.3512 128.998 19.3019 129.935 19.1835C130.871 19.0652 131.778 18.8482 132.655 18.5327C133.532 18.1974 134.369 17.6845 135.166 16.9942V20.1007H120.041V5.51491C120.041 4.44982 119.982 3.49321 119.862 2.64509C119.743 1.77724 119.454 0.938974 118.995 0.130295H123.598V19.3019H124.196H124.166Z" fill="white"/>
<path d="M154.693 11.935L157.921 20.1007H153.856L152.093 15.5149H144.77C144.371 15.5149 143.973 15.5445 143.574 15.6037C143.176 15.6628 142.797 15.7812 142.438 15.9587C141.86 16.2546 141.362 16.6688 140.944 17.2013C140.585 17.6944 140.286 18.2467 140.047 18.8581L139.599 20.1007H138.583L143.066 8.73976C143.305 8.14805 143.564 7.49716 143.843 6.7871C144.122 6.07704 144.371 5.34726 144.59 4.59775C144.81 3.82852 144.959 3.06915 145.039 2.31964C145.118 1.55041 145.069 0.830492 144.889 0.159881H149.971L151.017 2.79302C151.614 4.33148 152.212 5.85022 152.81 7.34923C153.428 8.84824 154.036 10.367 154.633 11.9054L154.693 11.935ZM151.794 14.7457L146.982 2.11254L141.721 14.7457H151.794Z" fill="white"/>
<path d="M176.008 15.9587V0.159881H177.234V20.1007H173.886L161.87 2.46757V20.1007H160.645V5.51491C160.645 4.44982 160.585 3.49321 160.466 2.64509C160.346 1.77724 160.057 0.938974 159.599 0.130295H165.098L175.978 15.9291L176.008 15.9587Z" fill="white"/>
<path d="M197.652 0.100708V3.17763C197.194 2.72398 196.735 2.34923 196.277 2.05337C195.839 1.75751 195.37 1.52083 194.872 1.34331C194.394 1.1658 193.876 1.04745 193.318 0.988283C192.78 0.909387 192.172 0.869939 191.495 0.869939H190.897V20.0415H187.34V0.869939H186.742C186.065 0.869939 185.447 0.909387 184.889 0.988283C184.351 1.04745 183.833 1.1658 183.335 1.34331C182.857 1.52083 182.388 1.75751 181.93 2.05337C181.492 2.34923 181.043 2.72398 180.585 3.17763V0.100708H197.652Z" fill="white"/>
<path d="M213.772 11.935L217 20.1007H212.935L211.172 15.5149H203.849C203.45 15.5149 203.051 15.5445 202.653 15.6037C202.254 15.6628 201.876 15.7812 201.517 15.9587C200.939 16.2546 200.441 16.6688 200.023 17.2013C199.664 17.6944 199.365 18.2467 199.126 18.8581L198.678 20.1007H197.661L202.145 8.73976C202.384 8.14805 202.643 7.49716 202.922 6.7871C203.201 6.07704 203.45 5.34726 203.669 4.59775C203.888 3.82852 204.038 3.06915 204.118 2.31964C204.197 1.55041 204.147 0.830492 203.968 0.159881H209.049L210.095 2.79302C210.693 4.33148 211.291 5.85022 211.889 7.34923C212.507 8.84824 213.114 10.367 213.712 11.9054L213.772 11.935ZM210.873 14.7457L206.06 2.11254L200.8 14.7457H210.873Z" fill="white"/>
<path d="M85.76 28.2367C85.76 28.6794 85.704 29.082 85.592 29.4447C85.48 29.802 85.312 30.1114 85.088 30.3727C84.8693 30.634 84.5947 30.834 84.264 30.9727C83.9387 31.1114 83.56 31.1807 83.128 31.1807C82.68 31.1807 82.2907 31.1114 81.96 30.9727C81.6293 30.8287 81.3547 30.6287 81.136 30.3727C80.9173 30.1114 80.7547 29.7994 80.648 29.4367C80.5413 29.074 80.488 28.6714 80.488 28.2287C80.488 27.642 80.584 27.13 80.776 26.6927C80.968 26.2554 81.2587 25.914 81.648 25.6687C82.0427 25.4234 82.5387 25.3007 83.136 25.3007C83.7067 25.3007 84.1867 25.4234 84.576 25.6687C84.9653 25.9087 85.2587 26.25 85.456 26.6927C85.6587 27.13 85.76 27.6447 85.76 28.2367ZM81.248 28.2367C81.248 28.7167 81.3147 29.13 81.448 29.4767C81.5813 29.8234 81.7867 30.09 82.064 30.2767C82.3467 30.4634 82.7013 30.5567 83.128 30.5567C83.56 30.5567 83.912 30.4634 84.184 30.2767C84.4613 30.09 84.6667 29.8234 84.8 29.4767C84.9333 29.13 85 28.7167 85 28.2367C85 27.5167 84.8507 26.954 84.552 26.5487C84.2533 26.138 83.7813 25.9327 83.136 25.9327C82.704 25.9327 82.3467 26.026 82.064 26.2127C81.7867 26.394 81.5813 26.658 81.448 27.0047C81.3147 27.346 81.248 27.7567 81.248 28.2367ZM93.514 31.1007H92.65L90.066 28.2047V31.1007H89.346V25.3887H90.066V28.1567L92.586 25.3887H93.402L90.922 28.1647L93.514 31.1007ZM99.8033 31.1007H96.6113V25.3887H99.8033V26.0207H97.3313V27.8047H99.6593V28.4287H97.3313V30.4687H99.8033V31.1007ZM106.961 31.1007L106.273 29.3327H104.009L103.329 31.1007H102.601L104.833 25.3647H105.481L107.705 31.1007H106.961ZM105.417 26.9647C105.401 26.922 105.374 26.8447 105.337 26.7327C105.299 26.6207 105.262 26.506 105.225 26.3887C105.193 26.266 105.166 26.1727 105.145 26.1087C105.118 26.2154 105.089 26.3247 105.057 26.4367C105.03 26.5434 105.001 26.642 104.969 26.7327C104.942 26.8234 104.918 26.9007 104.897 26.9647L104.249 28.6927H106.057L105.417 26.9647ZM115.174 31.1007H114.454V28.4367H111.526V31.1007H110.806V25.3887H111.526V27.8047H114.454V25.3887H115.174V31.1007ZM125.203 25.3887C125.678 25.3887 126.075 25.434 126.395 25.5247C126.72 25.6154 126.963 25.7647 127.123 25.9727C127.288 26.1807 127.371 26.458 127.371 26.8047C127.371 27.0287 127.328 27.2287 127.243 27.4047C127.163 27.5754 127.04 27.7194 126.875 27.8367C126.715 27.9487 126.518 28.026 126.283 28.0687V28.1087C126.523 28.146 126.739 28.2154 126.931 28.3167C127.128 28.418 127.283 28.562 127.395 28.7487C127.507 28.9354 127.563 29.178 127.563 29.4767C127.563 29.8234 127.483 30.1194 127.323 30.3647C127.163 30.6047 126.934 30.7887 126.635 30.9167C126.342 31.0394 125.99 31.1007 125.579 31.1007H123.571V25.3887H125.203ZM125.347 27.8207C125.838 27.8207 126.174 27.7434 126.355 27.5887C126.536 27.4287 126.627 27.194 126.627 26.8847C126.627 26.57 126.515 26.346 126.291 26.2127C126.072 26.074 125.72 26.0047 125.235 26.0047H124.291V27.8207H125.347ZM124.291 28.4207V30.4927H125.443C125.95 30.4927 126.302 30.394 126.499 30.1967C126.696 29.9994 126.795 29.7407 126.795 29.4207C126.795 29.218 126.75 29.042 126.659 28.8927C126.574 28.7434 126.427 28.6287 126.219 28.5487C126.016 28.4634 125.739 28.4207 125.387 28.4207H124.291ZM136.078 28.2367C136.078 28.6794 136.022 29.082 135.91 29.4447C135.798 29.802 135.63 30.1114 135.406 30.3727C135.187 30.634 134.913 30.834 134.582 30.9727C134.257 31.1114 133.878 31.1807 133.446 31.1807C132.998 31.1807 132.609 31.1114 132.278 30.9727C131.947 30.8287 131.673 30.6287 131.454 30.3727C131.235 30.1114 131.073 29.7994 130.966 29.4367C130.859 29.074 130.806 28.6714 130.806 28.2287C130.806 27.642 130.902 27.13 131.094 26.6927C131.286 26.2554 131.577 25.914 131.966 25.6687C132.361 25.4234 132.857 25.3007 133.454 25.3007C134.025 25.3007 134.505 25.4234 134.894 25.6687C135.283 25.9087 135.577 26.25 135.774 26.6927C135.977 27.13 136.078 27.6447 136.078 28.2367ZM131.566 28.2367C131.566 28.7167 131.633 29.13 131.766 29.4767C131.899 29.8234 132.105 30.09 132.382 30.2767C132.665 30.4634 133.019 30.5567 133.446 30.5567C133.878 30.5567 134.23 30.4634 134.502 30.2767C134.779 30.09 134.985 29.8234 135.118 29.4767C135.251 29.13 135.318 28.7167 135.318 28.2367C135.318 27.5167 135.169 26.954 134.87 26.5487C134.571 26.138 134.099 25.9327 133.454 25.9327C133.022 25.9327 132.665 26.026 132.382 26.2127C132.105 26.394 131.899 26.658 131.766 27.0047C131.633 27.346 131.566 27.7567 131.566 28.2367ZM142.962 26.7247C142.962 27.114 142.839 27.4234 142.594 27.6527C142.349 27.8767 142.021 28.0207 141.61 28.0847V28.1167C142.09 28.1807 142.455 28.33 142.706 28.5647C142.957 28.7994 143.082 29.106 143.082 29.4847C143.082 29.8207 142.997 30.1167 142.826 30.3727C142.655 30.6234 142.399 30.8207 142.058 30.9647C141.717 31.1087 141.29 31.1807 140.778 31.1807C140.469 31.1807 140.173 31.1567 139.89 31.1087C139.613 31.066 139.354 30.986 139.114 30.8687V30.2127C139.279 30.2927 139.455 30.362 139.642 30.4207C139.834 30.474 140.026 30.5167 140.218 30.5487C140.41 30.5754 140.594 30.5887 140.77 30.5887C141.282 30.5887 141.669 30.4927 141.93 30.3007C142.197 30.1087 142.33 29.8367 142.33 29.4847C142.33 29.122 142.175 28.858 141.866 28.6927C141.557 28.5274 141.125 28.4447 140.57 28.4447H139.754V27.8447H140.53C140.909 27.8447 141.221 27.802 141.466 27.7167C141.717 27.6314 141.903 27.5114 142.026 27.3567C142.154 27.1967 142.218 27.01 142.218 26.7967C142.218 26.5087 142.111 26.2874 141.898 26.1327C141.685 25.978 141.407 25.9007 141.066 25.9007C140.709 25.9007 140.41 25.946 140.17 26.0367C139.935 26.1274 139.706 26.2447 139.482 26.3887L139.138 25.9007C139.287 25.7887 139.458 25.69 139.65 25.6047C139.847 25.514 140.066 25.442 140.306 25.3887C140.546 25.3354 140.802 25.3087 141.074 25.3087C141.485 25.3087 141.829 25.37 142.106 25.4927C142.389 25.6154 142.602 25.7834 142.746 25.9967C142.89 26.2047 142.962 26.4474 142.962 26.7247ZM149.129 31.1007L147.249 26.0927H147.217C147.228 26.1994 147.236 26.3354 147.241 26.5007C147.252 26.666 147.26 26.8474 147.265 27.0447C147.27 27.2367 147.273 27.434 147.273 27.6367V31.1007H146.609V25.3887H147.673L149.433 30.0687H149.465L151.257 25.3887H152.313V31.1007H151.601V27.5887C151.601 27.402 151.604 27.218 151.609 27.0367C151.614 26.85 151.622 26.6767 151.633 26.5167C151.644 26.3514 151.652 26.2127 151.657 26.1007H151.625L149.721 31.1007H149.129ZM161.171 28.2367C161.171 28.6794 161.115 29.082 161.003 29.4447C160.891 29.802 160.723 30.1114 160.499 30.3727C160.28 30.634 160.006 30.834 159.675 30.9727C159.35 31.1114 158.971 31.1807 158.539 31.1807C158.091 31.1807 157.702 31.1114 157.371 30.9727C157.04 30.8287 156.766 30.6287 156.547 30.3727C156.328 30.1114 156.166 29.7994 156.059 29.4367C155.952 29.074 155.899 28.6714 155.899 28.2287C155.899 27.642 155.995 27.13 156.187 26.6927C156.379 26.2554 156.67 25.914 157.059 25.6687C157.454 25.4234 157.95 25.3007 158.547 25.3007C159.118 25.3007 159.598 25.4234 159.987 25.6687C160.376 25.9087 160.67 26.25 160.867 26.6927C161.07 27.13 161.171 27.6447 161.171 28.2367ZM156.659 28.2367C156.659 28.7167 156.726 29.13 156.859 29.4767C156.992 29.8234 157.198 30.09 157.475 30.2767C157.758 30.4634 158.112 30.5567 158.539 30.5567C158.971 30.5567 159.323 30.4634 159.595 30.2767C159.872 30.09 160.078 29.8234 160.211 29.4767C160.344 29.13 160.411 28.7167 160.411 28.2367C160.411 27.5167 160.262 26.954 159.963 26.5487C159.664 26.138 159.192 25.9327 158.547 25.9327C158.115 25.9327 157.758 26.026 157.475 26.2127C157.198 26.394 156.992 26.658 156.859 27.0047C156.726 27.346 156.659 27.7567 156.659 28.2367ZM166.129 28.1647L163.913 25.3887H164.713L166.897 28.1567V25.3887H167.585V28.1567L169.769 25.3887H170.569L168.353 28.1567L170.641 31.1007H169.817L167.585 28.2047V31.1007H166.897V28.2047L164.657 31.1007H163.833L166.129 28.1647ZM178.117 31.1007H177.397V28.4367H174.469V31.1007H173.749V25.3887H174.469V27.8047H177.397V25.3887H178.117V31.1007ZM186.982 28.2367C186.982 28.6794 186.926 29.082 186.814 29.4447C186.702 29.802 186.534 30.1114 186.31 30.3727C186.092 30.634 185.817 30.834 185.486 30.9727C185.161 31.1114 184.782 31.1807 184.35 31.1807C183.902 31.1807 183.513 31.1114 183.182 30.9727C182.852 30.8287 182.577 30.6287 182.358 30.3727C182.14 30.1114 181.977 29.7994 181.87 29.4367C181.764 29.074 181.71 28.6714 181.71 28.2287C181.71 27.642 181.806 27.13 181.998 26.6927C182.19 26.2554 182.481 25.914 182.87 25.6687C183.265 25.4234 183.761 25.3007 184.358 25.3007C184.929 25.3007 185.409 25.4234 185.798 25.6687C186.188 25.9087 186.481 26.25 186.678 26.6927C186.881 27.13 186.982 27.6447 186.982 28.2367ZM182.47 28.2367C182.47 28.7167 182.537 29.13 182.67 29.4767C182.804 29.8234 183.009 30.09 183.286 30.2767C183.569 30.4634 183.924 30.5567 184.35 30.5567C184.782 30.5567 185.134 30.4634 185.406 30.2767C185.684 30.09 185.889 29.8234 186.022 29.4767C186.156 29.13 186.222 28.7167 186.222 28.2367C186.222 27.5167 186.073 26.954 185.774 26.5487C185.476 26.138 185.004 25.9327 184.358 25.9327C183.926 25.9327 183.569 26.026 183.286 26.2127C183.009 26.394 182.804 26.658 182.67 27.0047C182.537 27.346 182.47 27.7567 182.47 28.2367ZM193.016 25.9407C192.712 25.9407 192.438 25.994 192.192 26.1007C191.947 26.202 191.739 26.354 191.568 26.5567C191.398 26.754 191.267 26.9967 191.176 27.2847C191.086 27.5674 191.04 27.8874 191.04 28.2447C191.04 28.714 191.112 29.122 191.256 29.4687C191.406 29.8154 191.624 30.082 191.912 30.2687C192.206 30.4554 192.571 30.5487 193.008 30.5487C193.259 30.5487 193.496 30.5274 193.72 30.4847C193.944 30.442 194.163 30.3887 194.376 30.3247V30.9487C194.163 31.0287 193.942 31.0874 193.712 31.1247C193.488 31.162 193.219 31.1807 192.904 31.1807C192.323 31.1807 191.838 31.0607 191.448 30.8207C191.059 30.5807 190.766 30.2394 190.568 29.7967C190.376 29.354 190.28 28.834 190.28 28.2367C190.28 27.8047 190.339 27.41 190.456 27.0527C190.579 26.6954 190.755 26.386 190.984 26.1247C191.219 25.8634 191.507 25.6634 191.848 25.5247C192.19 25.3807 192.582 25.3087 193.024 25.3087C193.318 25.3087 193.6 25.338 193.872 25.3967C194.144 25.4554 194.387 25.538 194.6 25.6447L194.312 26.2527C194.136 26.1727 193.939 26.1007 193.72 26.0367C193.507 25.9727 193.272 25.9407 193.016 25.9407ZM199.751 31.1007H199.031V26.0207H197.247V25.3887H201.527V26.0207H199.751V31.1007ZM207.9 31.1007H204.708V25.3887H207.9V26.0207H205.428V27.8047H207.756V28.4287H205.428V30.4687H207.9V31.1007ZM215.37 23.6127C215.348 23.8794 215.282 24.1034 215.17 24.2847C215.063 24.466 214.903 24.602 214.69 24.6927C214.476 24.7834 214.199 24.8287 213.858 24.8287C213.511 24.8287 213.231 24.7834 213.018 24.6927C212.81 24.602 212.658 24.4687 212.562 24.2927C212.466 24.1114 212.407 23.8847 212.386 23.6127H213.042C213.068 23.9007 213.143 24.0954 213.266 24.1967C213.394 24.2927 213.596 24.3407 213.874 24.3407C214.119 24.3407 214.311 24.29 214.45 24.1887C214.594 24.082 214.679 23.89 214.706 23.6127H215.37ZM211.482 25.3887H212.154V28.5247C212.154 28.658 212.151 28.8047 212.146 28.9647C212.146 29.1194 212.143 29.274 212.138 29.4287C212.132 29.5834 212.124 29.722 212.114 29.8447C212.108 29.962 212.103 30.0527 212.098 30.1167H212.13L215.274 25.3887H216.074V31.1007H215.402V27.9967C215.402 27.8527 215.404 27.698 215.41 27.5327C215.415 27.362 215.42 27.1994 215.426 27.0447C215.436 26.8847 215.444 26.7434 215.45 26.6207C215.455 26.498 215.46 26.4074 215.466 26.3487H215.434L212.282 31.1007H211.482V25.3887Z" fill="white"/>
</svg>
