<svg width="180" height="52" viewBox="0 0 180 52" fill="none" xmlns="http://www.w3.org/2000/svg">
<path d="M10.3592 25.3649C8.28958 25.3649 6.46745 24.9591 4.89276 24.1474C3.34058 23.3357 2.13707 22.231 1.28224 20.8331C0.427414 19.4126 0 17.8005 0 15.9968C0 14.1705 0.416166 12.5585 1.2485 11.1606C2.10333 9.74013 3.26184 8.63535 4.72405 7.84622C6.18625 7.03454 7.83967 6.6287 9.6843 6.6287C11.4614 6.6287 13.0586 7.01199 14.4758 7.77858C15.9155 8.52262 17.0516 9.60485 17.8839 11.0253C18.7162 12.4232 19.1324 14.1029 19.1324 16.0645C19.1324 16.2674 19.1211 16.5041 19.0987 16.7747C19.0762 17.0227 19.0537 17.2594 19.0312 17.4849H4.28539V14.4073H16.2642L14.2396 15.3204C14.2396 14.3735 14.0484 13.5505 13.666 12.8516C13.2836 12.1526 12.7549 11.6115 12.0801 11.2282C11.4052 10.8224 10.6179 10.6195 9.71804 10.6195C8.81822 10.6195 8.01964 10.8224 7.32228 11.2282C6.64741 11.6115 6.11877 12.1639 5.73634 12.8854C5.35392 13.5843 5.16271 14.4186 5.16271 15.3881V16.1997C5.16271 17.1918 5.37642 18.0711 5.80383 18.8377C6.25374 19.5817 6.87237 20.1567 7.65971 20.5625C8.46954 20.9458 9.41435 21.1374 10.4941 21.1374C11.4614 21.1374 12.305 20.9909 13.0249 20.6978C13.7672 20.4047 14.4421 19.965 15.0495 19.3788L17.8502 22.4226C17.0178 23.3696 15.9718 24.1023 14.712 24.6209C13.4523 25.1169 12.0013 25.3649 10.3592 25.3649Z" fill="white"/>
<path d="M22.2916 17.6878V13.4603H31.8409V17.6878H22.2916Z" fill="white"/>
<path d="M36.3538 25.0944V1.42044H41.8202V25.0944H36.3538Z" fill="white"/>
<path d="M58.0887 6.6287C59.5284 6.6287 60.8106 6.92181 61.9354 7.50802C63.0827 8.07168 63.9825 8.951 64.6348 10.146C65.2872 11.3184 65.6134 12.829 65.6134 14.6778V25.0944H60.3495V15.4895C60.3495 14.024 60.0233 12.9418 59.3709 12.2428C58.741 11.5439 57.8412 11.1944 56.6714 11.1944C55.8391 11.1944 55.0855 11.3748 54.4107 11.7355C53.7583 12.0737 53.2409 12.6036 52.8585 13.325C52.4985 14.0465 52.3186 14.9709 52.3186 16.0983V25.0944H47.0546V6.89926H52.0824V11.9384L51.1376 10.4165C51.7899 9.19901 52.7235 8.26333 53.9382 7.60948C55.153 6.95563 56.5365 6.6287 58.0887 6.6287Z" fill="white"/>
<path d="M77.8084 25.3649C75.6713 25.3649 74.0067 24.8238 72.8144 23.7416C71.6221 22.6368 71.026 21.0022 71.026 18.8377V2.87469H76.2899V18.77C76.2899 19.5366 76.4924 20.1341 76.8973 20.5625C77.3022 20.9683 77.8534 21.1713 78.5508 21.1713C79.3831 21.1713 80.0917 20.9458 80.6766 20.4949L82.0938 24.2151C81.5539 24.5983 80.9015 24.8915 80.1367 25.0944C79.3943 25.2747 78.6182 25.3649 77.8084 25.3649ZM68.2253 11.3635V7.3051H80.8115V11.3635H68.2253Z" fill="white"/>
<path d="M93.4979 25.3649C91.4284 25.3649 89.6062 24.9591 88.0315 24.1474C86.4793 23.3357 85.2758 22.231 84.421 20.8331C83.5662 19.4126 83.1388 17.8005 83.1388 15.9968C83.1388 14.1705 83.5549 12.5585 84.3873 11.1606C85.2421 9.74013 86.4006 8.63535 87.8628 7.84622C89.325 7.03454 90.9784 6.6287 92.8231 6.6287C94.6002 6.6287 96.1974 7.01199 97.6146 7.77858C99.0543 8.52262 100.19 9.60485 101.023 11.0253C101.855 12.4232 102.271 14.1029 102.271 16.0645C102.271 16.2674 102.26 16.5041 102.237 16.7747C102.215 17.0227 102.192 17.2594 102.17 17.4849H87.4242V14.4073H99.403L97.3784 15.3204C97.3784 14.3735 97.1872 13.5505 96.8048 12.8516C96.4223 12.1526 95.8937 11.6115 95.2188 11.2282C94.544 10.8224 93.7566 10.6195 92.8568 10.6195C91.957 10.6195 91.1584 10.8224 90.461 11.2282C89.7862 11.6115 89.2575 12.1639 88.8751 12.8854C88.4927 13.5843 88.3015 14.4186 88.3015 15.3881V16.1997C88.3015 17.1918 88.5152 18.0711 88.9426 18.8377C89.3925 19.5817 90.0111 20.1567 90.7985 20.5625C91.6083 20.9458 92.5531 21.1374 93.6329 21.1374C94.6002 21.1374 95.4438 20.9909 96.1637 20.6978C96.906 20.4047 97.5809 19.965 98.1882 19.3788L100.989 22.4226C100.157 23.3696 99.1105 24.1023 97.8508 24.6209C96.5911 25.1169 95.1401 25.3649 93.4979 25.3649Z" fill="white"/>
<path d="M105.776 25.0944V0H111.04V25.0944H105.776Z" fill="white"/>
<path d="M115.925 25.0944V0H121.189V25.0944H115.925Z" fill="white"/>
<path d="M135.084 25.3649C133.014 25.3649 131.192 24.9591 129.617 24.1474C128.065 23.3357 126.862 22.231 126.007 20.8331C125.152 19.4126 124.725 17.8005 124.725 15.9968C124.725 14.1705 125.141 12.5585 125.973 11.1606C126.828 9.74013 127.986 8.63535 129.449 7.84622C130.911 7.03454 132.564 6.6287 134.409 6.6287C136.186 6.6287 137.783 7.01199 139.2 7.77858C140.64 8.52262 141.776 9.60485 142.609 11.0253C143.441 12.4232 143.857 14.1029 143.857 16.0645C143.857 16.2674 143.846 16.5041 143.823 16.7747C143.801 17.0227 143.778 17.2594 143.756 17.4849H129.01V14.4073H140.989L138.964 15.3204C138.964 14.3735 138.773 13.5505 138.391 12.8516C138.008 12.1526 137.48 11.6115 136.805 11.2282C136.13 10.8224 135.342 10.6195 134.443 10.6195C133.543 10.6195 132.744 10.8224 132.047 11.2282C131.372 11.6115 130.843 12.1639 130.461 12.8854C130.079 13.5843 129.887 14.4186 129.887 15.3881V16.1997C129.887 17.1918 130.101 18.0711 130.528 18.8377C130.978 19.5817 131.597 20.1567 132.384 20.5625C133.194 20.9458 134.139 21.1374 135.219 21.1374C136.186 21.1374 137.03 20.9909 137.75 20.6978C138.492 20.4047 139.167 19.965 139.774 19.3788L142.575 22.4226C141.742 23.3696 140.696 24.1023 139.437 24.6209C138.177 25.1169 136.726 25.3649 135.084 25.3649Z" fill="white"/>
<path d="M156.135 25.3649C154.178 25.3649 152.434 24.9704 150.905 24.1812C149.375 23.3696 148.171 22.2535 147.294 20.8331C146.439 19.4126 146.012 17.8005 146.012 15.9968C146.012 14.1705 146.439 12.5585 147.294 11.1606C148.171 9.74013 149.375 8.63535 150.905 7.84622C152.434 7.03454 154.178 6.6287 156.135 6.6287C158.047 6.6287 159.712 7.03454 161.129 7.84622C162.546 8.63535 163.592 9.77395 164.267 11.262L160.184 13.4603C159.712 12.6036 159.115 11.9722 158.396 11.5664C157.698 11.1606 156.933 10.9577 156.101 10.9577C155.201 10.9577 154.391 11.1606 153.672 11.5664C152.952 11.9722 152.378 12.5472 151.951 13.2912C151.546 14.0353 151.343 14.9371 151.343 15.9968C151.343 17.0565 151.546 17.9584 151.951 18.7024C152.378 19.4464 152.952 20.0214 153.672 20.4272C154.391 20.8331 155.201 21.036 156.101 21.036C156.933 21.036 157.698 20.8443 158.396 20.461C159.115 20.0552 159.712 19.4126 160.184 18.5333L164.267 20.7654C163.592 22.231 162.546 23.3696 161.129 24.1812C159.712 24.9704 158.047 25.3649 156.135 25.3649Z" fill="white"/>
<path d="M174.985 25.3649C172.848 25.3649 171.183 24.8238 169.991 23.7416C168.799 22.6368 168.202 21.0022 168.202 18.8377V2.87469H173.466V18.77C173.466 19.5366 173.669 20.1341 174.074 20.5625C174.479 20.9683 175.03 21.1713 175.727 21.1713C176.56 21.1713 177.268 20.9458 177.853 20.4949L179.27 24.2151C178.73 24.5983 178.078 24.8915 177.313 25.0944C176.571 25.2747 175.795 25.3649 174.985 25.3649ZM165.402 11.3635V7.3051H177.988V11.3635H165.402Z" fill="white"/>
<path d="M77.7665 47.4449C76.9345 47.4449 76.1878 47.2636 75.5265 46.9009C74.8758 46.5276 74.3638 46.0209 73.9905 45.3809C73.6172 44.7303 73.4305 43.9889 73.4305 43.1569C73.4305 42.3143 73.6172 41.5729 73.9905 40.9329C74.3638 40.2929 74.8758 39.7916 75.5265 39.4289C76.1878 39.0663 76.9345 38.8849 77.7665 38.8849C78.4812 38.8849 79.1265 39.0236 79.7025 39.3009C80.2785 39.5783 80.7318 39.9943 81.0625 40.5489L80.2145 41.1249C79.9265 40.6983 79.5692 40.3836 79.1425 40.1809C78.7158 39.9783 78.2518 39.8769 77.7505 39.8769C77.1532 39.8769 76.6145 40.0156 76.1345 40.2929C75.6545 40.5596 75.2758 40.9383 74.9985 41.4289C74.7212 41.9196 74.5825 42.4956 74.5825 43.1569C74.5825 43.8183 74.7212 44.3943 74.9985 44.8849C75.2758 45.3756 75.6545 45.7596 76.1345 46.0369C76.6145 46.3036 77.1532 46.4369 77.7505 46.4369C78.2518 46.4369 78.7158 46.3356 79.1425 46.1329C79.5692 45.9303 79.9265 45.6209 80.2145 45.2049L81.0625 45.7809C80.7318 46.3249 80.2785 46.7409 79.7025 47.0289C79.1265 47.3063 78.4812 47.4449 77.7665 47.4449ZM82.8691 47.3649V35.4929H84.0051V47.3649H82.8691ZM90.338 47.4449C89.6233 47.4449 88.9993 47.3116 88.466 47.0449C87.9327 46.7783 87.5167 46.3783 87.218 45.8449C86.93 45.3116 86.786 44.6449 86.786 43.8449V38.9649H87.922V43.7169C87.922 44.6129 88.1407 45.2903 88.578 45.7489C89.026 46.1969 89.65 46.4209 90.45 46.4209C91.0367 46.4209 91.5433 46.3036 91.97 46.0689C92.4073 45.8236 92.738 45.4716 92.962 45.0129C93.1967 44.5543 93.314 44.0049 93.314 43.3649V38.9649H94.45V47.3649H93.362V45.0609L93.538 45.4769C93.2713 46.0956 92.8553 46.5809 92.29 46.9329C91.7353 47.2743 91.0847 47.4449 90.338 47.4449ZM101.652 47.4449C100.916 47.4449 100.255 47.2796 99.668 46.9489C99.0813 46.6076 98.6173 46.1169 98.276 45.4769C97.9347 44.8369 97.764 44.0636 97.764 43.1569C97.764 42.2396 97.9347 41.4663 98.276 40.8369C98.628 40.1969 99.0973 39.7116 99.684 39.3809C100.271 39.0503 100.927 38.8849 101.652 38.8849C102.452 38.8849 103.167 39.0663 103.796 39.4289C104.436 39.7809 104.937 40.2769 105.3 40.9169C105.663 41.5569 105.844 42.3036 105.844 43.1569C105.844 43.9996 105.663 44.7463 105.3 45.3969C104.937 46.0369 104.436 46.5383 103.796 46.9009C103.167 47.2636 102.452 47.4449 101.652 47.4449ZM97.316 47.3649V35.4929H98.452V41.4449L98.292 43.1409L98.404 44.8369V47.3649H97.316ZM101.572 46.4369C102.169 46.4369 102.703 46.3036 103.172 46.0369C103.641 45.7596 104.015 45.3756 104.292 44.8849C104.569 44.3836 104.708 43.8076 104.708 43.1569C104.708 42.4956 104.569 41.9196 104.292 41.4289C104.015 40.9383 103.641 40.5596 103.172 40.2929C102.703 40.0156 102.169 39.8769 101.572 39.8769C100.975 39.8769 100.436 40.0156 99.956 40.2929C99.4867 40.5596 99.1133 40.9383 98.836 41.4289C98.5693 41.9196 98.436 42.4956 98.436 43.1569C98.436 43.8076 98.5693 44.3836 98.836 44.8849C99.1133 45.3756 99.4867 45.7596 99.956 46.0369C100.436 46.3036 100.975 46.4369 101.572 46.4369Z" fill="white"/>
</svg>
