<svg width="228" height="211" viewBox="0 0 228 211" fill="none" xmlns="http://www.w3.org/2000/svg">


<defs>
<linearGradient id="paint0_linear_1945_7414" x1="112.728" y1="44.9859" x2="114.174" y2="210.563" gradientUnits="userSpaceOnUse">
<stop stop-color="#6F3DFF"/>
<stop offset="1" stop-color="#BC9EF3"/>
</linearGradient>
<linearGradient id="paint1_linear_1945_7414" x1="66.9539" y1="160.563" x2="75.268" y2="141.652" gradientUnits="userSpaceOnUse">
<stop stop-color="#AA80F9"/>
<stop offset="1" stop-color="#6165D7"/>
</linearGradient>
<linearGradient id="paint2_linear_1945_7414" x1="169.388" y1="151.913" x2="89.4135" y2="151.913" gradientUnits="userSpaceOnUse">
<stop stop-color="#D8DEE8"/>
<stop offset="1" stop-color="white"/>
</linearGradient>
<linearGradient id="paint3_linear_1945_7414" x1="87.5918" y1="151.946" x2="170.878" y2="151.946" gradientUnits="userSpaceOnUse">
<stop stop-color="#AA80F9"/>
<stop offset="1" stop-color="#6165D7"/>
</linearGradient>
<linearGradient id="paint4_linear_1945_7414" x1="79.2824" y1="108.05" x2="64.2907" y2="158.548" gradientUnits="userSpaceOnUse">
<stop stop-color="#FFC444"/>
<stop offset="1" stop-color="#F36F56"/>
</linearGradient>
<linearGradient id="paint5_linear_1945_7414" x1="169.389" y1="129.329" x2="89.4135" y2="129.329" gradientUnits="userSpaceOnUse">
<stop stop-color="#D8DEE8"/>
<stop offset="1" stop-color="white"/>
</linearGradient>
<linearGradient id="paint6_linear_1945_7414" x1="87.5917" y1="129.481" x2="170.878" y2="129.481" gradientUnits="userSpaceOnUse">
<stop stop-color="#FFC444"/>
<stop offset="1" stop-color="#F36F56"/>
</linearGradient>
<linearGradient id="paint7_linear_1945_7414" x1="48.1984" y1="106.152" x2="93.0161" y2="106.152" gradientUnits="userSpaceOnUse">
<stop stop-color="#FF9085"/>
<stop offset="1" stop-color="#FB6FBB"/>
</linearGradient>
<linearGradient id="paint8_linear_1945_7414" x1="45.3705" y1="105.813" x2="65.153" y2="106.029" gradientUnits="userSpaceOnUse">
<stop stop-color="#AA80F9"/>
<stop offset="1" stop-color="#6165D7"/>
</linearGradient>
<linearGradient id="paint9_linear_1945_7414" x1="169.388" y1="106.251" x2="89.413" y2="106.251" gradientUnits="userSpaceOnUse">
<stop stop-color="#D8DEE8"/>
<stop offset="1" stop-color="white"/>
</linearGradient>
<linearGradient id="paint10_linear_1945_7414" x1="87.5918" y1="98.02" x2="170.878" y2="98.02" gradientUnits="userSpaceOnUse">
<stop stop-color="#AA80F9"/>
<stop offset="1" stop-color="#6165D7"/>
</linearGradient>
<linearGradient id="paint11_linear_1945_7414" x1="87.5918" y1="114.539" x2="170.878" y2="114.539" gradientUnits="userSpaceOnUse">
<stop stop-color="#AA80F9"/>
<stop offset="1" stop-color="#6165D7"/>
</linearGradient>
<linearGradient id="paint12_linear_1945_7414" x1="61.2764" y1="116.951" x2="58.0126" y2="112.119" gradientUnits="userSpaceOnUse">
<stop stop-color="#FFC444"/>
<stop offset="1" stop-color="#F36F56"/>
</linearGradient>
<linearGradient id="paint13_linear_1945_7414" x1="60.3751" y1="115.617" x2="55.6069" y2="108.557" gradientUnits="userSpaceOnUse">
<stop stop-color="#AA80F9"/>
<stop offset="1" stop-color="#6165D7"/>
</linearGradient>
<linearGradient id="paint14_linear_1945_7414" x1="69.8101" y1="43.2392" x2="121.096" y2="78.0744" gradientUnits="userSpaceOnUse">
<stop stop-color="#311944"/>
<stop offset="1" stop-color="#6B3976"/>
</linearGradient>
<linearGradient id="paint15_linear_1945_7414" x1="60.9045" y1="70.0314" x2="76.8718" y2="70.0314" gradientUnits="userSpaceOnUse">
<stop stop-color="#E38DDD"/>
<stop offset="1" stop-color="#9571F6"/>
</linearGradient>
<linearGradient id="paint16_linear_1945_7414" x1="48.2296" y1="126.347" x2="54.4937" y2="122.155" gradientUnits="userSpaceOnUse">
<stop stop-color="#311944"/>
<stop offset="1" stop-color="#6B3976"/>
</linearGradient>
<linearGradient id="paint17_linear_1945_7414" x1="50.291" y1="128.007" x2="62.5895" y2="91.1099" gradientUnits="userSpaceOnUse">
<stop stop-color="#FFC444"/>
<stop offset="1" stop-color="#F36F56"/>
</linearGradient>
<linearGradient id="paint18_linear_1945_7414" x1="48.2287" y1="111.063" x2="52.4526" y2="111.063" gradientUnits="userSpaceOnUse">
<stop stop-color="#311944"/>
<stop offset="1" stop-color="#6B3976"/>
</linearGradient>
<linearGradient id="paint19_linear_1945_7414" x1="45.7803" y1="122.662" x2="52.6781" y2="101.97" gradientUnits="userSpaceOnUse">
<stop stop-color="#FFC444"/>
<stop offset="1" stop-color="#F36F56"/>
</linearGradient>
<linearGradient id="paint20_linear_1945_7414" x1="54.2793" y1="87.8002" x2="59.4242" y2="117.542" gradientUnits="userSpaceOnUse">
<stop stop-color="#40447E"/>
<stop offset="1" stop-color="#3C3B6B"/>
</linearGradient>
<linearGradient id="paint21_linear_1945_7414" x1="61.5446" y1="123.05" x2="68.8597" y2="99.8986" gradientUnits="userSpaceOnUse">
<stop stop-color="#40447E"/>
<stop offset="1" stop-color="#3C3B6B"/>
</linearGradient>
<linearGradient id="paint22_linear_1945_7414" x1="61.5126" y1="123.039" x2="68.8276" y2="99.8884" gradientUnits="userSpaceOnUse">
<stop stop-color="#40447E"/>
<stop offset="1" stop-color="#3C3B6B"/>
</linearGradient>
<linearGradient id="paint23_linear_1945_7414" x1="71.8387" y1="84.798" x2="76.9713" y2="114.472" gradientUnits="userSpaceOnUse">
<stop stop-color="#40447E"/>
<stop offset="1" stop-color="#3C3B6B"/>
</linearGradient>
<linearGradient id="paint24_linear_1945_7414" x1="77.6669" y1="70.5903" x2="83.9877" y2="99.485" gradientUnits="userSpaceOnUse">
<stop stop-color="#E38DDD"/>
<stop offset="1" stop-color="#9571F6"/>
</linearGradient>
<linearGradient id="paint25_linear_1945_7414" x1="80.293" y1="65.2288" x2="77.2662" y2="51.6406" gradientUnits="userSpaceOnUse">
<stop stop-color="#FFC444"/>
<stop offset="1" stop-color="#F36F56"/>
</linearGradient>
<linearGradient id="paint26_linear_1945_7414" x1="78.2346" y1="53.1208" x2="81.7084" y2="70.796" gradientUnits="userSpaceOnUse">
<stop stop-color="#FFC444"/>
<stop offset="1" stop-color="#F36F56"/>
</linearGradient>
<linearGradient id="paint27_linear_1945_7414" x1="65.73" y1="83.8435" x2="93.4691" y2="83.8435" gradientUnits="userSpaceOnUse">
<stop stop-color="#AA80F9"/>
<stop offset="1" stop-color="#6165D7"/>
</linearGradient>
<linearGradient id="paint28_linear_1945_7414" x1="87.3786" y1="68.4662" x2="93.6994" y2="97.3609" gradientUnits="userSpaceOnUse">
<stop stop-color="#E38DDD"/>
<stop offset="1" stop-color="#9571F6"/>
</linearGradient>
<linearGradient id="paint29_linear_1945_7414" x1="67.9321" y1="80.8836" x2="53.0119" y2="54.8525" gradientUnits="userSpaceOnUse">
<stop stop-color="#311944"/>
<stop offset="1" stop-color="#6B3976"/>
</linearGradient>
<linearGradient id="paint30_linear_1945_7414" x1="62.7269" y1="88.3849" x2="71.6671" y2="72.9742" gradientUnits="userSpaceOnUse">
<stop stop-color="#311944"/>
<stop offset="1" stop-color="#6B3976"/>
</linearGradient>
<linearGradient id="paint31_linear_1945_7414" x1="75.5282" y1="80.4812" x2="82.1519" y2="86.7235" gradientUnits="userSpaceOnUse">
<stop stop-color="#FFC444"/>
<stop offset="1" stop-color="#F36F56"/>
</linearGradient>
<linearGradient id="paint32_linear_1945_7414" x1="126.171" y1="139.438" x2="118.947" y2="296.175" gradientUnits="userSpaceOnUse">
<stop stop-color="#26264F"/>
<stop offset="1" stop-color="#444B8C"/>
</linearGradient>
<linearGradient id="paint33_linear_1945_7414" x1="133.451" y1="52.5375" x2="126.227" y2="209.274" gradientUnits="userSpaceOnUse">
<stop stop-color="#444B8C"/>
<stop offset="1" stop-color="#26264F"/>
</linearGradient>
<linearGradient id="paint34_linear_1945_7414" x1="133.483" y1="61.9287" x2="127.354" y2="194.925" gradientUnits="userSpaceOnUse">
<stop offset="0.49" stop-color="#EBEFF2"/>
<stop offset="1" stop-color="white"/>
</linearGradient>
<linearGradient id="paint35_linear_1945_7414" x1="117.222" y1="95.1562" x2="125.906" y2="95.1562" gradientUnits="userSpaceOnUse">
<stop stop-color="#FF9085"/>
<stop offset="1" stop-color="#FB6FBB"/>
</linearGradient>
<linearGradient id="paint36_linear_1945_7414" x1="112.8" y1="95.231" x2="117.273" y2="95.231" gradientUnits="userSpaceOnUse">
<stop stop-color="#FF9085"/>
<stop offset="1" stop-color="#FB6FBB"/>
</linearGradient>
<linearGradient id="paint37_linear_1945_7414" x1="112.536" y1="52.7306" x2="109.015" y2="148.66" gradientUnits="userSpaceOnUse">
<stop stop-color="#AA80F9"/>
<stop offset="1" stop-color="#6165D7"/>
</linearGradient>
<linearGradient id="paint38_linear_1945_7414" x1="102.827" y1="64.8555" x2="88.5859" y2="224.173" gradientUnits="userSpaceOnUse">
<stop stop-color="#FFC444"/>
<stop offset="1" stop-color="#F36F56"/>
</linearGradient>
<linearGradient id="paint39_linear_1945_7414" x1="91.1248" y1="95.4459" x2="95.5981" y2="95.4459" gradientUnits="userSpaceOnUse">
<stop stop-color="#FFC444"/>
<stop offset="1" stop-color="#F36F56"/>
</linearGradient>
<linearGradient id="paint40_linear_1945_7414" x1="162.919" y1="78.1097" x2="157.022" y2="132.293" gradientUnits="userSpaceOnUse">
<stop stop-color="#E38DDD"/>
<stop offset="1" stop-color="#9571F6"/>
</linearGradient>
<linearGradient id="paint41_linear_1945_7414" x1="152.771" y1="94.8127" x2="157.244" y2="94.8127" gradientUnits="userSpaceOnUse">
<stop stop-color="#E38DDD"/>
<stop offset="1" stop-color="#9571F6"/>
</linearGradient>
<linearGradient id="paint42_linear_1945_7414" x1="152.965" y1="54.1965" x2="149.606" y2="145.742" gradientUnits="userSpaceOnUse">
<stop stop-color="#40447E"/>
<stop offset="1" stop-color="#3C3B6B"/>
</linearGradient>
<linearGradient id="paint43_linear_1945_7414" x1="144.165" y1="65.7836" x2="130.585" y2="217.713" gradientUnits="userSpaceOnUse">
<stop stop-color="#AA80F9"/>
<stop offset="1" stop-color="#6165D7"/>
</linearGradient>
<linearGradient id="paint44_linear_1945_7414" x1="133.036" y1="94.9127" x2="137.509" y2="94.9127" gradientUnits="userSpaceOnUse">
<stop stop-color="#AA80F9"/>
<stop offset="1" stop-color="#6165D7"/>
</linearGradient>
<linearGradient id="paint45_linear_1945_7414" x1="163.817" y1="108.015" x2="157.42" y2="174.905" gradientUnits="userSpaceOnUse">
<stop stop-color="#FFC444"/>
<stop offset="1" stop-color="#F36F56"/>
</linearGradient>
<linearGradient id="paint46_linear_1945_7414" x1="150.984" y1="139.44" x2="157.107" y2="139.44" gradientUnits="userSpaceOnUse">
<stop stop-color="#FFC444"/>
<stop offset="1" stop-color="#F36F56"/>
</linearGradient>
<linearGradient id="paint47_linear_1945_7414" x1="152.85" y1="97.3585" x2="149.45" y2="189.987" gradientUnits="userSpaceOnUse">
<stop stop-color="#AA80F9"/>
<stop offset="1" stop-color="#6165D7"/>
</linearGradient>
<linearGradient id="paint48_linear_1945_7414" x1="144.067" y1="109.763" x2="130.401" y2="262.651" gradientUnits="userSpaceOnUse">
<stop stop-color="#FF9085"/>
<stop offset="1" stop-color="#FB6FBB"/>
</linearGradient>
<linearGradient id="paint49_linear_1945_7414" x1="131.273" y1="140.233" x2="137.396" y2="140.233" gradientUnits="userSpaceOnUse">
<stop stop-color="#FF9085"/>
<stop offset="1" stop-color="#FB6FBB"/>
</linearGradient>
<linearGradient id="paint50_linear_1945_7414" x1="132.561" y1="120.273" x2="130.1" y2="168.91" gradientUnits="userSpaceOnUse">
<stop stop-color="#AA80F9"/>
<stop offset="1" stop-color="#6165D7"/>
</linearGradient>
<linearGradient id="paint51_linear_1945_7414" x1="124.46" y1="109.064" x2="117.757" y2="179.152" gradientUnits="userSpaceOnUse">
<stop stop-color="#FFC444"/>
<stop offset="1" stop-color="#F36F56"/>
</linearGradient>
<linearGradient id="paint52_linear_1945_7414" x1="110.962" y1="141.053" x2="117.255" y2="141.053" gradientUnits="userSpaceOnUse">
<stop stop-color="#FFC444"/>
<stop offset="1" stop-color="#F36F56"/>
</linearGradient>
<linearGradient id="paint53_linear_1945_7414" x1="112.507" y1="97.9003" x2="108.943" y2="195.017" gradientUnits="userSpaceOnUse">
<stop stop-color="#40447E"/>
<stop offset="1" stop-color="#3C3B6B"/>
</linearGradient>
<linearGradient id="paint54_linear_1945_7414" x1="102.82" y1="110.921" x2="88.485" y2="271.292" gradientUnits="userSpaceOnUse">
<stop stop-color="#E38DDD"/>
<stop offset="1" stop-color="#9571F6"/>
</linearGradient>
<linearGradient id="paint55_linear_1945_7414" x1="92.1687" y1="141.948" x2="95.6205" y2="141.948" gradientUnits="userSpaceOnUse">
<stop stop-color="#E38DDD"/>
<stop offset="1" stop-color="#9571F6"/>
</linearGradient>
<linearGradient id="paint56_linear_1945_7414" x1="71.1046" y1="157.648" x2="113.744" y2="157.648" gradientUnits="userSpaceOnUse">
<stop stop-color="#FFC444"/>
<stop offset="1" stop-color="#F36F56"/>
</linearGradient>
<linearGradient id="paint57_linear_1945_7414" x1="75.8258" y1="174.552" x2="79.3017" y2="166.647" gradientUnits="userSpaceOnUse">
<stop stop-color="#AA80F9"/>
<stop offset="1" stop-color="#6165D7"/>
</linearGradient>
<linearGradient id="paint58_linear_1945_7414" x1="84.8814" y1="170.017" x2="113.771" y2="170.017" gradientUnits="userSpaceOnUse">
<stop stop-color="#D8DEE8"/>
<stop offset="1" stop-color="white"/>
</linearGradient>
<linearGradient id="paint59_linear_1945_7414" x1="84.1842" y1="170.031" x2="114.279" y2="170.031" gradientUnits="userSpaceOnUse">
<stop stop-color="#AA80F9"/>
<stop offset="1" stop-color="#6165D7"/>
</linearGradient>
<linearGradient id="paint60_linear_1945_7414" x1="80.8718" y1="153.235" x2="74.7781" y2="173.761" gradientUnits="userSpaceOnUse">
<stop stop-color="#FFC444"/>
<stop offset="1" stop-color="#F36F56"/>
</linearGradient>
<linearGradient id="paint61_linear_1945_7414" x1="84.8815" y1="161.382" x2="113.771" y2="161.382" gradientUnits="userSpaceOnUse">
<stop stop-color="#D8DEE8"/>
<stop offset="1" stop-color="white"/>
</linearGradient>
<linearGradient id="paint62_linear_1945_7414" x1="84.1842" y1="161.471" x2="114.279" y2="161.471" gradientUnits="userSpaceOnUse">
<stop stop-color="#FFC444"/>
<stop offset="1" stop-color="#F36F56"/>
</linearGradient>
<linearGradient id="paint63_linear_1945_7414" x1="151.947" y1="164.708" x2="152.999" y2="177.685" gradientUnits="userSpaceOnUse">
<stop stop-color="#311944"/>
<stop offset="1" stop-color="#A03976"/>
</linearGradient>
<linearGradient id="paint64_linear_1945_7414" x1="154.597" y1="171.928" x2="154.379" y2="158.486" gradientUnits="userSpaceOnUse">
<stop stop-color="#FFC444"/>
<stop offset="1" stop-color="#F36F56"/>
</linearGradient>
<linearGradient id="paint65_linear_1945_7414" x1="171.215" y1="163.147" x2="172.267" y2="176.123" gradientUnits="userSpaceOnUse">
<stop stop-color="#311944"/>
<stop offset="1" stop-color="#A03976"/>
</linearGradient>
<linearGradient id="paint66_linear_1945_7414" x1="172.259" y1="171.641" x2="172.04" y2="158.198" gradientUnits="userSpaceOnUse">
<stop stop-color="#FFC444"/>
<stop offset="1" stop-color="#F36F56"/>
</linearGradient>
<linearGradient id="paint67_linear_1945_7414" x1="151.336" y1="150.159" x2="161.275" y2="150.134" gradientUnits="userSpaceOnUse">
<stop stop-color="#444B8C"/>
<stop offset="1" stop-color="#3E4177"/>
</linearGradient>
<linearGradient id="paint68_linear_1945_7414" x1="151.336" y1="150.159" x2="161.275" y2="150.135" gradientUnits="userSpaceOnUse">
<stop stop-color="#444B8C"/>
<stop offset="1" stop-color="#3E4177"/>
</linearGradient>
<linearGradient id="paint69_linear_1945_7414" x1="154.093" y1="149.172" x2="174.102" y2="149.123" gradientUnits="userSpaceOnUse">
<stop stop-color="#444B8C"/>
<stop offset="1" stop-color="#3E4177"/>
</linearGradient>
<linearGradient id="paint70_linear_1945_7414" x1="154.431" y1="108.536" x2="180.68" y2="167.671" gradientUnits="userSpaceOnUse">
<stop stop-color="#FFC444"/>
<stop offset="1" stop-color="#F36F56"/>
</linearGradient>
<linearGradient id="paint71_linear_1945_7414" x1="165.392" y1="108.629" x2="166.901" y2="102.091" gradientUnits="userSpaceOnUse">
<stop stop-color="#AB316D"/>
<stop offset="1" stop-color="#792D3D"/>
</linearGradient>
<linearGradient id="paint72_linear_1945_7414" x1="166.737" y1="107.813" x2="163.741" y2="98.9991" gradientUnits="userSpaceOnUse">
<stop stop-color="#444B8C"/>
<stop offset="1" stop-color="#3E4177"/>
</linearGradient>
<linearGradient id="paint73_linear_1945_7414" x1="163.916" y1="104.019" x2="166.028" y2="98.6378" gradientUnits="userSpaceOnUse">
<stop stop-color="#AB316D"/>
<stop offset="1" stop-color="#792D3D"/>
</linearGradient>
<linearGradient id="paint74_linear_1945_7414" x1="139.917" y1="123.051" x2="156.014" y2="123.051" gradientUnits="userSpaceOnUse">
<stop stop-color="#AA80F9"/>
<stop offset="1" stop-color="#6165D7"/>
</linearGradient>
<linearGradient id="paint75_linear_1945_7414" x1="168.866" y1="102.129" x2="195.114" y2="161.264" gradientUnits="userSpaceOnUse">
<stop stop-color="#FFC444"/>
<stop offset="1" stop-color="#F36F56"/>
</linearGradient>
<linearGradient id="paint76_linear_1945_7414" x1="150.152" y1="128.156" x2="183.178" y2="128.156" gradientUnits="userSpaceOnUse">
<stop stop-color="#FFC444"/>
<stop offset="1" stop-color="#F36F56"/>
</linearGradient>
<linearGradient id="paint77_linear_1945_7414" x1="133.407" y1="130.582" x2="174.404" y2="130.582" gradientUnits="userSpaceOnUse">
<stop stop-color="#444B8C"/>
<stop offset="1" stop-color="#26264F"/>
</linearGradient>
<linearGradient id="paint78_linear_1945_7414" x1="95.5971" y1="117.641" x2="137.898" y2="117.641" gradientUnits="userSpaceOnUse">
<stop stop-color="#444B8C"/>
<stop offset="1" stop-color="#26264F"/>
</linearGradient>
<linearGradient id="paint79_linear_1945_7414" x1="110.414" y1="142.138" x2="117.259" y2="110.954" gradientUnits="userSpaceOnUse">
<stop stop-color="#444B8C"/>
<stop offset="1" stop-color="#26264F"/>
</linearGradient>
<linearGradient id="paint80_linear_1945_7414" x1="120.592" y1="96.5036" x2="111.042" y2="138.324" gradientUnits="userSpaceOnUse">
<stop stop-color="#444B8C"/>
<stop offset="1" stop-color="#26264F"/>
</linearGradient>
<linearGradient id="paint81_linear_1945_7414" x1="172.298" y1="135.517" x2="180.243" y2="131.343" gradientUnits="userSpaceOnUse">
<stop stop-color="#AB316D"/>
<stop offset="1" stop-color="#792D3D"/>
</linearGradient>
<linearGradient id="paint82_linear_1945_7414" x1="136.27" y1="126.704" x2="140.006" y2="128.967" gradientUnits="userSpaceOnUse">
<stop stop-color="#AB316D"/>
<stop offset="1" stop-color="#792D3D"/>
</linearGradient>
<clipPath id="clip0_1945_7414">
<rect width="150" height="149.592" fill="white" transform="translate(39 30)"/>
</clipPath>
</defs>

<path d="M117.89 0.222648C140.564 1.7529 161.545 11.7464 179.15 26.1175C196.403 40.2014 207.907 59.2172 215.71 80.0766C224.079 102.448 232.496 126.57 225.242 149.328C217.878 172.432 198.433 190 177.036 201.41C157.084 212.05 134.019 210.906 111.424 210.025C89.0265 209.153 65.611 209.234 47.266 196.355C28.4642 183.155 18.715 161.334 11.1656 139.637C3.24019 116.86 -4.50074 92.3928 3.13244 69.5158C10.8419 46.4102 31.0567 30.1206 51.908 17.5301C71.8611 5.48197 94.6343 -1.34685 117.89 0.222648Z" fill="#FF2C62"/>
<path d="M117.89 0.222648C140.564 1.7529 161.545 11.7464 179.15 26.1175C196.403 40.2014 207.907 59.2172 215.71 80.0766C224.079 102.448 232.496 126.57 225.242 149.328C217.878 172.432 198.433 190 177.036 201.41C157.084 212.05 134.019 210.906 111.424 210.025C89.0265 209.153 65.611 209.234 47.266 196.355C28.4642 183.155 18.715 161.334 11.1656 139.637C3.24019 116.86 -4.50074 92.3928 3.13244 69.5158C10.8419 46.4102 31.0567 30.1206 51.908 17.5301C71.8611 5.48197 94.6343 -1.34685 117.89 0.222648Z" fill="url(#paint0_linear_1945_7414)"/>
<g clip-path="url(#clip0_1945_7414)">
<path d="M75.5768 38.6934C70.456 45.8626 76.2484 57.635 68.7047 62.9882C61.3619 68.1994 52.5007 59.4376 45.5847 63.9168C35.327 70.5618 36.8609 101.475 51.5545 120.831C55.9734 126.65 59.6929 128.936 61.2817 135.483C64.694 149.539 52.0957 157.747 54.4037 164.706C59.5999 180.375 141.904 194.343 175.476 147.77C191.156 126.019 193.801 94.3982 180.25 70.2221C155.764 26.5316 87.0682 22.6059 75.5768 38.6934Z" fill="#F4F7FA"/>
<path d="M95.1579 162.749L54.0858 150.115C50.0853 148.887 46.993 144.829 46.993 141.015V140.973C46.993 137.158 50.0853 134.687 54.0858 135.504L98.2336 143.97L95.1579 162.749Z" fill="url(#paint1_linear_1945_7414)"/>
<path d="M169.388 157.602L97.1981 161.961C92.915 162.22 89.413 159.183 89.413 155.176V152.457C89.413 148.45 92.915 145.054 97.1981 144.875L169.388 141.854V157.602Z" fill="url(#paint2_linear_1945_7414)"/>
<path d="M170.049 158.401L97.7737 162.835C92.1869 163.178 87.5918 159.202 87.5918 153.963V153.906C87.5918 148.67 92.1864 144.221 97.7737 143.993L170.049 141.035C170.158 141.031 170.265 141.048 170.367 141.086C170.468 141.125 170.56 141.183 170.638 141.259C170.715 141.334 170.777 141.425 170.818 141.525C170.859 141.625 170.88 141.732 170.878 141.84C170.877 142.064 170.791 142.279 170.637 142.441C170.483 142.604 170.273 142.701 170.049 142.714L97.7737 145.813C93.2757 146.006 89.584 149.591 89.584 153.803V153.86C89.584 158.072 93.2757 161.279 97.7737 161.012L170.049 156.72C170.157 156.713 170.264 156.728 170.366 156.765C170.467 156.801 170.559 156.858 170.637 156.933C170.715 157.007 170.777 157.096 170.818 157.196C170.86 157.295 170.88 157.402 170.878 157.509C170.877 157.735 170.791 157.952 170.638 158.117C170.484 158.282 170.274 158.383 170.049 158.401Z" fill="url(#paint3_linear_1945_7414)"/>
<path d="M96.9364 143.97L54.0858 135.504C50.0853 134.687 46.993 129.394 46.993 123.666V123.602C46.993 117.874 50.0853 113.367 54.0858 113.565L99.6307 115.82L96.9364 143.97Z" fill="url(#paint4_linear_1945_7414)"/>
<path d="M169.388 139.802L101.057 142.496C94.6637 142.748 89.4156 138.077 89.4156 132.059V127.977C89.4156 121.959 94.6637 117.019 101.057 116.945L169.391 116.151L169.388 139.802Z" fill="url(#paint5_linear_1945_7414)"/>
<path d="M170.049 141.036L97.7757 143.993C92.189 144.222 87.5939 138.013 87.5939 130.151V130.066C87.5939 122.204 92.1885 115.76 97.7757 115.703L170.052 114.964C170.509 114.96 170.88 115.519 170.88 116.215C170.88 116.911 170.509 117.479 170.052 117.485L97.7757 118.436C93.2778 118.495 89.5861 123.689 89.5861 130.013V130.1C89.5861 136.424 93.2778 141.426 97.7757 141.258L170.052 138.515C170.509 138.498 170.88 139.05 170.88 139.744C170.88 140.439 170.507 141.018 170.049 141.036Z" fill="url(#paint6_linear_1945_7414)"/>
<path d="M93.0161 114.593L53.6612 112.84C50.5908 112.703 48.1968 110.204 48.1968 107.254V105.25C48.1968 102.298 50.5892 99.788 53.6596 99.6405L93.0145 97.7124L93.0161 114.593Z" fill="url(#paint7_linear_1945_7414)"/>
<path d="M88.5042 115.755L54.0858 113.565C50.0853 113.367 46.993 110.11 46.993 106.295V106.253C46.993 102.438 50.0853 99.1683 54.0858 98.9541L88.3963 96.8144C89.0556 96.7786 95.1557 97.1579 95.1557 97.6611C95.1557 98.1644 90.0269 98.6452 89.3692 98.6762L54.0858 100.367C50.8434 100.509 48.3127 103.145 48.3127 106.251V106.294C48.3127 109.399 50.8434 112.025 54.0858 112.153L89.3692 113.916C90.0285 113.943 95.1557 114.184 95.1557 114.687C95.1557 115.191 89.1635 115.788 88.5042 115.755Z" fill="url(#paint8_linear_1945_7414)"/>
<path d="M169.388 114.129L89.413 114.867V97.6348L169.388 98.3779V114.129Z" fill="url(#paint9_linear_1945_7414)"/>
<path d="M170.049 99.2761L88.5893 98.6045C88.039 98.5997 87.5918 98.1841 87.5918 97.6754C87.5918 97.1668 88.039 96.7592 88.5893 96.7672L170.049 97.5996C170.271 97.6037 170.482 97.6948 170.638 97.8534C170.793 98.0119 170.879 98.2251 170.878 98.4469C170.879 98.5559 170.858 98.6639 170.816 98.7647C170.775 98.8655 170.714 98.957 170.637 99.0341C170.56 99.1112 170.468 99.1723 170.367 99.2138C170.266 99.2553 170.158 99.2765 170.049 99.2761Z" fill="url(#paint10_linear_1945_7414)"/>
<path d="M170.049 114.962L88.5893 115.795C88.039 115.8 87.5918 115.393 87.5918 114.886C87.5918 114.38 88.039 113.962 88.5893 113.957L170.049 113.285C170.159 113.285 170.267 113.306 170.368 113.348C170.469 113.389 170.56 113.451 170.638 113.528C170.715 113.605 170.776 113.697 170.817 113.798C170.858 113.9 170.879 114.008 170.878 114.117C170.878 114.338 170.792 114.551 170.637 114.709C170.482 114.867 170.271 114.958 170.049 114.962Z" fill="url(#paint11_linear_1945_7414)"/>
<g style="mix-blend-mode:soft-light" opacity="0.5">
<path d="M83.3578 137.607L74.152 135.766C72.0204 130.003 72.1806 124.768 74.152 118.539L83.3578 119.328C81.4607 125.93 81.7481 131.946 83.3578 137.607Z" fill="white"/>
</g>
<path style="mix-blend-mode:multiply" opacity="0.3" d="M64.9467 114.199L64.6839 104.599L55.5438 113.673C55.5438 113.673 50.8755 115.777 51.6646 120.117L57.0563 118.539L62.0537 120.643C62.0537 120.643 62.1814 115.965 64.9467 114.199Z" fill="url(#paint12_linear_1945_7414)"/>
<path d="M54.5576 104.862L64.6839 104.599C64.6839 104.599 59.8179 107.886 62.0537 120.643C62.0537 120.643 57.714 118.933 55.8729 116.566L51.6646 120.117C51.6646 120.117 49.1659 109.202 54.5576 104.862Z" fill="url(#paint13_linear_1945_7414)"/>
<path d="M72.6278 61.7683C71.6629 61.1427 72.5417 59.323 72.5941 55.4149C72.6577 50.6253 71.3856 49.7326 72.4071 47.8536C73.6567 45.5563 76.8014 44.6048 78.8855 44.5599C79.345 44.5503 79.4523 44.2992 83.3022 45.2961C90.2384 47.0928 91.9753 45.1668 95.0815 47.0907C98.0824 48.9494 96.7681 50.9844 99.6825 53.1641C104.406 56.6972 109.374 52.8778 112.75 55.8327C115.943 58.628 116.017 65.7496 112.658 69.6363C108.85 74.0423 101.984 72.7184 97.382 71.8449C96.4139 71.6611 91.5233 70.6343 86.4297 66.8763C84.1582 65.1981 82.1426 63.1987 80.4461 60.9408C80.157 60.6159 79.7066 60.2222 79.1104 60.1586C78.3961 60.0822 77.8223 60.5192 77.5461 60.7105C76.0993 61.7154 73.5739 62.3827 72.6278 61.7683Z" fill="url(#paint14_linear_1945_7414)"/>
<path d="M76.5043 59.1437C75.2637 58.0138 70.8369 60.192 67.9027 63.0828C64.4562 66.4791 64.7212 69.2332 61.7134 73.4522C60.2174 75.5502 60.585 83.3135 64.6074 80.6871C67.4016 78.8621 68.8393 76.4446 71.6009 71.6838C74.372 66.906 78.0547 60.5563 76.5043 59.1437Z" fill="url(#paint15_linear_1945_7414)"/>
<path d="M49.4106 125.546L50.8215 122.549C51.0219 122.123 51.3344 121.76 51.7255 121.498L52.4238 121.031C52.4238 121.031 54.0933 120.986 54.3535 122.036C54.4069 123.368 51.819 126.346 50.1815 127.529C49.9096 127.725 49.5217 127.987 49.2861 127.85C48.887 127.624 49.1669 126.398 49.4106 125.546Z" fill="url(#paint16_linear_1945_7414)"/>
<path d="M52.0615 119.401C52.2838 120.686 52.0027 121.357 51.6998 121.732C51.4861 121.996 49.7567 124.849 50.4673 125.311C50.7878 125.519 52.9858 122.79 53.1989 122.373C53.3918 121.994 53.5195 122.084 53.5286 121.052C53.535 120.52 53.6207 119.991 53.7829 119.484L52.0615 119.401Z" fill="url(#paint17_linear_1945_7414)"/>
<path d="M49.5633 109.213C49.5633 109.213 48.0022 111.076 48.2565 113.119C48.5108 115.161 51.2446 112.175 51.6255 111.166C52.0065 110.157 52.4526 108.719 52.4526 108.719C52.4526 108.719 50.5351 107.526 49.5633 109.213Z" fill="url(#paint18_linear_1945_7414)"/>
<path d="M50.1591 106.298C50.1591 106.298 50.5827 108.468 49.7749 109.614C49.3726 110.185 48.8298 110.669 48.9896 111.133C49.0964 111.444 49.5025 111.667 49.8444 111.632C50.5031 111.565 50.868 110.555 51.1266 109.843C51.507 108.791 51.7191 106.54 51.7191 106.54L50.1591 106.298Z" fill="url(#paint19_linear_1945_7414)"/>
<path d="M51.4023 108.128L49.9598 107.603C49.2119 105.893 48.2967 103.082 48.6018 99.6666C49.3871 90.8823 57.5115 86.2279 58.4139 85.73C60.6273 86.8402 62.8696 88.4071 62.9508 90.3823C63.0523 92.8618 59.6748 94.1723 56.4997 97.7978C54.5972 99.9738 52.5606 103.216 51.4023 108.128Z" fill="url(#paint20_linear_1945_7414)"/>
<path d="M51.9211 120.406C50.3349 114.209 50.7398 109.151 51.1977 106.238C51.8922 101.835 53.2963 92.8779 59.2762 89.5383C60.5819 88.809 62.4491 88.1556 64.7256 86.1281C66.2468 84.765 67.5417 83.1689 68.5621 81.3994C76.5599 79.053 83.9364 80.0039 87.1916 84.2929C87.5656 84.7887 88.5091 85.8637 88.6913 87.4488C89.1021 91.0251 85.5883 95.3312 81.645 96.2304C76.6331 97.3731 78.7701 95.8377 74.3299 97.55C73.0878 98.0308 66.2269 97.5126 64.1208 99.8863C61.4415 102.905 60.7016 103.786 60.1294 104.899C58.4331 108.219 57.1466 110.669 56.9586 113.846C56.9153 114.586 56.8891 116.081 56.022 117.693C55.3569 118.93 54.4551 119.755 53.7846 120.265L51.9211 120.406Z" fill="url(#paint21_linear_1945_7414)"/>
<path style="mix-blend-mode:multiply" opacity="0.3" d="M88.6897 87.4488C88.5075 85.8637 87.5678 84.7887 87.1895 84.2929C83.9348 80.0039 76.5578 79.053 68.5605 81.3994C67.5402 83.1687 66.2454 84.7648 64.7245 86.1281C62.4491 88.1583 60.5819 88.809 59.2751 89.5383C55.623 91.5775 53.6799 95.7137 52.5601 99.6234C54.2216 97.0478 55.6438 96.3645 56.7438 96.3506C58.3193 96.3335 59.023 97.6803 60.9041 97.496C62.7018 97.3208 63.0117 95.8238 65.0034 95.4466C66.7189 95.1218 67.9878 96.061 69.3127 96.6824C74.8188 99.2639 81.3789 95.8222 81.6792 95.6844C84.9168 94.1954 89.1208 91.2052 88.6897 87.4488Z" fill="url(#paint22_linear_1945_7414)"/>
<path d="M56.0648 92.3096C57.3921 92.2393 58.7228 92.2694 60.0455 92.3999C68.0252 93.1885 70.2252 97.1356 76.8212 98.0988C78.3812 98.327 85.3276 99.341 88.3365 95.3255C90.4965 92.4405 90.1696 87.4751 87.8071 85.5208C86.807 84.6943 85.817 84.7195 79.4134 84.7729C77.0023 84.7948 74.5907 84.8023 72.179 84.8332C61.971 84.9631 60.0188 84.2563 58.1617 85.945C57.2941 86.7347 56.0274 88.4261 56.0648 92.3096Z" fill="url(#paint23_linear_1945_7414)"/>
<path d="M77.6145 59.5579C77.6145 59.5579 85.6722 57.2072 89.2207 61.2253C89.872 61.9626 90.3875 62.9349 90.762 64.8048C92.672 74.3445 85.4478 80.0744 88.2938 85.1066C89.4243 87.1052 91.4149 87.7074 92.8296 91.2992C93.0695 91.9071 93.9355 94.1067 93.1405 94.7996C92.4407 95.4097 91.2894 94.1211 89.2442 94.3722C87.0783 94.6356 86.5729 96.2993 85.1149 96.0573C84.165 95.897 83.7553 95.0881 82.3555 93.0654C80.3296 90.1377 79.3161 88.6738 78.5901 88.1604C75.7243 86.135 73.5093 88.7764 70.2418 86.7713C69.0584 86.0453 64.6754 80.4014 65.9651 81.9518C69.0344 78.1228 69.7476 74.9632 69.8208 72.7663C69.9015 70.3584 69.2069 69.2638 69.8208 66.4172C69.8208 66.4172 70.5057 63.2405 72.9761 60.5132C73.3308 60.1205 73.754 59.7123 77.6145 59.5579Z" fill="url(#paint24_linear_1945_7414)"/>
<path d="M80.2019 54.3315C80.095 54.8412 79.5373 57.5772 80.6565 58.2808C80.8991 58.4336 81.365 58.5206 82.2978 58.6959C82.9079 58.8102 83.4197 58.8802 83.7814 58.9235C83.728 59.3819 83.5747 60.1288 83.0452 60.8078C81.5616 62.7119 78.5858 62.2193 78.1616 62.1434C76.6657 61.871 75.1922 61.4083 74.8364 61.1284C74.2946 60.701 73.8688 60.3756 73.6172 60.0476C74.1963 59.7676 75.3653 59.0293 76.1501 58.7878C76.6879 58.6223 77.2348 58.4881 77.7881 58.386L78.035 56.8009L80.2019 54.3315Z" fill="url(#paint25_linear_1945_7414)"/>
<path d="M80.2521 55.6979C80.2521 55.6979 80.0496 57.7025 78.1012 58.0561C76.3557 58.3724 75.0425 54.1561 75.9353 53.0651C76.2334 52.7013 76.9685 52.3551 77.6064 52.3732C78.0547 52.3866 79.5688 52.9609 79.7803 54.4787C80.0817 54.1582 80.4578 54.0695 80.6431 54.2025C80.8782 54.3714 80.75 54.8618 80.7233 54.9729C80.6459 55.2579 80.4811 55.5115 80.2521 55.6979Z" fill="url(#paint26_linear_1945_7414)"/>
<path style="mix-blend-mode:multiply" opacity="0.3" d="M65.9651 81.9507C66.3342 81.4901 66.6676 81.0392 66.9716 80.5985C68.3726 80.1212 69.8328 79.84 71.3108 79.7629C73.9757 79.6336 75.4348 80.2608 77.2491 79.1693C79.3081 77.9299 78.9432 76.2101 80.9306 75.25C83.0217 74.2392 84.5006 75.3815 86.5126 75.0123C87.7275 74.7895 89.2073 73.9769 90.7177 71.6069C89.561 77.3139 86.1973 81.4009 88.2938 85.1076C89.4243 87.1062 91.4149 87.7084 92.8296 91.3002C93.0695 91.9081 93.9355 94.1077 93.1405 94.8006C92.4407 95.4107 91.2894 94.1221 89.2442 94.3732C87.0783 94.6366 86.5729 96.3003 85.1149 96.0582C84.165 95.898 83.7553 95.0891 82.3555 93.0664C80.3296 90.1387 79.3161 88.6748 78.5901 88.1614C75.7243 86.136 73.5093 88.7774 70.2418 86.7723C69.0584 86.0436 64.6754 80.4003 65.9651 81.9507Z" fill="url(#paint27_linear_1945_7414)"/>
<path d="M80.2826 82.3211C80.0454 81.6942 79.808 81.0675 79.5704 80.441C82.1931 79.7219 85.8212 78.6593 89.5407 77.33C90.1236 77.1217 90.816 76.8642 91.0425 76.2508C91.6788 74.5311 87.6345 72.7488 86.0622 68.993C84.6079 65.5203 85.4083 60.6997 87.096 60.1307C90.6076 58.9457 103.06 74.4456 98.6124 80.9801C96.0982 84.6734 88.3477 85.2616 80.2826 82.3211Z" fill="url(#paint28_linear_1945_7414)"/>
<path d="M69.9623 82.4105C69.6172 82.1087 65.9554 68.6481 64.9002 64.7517C64.8717 64.6471 64.8159 64.5518 64.7385 64.4758C64.6611 64.3998 64.5649 64.3457 64.4597 64.319C64.3546 64.2924 64.2442 64.2942 64.14 64.3242C64.0357 64.3543 63.9413 64.4114 63.8664 64.4899L59.9957 68.5305L63.9118 84.7495L65.9372 85.7288C65.9372 85.7288 70.3683 82.7642 69.9623 82.4105Z" fill="url(#paint29_linear_1945_7414)"/>
<path d="M77.8314 83.1134L74.472 68.2781C74.3884 67.9087 74.1683 67.5845 73.8558 67.3704C73.5434 67.1563 73.1616 67.0682 72.7869 67.1236L61.5927 68.7739L65.7299 85.7301L76.4754 84.9437C76.6911 84.928 76.9009 84.8659 77.0904 84.7616C77.2799 84.6574 77.4446 84.5134 77.5734 84.3396C77.7021 84.1659 77.7918 83.9663 77.8363 83.7547C77.8809 83.543 77.8792 83.3243 77.8314 83.1134Z" fill="url(#paint30_linear_1945_7414)"/>
<path d="M79.5704 80.4406C77.9244 79.566 75.9535 80.4625 75.8263 80.5223C75.296 80.7744 74.8151 81.1192 74.4063 81.5406C74.3459 81.6229 73.6316 82.6123 73.8918 82.9297C74.1007 83.1835 74.9069 82.973 75.8787 82.3693C76.4546 82.288 77.038 82.2736 77.6172 82.3265C78.9496 82.4494 79.5602 82.8704 80.0437 82.5071C80.398 82.24 80.5187 81.679 80.391 81.2607C80.2521 80.8114 79.8493 80.5886 79.5704 80.4406Z" fill="url(#paint31_linear_1945_7414)"/>
<g style="mix-blend-mode:soft-light">
<path d="M72.7191 70.6998L64.8635 71.7871L65.2022 74.2342L73.0578 73.1469L72.7191 70.6998Z" fill="white"/>
</g>
<path d="M168.837 67.2654C168.843 65.6973 167.567 64.3953 165.981 64.3585L89.7876 62.5767C87.8936 62.5324 86.3523 63.8937 86.3523 65.6167V167.09C86.3523 168.795 87.8851 170.034 89.7715 169.858L165.595 162.757C167.175 162.609 168.455 161.23 168.462 159.676L168.837 67.2654Z" fill="url(#paint32_linear_1945_7414)"/>
<path d="M172.118 67.1163C172.124 65.5477 170.848 64.2463 169.262 64.2094L93.0684 62.4293C91.1745 62.3849 89.6337 63.7462 89.6337 65.4692V166.942C89.6337 168.647 91.1664 169.886 93.0529 169.71L168.875 162.609C170.454 162.461 171.734 161.082 171.741 159.528L172.118 67.1163Z" fill="url(#paint33_linear_1945_7414)"/>
<path d="M168.646 73.5109L168.333 153.566C168.33 154.392 167.649 155.115 166.809 155.189L95.6921 161.206C94.7016 161.29 93.8992 160.631 93.8992 159.732L93.9179 72.5909C93.9199 72.3519 93.9772 72.1166 94.0853 71.9034C94.1933 71.6903 94.3492 71.505 94.5408 71.3621C94.8777 71.1045 95.2922 70.969 95.7162 70.978L167.124 71.9845C167.527 71.9872 167.914 72.149 168.199 72.4347C168.484 72.7205 168.645 73.1072 168.646 73.5109Z" fill="url(#paint34_linear_1945_7414)"/>
<g style="mix-blend-mode:soft-light" opacity="0.9">
<path d="M165.516 155.298L95.7456 161.202C94.7556 161.286 93.8992 160.631 93.8992 159.733L93.9179 72.5911C93.9179 72.0964 94.185 71.6556 94.5681 71.3623C94.7973 71.8795 95.0574 72.3891 95.324 72.8881C103.175 87.5839 118.854 77.7729 129.183 92.2523C137.261 103.579 130.987 114.424 140.101 126.979C147.301 136.896 153.75 133.398 160.303 142.943C162.826 146.617 164.464 150.915 165.516 155.298Z" fill="white"/>
</g>
<g style="mix-blend-mode:soft-light" opacity="0.5">
<path d="M137.386 125.273L125.815 125.811L125.818 124.523L137.388 124.002L137.386 125.273Z" fill="white"/>
<path d="M137.311 156.29L125.758 157.238L125.761 155.954L137.314 155.023L137.311 156.29Z" fill="white"/>
</g>
<path d="M125.835 114.645L117.222 114.937L117.277 75.3765L125.906 75.4668L125.835 114.645Z" fill="url(#paint35_linear_1945_7414)"/>
<g style="mix-blend-mode:soft-light">
<path d="M123.097 107.264L119.866 107.346L119.902 82.9287L123.138 82.9357L123.097 107.264Z" fill="white"/>
</g>
<path d="M117.273 75.3765L112.8 77.717V115.086L117.222 114.937L117.273 75.3765Z" fill="url(#paint36_linear_1945_7414)"/>
<path d="M117.222 114.937L104.62 115.363L104.649 77.7466L117.273 77.8444L117.222 114.937Z" fill="url(#paint37_linear_1945_7414)"/>
<g style="mix-blend-mode:soft-light" opacity="0.9">
<path d="M117.267 82.0533L104.646 82.0149L104.647 80.6904L117.269 80.7471L117.267 82.0533Z" fill="white"/>
<path d="M117.264 84.2293L104.644 84.2218L104.645 82.8979L117.266 82.9236L117.264 84.2293Z" fill="white"/>
</g>
<g style="mix-blend-mode:soft-light" opacity="0.9">
<path d="M117.228 110.018L104.624 110.375L104.625 109.055L117.23 108.716L117.228 110.018Z" fill="white"/>
<path d="M117.225 112.189L104.622 112.576L104.623 111.256L117.227 110.887L117.225 112.189Z" fill="white"/>
</g>
<path d="M104.62 115.363L95.5852 115.669L95.598 75.1484L104.651 75.2435L104.62 115.363Z" fill="url(#paint38_linear_1945_7414)"/>
<g style="mix-blend-mode:soft-light" opacity="0.5">
<path d="M103.525 80.3905L96.9006 80.3584L96.9017 77.5381L103.528 77.5904L103.525 80.3905Z" fill="white"/>
</g>
<path d="M95.5981 75.1484L91.1248 77.489V115.743L95.5853 115.669L95.5981 75.1484Z" fill="url(#paint39_linear_1945_7414)"/>
<path d="M164.997 113.32L157.134 113.586L157.261 75.7969L165.138 75.8797L164.997 113.32Z" fill="url(#paint40_linear_1945_7414)"/>
<g style="mix-blend-mode:soft-light">
<path d="M162.512 106.263L159.561 106.339L159.643 83.0107L162.596 83.0172L162.512 106.263Z" fill="white"/>
</g>
<path d="M157.244 75.7969L152.771 78.0269V113.829L157.23 113.586L157.244 75.7969Z" fill="url(#paint41_linear_1945_7414)"/>
<path d="M157.134 113.586L145.642 113.975L145.742 78.0649L157.253 78.1542L157.134 113.586Z" fill="url(#paint42_linear_1945_7414)"/>
<g style="mix-blend-mode:soft-light" opacity="0.9">
<path d="M157.239 82.1738L145.731 82.139L145.735 80.875L157.244 80.9268L157.239 82.1738Z" fill="white"/>
<path d="M157.233 84.2524L145.725 84.246L145.728 82.9819L157.236 83.0054L157.233 84.2524Z" fill="white"/>
</g>
<g style="mix-blend-mode:soft-light" opacity="0.9">
<path d="M157.149 108.888L145.655 109.213L145.659 107.952L157.153 107.644L157.149 108.888Z" fill="white"/>
<path d="M157.142 110.961L145.649 111.314L145.653 110.053L157.147 109.717L157.142 110.961Z" fill="white"/>
</g>
<path d="M145.642 113.975L137.412 114.254L137.504 75.5894L145.749 75.6759L145.642 113.975Z" fill="url(#paint43_linear_1945_7414)"/>
<g style="mix-blend-mode:soft-light" opacity="0.5">
<path d="M144.713 80.5891L138.679 80.5597L138.686 77.8682L144.721 77.9162L144.713 80.5891Z" fill="white"/>
</g>
<path d="M137.509 75.5742L133.036 77.8042V114.252L137.497 114.181L137.509 75.5742Z" fill="url(#paint44_linear_1945_7414)"/>
<path d="M168.482 116.49L93.9088 119.303L93.9099 115.444L168.496 112.944L168.482 116.49Z" fill="#D8DEE8"/>
<path d="M164.836 156.213L156.988 156.877L157.115 119.25L164.976 118.931L164.836 156.213Z" fill="url(#paint45_linear_1945_7414)"/>
<g style="mix-blend-mode:soft-light" opacity="0.9">
<path d="M164.965 121.941L157.104 122.287L157.109 121.044L164.97 120.71L164.965 121.941Z" fill="white"/>
<path d="M164.957 123.993L157.097 124.358L157.102 123.115L164.962 122.762L164.957 123.993Z" fill="white"/>
</g>
<g style="mix-blend-mode:soft-light" opacity="0.9">
<path d="M164.852 151.987L157.002 152.612L157.006 151.373L164.857 150.759L164.852 151.987Z" fill="white"/>
<path d="M164.845 154.032L156.995 154.676L156.999 153.437L164.849 152.805L164.845 154.032Z" fill="white"/>
</g>
<path d="M157.107 119.259L150.984 119.611L151.247 159.621L157.056 159.566L157.107 119.259Z" fill="url(#paint46_linear_1945_7414)"/>
<path d="M156.988 156.877L145.519 157.847L145.619 122.093L157.107 121.597L156.988 156.877Z" fill="url(#paint47_linear_1945_7414)"/>
<g style="mix-blend-mode:soft-light">
<path d="M153.598 151.225L149.01 151.581L149.08 128.073L153.673 127.841L153.598 151.225Z" fill="white"/>
</g>
<path d="M145.519 157.847L137.306 158.542L137.398 120.047L145.626 119.714L145.519 157.847Z" fill="url(#paint48_linear_1945_7414)"/>
<g style="mix-blend-mode:soft-light" opacity="0.5">
<path d="M144.593 124.659L138.57 124.937L138.577 122.257L144.6 121.998L144.593 124.659Z" fill="white"/>
</g>
<g style="mix-blend-mode:soft-light" opacity="0.5">
<path d="M144.507 155.839L138.494 156.333L138.5 153.662L144.514 153.187L144.507 155.839Z" fill="white"/>
</g>
<path d="M137.396 120.052L131.273 120.404L131.536 160.414L137.346 160.359L137.396 120.052Z" fill="url(#paint49_linear_1945_7414)"/>
<path d="M137.306 158.542L125.754 159.52L125.823 121.375L137.396 120.895L137.306 158.542Z" fill="url(#paint50_linear_1945_7414)"/>
<g style="mix-blend-mode:soft-light">
<path d="M128.232 159.309L125.701 159.52L125.713 121.364L128.246 121.274L128.232 159.309Z" fill="white"/>
</g>
<path d="M125.754 159.52L117.159 160.247L117.213 120.865L125.825 120.516L125.754 159.52Z" fill="url(#paint51_linear_1945_7414)"/>
<g style="mix-blend-mode:soft-light" opacity="0.9">
<path d="M125.819 123.665L117.209 124.044L117.21 122.743L125.821 122.377L125.819 123.665Z" fill="white"/>
<path d="M125.815 125.811L117.206 126.211L117.208 124.911L125.818 124.523L125.815 125.811Z" fill="white"/>
</g>
<g style="mix-blend-mode:soft-light" opacity="0.9">
<path d="M125.762 155.098L117.164 155.783L117.167 154.487L125.764 153.814L125.762 155.098Z" fill="white"/>
<path d="M125.758 157.238L117.162 157.943L117.163 156.647L125.761 155.954L125.758 157.238Z" fill="white"/>
</g>
<path d="M117.255 120.873L110.962 121.596V161.233L117.209 161.178L117.255 120.873Z" fill="url(#paint52_linear_1945_7414)"/>
<path d="M117.159 160.247L104.585 161.311L104.614 123.866L117.21 123.321L117.159 160.247Z" fill="url(#paint53_linear_1945_7414)"/>
<g style="mix-blend-mode:soft-light">
<path d="M113.43 154.344L108.4 154.735L108.423 130.119L113.46 129.866L113.43 154.344Z" fill="white"/>
</g>
<path d="M104.585 161.311L95.5708 162.074L95.5836 121.74L104.616 121.375L104.585 161.311Z" fill="url(#paint54_linear_1945_7414)"/>
<g style="mix-blend-mode:soft-light" opacity="0.5">
<path d="M103.493 126.555L96.8829 126.86L96.884 124.052L103.494 123.768L103.493 126.555Z" fill="white"/>
</g>
<g style="mix-blend-mode:soft-light" opacity="0.5">
<path d="M103.469 159.213L96.8701 159.755L96.8712 156.957L103.471 156.435L103.469 159.213Z" fill="white"/>
</g>
<path d="M95.6205 121.768L92.1692 122.119V162.129L95.5708 162.073L95.6205 121.768Z" fill="url(#paint55_linear_1945_7414)"/>
<path d="M71.1046 155.648L90.917 154.786L113.744 155.586L91.2242 160.509L71.1046 155.648Z" fill="url(#paint56_linear_1945_7414)"/>
<path d="M87.0676 174.74L71.0196 170.42C69.4035 169.986 68.1475 168.384 68.1475 166.831V166.814C68.1475 165.261 69.4035 164.219 71.0196 164.505L88.2318 167.321L87.0676 174.74Z" fill="url(#paint57_linear_1945_7414)"/>
<path d="M113.771 171.495L87.8385 174.392C86.2144 174.573 84.8793 173.44 84.8793 171.859V170.787C84.8793 169.206 86.2149 167.818 87.8385 167.688L113.769 165.624C112.624 167.761 112.361 169.761 113.771 171.495Z" fill="url(#paint58_linear_1945_7414)"/>
<path d="M113.997 171.784L88.0581 174.725C85.9398 174.965 84.1842 173.481 84.1842 171.412V171.39C84.1842 169.321 85.9398 167.502 88.0581 167.337L113.997 165.313C114.153 165.301 114.279 165.431 114.279 165.603C114.279 165.775 114.153 165.924 113.997 165.939L88.0581 168.052C86.3538 168.191 84.9466 169.655 84.9466 171.318V171.341C84.9466 173.002 86.3538 174.199 88.0581 174.012L113.997 171.16C114.153 171.143 114.279 171.267 114.279 171.441C114.281 171.522 114.253 171.601 114.201 171.664C114.15 171.727 114.077 171.769 113.997 171.784Z" fill="url(#paint59_linear_1945_7414)"/>
<path d="M87.7419 167.338L71.0196 164.507C69.4035 164.221 68.1475 162.102 68.1475 159.771V159.745C68.1475 157.414 69.4035 155.563 71.0196 155.624L88.7569 156.282L87.7419 167.338Z" fill="url(#paint60_linear_1945_7414)"/>
<path d="M113.771 164.861L89.2944 166.707C86.8801 166.889 84.8815 165.116 84.8815 162.741V161.131C84.8815 158.757 86.8801 156.778 89.2944 156.712L113.771 156.045C112.62 159.246 112.361 162.243 113.771 164.861Z" fill="url(#paint61_linear_1945_7414)"/>
<path d="M113.997 165.313L88.0581 167.336C85.9398 167.501 84.1842 165.112 84.1842 162.006V161.972C84.1842 158.866 85.9398 156.295 88.0581 156.243L113.997 155.598C114.153 155.594 114.279 155.801 114.279 156.06C114.279 156.319 114.153 156.533 113.997 156.537L88.0581 157.313C86.3538 157.367 84.9466 159.436 84.9466 161.931V161.964C84.9466 164.459 86.3538 166.386 88.0581 166.261L113.997 164.372C114.153 164.361 114.279 164.561 114.279 164.82C114.279 165.079 114.153 165.301 113.997 165.313Z" fill="url(#paint62_linear_1945_7414)"/>
<g style="mix-blend-mode:soft-light" opacity="0.5">
<path d="M82.5564 165.001L78.9817 164.377C78.1472 162.098 78.2097 160.006 78.9817 157.504L82.5564 157.758C81.8239 160.39 81.9345 162.775 82.5564 165.001Z" fill="white"/>
</g>
<path d="M153.945 171.185C153.945 171.185 149.844 173.061 149.778 173.358C149.711 173.656 152.418 173.251 153.523 173.293C154.628 173.334 155.536 173.004 155.435 172.536C155.334 172.068 154.944 170.892 154.944 170.892L153.945 171.185Z" fill="url(#paint63_linear_1945_7414)"/>
<path d="M153.791 169.671L154.045 171.519C154.045 171.519 154.695 171.749 155.131 171.474L155.313 169.444L153.791 169.671Z" fill="url(#paint64_linear_1945_7414)"/>
<path d="M173.124 169.668L173.605 170.434C173.671 170.54 173.715 170.658 173.735 170.781C173.754 170.904 173.747 171.03 173.716 171.15C173.55 171.788 173.22 173.032 173.075 173.356C172.878 173.798 170.222 174.066 170.222 174.066C170.222 174.066 169.984 173.733 170.535 173.329C171.086 172.925 171.44 172.861 171.633 172.267C171.826 171.672 171.954 169.991 171.954 169.991L173.124 169.668Z" fill="url(#paint65_linear_1945_7414)"/>
<path d="M171.132 167.726C171.307 167.864 172.166 170.45 172.166 170.45C172.166 170.45 172.443 170.803 172.968 170.28C173.492 169.758 173.204 170.046 173.204 170.046L173.097 167.499L171.132 167.726Z" fill="url(#paint66_linear_1945_7414)"/>
<path d="M151.443 132.543C151.24 138.057 151.245 144.047 151.578 150.446C151.952 157.651 152.686 164.309 153.606 170.345C153.942 170.354 154.295 170.355 154.664 170.345C154.913 170.337 155.155 170.324 155.388 170.308C155.981 168.714 156.485 167.089 156.898 165.44C157.365 163.564 157.715 161.66 157.946 159.741C158.722 153.494 157.794 152.951 158.427 148.322C158.985 144.222 159.792 144.06 160.727 138.239C161.742 131.921 160.972 130.976 160.599 130.635C159.007 129.181 155.284 130.182 151.443 132.543Z" fill="url(#paint67_linear_1945_7414)"/>
<path style="mix-blend-mode:multiply" opacity="0.3" d="M160.597 130.634C159.081 129.248 155.623 130.1 151.974 132.227C156.189 136.759 156.654 139.707 156.155 141.617C155.59 143.779 153.86 144.405 153.873 146.768C153.888 149.671 156.51 150.434 156.462 153.506C156.43 155.536 155.278 155.52 155.012 158.03C154.698 160.999 156.204 162.019 155.722 164.216C155.515 165.162 154.921 166.398 153.219 167.674C153.344 168.576 153.472 169.469 153.606 170.345C153.942 170.355 154.295 170.356 154.664 170.345C154.913 170.338 155.155 170.325 155.388 170.309C155.981 168.715 156.485 167.09 156.898 165.44C157.365 163.564 157.715 161.661 157.946 159.742C158.722 153.495 157.794 152.952 158.427 148.323C158.985 144.222 159.792 144.061 160.727 138.239C161.739 131.921 160.97 130.974 160.597 130.634Z" fill="url(#paint68_linear_1945_7414)"/>
<path d="M154.047 132.444C161.668 143.531 167.43 155.787 171.106 168.729C171.485 168.903 171.905 168.968 172.318 168.914C172.85 168.837 173.336 168.573 173.689 168.169C174.15 165.262 174.248 162.309 173.983 159.377C173.855 157.977 173.63 155.647 172.73 152.772C171.724 149.551 171.036 149.372 169.724 145.965C168.363 142.429 168.688 141.545 167.382 137.118C166.596 134.466 165.622 131.874 164.469 129.359L154.047 132.444Z" fill="url(#paint69_linear_1945_7414)"/>
<path d="M139.292 124.983C139.326 126.27 141.441 127.403 143.143 127.751C147.124 128.563 151.74 125.67 153.93 122.471C154.36 121.842 154.839 121.082 154.954 121.139C155.214 121.273 152.821 125.205 151.783 129.677C151.253 131.965 151.392 133.037 150.399 134.56C150.174 134.905 149.897 135.265 149.994 135.673C150.238 136.695 152.576 136.96 154.198 137.145C155.908 137.339 157.507 137.32 159.085 137.297C161.612 137.26 161.81 137.129 162.388 137.412C164.146 138.275 164.027 140.342 165.35 140.618C166.46 140.849 167.587 139.609 167.944 139.215C169.801 137.171 169.702 134.707 170.031 132.221C170.797 126.442 173.937 120.11 177.008 116.102C177.939 114.886 178.587 114.247 178.628 113.117C178.747 109.801 173.493 106.14 169.118 105.719C167.919 105.604 165.772 105.64 163.759 105.83C162.955 105.906 162.099 106.017 161.178 106.179C158.945 106.569 157.391 106.84 155.807 107.568C149.421 110.489 150.815 116.995 143.902 121.492C141.525 123.036 139.256 123.636 139.292 124.983Z" fill="url(#paint70_linear_1945_7414)"/>
<path d="M165.46 102.278C165.46 102.278 165.734 103.809 166.368 104.898C166.939 105.884 169.299 106.234 169.788 106.408C170.276 106.581 169.046 107.436 167.734 107.743C166.423 108.051 162.587 108.256 161.836 107.844C161.085 107.431 162.324 107.305 163.225 106.829C164.127 106.353 164.43 104.424 164.15 103.606C163.871 102.788 165.46 102.278 165.46 102.278Z" fill="url(#paint71_linear_1945_7414)"/>
<path d="M162.967 101.835C162.015 101.155 161.752 99.3159 162.28 98.9029C162.431 98.7848 162.576 98.8393 164.723 99.7005C165.792 100.128 166.314 100.356 166.486 100.827C166.593 101.115 166.575 101.503 166.459 101.809C166.398 101.97 166.282 102.163 166.022 102.537C165.791 102.869 165.808 102.857 165.736 102.954C165.566 103.186 165.238 103.576 164.638 104.029C164.597 103.821 164.539 103.617 164.463 103.42C164.365 103.164 164.234 102.921 164.074 102.697C163.703 102.198 163.276 102.056 162.967 101.835Z" fill="url(#paint72_linear_1945_7414)"/>
<path d="M165.406 103.584C165.406 103.584 164.783 104.512 163.63 104.386C162.598 104.273 162.547 101.944 163.23 101.48C163.458 101.326 163.903 101.276 164.258 101.393C164.468 101.462 164.536 101.553 164.881 101.66C165.198 101.757 165.291 101.726 165.384 101.812C165.501 101.919 165.579 102.173 165.347 102.843C165.553 102.652 165.794 102.586 165.958 102.672C166.014 102.706 166.06 102.755 166.09 102.813C166.223 103.087 165.966 103.412 165.406 103.584Z" fill="url(#paint73_linear_1945_7414)"/>
<path style="mix-blend-mode:multiply" opacity="0.3" d="M144.876 124.786C147.761 124.135 148.913 124.156 150.34 123.006C152.717 121.091 153.073 118.177 154.454 118.213C155.106 118.23 155.637 118.896 156.014 119.548C155.666 120.093 155.318 120.637 154.971 121.182C154.971 121.161 154.965 121.145 154.953 121.139C154.838 121.08 154.36 121.842 153.93 122.47C151.739 125.67 147.124 128.561 143.143 127.75C142.001 127.517 140.678 126.93 139.917 126.181C141.544 125.63 143.2 125.164 144.876 124.786Z" fill="url(#paint74_linear_1945_7414)"/>
<path d="M175.253 135.882C177.001 136.038 180.938 136.109 183.722 133.531C188.356 129.244 186.057 121.083 184.444 117.573C182.594 113.548 179.65 111.296 177.861 109.927C175.641 108.228 174.287 107.192 172.657 107.424C168.441 108.024 165.522 116.664 167.836 119.137C168.594 119.947 169.344 119.488 171.536 120.187C172.251 120.414 177.579 122.11 178.507 126.036C179.156 128.783 177.503 132 174.561 134.157C174.791 134.734 175.022 135.309 175.253 135.882Z" fill="url(#paint75_linear_1945_7414)"/>
<path style="mix-blend-mode:multiply" opacity="0.3" d="M155.652 134.459C157.632 133.208 157.925 131.94 160.14 131.084C163.02 129.97 164.404 131.384 165.832 130.243C167.531 128.884 166.027 126.517 167.299 122.41C167.512 121.715 169.154 116.418 172.915 115.743C174.669 115.429 176.985 116.101 177.878 117.587C178.577 118.75 177.926 119.617 178.775 120.9C179.625 122.182 180.639 121.869 181.721 122.939C183.44 124.639 183.703 128.223 182.151 130.25C181.428 131.195 180.488 131.569 178.719 132.272C177.764 132.651 176.777 132.941 175.769 133.139C177.935 131.06 179.059 128.378 178.506 126.036C177.927 123.59 175.639 122.009 173.824 121.11C172.008 124.529 170.524 128.488 170.031 132.218C169.701 134.704 169.8 137.169 167.943 139.213C167.587 139.606 166.46 140.847 165.349 140.615C164.026 140.34 164.145 138.273 162.388 137.41C161.811 137.127 161.612 137.257 159.085 137.294C157.507 137.318 155.91 137.337 154.198 137.142C152.755 136.978 150.75 136.749 150.152 135.981C152.756 135.913 154.494 135.191 155.652 134.459Z" fill="url(#paint76_linear_1945_7414)"/>
<path d="M174.104 137.257L174.309 136.658C174.633 135.702 174.099 134.681 173.116 134.384L134.581 122.645L133.406 126.625L171.746 138.432C172.725 138.735 173.781 138.209 174.104 137.257Z" fill="url(#paint77_linear_1945_7414)"/>
<path d="M96.2884 111.863C99.2348 100.223 110.78 93.2079 122.2 96.4957C133.827 99.8434 140.484 112.442 136.952 124.318C133.502 135.915 121.672 142.171 110.632 138.593C99.7808 135.077 93.4093 123.237 96.2884 111.863ZM133.596 123.29C136.516 113.353 130.945 102.825 121.235 100C111.672 97.218 101.956 103.057 99.4496 112.831C96.992 122.416 102.36 132.408 111.521 135.351C120.817 138.338 130.734 133.034 133.596 123.29Z" fill="url(#paint78_linear_1945_7414)"/>
<g style="mix-blend-mode:multiply" opacity="0.3">
<path d="M134.581 122.645L139.496 124.141C139.833 125.708 140.489 126.605 141.148 127.153C143.63 129.21 146.944 126.966 151.566 129.378C153.886 130.589 153.445 131.359 155.62 132.204C159.215 133.6 160.861 131.666 164.043 132.937C167.261 134.223 167.579 137.001 169.404 136.901C170.185 136.858 171.19 136.29 172.31 134.137L173.116 134.383C174.099 134.682 174.633 135.701 174.309 136.656L174.104 137.255C173.781 138.208 172.725 138.734 171.747 138.433L133.407 126.624L134.581 122.645Z" fill="#D8DEE8"/>
</g>
<path opacity="0.56" d="M110.611 136.944C120.227 140.039 130.493 134.558 133.462 124.476C136.492 114.184 130.723 103.28 120.664 100.359C110.763 97.484 100.712 103.537 98.1235 113.651C95.5853 123.565 101.142 133.896 110.611 136.944Z" fill="white"/>
<path d="M95.542 112.863C98.4885 101.224 110.034 94.2092 121.453 97.4965C133.081 100.845 139.738 113.443 136.205 125.319C132.756 136.916 120.926 143.172 109.885 139.594C99.0345 136.075 92.6629 124.236 95.542 112.863ZM132.85 124.292C135.769 114.354 130.199 103.826 120.489 101.001C110.925 98.2193 101.21 104.059 98.7027 113.832C96.2451 123.418 101.614 133.409 110.777 136.352C120.071 139.336 129.988 134.032 132.85 124.289V124.292Z" fill="url(#paint79_linear_1945_7414)"/>
<path d="M96.658 113.202C99.4506 102.223 110.349 95.6253 121.11 98.7358C132.057 101.9 138.33 113.763 135.016 124.952C131.775 135.894 120.622 141.816 110.198 138.447C99.9437 135.134 93.9258 123.946 96.658 113.202ZM132.85 124.289C135.769 114.352 130.199 103.823 120.489 100.998C110.925 98.2165 101.21 104.056 98.7026 113.829C96.245 123.415 101.614 133.406 110.777 136.349C120.071 139.336 129.988 134.031 132.85 124.289Z" fill="url(#paint80_linear_1945_7414)"/>
<path d="M175.104 135.516L174.715 134.548C174.715 134.548 174.079 134.586 173.557 134.212C173.273 134.009 172.769 133.948 172.622 133.988C172.475 134.029 171.921 134.005 172.553 134.309C173.184 134.613 173.179 134.834 172.916 135.081C172.652 135.328 171.652 135.859 171.292 135.885C170.931 135.911 171.583 136.468 171.946 136.539C172.309 136.61 172.905 136.699 173.642 136.267C173.912 136.104 175.104 135.516 175.104 135.516Z" fill="url(#paint81_linear_1945_7414)"/>
<path d="M140.175 128.709C140.175 128.709 138.546 127.107 137.576 126.69C136.605 126.274 135.978 126.871 136.068 127.284C136.157 127.697 137.753 128.271 138.391 128.292C139.029 128.313 140.175 128.709 140.175 128.709Z" fill="url(#paint82_linear_1945_7414)"/>
</g>
</svg>
