<svg width="10" height="9" viewBox="0 0 10 9" fill="none" xmlns="http://www.w3.org/2000/svg">
<path d="M4.49619 0.812989C4.54265 0.71889 4.61451 0.639663 4.70364 0.584266C4.79277 0.52887 4.89562 0.499512 5.00057 0.499512C5.10551 0.499512 5.20836 0.52887 5.2975 0.584266C5.38663 0.639663 5.45848 0.71889 5.50494 0.812989L6.45557 2.73924L8.58119 3.04861C8.68511 3.0636 8.78275 3.10737 8.86308 3.17497C8.94341 3.24258 9.00322 3.33131 9.03574 3.43114C9.06825 3.53097 9.07218 3.6379 9.04708 3.73984C9.02198 3.84179 8.96884 3.93467 8.89369 4.00799L7.35494 5.50736L7.71807 7.62424C7.73586 7.72771 7.72433 7.8341 7.6848 7.93136C7.64526 8.02862 7.5793 8.11288 7.49436 8.17459C7.40943 8.23631 7.30891 8.27303 7.2042 8.28059C7.09948 8.28814 6.99474 8.26624 6.90182 8.21736L5.00057 7.21736L3.09932 8.21736C3.0064 8.26624 2.90166 8.28814 2.79694 8.28059C2.69222 8.27303 2.59171 8.23631 2.50678 8.17459C2.42184 8.11288 2.35587 8.02862 2.31634 7.93136C2.2768 7.8341 2.26528 7.72771 2.28307 7.62424L2.64557 5.50736L1.10807 4.00736C1.03311 3.93407 0.980131 3.84128 0.955105 3.73947C0.930078 3.63766 0.934002 3.53089 0.966432 3.43119C0.998863 3.33149 1.05851 3.24284 1.13864 3.17525C1.21878 3.10765 1.31621 3.06379 1.41994 3.04861L3.54494 2.73924L4.49619 0.812989Z" fill="#FA9F18"/>
</svg>
