<svg width="199" height="199" viewBox="0 0 199 199" fill="none" xmlns="http://www.w3.org/2000/svg">
<path d="M199 99.5C199 154.452 154.452 199 99.5 199C44.5477 199 0 154.452 0 99.5C0 44.5477 44.5477 0 99.5 0C154.452 0 199 44.5477 199 99.5ZM42.6792 99.5C42.6792 130.881 68.1187 156.321 99.5 156.321C130.881 156.321 156.321 130.881 156.321 99.5C156.321 68.1187 130.881 42.6792 99.5 42.6792C68.1187 42.6792 42.6792 68.1187 42.6792 99.5Z" fill="#8459FF"/>
<path d="M199 99.5C199 154.452 154.452 199 99.5 199C44.5477 199 0 154.452 0 99.5C0 44.5477 44.5477 0 99.5 0C154.452 0 199 44.5477 199 99.5ZM42.6792 99.5C42.6792 130.881 68.1187 156.321 99.5 156.321C130.881 156.321 156.321 130.881 156.321 99.5C156.321 68.1187 130.881 42.6792 99.5 42.6792C68.1187 42.6792 42.6792 68.1187 42.6792 99.5Z" fill="#8459FF"/>
</svg>
