<svg width="147" height="147" viewBox="0 0 147 147" fill="none" xmlns="http://www.w3.org/2000/svg">
<path d="M147 73.5C147 114.093 114.093 147 73.5 147C32.9071 147 0 114.093 0 73.5C0 32.9071 32.9071 0 73.5 0C114.093 0 147 32.9071 147 73.5ZM31.5268 73.5C31.5268 96.6811 50.3189 115.473 73.5 115.473C96.6811 115.473 115.473 96.6811 115.473 73.5C115.473 50.3189 96.6811 31.5268 73.5 31.5268C50.3189 31.5268 31.5268 50.3189 31.5268 73.5Z" fill="#10798F"/>
<path d="M147 73.5C147 114.093 114.093 147 73.5 147C32.9071 147 0 114.093 0 73.5C0 32.9071 32.9071 0 73.5 0C114.093 0 147 32.9071 147 73.5ZM31.5268 73.5C31.5268 96.6811 50.3189 115.473 73.5 115.473C96.6811 115.473 115.473 96.6811 115.473 73.5C115.473 50.3189 96.6811 31.5268 73.5 31.5268C50.3189 31.5268 31.5268 50.3189 31.5268 73.5Z" fill="#10798F"/>
</svg>
