<svg width="12" height="13" viewBox="0 0 12 13" fill="none" xmlns="http://www.w3.org/2000/svg">
<path d="M6.00008 0.666748C2.78591 0.666748 0.166748 3.28591 0.166748 6.50008C0.166748 9.71425 2.78591 12.3334 6.00008 12.3334C9.21425 12.3334 11.8334 9.71425 11.8334 6.50008C11.8334 3.28591 9.21425 0.666748 6.00008 0.666748ZM8.53758 8.58258C8.45592 8.72258 8.31008 8.79842 8.15842 8.79842C8.08258 8.79842 8.00675 8.78092 7.93675 8.73425L6.12842 7.65508C5.67925 7.38675 5.34675 6.79758 5.34675 6.27842V3.88675C5.34675 3.64758 5.54508 3.44925 5.78425 3.44925C6.02342 3.44925 6.22175 3.64758 6.22175 3.88675V6.27842C6.22175 6.48842 6.39675 6.79758 6.57758 6.90258L8.38592 7.98175C8.59592 8.10425 8.66592 8.37258 8.53758 8.58258Z" fill="#00677D"/>
</svg>
