<svg width="228" height="212" viewBox="0 0 228 212" fill="none" xmlns="http://www.w3.org/2000/svg">
<defs>
<linearGradient id="paint0_linear_1863_7228" x1="112.728" y1="45.2926" x2="114.194" y2="211.998" gradientUnits="userSpaceOnUse">
<stop stop-color="#8344FF"/>
<stop offset="1" stop-color="#BC9EF3"/>
</linearGradient>
<linearGradient id="paint1_linear_1863_7228" x1="112.728" y1="45.2926" x2="114.194" y2="211.998" gradientUnits="userSpaceOnUse">
<stop stop-color="#00677D"/>
<stop offset="1" stop-color="#BC9EF3"/>
</linearGradient>
<linearGradient id="paint2_linear_1863_7228" x1="94.6487" y1="40.4374" x2="120.303" y2="127.334" gradientUnits="userSpaceOnUse">
<stop stop-color="#E38DDD"/>
<stop offset="1" stop-color="#9571F6"/>
</linearGradient>
<linearGradient id="paint3_linear_1863_7228" x1="39.8797" y1="52.6884" x2="104.757" y2="155.583" gradientUnits="userSpaceOnUse">
<stop stop-color="#FFC444"/>
<stop offset="1" stop-color="#F36F56"/>
</linearGradient>
<linearGradient id="paint4_linear_1863_7228" x1="64.2153" y1="45.9304" x2="101.228" y2="119.447" gradientUnits="userSpaceOnUse">
<stop stop-color="#FF9085"/>
<stop offset="1" stop-color="#FB6FBB"/>
</linearGradient>
<linearGradient id="paint5_linear_1863_7228" x1="58.9678" y1="93.5988" x2="167.964" y2="93.5988" gradientUnits="userSpaceOnUse">
<stop stop-color="#FF9085"/>
<stop offset="1" stop-color="#FB6FBB"/>
</linearGradient>
<linearGradient id="paint6_linear_1863_7228" x1="176.997" y1="8.0283" x2="97.6203" y2="76.8598" gradientUnits="userSpaceOnUse">
<stop stop-color="#311944"/>
<stop offset="1" stop-color="#893976"/>
</linearGradient>
<linearGradient id="paint7_linear_1863_7228" x1="55.5215" y1="132.336" x2="170.582" y2="132.336" gradientUnits="userSpaceOnUse">
<stop stop-color="white"/>
<stop offset="1" stop-color="#EBEFF2"/>
</linearGradient>
<linearGradient id="paint8_linear_1863_7228" x1="154.098" y1="178.433" x2="161.093" y2="-16.3903" gradientUnits="userSpaceOnUse">
<stop stop-color="#444B8C"/>
<stop offset="0.85" stop-color="#26264F"/>
</linearGradient>
<linearGradient id="paint9_linear_1863_7228" x1="156.208" y1="79.5192" x2="156.882" y2="60.7453" gradientUnits="userSpaceOnUse">
<stop stop-color="#AA80F9"/>
<stop offset="1" stop-color="#6165D7"/>
</linearGradient>
<linearGradient id="paint10_linear_1863_7228" x1="161.652" y1="32.3589" x2="157.793" y2="61.2161" gradientUnits="userSpaceOnUse">
<stop stop-color="#444B8C"/>
<stop offset="1" stop-color="#26264F"/>
</linearGradient>
<linearGradient id="paint11_linear_1863_7228" x1="158.644" y1="63.1043" x2="159.761" y2="-9.38813" gradientUnits="userSpaceOnUse">
<stop stop-color="#444B8C"/>
<stop offset="1" stop-color="#26264F"/>
</linearGradient>
<linearGradient id="paint12_linear_1863_7228" x1="190.169" y1="33.0068" x2="156.23" y2="92.1784" gradientUnits="userSpaceOnUse">
<stop stop-color="#FFC444"/>
<stop offset="1" stop-color="#F36F56"/>
</linearGradient>
<linearGradient id="paint13_linear_1863_7228" x1="186.44" y1="86.1129" x2="188.659" y2="65.3224" gradientUnits="userSpaceOnUse">
<stop stop-color="#FFC444"/>
<stop offset="1" stop-color="#F36F56"/>
</linearGradient>
<linearGradient id="paint14_linear_1863_7228" x1="161.259" y1="78.0142" x2="151.589" y2="85.4848" gradientUnits="userSpaceOnUse">
<stop stop-color="#FFC444"/>
<stop offset="1" stop-color="#F36F56"/>
</linearGradient>
<linearGradient id="paint15_linear_1863_7228" x1="152.809" y1="67.1658" x2="132.167" y2="88.0031" gradientUnits="userSpaceOnUse">
<stop stop-color="#AA80F9"/>
<stop offset="1" stop-color="#6165D7"/>
</linearGradient>
<linearGradient id="paint16_linear_1863_7228" x1="135.235" y1="95.8307" x2="139.209" y2="86.626" gradientUnits="userSpaceOnUse">
<stop stop-color="#AA80F9"/>
<stop offset="1" stop-color="#6165D7"/>
</linearGradient>
<linearGradient id="paint17_linear_1863_7228" x1="110.817" y1="175.44" x2="104.488" y2="176.011" gradientUnits="userSpaceOnUse">
<stop stop-color="#444B8C"/>
<stop offset="1" stop-color="#26264F"/>
</linearGradient>
<linearGradient id="paint18_linear_1863_7228" x1="107.422" y1="175.385" x2="104.132" y2="169.624" gradientUnits="userSpaceOnUse">
<stop stop-color="#FFC444"/>
<stop offset="1" stop-color="#F36F56"/>
</linearGradient>
<linearGradient id="paint19_linear_1863_7228" x1="132.265" y1="174.577" x2="125.657" y2="175.997" gradientUnits="userSpaceOnUse">
<stop stop-color="#444B8C"/>
<stop offset="1" stop-color="#26264F"/>
</linearGradient>
<linearGradient id="paint20_linear_1863_7228" x1="129.639" y1="175.073" x2="125.815" y2="169.475" gradientUnits="userSpaceOnUse">
<stop stop-color="#FFC444"/>
<stop offset="1" stop-color="#F36F56"/>
</linearGradient>
<linearGradient id="paint21_linear_1863_7228" x1="131.601" y1="162.523" x2="115.269" y2="119.568" gradientUnits="userSpaceOnUse">
<stop stop-color="#311944"/>
<stop offset="1" stop-color="#893976"/>
</linearGradient>
<linearGradient id="paint22_linear_1863_7228" x1="128.743" y1="163.59" x2="112.417" y2="120.649" gradientUnits="userSpaceOnUse">
<stop stop-color="#311944"/>
<stop offset="1" stop-color="#893976"/>
</linearGradient>
<linearGradient id="paint23_linear_1863_7228" x1="121.537" y1="164.52" x2="100.138" y2="124.012" gradientUnits="userSpaceOnUse">
<stop stop-color="#311944"/>
<stop offset="1" stop-color="#893976"/>
</linearGradient>
<linearGradient id="paint24_linear_1863_7228" x1="96.8014" y1="116.003" x2="125.121" y2="50.4111" gradientUnits="userSpaceOnUse">
<stop stop-color="#AA80F9"/>
<stop offset="1" stop-color="#6165D7"/>
</linearGradient>
<linearGradient id="paint25_linear_1863_7228" x1="106.298" y1="74.8651" x2="115.552" y2="57.93" gradientUnits="userSpaceOnUse">
<stop stop-color="#FFC444"/>
<stop offset="0.46" stop-color="#FFC244"/>
<stop offset="0.63" stop-color="#FEBB46"/>
<stop offset="0.75" stop-color="#FCB048"/>
<stop offset="0.84" stop-color="#FA9F4C"/>
<stop offset="0.93" stop-color="#F78951"/>
<stop offset="1" stop-color="#F36F56"/>
</linearGradient>
<linearGradient id="paint26_linear_1863_7228" x1="105.11" y1="68.3538" x2="113.668" y2="57.9711" gradientUnits="userSpaceOnUse">
<stop stop-color="#444B8C"/>
<stop offset="1" stop-color="#26264F"/>
</linearGradient>
<linearGradient id="paint27_linear_1863_7228" x1="112.16" y1="61.1492" x2="107.371" y2="78.9032" gradientUnits="userSpaceOnUse">
<stop stop-color="#FFC444"/>
<stop offset="1" stop-color="#F36F56"/>
</linearGradient>
<linearGradient id="paint28_linear_1863_7228" x1="106.306" y1="69.463" x2="114.99" y2="58.927" gradientUnits="userSpaceOnUse">
<stop stop-color="#444B8C"/>
<stop offset="1" stop-color="#26264F"/>
</linearGradient>
<linearGradient id="paint29_linear_1863_7228" x1="113.247" y1="63.7312" x2="112.303" y2="65.8068" gradientUnits="userSpaceOnUse">
<stop stop-color="#FFC444"/>
<stop offset="1" stop-color="#F36F56"/>
</linearGradient>
<linearGradient id="paint30_linear_1863_7228" x1="93.7597" y1="102.446" x2="95.0733" y2="106.465" gradientUnits="userSpaceOnUse">
<stop stop-color="#FFC444"/>
<stop offset="1" stop-color="#F36F56"/>
</linearGradient>
<linearGradient id="paint31_linear_1863_7228" x1="75.85" y1="106.425" x2="103.934" y2="41.3801" gradientUnits="userSpaceOnUse">
<stop stop-color="#AA80F9"/>
<stop offset="1" stop-color="#6165D7"/>
</linearGradient>
<linearGradient id="paint32_linear_1863_7228" x1="101.942" y1="118.218" x2="130.279" y2="52.5868" gradientUnits="userSpaceOnUse">
<stop stop-color="#AA80F9"/>
<stop offset="1" stop-color="#6165D7"/>
</linearGradient>
<linearGradient id="paint33_linear_1863_7228" x1="107.935" y1="75.4351" x2="114.291" y2="143.394" gradientUnits="userSpaceOnUse">
<stop stop-color="#311944"/>
<stop offset="1" stop-color="#893976"/>
</linearGradient>
<linearGradient id="paint34_linear_1863_7228" x1="129.106" y1="113.063" x2="148.838" y2="132.703" gradientUnits="userSpaceOnUse">
<stop stop-color="#FFC444"/>
<stop offset="1" stop-color="#F36F56"/>
</linearGradient>
<linearGradient id="paint35_linear_1863_7228" x1="99.4049" y1="167.537" x2="96.898" y2="169.207" gradientUnits="userSpaceOnUse">
<stop stop-color="#444B8C"/>
<stop offset="1" stop-color="#26264F"/>
</linearGradient>
<linearGradient id="paint36_linear_1863_7228" x1="96.967" y1="169.455" x2="96.7718" y2="165.54" gradientUnits="userSpaceOnUse">
<stop stop-color="#FFC444"/>
<stop offset="1" stop-color="#F36F56"/>
</linearGradient>
<linearGradient id="paint37_linear_1863_7228" x1="99.2162" y1="167.255" x2="96.7093" y2="168.924" gradientUnits="userSpaceOnUse">
<stop stop-color="#444B8C"/>
<stop offset="1" stop-color="#26264F"/>
</linearGradient>
<linearGradient id="paint38_linear_1863_7228" x1="106.44" y1="168.924" x2="104.193" y2="170.929" gradientUnits="userSpaceOnUse">
<stop stop-color="#444B8C"/>
<stop offset="1" stop-color="#26264F"/>
</linearGradient>
<linearGradient id="paint39_linear_1863_7228" x1="103.836" y1="170.602" x2="103.094" y2="166.766" gradientUnits="userSpaceOnUse">
<stop stop-color="#FFC444"/>
<stop offset="1" stop-color="#F36F56"/>
</linearGradient>
<linearGradient id="paint40_linear_1863_7228" x1="106.213" y1="168.671" x2="103.966" y2="170.675" gradientUnits="userSpaceOnUse">
<stop stop-color="#444B8C"/>
<stop offset="1" stop-color="#26264F"/>
</linearGradient>
<linearGradient id="paint41_linear_1863_7228" x1="95.1991" y1="131.549" x2="99.6121" y2="122.822" gradientUnits="userSpaceOnUse">
<stop stop-color="#FF9085"/>
<stop offset="1" stop-color="#FB6FBB"/>
</linearGradient>
<linearGradient id="paint42_linear_1863_7228" x1="100.752" y1="129.206" x2="103.89" y2="146.539" gradientUnits="userSpaceOnUse">
<stop stop-color="#FFC444"/>
<stop offset="1" stop-color="#F36F56"/>
</linearGradient>
<linearGradient id="paint43_linear_1863_7228" x1="82.9115" y1="127.041" x2="75.6633" y2="148.123" gradientUnits="userSpaceOnUse">
<stop stop-color="#AA80F9"/>
<stop offset="1" stop-color="#6165D7"/>
</linearGradient>
<linearGradient id="paint44_linear_1863_7228" x1="91.0603" y1="120.582" x2="74.3368" y2="126.093" gradientUnits="userSpaceOnUse">
<stop stop-color="#FFC444"/>
<stop offset="1" stop-color="#F36F56"/>
</linearGradient>
<linearGradient id="paint45_linear_1863_7228" x1="94.8045" y1="116.111" x2="83.9426" y2="127.477" gradientUnits="userSpaceOnUse">
<stop stop-color="#FFC444"/>
<stop offset="1" stop-color="#F36F56"/>
</linearGradient>
<linearGradient id="paint46_linear_1863_7228" x1="94.6464" y1="132.513" x2="78.7604" y2="147.719" gradientUnits="userSpaceOnUse">
<stop stop-color="#AA80F9"/>
<stop offset="1" stop-color="#6165D7"/>
</linearGradient>
<linearGradient id="paint47_linear_1863_7228" x1="93.6472" y1="133.491" x2="86.137" y2="155.335" gradientUnits="userSpaceOnUse">
<stop stop-color="#AA80F9"/>
<stop offset="1" stop-color="#6165D7"/>
</linearGradient>
<linearGradient id="paint48_linear_1863_7228" x1="77.8128" y1="144.269" x2="90.8438" y2="153.6" gradientUnits="userSpaceOnUse">
<stop stop-color="#444B8C"/>
<stop offset="1" stop-color="#26264F"/>
</linearGradient>
<linearGradient id="paint49_linear_1863_7228" x1="105.963" y1="155.658" x2="73.6406" y2="155.658" gradientUnits="userSpaceOnUse">
<stop stop-color="#444B8C"/>
<stop offset="1" stop-color="#26264F"/>
</linearGradient>
<linearGradient id="paint50_linear_1863_7228" x1="78.8453" y1="170.559" x2="80.2026" y2="179.099" gradientUnits="userSpaceOnUse">
<stop stop-color="#AA80F9"/>
<stop offset="1" stop-color="#6165D7"/>
</linearGradient>
<linearGradient id="paint51_linear_1863_7228" x1="79.4115" y1="180.5" x2="81.0404" y2="163.566" gradientUnits="userSpaceOnUse">
<stop stop-color="#AA80F9"/>
<stop offset="1" stop-color="#6165D7"/>
</linearGradient>
<linearGradient id="paint52_linear_1863_7228" x1="88.0519" y1="174.06" x2="67.7168" y2="174.06" gradientUnits="userSpaceOnUse">
<stop stop-color="#AA80F9"/>
<stop offset="1" stop-color="#6165D7"/>
</linearGradient>
<linearGradient id="paint53_linear_1863_7228" x1="77.3357" y1="159.86" x2="90.5715" y2="183.78" gradientUnits="userSpaceOnUse">
<stop stop-color="#AA80F9"/>
<stop offset="1" stop-color="#6165D7"/>
</linearGradient>
<linearGradient id="paint54_linear_1863_7228" x1="66.46" y1="161.83" x2="71.3786" y2="155.406" gradientUnits="userSpaceOnUse">
<stop stop-color="#311944"/>
<stop offset="1" stop-color="#893976"/>
</linearGradient>
<linearGradient id="paint55_linear_1863_7228" x1="125.474" y1="126.648" x2="141.786" y2="126.648" gradientUnits="userSpaceOnUse">
<stop stop-color="#FF9085"/>
<stop offset="1" stop-color="#FB6FBB"/>
</linearGradient>
<linearGradient id="paint56_linear_1863_7228" x1="124.749" y1="132.683" x2="151.312" y2="132.683" gradientUnits="userSpaceOnUse">
<stop stop-color="#444B8C"/>
<stop offset="1" stop-color="#26264F"/>
</linearGradient>
<linearGradient id="paint57_linear_1863_7228" x1="144.138" y1="161.106" x2="145.007" y2="172.191" gradientUnits="userSpaceOnUse">
<stop stop-color="#26264F"/>
<stop offset="1" stop-color="#444B8C"/>
</linearGradient>
<linearGradient id="paint58_linear_1863_7228" x1="146.174" y1="167.232" x2="148.258" y2="154.136" gradientUnits="userSpaceOnUse">
<stop stop-color="#FFC444"/>
<stop offset="1" stop-color="#F36F56"/>
</linearGradient>
<linearGradient id="paint59_linear_1863_7228" x1="133.218" y1="160.364" x2="134.087" y2="171.45" gradientUnits="userSpaceOnUse">
<stop stop-color="#26264F"/>
<stop offset="1" stop-color="#444B8C"/>
</linearGradient>
<linearGradient id="paint60_linear_1863_7228" x1="135.254" y1="166.49" x2="137.338" y2="153.393" gradientUnits="userSpaceOnUse">
<stop stop-color="#FFC444"/>
<stop offset="1" stop-color="#F36F56"/>
</linearGradient>
<linearGradient id="paint61_linear_1863_7228" x1="165.869" y1="137.566" x2="160.899" y2="144.977" gradientUnits="userSpaceOnUse">
<stop stop-color="#444B8C"/>
<stop offset="1" stop-color="#26264F"/>
</linearGradient>
<linearGradient id="paint62_linear_1863_7228" x1="134.242" y1="153.86" x2="170.024" y2="153.86" gradientUnits="userSpaceOnUse">
<stop stop-color="#444B8C"/>
<stop offset="1" stop-color="#26264F"/>
</linearGradient>
<linearGradient id="paint63_linear_1863_7228" x1="153.376" y1="127.072" x2="169.266" y2="142.281" gradientUnits="userSpaceOnUse">
<stop stop-color="#FF9085"/>
<stop offset="1" stop-color="#FB6FBB"/>
</linearGradient>
<linearGradient id="paint64_linear_1863_7228" x1="134.331" y1="131.841" x2="133.97" y2="133.495" gradientUnits="userSpaceOnUse">
<stop stop-color="#FFC444"/>
<stop offset="1" stop-color="#F36F56"/>
</linearGradient>
<linearGradient id="paint65_linear_1863_7228" x1="149.017" y1="131.623" x2="164.903" y2="146.828" gradientUnits="userSpaceOnUse">
<stop stop-color="#FF9085"/>
<stop offset="1" stop-color="#FB6FBB"/>
</linearGradient>
<linearGradient id="paint66_linear_1863_7228" x1="149.733" y1="129.843" x2="167.755" y2="147.093" gradientUnits="userSpaceOnUse">
<stop stop-color="#FF9085"/>
<stop offset="1" stop-color="#FB6FBB"/>
</linearGradient>
<linearGradient id="paint67_linear_1863_7228" x1="148.183" y1="114.222" x2="160.713" y2="124.088" gradientUnits="userSpaceOnUse">
<stop stop-color="#FFC444"/>
<stop offset="1" stop-color="#F36F56"/>
</linearGradient>
<linearGradient id="paint68_linear_1863_7228" x1="148.499" y1="113.501" x2="162.489" y2="124.518" gradientUnits="userSpaceOnUse">
<stop stop-color="#FFC444"/>
<stop offset="1" stop-color="#F36F56"/>
</linearGradient>
<linearGradient id="paint69_linear_1863_7228" x1="159.988" y1="169.187" x2="162.139" y2="174.139" gradientUnits="userSpaceOnUse">
<stop stop-color="#AA80F9"/>
<stop offset="1" stop-color="#6165D7"/>
</linearGradient>
<linearGradient id="paint70_linear_1863_7228" x1="161.646" y1="178.021" x2="163.67" y2="159.136" gradientUnits="userSpaceOnUse">
<stop stop-color="#AA80F9"/>
<stop offset="1" stop-color="#6165D7"/>
</linearGradient>
<linearGradient id="paint71_linear_1863_7228" x1="153.88" y1="171.43" x2="174.215" y2="171.43" gradientUnits="userSpaceOnUse">
<stop stop-color="#AA80F9"/>
<stop offset="1" stop-color="#6165D7"/>
</linearGradient>
<linearGradient id="paint72_linear_1863_7228" x1="159.111" y1="157.611" x2="171.073" y2="174.11" gradientUnits="userSpaceOnUse">
<stop stop-color="#AA80F9"/>
<stop offset="1" stop-color="#6165D7"/>
</linearGradient>
<linearGradient id="paint73_linear_1863_7228" x1="175.473" y1="159.2" x2="170.554" y2="152.776" gradientUnits="userSpaceOnUse">
<stop stop-color="#311944"/>
<stop offset="1" stop-color="#893976"/>
</linearGradient>
<clipPath id="clip0_1863_7228">
<rect width="150" height="151.809" fill="white" transform="translate(39 30)"/>
</clipPath>
</defs>
<path d="M146.763 6.81965C172.127 14.4915 193.184 30.3972 207.689 52.0114C222.703 74.3836 230.625 100.206 227.216 126.704C223.341 156.822 215.012 190.392 187.935 205.551C161.146 220.548 129.027 205.648 98.9987 198.482C69.1418 191.358 35.5192 188.9 17.3178 164.838C-1.91819 139.407 -3.84 104.832 5.24376 74.5357C13.9525 45.4902 36.2196 21.9702 64.163 8.59946C89.8445 -3.68897 119.428 -1.44815 146.763 6.81965Z" fill="#FFA07D"/>
<path d="M146.763 6.81965C172.127 14.4915 193.184 30.3972 207.689 52.0114C222.703 74.3836 230.625 100.206 227.216 126.704C223.341 156.822 215.012 190.392 187.935 205.551C161.146 220.548 129.027 205.648 98.9987 198.482C69.1418 191.358 35.5192 188.9 17.3178 164.838C-1.91819 139.407 -3.84 104.832 5.24376 74.5357C13.9525 45.4902 36.2196 21.9702 64.163 8.59946C89.8445 -3.68897 119.428 -1.44815 146.763 6.81965Z" fill="url(#paint0_linear_1863_7228)"/>
<path d="M146.763 6.81965C172.127 14.4915 193.184 30.3972 207.689 52.0114C222.703 74.3836 230.625 100.206 227.216 126.704C223.341 156.822 215.012 190.392 187.935 205.551C161.146 220.548 129.027 205.648 98.9987 198.482C69.1418 191.358 35.5192 188.9 17.3178 164.838C-1.91819 139.407 -3.84 104.832 5.24376 74.5357C13.9525 45.4902 36.2196 21.9702 64.163 8.59946C89.8445 -3.68897 119.428 -1.44815 146.763 6.81965Z" fill="url(#paint1_linear_1863_7228)"/>
<g clip-path="url(#clip0_1863_7228)">
<path d="M171.969 63.8902C138.02 22.6537 57.5006 27.6962 42.7902 54.7599C36.6067 66.1348 46.5525 73.126 43.4847 108C41.4209 131.443 36.0475 138.303 41.1067 146.914C50.6253 163.114 82.521 160.741 94.0445 159.885C120.652 157.906 179.388 145.559 186.405 108.195C190.498 86.3982 174.865 67.4087 171.969 63.8902Z" fill="#F4F7FA"/>
<path d="M176.697 115.032C178.207 115.797 180.102 115.095 180.933 113.464C181.764 111.833 181.212 109.892 179.702 109.128C179.624 109.088 179.544 109.054 179.464 109.025C179.742 108.134 179.954 107.225 180.098 106.303C180.184 106.303 180.271 106.303 180.359 106.294C182.081 106.139 183.448 104.562 183.412 102.767C183.376 100.973 181.951 99.6426 180.229 99.796C180.139 99.8037 180.05 99.8181 179.962 99.8335C179.784 98.9498 179.538 98.0812 179.225 97.2353C179.304 97.189 179.383 97.1411 179.46 97.0871C180.933 96.0577 181.405 94.0251 180.512 92.5479C179.62 91.0707 177.702 90.7073 176.23 91.7373C176.154 91.7887 176.084 91.8469 176.013 91.9051C175.428 91.2595 174.79 90.6642 174.105 90.1257C174.153 90.0459 174.2 89.9656 174.244 89.8812C175.073 88.2507 176.158 86.4698 174.636 85.7286C171.117 84.0152 169.607 85.4821 168.777 87.1126C168.735 87.1971 168.698 87.283 168.662 87.37C167.821 87.1351 166.963 86.9715 166.095 86.881C166.1 86.7899 166.104 86.6993 166.102 86.6072C166.066 84.8129 166.6 83.8422 164.871 83.8088C161.101 83.7357 159.83 85.3678 159.866 87.1621C159.866 87.2557 159.876 87.3473 159.885 87.4385C159.016 87.686 158.168 88.0002 157.347 88.3783C157.308 88.298 157.267 88.2187 157.22 88.141C156.328 86.6638 154.411 86.301 152.938 87.3309C151.466 88.3608 150.994 90.3934 151.886 91.8706C151.932 91.9462 151.982 92.0167 152.033 92.0867C151.373 92.7467 150.762 93.4539 150.205 94.2027C150.131 94.1574 150.058 94.1126 149.979 94.073C148.47 93.3081 146.574 94.0102 145.744 95.6408C144.914 97.2713 145.465 99.2128 146.974 99.9777C147.052 100.017 147.132 100.05 147.212 100.081C146.935 100.971 146.723 101.881 146.579 102.802C146.492 102.802 146.405 102.802 146.317 102.811C144.595 102.966 143.228 104.543 143.264 106.337C143.3 108.132 144.726 109.462 146.448 109.309C146.538 109.301 146.626 109.287 146.714 109.272C146.893 110.155 147.139 111.024 147.451 111.87C147.372 111.916 147.293 111.964 147.216 112.018C145.743 113.047 145.272 115.08 146.164 116.557C147.057 118.034 150.011 118.719 151.484 117.69C151.56 117.638 150.594 117.256 150.664 117.199C151.25 117.844 151.888 118.439 152.573 118.978C152.525 119.057 152.477 119.138 152.435 119.222C151.604 120.853 152.156 122.794 153.665 123.559C155.175 124.323 157.07 123.622 157.9 121.991C157.944 121.907 157.98 121.821 158.017 121.734C158.857 121.968 159.716 122.132 160.584 122.223C160.578 122.313 160.574 122.404 160.576 122.496C160.612 124.29 162.037 125.621 163.759 125.468C165.482 125.315 166.848 123.736 166.812 121.942C166.812 121.848 166.802 121.756 166.793 121.665C167.662 121.417 168.511 121.103 169.332 120.725C169.371 120.806 169.412 120.885 169.458 120.962C170.35 122.439 172.268 122.802 173.74 121.773C175.213 120.743 175.685 118.71 174.792 117.233C174.747 117.157 174.697 117.086 174.646 117.017C175.306 116.357 175.917 115.65 176.474 114.9C176.545 114.949 176.619 114.993 176.697 115.032ZM157.88 115.271C152.4 112.494 150.399 105.445 153.413 99.5252C156.426 93.6056 163.311 91.0563 168.791 93.8321C174.272 96.6079 176.272 103.657 173.259 109.577C170.245 115.498 163.361 118.046 157.88 115.271Z" fill="#C9CED6"/>
<path d="M180.359 106.292C182.082 106.138 183.448 104.56 183.412 102.766C183.376 100.972 181.951 99.641 180.229 99.7944C180.139 99.8021 180.05 99.8166 179.963 99.832C179.784 98.9483 179.538 98.0796 179.225 97.2338C179.304 97.1874 179.383 97.1396 179.46 97.0855C180.934 96.0561 182.756 93.5675 181.717 92.1897C179.744 89.574 177.702 90.7058 176.229 91.7357C176.153 91.7872 176.083 91.8453 176.013 91.9035C175.428 91.2579 174.789 90.6627 174.104 90.1242C174.152 90.0444 174.2 89.9641 174.243 89.8797C174.457 89.4667 174.585 89.0145 174.618 88.5507C174.651 88.0869 174.589 87.6213 174.436 87.1821C173.013 89.6812 171.611 92.1914 170.23 94.7128C174.602 97.9091 175.994 104.207 173.261 109.577C170.946 114.128 166.342 116.68 161.847 116.363C161.646 116.882 161.45 117.403 161.235 117.917C160.652 119.311 159.99 120.676 159.326 122.04C159.743 122.119 160.161 122.18 160.581 122.224C160.576 122.315 160.572 122.406 160.574 122.497C160.61 124.292 161.702 125.816 164.823 125.651C166.549 125.56 166.846 123.737 166.81 121.945C166.81 121.852 166.8 121.759 166.791 121.669C167.66 121.421 168.508 121.107 169.329 120.729C169.368 120.809 169.409 120.889 169.456 120.966C170.348 122.443 173.443 123.071 174.917 122.041C176.39 121.011 175.683 118.714 174.791 117.237C174.745 117.161 174.695 117.09 174.644 117.021C175.305 116.361 175.916 115.653 176.473 114.904C176.546 114.95 176.62 114.995 176.698 115.034C178.207 115.799 180.103 115.097 180.934 113.466C181.764 111.835 181.212 109.894 179.703 109.13C179.625 109.09 179.545 109.057 179.465 109.027C179.743 108.136 179.954 107.227 180.098 106.305C180.184 106.302 180.271 106.302 180.359 106.292Z" fill="#D8DEE8"/>
<path d="M178.321 115.216C179.83 115.981 181.726 115.279 182.557 113.648C183.387 112.018 182.836 110.076 181.326 109.312C181.248 109.272 181.168 109.239 181.088 109.209C181.365 108.319 181.577 107.409 181.722 106.488C181.808 106.488 181.895 106.488 181.983 106.478C183.706 106.324 185.072 104.746 185.036 102.952C185 101.158 183.575 99.8274 181.853 99.9807C181.762 99.9885 181.674 100.003 181.587 100.018C181.408 99.1345 181.161 98.2657 180.849 97.4196C180.928 97.3738 181.007 97.3259 181.084 97.2719C182.558 96.2425 183.029 94.2099 182.136 92.7322C181.243 91.2545 179.326 90.8921 177.854 91.922C177.778 91.9735 177.707 92.0317 177.637 92.0893C177.052 91.4441 176.413 90.8491 175.728 90.3105C175.777 90.2307 175.824 90.1504 175.867 90.066C176.697 88.4354 176.146 86.494 174.636 85.7291C173.127 84.9643 171.231 85.6668 170.401 87.2974C170.358 87.3818 170.321 87.4673 170.285 87.5548C169.444 87.3203 168.586 87.1568 167.718 87.0658C167.723 86.9752 167.727 86.8846 167.725 86.7925C167.689 84.9982 166.264 83.6677 164.542 83.8211C162.82 83.9745 161.453 85.5531 161.489 87.3474C161.489 87.441 161.499 87.5326 161.508 87.6237C160.639 87.8711 159.791 88.1851 158.97 88.5631C158.931 88.4833 158.89 88.4035 158.844 88.3263C157.951 86.8491 156.034 86.4863 154.561 87.5162C153.089 88.5461 152.617 90.5781 153.509 92.0559C153.555 92.1315 153.605 92.202 153.656 92.272C152.995 92.9318 152.384 93.639 151.828 94.388C151.755 94.3422 151.681 94.2979 151.602 94.2583C150.093 93.4934 148.197 94.1955 147.366 95.8261C146.536 97.4566 147.088 99.3981 148.597 100.163C148.675 100.202 148.755 100.236 148.835 100.266C148.558 101.156 148.346 102.066 148.202 102.987C148.115 102.987 148.028 102.987 147.94 102.996C146.218 103.151 144.851 104.728 144.887 106.523C144.924 108.317 146.349 109.647 148.071 109.495C148.161 109.486 148.249 109.472 148.337 109.456C148.515 110.34 148.762 111.209 149.074 112.055C148.995 112.101 148.916 112.149 148.839 112.203C147.366 113.232 146.895 115.265 147.787 116.743C148.679 118.22 150.597 118.583 152.069 117.553C152.145 117.502 152.216 117.443 152.286 117.385C152.872 118.031 153.51 118.626 154.195 119.165C154.147 119.244 154.099 119.325 154.056 119.409C153.227 121.039 153.778 122.981 155.287 123.746C156.796 124.51 158.692 123.808 159.522 122.178C159.565 122.093 159.602 122.007 159.638 121.92C160.479 122.155 161.338 122.319 162.206 122.409C162.2 122.5 162.196 122.591 162.198 122.683C162.234 124.477 163.659 125.808 165.381 125.655C167.104 125.502 168.47 123.923 168.434 122.128C168.434 122.035 168.424 121.943 168.415 121.852C169.284 121.604 170.133 121.29 170.953 120.912C170.992 120.992 171.033 121.072 171.08 121.149C171.972 122.626 173.89 122.989 175.362 121.959C176.835 120.929 177.306 118.897 176.414 117.42C176.368 117.344 176.318 117.273 176.268 117.203C176.928 116.543 177.539 115.836 178.096 115.087C178.169 115.132 178.243 115.177 178.321 115.216ZM159.504 115.454C154.024 112.678 152.023 105.629 155.037 99.709C158.051 93.7889 164.935 91.2406 170.415 94.0164C175.895 96.7922 177.896 103.842 174.883 109.762C171.87 115.682 164.985 118.23 159.504 115.454Z" fill="#B7C0CE"/>
<path d="M124.563 127.318L136.83 118.465C136.83 118.465 134.588 110.522 128.369 108.26C115.682 103.647 120.618 92.8838 122.01 88.0677C124.108 80.8042 122.703 74.3895 114.594 75.421C105.42 76.5878 104.311 62.8751 109.395 51.6319C114.369 40.6296 97.6348 25.4592 84.676 48.2863C76.937 61.9182 87.6215 72.8485 91.7015 79.6477C95.7816 86.4469 86.6288 93.8566 95.5582 99.3161C103.185 103.98 112.011 105.025 111.294 112.531C110.578 120.036 113.893 125.486 124.563 127.318Z" fill="url(#paint2_linear_1863_7228)"/>
<g style="mix-blend-mode:soft-light" opacity="0.5">
<path d="M130.695 124.625L130.915 124.395C130.772 124.258 116.503 110.538 106.467 92.6816C97.2221 76.2312 89.7838 52.8013 106.85 34.603L106.616 34.3853C99.0191 42.4862 95.5629 52.2789 96.3419 63.4912C96.9647 72.4471 100.279 82.3237 106.192 92.8432C116.252 110.738 130.552 124.486 130.695 124.625Z" fill="#BEB8F2"/>
<path d="M96.8717 68.162L97.1054 67.9443C89.8544 60.18 84.3261 45.7091 84.2709 45.5635L83.9717 45.6757C84.0274 45.8203 89.5784 60.3509 96.8717 68.162Z" fill="#BEB8F2"/>
<path d="M96.5572 60.6759C101.347 48.9674 111.376 45.6908 111.477 45.6589L111.381 45.3552C111.277 45.3871 101.109 48.7034 96.2637 60.5554L96.5572 60.6759Z" fill="#BEB8F2"/>
<path d="M113.669 103.997C107.736 89.7277 122.174 74.7591 122.327 74.6253L122.132 74.3726C121.97 74.4899 107.386 89.7231 113.374 104.119L113.669 103.997Z" fill="#BEB8F2"/>
<path d="M109.845 98.8937L110.06 98.6579C102.76 92.0141 90.3553 92.7682 90.2305 92.7769L90.2521 93.095C90.3754 93.0863 102.647 92.342 109.845 98.8937Z" fill="#BEB8F2"/>
<path d="M128.718 122.184C125.655 117.174 129.718 108.525 129.759 108.438L129.471 108.301C129.299 108.662 125.292 117.193 128.446 122.353L128.718 122.184Z" fill="#BEB8F2"/>
<path d="M125.296 118.981L125.519 118.753C122.198 115.505 113.589 115.427 110.76 115.402C110.36 115.399 110.015 115.395 109.953 115.383L109.885 115.692C109.971 115.711 110.201 115.714 110.757 115.719C113.554 115.746 122.067 115.824 125.296 118.981Z" fill="#BEB8F2"/>
</g>
<path d="M98.8572 118.236C103.504 118.75 105.899 122.592 107.196 125.642C106.946 126.015 106.898 126.293 106.731 126.723C105.22 130.607 103.745 131.942 101.649 135.535C101.198 136.307 99.1817 138.177 98.3088 138.887L96.6578 140.186C96.6578 140.186 86.1894 137.702 86.9427 131.639C87.6959 125.575 78.051 121.958 73.179 119.413C70.1866 117.85 69.3208 116.179 68.3142 115.429C57.655 107.486 52.1685 108.663 50.2915 103.957C48.2205 98.7614 54.3158 95.8415 52.362 90.0707C50.1563 83.5545 40.904 82.9029 40.1987 76.2709C40.0775 75.134 39.9841 73.9625 40.4325 72.5043C41.5391 68.9055 44.9211 67.6147 43.8547 63.8254C41.7125 56.2119 44.6874 47.954 52.8083 47.0595C60.8218 46.1767 67.7059 57.8013 67.4567 75.677C68.7327 88.4097 70.7175 89.856 76.2106 92.4048C80.058 94.1903 91.6754 96.4885 91.9307 103.876C92.1861 111.263 93.5467 117.647 98.8572 118.236Z" fill="url(#paint3_linear_1863_7228)"/>
<g style="mix-blend-mode:soft-light" opacity="0.5">
<path d="M102.994 133.826L102.794 134.058C101.497 132.969 100.204 131.852 98.9516 130.74C89.6766 122.508 81.5686 113.645 74.8614 104.397C69.1779 96.5621 64.4163 88.3418 60.7083 79.9645C57.7267 73.228 55.407 66.3537 53.8138 59.5308C52.6942 54.7363 51.9425 50.017 51.5798 45.5046C51.5163 44.7186 51.4962 43.909 51.4766 43.123C51.4503 42.0777 51.425 40.9973 51.2939 39.9669L51.587 39.9082C51.718 40.9525 51.7454 42.0406 51.7717 43.0927C51.7913 43.8735 51.8119 44.6805 51.8749 45.4603C52.236 49.9583 52.9862 54.6632 54.1027 59.4448C55.6913 66.2487 58.0058 73.1061 60.9807 79.8271C64.681 88.1869 69.4333 96.3907 75.1055 104.211C81.8018 113.443 89.8938 122.291 99.1574 130.512C100.408 131.625 101.698 132.738 102.994 133.826Z" fill="#FCFDFE"/>
<path d="M65.9276 89.7995L65.6697 89.9642C59.4475 79.4092 39.4244 72.4957 39.2217 72.4273L39.3357 72.1462C39.5379 72.2152 59.6554 79.1601 65.9276 89.7995Z" fill="#FCFDFE"/>
<path d="M86.0448 117.594L85.8059 117.786C80.6981 111.175 84.4737 94.6799 84.5124 94.5142L84.8003 94.56C84.7616 94.7247 81.017 111.089 86.0448 117.594Z" fill="#FCFDFE"/>
<path d="M89.2875 121.07L89.0812 121.298C84.9893 117.7 77.3142 115.137 67.4706 114.079C66.9753 114.028 66.9753 114.028 66.9346 113.991L67.1363 113.76L67.0357 113.875L67.0873 113.734C67.1198 113.741 67.3066 113.761 67.5233 113.786C77.4256 114.848 85.1544 117.436 89.2875 121.07Z" fill="#FCFDFE"/>
<path d="M100.659 131.801L100.401 131.967C97.3175 126.788 100.715 117.935 100.749 117.846L101.027 117.934C100.99 118.023 97.6461 126.741 100.659 131.801Z" fill="#FCFDFE"/>
<path d="M102.754 134.221C98.1101 132.638 92.7583 132.377 86.3901 133.422L86.3643 133.13C92.781 132.077 98.1792 132.342 102.868 133.94L102.754 134.221Z" fill="#FCFDFE"/>
<path d="M55.1086 63.4421L54.8434 63.5929C51.725 57.508 46.981 51.9446 45.4218 50.1174C45.0447 49.6748 44.9121 49.5188 44.876 49.4555L45.1339 49.2949C45.1618 49.3423 45.3775 49.5955 45.6499 49.9157C47.2147 51.7485 51.9763 57.3274 55.1086 63.4421Z" fill="#FCFDFE"/>
<path d="M58.6504 74.204L58.3584 74.273C57.3157 67.8248 65.1296 56.5486 65.4629 56.072L65.7007 56.2264C65.6197 56.3443 57.6273 67.8762 58.6504 74.204Z" fill="#FCFDFE"/>
</g>
<path d="M114.839 110.539C114.346 111.14 111.455 108.261 105.943 107.456C104.566 107.255 97.1312 105.639 93.922 110.364L92.0533 113.116C89.4334 112.601 87.0601 111.633 88.0398 108.281C89.5613 103.074 82.169 98.4447 78.7648 98.0613C74.5512 97.5867 64.7747 96.2768 67.0014 88.198C68.8588 81.4724 71.3962 77.4376 64.6508 72.7996C57.9055 68.1616 56.0543 61.5225 60.6441 55.136C65.4743 48.4171 60.1885 37.3031 66.76 33.3831C78.2097 26.5525 87.9459 44.93 84.7868 59.7627C81.6278 74.5954 90.1789 70.1715 96.1096 73.3148C96.8947 73.7886 97.6207 74.3536 98.2724 74.9979C103.357 80.042 100.5 86.8474 102.578 94.2947C105.414 104.449 115.67 109.528 114.839 110.539Z" fill="url(#paint4_linear_1863_7228)"/>
<g style="mix-blend-mode:soft-light" opacity="0.5">
<path d="M96.9056 104.191L96.6389 104.476C77.1065 85.9468 67.1247 57.4096 70.5892 29.9985L70.9638 30.0253C67.5137 57.3231 77.4537 85.7425 96.9056 104.191Z" fill="#FCFDFE"/>
<path d="M87.1669 93.1196L86.9605 93.4491C77.9234 87.9258 65.7509 91.716 65.6291 91.7552L65.5342 91.3923C65.6554 91.3527 77.9868 87.5099 87.1669 93.1196Z" fill="#FCFDFE"/>
<path d="M93.4107 100.681L93.0779 100.879C87.8979 91.3991 97.7905 73.283 97.8911 73.1008L98.2182 73.2722C98.1186 73.4519 88.3292 91.381 93.4107 100.681Z" fill="#FCFDFE"/>
<path d="M74.9945 69.467L74.6783 69.6929C69.9275 62.59 56.7825 60.8745 56.6504 60.8575L56.7169 60.4797C56.8511 60.4962 70.1561 62.2344 74.9945 69.467Z" fill="#FCFDFE"/>
<path d="M71.0324 52.4834L70.6553 52.4921C70.9953 42.459 80.6345 32.4882 80.732 32.3904L80.9931 32.6477C80.8966 32.7471 71.3673 42.6067 71.0324 52.4834Z" fill="#FCFDFE"/>
</g>
<path d="M169.782 123.058V59.4719C169.782 58.1681 168.699 58.0183 167.378 57.9653L57.8814 52.6124C56.2149 52.5455 54.8477 53.6933 54.8477 55.1648V125.437L169.782 123.058Z" fill="#97A6B7"/>
<path d="M54.8477 125.439V139.473C54.8477 140.944 56.2149 142.09 57.8814 142.019L166.89 136.463C168.209 136.408 169.782 136.232 169.782 134.928V122.65L54.8477 125.439Z" fill="#97A6B7"/>
<path d="M131.038 151.476C130.065 151.15 129.196 150.575 128.517 149.806C127.838 149.038 127.375 148.105 127.174 147.101L124.302 132.92L99.7334 133.787L96.71 148.559C96.2865 150.628 97.9813 152.703 99.9336 153.466L110.211 157.48C112.121 158.226 114.177 158.524 116.221 158.35L137.942 156.497C138.251 156.469 138.542 156.335 138.764 156.118C138.986 155.901 139.126 155.614 139.16 155.306C139.234 154.666 139.676 153.949 139.073 153.749L131.038 151.476Z" fill="#97A6B7"/>
<path d="M131.282 150.613C130.313 150.296 129.446 149.73 128.768 148.97C128.09 148.211 127.625 147.286 127.421 146.29L124.554 132.289L100.584 133.149L97.5621 147.735C97.3573 148.725 97.5107 149.754 97.9953 150.641C98.4798 151.528 99.264 152.215 100.208 152.58L110.476 156.543C112.385 157.28 114.438 157.573 116.479 157.401L138.18 155.57C138.488 155.544 138.777 155.413 138.999 155.198C139.22 154.984 139.361 154.7 139.397 154.394C139.432 154.088 139.361 153.78 139.195 153.52C139.029 153.261 138.778 153.067 138.485 152.97L131.282 150.613Z" fill="#D8DEE8"/>
<path d="M170.582 59.4715V123.059L102.785 124.462L55.5215 125.44V55.166C55.5215 53.6966 56.9176 52.5467 58.5846 52.6136L67.8354 52.9842L168.144 57.0061C169.465 57.0586 170.582 58.1683 170.582 59.4715Z" fill="#D8DEE8"/>
<path d="M58.9678 64.9463V119.838C58.9678 121.208 60.2375 122.294 61.7848 122.249L165.711 119.301C166.949 119.266 167.964 118.237 167.964 117.015V68.0592L58.9678 64.9463Z" fill="url(#paint5_linear_1863_7228)"/>
<path d="M167.964 68.0592V62.4397C167.964 61.2425 166.972 60.2265 165.758 60.1812L61.7275 56.3096C60.2117 56.2529 58.9678 57.305 58.9678 58.6468V64.9463L167.964 68.0592Z" fill="url(#paint6_linear_1863_7228)"/>
<path d="M66.5717 60.6729C66.5717 61.1443 66.1409 61.5134 65.6089 61.4964C65.077 61.4794 64.6426 61.0846 64.6426 60.6096C64.6426 60.1345 65.0754 59.768 65.6089 59.786C66.1424 59.8041 66.5717 60.2009 66.5717 60.6729Z" fill="white"/>
<path d="M70.7243 60.8086C70.7243 61.2775 70.2981 61.6444 69.7724 61.6274C69.2466 61.6105 68.8174 61.2157 68.8174 60.7463C68.8174 60.2769 69.2461 59.9094 69.7724 59.9269C70.2986 59.9444 70.7243 60.3386 70.7243 60.8086Z" fill="white"/>
<path d="M74.8276 60.943C74.8276 61.4093 74.4066 61.7742 73.887 61.7577C73.3675 61.7413 72.9434 61.3491 72.9434 60.8827C72.9434 60.4164 73.3659 60.051 73.887 60.0685C74.4081 60.086 74.8276 60.4771 74.8276 60.943Z" fill="white"/>
<path d="M170.582 122.65V134.929C170.582 136.233 169.472 137.345 168.151 137.4L164.164 137.568L58.5934 142.018C56.9264 142.089 55.5215 140.943 55.5215 139.472V124.897L102.644 124.478L170.582 122.65Z" fill="url(#paint7_linear_1863_7228)"/>
<g style="mix-blend-mode:soft-light" opacity="0.54">
<path d="M164.148 137.569L58.5875 142.019C56.9205 142.09 55.5244 140.944 55.5244 139.472V55.166C55.5244 53.6966 56.9205 52.5467 58.5875 52.6136L67.8383 52.9842C69.2571 53.9333 70.5274 55.1043 71.5422 56.4965C71.5876 56.5578 71.6351 56.6196 71.6763 56.6808C72.4291 57.7483 73.0168 58.9226 73.4197 60.1643C73.5919 60.6861 73.7348 61.2171 73.8479 61.7548C74.1059 62.9422 74.2292 64.1553 74.2818 65.3844C74.3943 67.9822 74.1895 70.6483 74.2003 73.2748C74.222 78.5984 74.5558 83.9184 78.0962 88.2043C80.7182 91.3785 84.9891 92.5839 88.5331 94.4297C92.6698 96.5842 96.2995 99.4424 98.4014 103.687C100.981 108.896 98.5562 114.554 100.207 119.935C100.333 120.348 100.483 120.753 100.657 121.148C101.161 122.289 101.83 123.35 102.643 124.297C102.688 124.353 102.735 124.408 102.784 124.462C105.939 128.079 110.987 130.338 115.366 131.432C124.35 133.674 133.667 129.789 142.586 129.484C149.011 129.265 157.897 130.711 162.623 135.532C163.213 136.146 163.726 136.83 164.148 137.569Z" fill="white"/>
</g>
<path d="M177.061 50.9377V70.0384C177.061 72.1018 175.789 74.0119 173.6 75.573C173.051 75.9634 172.477 76.3173 171.882 76.6323C168.477 78.4445 163.679 79.5728 158.364 79.5728C153.05 79.5728 148.252 78.4445 144.844 76.6323C141.62 74.9198 139.642 72.5975 139.642 70.0384V50.9377H177.061Z" fill="url(#paint8_linear_1863_7228)"/>
<path style="mix-blend-mode:multiply" opacity="0.3" d="M173.615 75.574C173.064 75.9643 172.487 76.3182 171.89 76.6332C168.485 78.4455 163.686 79.5737 158.369 79.5737C153.052 79.5737 148.254 78.4455 144.846 76.6332C141.623 74.9208 139.643 72.5985 139.643 70.0394V60.1267C142.316 61.2843 145.996 63.551 146.685 67.2147C147.764 72.9469 155.662 74.8884 163.513 73.5939C166.972 73.0226 170.594 73.9197 173.615 75.574Z" fill="url(#paint9_linear_1863_7228)"/>
<path d="M186.89 52.7154L158.806 38.8792L130.723 52.7154H129.665V53.1653L158.887 67.5564L188.108 53.1653V52.7154H186.89Z" fill="url(#paint10_linear_1863_7228)"/>
<path d="M158.806 38.22L129.597 52.6111L158.806 67.0017L188.016 52.6111L158.806 38.22Z" fill="url(#paint11_linear_1863_7228)"/>
<path d="M187.842 72.5886C187.628 72.5886 187.396 72.4151 187.396 72.2015V53.3387C187.396 52.912 187.162 52.5368 186.734 52.5368H158.807C158.593 52.5368 158.419 52.3947 158.419 52.1811C158.419 51.9675 158.593 51.8254 158.807 51.8254H186.734C187.59 51.8254 188.287 52.4853 188.287 53.3387V72.2026C188.287 72.4167 188.056 72.5886 187.842 72.5886Z" fill="url(#paint12_linear_1863_7228)"/>
<path d="M188.848 69.1622L188.506 68.5764C188.444 68.4672 188.353 68.3767 188.243 68.3144C188.133 68.2521 188.009 68.2203 187.883 68.2223C187.757 68.2243 187.634 68.26 187.526 68.3257C187.418 68.3915 187.331 68.4848 187.271 68.596L186.965 69.2059C186.892 69.3544 186.857 69.5184 186.862 69.6836V74.8152C186.862 74.9253 187.342 75.0149 187.931 75.0149C188.52 75.0149 189 74.9253 189 74.8152V69.6681C188.994 69.4892 188.941 69.3149 188.848 69.1622Z" fill="url(#paint13_linear_1863_7228)"/>
<path d="M156.24 81.5132C156.24 81.5132 157.135 80.4081 158.811 80.3392C160.487 80.2702 162.767 79.2274 163.745 79.1281C163.981 79.1039 164.098 79.0334 164.118 78.9448C164.159 78.7621 163.073 78.5079 162.11 78.4816C160.4 78.4404 159.401 79.124 159.169 78.7801C158.911 78.3957 160.015 77.3282 159.813 77.094C159.658 76.9118 158.905 77.5057 158.1 77.8748C157.529 78.1352 155.293 80.8976 155.293 80.8976L156.24 81.5132Z" fill="url(#paint14_linear_1863_7228)"/>
<path d="M157.461 81.0777C157.324 87.7097 154.101 93.7338 148.94 96.7C148.726 96.8225 148.509 96.9404 148.288 97.0536C138.858 101.856 129.409 93.7291 128.272 92.7183C127.978 92.4578 126.569 91.1742 125.103 89.0402C123.448 86.6417 121.719 83.1685 121.42 78.883C121.299 77.1294 120.928 71.7801 123.706 70.1604C126.567 68.4912 131.12 71.7281 132.97 73.0427C140.791 78.6015 140.979 85.427 145.28 86.1198C147.208 86.4286 150.27 85.5577 154.871 79.3416L157.461 81.0777Z" fill="url(#paint15_linear_1863_7228)"/>
<path style="mix-blend-mode:multiply" opacity="0.3" d="M148.939 96.7C148.726 96.8225 148.508 96.9404 148.287 97.0536C138.857 101.856 129.409 93.7291 128.271 92.7182C127.977 92.4578 126.569 91.1741 125.103 89.0402C125.559 86.9814 126.179 84.2467 126.179 84.2467C126.179 84.2467 130.226 83.7454 132.146 88.5301C132.839 90.259 133.677 91.9426 135.095 93.1557C136.525 94.3812 137.632 94.1944 139.435 93.9139C141.095 93.6565 142.828 94.9191 144.265 95.527C145.753 96.1565 147.297 96.805 148.939 96.7Z" fill="url(#paint16_linear_1863_7228)"/>
<path d="M105.031 173.72C104.703 174.025 104.682 174.755 104.67 175.232C104.664 175.445 104.661 175.551 104.689 175.626C104.888 176.165 105.916 176.181 107.534 176.286C110.092 176.451 110.86 176.627 111.036 176.228C111.201 175.853 110.714 175.271 110.66 175.207C110.366 174.862 110.023 174.746 109.361 174.552C108.138 174.192 107.315 174.002 107.066 173.945C105.508 173.584 105.248 173.522 105.031 173.72Z" fill="url(#paint17_linear_1863_7228)"/>
<path d="M106.824 171.124L106.924 174.134C106.844 174.273 105.961 174.639 105.296 174.215L104.794 171.226L106.824 171.124Z" fill="url(#paint18_linear_1863_7228)"/>
<path d="M126.619 173.776C126.177 174.218 126.037 175.085 126.377 175.543C126.718 176.001 127.265 175.718 128.784 175.882C130.411 176.058 130.816 176.487 131.942 176.258C132.396 176.165 133.203 175.917 133.205 175.589C133.205 175.357 132.81 175.207 131.489 174.639C129.615 173.834 129.625 173.799 129.223 173.699C128.213 173.444 127.201 173.192 126.619 173.776Z" fill="url(#paint19_linear_1863_7228)"/>
<path d="M127.805 171.119L128.476 173.982C128.406 174.127 127.547 174.564 126.853 174.192L125.78 171.382L127.805 171.119Z" fill="url(#paint20_linear_1863_7228)"/>
<path d="M123.722 109.287C122.899 130.306 124.518 151.349 128.546 171.997L125.373 172.623C122.861 169.882 119.736 165.633 118.422 159.868C117.607 156.29 118.032 154.515 117.623 150.159C116.972 143.225 115.119 139.483 113.3 133.801C111.665 128.698 109.807 121.25 109.113 111.424L123.722 109.287Z" fill="url(#paint21_linear_1863_7228)"/>
<path style="mix-blend-mode:multiply" opacity="0.3" d="M122.263 153.281C121.1 148.508 118.858 147.211 118.781 142.727C118.724 139.555 119.829 139.315 119.756 136.278C119.644 131.672 117.031 129.216 115.719 126.3C114.334 123.222 113.804 118.305 117.538 110.19L109.113 111.422C109.807 121.249 111.665 128.696 113.3 133.8C115.119 139.481 116.972 143.223 117.623 150.157C118.032 154.513 117.607 156.288 118.422 159.865C119.736 165.63 122.859 169.88 125.373 172.622L126.18 172.463C123.464 169.061 122.507 166.057 122.263 163.631C121.867 159.683 123.436 158.095 122.263 153.281Z" fill="url(#paint22_linear_1863_7228)"/>
<path d="M113.175 108.556C111.921 120.458 110.774 132.585 109.733 144.936C108.955 154.201 108.261 163.351 107.65 172.387L104.451 172.548C103.14 169.645 102.182 166.597 101.595 163.467C100.708 158.702 101.113 155.942 100.868 151.055C100.593 145.574 99.8477 144.33 98.7725 137.364C96.5916 123.233 95.5019 116.171 98.9598 112.064C100.084 110.728 103.562 107.426 113.175 108.556Z" fill="url(#paint23_linear_1863_7228)"/>
<path d="M85.6133 71.2566C91.3453 69.2899 100.111 67.1261 110.854 67.6681C117.093 67.9826 123.095 68.7109 127.355 69.9765C127.931 73.3051 127.88 77.0558 128.457 80.3859C128.631 84.7806 128.568 89.1815 128.268 93.5695C127.907 98.9003 127.55 98.9739 126.717 106.496C125.361 118.753 125.928 121.969 123.536 123.407C121.981 124.342 121.421 123.176 113.495 122.246C108.191 121.623 105.487 121.33 102.805 122.228C99.1572 123.45 97.937 125.573 96.4335 124.853C94.9925 124.162 94.8088 121.584 94.635 117.091C94.3667 110.162 94.3832 105.455 94.3584 103.769C94.2449 96.0365 92.3545 90.1133 89.9348 82.5312C88.7109 78.6939 87.268 74.9296 85.6133 71.2566Z" fill="url(#paint24_linear_1863_7228)"/>
<path d="M110.142 59.9871C110.08 61.5107 109.87 63.0247 109.514 64.5077C109.223 65.7044 109.043 66.007 108.82 66.2479C108.485 66.6082 107.991 66.9006 105.257 67.422C103.771 67.7056 103.583 67.6834 103.542 67.8337C103.346 68.5579 107.219 71.3136 111.389 70.9734C113.944 70.7675 116.329 69.4169 116.228 68.6238C116.127 67.8306 113.571 68.089 112.889 66.6134C112.415 65.5875 113.077 64.2138 113.833 63.0897C113.227 61.7427 110.748 61.332 110.142 59.9871Z" fill="url(#paint25_linear_1863_7228)"/>
<path d="M114.906 62.0239C115.732 61.4335 116.21 60.0808 115.835 58.9979C115.513 58.0663 114.661 57.6628 114.151 57.4209C112.676 56.7203 110.521 56.7358 109.367 57.9711C108.685 58.7045 108.96 60.7989 108.99 61.1689C109.023 61.5869 109.26 61.8066 109.427 62.17C109.657 62.675 110.016 63.4743 110.592 64.8038C110.798 64.4636 111.033 64.1416 111.294 63.8413C111.411 63.7074 111.874 63.1876 112.439 62.8175C113.571 62.0758 114.126 62.5833 114.906 62.0239Z" fill="url(#paint26_linear_1863_7228)"/>
<path d="M109.575 63.5057C109.575 63.5057 110.024 65.5645 112.081 66.1065C113.923 66.5929 115.553 62.4959 114.692 61.2204C114.404 60.7948 113.675 60.4129 112.989 60.384C112.584 60.3665 112.408 60.4834 111.748 60.4422C111.139 60.4041 111.002 60.2878 110.785 60.3774C110.514 60.4901 110.212 60.8921 110.166 62.2303C109.94 61.7542 109.573 61.4768 109.234 61.5215C109.115 61.5444 109.004 61.6002 108.915 61.6826C108.509 62.0764 108.731 62.8284 109.575 63.5057Z" fill="url(#paint27_linear_1863_7228)"/>
<path d="M110.787 60.0995C110.852 60.1962 110.478 60.4422 110.302 60.9106C109.963 61.8196 110.503 63.2299 111.391 63.6339C111.917 63.8722 112.177 63.5825 113.108 63.7883C113.563 63.8902 113.997 64.0662 114.394 64.3092C114.347 65.4163 113.752 66.3356 112.945 66.5832C112.078 66.8498 111.28 66.2409 110.946 65.9866C110.723 65.8163 110.007 65.2733 109.836 64.3674C109.658 63.4234 110.245 63.0883 109.918 62.3806C109.753 62.0234 109.459 61.7939 109.306 61.1587C109.274 61.0219 109.251 60.8829 109.239 60.7428C109.87 60.3903 110.693 59.96 110.787 60.0995Z" fill="url(#paint28_linear_1863_7228)"/>
<path d="M113.617 64.4634C113.617 64.4634 113.159 64.5428 112.499 64.2763C112.467 64.2634 112.428 64.2614 112.418 64.2763C112.381 64.3377 112.716 64.7799 113.151 64.798C113.461 64.8109 113.77 64.6083 113.755 64.5248C113.75 64.4908 113.684 64.4727 113.617 64.4634Z" fill="url(#paint29_linear_1863_7228)"/>
<path d="M90.9014 103.732L92.8011 103.646C92.8011 103.646 94.8829 101.869 95.8312 101.993C96.7795 102.118 98.1983 102.817 98.3711 102.961C98.544 103.106 97.8521 103.898 97.1602 103.812C96.4684 103.725 94.9242 104.092 94.6481 104.719C94.3721 105.346 93.1746 105.712 92.9708 105.337L90.418 105.829L90.9014 103.732Z" fill="url(#paint30_linear_1863_7228)"/>
<path d="M91.4762 103.052C91.6093 104.667 91.2699 105.759 90.7023 106.503C88.1938 109.8 79.6804 108.325 74.6293 103.806C70.895 100.465 68.9189 95.3273 68.9922 90.7465C69.1346 81.8076 77.1187 73.1158 89.0271 70.1841C90.7926 75.6677 92.5594 81.1541 94.3273 86.6433C86.9706 86.6829 82.5087 92.3745 83.1696 96.4787C83.6639 99.5366 87.0975 102.325 91.4762 103.052Z" fill="url(#paint31_linear_1863_7228)"/>
<path style="mix-blend-mode:multiply" opacity="0.3" d="M120.452 119.333C116.554 117.559 116.576 114.007 112.939 112.475C107.754 110.291 102.034 115.119 101.142 113.746C100.213 112.318 107.043 108.07 106.134 103.776C105.412 100.364 100.645 100.908 98.095 96.2234C95.6773 91.7825 98.0212 87.7272 95.8801 86.1712C95.1129 85.6133 93.7596 85.3822 91.1943 86.5248C92.9826 92.3281 94.2657 97.4443 94.3586 103.767C94.3833 105.453 94.3668 110.16 94.6351 117.089C94.809 121.582 94.9927 124.16 96.4337 124.851C97.9371 125.571 99.1573 123.447 102.806 122.226C105.488 121.328 108.191 121.621 113.495 122.244C121.419 123.174 121.981 124.34 123.536 123.405C124.549 122.796 125.033 121.864 125.354 120.065C123.762 120.22 122.074 120.071 120.452 119.333Z" fill="url(#paint32_linear_1863_7228)"/>
<path d="M158.578 116.816L65.0847 118.623C65.0082 118.624 64.9344 118.595 64.8792 118.542C64.8241 118.489 64.7923 118.417 64.7907 118.34L64.7618 116.848C64.7604 116.771 64.7894 116.698 64.8424 116.643C64.8954 116.588 64.968 116.556 65.0445 116.554L158.539 114.747C158.615 114.746 158.689 114.775 158.744 114.828C158.799 114.881 158.831 114.953 158.833 115.029L158.862 116.522C158.863 116.598 158.834 116.672 158.781 116.727C158.728 116.782 158.655 116.814 158.578 116.816V116.816Z" fill="url(#paint33_linear_1863_7228)"/>
<path d="M133.253 118.4C134.408 117.923 134.956 116.603 134.478 115.451C134 114.3 132.676 113.753 131.522 114.23C130.368 114.707 129.82 116.027 130.298 117.178C130.776 118.33 132.099 118.877 133.253 118.4Z" fill="url(#paint34_linear_1863_7228)"/>
<path d="M140.807 166.298C140.934 166.297 141.056 166.247 141.146 166.157C141.236 166.067 141.286 165.946 141.287 165.819V128.246C141.287 128.125 140.862 128.028 140.34 128.028C139.818 128.028 139.394 128.125 139.394 128.246V165.819C139.394 165.946 139.444 166.068 139.534 166.157C139.624 166.247 139.746 166.298 139.873 166.298H140.807Z" fill="#B7C0CE"/>
<path opacity="0.8" d="M141.682 127.771L74.5742 130.814V131.995L108.383 135.785L170.106 132.521V130.878L141.682 127.771Z" fill="#D8DEE8"/>
<path d="M108.383 135.786L74.5742 131.995V133.825L108.383 137.616L170.106 134.35V132.52L108.383 135.786Z" fill="#B7C0CE"/>
<path d="M110.298 175.244C110.426 175.244 110.548 175.194 110.638 175.104C110.728 175.014 110.778 174.892 110.778 174.765V137.192C110.778 137.072 110.355 136.974 109.832 136.974C109.309 136.974 108.886 137.072 108.886 137.192V174.765C108.886 174.828 108.898 174.891 108.922 174.949C108.946 175.007 108.981 175.059 109.026 175.104C109.07 175.148 109.123 175.184 109.182 175.208C109.24 175.232 109.302 175.244 109.365 175.244H110.298Z" fill="#B7C0CE"/>
<path d="M98.7538 168.585C98.6898 168.233 97.5496 167.916 96.9851 168.386C96.7045 168.62 96.5115 169.095 96.6756 169.309C96.7349 169.387 96.4929 169.525 96.7272 169.527C97.4907 169.536 98.8177 168.935 98.7538 168.585Z" fill="url(#paint35_linear_1863_7228)"/>
<path d="M97.5073 168.587L96.3243 168.646C96.7339 167.902 96.2412 165.881 96.2412 165.881L97.5187 165.918C97.5187 165.918 97.4872 166.505 97.4093 167.377C97.3825 167.675 97.432 168.125 97.5073 168.587Z" fill="url(#paint36_linear_1863_7228)"/>
<path d="M97.6625 168.569C97.6625 168.569 96.2509 168.245 96.0981 168.524C95.9454 168.804 95.8268 169.554 96.7224 169.527C97.6181 169.501 97.7424 168.806 97.6625 168.569Z" fill="url(#paint37_linear_1863_7228)"/>
<path d="M105.956 170.022C105.843 169.682 104.67 169.526 104.177 170.073C103.932 170.345 103.808 170.842 103.998 171.032C104.068 171.101 103.848 171.27 104.077 171.241C104.839 171.138 106.068 170.357 105.956 170.022Z" fill="url(#paint38_linear_1863_7228)"/>
<path d="M104.569 170.347L103.408 170.575C103.706 169.78 102.928 167.85 102.928 167.85L104.197 167.704C104.197 167.704 104.249 168.289 104.3 169.164C104.315 169.463 104.429 169.901 104.569 170.347Z" fill="url(#paint39_linear_1863_7228)"/>
<path d="M104.873 170.156C104.873 170.156 103.428 170.032 103.317 170.33C103.207 170.628 103.193 171.385 104.077 171.237C104.961 171.088 104.985 170.382 104.873 170.156Z" fill="url(#paint40_linear_1863_7228)"/>
<path d="M98.4412 138.574L103.429 126.918C103.488 126.781 103.516 126.633 103.511 126.484C103.507 126.335 103.469 126.189 103.403 126.056C103.336 125.923 103.241 125.806 103.124 125.714C103.007 125.621 102.872 125.555 102.727 125.52L93.5903 123.306C93.3514 123.248 93.0995 123.278 92.8805 123.389C92.6615 123.501 92.4899 123.687 92.397 123.914L87.8098 135.117C87.7557 135.249 87.7299 135.39 87.7338 135.533C87.7377 135.675 87.7713 135.815 87.8325 135.944C87.8936 136.072 87.981 136.187 88.089 136.28C88.1971 136.373 88.3233 136.443 88.4598 136.484L97.1962 139.151C97.4386 139.225 97.6998 139.207 97.9296 139.1C98.1594 138.994 98.3416 138.806 98.4412 138.574Z" fill="#26264F"/>
<path d="M98.2163 138.015L102.875 127.128C102.93 127 102.956 126.862 102.952 126.723C102.947 126.584 102.913 126.447 102.85 126.323C102.788 126.199 102.699 126.09 102.59 126.003C102.481 125.916 102.354 125.855 102.219 125.822L93.6848 123.754C93.4619 123.7 93.2268 123.727 93.0224 123.831C92.8179 123.935 92.6575 124.109 92.5704 124.32L88.2881 134.784C88.2377 134.907 88.2135 135.04 88.2172 135.173C88.2208 135.306 88.2522 135.436 88.3094 135.556C88.3665 135.677 88.4481 135.784 88.549 135.871C88.6499 135.957 88.7679 136.022 88.8953 136.061L97.0554 138.553C97.2813 138.621 97.5245 138.604 97.7387 138.505C97.9528 138.406 98.1228 138.231 98.2163 138.015Z" fill="url(#paint41_linear_1863_7228)"/>
<path d="M101.091 134.816L101.241 133.443L102.035 131.935C102.143 131.729 102.199 131.501 102.199 131.269V129.771L101.241 131.98C101.241 131.98 100.613 131.414 100.373 131.293C100.134 131.173 100.164 131.654 100.343 131.831C100.523 132.008 100.254 133.473 100.433 133.622L100.373 134.518L101.091 134.816Z" fill="url(#paint42_linear_1863_7228)"/>
<path d="M87.4951 119.89C84.7044 117.18 79.98 116.681 76.4241 117.99C70.6503 120.115 69.1076 126.586 68.6552 128.481C67.6702 132.613 69.3914 132.287 69.0256 139.976C68.779 145.159 67.8178 148.588 70.043 150.725C70.5517 151.213 71.1203 151.468 72.2579 151.979C76.7693 154.004 80.8143 153.654 83.2722 153.412C85.9767 153.145 87.3434 152.991 88.0606 152.038C89.206 150.516 88.0271 148.58 87.8212 145.231C87.6148 141.911 88.5719 140.476 89.3174 137.109C90.0738 133.697 92.1344 124.395 87.4951 119.89Z" fill="url(#paint43_linear_1863_7228)"/>
<path d="M91.5412 121.273C92.4771 120.89 92.8934 119.96 92.9817 119.758C93.3511 118.912 93.3691 118.755 93.3511 118.503L93.3129 118.162L93.302 118.127C93.1893 117.823 93.0026 117.552 92.7588 117.338C92.4379 117.064 90.6594 117.685 88.5554 119.187L87.7371 119.633C87.5726 119.611 87.3244 119.574 87.0303 119.514C85.0599 119.11 84.2654 118.33 84.008 118.56C83.6504 118.875 84.6864 120.803 85.9721 122.373C87.2914 123.984 89.2628 125.694 89.6477 125.388C89.6674 125.375 89.6822 125.355 89.69 125.333C89.7761 125.13 89.222 123.234 89.2886 122.42C89.3489 121.674 89.7901 121.387 90.0584 121.121C90.2296 121.197 90.8524 121.555 91.5412 121.273Z" fill="url(#paint44_linear_1863_7228)"/>
<path d="M93.2399 119.334C93.0883 119.299 93.0336 119.083 92.7462 119.022C92.6155 119.001 92.4833 118.991 92.351 118.991V118.991C92.3187 118.994 92.287 119 92.2566 119.011C91.7922 119.17 91.8139 120.089 91.5616 120.104C91.379 120.115 91.2283 119.596 91.089 119.629C90.9574 119.66 91.0142 120.144 90.8589 120.185C90.7413 120.215 90.6633 119.951 90.4291 119.928C90.3125 119.917 90.2743 119.976 90.0164 120.069C89.8807 120.116 89.7417 120.153 89.6005 120.179C89.1197 120.259 88.3865 119.756 88.3906 119.293C88.3906 119.06 88.58 119.02 88.741 118.71C89.033 118.148 88.7291 117.68 88.7528 117.17C88.7936 116.308 89.7734 115.451 90.6819 115.223C92.4438 114.779 94.3848 116.588 94.3059 117.905C94.262 118.647 93.5645 119.41 93.2399 119.334Z" fill="white"/>
<path d="M91.5348 119.787C91.6194 119.492 91.2391 119.386 90.9843 119.581C90.7294 119.777 90.6577 120.228 90.894 120.427C91.1303 120.625 91.4218 120.186 91.5348 119.787Z" fill="url(#paint45_linear_1863_7228)"/>
<path d="M91.8695 119.343L91.6972 120.008C91.6972 120.008 91.4485 120.775 91.9005 120.758C92.2694 120.744 92.2616 120.758 92.258 120.778C92.258 120.781 92.2709 120.793 92.2714 120.793C92.3444 120.729 92.4112 120.659 92.4711 120.582C92.3898 120.859 92.2606 121.119 92.0893 121.351C91.8768 121.631 91.6492 121.931 91.2556 121.995C91.2329 121.999 90.8093 122.061 90.4951 121.806C90.4951 121.806 90.3713 121.706 90.0586 121.12C90.0586 121.12 90.9099 121.364 91.0141 121.296C91.2974 121.113 91.1534 120.635 91.4836 119.94C91.5859 119.725 91.7156 119.524 91.8695 119.343V119.343Z" fill="white"/>
<path style="mix-blend-mode:multiply" opacity="0.3" d="M80.9375 150.247C81.733 148.666 79.7833 146.565 81.0572 144.156C82.1406 142.109 84.1043 142.567 85.0077 140.692C86.0989 138.428 83.7256 136.734 83.8107 133.287C83.9139 129.17 87.4656 125.043 89.5572 125.405C90.91 125.639 91.0839 127.653 92.0337 129.857C91.1912 131.7 90.2073 134.009 89.3158 137.109C88.2194 140.92 87.6715 142.826 87.8195 145.23C88.0259 148.58 89.2043 150.515 88.0589 152.038C87.3418 152.991 85.9751 153.144 83.2705 153.412C80.8126 153.654 76.7697 154.003 72.2563 151.978C71.6851 151.721 71.258 151.53 70.9092 151.34C77.9589 152.397 80.3065 151.5 80.9375 150.247Z" fill="url(#paint46_linear_1863_7228)"/>
<path d="M101.361 134.545L100.044 133.979C99.3019 134.736 98.3557 135.472 97.5596 135.233C96.3729 134.877 96.6696 132.7 95.225 128.873C93.5884 124.539 91.731 123.424 90.7957 123.022C90.273 122.796 89.9124 122.647 89.479 122.753C87.4833 123.239 86.824 128.426 87.3838 132.308C87.699 134.494 88.3176 138.781 91.843 140.817C92.344 141.106 95.1006 142.697 97.8279 141.444C100.16 140.372 101.6 137.624 101.361 134.545Z" fill="url(#paint47_linear_1863_7228)"/>
<path d="M98.28 166.042L96.0909 166.285C95.106 165.196 93.6345 163.295 92.8482 160.624C91.3422 155.506 93.7 152.147 92.1187 150.837C90.2954 149.328 86.6936 153.406 78.7425 154.558C76.1834 154.928 70.5019 155.751 68.2034 152.698C67.2717 151.46 66.7361 149.373 67.4739 147.602C68.7957 144.427 73.1492 144.809 87.4979 142.022C93.0247 140.947 93.8956 140.596 95.2107 141.221C101.704 144.315 98.9961 161.801 98.28 166.042Z" fill="url(#paint48_linear_1863_7228)"/>
<path d="M104.794 168.101L102.605 168.344C101.619 167.254 100.148 165.354 99.3622 162.682C97.8561 157.565 100.214 154.205 98.6326 152.896C96.8093 151.387 93.2076 155.465 85.2559 156.617C82.6969 156.987 77.0159 157.81 74.7169 154.756C73.7851 153.518 73.2501 151.432 73.9873 149.661C75.3097 146.487 79.6627 146.868 94.0114 144.08C99.5381 143.007 100.409 142.655 101.725 143.281C108.217 146.373 105.509 163.86 104.794 168.101Z" fill="url(#paint49_linear_1863_7228)"/>
<path d="M67.7171 176.882C67.7171 179.603 73.1344 181.809 79.8173 181.809C86.5003 181.809 91.9176 179.603 91.9176 176.882C91.9176 176.839 91.9176 176.348 91.9176 176.304C91.7484 173.643 86.3935 171.955 79.8173 171.955C73.2587 171.955 67.9136 173.705 67.7176 176.355C67.714 176.404 67.7171 176.831 67.7171 176.882Z" fill="url(#paint50_linear_1863_7228)"/>
<path d="M67.7168 176.304C67.7168 178.873 73.1341 180.955 79.8171 180.955C86.5 180.955 91.9174 178.873 91.9174 176.304C91.9174 173.736 86.5 169.533 79.8171 169.533C73.1341 169.533 67.7168 173.736 67.7168 176.304Z" fill="url(#paint51_linear_1863_7228)"/>
<path style="mix-blend-mode:multiply" opacity="0.3" d="M67.7168 176.304C67.7168 173.736 73.1341 169.533 79.8171 169.533C82.6336 169.539 85.4013 170.267 87.8543 171.647C88.004 171.96 88.0736 172.271 88.0452 172.566C87.9065 174.011 85.544 174.9 84.1881 175.191C80.7731 175.929 79.1051 173.892 76.2896 173.97C74.5488 174.018 72.1363 174.89 69.2729 178.585C68.2848 177.912 67.7168 177.134 67.7168 176.304Z" fill="url(#paint52_linear_1863_7228)"/>
<path d="M79.1523 171.866C79.5975 171.983 80.0648 171.985 80.5113 171.874C80.6984 171.824 80.8636 171.713 80.9811 171.56C81.0986 171.406 81.1618 171.218 81.1609 171.025V157.412H78.4697V171.007C78.4709 171.206 78.5388 171.399 78.6625 171.554C78.7862 171.71 78.9587 171.82 79.1523 171.866V171.866Z" fill="url(#paint53_linear_1863_7228)"/>
<path d="M94.0343 151.685L89.9238 149.093C89.753 148.124 87.8152 137.994 79.9492 134.813C76.7504 133.519 73.3081 133.673 71.4187 133.757C67.6472 133.925 64.9576 134.045 63.6636 135.84C62.0023 138.144 64.7889 140.234 64.2116 146.825C63.9763 149.514 63.3778 150.707 64.1233 152.487C65.0159 154.621 67.0864 155.803 68.6966 156.468C70.6205 157.583 73.971 159.172 78.3962 159.557C85.85 160.208 91.4149 157.019 93.3285 155.799C93.7465 155.668 94.1218 155.428 94.4156 155.103C94.7095 154.779 94.9112 154.382 95.0001 153.954C95.0893 153.523 95.0447 153.074 94.8721 152.669C94.6996 152.264 94.4073 151.92 94.0343 151.685V151.685Z" fill="url(#paint54_linear_1863_7228)"/>
<g style="mix-blend-mode:soft-light" opacity="0.26">
<path d="M92.1441 153.531C91.9893 152.619 89.4458 153.376 87.0363 151.59C83.4351 148.921 85.3043 144.401 82.1721 140.065C79.2973 136.085 73.5105 134.06 71.714 135.576C69.3227 137.595 75.1754 145.142 71.714 150.012C70.0326 152.38 67.471 152.265 67.4581 153.652C67.4369 155.844 73.8123 158.373 79.8617 158.262C86.3651 158.143 92.3851 154.977 92.1441 153.531Z" fill="white"/>
</g>
<path d="M151.312 132.515L124.749 132.317V132.901C124.749 132.978 124.777 133.052 124.827 133.11C124.876 133.168 124.946 133.206 125.021 133.218L132.533 134.367C132.622 134.38 132.712 134.384 132.802 134.378L151.022 133.066C151.1 133.061 151.174 133.026 151.227 132.969C151.281 132.911 151.311 132.836 151.311 132.757L151.312 132.515Z" fill="#26264F"/>
<path d="M141.672 131.551L125.024 132.617C124.726 132.637 124.483 132.434 124.483 132.165V121.367C124.483 121.097 124.726 120.879 125.024 120.879H141.672C141.731 120.879 141.788 120.89 141.842 120.912C141.896 120.934 141.945 120.967 141.986 121.008C142.027 121.049 142.06 121.097 142.082 121.151C142.105 121.205 142.116 121.262 142.116 121.32V131.081C142.114 131.2 142.068 131.315 141.986 131.402C141.904 131.489 141.792 131.542 141.672 131.551V131.551Z" fill="#26264F"/>
<path d="M141.937 131.551L125.289 132.617C124.991 132.637 124.749 132.434 124.749 132.165V121.367C124.749 121.097 124.991 120.879 125.289 120.879H141.937C141.996 120.879 142.053 120.89 142.107 120.912C142.161 120.934 142.21 120.967 142.251 121.008C142.293 121.049 142.325 121.097 142.348 121.151C142.37 121.205 142.382 121.262 142.382 121.32V131.081C142.38 131.2 142.333 131.315 142.251 131.402C142.169 131.489 142.057 131.542 141.937 131.551V131.551Z" fill="#26264F"/>
<path d="M141.42 130.862L125.913 131.789C125.671 131.803 125.474 131.634 125.474 131.417V121.964C125.474 121.744 125.671 121.565 125.913 121.564L141.42 121.506C141.468 121.505 141.515 121.514 141.56 121.532C141.604 121.55 141.644 121.576 141.678 121.61C141.713 121.643 141.74 121.683 141.758 121.727C141.777 121.771 141.786 121.819 141.786 121.866V130.477C141.784 130.576 141.746 130.67 141.678 130.741C141.61 130.812 141.518 130.856 141.42 130.862V130.862Z" fill="url(#paint55_linear_1863_7228)"/>
<path d="M134.202 121.177C134.204 121.215 134.194 121.253 134.174 121.286C134.155 121.319 134.125 121.345 134.091 121.361C134.056 121.377 134.017 121.382 133.979 121.376C133.941 121.37 133.906 121.352 133.878 121.326C133.85 121.299 133.831 121.265 133.823 121.228C133.815 121.19 133.818 121.151 133.832 121.116C133.846 121.08 133.871 121.05 133.902 121.028C133.934 121.006 133.972 120.995 134.01 120.995C134.06 120.994 134.107 121.012 134.143 121.047C134.179 121.081 134.2 121.127 134.202 121.177Z" fill="white"/>
<g style="mix-blend-mode:soft-light" opacity="0.48">
<path d="M137.994 128.594C136.704 127.967 135.69 128.762 134.711 127.976C134.117 127.501 134.409 127.147 133.679 126.437C132.87 125.65 132.344 125.914 131.531 125.207C130.503 124.312 131.015 123.615 130.132 122.973C129.058 122.193 127.899 122.915 126.877 122.167C126.436 121.845 126.194 121.376 126.068 120.878H125.067C124.987 120.874 124.909 120.902 124.849 120.956C124.79 121.009 124.754 121.084 124.75 121.164V132.364C124.75 132.522 124.892 132.642 125.067 132.63L142.122 131.537C142.163 131.534 142.202 131.523 142.238 131.503C142.274 131.483 142.304 131.456 142.328 131.423C141.08 131.382 140.313 131.004 139.823 130.614C138.862 129.851 139.029 129.097 137.994 128.594Z" fill="white"/>
</g>
<path d="M142.601 131.522L124.75 132.645L132.534 133.836C132.623 133.85 132.713 133.853 132.803 133.847L151.313 132.516L142.886 131.529C142.792 131.518 142.696 131.516 142.601 131.522V131.522Z" fill="url(#paint56_linear_1863_7228)"/>
<g style="mix-blend-mode:multiply" opacity="0.3">
<path d="M127.354 132.654L142.217 131.704L146.817 132.239L132.083 133.254L127.354 132.654Z" fill="#26264F"/>
</g>
<path d="M145.982 166.625C145.982 166.625 142.078 166.896 142.02 167.15C141.963 167.404 144.671 168.388 145.617 168.424C146.563 168.461 147.341 168.182 147.256 167.782C147.17 167.383 146.839 166.377 146.839 166.377L145.982 166.625Z" fill="url(#paint57_linear_1863_7228)"/>
<path d="M145.799 164.892L145.729 166.73C145.729 166.73 146.323 167.065 146.795 166.873L147.319 164.934L145.799 164.892Z" fill="url(#paint58_linear_1863_7228)"/>
<path d="M135.062 165.882C135.062 165.882 131.158 166.152 131.101 166.407C131.043 166.661 133.751 167.642 134.697 167.681C135.643 167.72 136.421 167.439 136.336 167.039C136.25 166.639 135.919 165.634 135.919 165.634L135.062 165.882Z" fill="url(#paint59_linear_1863_7228)"/>
<path d="M134.878 164.151L134.809 165.989C134.809 165.989 135.403 166.324 135.875 166.132L136.399 164.193L134.878 164.151Z" fill="url(#paint60_linear_1863_7228)"/>
<path d="M145.384 165.152L147.572 165.395C148.558 164.305 150.029 162.405 150.815 159.733C152.331 154.582 150.136 150.871 151.545 149.947C153.539 148.64 157.862 156.167 164.8 155.974C167.646 155.894 171.362 154.503 172.79 151.474C173.006 151.017 174.065 148.623 173.034 146.379C171.969 144.062 166.688 143.054 156.166 141.131C151.65 140.308 149.369 139.896 148.453 140.331C141.96 143.425 144.667 160.912 145.384 165.152Z" fill="url(#paint61_linear_1863_7228)"/>
<path d="M134.243 165.184L136.508 165.577C137.424 164.23 138.812 162.119 140.363 159.441C143.597 153.859 143.538 152.726 145.033 152.007C148.196 150.486 150.586 154.594 158.409 155.727C160.968 156.098 166.649 156.921 168.948 153.867C169.88 152.632 170.415 150.543 169.677 148.772C168.355 145.597 164.002 145.978 149.653 143.191C144.058 142.104 143.296 141.91 141.941 142.391C134.372 145.076 134.224 161.516 134.243 165.184Z" fill="url(#paint62_linear_1863_7228)"/>
<path d="M149.918 121.469C150.662 119.652 152.261 118.607 153.09 118.065C153.464 117.816 153.862 117.604 154.277 117.432C157.279 116.209 160.277 116.293 160.811 116.333C162.108 116.43 165.31 116.669 167.683 118.72C168.831 119.713 169.749 121.099 171.088 128.912C172.955 139.806 171.439 138.691 172.912 143.105C173.691 145.442 174.905 148.123 173.621 149.835C173.208 150.388 172.614 150.547 171.406 151.089C166.895 153.114 162.85 152.765 160.392 152.522C157.688 152.255 156.321 152.102 155.604 151.148C154.458 149.626 155.637 147.691 155.843 144.341C155.991 141.936 155.443 140.031 154.347 136.22C151.799 127.359 148.491 124.95 149.918 121.469Z" fill="url(#paint63_linear_1863_7228)"/>
<path d="M137.206 132.317L134.323 131.765C134.116 131.725 133.903 131.722 133.696 131.758L131.202 132.186C131.202 132.186 132.823 132.837 134.202 132.632C135.58 132.428 137.085 133.202 137.085 133.202L137.206 132.317Z" fill="url(#paint64_linear_1863_7228)"/>
<path style="mix-blend-mode:multiply" opacity="0.3" d="M162.727 149.356C161.931 147.776 163.881 145.675 162.607 143.265C161.524 141.219 159.56 141.677 158.657 139.802C157.565 137.537 159.939 135.843 159.854 132.397C159.75 128.279 156.199 124.153 154.107 124.515C152.754 124.748 152.58 126.762 151.628 128.967C152.47 130.81 153.455 133.118 154.346 136.219C155.443 140.028 155.991 141.935 155.843 144.34C155.636 147.69 154.457 149.625 155.603 151.148C156.32 152.101 157.687 152.254 160.392 152.521C162.85 152.764 166.892 153.113 171.406 151.088C171.977 150.831 172.404 150.64 172.753 150.451C165.705 151.506 163.358 150.61 162.727 149.356Z" fill="url(#paint65_linear_1863_7228)"/>
<path d="M136.473 133.156C136.555 132.789 136.637 132.422 136.718 132.056C142.256 133.046 144.678 131.934 145.85 130.635C146.925 129.443 146.466 128.827 148.185 124.276C149.822 119.94 151.679 118.826 152.615 118.423C153.137 118.198 153.498 118.049 153.931 118.155C155.927 118.641 156.586 123.828 156.027 127.709C155.711 129.896 155.093 134.183 151.567 136.219C151.502 136.256 151.4 136.316 151.264 136.388C150.82 136.624 149.056 137.468 145.581 136.846C141.481 136.108 137.483 133.766 136.473 133.156Z" fill="url(#paint66_linear_1863_7228)"/>
<path d="M151.219 118.006C150.445 117.592 150.416 116.011 150.404 115.386C150.404 115.364 150.404 115.334 150.404 115.279C150.407 114.356 150.453 114.205 150.572 113.982L150.744 113.685C150.744 113.685 150.756 113.671 150.769 113.657C150.902 113.51 151.456 113.19 151.583 113.154C151.989 113.035 153.177 114.308 154.196 116.462C154.255 116.533 154.313 116.606 154.371 116.679C154.606 116.98 154.827 117.279 155.033 117.577C155.231 117.862 155.658 117.624 155.953 117.441C157.149 116.696 157.81 116.475 157.965 116.631C158.25 116.923 157.39 118.84 155.712 120.068C153.287 121.393 151.167 122.198 151.172 121.702C151.175 121.481 152.796 119.977 153.063 119.204C153.308 118.497 153.02 118.058 152.882 117.706C152.637 117.854 151.809 118.322 151.219 118.006Z" fill="url(#paint67_linear_1863_7228)"/>
<path d="M149.666 113.496C149.704 114.044 150.667 114.668 150.915 114.7C151.046 114.722 151.173 114.766 151.289 114.829C151.318 114.845 151.344 114.864 151.368 114.886C151.729 115.218 151.339 116.05 151.563 116.165C151.726 116.249 152.074 115.833 152.188 115.92C152.303 116.006 152.048 116.422 152.174 116.521C152.27 116.596 152.448 116.385 152.672 116.458C152.844 116.514 152.946 116.671 152.992 116.752C153.354 117.369 152.743 120.458 153.372 121.23C154.511 122.624 162.367 119.611 162.153 117.04C162.025 115.513 159.12 114.975 155.831 112.82C155.543 112.631 154.699 112.177 153.516 111.863C153.231 111.79 152.937 111.761 152.644 111.777C151.134 111.835 149.617 112.778 149.666 113.496Z" fill="white"/>
<path d="M151.715 115.887C151.756 115.583 152.147 115.638 152.302 115.92C152.456 116.202 152.34 116.643 152.044 116.73C151.747 116.817 151.659 116.297 151.715 115.887Z" fill="url(#paint68_linear_1863_7228)"/>
<path d="M174.216 174.252C174.216 176.973 168.798 179.179 162.115 179.179C155.432 179.179 149.997 176.973 149.997 174.252C149.997 174.082 149.997 173.764 149.997 173.599C149.986 171.039 155.848 169.327 162.114 169.327C168.47 169.327 173.72 170.983 174.214 173.519C174.239 173.649 174.216 174.119 174.216 174.252Z" fill="url(#paint69_linear_1863_7228)"/>
<path d="M174.215 173.676C174.215 176.245 168.798 178.327 162.115 178.327C155.432 178.327 150.015 176.245 150.015 173.676C150.015 171.108 155.432 166.905 162.115 166.905C168.798 166.905 174.215 171.106 174.215 173.676Z" fill="url(#paint70_linear_1863_7228)"/>
<path style="mix-blend-mode:multiply" opacity="0.3" d="M174.215 173.676C174.215 171.108 168.798 166.905 162.115 166.905C159.298 166.91 156.53 167.639 154.077 169.02C153.928 169.332 153.858 169.643 153.886 169.938C154.025 171.383 156.387 172.272 157.744 172.563C161.159 173.301 162.826 171.264 165.642 171.341C167.383 171.389 169.796 172.262 172.659 175.957C173.647 175.282 174.215 174.504 174.215 173.676Z" fill="url(#paint71_linear_1863_7228)"/>
<path d="M162.778 169.237C162.332 169.353 161.865 169.355 161.419 169.244C161.231 169.194 161.066 169.084 160.949 168.93C160.831 168.776 160.768 168.588 160.77 168.395V154.784H163.46V168.379C163.459 168.577 163.391 168.77 163.267 168.925C163.143 169.08 162.971 169.19 162.778 169.237V169.237Z" fill="url(#paint72_linear_1863_7228)"/>
<path d="M147.898 149.055L152.009 146.462C152.18 145.494 154.117 135.364 161.983 132.183C165.182 130.89 168.625 131.043 170.514 131.127C174.285 131.295 176.975 131.415 178.269 133.21C179.93 135.514 177.144 137.604 177.721 144.196C177.956 146.883 178.554 148.078 177.809 149.857C176.916 151.99 174.846 153.173 173.236 153.839C171.312 154.953 167.961 156.542 163.536 156.927C156.082 157.579 150.517 154.389 148.604 153.169C148.186 153.038 147.811 152.798 147.517 152.473C147.223 152.149 147.022 151.752 146.933 151.324C146.843 150.893 146.888 150.445 147.06 150.039C147.233 149.634 147.525 149.29 147.898 149.055V149.055Z" fill="url(#paint73_linear_1863_7228)"/>
<g style="mix-blend-mode:soft-light" opacity="0.26">
<path d="M149.788 150.901C149.94 149.989 152.487 150.746 154.896 148.96C158.497 146.292 156.628 141.771 159.76 137.435C162.635 133.456 168.422 131.431 170.218 132.946C172.61 134.964 166.757 142.513 170.218 147.383C171.899 149.75 174.461 149.635 174.474 151.022C174.495 153.215 168.12 155.743 162.071 155.632C155.567 155.513 149.547 152.348 149.788 150.901Z" fill="white"/>
</g>
</g>

</svg>
