<svg width="228" height="213" viewBox="0 0 228 213" fill="none" xmlns="http://www.w3.org/2000/svg">
<defs>
<linearGradient id="paint0_linear_1863_7007" x1="112.728" y1="45.3598" x2="114.199" y2="212.313" gradientUnits="userSpaceOnUse">
<stop stop-color="#8344FF"/>
<stop offset="1" stop-color="#BC9EF3"/>
</linearGradient>
<linearGradient id="paint1_linear_1863_7007" x1="112.728" y1="45.3598" x2="114.199" y2="212.313" gradientUnits="userSpaceOnUse">
<stop stop-color="#00677D"/>
<stop offset="1" stop-color="#BC9EF3"/>
</linearGradient>
<linearGradient id="paint2_linear_1863_7007" x1="180.754" y1="117.027" x2="124.089" y2="143.07" gradientUnits="userSpaceOnUse">
<stop stop-color="#FFC444"/>
<stop offset="1" stop-color="#F36F56"/>
</linearGradient>
<linearGradient id="paint3_linear_1863_7007" x1="151.091" y1="79.2637" x2="140.134" y2="155.026" gradientUnits="userSpaceOnUse">
<stop stop-color="#FFC444"/>
<stop offset="1" stop-color="#F36F56"/>
</linearGradient>
<linearGradient id="paint4_linear_1863_7007" x1="166.349" y1="92.8413" x2="139.614" y2="148.549" gradientUnits="userSpaceOnUse">
<stop stop-color="#FF9085"/>
<stop offset="1" stop-color="#FB6FBB"/>
</linearGradient>
<linearGradient id="paint5_linear_1863_7007" x1="229.125" y1="99.5565" x2="144.932" y2="134.864" gradientUnits="userSpaceOnUse">
<stop stop-color="#E38DDD"/>
<stop offset="1" stop-color="#9571F6"/>
</linearGradient>
<linearGradient id="paint6_linear_1863_7007" x1="163.707" y1="128.123" x2="193.657" y2="178.812" gradientUnits="userSpaceOnUse">
<stop stop-color="#E38DDD"/>
<stop offset="1" stop-color="#9571F6"/>
</linearGradient>
<linearGradient id="paint7_linear_1863_7007" x1="128.21" y1="135.068" x2="155.682" y2="135.068" gradientUnits="userSpaceOnUse">
<stop stop-color="#E38DDD"/>
<stop offset="1" stop-color="#9571F6"/>
</linearGradient>
<linearGradient id="paint8_linear_1863_7007" x1="194.618" y1="104.255" x2="121.267" y2="135.277" gradientUnits="userSpaceOnUse">
<stop stop-color="#E38DDD"/>
<stop offset="1" stop-color="#9571F6"/>
</linearGradient>
<linearGradient id="paint9_linear_1863_7007" x1="117.845" y1="143.696" x2="140.045" y2="181.269" gradientUnits="userSpaceOnUse">
<stop stop-color="#E38DDD"/>
<stop offset="1" stop-color="#9571F6"/>
</linearGradient>
<linearGradient id="paint10_linear_1863_7007" x1="95.4299" y1="108.35" x2="108.573" y2="130.149" gradientUnits="userSpaceOnUse">
<stop stop-color="#E38DDD"/>
<stop offset="1" stop-color="#9571F6"/>
</linearGradient>
<linearGradient id="paint11_linear_1863_7007" x1="79.8364" y1="147.544" x2="105.452" y2="147.544" gradientUnits="userSpaceOnUse">
<stop stop-color="#E38DDD"/>
<stop offset="1" stop-color="#9571F6"/>
</linearGradient>
<linearGradient id="paint12_linear_1863_7007" x1="58.8741" y1="124.195" x2="61.6372" y2="123.779" gradientUnits="userSpaceOnUse">
<stop stop-color="#F36F56"/>
<stop offset="1" stop-color="#FFC444"/>
</linearGradient>
<linearGradient id="paint13_linear_1863_7007" x1="77.7057" y1="98.0034" x2="62.7958" y2="123.657" gradientUnits="userSpaceOnUse">
<stop stop-color="#AB316D"/>
<stop offset="1" stop-color="#792D3D"/>
</linearGradient>
<linearGradient id="paint14_linear_1863_7007" x1="75.8546" y1="97.8062" x2="61.312" y2="122.828" gradientUnits="userSpaceOnUse">
<stop stop-color="#AB316D"/>
<stop offset="1" stop-color="#792D3D"/>
</linearGradient>
<linearGradient id="paint15_linear_1863_7007" x1="79.97" y1="136.292" x2="62.6812" y2="127.86" gradientUnits="userSpaceOnUse">
<stop stop-color="#444B8C"/>
<stop offset="1" stop-color="#26264F"/>
</linearGradient>
<linearGradient id="paint16_linear_1863_7007" x1="103.638" y1="104.179" x2="104.814" y2="102.393" gradientUnits="userSpaceOnUse">
<stop stop-color="#F36F56"/>
<stop offset="1" stop-color="#FFC444"/>
</linearGradient>
<linearGradient id="paint17_linear_1863_7007" x1="98.6917" y1="79.9126" x2="105.55" y2="98.9617" gradientUnits="userSpaceOnUse">
<stop stop-color="#444B8C"/>
<stop offset="1" stop-color="#26264F"/>
</linearGradient>
<linearGradient id="paint18_linear_1863_7007" x1="93.6434" y1="86.828" x2="83.1355" y2="108.126" gradientUnits="userSpaceOnUse">
<stop stop-color="#AB316D"/>
<stop offset="1" stop-color="#792D3D"/>
</linearGradient>
<linearGradient id="paint19_linear_1863_7007" x1="130.76" y1="98.8461" x2="77.6618" y2="95.2966" gradientUnits="userSpaceOnUse">
<stop stop-color="#AB316D"/>
<stop offset="1" stop-color="#792D3D"/>
</linearGradient>
<linearGradient id="paint20_linear_1863_7007" x1="97.0105" y1="57.1342" x2="98.8125" y2="58.6059" gradientUnits="userSpaceOnUse">
<stop stop-color="#F36F56"/>
<stop offset="1" stop-color="#FFC444"/>
</linearGradient>
<linearGradient id="paint21_linear_1863_7007" x1="83.7291" y1="54.3376" x2="99.5874" y2="101.698" gradientUnits="userSpaceOnUse">
<stop stop-color="#F36F56"/>
<stop offset="1" stop-color="#FFC444"/>
</linearGradient>
<linearGradient id="paint22_linear_1863_7007" x1="87.2463" y1="61.8961" x2="96.249" y2="88.783" gradientUnits="userSpaceOnUse">
<stop stop-color="#F36F56"/>
<stop offset="1" stop-color="#FFC444"/>
</linearGradient>
<linearGradient id="paint23_linear_1863_7007" x1="80.0486" y1="64.1389" x2="80.7584" y2="58.8661" gradientUnits="userSpaceOnUse">
<stop stop-color="#444B8C"/>
<stop offset="1" stop-color="#26264F"/>
</linearGradient>
<linearGradient id="paint24_linear_1863_7007" x1="81.4396" y1="58.9844" x2="80.6779" y2="80.8295" gradientUnits="userSpaceOnUse">
<stop stop-color="#F36F56"/>
<stop offset="1" stop-color="#FFC444"/>
</linearGradient>
<linearGradient id="paint25_linear_1863_7007" x1="77.4514" y1="61.0376" x2="82.2522" y2="64.6787" gradientUnits="userSpaceOnUse">
<stop stop-color="#F36F56"/>
<stop offset="1" stop-color="#FFC444"/>
</linearGradient>
<linearGradient id="paint26_linear_1863_7007" x1="97.5706" y1="234.735" x2="107.997" y2="49.7299" gradientUnits="userSpaceOnUse">
<stop stop-color="#AA80F9"/>
<stop offset="1" stop-color="#6165D7"/>
</linearGradient>
<linearGradient id="paint27_linear_1863_7007" x1="105.718" y1="70.1809" x2="106.479" y2="56.6965" gradientUnits="userSpaceOnUse">
<stop stop-color="#AA80F9"/>
<stop offset="1" stop-color="#6165D7"/>
</linearGradient>
<linearGradient id="paint28_linear_1863_7007" x1="110.199" y1="36.345" x2="106.984" y2="57.0353" gradientUnits="userSpaceOnUse">
<stop stop-color="#AA80F9"/>
<stop offset="1" stop-color="#6165D7"/>
</linearGradient>
<linearGradient id="paint29_linear_1863_7007" x1="109.947" y1="30.4528" x2="105.364" y2="76.5426" gradientUnits="userSpaceOnUse">
<stop stop-color="#AA80F9"/>
<stop offset="1" stop-color="#6165D7"/>
</linearGradient>
<linearGradient id="paint30_linear_1863_7007" x1="130.559" y1="37.2293" x2="105.246" y2="79.0464" gradientUnits="userSpaceOnUse">
<stop stop-color="#FFC444"/>
<stop offset="1" stop-color="#F36F56"/>
</linearGradient>
<linearGradient id="paint31_linear_1863_7007" x1="127.122" y1="75.3555" x2="129.032" y2="60.4389" gradientUnits="userSpaceOnUse">
<stop stop-color="#FFC444"/>
<stop offset="1" stop-color="#F36F56"/>
</linearGradient>
<linearGradient id="paint32_linear_1863_7007" x1="103.961" y1="70.6538" x2="102.403" y2="74.1797" gradientUnits="userSpaceOnUse">
<stop stop-color="#F36F56"/>
<stop offset="1" stop-color="#FFC444"/>
</linearGradient>
<linearGradient id="paint33_linear_1863_7007" x1="80.8331" y1="56.8459" x2="103.752" y2="125.294" gradientUnits="userSpaceOnUse">
<stop stop-color="#F36F56"/>
<stop offset="1" stop-color="#FFC444"/>
</linearGradient>
<linearGradient id="paint34_linear_1863_7007" x1="74.3679" y1="74.0251" x2="98.4081" y2="91.0145" gradientUnits="userSpaceOnUse">
<stop stop-color="#F36F56"/>
<stop offset="1" stop-color="#FFC444"/>
</linearGradient>
<linearGradient id="paint35_linear_1863_7007" x1="128.869" y1="155.869" x2="119.886" y2="185.954" gradientUnits="userSpaceOnUse">
<stop stop-color="#40447E"/>
<stop offset="1" stop-color="#3C3B6B"/>
</linearGradient>
<linearGradient id="paint36_linear_1863_7007" x1="132.483" y1="166.943" x2="172.686" y2="166.943" gradientUnits="userSpaceOnUse">
<stop stop-color="#40447E"/>
<stop offset="1" stop-color="#3C3B6B"/>
</linearGradient>
<linearGradient id="paint37_linear_1863_7007" x1="112.098" y1="155.763" x2="138.334" y2="156.048" gradientUnits="userSpaceOnUse">
<stop stop-color="#FFC444"/>
<stop offset="1" stop-color="#F36F56"/>
</linearGradient>
<linearGradient id="paint38_linear_1863_7007" x1="-124.373" y1="125.817" x2="-194.829" y2="119.307" gradientUnits="userSpaceOnUse">
<stop stop-color="#FFC444"/>
<stop offset="1" stop-color="#F36F56"/>
</linearGradient>
<linearGradient id="paint39_linear_1863_7007" x1="-125.104" y1="133.73" x2="-195.56" y2="127.22" gradientUnits="userSpaceOnUse">
<stop stop-color="#FFC444"/>
<stop offset="1" stop-color="#F36F56"/>
</linearGradient>
<linearGradient id="paint40_linear_1863_7007" x1="120.232" y1="161.711" x2="117.616" y2="157.859" gradientUnits="userSpaceOnUse">
<stop stop-color="#AA80F9"/>
<stop offset="1" stop-color="#6165D7"/>
</linearGradient>
<linearGradient id="paint41_linear_1863_7007" x1="169.538" y1="110.825" x2="106.378" y2="137.538" gradientUnits="userSpaceOnUse">
<stop stop-color="#E38DDD"/>
<stop offset="1" stop-color="#9571F6"/>
</linearGradient>
<linearGradient id="paint42_linear_1863_7007" x1="83.6429" y1="158.546" x2="99.1594" y2="184.808" gradientUnits="userSpaceOnUse">
<stop stop-color="#E38DDD"/>
<stop offset="1" stop-color="#9571F6"/>
</linearGradient>
<linearGradient id="paint43_linear_1863_7007" x1="62.3796" y1="133.215" x2="76.2633" y2="156.243" gradientUnits="userSpaceOnUse">
<stop stop-color="#E38DDD"/>
<stop offset="1" stop-color="#9571F6"/>
</linearGradient>
<linearGradient id="paint44_linear_1863_7007" x1="42.8965" y1="159.626" x2="67.8084" y2="159.626" gradientUnits="userSpaceOnUse">
<stop stop-color="#E38DDD"/>
<stop offset="1" stop-color="#9571F6"/>
</linearGradient>
</defs>
<path d="M192.255 10.2236C218.181 28.9622 222.09 63.5974 224.726 95.4872C227.727 131.783 235.337 174.152 207.773 197.941C179.835 222.054 138.182 210.672 102.605 200.887C70.2545 191.989 40.5026 176.096 23.3863 147.226C4.44981 115.286 -9.91806 74.5405 8.62313 42.3691C26.3247 11.6546 68.7355 14.0812 103.643 7.97048C134.264 2.61014 167.057 -7.98933 192.255 10.2236Z" fill="#00DB2C"/>
<path d="M192.255 10.2236C218.181 28.9622 222.09 63.5974 224.726 95.4872C227.727 131.783 235.337 174.152 207.773 197.941C179.835 222.054 138.182 210.672 102.605 200.887C70.2545 191.989 40.5026 176.096 23.3863 147.226C4.44981 115.286 -9.91806 74.5405 8.62313 42.3691C26.3247 11.6546 68.7355 14.0812 103.643 7.97048C134.264 2.61014 167.057 -7.98933 192.255 10.2236Z" fill="url(#paint0_linear_1863_7007)"/>
<path d="M192.255 10.2236C218.181 28.9622 222.09 63.5974 224.726 95.4872C227.727 131.783 235.337 174.152 207.773 197.941C179.835 222.054 138.182 210.672 102.605 200.887C70.2545 191.989 40.5026 176.096 23.3863 147.226C4.44981 115.286 -9.91806 74.5405 8.62313 42.3691C26.3247 11.6546 68.7355 14.0812 103.643 7.97048C134.264 2.61014 167.057 -7.98933 192.255 10.2236Z" fill="url(#paint1_linear_1863_7007)"/>
<path d="M139.149 32.8255C128.706 30.5911 117.849 29.5201 107.234 30.2049C97.8278 30.8077 87.1603 32.4591 79.5898 38.374C75.982 41.1923 71.6791 46.2583 70.4987 50.7271C70.4987 50.7271 64.2865 74.2484 51.8625 79.2882C39.4385 84.328 30.8101 170.349 125.028 161.948C125.028 161.948 180.367 159.747 183.699 96.3424C184.503 81.0257 184.054 64.1876 174.411 51.3802C167.022 41.5686 156.671 37.2022 144.775 34.1491C142.914 33.6718 141.039 33.2306 139.149 32.8255Z" fill="#F4F7FA"/>
<path d="M123.918 144.569L131.135 152.022C131.135 152.022 136.296 149.701 137.208 145.248C139.073 136.16 146.856 138.437 150.258 138.9C155.388 139.599 159.595 138 158.09 132.591C156.387 126.471 165.568 124.342 173.692 126.671C181.642 128.95 190.258 116.052 173.501 109.53C163.495 105.635 157.151 113.995 152.949 117.45C148.748 120.906 142.817 115.426 140.006 122.044C137.604 127.697 137.773 133.802 132.617 134.068C127.46 134.334 124.098 137.131 123.918 144.569Z" fill="url(#paint2_linear_1863_7007)"/>
<g style="mix-blend-mode:soft-light" opacity="0.5">
<path d="M126.354 148.469L126.531 148.596C126.61 148.485 134.487 137.407 145.589 128.795C155.814 120.86 170.952 113.453 184.98 123.232L185.104 123.051C178.861 118.7 171.88 117.33 164.359 118.984C158.352 120.306 151.99 123.549 145.45 128.623C134.326 137.257 126.432 148.357 126.354 148.469Z" fill="#BEB8F2"/>
<path d="M161.248 119.812L161.419 119.949C165.958 114.241 175.215 109.032 175.308 108.979L175.201 108.787C175.106 108.84 165.815 114.07 161.248 119.812Z" fill="#BEB8F2"/>
<path d="M166.288 118.849C174.698 120.931 177.915 127.422 177.947 127.487L178.143 127.391C178.111 127.325 174.853 120.743 166.34 118.635L166.288 118.849Z" fill="#BEB8F2"/>
<path d="M138.636 134.823C147.714 129.358 159.292 137.674 159.398 137.765L159.55 137.607C159.454 137.508 147.682 129.121 138.523 134.635L138.636 134.823Z" fill="#BEB8F2"/>
<path d="M141.714 131.713L141.895 131.836C145.671 126.206 143.927 117.848 143.908 117.765L143.695 117.811C143.713 117.894 145.437 126.162 141.714 131.713Z" fill="#BEB8F2"/>
<path d="M127.81 146.88C130.9 144.295 137.165 146.187 137.227 146.21L137.291 146C137.03 145.919 130.852 144.05 127.67 146.711L127.81 146.88Z" fill="#BEB8F2"/>
<path d="M129.639 144.232L129.816 144.361C131.686 141.777 130.882 135.916 130.618 133.99C130.581 133.718 130.549 133.483 130.551 133.44L130.333 133.425C130.329 133.485 130.35 133.641 130.402 134.021C130.666 135.925 131.458 141.719 129.639 144.232Z" fill="#BEB8F2"/>
</g>
<path d="M151.932 133.912C153.928 136.038 153.513 138.845 152.897 140.828C152.629 140.906 152.494 141.019 152.241 141.157C149.957 142.402 148.719 142.443 146.275 143.313C145.749 143.499 144.039 143.576 143.338 143.563L142.032 143.516C142.032 143.516 138.07 138.09 140.874 135.495C143.677 132.9 140.563 127.267 139.28 124.077C138.493 122.119 138.755 120.97 138.58 120.203C136.73 112.091 133.654 110.431 134.663 107.422C135.778 104.1 139.846 105.171 141.251 101.622C142.834 97.6131 138.71 93.5553 141.051 90.1012C141.452 89.5078 141.88 88.911 142.681 88.3953C144.658 87.1227 146.783 87.8737 147.806 85.6315C149.863 81.1242 154.607 78.3815 158.818 81.2408C162.974 84.0631 161.547 92.4082 154.216 100.854C149.684 107.458 150.041 108.953 151.618 112.395C152.722 114.807 157.304 120.609 154.444 124.244C151.584 127.879 149.65 131.479 151.932 133.912Z" fill="url(#paint3_linear_1863_7007)"/>
<g style="mix-blend-mode:soft-light" opacity="0.5">
<path d="M147.603 143.04L147.414 143.07C147.239 142.024 147.077 140.967 146.931 139.928C145.853 132.236 145.586 124.718 146.137 117.579C146.603 111.532 147.661 105.674 149.283 100.168C150.587 95.7402 152.261 91.5157 154.258 87.6096C155.662 84.864 157.207 82.3033 158.858 79.9992C159.146 79.5978 159.463 79.2017 159.77 78.8185C160.179 78.3083 160.603 77.7802 160.957 77.2363L161.12 77.3268C160.761 77.8791 160.333 78.4106 159.923 78.9243C159.617 79.3055 159.301 79.6996 159.016 80.0971C157.373 82.3938 155.83 84.9466 154.43 87.6848C152.438 91.5809 150.768 95.7965 149.465 100.214C147.846 105.709 146.789 111.556 146.324 117.591C145.774 124.716 146.041 132.223 147.117 139.903C147.266 140.94 147.429 141.996 147.603 143.04Z" fill="#FCFDFE"/>
<path d="M147.791 106.983L147.602 106.957C148.91 99.3922 142.205 87.9791 142.137 87.8644L142.304 87.7764C142.372 87.8931 149.109 99.3581 147.791 106.983Z" fill="#FCFDFE"/>
<path d="M146.116 128.418L145.925 128.413C146.171 123.184 154.617 116.826 154.702 116.763L154.82 116.901C154.735 116.964 146.357 123.27 146.116 128.418Z" fill="#FCFDFE"/>
<path d="M146.249 131.392L146.06 131.419C145.572 128.042 142.967 123.709 138.726 119.218C138.512 118.992 138.512 118.992 138.507 118.959L138.696 118.93L138.601 118.944L138.683 118.898C138.696 118.915 138.776 119 138.87 119.098C143.136 123.616 145.758 127.982 146.249 131.392Z" fill="#FCFDFE"/>
<path d="M147.313 141.127L147.124 141.102C147.752 137.378 152.935 134.52 152.987 134.492L153.082 134.645C153.03 134.674 147.926 137.489 147.313 141.127Z" fill="#FCFDFE"/>
<path d="M147.331 143.131C145.768 140.495 143.335 138.203 139.894 136.124L139.999 135.976C143.467 138.07 145.92 140.383 147.498 143.046L147.331 143.131Z" fill="#FCFDFE"/>
<path d="M153.296 90.0023L153.109 89.9667C154.087 85.7946 154.081 81.2151 154.079 79.7101C154.079 79.3457 154.079 79.2156 154.088 79.1726L154.276 79.2008C154.27 79.2354 154.27 79.4436 154.271 79.7071C154.272 81.2166 154.278 85.8109 153.296 90.0023Z" fill="#FCFDFE"/>
<path d="M150.633 96.5816L150.467 96.4961C152.574 92.9915 160.83 90.7641 161.18 90.6711L161.229 90.8422C161.145 90.864 152.701 93.1423 150.633 96.5816Z" fill="#FCFDFE"/>
</g>
<path d="M149.369 149.014C148.733 149 146.778 154.915 144.527 150.938C143.964 149.945 143.077 146.399 138.415 146.715L135.7 146.899C134.717 144.943 134.148 142.916 136.803 141.851C140.927 140.199 140.199 133.066 138.736 130.668C136.925 127.702 132.856 120.707 139.19 118.056C144.462 115.85 148.341 115.45 147.944 108.733C147.547 102.016 150.9 97.4511 157.326 97.188C164.089 96.9107 168.604 87.8575 174.434 90.1255C184.596 94.0775 177.629 109.692 166.473 115.162C155.316 120.632 162.466 123.927 163.418 129.359C163.507 130.108 163.507 130.864 163.418 131.613C162.721 137.459 156.892 139.059 153.131 144.177C148.004 151.157 150.438 149.039 149.369 149.014Z" fill="url(#paint4_linear_1863_7007)"/>
<g style="mix-blend-mode:soft-light" opacity="0.5">
<path d="M143.896 145.521L143.578 145.492C145.717 123.458 159.112 102.536 178.544 90.8909L178.714 91.147C159.368 102.744 146.026 123.578 143.896 145.521Z" fill="#FCFDFE"/>
<path d="M146.147 133.604L145.829 133.636C144.851 124.987 136.289 119.027 136.202 118.967L136.388 118.72C136.476 118.782 145.153 124.819 146.147 133.604Z" fill="#FCFDFE"/>
<path d="M144.405 141.478L144.11 141.363C147.624 133.204 164.285 130.431 164.453 130.404L164.507 130.701C164.34 130.73 147.852 133.476 144.405 141.478Z" fill="#FCFDFE"/>
<path d="M155.291 113.74L154.986 113.649C157.181 106.974 151.683 97.5953 151.627 97.5009L151.905 97.3525C151.961 97.448 157.526 106.943 155.291 113.74Z" fill="#FCFDFE"/>
<path d="M164.258 102.569L164.062 102.33C170.706 97.4659 181.984 98.655 182.097 98.6674L182.061 98.968C181.95 98.9557 170.799 97.7819 164.258 102.569Z" fill="#FCFDFE"/>
</g>
<path d="M157.245 165.764L128.327 164.639V104.226L157.245 103.519V165.764Z" fill="url(#paint5_linear_1863_7007)"/>
<path d="M178.229 164.417L157.244 165.764V103.519L178.229 104.555V164.417Z" fill="url(#paint6_linear_1863_7007)"/>
<path style="mix-blend-mode:multiply" opacity="0.3" d="M155.682 165.706L128.208 164.639V104.43C129.967 105.02 133.965 107.248 133.965 114.373C133.965 116.927 134.571 119.581 136.915 120.916C139.508 122.394 142.782 122.441 145.544 123.448C151.699 125.694 153.151 133.233 150.386 138.628C149.22 140.902 147.44 142.738 146.477 145.167C145.648 147.259 145.37 149.496 145.827 151.712C146.674 155.819 149.53 159.233 152.312 162.207C153.427 163.395 154.541 164.549 155.682 165.706Z" fill="url(#paint7_linear_1863_7007)"/>
<path d="M107.805 126.806V168.728L105.454 168.585L79.8359 167.011V126.03L107.805 126.806Z" fill="url(#paint8_linear_1863_7007)"/>
<path d="M132.223 166.724L107.802 168.729V126.805L132.223 126.313V166.724Z" fill="url(#paint9_linear_1863_7007)"/>
<path d="M79.8818 126.03L106.436 124.921L132.222 126.313L107.51 127.196L79.8818 126.03Z" fill="url(#paint10_linear_1863_7007)"/>
<path style="mix-blend-mode:multiply" opacity="0.3" d="M105.452 168.585L79.8359 167.011V126.503C81.5953 127.093 85.5286 129.322 85.5286 136.446C85.5286 145.256 93.1935 141.547 97.5274 145.349C101.861 149.151 102.225 153.871 98.9972 159.626C96.2551 164.518 102.498 165.586 105.452 168.585Z" fill="url(#paint11_linear_1863_7007)"/>
<path d="M56.043 116.504C56.043 116.504 126.912 123.513 148.502 66.0473L155 74.0661L147.911 41.9355L130.425 62.476L139.294 62.1748C139.294 62.1748 128.419 102.341 56.043 116.504Z" fill="#D8DEE8"/>
<path d="M60.2867 122.718L59.1561 124.321C59.1561 124.321 58.923 125.336 59.6127 124.994L61.6568 122.868L60.2867 122.718Z" fill="url(#paint12_linear_1863_7007)"/>
<path d="M85.6955 90.9731C84.1814 95.9086 81.1728 103.409 74.9522 111.082C70.348 116.762 65.4532 120.728 61.6468 123.348C61.2408 123.44 60.821 123.452 60.4104 123.384C60.094 123.332 59.7875 123.23 59.502 123.083C59.9976 121.085 60.8162 119.182 61.925 117.451C64.4911 113.456 66.5052 113.691 69.0467 110.179C70.9074 107.607 71.6521 104.812 73.1422 99.2238C74.292 94.9079 74.3672 93.8661 75.6055 92.675C78.1107 90.2671 82.4755 90.4609 85.6955 90.9731Z" fill="url(#paint13_linear_1863_7007)"/>
<g style="mix-blend-mode:multiply" opacity="0.2">
<path d="M62.7322 118.425C63.6289 117.264 65.1572 116.084 68.1721 113.758C71.2879 111.353 71.1419 111.809 71.7731 111.084C74.5992 107.836 73.4573 104.154 74.4075 99.8296C74.9374 97.4167 76.306 94.2978 79.8853 90.9089C78.3078 91.0998 76.774 91.6041 75.6085 92.6756C74.176 93.9908 74.1774 95.35 73.1451 99.2244C71.6551 104.812 70.9103 107.608 69.0496 110.179C66.5081 113.69 64.4941 113.456 61.9279 117.451C60.8191 119.183 60.0005 121.085 59.5049 123.083C59.7905 123.23 60.0969 123.332 60.4133 123.385C60.6867 123.431 60.9649 123.44 61.2407 123.413C61.254 120.547 62.277 119.015 62.7322 118.425Z" fill="url(#paint14_linear_1863_7007)"/>
</g>
<path d="M58.4597 124.099L58.2719 127.693C58.2601 127.914 58.5088 128.034 58.6534 127.877C58.7388 127.788 58.8058 127.683 58.8503 127.567C58.8949 127.452 58.9162 127.329 58.9129 127.205C58.8977 126.517 59.8961 125.073 59.7585 124.36C59.7132 124.127 59.2315 123.895 59.1012 123.788C58.8446 123.576 58.4779 123.755 58.4597 124.099Z" fill="url(#paint15_linear_1863_7007)"/>
<path d="M103.079 102.28L104.78 104.082C104.78 104.082 105.289 104.078 105.559 103.406L104.287 101.206L103.079 102.28Z" fill="url(#paint16_linear_1863_7007)"/>
<path d="M105.415 105.153L108.201 102.613C108.238 102.579 108.265 102.534 108.276 102.484C108.288 102.434 108.284 102.381 108.265 102.334C108.246 102.286 108.213 102.245 108.171 102.217C108.128 102.189 108.078 102.174 108.027 102.175C107.896 102.173 107.766 102.199 107.645 102.25C107.524 102.301 107.415 102.376 107.325 102.472C106.833 102.999 104.965 103.294 104.556 103.935C104.422 104.145 104.642 104.698 104.668 104.88C104.679 104.962 104.712 105.038 104.764 105.102C104.815 105.166 104.883 105.215 104.96 105.243C105.037 105.271 105.12 105.277 105.2 105.262C105.28 105.246 105.355 105.208 105.415 105.153V105.153Z" fill="url(#paint17_linear_1863_7007)"/>
<path d="M104.95 102.062C104.943 102.065 104.784 102.145 103.505 103.304C103.282 103.287 103.066 103.228 102.866 103.129C100.67 102.137 97.0908 97.1802 96.0732 94.4153C94.947 91.3602 92.0594 94.4435 82.4517 97.2416C75.184 99.3592 73.6242 95.0482 73.2973 92.8218C73.1911 92.1053 72.8057 91.1357 72.8057 91.1357C72.8057 91.1357 76.7468 89.9417 81.3255 88.713C86.0772 87.4369 90.6736 87.65 96.1057 88.0307C101.538 88.4114 104.95 102.062 104.95 102.062Z" fill="url(#paint18_linear_1863_7007)"/>
<path style="mix-blend-mode:multiply" opacity="0.3" d="M96.0719 94.4155C94.9456 91.3604 92.058 94.4437 82.4503 97.2417C75.1826 99.3594 73.6228 95.0484 73.2959 92.822C73.96 92.9179 74.9531 93.304 76.4229 94.1698C78.2529 95.248 80.2788 95.947 82.3815 96.2257C84.3149 96.4778 86.4779 95.1666 87.2512 94.7582C90.0381 93.2877 90.453 90.1253 92.6307 90.1075C94.7829 90.0907 96.6411 92.7898 98.1336 95.0024C99.7067 97.3263 99.57 98.0541 100.763 100.154C101.365 101.213 102.069 102.21 102.864 103.131C100.669 102.137 97.0909 97.1804 96.0719 94.4155Z" fill="url(#paint19_linear_1863_7007)"/>
<path d="M96.0841 58.3868C96.1638 58.23 96.1972 57.5823 96.0168 57.2446C95.8364 56.9069 95.4923 56.416 95.7007 56.058C95.9091 55.7 95.7749 54.6147 96.4573 54.6884C97.1396 54.7621 98.169 55.6886 97.6371 56.5069C97.1052 57.3252 97.1091 58.1697 97.1642 58.3942C97.2192 58.6187 96.0841 58.3868 96.0841 58.3868Z" fill="url(#paint20_linear_1863_7007)"/>
<path d="M97.6737 58.3224C97.7189 60.223 97.5542 61.9007 97.2189 63.382C96.0883 68.3991 93.0158 71.162 89.6533 72.7021C84.7753 74.9385 79.2807 74.6008 78.1766 74.8337C78.0026 74.8717 77.9072 74.8885 77.9072 74.8885C77.9072 74.8885 78.5817 71.341 78.8963 68.2878C79.7644 68.159 80.6209 67.9606 81.4575 67.6945C81.4895 67.6846 81.5214 67.6727 81.5558 67.6628C81.9368 67.5373 82.2996 67.4008 82.6501 67.2525C86.1532 65.7805 89.3358 67.5902 92.5847 64.0915C94.5511 61.9763 95.4772 58.0352 95.4772 58.0352L96.1074 58.1182L97.6737 58.3224Z" fill="url(#paint21_linear_1863_7007)"/>
<path style="mix-blend-mode:multiply" opacity="0.3" d="M97.2189 63.3821C96.0883 68.3991 93.0158 71.1621 89.6533 72.7022C88.5433 72.723 87.4864 72.7566 86.602 73.389C84.6184 74.808 81.2653 72.4654 81.2653 72.4654C81.2653 72.4654 81.2545 70.1267 81.2441 68.2379C81.6453 68.2379 82.0307 68.2261 82.4127 68.1934C86.2009 67.876 88.6269 71.0216 92.8295 68.4001C94.8037 67.1705 96.5381 64.5134 97.2189 63.3821Z" fill="url(#paint22_linear_1863_7007)"/>
<path d="M81.4196 63.1334C81.8546 62.4515 82.0041 62.4713 82.1314 62.101C82.4219 61.2575 82.0085 60.1064 81.5656 60.0456C81.28 60.0065 81.2111 60.452 80.5332 61.0884C79.7039 61.8676 79.2639 61.7094 78.7517 62.4075C78.6318 62.5707 78.0925 63.3054 78.3166 63.918C78.6027 64.6997 80.0156 64.9633 80.6689 64.4495C80.9796 64.2063 80.8832 63.9729 81.4196 63.1334Z" fill="url(#paint23_linear_1863_7007)"/>
<path d="M80.2732 63.7996C80.2732 63.7996 80.3897 65.1914 80.0963 66.2831C79.8313 67.272 77.8772 68.1234 77.4908 68.3865C77.1044 68.6495 78.3678 69.1059 79.5703 69.0708C80.7727 69.0356 84.1288 68.3222 84.6828 67.7897C85.2368 67.2572 84.1376 67.4352 83.2498 67.2329C82.362 67.0307 81.6571 65.4277 81.7092 64.6515C81.7613 63.8752 80.2732 63.7996 80.2732 63.7996Z" fill="url(#paint24_linear_1863_7007)"/>
<path d="M80.558 64.8567C80.558 64.8567 81.4262 65.3511 82.2963 64.7855C83.0755 64.2797 82.1837 62.3899 81.4532 62.292C81.2074 62.2594 80.8348 62.3993 80.5978 62.6357C80.4577 62.7751 80.4405 62.876 80.2075 63.0995C79.9927 63.3056 79.9062 63.317 79.8634 63.4238C79.8142 63.5573 79.8526 63.7932 80.3058 64.2377C80.0645 64.1665 79.8457 64.21 79.7494 64.3459C79.718 64.3955 79.701 64.4528 79.7002 64.5116C79.7051 64.7855 80.0414 64.9457 80.558 64.8567Z" fill="url(#paint25_linear_1863_7007)"/>
<path d="M121.097 49.4469L120.88 63.2135C120.856 64.6968 119.95 66.0555 118.373 67.1527C117.981 67.4269 117.571 67.6747 117.147 67.8944C114.697 69.1581 111.271 69.9141 107.483 69.8538C103.695 69.7935 100.306 68.9282 97.8969 67.5873C95.6183 66.3196 94.2527 64.6281 94.2817 62.7913L94.4985 49.0247L121.097 49.4469Z" fill="url(#paint26_linear_1863_7007)"/>
<path style="mix-blend-mode:multiply" opacity="0.3" d="M118.403 67.1533C118.006 67.4277 117.591 67.6754 117.161 67.8949C114.712 69.1587 111.278 69.9147 107.489 69.8544C103.701 69.794 100.306 68.9288 97.8979 67.5879C95.6193 66.3201 94.2498 64.6287 94.2788 62.7918L94.3909 55.668C96.1729 56.5288 98.8643 58.2015 99.3156 60.8423C100.02 64.9748 105.62 66.4596 111.232 65.6185C113.706 65.2447 116.268 65.9305 118.403 67.1533Z" fill="url(#paint27_linear_1863_7007)"/>
<path d="M128.126 50.8729L108.262 40.6089L88.0845 50.2336L87.294 50.2212L87.2891 50.5476L107.933 61.223L128.904 51.2116L128.909 50.8853L128.126 50.8729Z" fill="url(#paint28_linear_1863_7007)"/>
<path d="M108.27 40.1377L87.2832 50.1491L107.943 60.8245L128.93 50.8136L108.27 40.1377Z" fill="url(#paint29_linear_1863_7007)"/>
<path d="M128.602 65.1714C128.449 65.1714 128.359 65.0434 128.361 64.8896L128.575 51.3316C128.58 51.0251 128.321 50.7116 128.016 50.7067L108.107 50.3887C107.954 50.3887 107.832 50.2899 107.834 50.1386C107.836 49.9873 107.962 49.8943 108.115 49.8968L128.024 50.2142C128.634 50.2241 129.074 50.7259 129.065 51.3395L128.851 64.8975C128.848 65.0508 128.755 65.1739 128.602 65.1714Z" fill="url(#paint30_linear_1863_7007)"/>
<path d="M129.301 62.7181L129.081 62.2939C129.039 62.2146 128.977 62.1483 128.9 62.1021C128.824 62.0559 128.736 62.0315 128.647 62.0315C128.558 62.0315 128.47 62.0559 128.394 62.1021C128.317 62.1483 128.255 62.2146 128.213 62.2939L127.984 62.7285C127.929 62.834 127.9 62.9515 127.901 63.0706L127.843 66.7591C127.843 66.8382 128.155 66.9074 128.575 66.9144C128.995 66.9213 129.312 66.862 129.312 66.7824L129.371 63.084C129.38 62.958 129.356 62.8318 129.301 62.7181V62.7181Z" fill="url(#paint31_linear_1863_7007)"/>
<path d="M103.788 70.3616C103.788 70.3616 104.529 70.3384 104.451 68.9109C104.39 67.792 104.565 67.4365 104.802 67.6595C105.04 67.8825 105.008 68.5218 105.008 68.5218C105.008 68.5218 106.036 67.8158 106.537 66.7992C107.038 65.7826 107.191 66.7003 107.217 67.2392C107.243 67.7782 106.431 69.3515 106.038 69.619C105.644 69.8865 104.975 71.1799 104.975 71.1799L103.788 70.3616Z" fill="url(#paint32_linear_1863_7007)"/>
<path d="M105.658 71.2122C105.658 71.2122 105.171 73.807 103.491 76.0794C103.404 76.1986 103.312 76.3178 103.216 76.4354C103.161 76.5042 103.104 76.5749 103.045 76.6426C101.737 78.165 100.079 79.2419 98.1295 79.6913C95.4793 80.3024 93.0095 79.8574 90.5157 78.8354C89.9007 78.5843 89.298 78.2683 88.6968 77.983C88.4667 77.8733 87.9594 77.4589 87.7033 77.4851C87.3139 77.5242 88.0533 79.5029 88.1143 79.7027C88.7966 81.9721 88.8644 84.4443 88.6619 86.7919C88.4913 88.7786 87.7937 90.8463 86.2079 92.1546C85.2522 92.9457 83.8635 93.2626 82.6487 93.3101C82.6487 93.3101 81.8578 93.4317 80.6996 93.4856C79.9307 93.5222 79.1605 93.5181 78.392 93.4732C77.0913 93.3951 75.6883 93.1721 74.4903 92.6713C72.9545 92.0285 71.7526 90.9269 71.5338 89.0787C71.4763 88.5912 71.4321 88.0478 71.406 87.4594C71.2635 84.4928 71.5304 80.3974 72.4792 76.6777C72.5775 76.2915 72.6832 75.9089 72.7967 75.5331C73.8507 72.0409 75.5654 69.0451 78.1821 67.9044C78.4635 67.7798 78.7545 67.6784 79.0522 67.6013C85.967 65.8031 89.2405 67.8545 91.406 71.1899C93.5714 74.5254 99.9651 76.9749 103.765 69.3403L105.658 71.2122Z" fill="url(#paint33_linear_1863_7007)"/>
<path style="mix-blend-mode:multiply" opacity="0.3" d="M103.49 76.0803C103.403 76.1995 103.31 76.3187 103.215 76.4363C103.159 76.5051 103.103 76.5758 103.044 76.6435C101.736 78.1659 100.077 79.2428 98.1277 79.6922C95.4776 80.3033 93.0078 79.8583 90.514 78.8363C89.899 78.5852 89.2963 78.2692 88.6951 77.9839C88.465 77.8742 87.9577 77.4598 87.7016 77.486C87.3122 77.5251 88.0516 79.5038 88.1125 79.7036C88.7949 81.973 88.8627 84.4452 88.6602 86.7928C88.4896 88.7795 87.792 90.8472 86.2061 92.1555C85.2505 92.9466 83.8617 93.2635 82.647 93.311C82.647 93.311 81.856 93.4326 80.6979 93.4865C79.929 93.5231 79.1587 93.519 78.3903 93.4742C76.948 93.2675 75.5882 93.0044 74.4885 92.6722C72.9528 92.0294 71.7509 90.9278 71.5321 89.0796C71.4746 88.5921 71.4304 88.0487 71.4043 87.4603C71.7111 86.5085 72.5807 85.6477 74.5918 85.309C79.8159 84.4309 80.2136 85.4049 80.2082 81.9409C80.2028 78.4769 80.542 76.1777 83.6445 76.2875C86.7469 76.3973 86.2897 72.3627 89.1763 73.7688C92.063 75.175 97.4292 82.332 103.49 76.0803Z" fill="url(#paint34_linear_1863_7007)"/>
<path d="M136.817 173.627L116.957 173.07C114.691 172.966 112.888 170.113 112.888 166.708V166.671C112.888 163.266 114.691 160.459 116.957 160.412L138.208 159.689L136.817 173.627Z" fill="url(#paint35_linear_1863_7007)"/>
<path d="M171.966 171.952L138.98 173.26C135.895 173.382 133.361 171.114 133.361 168.193V166.211C133.361 163.289 135.895 160.891 138.98 160.855L171.966 160.47V171.952Z" fill="#F4F7FA"/>
<path d="M172.286 172.553L137.398 173.987C134.702 174.098 132.482 171.083 132.482 167.266V167.224C132.482 163.407 134.7 160.279 137.398 160.253L172.286 159.894C172.507 159.894 172.686 160.163 172.686 160.501C172.686 160.839 172.507 161.115 172.286 161.118L137.398 161.58C135.227 161.61 133.445 164.131 133.445 167.201V167.243C133.445 170.314 135.227 172.743 137.398 172.66L172.286 171.329C172.507 171.32 172.686 171.587 172.686 171.925C172.686 172.263 172.507 172.545 172.286 172.553Z" fill="url(#paint36_linear_1863_7007)"/>
<path d="M135.625 159.918L116.718 160.347C114.98 160.386 113.595 159.002 113.595 157.257V156.07C113.595 154.324 114.98 152.822 116.718 152.713L135.625 151.526V159.918Z" fill="#D8DEE8"/>
<path d="M132.964 160.299L116.955 160.749C114.689 160.796 112.886 158.987 112.886 156.72V156.695C112.886 154.427 114.689 152.465 116.955 152.319L132.964 151.06C133.245 151.042 136.504 151.253 136.504 151.502C136.504 151.75 133.462 151.938 133.183 151.955L116.957 153.134C115.126 153.245 113.663 154.826 113.663 156.662V156.687C113.663 158.522 115.126 159.979 116.957 159.934L132.966 159.405C133.245 159.398 136.506 159.652 136.506 159.9C136.506 160.147 133.245 160.292 132.964 160.299Z" fill="url(#paint37_linear_1863_7007)"/>
<path d="M171.966 159.49L133.362 159.848V151.482L171.966 151.843V159.49Z" fill="#F4F7FA"/>
<path d="M172.285 152.279L132.965 151.953C132.699 151.953 132.483 151.748 132.483 151.502C132.483 151.255 132.699 151.057 132.965 151.06L172.285 151.464C172.392 151.466 172.494 151.51 172.569 151.587C172.644 151.664 172.686 151.767 172.685 151.875C172.686 151.928 172.676 151.981 172.656 152.03C172.636 152.079 172.606 152.123 172.569 152.161C172.532 152.198 172.488 152.228 172.439 152.249C172.39 152.269 172.338 152.279 172.285 152.279V152.279Z" fill="url(#paint38_linear_1863_7007)"/>
<path d="M172.285 159.894L132.965 160.299C132.699 160.299 132.483 160.101 132.483 159.857C132.483 159.612 132.699 159.408 132.965 159.405L172.285 159.079C172.338 159.079 172.39 159.089 172.439 159.11C172.488 159.13 172.532 159.159 172.569 159.197C172.606 159.235 172.636 159.279 172.656 159.328C172.676 159.377 172.686 159.43 172.685 159.483C172.686 159.591 172.644 159.694 172.569 159.771C172.494 159.848 172.392 159.892 172.285 159.894V159.894Z" fill="url(#paint39_linear_1863_7007)"/>
<g style="mix-blend-mode:soft-light" opacity="0.5">
<path d="M131.493 172.078L127.272 171.835C126.251 168.91 126.329 166.089 127.272 162.658L131.493 162.671C130.647 166.174 130.776 169.273 131.493 172.078Z" fill="white"/>
</g>
<g style="mix-blend-mode:multiply">
<path d="M122.742 160.683L122.608 155.388L117.762 160.753C117.762 160.753 115.143 162.172 115.593 164.665L118.589 163.466L121.25 164.394C121.25 164.394 121.317 161.776 122.742 160.683Z" fill="#D8DEE8"/>
</g>
<path d="M117.217 155.718L122.608 155.387C122.608 155.387 120.072 157.325 121.25 164.394C121.25 164.394 118.945 163.657 117.942 162.397L115.593 164.665C115.593 164.665 114.158 158.38 117.217 155.718Z" fill="url(#paint40_linear_1863_7007)"/>
<path d="M69.6337 148.525V171.501L67.7907 171.384L42.8965 169.819V147.074L69.6337 148.525Z" fill="url(#paint41_linear_1863_7007)"/>
<path d="M98.4467 169.53L69.6699 171.501V148.524L98.4467 147.235V169.53Z" fill="url(#paint42_linear_1863_7007)"/>
<path d="M42.9268 147.074L69.752 146.077L98.4472 147.235L69.6704 148.524L42.9268 147.074Z" fill="url(#paint43_linear_1863_7007)"/>
<path style="mix-blend-mode:multiply" opacity="0.3" d="M67.8084 171.385L42.8965 169.819V147.866C45.5934 148.641 48.9514 150.887 50.3048 157.186C52.4757 167.3 65.2669 164.017 67.8084 171.385Z" fill="url(#paint44_linear_1863_7007)"/>

</svg>
