<svg width="228" height="222" viewBox="0 0 228 222" fill="none" xmlns="http://www.w3.org/2000/svg">
<defs>
<linearGradient id="paint0_linear_1868_7446" x1="112.728" y1="47.4291" x2="114.336" y2="221.997" gradientUnits="userSpaceOnUse">
<stop stop-color="#8344FF"/>
<stop offset="1" stop-color="#BC9EF3"/>
</linearGradient>
<linearGradient id="paint1_linear_1868_7446" x1="112.728" y1="47.4291" x2="114.336" y2="221.997" gradientUnits="userSpaceOnUse">
<stop stop-color="#6F3DFF"/>
<stop offset="1" stop-color="#BC9EF3"/>
</linearGradient>
<linearGradient id="paint2_linear_1868_7446" x1="54.5589" y1="74.1119" x2="98.7911" y2="74.1119" gradientUnits="userSpaceOnUse">
<stop stop-color="#FF9085"/>
<stop offset="1" stop-color="#FB6FBB"/>
</linearGradient>
<linearGradient id="paint3_linear_1868_7446" x1="86.4308" y1="73.7062" x2="68.7356" y2="121.157" gradientUnits="userSpaceOnUse">
<stop stop-color="#FF9085"/>
<stop offset="1" stop-color="#FB6FBB"/>
</linearGradient>
<linearGradient id="paint4_linear_1868_7446" x1="115.509" y1="106.046" x2="92.1517" y2="108.591" gradientUnits="userSpaceOnUse">
<stop stop-color="#444B8C"/>
<stop offset="1" stop-color="#26264F"/>
</linearGradient>
<linearGradient id="paint5_linear_1868_7446" x1="136.088" y1="47.1103" x2="78.2255" y2="243.899" gradientUnits="userSpaceOnUse">
<stop stop-color="#444B8C"/>
<stop offset="1" stop-color="#26264F"/>
</linearGradient>
<linearGradient id="paint6_linear_1868_7446" x1="72.512" y1="264.628" x2="129.829" y2="73.3563" gradientUnits="userSpaceOnUse">
<stop stop-color="#F36F56"/>
<stop offset="1" stop-color="#FFC444"/>
</linearGradient>
<linearGradient id="paint7_linear_1868_7446" x1="114.446" y1="42.2626" x2="46.4482" y2="226.238" gradientUnits="userSpaceOnUse">
<stop stop-color="#311944"/>
<stop offset="1" stop-color="#893976"/>
</linearGradient>
<linearGradient id="paint8_linear_1868_7446" x1="141.99" y1="337.407" x2="151.109" y2="80.4404" gradientUnits="userSpaceOnUse">
<stop stop-color="#AA80F9"/>
<stop offset="1" stop-color="#6165D7"/>
</linearGradient>
<linearGradient id="paint9_linear_1868_7446" x1="116.411" y1="107.739" x2="117.077" y2="88.9766" gradientUnits="userSpaceOnUse">
<stop stop-color="#AA80F9"/>
<stop offset="1" stop-color="#6165D7"/>
</linearGradient>
<linearGradient id="paint10_linear_1868_7446" x1="115.223" y1="60.3709" x2="111.51" y2="88.846" gradientUnits="userSpaceOnUse">
<stop stop-color="#AA80F9"/>
<stop offset="1" stop-color="#6165D7"/>
</linearGradient>
<linearGradient id="paint11_linear_1868_7446" x1="113.451" y1="52.1288" x2="108.528" y2="115.954" gradientUnits="userSpaceOnUse">
<stop stop-color="#AA80F9"/>
<stop offset="1" stop-color="#6165D7"/>
</linearGradient>
<linearGradient id="paint12_linear_1868_7446" x1="144.149" y1="61.0213" x2="113.988" y2="118.218" gradientUnits="userSpaceOnUse">
<stop stop-color="#FF9085"/>
<stop offset="1" stop-color="#FB6FBB"/>
</linearGradient>
<linearGradient id="paint13_linear_1868_7446" x1="147.915" y1="114.362" x2="150.065" y2="93.7779" gradientUnits="userSpaceOnUse">
<stop stop-color="#FF9085"/>
<stop offset="1" stop-color="#FB6FBB"/>
</linearGradient>
<linearGradient id="paint14_linear_1868_7446" x1="46.5762" y1="150.024" x2="132.513" y2="150.024" gradientUnits="userSpaceOnUse">
<stop stop-color="#FF9085"/>
<stop offset="1" stop-color="#FB6FBB"/>
</linearGradient>
<linearGradient id="paint15_linear_1868_7446" x1="56.0927" y1="184.129" x2="63.1099" y2="168.185" gradientUnits="userSpaceOnUse">
<stop stop-color="#AA80F9"/>
<stop offset="1" stop-color="#6165D7"/>
</linearGradient>
<linearGradient id="paint16_linear_1868_7446" x1="74.3438" y1="174.981" x2="132.57" y2="174.981" gradientUnits="userSpaceOnUse">
<stop offset="0.49" stop-color="#EBEFF2"/>
<stop offset="1" stop-color="white"/>
</linearGradient>
<linearGradient id="paint17_linear_1868_7446" x1="72.9386" y1="175.008" x2="133.593" y2="175.008" gradientUnits="userSpaceOnUse">
<stop stop-color="#AA80F9"/>
<stop offset="1" stop-color="#6165D7"/>
</linearGradient>
<linearGradient id="paint18_linear_1868_7446" x1="66.2619" y1="141.123" x2="53.958" y2="182.527" gradientUnits="userSpaceOnUse">
<stop stop-color="#FF9085"/>
<stop offset="1" stop-color="#FB6FBB"/>
</linearGradient>
<linearGradient id="paint19_linear_1868_7446" x1="74.3438" y1="157.559" x2="132.57" y2="157.559" gradientUnits="userSpaceOnUse">
<stop offset="0.49" stop-color="#EBEFF2"/>
<stop offset="1" stop-color="white"/>
</linearGradient>
<linearGradient id="paint20_linear_1868_7446" x1="72.9386" y1="157.739" x2="133.593" y2="157.739" gradientUnits="userSpaceOnUse">
<stop stop-color="#FF9085"/>
<stop offset="1" stop-color="#FB6FBB"/>
</linearGradient>
<linearGradient id="paint21_linear_1868_7446" x1="55.3867" y1="124.016" x2="93.3008" y2="124.016" gradientUnits="userSpaceOnUse">
<stop offset="0.49" stop-color="#EBEFF2"/>
<stop offset="1" stop-color="white"/>
</linearGradient>
<linearGradient id="paint22_linear_1868_7446" x1="56.7441" y1="136.698" x2="91.9416" y2="136.698" gradientUnits="userSpaceOnUse">
<stop stop-color="#AA80F9"/>
<stop offset="1" stop-color="#6165D7"/>
</linearGradient>
<linearGradient id="paint23_linear_1868_7446" x1="73.771" y1="128.534" x2="82.0214" y2="117.504" gradientUnits="userSpaceOnUse">
<stop stop-color="#AA80F9"/>
<stop offset="1" stop-color="#6165D7"/>
</linearGradient>
<linearGradient id="paint24_linear_1868_7446" x1="162.1" y1="136.434" x2="162.973" y2="138.226" gradientUnits="userSpaceOnUse">
<stop stop-color="#FFC444"/>
<stop offset="1" stop-color="#F36F56"/>
</linearGradient>
<linearGradient id="paint25_linear_1868_7446" x1="159.882" y1="182.095" x2="159.882" y2="176.47" gradientUnits="userSpaceOnUse">
<stop stop-color="#FFC444"/>
<stop offset="1" stop-color="#F36F56"/>
</linearGradient>
<linearGradient id="paint26_linear_1868_7446" x1="142.754" y1="183.698" x2="142.754" y2="176.919" gradientUnits="userSpaceOnUse">
<stop stop-color="#FFC444"/>
<stop offset="1" stop-color="#F36F56"/>
</linearGradient>
<linearGradient id="paint27_linear_1868_7446" x1="138.966" y1="157.068" x2="161.123" y2="157.068" gradientUnits="userSpaceOnUse">
<stop stop-color="#311944"/>
<stop offset="1" stop-color="#893976"/>
</linearGradient>
<linearGradient id="paint28_linear_1868_7446" x1="138.262" y1="140.535" x2="154.249" y2="167.359" gradientUnits="userSpaceOnUse">
<stop stop-color="#311944"/>
<stop offset="1" stop-color="#893976"/>
</linearGradient>
<linearGradient id="paint29_linear_1868_7446" x1="144.546" y1="136.789" x2="160.533" y2="163.613" gradientUnits="userSpaceOnUse">
<stop stop-color="#311944"/>
<stop offset="1" stop-color="#893976"/>
</linearGradient>
<linearGradient id="paint30_linear_1868_7446" x1="156.837" y1="120.296" x2="144.822" y2="83.5171" gradientUnits="userSpaceOnUse">
<stop stop-color="#E38DDD"/>
<stop offset="1" stop-color="#9571F6"/>
</linearGradient>
<linearGradient id="paint31_linear_1868_7446" x1="141.193" y1="111.706" x2="158.342" y2="146.936" gradientUnits="userSpaceOnUse">
<stop stop-color="#E38DDD"/>
<stop offset="1" stop-color="#9571F6"/>
</linearGradient>
<linearGradient id="paint32_linear_1868_7446" x1="148.649" y1="107.296" x2="151.926" y2="112.499" gradientUnits="userSpaceOnUse">
<stop stop-color="#E38DDD"/>
<stop offset="1" stop-color="#9571F6"/>
</linearGradient>
<linearGradient id="paint33_linear_1868_7446" x1="148.93" y1="83.742" x2="177.437" y2="129.006" gradientUnits="userSpaceOnUse">
<stop stop-color="#444B8C"/>
<stop offset="1" stop-color="#26264F"/>
</linearGradient>
<linearGradient id="paint34_linear_1868_7446" x1="139.287" y1="112.528" x2="156.154" y2="147.177" gradientUnits="userSpaceOnUse">
<stop stop-color="#E38DDD"/>
<stop offset="1" stop-color="#9571F6"/>
</linearGradient>
<linearGradient id="paint35_linear_1868_7446" x1="138.72" y1="112.91" x2="155.869" y2="148.14" gradientUnits="userSpaceOnUse">
<stop stop-color="#AA80F9"/>
<stop offset="1" stop-color="#6165D7"/>
</linearGradient>
<clipPath id="clip0_1868_7446">
<rect width="150" height="152.149" fill="white" transform="translate(39 35)"/>
</clipPath>
</defs>
<path d="M149.047 3.11672C180.848 11.0634 212.636 27.9879 224.433 56.0682C235.733 82.9661 217.65 110.801 205.446 137.369C194.291 161.654 182.687 185.916 158.309 200.021C130.706 215.992 96.5392 228.793 66.0598 218.017C36.0227 207.398 24.4112 175.946 12.7461 148.56C2.25672 123.934 -4.9574 97.7954 4.1711 72.7229C13.453 47.2292 35.2064 27.8145 61.2661 15.2941C88.4876 2.21541 119.373 -4.29864 149.047 3.11672Z" fill="#FF2C62"/>
<path d="M149.047 3.11672C180.848 11.0634 212.636 27.9879 224.433 56.0682C235.733 82.9661 217.65 110.801 205.446 137.369C194.291 161.654 182.687 185.916 158.309 200.021C130.706 215.992 96.5392 228.793 66.0598 218.017C36.0227 207.398 24.4112 175.946 12.7461 148.56C2.25672 123.934 -4.9574 97.7954 4.1711 72.7229C13.453 47.2292 35.2064 27.8145 61.2661 15.2941C88.4876 2.21541 119.373 -4.29864 149.047 3.11672Z" fill="url(#paint0_linear_1868_7446)"/>
<path d="M149.047 3.11672C180.848 11.0634 212.636 27.9879 224.433 56.0682C235.733 82.9661 217.65 110.801 205.446 137.369C194.291 161.654 182.687 185.916 158.309 200.021C130.706 215.992 96.5392 228.793 66.0598 218.017C36.0227 207.398 24.4112 175.946 12.7461 148.56C2.25672 123.934 -4.9574 97.7954 4.1711 72.7229C13.453 47.2292 35.2064 27.8145 61.2661 15.2941C88.4876 2.21541 119.373 -4.29864 149.047 3.11672Z" fill="url(#paint1_linear_1868_7446)"/>
<g clip-path="url(#clip0_1868_7446)">
<path d="M54.5467 65.7116C56.8171 62.6009 76.2541 36.8756 107.761 38.1288C109.335 38.1916 140.062 39.8159 151.396 59.9811C159.779 74.8982 150.903 88.133 161.128 98.2965C170.04 107.152 180.992 101.291 186.469 108.452C194.81 119.36 181.526 148.82 161.114 165.25C140.04 182.215 99.7192 194.661 68.3803 172.03C33.1951 146.615 33.5525 94.4767 54.5467 65.7116Z" fill="#F4F7FA"/>
<path opacity="0.7" d="M98.789 109.476C95.3741 106.268 90.8678 101.058 88.8288 93.691C86.1547 84.03 90.0738 79.1476 89.6318 62.791C89.3542 52.4496 89.0564 45.2344 83.8444 41.3757C79.7626 38.3513 73.1545 37.7503 69.1439 40.5532C65.8093 42.8839 63.8788 47.8409 63.2937 51.3795C62.8151 54.2634 63.1996 56.3572 61.5387 57.8745C59.8416 59.4269 58.0094 58.5479 56.4224 59.6979C53.2043 62.0302 55.0678 69.7544 55.3689 71.0028C58.7194 84.8898 71.5021 94.2558 77.1273 98.2736C81.7777 101.597 88.9724 106.025 98.789 109.476Z" fill="url(#paint2_linear_1868_7446)"/>
<g style="mix-blend-mode:soft-light" opacity="0.5">
<path d="M102.681 112.08C96.7245 109.814 91.5944 107.11 87.4381 104.045C81.2815 99.5028 77.447 94.284 76.0403 88.5333C74.9405 84.0369 75.3489 79.1694 75.8643 73.0066C76.2897 67.8959 77.0545 64.3194 77.7257 61.1624C78.5963 57.077 79.284 53.8497 78.8069 49.1872C78.3224 44.4491 76.7604 39.7365 74.165 35.181L74.4841 35C77.105 39.5997 78.6819 44.3602 79.1717 49.1499C79.6546 53.87 78.9617 57.1217 78.0841 61.2385C77.414 64.3849 76.6535 67.9507 76.228 73.0365C75.6962 79.4063 75.3096 84.0081 76.395 88.4465C79.3472 100.516 92.3895 107.775 102.811 111.739L102.681 112.08Z" fill="white"/>
<path d="M76.335 69.4974L76.2759 69.2999C73.5306 60.0744 68.6005 54.303 64.9478 51.0859C60.9952 47.6041 57.6585 46.2876 57.625 46.2748L57.7569 45.9341C57.7904 45.9474 61.1883 47.2879 65.1888 50.8117C68.8499 54.0373 73.7816 59.8024 76.5637 68.9927C77.313 68.6291 80.1966 67.1188 83.0818 64.1434C86.1564 60.972 89.8633 55.4364 90.0606 47.0755L90.4254 47.084C90.2249 55.5706 86.4574 61.1919 83.3323 64.409C79.9467 67.8971 76.5562 69.4005 76.5248 69.4133L76.335 69.4974Z" fill="white"/>
<path d="M75.6126 83.2681L75.4855 83.2308C70.9862 81.9089 65.8832 76.7311 60.3181 67.841C56.1841 61.2395 53.3276 54.9378 53.2979 54.875L53.6302 54.7244C53.7425 54.9735 64.9583 79.5862 75.461 82.8422C75.9849 82.091 79.1403 77.6473 83.1115 73.7471C87.4725 69.4631 97.2998 68.03 97.7162 67.9709L97.7694 68.3323C97.6684 68.3467 87.6443 69.8081 83.3689 74.0074C79.061 78.2372 75.7211 83.111 75.6881 83.1584L75.6126 83.2681Z" fill="white"/>
<path d="M85.8909 102.811L85.5298 102.768C85.4798 102.762 80.4279 102.143 73.8294 99.8404C67.7394 97.7152 59.0444 93.6788 52.2103 86.5199L39.0293 72.7123L39.2952 72.46L52.4789 86.2676C59.2614 93.3716 67.8957 97.3803 73.9454 99.4928C79.5025 101.433 83.954 102.172 85.216 102.356C82.6941 97.7115 83.1616 92.6577 86.5775 87.7162C89.2043 83.9166 92.6857 81.4874 92.7202 81.4651L92.9277 81.7653C92.8931 81.7893 89.4601 84.1849 86.8716 87.9318C83.4195 92.9302 83.0291 97.8297 85.7117 102.495L85.8909 102.811Z" fill="white"/>
</g>
<path opacity="0.7" d="M108.73 135.182C98.0935 136.748 84.3189 137.223 70.496 133.159C66.9678 132.122 45.1742 125.718 46.2868 116.034C46.6788 112.623 49.5842 111.686 50.1857 107.135C50.901 101.742 47.2824 99.6056 44.1228 93.4529C42.2358 89.7796 36.7138 79.0373 42.5996 71.8343C46.1166 67.5301 53.548 64.6851 59.5843 65.2329C68.4378 66.0341 72.5547 73.9745 79.2883 87.5298C85.2571 99.546 84.6098 102.792 89.0592 111.369C92.3592 117.734 98.102 126.332 108.73 135.182Z" fill="url(#paint3_linear_1868_7446)"/>
<g style="mix-blend-mode:soft-light" opacity="0.5">
<path d="M127.19 137.819C125.115 137.819 123.047 137.718 120.986 137.516C106.137 136.062 92.4765 129.201 80.3852 117.127C67.8131 104.57 60.0861 89.5183 55.8176 79.1029C52.8441 71.8472 52.0474 63.4714 53.4498 54.207L53.8104 54.2603C52.4181 63.4586 53.2068 71.7695 56.1553 78.9624C61.3471 91.6328 81.3696 133.268 121.02 137.151C123.068 137.351 125.125 137.452 127.189 137.452C136.284 137.452 145.491 135.504 154.644 131.637L154.785 131.973C145.587 135.862 136.331 137.819 127.19 137.819Z" fill="white"/>
<path d="M66.4006 99.3422L66.2517 99.2735C41.2283 87.6369 39.0712 70.5254 39.0058 65.5546C39.0058 65.4551 39.0058 65.3912 39.001 65.364L39.3621 65.3108C39.369 65.3901 39.3719 65.4697 39.3706 65.5493C39.4366 70.453 41.5639 87.3292 66.2544 98.8721C66.6947 98.0996 68.804 94.2469 70.2394 88.8912C71.7158 83.3849 72.7614 75.1166 69.3598 66.9968L69.6964 66.8557C73.139 75.0745 72.0817 83.4322 70.5888 88.9961C68.9731 95.0193 66.507 99.1607 66.4847 99.2011L66.4006 99.3422Z" fill="white"/>
<path d="M65.0797 119.315C59.2295 119.315 54.7041 118.154 51.4743 116.86C45.3582 114.408 42.4331 110.95 42.4033 110.913L42.6836 110.679C42.7118 110.714 45.5906 114.114 51.6323 116.53C57.1974 118.756 66.6588 120.576 80.1557 116.636C80.5189 115.396 84.2285 102.008 80.5923 85.2794L76.737 67.5423L77.0934 67.4646L80.9486 85.1995C84.7694 102.781 80.5195 116.7 80.4764 116.838L80.4471 116.932L80.3535 116.959C74.5235 118.671 69.4344 119.315 65.0797 119.315Z" fill="white"/>
</g>
<path d="M175.12 79.9861L171.876 79.9914C171.658 77.8871 171.153 75.8226 170.374 73.8558L173.115 72.2646C173.865 71.8296 174.121 70.8485 173.689 70.0712L172.537 67.9949C172.102 67.2129 171.138 66.9254 170.38 67.3561L167.673 68.8947C166.407 67.1203 164.903 65.528 163.205 64.1624L164.762 61.4846C165.209 60.7163 164.944 59.7054 164.169 59.2241L162.095 57.9368C161.311 57.4502 160.306 57.6802 159.851 58.4527L158.29 61.1034C156.24 60.1483 154.066 59.4853 151.832 59.1336V55.9926C151.832 55.0657 151.07 54.2789 150.127 54.2358L147.604 54.1208C146.646 54.0771 145.872 54.8017 145.872 55.7387V58.9164C143.556 59.109 141.279 59.6299 139.109 60.4635L137.425 57.5886C136.93 56.7448 135.829 56.4174 134.967 56.8604L132.66 58.0449C131.788 58.4932 131.49 59.5472 131.992 60.3969L133.738 63.3361C131.828 64.6862 130.123 66.3043 128.674 68.1408L125.518 66.3536C124.623 65.8468 123.474 66.1098 122.954 66.9435L121.567 69.1683C121.043 70.0078 121.354 71.0971 122.258 71.5986L125.525 73.4086C124.604 75.5303 124.002 77.7771 123.741 80.0756L119.823 80.0819C118.768 80.0819 117.908 80.8842 117.908 81.8691V84.4889C117.908 85.4743 118.766 86.2623 119.823 86.2489L123.845 86.1989C124.178 88.4442 124.84 90.6282 125.809 92.6806L122.258 94.6972C121.354 95.2115 121.042 96.3055 121.567 97.1376L122.954 99.3427C123.474 100.169 124.623 100.416 125.518 99.8963L129.109 97.8116C130.547 99.5127 132.215 101.005 134.064 102.245L131.994 105.759C131.489 106.616 131.789 107.666 132.661 108.101L134.969 109.253C135.832 109.684 136.931 109.341 137.427 108.49L139.479 104.959C141.542 105.687 143.692 106.133 145.874 106.286V110.221C145.874 111.159 146.65 111.872 147.605 111.815L150.128 111.664C151.071 111.607 151.833 110.812 151.833 109.883V105.99C153.946 105.629 156.002 104.993 157.95 104.098L159.855 107.305C160.309 108.072 161.315 108.288 162.098 107.79L164.173 106.473C164.947 105.981 165.213 104.966 164.766 104.204L162.916 101.051C164.566 99.7445 166.039 98.2299 167.299 96.5445L170.384 98.2529C171.141 98.6724 172.106 98.3711 172.54 97.5832L173.692 95.4925C174.124 94.7094 173.868 93.732 173.119 93.3098L170.137 91.6206C170.956 89.6974 171.514 87.6728 171.795 85.6011L175.125 85.5595C175.983 85.5489 176.677 84.8233 176.677 83.9385V81.5859C176.672 80.7006 175.978 79.9824 175.12 79.9861ZM148.87 99.3544C139.275 99.7105 131.246 92.2568 131.246 82.6943C131.246 73.1318 139.277 65.5748 148.87 65.8085C158.138 66.0342 165.423 73.4933 165.423 82.4755C165.423 91.4577 158.138 99.0099 148.87 99.3544V99.3544Z" fill="#97A6B7"/>
<path d="M138.134 56.7368L135.824 56.6575L135.028 58.73L138.134 56.7368Z" fill="#97A6B7"/>
<path d="M161.033 57.6934L163.696 57.72V59.686L161.033 57.6934Z" fill="#97A6B7"/>
<path d="M171.182 67.1782L173.836 67.2858L173.173 68.7737L171.182 67.1782Z" fill="#97A6B7"/>
<path d="M175.351 80.0139L178.031 80.2263L177.156 81.5285L175.351 80.0139Z" fill="#97A6B7"/>
<path d="M170.891 98.4275L173.492 98.7996L173.811 96.6738L170.891 98.4275Z" fill="#97A6B7"/>
<path d="M160.937 108.02L163.272 108.445L163.458 106.718L160.937 108.02Z" fill="#97A6B7"/>
<path d="M149.258 112.165L147.16 111.793L148.966 109.109L149.258 112.165Z" fill="#97A6B7"/>
<path d="M137.896 109.907L135.454 109.402L137.338 107.116L137.896 109.907Z" fill="#97A6B7"/>
<path d="M124.172 66.1165L126.72 66.1963L125.712 68.0559L124.172 66.1165Z" fill="#97A6B7"/>
<path d="M119.102 86.1249L121.437 86.4704L121.252 84.5576L119.102 86.1249Z" fill="#97A6B7"/>
<path d="M124.118 100.128L126.401 100.5L126.587 98.9854L124.118 100.128Z" fill="#97A6B7"/>
<path d="M177.741 80.1953L174.472 80.2012C174.252 78.0795 173.741 75.9983 172.955 74.0155L175.721 72.4109C176.477 71.9728 176.735 70.9836 176.3 70.2L175.136 68.1104C174.698 67.3215 173.725 67.0318 172.962 67.4657L170.232 69.0155C168.955 67.2268 167.44 65.6217 165.728 64.2449L167.298 61.5452C167.748 60.7706 167.481 59.7516 166.699 59.2661L164.61 57.9682C163.819 57.4779 162.806 57.7095 162.347 58.4889L160.773 61.1608C158.705 60.198 156.513 59.5293 154.261 59.174V56.0059C154.261 55.071 153.492 54.2783 152.541 54.2347L149.997 54.1186C149.034 54.0744 148.252 54.8048 148.252 55.7498V58.9536C145.916 59.1477 143.62 59.6729 141.432 60.5135L139.734 57.6174C139.235 56.7656 138.126 56.4366 137.256 56.8832L134.93 58.0773C134.051 58.5277 133.749 59.5925 134.258 60.448L136.019 63.4112C134.094 64.7726 132.374 66.4042 130.913 68.2558L127.731 66.4532C126.827 65.9426 125.67 66.2072 125.145 67.0478L123.746 69.2912C123.218 70.1372 123.533 71.2355 124.444 71.7402L127.738 73.5646C126.809 75.7033 126.203 77.9682 125.939 80.2853L121.989 80.2922C120.925 80.2922 120.061 81.1003 120.061 82.0937V84.7348C120.061 85.7283 120.926 86.5226 121.989 86.5092L126.045 86.4587C126.38 88.7223 127.047 90.924 128.024 92.993L124.444 95.0261C123.532 95.5447 123.218 96.6472 123.746 97.4862L125.145 99.7094C125.67 100.543 126.828 100.791 127.731 100.267L131.351 98.1661C132.801 99.8819 134.482 101.387 136.347 102.638L134.26 106.182C133.751 107.046 134.053 108.105 134.933 108.544L137.26 109.705C138.13 110.14 139.239 109.794 139.737 108.936L141.808 105.377C143.886 106.109 146.053 106.558 148.251 106.712V110.68C148.251 111.625 149.034 112.344 149.997 112.287L152.541 112.134C153.492 112.078 154.26 111.274 154.26 110.339V106.414C156.389 106.05 158.462 105.409 160.425 104.507L162.345 107.74C162.804 108.513 163.817 108.73 164.608 108.228L166.697 106.901C167.478 106.405 167.746 105.382 167.296 104.612L165.433 101.437C167.096 100.12 168.581 98.5933 169.852 96.8942L172.962 98.6165C173.725 99.0424 174.698 98.7363 175.136 97.9414L176.298 95.8343C176.733 95.0442 176.475 94.0588 175.719 93.6313L172.712 91.9277C173.538 89.9887 174.101 87.9475 174.384 85.8587L177.741 85.8172C178.607 85.806 179.307 85.0718 179.307 84.1822V81.8105C179.307 80.9172 178.607 80.1953 177.741 80.1953ZM151.273 99.7227C141.599 100.082 133.504 92.5676 133.504 82.9269C133.504 73.2862 141.599 65.6684 151.273 65.9037C160.619 66.1316 167.965 73.6514 167.965 82.7065C167.965 91.7616 160.619 99.3756 151.273 99.7227Z" fill="#D8DEE8"/>
<path d="M143.398 47.1396L157.628 165.531C157.84 167.306 156.617 168.897 154.906 169.067L95.6395 175.58C92.0086 175.807 90.0206 173.95 89.7967 172.062L74.8575 46.1925C74.6346 44.3153 76.4158 42.6155 80.062 42.6155L139.869 43.8761C141.6 43.9054 143.186 45.3737 143.398 47.1396Z" fill="url(#paint4_linear_1868_7446)"/>
<path d="M146.065 46.9357L160.371 165.921C160.584 167.706 159.361 169.305 157.641 169.476L96.1979 175.599C94.271 175.791 92.5059 174.395 92.2804 172.499L77.2587 45.9769C77.0348 44.0902 78.4494 42.574 80.3965 42.6065L142.521 43.6558C144.261 43.6851 145.852 45.1613 146.065 46.9357Z" fill="url(#paint5_linear_1868_7446)"/>
<path d="M144.899 53.499L158.16 163.82C158.36 165.487 157.212 166.979 155.603 167.135L97.8173 172.758C96.0266 172.932 94.3859 171.63 94.1758 169.864L80.2923 52.9911C80.0838 51.2343 81.3974 49.8128 83.2062 49.832L141.585 50.4517C143.21 50.4692 144.699 51.8401 144.899 53.499Z" fill="url(#paint6_linear_1868_7446)"/>
<path d="M113.912 46.8538C113.988 47.4873 113.533 47.9941 112.897 47.9862C112.26 47.9782 111.681 47.4575 111.605 46.8224C111.529 46.1873 111.985 45.681 112.622 45.6906C113.26 45.7001 113.836 46.2208 113.912 46.8538Z" fill="url(#paint7_linear_1868_7446)"/>
<g style="mix-blend-mode:soft-light" opacity="0.5">
<path d="M134.908 127.553C123.078 105.659 105.406 99.1056 100.085 76.5415C97.2089 64.3448 99.1687 52.6715 102.469 42.9823L80.3976 42.6096C78.45 42.5772 77.0353 44.0934 77.2597 45.9801L92.2825 172.501C92.508 174.398 94.2732 175.793 96.2 175.601L144.5 170.787C144.856 151.166 140.181 137.313 134.908 127.553Z" fill="white"/>
</g>
<path d="M133.226 79.0044L135.874 98.1821C136.161 100.254 135.14 102.172 133.143 103.738C132.64 104.132 132.108 104.488 131.552 104.803C128.359 106.622 123.667 107.755 118.293 107.755C112.919 107.755 107.91 106.622 104.214 104.803C100.717 103.084 98.3943 100.752 98.0396 98.1826L95.3916 79.0049L133.226 79.0044Z" fill="url(#paint8_linear_1868_7446)"/>
<path style="mix-blend-mode:multiply" opacity="0.3" d="M118.297 107.755C112.926 107.755 107.912 106.622 104.216 104.803C100.72 103.083 98.395 100.751 98.0403 98.1821L96.666 88.2305C99.5294 89.3926 103.564 91.6691 104.77 95.3467C106.655 101.102 114.91 103.052 122.67 101.752C126.088 101.178 129.874 102.079 133.158 103.738C132.654 104.132 132.12 104.488 131.563 104.803C128.369 106.622 123.673 107.755 118.299 107.755" fill="url(#paint9_linear_1868_7446)"/>
<path d="M143.411 80.789L113.096 66.8972L86.6183 80.789H85.5488L85.6111 81.2415L117.154 95.6901L144.706 81.2415L144.643 80.789H143.411Z" fill="url(#paint10_linear_1868_7446)"/>
<path d="M113.004 66.2354L85.4648 80.684L116.995 95.1331L144.535 80.684L113.004 66.2354Z" fill="url(#paint11_linear_1868_7446)"/>
<path d="M147.129 100.745C146.913 100.745 146.655 100.571 146.625 100.356L144.009 81.4166C143.95 80.9907 143.661 80.6111 143.229 80.6111H114.988C114.772 80.6111 114.576 80.469 114.547 80.2544C114.517 80.0399 114.673 79.8972 114.89 79.8972H143.13C143.995 79.8972 144.792 80.56 144.91 81.4166L147.526 100.356C147.556 100.57 147.346 100.745 147.129 100.745Z" fill="url(#paint12_linear_1868_7446)"/>
<path d="M147.672 97.3021L147.247 96.7165C147.17 96.6074 147.068 96.5183 146.949 96.4565C146.831 96.3948 146.7 96.3622 146.566 96.3614C146.446 96.3594 146.327 96.3939 146.226 96.4604C146.125 96.5269 146.047 96.6223 146.001 96.7341L145.775 97.3463C145.722 97.5001 145.709 97.6651 145.737 97.8254L146.449 102.978C146.464 103.088 146.961 103.178 147.557 103.178C148.153 103.178 148.626 103.088 148.611 102.978L147.897 97.8105C147.863 97.6257 147.786 97.4514 147.672 97.3021V97.3021Z" fill="url(#paint13_linear_1868_7446)"/>
<path d="M112.427 87.8445L110.512 73.5897C110.389 72.6719 111.047 72.0564 111.735 72.4413L123.954 79.2467C124.71 79.6678 124.883 80.9811 124.244 81.4438L113.947 88.9028C113.362 89.3234 112.549 88.7564 112.427 87.8445Z" fill="white"/>
<path d="M46.5762 145.99L86.5069 144.252L132.513 145.866L87.127 155.796L46.5762 145.99Z" fill="url(#paint14_linear_1868_7446)"/>
<path d="M78.7494 184.507L46.4037 175.793C43.1462 174.916 40.6152 171.685 40.6152 168.553V168.516C40.6152 165.383 43.1462 163.281 46.4037 163.856L81.0943 169.539L78.7494 184.507Z" fill="url(#paint15_linear_1868_7446)"/>
<path d="M132.57 177.963L80.3083 183.805C77.0348 184.172 74.3438 181.889 74.3438 178.694V176.531C74.3438 173.341 77.0348 170.541 80.3083 170.28L132.57 166.12C130.257 170.427 129.723 174.459 132.57 177.963Z" fill="url(#paint16_linear_1868_7446)"/>
<path d="M133.024 178.543L80.7448 184.477C76.4753 184.961 72.9375 181.968 72.9375 177.795V177.749C72.9375 173.576 76.4753 169.905 80.7448 169.572L133.024 165.49C133.339 165.465 133.593 165.727 133.593 166.075C133.593 166.424 133.339 166.726 133.024 166.752L80.7448 171.011C77.3102 171.291 74.474 174.249 74.474 177.6V177.646C74.474 181 77.3102 183.412 80.7448 183.034L133.024 177.28C133.339 177.245 133.593 177.499 133.593 177.847C133.593 178.194 133.339 178.507 133.024 178.543Z" fill="url(#paint17_linear_1868_7446)"/>
<path d="M80.1083 169.576L46.4037 163.858C43.1462 163.282 40.6152 159.008 40.6152 154.304V154.251C40.6152 149.547 43.1462 145.814 46.4037 145.935L82.1559 147.266L80.1083 169.576Z" fill="url(#paint18_linear_1868_7446)"/>
<path d="M132.57 164.577L83.2371 168.303C78.3719 168.67 74.3438 165.092 74.3438 160.303V157.055C74.3438 152.264 78.3719 148.271 83.2371 148.141L132.57 146.794C130.25 153.249 129.731 159.295 132.57 164.577Z" fill="url(#paint19_linear_1868_7446)"/>
<path d="M133.024 165.49L80.7448 169.572C76.4753 169.905 72.9375 165.084 72.9375 158.818V158.749C72.9375 152.483 76.4753 147.297 80.7448 147.191L133.024 145.891C133.339 145.883 133.593 146.3 133.593 146.822C133.593 147.345 133.339 147.776 133.024 147.785L80.7448 149.355C77.3102 149.458 74.474 153.637 74.474 158.671V158.74C74.474 163.773 77.3102 167.66 80.7448 167.41L133.024 163.597C133.339 163.574 133.593 163.979 133.593 164.502C133.593 165.025 133.339 165.466 133.024 165.49Z" fill="url(#paint20_linear_1868_7446)"/>
<g style="mix-blend-mode:soft-light" opacity="0.5">
<path d="M69.6572 164.861L62.4529 163.601C60.7707 159.004 60.8973 154.782 62.4529 149.736L69.6572 150.248C68.1808 155.559 68.4042 160.371 69.6572 164.861Z" fill="white"/>
</g>
<path d="M78.4328 113.97V101.352H70.2552V113.97C70.256 114.57 70.0715 115.156 69.727 115.648C69.3825 116.139 68.8948 116.512 68.3305 116.716C60.8088 119.421 55.3867 126.852 55.3867 133.699C55.3867 142.27 63.8743 146.68 74.344 146.68C84.8137 146.68 93.3008 142.27 93.3008 133.699C93.3008 126.85 87.876 119.419 80.3569 116.711C79.7935 116.508 79.3064 116.135 78.962 115.645C78.6177 115.154 78.4329 114.569 78.4328 113.97Z" fill="url(#paint21_linear_1868_7446)"/>
<path d="M58.6316 127.768C57.4249 129.436 56.7441 131.321 56.7441 133.318C56.7441 140.116 64.6233 145.628 74.3431 145.628C84.0629 145.628 91.9416 140.116 91.9416 133.318C91.9416 131.321 91.2608 129.436 90.0546 127.768H58.6316Z" fill="url(#paint22_linear_1868_7446)"/>
<path d="M74.3432 129.132C83.0166 129.132 90.0478 128.521 90.0478 127.768C90.0478 127.014 83.0166 126.403 74.3432 126.403C65.6698 126.403 58.6387 127.014 58.6387 127.768C58.6387 128.521 65.6698 129.132 74.3432 129.132Z" fill="url(#paint23_linear_1868_7446)"/>
<g opacity="0.62">
<path d="M75.9852 141.039C73.8685 141.031 69.4969 141.017 66.1351 137.752C64.1008 135.775 61.5645 131.763 62.7899 128.449C64.6513 123.423 73.6877 124 74.3126 119.83C74.5972 117.934 72.7607 117.597 72.3305 114.311C71.8561 110.687 73.8462 109.249 73.8196 105.939C73.809 104.75 73.5367 103.197 72.49 101.35H70.2595V113.967C70.2604 114.569 70.0755 115.156 69.7302 115.648C69.3848 116.14 68.896 116.513 68.3305 116.716C60.8088 119.421 55.3867 126.852 55.3867 133.699C55.3867 142.27 63.8743 146.68 74.344 146.68C84.8137 146.68 93.3008 142.27 93.3008 133.699C93.3 133.206 93.2723 132.713 93.2178 132.223C90.2805 135.512 84.1415 141.066 75.9852 141.039Z" fill="white"/>
</g>
<path d="M78.0917 102.901H70.5929C70.2478 102.901 69.917 102.763 69.673 102.519C69.429 102.275 69.292 101.944 69.292 101.598V101.598C69.292 101.253 69.429 100.922 69.673 100.677C69.9169 100.433 70.2478 100.296 70.5929 100.296H78.0917C78.4368 100.296 78.7677 100.433 79.0116 100.677C79.2556 100.922 79.3926 101.253 79.3926 101.598V101.598C79.3926 101.944 79.2556 102.275 79.0116 102.519C78.7676 102.763 78.4368 102.901 78.0917 102.901V102.901Z" fill="white"/>
<path d="M131.261 98.6547C131.657 98.0484 131.88 97.3451 131.905 96.621C131.955 94.7343 130.557 93.2628 130.369 93.3475C130.268 93.3927 130.397 93.9459 130.468 94.1907C130.618 94.7008 130.779 94.7497 130.766 94.984C130.738 95.4663 130.042 95.4849 129.675 96.1249C129.41 96.5859 129.39 97.2428 129.675 97.7619C130.149 98.6238 131.216 98.6542 131.261 98.6547Z" fill="white"/>
<path d="M161.122 139.634L160.585 137.784L162.828 136.12L164.226 135.596L163.399 138.186L161.122 139.634Z" fill="url(#paint24_linear_1868_7446)"/>
<path d="M158.346 176.911C158.346 176.911 159.573 179.999 159.25 181.371C160.567 181.345 161.419 181.177 161.419 181.177C161.419 181.177 160.89 179.768 160.787 179.07C160.647 178.126 160.658 176.601 160.658 176.601L158.346 176.911Z" fill="url(#paint25_linear_1868_7446)"/>
<path d="M144.82 184.137C144.957 184.296 145.038 184.496 145.052 184.705C145.056 184.835 145.033 184.965 144.983 185.085C144.774 185.636 144.445 185.709 144.09 186.294C143.874 186.651 143.915 186.759 143.718 186.92C143.457 187.133 143.14 187.145 142.867 187.148C142.208 187.154 141.55 187.116 140.896 187.037C141.336 186.469 141.805 185.893 142.302 185.308C142.521 185.053 142.739 184.803 142.956 184.56L144.251 184.122L144.82 184.137Z" fill="#26264F"/>
<path d="M143.744 177.845C143.744 177.845 143.004 181.711 143.946 182.793C144.748 183.875 143.558 183.103 143.558 183.103L142.138 184.344L141.283 185.818C141.283 185.818 142.068 182.035 141.859 180.534C141.65 179.032 141.545 178.02 141.545 178.02L143.744 177.845Z" fill="url(#paint26_linear_1868_7446)"/>
<path d="M140.955 135.565C140.955 135.565 138.967 137.346 138.967 144.677C138.967 152.009 139.908 167.93 139.908 167.93L141.415 179.329C141.415 179.329 142.978 179.382 144.024 179.07C144.966 174.776 146.5 167.511 145.768 161.436C145.454 154.835 148.384 146.563 148.384 146.563C148.384 146.563 150.895 154.942 152.674 159.132C154.453 163.322 157.839 176.446 158.152 177.389C160.233 177.578 161.122 177.027 161.122 177.027C161.122 177.027 159.787 162.903 158.532 157.561C157.277 152.219 157.381 139.336 155.288 135.67C150.581 133.785 140.955 135.565 140.955 135.565Z" fill="url(#paint27_linear_1868_7446)"/>
<path d="M140.955 135.565C140.955 135.565 138.967 137.346 138.967 144.677C138.967 152.009 139.908 167.93 139.908 167.93L141.415 179.329C141.415 179.329 142.978 179.382 144.024 179.07C144.966 174.776 146.5 167.511 145.768 161.436C145.454 154.835 148.384 146.563 148.384 146.563C148.384 146.563 150.895 154.942 152.674 159.132C154.453 163.322 157.84 176.446 158.152 177.389C160.233 177.578 161.122 177.027 161.122 177.027C161.122 177.027 159.787 162.903 158.532 157.561C157.277 152.219 157.381 139.336 155.288 135.67C150.581 133.785 140.955 135.565 140.955 135.565Z" fill="url(#paint28_linear_1868_7446)"/>
<path style="mix-blend-mode:multiply" opacity="0.25" d="M151.282 148.999C151.902 153.033 153.144 155.204 156.241 157.996C158.721 159.859 156.861 163.891 157.791 166.993C158.101 167.924 159.031 168.857 159.341 169.786C160.494 172.095 159.417 174.919 159.94 177.364C160.754 177.252 161.123 177.025 161.123 177.025C161.123 177.025 159.788 162.901 158.533 157.559C157.278 152.217 157.382 139.334 155.289 135.668C150.58 133.783 140.954 135.561 140.954 135.561C140.954 135.561 138.966 137.342 138.966 144.673C138.966 145.269 138.972 145.921 138.983 146.616C141.047 148.444 145.269 148.852 147.872 146.823C148.019 146.712 148.189 146.635 148.369 146.598C148.377 146.575 148.383 146.559 148.383 146.559L148.394 146.595C149.58 146.382 151.013 147.923 151.282 148.999Z" fill="url(#paint29_linear_1868_7446)"/>
<path d="M158.927 182.543C158.927 182.543 158.621 182.543 158.647 182.939C158.673 183.335 158.509 184.696 160.064 184.758C161.618 184.82 161.858 184.648 161.909 184.648C161.96 184.648 161.501 183.347 161.501 183.347L161.004 182.708L159.666 182.568L158.927 182.543Z" fill="#26264F"/>
<path d="M162.374 183.908C162.341 183.58 162.157 183.063 161.973 182.647C161.698 182.029 161.923 181.795 161.661 181.235C161.571 181.04 161.482 180.856 161.289 180.673C161.245 180.631 160.815 180.234 160.191 180.254C160.012 180.252 159.834 180.294 159.674 180.376C159.433 180.504 159.313 180.695 159.209 180.866C159.05 181.133 159.084 181.215 158.837 181.979C158.795 182.102 158.763 182.229 158.739 182.357C158.718 182.469 158.705 182.582 158.698 182.696C159.106 182.696 160.673 182.76 161.004 183.003C161.336 183.246 161.501 183.653 161.501 184.061C161.501 184.469 161.705 184.661 161.909 184.647C162.091 184.637 162.453 184.299 162.374 183.908Z" fill="#444B8C"/>
<path d="M143.546 182.251C143.896 182.256 144.152 182.535 144.346 183.209C144.54 183.883 145.47 184.476 144.385 184.334C143.3 184.191 142.512 185.73 142.125 186.299C141.738 186.868 140.697 187.374 140.723 186.817C140.749 186.261 141.208 186.002 141.337 185.433C141.466 184.864 142.747 182.237 143.546 182.251Z" fill="#444B8C"/>
<path d="M161.946 136.45C162.203 135.733 163.81 131.027 161.213 126.735C159.085 123.222 155.408 122.075 154.884 121.92C151.693 120.976 150.091 122.186 149.083 121.073C147.374 119.179 149.31 112.728 153.056 111.437C157.278 109.981 162.343 115.581 164.396 119.26C167.089 124.086 166.426 128.882 166.271 129.87C165.948 131.889 165.255 133.831 164.227 135.597L161.946 136.45Z" fill="url(#paint30_linear_1868_7446)"/>
<path d="M150.92 110.526C147.151 110.374 144.244 110.435 142.602 112.077C140.868 113.811 142.621 115.77 142.244 120.308C141.668 127.255 137.245 128.953 136.912 136.001C136.83 137.849 137.033 139.698 137.513 141.484C138.484 142.694 140.073 144.402 142.417 145.829C145.829 147.906 147.808 147.545 152.707 148.887C160.722 151.083 161.435 153.698 165.409 153.032C169.425 152.358 172.948 148.975 172.523 147.117C172.268 146.004 170.649 146.319 168.785 144.622C166.382 142.435 167.309 140.347 165.483 137.997C162.859 134.621 159.204 136.685 156.968 133.759C154.706 130.799 155.603 124.967 157.509 121.788C158.755 119.712 159.288 117.278 160.348 115.101C160.477 114.838 160.528 114.543 160.493 114.253C160.321 112.834 157.96 112.065 156.171 111.501C153.443 110.642 151.228 110.54 150.92 110.526Z" fill="url(#paint31_linear_1868_7446)"/>
<path d="M147.745 110.37L148.49 110.141C148.49 110.141 148.684 111.148 151.074 111.274C151.865 111.274 152.633 111.012 153.259 110.528L153.767 110.901C153.767 110.901 152.65 112.294 150.88 112.259C148.591 112.213 147.745 110.37 147.745 110.37Z" fill="url(#paint32_linear_1868_7446)"/>
<path d="M149.261 107.305C149.404 106.198 150.277 105.49 150.468 105.335C151.266 104.7 151.429 104.636 151.703 104.584L152.075 104.527H152.116C152.335 104.541 152.992 104.797 153.112 104.881C153.493 105.148 153.212 107.052 152.056 109.418C152.01 109.618 151.965 109.819 151.919 110.019C152.93 110.197 153.177 110.379 153.185 110.524C153.202 110.839 152.098 111.241 151.075 111.269C149.792 111.302 148.43 110.75 148.456 110.337C148.467 110.17 148.709 109.964 149.64 109.762C149.786 109.557 149.932 109.352 150.077 109.148C149.946 108.989 149.154 108.12 149.261 107.305Z" fill="white"/>
<path d="M150.845 106.888C151.136 106.714 151.358 107.089 151.221 107.417C151.084 107.744 150.623 107.949 150.344 107.754C150.065 107.558 150.453 107.123 150.845 106.888Z" fill="white"/>
<path d="M183.493 107.332C180.537 104.67 174.607 105.274 170.875 107.205C167.924 108.732 167.43 110.59 164.685 110.746C162.622 110.863 159.34 110.086 157.612 107.849C157.394 107.567 156.523 106.385 155.215 104.894C154.638 104.237 154.065 103.62 153.176 103.48C152.95 103.445 152.199 103.321 151.702 103.808C151.3 104.202 151.201 104.886 151.32 105.379C151.391 105.674 151.484 105.705 151.47 105.898C151.434 106.441 150.446 106.677 150.501 106.95C150.541 107.145 151.054 107.074 151.143 107.319C151.24 107.585 150.676 107.819 150.433 108.494C149.979 108.798 149.692 109.555 149.593 110.57C149.447 112.061 149.597 113.27 149.878 114.181C151.474 119.331 152.266 121.907 154.559 123.461C157.05 125.152 159.859 125.03 162.104 124.933C165.412 124.79 165.978 123.831 168.844 123.466C174.817 122.706 176.85 126.299 179.979 125.226C184.957 123.516 188.167 111.542 183.493 107.332Z" fill="url(#paint33_linear_1868_7446)"/>
<path d="M131.719 98.3906C131.622 99.2956 131.293 103.313 134.062 106.704C136.647 109.871 140.308 110.504 140.989 110.607C144.281 111.105 145.701 109.685 146.851 110.653C148.803 112.295 147.766 118.95 144.232 120.742C140.248 122.765 134.465 117.908 131.93 114.545C128.603 110.134 128.604 105.291 128.624 104.291C128.667 102.247 129.088 100.229 129.866 98.3384C130.473 98.1554 131.123 98.1741 131.719 98.3917V98.3906Z" fill="url(#paint34_linear_1868_7446)"/>
<path style="mix-blend-mode:multiply" opacity="0.3" d="M165.529 150.378C164.566 149.388 165.626 147.396 164.203 145.911C162.881 144.535 161.384 145.645 159.257 144.463C156.529 142.944 157.281 140.163 154.675 138.669C152.801 137.594 151.921 138.749 149.007 138.186C146.094 137.623 142.559 135.615 140.81 132.03C140.147 130.658 139.787 129.16 139.756 127.637C138.448 129.976 137.091 132.215 136.912 136.001C136.83 137.849 137.033 139.698 137.513 141.484C138.484 142.694 140.073 144.402 142.417 145.83C145.829 147.906 147.808 147.545 152.707 148.887C160.722 151.083 161.435 153.698 165.409 153.032C167.975 152.601 170.336 151.062 171.598 149.526C167.894 151.177 166.229 151.095 165.529 150.378Z" fill="url(#paint35_linear_1868_7446)"/>
</g>

</svg>
