<svg width="250" height="250" viewBox="0 0 250 250" fill="none" xmlns="http://www.w3.org/2000/svg">
<path d="M250 191.2H0V191.325H250V191.2Z" fill="#EBEBEB"/>
<path d="M222.63 196.925H197.18V197.05H222.63V196.925Z" fill="#EBEBEB"/>
<path d="M49.835 195.445H26.23V195.57H49.835V195.445Z" fill="#EBEBEB"/>
<path d="M199 194.605H189.405V194.73H199V194.605Z" fill="#EBEBEB"/>
<path d="M165.61 197.92H158.57V198.045H165.61V197.92Z" fill="#EBEBEB"/>
<path d="M154.115 197.92H136.395V198.045H154.115V197.92Z" fill="#EBEBEB"/>
<path d="M126.105 195.81H97.61V195.935H126.105V195.81Z" fill="#EBEBEB"/>
<path d="M118.5 168.9H21.955C21.1987 168.899 20.4738 168.597 19.9394 168.062C19.4051 167.527 19.105 166.801 19.105 166.045V30.33C19.1116 29.578 19.4146 28.859 19.9482 28.3291C20.4818 27.7992 21.203 27.5013 21.955 27.5H118.5C119.257 27.5 119.983 27.8008 120.519 28.3362C121.054 28.8716 121.355 29.5978 121.355 30.355V166.045C121.355 166.802 121.054 167.528 120.519 168.064C119.983 168.599 119.257 168.9 118.5 168.9ZM21.955 27.6C21.2318 27.6013 20.5387 27.8895 20.0278 28.4014C19.5169 28.9132 19.23 29.6068 19.23 30.33V166.045C19.23 166.768 19.5169 167.462 20.0278 167.974C20.5387 168.485 21.2318 168.774 21.955 168.775H118.5C119.224 168.774 119.917 168.486 120.429 167.974C120.941 167.462 121.229 166.769 121.23 166.045V30.33C121.229 29.6064 120.941 28.9127 120.429 28.4011C119.917 27.8894 119.224 27.6013 118.5 27.6H21.955Z" fill="#EBEBEB"/>
<path d="M226.655 168.9H130.105C129.348 168.899 128.623 168.597 128.088 168.062C127.553 167.527 127.251 166.802 127.25 166.045V30.33C127.258 29.5776 127.562 28.8585 128.096 28.3288C128.631 27.7991 129.353 27.5013 130.105 27.5H226.655C227.406 27.5026 228.126 27.8011 228.659 28.3309C229.191 28.8606 229.493 29.5789 229.5 30.33V166.045C229.5 166.8 229.201 167.525 228.667 168.06C228.134 168.595 227.41 168.897 226.655 168.9ZM130.105 27.6C129.381 27.6013 128.688 27.8894 128.176 28.4011C127.664 28.9127 127.376 29.6064 127.375 30.33V166.045C127.376 166.769 127.664 167.462 128.176 167.974C128.688 168.486 129.381 168.774 130.105 168.775H226.655C227.379 168.774 228.072 168.486 228.584 167.974C229.096 167.462 229.384 166.769 229.385 166.045V30.33C229.384 29.6064 229.096 28.9127 228.584 28.4011C228.072 27.8894 227.379 27.6013 226.655 27.6H130.105Z" fill="#EBEBEB"/>
<path d="M195.185 42.835H144.285V191.2H195.185V42.835Z" fill="#EBEBEB"/>
<path d="M191.75 188.2V45.835H147.72V188.2H191.75Z" fill="#FAFAFA"/>
<path d="M142.76 42.835H91.86V191.2H142.76V42.835Z" fill="#EBEBEB"/>
<path d="M142.76 190.62H144.285L144.285 43.42H142.76L142.76 190.62Z" fill="#E0E0E0"/>
<path d="M139.325 188.195V45.83H95.295V188.195H139.325Z" fill="#FAFAFA"/>
<path d="M218.435 41.72H68.61C68.434 41.7187 68.2657 41.6482 68.1412 41.5238C68.0168 41.3994 67.9463 41.231 67.945 41.055C67.9463 40.8791 68.0168 40.7107 68.1412 40.5862C68.2657 40.4618 68.434 40.3913 68.61 40.39H218.435C218.611 40.3913 218.779 40.4618 218.904 40.5862C219.028 40.7107 219.099 40.8791 219.1 41.055C219.099 41.231 219.028 41.3994 218.904 41.5238C218.779 41.6482 218.611 41.7187 218.435 41.72Z" fill="#E0E0E0"/>
<path d="M191.75 48.67V45.835H147.72V48.67H191.75Z" fill="#E0E0E0"/>
<path d="M191.75 50.61V45.83H147.72V50.61H191.75Z" fill="#E0E0E0"/>
<path d="M139.325 56.275V45.83H95.295V56.275H139.325Z" fill="#E0E0E0"/>
<g opacity="0.8">
<path d="M201.72 37.28H187.62V189.375H201.72V37.28Z" fill="#F5F5F5"/>
<path d="M198 37.28H191.345V189.375H198V37.28Z" fill="#F0F0F0"/>
<path d="M209.285 37.28H195.185V189.375H209.285V37.28Z" fill="#F5F5F5"/>
<path d="M205.565 37.28H198.91V189.375H205.565V37.28Z" fill="#F0F0F0"/>
<path d="M216.335 37.28H202.235V189.375H216.335V37.28Z" fill="#F5F5F5"/>
</g>
<g opacity="0.8">
<path d="M90.73 37.28H70.265V189.375H90.73V37.28Z" fill="#F5F5F5"/>
<path d="M85.325 37.28H75.665V189.375H85.325V37.28Z" fill="#F0F0F0"/>
<path d="M101.705 37.28H81.24V189.375H101.705V37.28Z" fill="#F5F5F5"/>
<path d="M96.3 37.28H86.64V189.375H96.3V37.28Z" fill="#F0F0F0"/>
<path d="M111.935 37.28H91.47V189.375H111.935V37.28Z" fill="#F5F5F5"/>
</g>
<path d="M60.55 52.865H27.535V127.2H60.55V52.865Z" fill="#F0F0F0"/>
<path d="M60.55 127.205H61.59L61.59 52.87H60.55L60.55 127.205Z" fill="#E6E6E6"/>
<path d="M57.55 124.2L57.55 55.865H30.535L30.535 124.2H57.55Z" fill="#FAFAFA"/>
<path d="M62.63 164.035H28.74C27.9947 164.034 27.2802 163.737 26.7527 163.211C26.2252 162.684 25.9276 161.97 25.925 161.225C25.9276 160.48 26.2252 159.766 26.7527 159.239C27.2802 158.713 27.9947 158.416 28.74 158.415H62.63C63.3744 158.418 64.0876 158.715 64.614 159.241C65.1405 159.767 65.4374 160.481 65.44 161.225C65.4374 161.969 65.1405 162.683 64.614 163.209C64.0876 163.736 63.3744 164.032 62.63 164.035Z" fill="#F5F5F5"/>
<path d="M36.89 164.035H31.325L25 191.2H30.56L36.89 164.035Z" fill="#E6E6E6"/>
<path d="M47.99 164.035H42.43L39.315 191.2H44.875L47.99 164.035Z" fill="#E6E6E6"/>
<path d="M54.48 164.035H60.04L66.37 191.2H60.805L54.48 164.035Z" fill="#E6E6E6"/>
<path d="M125 213.78C178.541 213.78 221.945 211.246 221.945 208.12C221.945 204.994 178.541 202.46 125 202.46C71.4587 202.46 28.055 204.994 28.055 208.12C28.055 211.246 71.4587 213.78 125 213.78Z" fill="#F5F5F5"/>
<path d="M157.285 149.18H114.62C113.811 149.18 113.155 149.836 113.155 150.645V152.325C113.155 153.134 113.811 153.79 114.62 153.79H157.285C158.094 153.79 158.75 153.134 158.75 152.325V150.645C158.75 149.836 158.094 149.18 157.285 149.18Z" fill="#263238"/>
<path d="M156.88 205.12H158.75L156.6 153.79H154.01L156.88 205.12Z" fill="#00677D"/>
<path opacity="0.6" d="M156.88 205.12H158.75L156.6 153.79H154.01L156.88 205.12Z" fill="white"/>
<path d="M139.665 205.12H137.795L139.945 153.79H142.535L139.665 205.12Z" fill="#00677D"/>
<path opacity="0.6" d="M139.665 205.12H137.795L139.945 153.79H142.535L139.665 205.12Z" fill="white"/>
<path d="M132.245 205.12H134.115L131.96 153.79H129.375L132.245 205.12Z" fill="#00677D"/>
<path opacity="0.6" d="M132.245 205.12H134.115L131.96 153.79H129.375L132.245 205.12Z" fill="white"/>
<path d="M115.025 205.12H113.155L115.31 153.79H117.895L115.025 205.12Z" fill="#00677D"/>
<path opacity="0.6" d="M115.025 205.12H113.155L115.31 153.79H117.895L115.025 205.12Z" fill="white"/>
<g opacity="0.3">
<path d="M156.6 153.785H154.01L154.13 155.97H156.69L156.6 153.785Z" fill="#00677D"/>
<path d="M139.855 155.97H142.41L142.535 153.785H139.945L139.855 155.97Z" fill="#00677D"/>
<path d="M129.375 153.785L129.495 155.97H132.055L131.96 153.785H129.375Z" fill="#00677D"/>
<path d="M115.215 155.97H117.78L117.9 153.785H115.31L115.215 155.97Z" fill="#00677D"/>
</g>
<path d="M131.04 197.575L126.81 199.825L120.14 190.82L124.375 188.57L131.04 197.575Z" fill="#FFB573"/>
<path d="M125.28 198.435L129.7 195.365C129.736 195.334 129.778 195.311 129.824 195.298C129.869 195.284 129.917 195.281 129.964 195.287C130.012 195.293 130.057 195.309 130.097 195.333C130.138 195.358 130.173 195.391 130.2 195.43L132.845 198.775C132.972 198.959 133.022 199.186 132.984 199.407C132.945 199.628 132.822 199.824 132.64 199.955C131.085 200.995 130.385 201.36 128.35 202.57C127.095 203.31 124.095 205.07 122.25 205.875C120.405 206.68 119.665 204.83 120.375 204.325C122.06 203.135 124.29 200.795 124.795 199.15C124.873 198.865 125.044 198.613 125.28 198.435Z" fill="#263238"/>
<path opacity="0.2" d="M124.38 188.575L120.14 190.82L123.355 195.16L127.495 192.78L124.38 188.575Z" fill="black"/>
<path d="M134.595 135.235C134.595 135.235 101.725 134.21 101.595 147.945C101.435 167.685 120.17 193.61 120.17 193.61L127.5 188.735C127.5 188.735 114.66 169.89 114.55 154.48C124.235 151.745 147.05 153.48 150.005 145.43C152.425 138.86 151.16 135.235 151.16 135.235H134.595Z" fill="#00677D"/>
<path opacity="0.2" d="M134.595 135.235C134.595 135.235 101.725 134.21 101.595 147.945C101.435 167.685 120.17 193.61 120.17 193.61L127.5 188.735C127.5 188.735 114.66 169.89 114.55 154.48C124.235 151.745 147.05 153.48 150.005 145.43C152.425 138.86 151.16 135.235 151.16 135.235H134.595Z" fill="black"/>
<path d="M129.49 189.99L120.77 195.33L118.035 192.555L127.615 186.52L129.49 189.99Z" fill="#263238"/>
<path d="M124.365 200.09C124.714 199.838 125.033 199.546 125.315 199.22C125.33 199.204 125.34 199.184 125.343 199.163C125.347 199.141 125.344 199.119 125.335 199.099C125.325 199.079 125.311 199.063 125.292 199.051C125.273 199.04 125.252 199.034 125.23 199.035C125.045 199.035 123.405 199.035 123.055 199.57C123.015 199.63 122.991 199.699 122.985 199.771C122.978 199.842 122.991 199.914 123.02 199.98C123.053 200.084 123.113 200.177 123.194 200.25C123.275 200.323 123.373 200.373 123.48 200.395C123.802 200.406 124.118 200.297 124.365 200.09ZM124.97 199.265C124.365 199.895 123.83 200.23 123.52 200.175C123.451 200.16 123.387 200.125 123.335 200.076C123.284 200.027 123.248 199.964 123.23 199.895C123.211 199.865 123.202 199.83 123.202 199.795C123.202 199.76 123.211 199.725 123.23 199.695C123.43 199.415 124.315 199.29 124.97 199.265Z" fill="#00677D"/>
<path d="M125.295 199.24C125.309 199.229 125.321 199.216 125.33 199.2C125.34 199.183 125.345 199.164 125.345 199.145C125.345 199.126 125.34 199.107 125.33 199.09C125.3 199.04 124.6 197.85 123.94 197.74C123.851 197.723 123.759 197.727 123.672 197.752C123.586 197.777 123.506 197.823 123.44 197.885C123.365 197.941 123.31 198.021 123.285 198.111C123.259 198.202 123.265 198.298 123.3 198.385C123.51 198.885 124.665 199.29 125.22 199.255L125.295 199.24ZM123.65 198C123.686 197.973 123.727 197.954 123.771 197.944C123.815 197.933 123.861 197.932 123.905 197.94C124.3 198.005 124.78 198.63 125.03 199.01C124.485 198.96 123.665 198.61 123.53 198.285C123.505 198.225 123.49 198.14 123.615 198.03C123.625 198.04 123.635 198.025 123.65 198Z" fill="#00677D"/>
<path d="M123.215 203.095L118.465 202.87L117.685 191.655L122.435 191.88L123.215 203.095Z" fill="#FFB573"/>
<path d="M118.355 202.06L123.73 201.89C123.821 201.883 123.911 201.912 123.98 201.971C124.049 202.03 124.092 202.114 124.1 202.205L124.495 206.45C124.503 206.675 124.422 206.893 124.269 207.058C124.116 207.223 123.905 207.321 123.68 207.33C121.81 207.33 120.91 207.275 118.545 207.33C117.09 207.375 114.23 207.59 112.235 207.33C110.24 207.07 110.545 205.115 111.41 205.04C113.465 204.875 116.22 203.455 117.54 202.35C117.772 202.166 118.059 202.064 118.355 202.06Z" fill="#263238"/>
<path d="M116.685 202.945C117.115 202.922 117.541 202.852 117.955 202.735C117.976 202.73 117.995 202.718 118.009 202.702C118.023 202.686 118.033 202.666 118.036 202.645C118.039 202.624 118.036 202.602 118.027 202.582C118.018 202.563 118.003 202.546 117.985 202.535C117.83 202.435 116.445 201.535 115.87 201.795C115.804 201.824 115.747 201.869 115.703 201.925C115.66 201.982 115.631 202.049 115.62 202.12C115.59 202.225 115.589 202.336 115.616 202.441C115.644 202.546 115.698 202.643 115.775 202.72C116.039 202.907 116.364 202.988 116.685 202.945ZM117.64 202.585C116.79 202.78 116.14 202.775 115.93 202.56C115.881 202.508 115.847 202.444 115.83 202.375C115.813 202.306 115.815 202.233 115.835 202.165C115.839 202.13 115.853 202.097 115.874 202.069C115.895 202.041 115.923 202.019 115.955 202.005C116.265 201.87 117.075 202.245 117.64 202.585Z" fill="#00677D"/>
<path d="M117.93 202.74C117.946 202.745 117.964 202.745 117.98 202.74C117.996 202.731 118.01 202.718 118.02 202.702C118.029 202.687 118.035 202.669 118.035 202.65C118.035 202.59 118.105 201.21 117.605 200.76C117.54 200.697 117.46 200.652 117.373 200.627C117.285 200.603 117.193 200.6 117.105 200.62C117.009 200.625 116.918 200.663 116.847 200.726C116.775 200.79 116.727 200.876 116.71 200.97C116.615 201.47 117.36 202.47 117.845 202.74C117.873 202.749 117.902 202.749 117.93 202.74ZM117.215 200.82C117.259 200.817 117.303 200.824 117.345 200.84C117.386 200.855 117.424 200.879 117.455 200.91C117.755 201.18 117.815 201.965 117.82 202.41C117.39 202.07 116.89 201.33 116.955 200.985C116.955 200.92 117 200.84 117.16 200.815L117.215 200.82Z" fill="#00677D"/>
<path opacity="0.2" d="M122.44 191.88L117.685 191.655L118.13 198.07L122.87 198.065L122.44 191.88Z" fill="black"/>
<path d="M146.285 135.235C146.285 135.235 111.895 138.485 113.145 148.84C114.955 163.77 115.845 195.95 115.845 195.95L124.61 196.295C124.61 196.295 128.325 167.295 126.405 151.98C135.305 151.98 157.095 152.62 159.08 147.26C160.835 142.52 160.21 135.26 160.21 135.26L146.285 135.235Z" fill="#00677D"/>
<path d="M125.58 196.835L115.06 196.315L114.68 191.735L126.22 192.53L125.58 196.835Z" fill="#263238"/>
<path d="M138.655 104.905C138.59 105.745 138.525 106.475 138.43 107.245C138.335 108.015 138.235 108.745 138.115 109.525C137.88 111.025 137.58 112.525 137.23 114.06C136.548 117.232 135.44 120.296 133.935 123.17C133.486 123.977 132.969 124.745 132.39 125.465C131.743 126.278 130.978 126.989 130.12 127.575C128.47 128.671 126.562 129.316 124.585 129.445C122.854 129.558 121.117 129.389 119.44 128.945C118.649 128.743 117.871 128.492 117.11 128.195C116.73 128.05 116.36 127.89 115.995 127.695C115.63 127.5 115.29 127.34 114.87 127.115L116.185 123.77L117.14 123.89L118.14 123.99C118.81 124.045 119.47 124.08 120.14 124.08C121.355 124.101 122.567 123.961 123.745 123.665C124.689 123.439 125.563 122.984 126.29 122.34C126.602 122.048 126.88 121.723 127.12 121.37C127.415 120.915 127.679 120.441 127.91 119.95C128.439 118.803 128.872 117.614 129.205 116.395C129.585 115.13 129.89 113.805 130.165 112.455C130.44 111.105 130.665 109.74 130.89 108.365L131.185 106.295C131.275 105.615 131.375 104.885 131.44 104.295L138.655 104.905Z" fill="#FFB573"/>
<path d="M138.685 100.83C135.185 97.435 130.835 99.44 129.105 105.83C128.126 109.241 127.457 112.734 127.105 116.265L138.24 118.565C140.265 112.47 142.285 104.31 138.685 100.83Z" fill="#263238"/>
<path opacity="0.3" d="M135.1 107.78C135.895 107.065 138.155 110.28 139.535 114.245C139.145 115.745 138.7 117.19 138.245 118.545L131.545 117.16C132.08 113.2 133.315 109.39 135.1 107.78Z" fill="black"/>
<path d="M115.43 122.27L112.93 121.315L112.82 126.62C112.82 126.62 117.02 128.435 117.875 126.35L117.575 125.025C117.43 124.441 117.165 123.894 116.795 123.42C116.426 122.945 115.961 122.553 115.43 122.27Z" fill="#FFB573"/>
<path d="M109.98 121.455L108.505 125.905L112.84 126.62L112.95 121.315L109.98 121.455Z" fill="#FFB573"/>
<path d="M113.76 125C113.707 125.001 113.655 124.987 113.61 124.959C113.565 124.932 113.529 124.892 113.505 124.845L109.04 116.25C109.005 116.182 108.997 116.103 109.02 116.03C109.042 115.957 109.093 115.896 109.16 115.86C109.229 115.826 109.308 115.821 109.38 115.844C109.453 115.867 109.514 115.918 109.55 115.985L114 124.565C114.035 124.633 114.043 124.712 114.02 124.785C113.998 124.858 113.947 124.919 113.88 124.955C113.843 124.978 113.803 124.993 113.76 125Z" fill="#263238"/>
<path d="M138.27 97.4251L143.61 95.9251L150.47 95.6051C151.512 95.5551 152.541 95.8491 153.4 96.4418C154.258 97.0345 154.898 97.893 155.22 98.8851C156.525 102.885 157.72 108.645 158.605 113.63C159.605 119.225 160.105 127.63 160.21 135.26H134.595C134.01 119.335 131.985 109.92 131.095 104.71C130.918 103.689 131.08 102.638 131.556 101.718C132.033 100.797 132.799 100.059 133.735 99.6151L138.27 97.4251Z" fill="#263238"/>
<path opacity="0.3" d="M158.605 113.61C157.915 109.685 157.025 105.265 156.035 101.61C151.47 100.84 149.26 110.85 150.615 115.815C151.97 120.78 159.195 117.77 159.195 117.77C159.025 116.275 158.825 114.87 158.605 113.61Z" fill="black"/>
<path d="M142.7 85.5C143.8 88.2 143.14 93.15 140.97 91.75C138.8 90.35 142.03 83.86 142.7 85.5Z" fill="#263238"/>
<path d="M141.5 87.2301L139.425 90.4001L136.605 94.7151C136.969 95.0843 137.264 95.5162 137.475 95.9901C137.975 97.0301 138.42 97.8051 136.235 99.2951C136 99.4456 135.814 99.6604 135.698 99.914C135.582 100.167 135.541 100.449 135.58 100.725C135.71 101.4 136.38 102.055 138.735 101.64C141.005 101.206 143.076 100.056 144.645 98.3601C145.43 97.5751 145.25 96.9851 144.495 96.1701C142.335 93.8701 141.695 90.1951 141.5 87.2301Z" fill="#FFB573"/>
<path opacity="0.2" d="M137.28 93.6501L139.01 90.5751C139.047 90.6551 139.087 90.7401 139.13 90.8301C139.284 91.2098 139.407 91.601 139.5 92.0001C139.815 93.3651 138.755 95.3151 137.59 96.2451L137.455 95.9801C137.245 95.5373 136.976 95.1252 136.655 94.7551C136.635 94.7347 136.611 94.7178 136.585 94.7051L137.28 93.6501Z" fill="black"/>
<path d="M126.895 83.5C126.25 84.955 128.535 89.075 131.15 87.41C133.765 85.745 128.035 80.925 126.895 83.5Z" fill="#263238"/>
<path d="M139.5 102.525C139.466 102.526 139.432 102.514 139.405 102.492C139.379 102.47 139.361 102.439 139.355 102.405C139.165 101.17 138.355 100.405 137.44 99.4751C136.28 98.3401 134.965 97.0501 134.535 94.5251C134.528 94.488 134.537 94.4498 134.558 94.4188C134.58 94.3879 134.613 94.3668 134.65 94.3601C134.687 94.3535 134.725 94.3619 134.756 94.3834C134.787 94.405 134.808 94.438 134.815 94.4751C135.235 96.9101 136.515 98.1651 137.64 99.2701C138.565 100.175 139.435 101.03 139.64 102.36C139.644 102.379 139.643 102.398 139.639 102.417C139.635 102.436 139.627 102.453 139.616 102.469C139.604 102.484 139.59 102.497 139.574 102.507C139.557 102.516 139.539 102.523 139.52 102.525H139.5Z" fill="white"/>
<path d="M140.565 82.035C141.565 86.565 142.345 89.17 140.73 92.035C138.29 96.37 132.19 95.78 129.87 91.61C127.78 87.86 126.535 81.08 130.42 78.155C131.289 77.5088 132.308 77.0924 133.381 76.9445C134.453 76.7965 135.546 76.9218 136.558 77.3087C137.57 77.6957 138.467 78.3317 139.168 79.1579C139.868 79.9841 140.349 80.9737 140.565 82.035Z" fill="#FFB573"/>
<path d="M141.91 85.145C140.35 87.36 136.26 83.295 136.595 80.565C132.535 82.875 128.125 85.96 125.45 83.36C122.36 80.36 123.205 76.06 126.825 75.675C126.185 76.925 129.825 77.48 131.76 75.55C135.035 72.31 140.21 72.985 140.115 75.61C142.61 74.62 145.335 80.28 141.91 85.145Z" fill="#263238"/>
<path d="M139.635 76.3451C140.6 75.6251 139.96 73.0601 137.72 72.3101C139.85 72.5851 142.055 74.1701 139.635 76.3451Z" fill="#263238"/>
<path d="M143.355 84.945C143.398 85.9808 143.06 86.9965 142.405 87.8C141.545 88.825 140.22 88.01 139.905 86.73C139.63 85.585 139.985 83.81 141.115 83.26C142.245 82.71 143.295 83.655 143.355 84.945Z" fill="#FFB573"/>
<path d="M134.065 85.7101C134.185 86.0751 134.095 86.4451 133.855 86.5301C133.615 86.6151 133.355 86.3901 133.21 86.0301C133.065 85.6701 133.18 85.2951 133.42 85.2051C133.66 85.1151 133.945 85.3401 134.065 85.7101Z" fill="#263238"/>
<path d="M129.965 87.21C130.09 87.58 129.995 87.9501 129.755 88.0351C129.515 88.1201 129.23 87.8951 129.11 87.5351C128.99 87.1751 129.085 86.8 129.32 86.715C129.555 86.63 129.845 86.845 129.965 87.21Z" fill="#263238"/>
<path d="M131.37 87C131.386 88.0937 131.259 89.1847 130.99 90.245C131.725 90.515 132.535 89.88 132.535 89.88L131.37 87Z" fill="#ED893E"/>
<path d="M133.565 91.9151C133.991 91.7752 134.384 91.5501 134.72 91.2535C135.056 90.957 135.328 90.5952 135.52 90.1901C135.532 90.1622 135.532 90.1309 135.521 90.1028C135.51 90.0747 135.488 90.0522 135.46 90.0401C135.431 90.03 135.4 90.031 135.372 90.0431C135.344 90.0552 135.322 90.0773 135.31 90.1051C135.095 90.5418 134.783 90.9232 134.397 91.2197C134.011 91.5162 133.562 91.72 133.085 91.8151C133.069 91.8171 133.054 91.8223 133.041 91.8304C133.027 91.8385 133.016 91.8493 133.006 91.8621C132.997 91.8749 132.991 91.8895 132.987 91.9049C132.984 91.9203 132.984 91.9362 132.987 91.9517C132.99 91.9672 132.996 91.9818 133.005 91.9948C133.014 92.0077 133.026 92.0187 133.039 92.027C133.053 92.0353 133.068 92.0407 133.083 92.043C133.099 92.0452 133.115 92.0442 133.13 92.0401C133.278 92.0081 133.423 91.9663 133.565 91.9151Z" fill="#263238"/>
<path d="M134.44 84.1201C134.475 84.1036 134.504 84.0776 134.525 84.0451C134.557 83.9939 134.568 83.9322 134.555 83.8732C134.541 83.8143 134.506 83.7629 134.455 83.7301C134.159 83.5305 133.819 83.4069 133.464 83.3702C133.109 83.3336 132.75 83.3851 132.42 83.5201C132.392 83.5324 132.368 83.5502 132.347 83.5724C132.326 83.5946 132.31 83.6207 132.3 83.6492C132.29 83.6777 132.285 83.7079 132.287 83.7381C132.289 83.7684 132.297 83.7979 132.31 83.8251C132.337 83.8791 132.384 83.9204 132.441 83.94C132.498 83.9597 132.561 83.9561 132.615 83.9301C132.876 83.8294 133.157 83.7932 133.435 83.8246C133.712 83.8559 133.978 83.9538 134.21 84.1101C134.243 84.1334 134.283 84.1467 134.324 84.1485C134.364 84.1502 134.405 84.1404 134.44 84.1201Z" fill="#263238"/>
<path d="M129.155 84.84C129.165 84.8023 129.165 84.7628 129.155 84.725C129.131 84.6696 129.086 84.6259 129.03 84.6035C128.973 84.581 128.911 84.5816 128.855 84.605C128.522 84.7341 128.226 84.9437 127.994 85.2151C127.762 85.4864 127.601 85.8111 127.525 86.16C127.515 86.2191 127.529 86.2796 127.564 86.3284C127.598 86.3771 127.651 86.4101 127.71 86.42C127.769 86.43 127.83 86.4161 127.878 86.3814C127.927 86.3467 127.96 86.294 127.97 86.235C128.035 85.9624 128.166 85.7097 128.35 85.4989C128.535 85.2881 128.768 85.1254 129.03 85.025C129.065 85.0074 129.095 84.9811 129.116 84.9487C129.138 84.9164 129.152 84.8789 129.155 84.84Z" fill="#263238"/>
<path d="M154.335 99C154.835 99.81 155.235 100.54 155.65 101.32C156.065 102.1 156.465 102.86 156.855 103.64C157.645 105.195 158.355 106.795 159.045 108.425C159.735 110.055 160.34 111.735 160.86 113.485C161.429 115.322 161.811 117.211 162 119.125C162.101 120.242 162.062 121.367 161.885 122.475C161.771 123.206 161.548 123.915 161.225 124.58C160.85 125.331 160.33 126.001 159.695 126.55C159.123 127.047 158.47 127.443 157.765 127.72C157.173 127.953 156.558 128.12 155.93 128.22C154.87 128.386 153.793 128.414 152.725 128.305C151.772 128.224 150.826 128.072 149.895 127.85C149.006 127.648 148.129 127.401 147.265 127.11C145.568 126.548 143.919 125.849 142.335 125.02L143.6 121.655C146.71 122.245 150.05 122.79 152.855 122.62C153.468 122.588 154.076 122.484 154.665 122.31C155.165 122.16 155.42 121.935 155.4 121.865C155.38 121.795 155.37 121.865 155.36 121.815C155.35 121.765 155.36 121.76 155.36 121.505C155.391 120.943 155.357 120.379 155.26 119.825C155.021 118.398 154.647 116.997 154.145 115.64C153.645 114.19 153.04 112.725 152.385 111.275C151.73 109.825 151.025 108.37 150.31 106.92C149.95 106.193 149.578 105.475 149.195 104.765L148.065 102.67L154.335 99Z" fill="#FFB573"/>
<path d="M152 95.6551C147.17 94.9201 144.795 99.0651 147.07 105.255C148.245 108.603 149.721 111.838 151.48 114.92L161.895 110.355C160 104.23 156.94 96.4101 152 95.6551Z" fill="#263238"/>
<path d="M140.92 121.195L138.69 121.865L141.855 126.365C141.855 126.365 146.545 124.685 145.585 122.645L144.405 121.975C143.395 121.39 142.115 120.785 140.92 121.195Z" fill="#FFB573"/>
<path d="M136.715 124.965L138.95 127.195L141.855 126.36L138.69 121.865L136.715 124.965Z" fill="#FFB573"/>
<path d="M141.59 86.375C141.988 86.375 142.31 85.9855 142.31 85.505C142.31 85.0245 141.988 84.635 141.59 84.635C141.192 84.635 140.87 85.0245 140.87 85.505C140.87 85.9855 141.192 86.375 141.59 86.375Z" fill="white"/>
<path d="M142.185 87.8051L141.77 87.7901L141.515 85.7851L142.305 85.6101L142.185 87.8051Z" fill="white"/>
<path d="M145.055 125.6C143.555 125.6 142.225 125.375 141.42 124.645C141.12 124.356 140.886 124.005 140.735 123.616C140.584 123.228 140.519 122.811 140.545 122.395C140.591 120.333 140.912 118.287 141.5 116.31C142.195 113.585 142.745 111.435 141.075 108.78C138.415 104.565 139.21 98.67 141.075 94.975C142.5 92.15 142 89 141.82 87.84C141.795 87.69 141.775 87.57 141.765 87.49C141.763 87.4712 141.765 87.4522 141.77 87.4341C141.776 87.416 141.785 87.3992 141.797 87.3848C141.809 87.3703 141.824 87.3584 141.841 87.3499C141.858 87.3413 141.876 87.3363 141.895 87.335C141.933 87.3308 141.971 87.3415 142.001 87.3648C142.03 87.3882 142.05 87.4224 142.055 87.46C142.055 87.535 142.08 87.65 142.1 87.795C142.29 89 142.785 92.195 141.315 95.105C139.49 98.73 138.71 104.505 141.315 108.605C143.05 111.36 142.46 113.675 141.775 116.355C141.199 118.305 140.885 120.322 140.84 122.355C140.813 122.731 140.868 123.108 141.002 123.461C141.136 123.813 141.345 124.132 141.615 124.395C142.965 125.61 145.945 125.3 148.825 125C150.115 124.87 151.45 124.73 152.625 124.73C152.663 124.73 152.7 124.745 152.728 124.772C152.755 124.8 152.77 124.837 152.77 124.875C152.77 124.913 152.755 124.95 152.728 124.978C152.7 125.005 152.663 125.02 152.625 125.02C151.465 125.02 150.125 125.155 148.855 125.29C147.594 125.457 146.326 125.561 145.055 125.6Z" fill="white"/>
<path d="M158.61 124.53H152.92C152.754 124.53 152.62 124.664 152.62 124.83V125.23C152.62 125.396 152.754 125.53 152.92 125.53H158.61C158.776 125.53 158.91 125.396 158.91 125.23V124.83C158.91 124.664 158.776 124.53 158.61 124.53Z" fill="white"/>
<path d="M194.32 128.86H55.68C55.2388 128.859 54.8161 128.683 54.5041 128.371C54.1922 128.059 54.0163 127.636 54.015 127.195C54.0163 126.754 54.1922 126.331 54.5041 126.019C54.8161 125.707 55.2388 125.531 55.68 125.53H194.32C194.761 125.531 195.184 125.707 195.496 126.019C195.808 126.331 195.984 126.754 195.985 127.195C195.984 127.636 195.808 128.059 195.496 128.371C195.184 128.683 194.761 128.859 194.32 128.86Z" fill="#00677D"/>
<path opacity="0.3" d="M194.32 128.86H161.865C161.424 128.859 161.001 128.683 160.689 128.371C160.377 128.059 160.201 127.636 160.2 127.195C160.201 126.754 160.377 126.331 160.689 126.019C161.001 125.707 161.424 125.531 161.865 125.53H194.32C194.761 125.531 195.184 125.707 195.496 126.019C195.808 126.331 195.984 126.754 195.985 127.195C195.984 127.636 195.808 128.059 195.496 128.371C195.184 128.683 194.761 128.859 194.32 128.86Z" fill="#263238"/>
<path d="M192.79 207.31H195.985L192.31 128.86H187.89L192.79 207.31Z" fill="#263238"/>
<path opacity="0.1" d="M192.79 207.31H195.985L192.31 128.86H187.89L192.79 207.31Z" fill="white"/>
<path d="M163.395 207.31H160.2L163.875 128.86H168.295L163.395 207.31Z" fill="#263238"/>
<path opacity="0.2" d="M163.395 207.31H160.2L163.875 128.86H168.295L163.395 207.31Z" fill="white"/>
<path d="M86.61 207.31H89.8L86.125 128.86H81.705L86.61 207.31Z" fill="#263238"/>
<path opacity="0.1" d="M86.61 207.31H89.8L86.125 128.86H81.705L86.61 207.31Z" fill="white"/>
<path d="M57.21 207.31H54.015L57.69 128.86H62.11L57.21 207.31Z" fill="#263238"/>
<path opacity="0.2" d="M57.21 207.31H54.015L57.69 128.86H62.11L57.21 207.31Z" fill="white"/>
<path d="M165.245 133.035H58.62V139.61H165.245V133.035Z" fill="#263238"/>
<path opacity="0.2" d="M165.245 133.035H58.62V139.61H165.245V133.035Z" fill="white"/>
<path d="M76.165 121.11C75.9802 121.11 75.8029 121.183 75.6718 121.313C75.5407 121.443 75.4663 121.62 75.465 121.805V124.805C75.465 124.991 75.5388 125.169 75.6701 125.3C75.8013 125.431 75.9794 125.505 76.165 125.505H98.84C98.9002 125.505 98.9579 125.481 99.0009 125.439C99.0439 125.397 99.0687 125.34 99.07 125.28V121.31C99.0687 121.25 99.0439 121.193 99.0009 121.151C98.9579 121.108 98.9002 121.085 98.84 121.085L76.165 121.11Z" fill="#00677D"/>
<path opacity="0.9" d="M89.585 121.53H99.085V125.11H89.585C89.4776 125.11 89.3746 125.067 89.2986 124.991C89.2227 124.915 89.18 124.812 89.18 124.705V121.93C89.1813 121.823 89.2246 121.722 89.3004 121.647C89.3762 121.572 89.4784 121.53 89.585 121.53Z" fill="white"/>
<path d="M88.025 121.11H65.12C64.7334 121.11 64.42 121.423 64.42 121.81V124.835C64.42 125.222 64.7334 125.535 65.12 125.535H88.025C88.4116 125.535 88.725 125.222 88.725 124.835V121.81C88.725 121.423 88.4116 121.11 88.025 121.11Z" fill="#00677D"/>
<path opacity="0.2" d="M88.025 121.11H65.12C64.7334 121.11 64.42 121.423 64.42 121.81V124.835C64.42 125.222 64.7334 125.535 65.12 125.535H88.025C88.4116 125.535 88.725 125.222 88.725 124.835V121.81C88.725 121.423 88.4116 121.11 88.025 121.11Z" fill="black"/>
<path opacity="0.5" d="M76.76 121.11H73.285C73.1276 121.11 73 121.238 73 121.395V125.25C73 125.407 73.1276 125.535 73.285 125.535H76.76C76.9174 125.535 77.045 125.407 77.045 125.25V121.395C77.045 121.238 76.9174 121.11 76.76 121.11Z" fill="#00677D"/>
<path opacity="0.5" d="M81.775 121.11H78.305C78.1476 121.11 78.02 121.238 78.02 121.395V125.25C78.02 125.407 78.1476 125.535 78.305 125.535H81.775C81.9324 125.535 82.06 125.407 82.06 125.25V121.395C82.06 121.238 81.9324 121.11 81.775 121.11Z" fill="#00677D"/>
<path d="M72.065 115.66C71.9731 115.66 71.882 115.678 71.7971 115.713C71.7122 115.748 71.635 115.8 71.57 115.865C71.505 115.93 71.4535 116.007 71.4183 116.092C71.3831 116.177 71.365 116.268 71.365 116.36V120.41C71.365 120.502 71.3831 120.593 71.4183 120.678C71.4535 120.763 71.505 120.84 71.57 120.905C71.635 120.97 71.7122 121.021 71.7971 121.057C71.882 121.092 71.9731 121.11 72.065 121.11H96.63C96.6901 121.109 96.7473 121.084 96.7894 121.041C96.8315 120.998 96.855 120.94 96.855 120.88V115.88C96.855 115.82 96.8315 115.762 96.7894 115.719C96.7473 115.676 96.6901 115.651 96.63 115.65L72.065 115.66Z" fill="#00677D"/>
<path opacity="0.9" d="M85.5 116.085H96.87V120.69H85.5C85.3926 120.69 85.2896 120.647 85.2137 120.571C85.1377 120.495 85.095 120.392 85.095 120.285V116.5C85.0937 116.446 85.1032 116.392 85.1229 116.342C85.1427 116.292 85.1723 116.246 85.2101 116.207C85.2478 116.168 85.2929 116.138 85.3427 116.117C85.3925 116.096 85.446 116.085 85.5 116.085Z" fill="white"/>
<path d="M83.92 115.66H64.66C64.2734 115.66 63.96 115.973 63.96 116.36V120.405C63.96 120.792 64.2734 121.105 64.66 121.105H83.92C84.3066 121.105 84.62 120.792 84.62 120.405V116.36C84.62 115.973 84.3066 115.66 83.92 115.66Z" fill="#00677D"/>
<path opacity="0.2" d="M83.92 115.66H64.66C64.2734 115.66 63.96 115.973 63.96 116.36V120.405C63.96 120.792 64.2734 121.105 64.66 121.105H83.92C84.3066 121.105 84.62 120.792 84.62 120.405V116.36C84.62 115.973 84.3066 115.66 83.92 115.66Z" fill="white"/>
<path opacity="0.6" d="M82.115 116.74H68.01C67.7753 116.74 67.585 116.93 67.585 117.165V119.6C67.585 119.835 67.7753 120.025 68.01 120.025H82.115C82.3497 120.025 82.54 119.835 82.54 119.6V117.165C82.54 116.93 82.3497 116.74 82.115 116.74Z" fill="#00677D"/>
<path d="M79.27 113.055C78.885 113.055 78.57 113.24 78.57 113.465V115.25C78.57 115.475 78.885 115.66 79.27 115.66H101.95C102.075 115.66 102.175 115.6 102.175 115.53V113.19C102.175 113.115 102.075 113.055 101.95 113.055H79.27Z" fill="#00677D"/>
<path opacity="0.9" d="M92.6 113.3H102.175V115.41H92.6C92.5178 115.41 92.439 115.377 92.3808 115.319C92.3227 115.261 92.29 115.182 92.29 115.1V113.6C92.2926 113.519 92.3264 113.443 92.3843 113.387C92.4421 113.331 92.5195 113.3 92.6 113.3Z" fill="white"/>
<path d="M91.295 113.055H68.06C67.7645 113.055 67.525 113.294 67.525 113.59V115.13C67.525 115.425 67.7645 115.665 68.06 115.665H91.295C91.5905 115.665 91.83 115.425 91.83 115.13V113.59C91.83 113.294 91.5905 113.055 91.295 113.055Z" fill="#00677D"/>
<path opacity="0.2" d="M91.295 113.055H68.06C67.7645 113.055 67.525 113.294 67.525 113.59V115.13C67.525 115.425 67.7645 115.665 68.06 115.665H91.295C91.5905 115.665 91.83 115.425 91.83 115.13V113.59C91.83 113.294 91.5905 113.055 91.295 113.055Z" fill="black"/>
<path opacity="0.5" d="M70.98 113.055H70.255C70.197 113.055 70.15 113.102 70.15 113.16V115.56C70.15 115.618 70.197 115.665 70.255 115.665H70.98C71.038 115.665 71.085 115.618 71.085 115.56V113.16C71.085 113.102 71.038 113.055 70.98 113.055Z" fill="#00677D"/>
<path opacity="0.5" d="M89.84 113.055H89.13C89.072 113.055 89.025 113.102 89.025 113.16V115.56C89.025 115.618 89.072 115.665 89.13 115.665H89.84C89.898 115.665 89.945 115.618 89.945 115.56V113.16C89.945 113.102 89.898 113.055 89.84 113.055Z" fill="#00677D"/>
<path d="M75.17 109.285C74.785 109.285 74.47 109.47 74.47 109.695V112.64C74.47 112.87 74.785 113.055 75.17 113.055H99.735C99.86 113.055 99.965 112.995 99.965 112.92V109.42C99.965 109.345 99.86 109.285 99.735 109.285H75.17Z" fill="#00677D"/>
<path opacity="0.9" d="M88.5 109.53H99.965V112.805H88.5C88.4178 112.805 88.3389 112.772 88.2808 112.714C88.2227 112.656 88.19 112.577 88.19 112.495V109.84C88.19 109.758 88.2227 109.679 88.2808 109.621C88.3389 109.563 88.4178 109.53 88.5 109.53Z" fill="white"/>
<path d="M87.19 109.285H67.6C67.3045 109.285 67.065 109.524 67.065 109.82V112.52C67.065 112.815 67.3045 113.055 67.6 113.055H87.19C87.4855 113.055 87.725 112.815 87.725 112.52V109.82C87.725 109.524 87.4855 109.285 87.19 109.285Z" fill="#00677D"/>
<path opacity="0.1" d="M87.19 109.285H67.6C67.3045 109.285 67.065 109.524 67.065 109.82V112.52C67.065 112.815 67.3045 113.055 67.6 113.055H87.19C87.4855 113.055 87.725 112.815 87.725 112.52V109.82C87.725 109.524 87.4855 109.285 87.19 109.285Z" fill="black"/>
<path d="M129.96 124.7H109.325C109.214 124.7 109.108 124.744 109.03 124.821C108.951 124.899 108.906 125.004 108.905 125.115C108.906 125.225 108.951 125.331 109.03 125.409C109.108 125.486 109.214 125.53 109.325 125.53H129.96C130.07 125.53 130.176 125.486 130.253 125.408C130.331 125.331 130.375 125.225 130.375 125.115C130.375 125.005 130.331 124.899 130.253 124.822C130.176 124.744 130.07 124.7 129.96 124.7Z" fill="white"/>
<path d="M170.33 123.71H183.89L185.115 125.485H169.105L170.33 123.71Z" fill="#263238"/>
<path d="M191.27 93.415C191.27 93.7759 191.163 94.1288 190.962 94.4289C190.762 94.729 190.477 94.9629 190.143 95.1011C189.81 95.2392 189.443 95.2753 189.089 95.2049C188.735 95.1345 188.41 94.9607 188.155 94.7054C187.899 94.4502 187.725 94.125 187.655 93.771C187.585 93.417 187.621 93.0501 187.759 92.7166C187.897 92.3831 188.131 92.0981 188.431 91.8975C188.731 91.697 189.084 91.59 189.445 91.59C189.685 91.5893 189.922 91.6361 190.144 91.7276C190.366 91.819 190.567 91.9534 190.737 92.123C190.907 92.2926 191.041 92.4941 191.132 92.7158C191.224 92.9375 191.271 93.1751 191.27 93.415Z" fill="black"/>
<path d="M177.56 124.91C177.465 124.91 177.371 124.886 177.288 124.841C177.204 124.796 177.132 124.731 177.08 124.652C177.027 124.573 176.994 124.483 176.985 124.388C176.975 124.293 176.989 124.198 177.025 124.11L190.09 93.1899C190.157 93.0608 190.271 92.9617 190.408 92.9125C190.545 92.8632 190.696 92.8673 190.83 92.924C190.964 92.9807 191.072 93.0858 191.132 93.2185C191.193 93.3511 191.201 93.5016 191.155 93.6399L178.09 124.555C178.046 124.659 177.972 124.749 177.878 124.812C177.784 124.875 177.673 124.909 177.56 124.91Z" fill="#263238"/>
<path d="M190.62 93.9999C190.496 93.9985 190.375 93.9583 190.275 93.8849L166.55 76.0899C166.428 75.9984 166.347 75.8622 166.326 75.7113C166.304 75.5603 166.344 75.4069 166.435 75.2849C166.527 75.1629 166.663 75.0823 166.814 75.0607C166.965 75.0391 167.118 75.0784 167.24 75.1699L190.97 92.9549C191.066 93.0286 191.136 93.1303 191.172 93.246C191.207 93.3616 191.205 93.4854 191.166 93.5999C191.128 93.7145 191.055 93.8142 190.957 93.885C190.859 93.9558 190.741 93.9943 190.62 93.9949V93.9999Z" fill="#263238"/>
<path d="M192.445 93.415C192.445 93.7759 192.338 94.1288 192.137 94.4289C191.937 94.729 191.652 94.9629 191.318 95.1011C190.985 95.2392 190.618 95.2753 190.264 95.2049C189.91 95.1345 189.585 94.9607 189.33 94.7054C189.074 94.4502 188.901 94.125 188.83 93.771C188.76 93.417 188.796 93.0501 188.934 92.7166C189.072 92.3831 189.306 92.0981 189.606 91.8975C189.906 91.697 190.259 91.59 190.62 91.59C190.86 91.5893 191.098 91.6361 191.319 91.7276C191.541 91.819 191.742 91.9534 191.912 92.123C192.082 92.2926 192.216 92.4941 192.307 92.7158C192.399 92.9375 192.446 93.1751 192.445 93.415Z" fill="#263238"/>
<path d="M166.895 77.4499C167.9 77.4499 168.715 76.6351 168.715 75.6299C168.715 74.6248 167.9 73.8099 166.895 73.8099C165.89 73.8099 165.075 74.6248 165.075 75.6299C165.075 76.6351 165.89 77.4499 166.895 77.4499Z" fill="#263238"/>
<path d="M164.345 83.95C163.774 84.5206 163.047 84.9092 162.256 85.0666C161.465 85.224 160.644 85.1432 159.899 84.8344C159.153 84.5256 158.516 84.0027 158.068 83.3317C157.619 82.6608 157.38 81.8719 157.38 81.065C157.38 80.258 157.619 79.4692 158.068 78.7983C158.516 78.1273 159.153 77.6044 159.899 77.2956C160.644 76.9868 161.465 76.906 162.256 77.0634C163.047 77.2208 163.774 77.6094 164.345 78.18C165.109 78.9458 165.538 79.9833 165.538 81.065C165.538 82.1467 165.109 83.1842 164.345 83.95Z" fill="#00677D"/>
<path opacity="0.7" d="M164.345 83.95C163.774 84.5206 163.047 84.9092 162.256 85.0666C161.465 85.224 160.644 85.1432 159.899 84.8344C159.153 84.5256 158.516 84.0027 158.068 83.3317C157.619 82.6608 157.38 81.8719 157.38 81.065C157.38 80.258 157.619 79.4692 158.068 78.7983C158.516 78.1273 159.153 77.6044 159.899 77.2956C160.644 76.9868 161.465 76.906 162.256 77.0634C163.047 77.2208 163.774 77.6094 164.345 78.18C165.109 78.9458 165.538 79.9833 165.538 81.065C165.538 82.1467 165.109 83.1842 164.345 83.95Z" fill="white"/>
<path d="M166.895 75.63C166.084 74.8178 165.12 74.1735 164.06 73.734C163 73.2944 161.863 73.0681 160.715 73.0681C159.567 73.0681 158.43 73.2944 157.37 73.734C156.31 74.1735 155.346 74.8178 154.535 75.63L166.895 88C167.708 87.1882 168.353 86.2241 168.793 85.1628C169.233 84.1015 169.46 82.9639 169.46 81.815C169.46 80.666 169.233 79.5284 168.793 78.4671C168.353 77.4058 167.708 76.4417 166.895 75.63Z" fill="#263238"/>
<g opacity="0.2">
<path d="M154.53 75.63L102.62 125.53H155.875L166.895 87.995L154.53 75.63Z" fill="#00677D"/>
<path opacity="0.7" d="M154.53 75.63L102.62 125.53H155.875L166.895 87.995L154.53 75.63Z" fill="white"/>
</g>
</svg>
