<svg width="250" height="250" viewBox="0 0 250 250" fill="none" xmlns="http://www.w3.org/2000/svg">
<path d="M250 191.2H0V191.325H250V191.2Z" fill="#EBEBEB"/>
<path d="M224.95 199.245H208.39V199.37H224.95V199.245Z" fill="#EBEBEB"/>
<path d="M165.61 200.605H161.265V200.73H165.61V200.605Z" fill="#EBEBEB"/>
<path d="M207.89 194.605H198.295V194.73H207.89V194.605Z" fill="#EBEBEB"/>
<path d="M47.825 195.445H26.23V195.57H47.825V195.445Z" fill="#EBEBEB"/>
<path d="M55.445 195.445H52.28V195.57H55.445V195.445Z" fill="#EBEBEB"/>
<path d="M112.575 197.555H65.735V197.68H112.575V197.555Z" fill="#EBEBEB"/>
<path d="M118.5 168.9H21.955C21.1987 168.899 20.4738 168.597 19.9394 168.062C19.4051 167.527 19.105 166.801 19.105 166.045V30.33C19.1116 29.578 19.4146 28.859 19.9482 28.3291C20.4818 27.7992 21.203 27.5013 21.955 27.5H118.5C119.257 27.5 119.983 27.8008 120.519 28.3362C121.054 28.8716 121.355 29.5978 121.355 30.355V166.045C121.355 166.802 121.054 167.528 120.519 168.064C119.983 168.599 119.257 168.9 118.5 168.9ZM21.955 27.6C21.2318 27.6013 20.5387 27.8895 20.0278 28.4014C19.5169 28.9132 19.23 29.6068 19.23 30.33V166.045C19.23 166.768 19.5169 167.462 20.0278 167.974C20.5387 168.485 21.2318 168.774 21.955 168.775H118.5C119.224 168.774 119.917 168.486 120.429 167.974C120.941 167.462 121.229 166.769 121.23 166.045V30.33C121.229 29.6064 120.941 28.9127 120.429 28.4011C119.917 27.8894 119.224 27.6013 118.5 27.6H21.955Z" fill="#EBEBEB"/>
<path d="M226.655 168.9H130.105C129.348 168.899 128.623 168.597 128.088 168.062C127.553 167.527 127.251 166.802 127.25 166.045V30.33C127.258 29.5776 127.562 28.8585 128.096 28.3288C128.631 27.7991 129.353 27.5013 130.105 27.5H226.655C227.406 27.5026 228.126 27.8011 228.659 28.3309C229.191 28.8606 229.493 29.5789 229.5 30.33V166.045C229.5 166.8 229.201 167.525 228.667 168.06C228.134 168.595 227.41 168.897 226.655 168.9ZM130.105 27.6C129.381 27.6013 128.688 27.8894 128.176 28.4011C127.664 28.9127 127.376 29.6064 127.375 30.33V166.045C127.376 166.769 127.664 167.462 128.176 167.974C128.688 168.486 129.381 168.774 130.105 168.775H226.655C227.379 168.774 228.072 168.486 228.584 167.974C229.096 167.462 229.384 166.769 229.385 166.045V30.33C229.384 29.6064 229.096 28.9127 228.584 28.4011C228.072 27.8894 227.379 27.6013 226.655 27.6H130.105Z" fill="#EBEBEB"/>
<path d="M49.635 53.16L68.03 42.455H82.205L100.91 52.65V122.015H49.635V53.16Z" fill="#E0E0E0"/>
<path d="M101.435 122H49.635V53.16L50.165 52.66C56.9773 46.0967 66.0754 42.4406 75.535 42.465C84.9959 42.4414 94.0953 46.0973 100.91 52.66L101.435 53.16V122ZM53.075 118.56H98V54.635C91.8715 49.0103 83.8559 45.8895 75.5375 45.8895C67.2192 45.8895 59.2035 49.0103 53.075 54.635V118.56Z" fill="#FAFAFA"/>
<path d="M74.25 118.99H76.825V95.9699H98.65V93.3949H76.825V69.8499H98.65V67.2749H76.825V45.4449H74.25V67.2749H52.42V69.8499H74.25V93.3949H52.42V95.9699H74.25V118.99Z" fill="#F0F0F0"/>
<path d="M103.155 123.73H47.92V52.455L48.42 51.955C55.617 44.7743 65.3685 40.7416 75.535 40.7416C85.7016 40.7416 95.453 44.7743 102.65 51.955L103.15 52.455L103.155 123.73ZM51.355 120.295H99.715V53.89C93.2093 47.6546 84.5464 44.1735 75.535 44.1735C66.5237 44.1735 57.8608 47.6546 51.355 53.89V120.295Z" fill="#F0F0F0"/>
<path d="M191.755 64.9601C191.755 64.9601 192.255 61.6601 189.85 59.5451C187.445 57.4301 187.655 56.1701 188.35 56.0101C189.045 55.8501 189.67 57.9601 190.73 58.5401C190.73 58.5401 190.76 55.5401 189.69 54.4151C188.62 53.2901 188.05 50.4451 189.07 50.4151C190.09 50.3851 190.2 52.1151 190.41 53.3551C190.62 54.5951 191.76 56.3551 191.76 56.3551C191.76 56.3551 191.985 53.6601 192.68 52.5451C193.375 51.4301 191.52 48.9001 192.235 47.7851C192.95 46.6701 194.235 48.7851 194.115 51.1701C193.995 53.5551 192.42 56.0901 192.79 58.5751C192.79 58.5751 193.49 56.8301 194.12 56.6701C194.75 56.5101 195.385 55.3601 195.805 54.9301C196.225 54.5001 196.76 55.9851 195.805 57.3601C194.85 58.7351 192.42 62.4151 192.805 65.3601L191.755 64.9601Z" fill="#E6E6E6"/>
<path d="M190.32 63.46L189.53 68.405C189.47 68.7659 189.49 69.1356 189.588 69.4879C189.687 69.8403 189.861 70.1668 190.1 70.4443C190.338 70.7218 190.635 70.9436 190.968 71.0941C191.302 71.2445 191.664 71.3199 192.03 71.315H192.87C193.236 71.3199 193.598 71.2445 193.932 71.0941C194.265 70.9436 194.562 70.7218 194.8 70.4443C195.039 70.1668 195.213 69.8403 195.312 69.4879C195.41 69.1356 195.43 68.7659 195.37 68.405L194.585 63.46H190.32Z" fill="#E6E6E6"/>
<path d="M202.235 69.49H146.535V72.35H202.235V69.49Z" fill="#E0E0E0"/>
<path d="M151.555 58.9399H149.1V69.4899H151.555V58.9399Z" fill="#EBEBEB"/>
<path d="M163.42 58.9399H160.965V69.4899H163.42V58.9399Z" fill="#EBEBEB"/>
<path d="M176.891 58.6723L174.471 59.0894L176.264 69.486L178.683 69.069L176.891 58.6723Z" fill="#EBEBEB"/>
<path d="M154.595 60.33H152.14V69.49H154.595V60.33Z" fill="#EBEBEB"/>
<path d="M160.235 60.33H157.78V69.49H160.235V60.33Z" fill="#EBEBEB"/>
<path d="M174.475 60.33H172.02V69.49H174.475V60.33Z" fill="#EBEBEB"/>
<path d="M166.642 60.0067L164.245 60.5393L166.232 69.4811L168.629 68.9485L166.642 60.0067Z" fill="#EBEBEB"/>
<path d="M156.715 58.415H155.49V69.49H156.715V58.415Z" fill="#EBEBEB"/>
<path d="M171.31 58.415H170.085V69.49H171.31V58.415Z" fill="#EBEBEB"/>
<path d="M146.54 93.72H202.24V90.86H146.54V93.72Z" fill="#E0E0E0"/>
<path d="M197.22 90.855H199.675V80.305H197.22V90.855Z" fill="#EBEBEB"/>
<path d="M185.35 90.855H187.805V80.305H185.35V90.855Z" fill="#EBEBEB"/>
<path d="M170.089 90.4363L172.509 90.8533L174.301 80.4566L171.881 80.0396L170.089 90.4363Z" fill="#EBEBEB"/>
<path d="M194.175 90.855H196.63V81.695H194.175V90.855Z" fill="#EBEBEB"/>
<path d="M188.535 90.855H190.99V81.695H188.535V90.855Z" fill="#EBEBEB"/>
<path d="M174.3 90.855H176.755V81.695H174.3V90.855Z" fill="#EBEBEB"/>
<path d="M180.147 90.3125L182.544 90.8451L184.531 81.9033L182.134 81.3707L180.147 90.3125Z" fill="#EBEBEB"/>
<path d="M192.06 90.86H193.285V79.785H192.06V90.86Z" fill="#EBEBEB"/>
<path d="M177.465 90.86H178.69V79.785H177.465V90.86Z" fill="#EBEBEB"/>
<path d="M151.885 90.76H163.84V82.505H151.885V90.76Z" fill="#EBEBEB"/>
<path d="M125 213.78C178.541 213.78 221.945 211.246 221.945 208.12C221.945 204.994 178.541 202.46 125 202.46C71.4588 202.46 28.0551 204.994 28.0551 208.12C28.0551 211.246 71.4588 213.78 125 213.78Z" fill="#F5F5F5"/>
<path d="M49.245 185.395C49.245 185.395 53.125 180.78 55.605 182.93C58.085 185.08 56.83 189.65 53.97 189.795C52.2739 189.885 50.6004 189.374 49.245 188.35V185.395Z" fill="#00677D"/>
<path opacity="0.1" d="M49.245 185.395C49.245 185.395 53.125 180.78 55.605 182.93C58.085 185.08 56.83 189.65 53.97 189.795C52.2739 189.885 50.6004 189.374 49.245 188.35V185.395Z" fill="white"/>
<path d="M33.43 173.69C33.43 173.69 30.175 170.28 28.16 170.86C26.145 171.44 26.355 179.585 32.605 176.29L33.43 173.69Z" fill="#00677D"/>
<path opacity="0.2" d="M33.43 173.69C33.43 173.69 30.175 170.28 28.16 170.86C26.145 171.44 26.355 179.585 32.605 176.29L33.43 173.69Z" fill="white"/>
<path d="M45.0601 199.14C45.0601 199.14 55.7601 184.5 47.0601 181.535C38.3601 178.57 36.8251 193.31 39.3101 197.415C41.7951 201.52 45.0601 199.14 45.0601 199.14Z" fill="#00677D"/>
<path d="M40.1 169.17C40.1 169.17 33.46 153.76 43.295 153.295C53.13 152.83 54.195 168.575 42.88 170.86L40.1 169.17Z" fill="#00677D"/>
<path opacity="0.2" d="M45.0601 199.14C45.0601 199.14 55.7601 184.5 47.0601 181.535C38.3601 178.57 36.8251 193.31 39.3101 197.415C41.7951 201.52 45.0601 199.14 45.0601 199.14Z" fill="white"/>
<path opacity="0.2" d="M40.1 169.17C40.1 169.17 33.46 153.76 43.295 153.295C53.13 152.83 54.195 168.575 42.88 170.86L40.1 169.17Z" fill="white"/>
<path d="M42.455 181.79C42.455 181.79 45.68 168.18 39.455 167.095C33.23 166.01 27.155 178.305 40 184.5C40 184.5 42.185 183.12 42.455 181.79Z" fill="#00677D"/>
<path opacity="0.1" d="M42.455 181.79C42.455 181.79 45.68 168.18 39.455 167.095C33.23 166.01 27.155 178.305 40 184.5C40 184.5 42.185 183.12 42.455 181.79Z" fill="white"/>
<path d="M52.76 197.065H34.8L36.3 208.555H51.26L52.76 197.065Z" fill="#00677D"/>
<path d="M43.42 168.07C43.824 167.659 44.2062 167.226 44.565 166.775C44.9341 166.338 45.278 165.881 45.595 165.405C46.2352 164.465 46.7732 163.459 47.2 162.405C47.6134 161.354 47.8564 160.243 47.92 159.115V158.265C47.92 157.985 47.85 157.7 47.825 157.42C47.825 157.275 47.825 157.13 47.78 156.99L47.68 156.575C47.61 156.295 47.545 156.015 47.485 155.73C47.9911 156.79 48.2639 157.946 48.285 159.12C48.2989 160.306 48.0815 161.483 47.645 162.585C47.206 163.677 46.6134 164.701 45.885 165.625C45.1799 166.55 44.3504 167.372 43.42 168.07Z" fill="#00677D"/>
<path d="M45.7751 154.845C44.7482 155.245 43.8137 155.851 43.0288 156.624C42.2439 157.398 41.625 158.324 41.2101 159.345L40.9251 160.115C40.8401 160.375 40.7951 160.65 40.7251 160.91C40.599 161.447 40.5055 161.991 40.4451 162.54C40.3901 163.09 40.3901 163.65 40.3651 164.205C40.3401 164.76 40.4101 165.325 40.4101 165.89C40.2951 165.34 40.2151 164.78 40.1201 164.22C40.0251 163.66 40.0551 163.085 40.0651 162.515C40.0957 161.364 40.3275 160.226 40.7501 159.155C41.4107 157.538 42.6198 156.205 44.1651 155.39C44.6745 155.136 45.2161 154.953 45.7751 154.845Z" fill="#00677D"/>
<path d="M38.255 168.07C37.5854 168.415 36.9893 168.887 36.5 169.46C36.007 170.016 35.6175 170.657 35.35 171.35C35.0787 172.037 34.9102 172.759 34.85 173.495C34.8351 173.678 34.8351 173.862 34.85 174.045C34.85 174.225 34.85 174.405 34.85 174.585C34.8968 174.946 34.9737 175.302 35.08 175.65C35.5448 177.067 36.2594 178.39 37.19 179.555C37.6398 180.161 38.1222 180.742 38.635 181.295C39.135 181.865 39.67 182.4 40.215 182.93C38.9846 182.023 37.8682 180.97 36.89 179.795C36.3921 179.206 35.9407 178.579 35.54 177.92C35.1431 177.25 34.8275 176.535 34.6 175.79C34.4887 175.413 34.4101 175.026 34.365 174.635C34.355 174.437 34.355 174.238 34.365 174.04C34.3573 173.843 34.3673 173.645 34.395 173.45C34.4733 172.672 34.6776 171.912 35 171.2C35.3069 170.488 35.7529 169.844 36.3119 169.307C36.8708 168.769 37.5315 168.349 38.255 168.07Z" fill="#00677D"/>
<path d="M40.1001 169.17C40.0201 169.695 39.9351 170.215 39.8951 170.74C39.8295 171.259 39.7961 171.782 39.7951 172.305C39.7837 172.82 39.8155 173.335 39.8901 173.845C39.9427 174.338 40.1013 174.814 40.3551 175.24C40.5047 175.471 40.6367 175.714 40.7501 175.965C40.8548 176.219 40.9385 176.482 41.0001 176.75C41.1235 177.28 41.1905 177.821 41.2001 178.365C41.2266 179.432 41.1106 180.498 40.8551 181.535C40.8551 181.005 40.9001 180.48 40.8901 179.955C40.8953 179.432 40.8702 178.91 40.8151 178.39C40.7715 177.367 40.4668 176.372 39.9301 175.5C39.6495 175.011 39.4789 174.467 39.4301 173.905C39.3726 173.365 39.3726 172.82 39.4301 172.28C39.517 171.219 39.7422 170.173 40.1001 169.17Z" fill="#00677D"/>
<path d="M44.465 182.93C44.232 183.07 44.0377 183.266 43.9 183.5C43.7601 183.735 43.6397 183.981 43.54 184.235C43.3236 184.745 43.1431 185.27 43 185.805C42.71 186.87 42.455 187.94 42.235 189.025C42.015 190.11 41.81 191.195 41.6 192.28C41.495 192.825 41.4 193.37 41.31 193.92C41.22 194.47 41.125 195.01 41.045 195.565C41.0182 194.449 41.0767 193.332 41.22 192.225C41.34 191.115 41.525 190.015 41.745 188.925C41.9665 187.827 42.2639 186.746 42.635 185.69C42.8236 185.158 43.0492 184.64 43.31 184.14C43.4565 183.893 43.6238 183.659 43.81 183.44C43.9746 183.21 44.2021 183.033 44.465 182.93Z" fill="#00677D"/>
<path d="M47.5001 183.405C47.9642 184.348 48.2652 185.362 48.3901 186.405C48.5226 187.456 48.4821 188.522 48.2701 189.56C48.2251 189.821 48.1599 190.079 48.0751 190.33C47.9951 190.585 47.9301 190.83 47.8301 191.085C47.4269 192.064 46.8699 192.972 46.1801 193.775C46.0121 193.975 45.8282 194.16 45.6301 194.33C45.4401 194.515 45.2501 194.69 45.0551 194.86C45.7159 194.074 46.2909 193.219 46.7701 192.31C47.2451 191.416 47.5823 190.455 47.7701 189.46C47.9744 188.474 48.0484 187.465 47.9901 186.46C47.9401 185.427 47.7758 184.402 47.5001 183.405Z" fill="#00677D"/>
<path d="M30.9051 175.355C30.6179 175.47 30.3088 175.519 30.0001 175.5C29.6911 175.487 29.3866 175.421 29.1001 175.305C28.8116 175.181 28.5539 174.995 28.3451 174.76C28.1364 174.529 27.9992 174.242 27.9501 173.935C28.1556 174.128 28.3745 174.307 28.6051 174.47C28.8251 174.616 29.0577 174.741 29.3001 174.845C29.8242 175.047 30.3602 175.218 30.9051 175.355Z" fill="#00677D"/>
<path d="M31.57 173.105L30.775 172.735C30.5255 172.618 30.2662 172.522 30 172.45C29.7535 172.376 29.4974 172.339 29.24 172.34C28.9597 172.365 28.6839 172.427 28.42 172.525C28.5944 172.253 28.8605 172.053 29.17 171.96C29.4871 171.87 29.823 171.87 30.14 171.96C30.4422 172.05 30.7241 172.198 30.97 172.395C31.2193 172.585 31.4241 172.827 31.57 173.105Z" fill="#00677D"/>
<path d="M51 186.08C51.1829 185.696 51.4259 185.343 51.72 185.035C52.0095 184.715 52.3469 184.442 52.72 184.225C53.1063 183.985 53.5553 183.865 54.01 183.88C54.2339 183.889 54.453 183.948 54.6512 184.053C54.8493 184.157 55.0215 184.305 55.155 184.485C54.806 184.303 54.4112 184.228 54.02 184.27C53.6451 184.325 53.2858 184.458 52.965 184.66C52.2794 185.089 51.623 185.564 51 186.08Z" fill="#00677D"/>
<path d="M51 188.35C51.9618 188.335 52.9218 188.264 53.875 188.135C54.3303 188.071 54.7716 187.931 55.18 187.72C55.5921 187.503 55.9157 187.15 56.095 186.72C56.0916 186.982 56.0264 187.239 55.9047 187.471C55.7831 187.703 55.6085 187.903 55.395 188.055C54.9718 188.364 54.4789 188.563 53.96 188.635C53.464 188.714 52.9601 188.73 52.46 188.685C51.9601 188.642 51.4687 188.529 51 188.35Z" fill="#00677D"/>
<g opacity="0.4">
<path d="M52.76 197.065H34.8L36.3 208.555H51.26L52.76 197.065Z" fill="black"/>
</g>
<path d="M131.54 55.41V193.645C131.54 193.933 131.483 194.217 131.372 194.482C131.261 194.748 131.099 194.988 130.894 195.19C130.689 195.392 130.446 195.551 130.18 195.659C129.913 195.766 129.628 195.819 129.34 195.815H60.34C60.0844 195.818 59.8306 195.77 59.5937 195.674C59.3567 195.578 59.1413 195.435 58.96 195.255C58.8678 195.166 58.7856 195.067 58.715 194.96C58.4897 194.625 58.3711 194.229 58.375 193.825V55.23C58.3575 54.7666 58.5245 54.3152 58.8395 53.9749C59.1545 53.6346 59.5917 53.4332 60.055 53.415H79.65C79.8533 53.4157 80.0535 53.4636 80.235 53.555C80.2982 53.5814 80.3571 53.6167 80.41 53.66C80.5201 53.7383 80.6193 53.8307 80.705 53.935C80.7905 54.0444 80.8596 54.1657 80.91 54.295L81.725 56.295V56.34C81.7747 56.4501 81.8368 56.5541 81.91 56.65C82.0382 56.8059 82.1992 56.9316 82.3816 57.018C82.564 57.1045 82.7632 57.1495 82.965 57.15H107C107.272 57.1484 107.537 57.0657 107.761 56.9125C107.986 56.7593 108.159 56.5425 108.26 56.29L109.075 54.29C109.173 54.034 109.346 53.8131 109.57 53.6555C109.795 53.4978 110.061 53.4106 110.335 53.405H129.645C130.158 53.432 130.641 53.6552 130.994 54.0285C131.346 54.4018 131.542 54.8964 131.54 55.41Z" fill="#00677D"/>
<path d="M131.54 55.41V63.075H58.3901V55.23C58.3725 54.7666 58.5395 54.3152 58.8545 53.9749C59.1695 53.6346 59.6067 53.4332 60.0701 53.415H79.6651C79.8683 53.4157 80.0686 53.4636 80.2501 53.555C80.3132 53.5814 80.3721 53.6167 80.4251 53.66C80.5351 53.7383 80.6343 53.8307 80.7201 53.935C80.8056 54.0444 80.8746 54.1657 80.9251 54.295L81.7401 56.295V56.34C81.7897 56.4501 81.8518 56.5541 81.9251 56.65C82.0532 56.8059 82.2143 56.9316 82.3966 57.018C82.579 57.1045 82.7782 57.1495 82.9801 57.15H107C107.272 57.1484 107.537 57.0657 107.761 56.9125C107.986 56.7593 108.16 56.5425 108.26 56.29L109.075 54.29C109.173 54.034 109.346 53.8131 109.57 53.6555C109.795 53.4978 110.061 53.4106 110.335 53.405H129.645C130.158 53.432 130.641 53.6552 130.994 54.0285C131.346 54.4018 131.542 54.8964 131.54 55.41Z" fill="#263238"/>
<path d="M58.3901 189.25H131.54V193.645C131.54 193.933 131.483 194.217 131.372 194.482C131.261 194.748 131.099 194.988 130.894 195.19C130.689 195.392 130.446 195.551 130.18 195.659C129.913 195.766 129.628 195.819 129.34 195.815H60.3401C60.0844 195.818 59.8307 195.77 59.5937 195.674C59.3568 195.578 59.1414 195.435 58.9601 195.255C58.8678 195.166 58.7857 195.067 58.7151 194.96C58.4897 194.625 58.3712 194.229 58.3751 193.825L58.3901 189.25Z" fill="#263238"/>
<path opacity="0.3" d="M131.54 63.0751H58.39V189.25H131.54V63.0751Z" fill="white"/>
<path d="M62.875 120.5H63.375V123.295H62.875V120.5Z" fill="white"/>
<path d="M66.205 122.06V123.28H65.705V122.125C65.705 121.745 65.515 121.56 65.205 121.56C65.1211 121.555 65.037 121.568 64.959 121.599C64.8809 121.631 64.8108 121.679 64.7538 121.741C64.6968 121.803 64.6543 121.876 64.6294 121.957C64.6046 122.037 64.5979 122.122 64.61 122.205V123.28H64.11V121.145H64.585V121.425C64.678 121.324 64.792 121.245 64.9191 121.193C65.0461 121.141 65.183 121.118 65.32 121.125C65.4429 121.116 65.5664 121.134 65.6814 121.179C65.7964 121.223 65.9 121.293 65.9847 121.382C66.0695 121.472 66.1332 121.579 66.1713 121.696C66.2094 121.813 66.2209 121.938 66.205 122.06Z" fill="white"/>
<path d="M68.13 123.165C67.9844 123.268 67.8083 123.319 67.63 123.31C67.5318 123.323 67.432 123.313 67.3381 123.281C67.2442 123.25 67.1586 123.198 67.0879 123.128C67.0171 123.059 66.963 122.975 66.9296 122.881C66.8962 122.788 66.8844 122.689 66.895 122.59V121.565H66.54V121.165H66.895V120.665H67.395V121.165H68V121.565H67.425V122.565C67.4189 122.607 67.4222 122.649 67.4348 122.69C67.4474 122.73 67.4689 122.767 67.4978 122.797C67.5266 122.828 67.562 122.852 67.6014 122.867C67.6407 122.882 67.683 122.889 67.725 122.885C67.8256 122.886 67.9237 122.854 68.005 122.795L68.13 123.165Z" fill="white"/>
<path d="M69.775 121.125V121.6H69.66C69.5736 121.594 69.4869 121.607 69.4062 121.639C69.3256 121.671 69.253 121.72 69.1937 121.783C69.1343 121.846 69.0898 121.922 69.0632 122.004C69.0366 122.087 69.0287 122.174 69.04 122.26V123.295H68.54V121.16H69V121.475C69.0864 121.353 69.2037 121.256 69.34 121.195C69.4762 121.133 69.6264 121.109 69.775 121.125Z" fill="white"/>
<path d="M70 122.215C69.9911 121.988 70.0503 121.763 70.1702 121.569C70.2901 121.376 70.4652 121.223 70.6728 121.13C70.8805 121.037 71.1113 121.008 71.3354 121.047C71.5596 121.086 71.7669 121.192 71.9307 121.35C72.0944 121.508 72.2072 121.711 72.2544 121.934C72.3016 122.156 72.281 122.388 72.1955 122.599C72.1099 122.81 71.9632 122.99 71.7742 123.117C71.5852 123.244 71.3626 123.311 71.135 123.31C70.9872 123.318 70.8392 123.296 70.7004 123.244C70.5616 123.193 70.435 123.113 70.3284 123.01C70.2219 122.908 70.1377 122.784 70.0812 122.647C70.0247 122.51 69.997 122.363 70 122.215ZM71.77 122.215C71.7632 122.091 71.7202 121.972 71.6464 121.872C71.5726 121.773 71.4712 121.697 71.3548 121.654C71.2383 121.611 71.1119 121.603 70.9911 121.632C70.8703 121.66 70.7605 121.723 70.6751 121.813C70.5898 121.903 70.5327 122.016 70.5109 122.138C70.4891 122.261 70.5035 122.386 70.5525 122.5C70.6014 122.614 70.6826 122.712 70.7862 122.78C70.8897 122.848 71.011 122.885 71.135 122.885C71.2225 122.888 71.3096 122.873 71.3907 122.84C71.4718 122.807 71.545 122.757 71.6054 122.694C71.6659 122.63 71.7122 122.555 71.7415 122.473C71.7707 122.39 71.7821 122.302 71.775 122.215H71.77Z" fill="white"/>
<path d="M74.8501 120.315V123.28H74.3501V123C74.2637 123.101 74.1553 123.182 74.0331 123.235C73.9108 123.287 73.7781 123.312 73.6451 123.305C73.3681 123.286 73.1086 123.163 72.919 122.96C72.7295 122.757 72.624 122.49 72.624 122.213C72.624 121.935 72.7295 121.668 72.919 121.465C73.1086 121.262 73.3681 121.139 73.6451 121.12C73.7732 121.114 73.9012 121.136 74.0197 121.185C74.1382 121.235 74.2442 121.31 74.3301 121.405V120.31L74.8501 120.315ZM74.3501 122.215C74.3432 122.091 74.3003 121.972 74.2265 121.872C74.1527 121.773 74.0513 121.697 73.9348 121.654C73.8183 121.611 73.6919 121.604 73.5711 121.632C73.4503 121.66 73.3405 121.723 73.2551 121.813C73.1698 121.903 73.1127 122.016 73.0909 122.138C73.0691 122.261 73.0836 122.386 73.1325 122.5C73.1814 122.614 73.2627 122.712 73.3662 122.78C73.4697 122.848 73.591 122.885 73.7151 122.885C73.8027 122.888 73.8901 122.873 73.9714 122.84C74.0527 122.807 74.1261 122.757 74.187 122.694C74.2478 122.631 74.2947 122.555 74.3245 122.473C74.3543 122.39 74.3664 122.303 74.3601 122.215H74.3501Z" fill="white"/>
<path d="M77.575 121.145V123.28H77.075V123C76.9895 123.098 76.8832 123.176 76.7639 123.228C76.6445 123.28 76.5151 123.304 76.385 123.3C76.2593 123.311 76.1328 123.295 76.0145 123.251C75.8962 123.207 75.7893 123.137 75.7016 123.046C75.6138 122.956 75.5475 122.847 75.5074 122.727C75.4673 122.607 75.4545 122.48 75.47 122.355V121.135H75.97V122.29C75.97 122.675 76.155 122.86 76.47 122.86C76.785 122.86 77.055 122.645 77.055 122.215V121.135L77.575 121.145Z" fill="white"/>
<path d="M78.0551 122.215C78.0533 122.066 78.0825 121.918 78.1408 121.781C78.1991 121.643 78.2852 121.519 78.3937 121.417C78.5023 121.315 78.6308 121.236 78.7713 121.186C78.9118 121.135 79.0612 121.115 79.2101 121.125C79.3945 121.111 79.579 121.151 79.7414 121.24C79.9037 121.329 80.0369 121.462 80.1251 121.625L79.7401 121.85C79.6858 121.758 79.6082 121.682 79.5152 121.629C79.4222 121.577 79.3169 121.549 79.2101 121.55C79.0324 121.55 78.862 121.621 78.7363 121.746C78.6107 121.872 78.5401 122.042 78.5401 122.22C78.5401 122.398 78.6107 122.568 78.7363 122.694C78.862 122.819 79.0324 122.89 79.2101 122.89C79.3169 122.891 79.4222 122.864 79.5152 122.811C79.6082 122.758 79.6858 122.682 79.7401 122.59L80.1251 122.815C80.0333 122.975 79.8993 123.106 79.7379 123.194C79.5765 123.282 79.3938 123.324 79.2101 123.315C79.0605 123.325 78.9106 123.303 78.7698 123.252C78.6289 123.201 78.5002 123.121 78.3917 123.018C78.2831 122.915 78.1972 122.79 78.1393 122.652C78.0814 122.514 78.0527 122.365 78.0551 122.215Z" fill="white"/>
<path d="M81.87 123.165C81.7244 123.268 81.5483 123.319 81.37 123.31C81.2718 123.323 81.172 123.313 81.0781 123.281C80.9842 123.25 80.8986 123.198 80.8279 123.128C80.7571 123.059 80.703 122.975 80.6696 122.881C80.6362 122.788 80.6244 122.689 80.635 122.59V121.565H80.28V121.165H80.635V120.665H81.135V121.165H81.71V121.565H81.15V122.565C81.1439 122.607 81.1472 122.649 81.1598 122.69C81.1724 122.73 81.1939 122.767 81.2227 122.797C81.2516 122.828 81.287 122.852 81.3264 122.867C81.3657 122.882 81.408 122.889 81.45 122.885C81.5506 122.886 81.6487 122.854 81.73 122.795L81.87 123.165Z" fill="white"/>
<path d="M82.2151 120.5C82.2157 120.46 82.2244 120.42 82.2407 120.382C82.2569 120.345 82.2804 120.312 82.3097 120.284C82.339 120.256 82.3736 120.234 82.4115 120.22C82.4493 120.205 82.4896 120.199 82.5301 120.2C82.5703 120.197 82.6107 120.203 82.6487 120.216C82.6868 120.229 82.7218 120.25 82.7517 120.277C82.7816 120.304 82.8057 120.337 82.8226 120.374C82.8395 120.41 82.8488 120.45 82.8501 120.49C82.8508 120.532 82.843 120.573 82.827 120.612C82.8111 120.65 82.7874 120.685 82.7574 120.714C82.7274 120.744 82.6917 120.766 82.6526 120.781C82.6135 120.796 82.5718 120.802 82.5301 120.8C82.4895 120.802 82.4488 120.796 82.4107 120.782C82.3725 120.767 82.3377 120.746 82.3082 120.718C82.2787 120.69 82.2553 120.656 82.2393 120.618C82.2233 120.581 82.215 120.541 82.2151 120.5ZM82.2801 121.15H82.7801V123.285H82.2801V121.15Z" fill="white"/>
<path d="M83.26 122.215C83.2511 121.988 83.3103 121.763 83.4302 121.569C83.5501 121.376 83.7252 121.223 83.9328 121.13C84.1405 121.037 84.3713 121.008 84.5954 121.047C84.8196 121.086 85.0269 121.192 85.1907 121.35C85.3544 121.508 85.4672 121.711 85.5144 121.934C85.5616 122.156 85.541 122.388 85.4555 122.599C85.3699 122.81 85.2232 122.99 85.0342 123.117C84.8452 123.244 84.6226 123.311 84.395 123.31C84.2472 123.318 84.0993 123.296 83.9605 123.244C83.8217 123.193 83.695 123.113 83.5884 123.01C83.4819 122.908 83.3977 122.784 83.3412 122.647C83.2847 122.51 83.2571 122.363 83.26 122.215ZM85.03 122.215C85.0232 122.091 84.9802 121.972 84.9064 121.872C84.8326 121.773 84.7312 121.697 84.6148 121.654C84.4983 121.611 84.3719 121.603 84.2511 121.632C84.1303 121.66 84.0205 121.723 83.9351 121.813C83.8498 121.903 83.7927 122.016 83.7709 122.138C83.7491 122.261 83.7635 122.386 83.8125 122.5C83.8614 122.614 83.9426 122.712 84.0462 122.78C84.1497 122.848 84.271 122.885 84.395 122.885C84.4821 122.887 84.5687 122.871 84.6492 122.838C84.7296 122.805 84.8022 122.755 84.8621 122.692C84.922 122.629 84.9679 122.553 84.9968 122.471C85.0258 122.389 85.0371 122.302 85.03 122.215Z" fill="white"/>
<path d="M88.12 122.06V123.28H87.62V122.125C87.62 121.745 87.43 121.56 87.12 121.56C87.0361 121.555 86.9521 121.568 86.874 121.599C86.796 121.631 86.7259 121.679 86.6689 121.741C86.6119 121.803 86.5694 121.876 86.5445 121.957C86.5196 122.037 86.5129 122.122 86.525 122.205V123.28H86.025V121.145H86.5V121.425C86.5938 121.324 86.7087 121.244 86.8366 121.193C86.9645 121.141 87.1022 121.118 87.24 121.125C87.3623 121.117 87.4848 121.137 87.5987 121.182C87.7127 121.227 87.8153 121.297 87.8993 121.386C87.9833 121.475 88.0466 121.582 88.0847 121.698C88.1229 121.815 88.1349 121.938 88.12 122.06Z" fill="white"/>
<path opacity="0.7" d="M127.515 76.2101H62.5V117.4H127.515V76.2101Z" fill="white"/>
<path opacity="0.5" d="M127.515 116.07H62.5V117.4H127.515V116.07Z" fill="black"/>
<path opacity="0.6" d="M85.025 116.07H62.5V117.4H85.025V116.07Z" fill="white"/>
<path d="M86.7551 116.78C86.7551 117.093 86.6623 117.398 86.4885 117.658C86.3146 117.918 86.0676 118.121 85.7786 118.24C85.4896 118.36 85.1716 118.391 84.865 118.329C84.5584 118.268 84.2769 118.117 84.0561 117.896C83.8353 117.674 83.6852 117.392 83.6248 117.085C83.5644 116.778 83.5964 116.461 83.7168 116.172C83.8372 115.883 84.0404 115.637 84.3009 115.464C84.5614 115.291 84.8674 115.199 85.1801 115.2C85.3873 115.2 85.5926 115.241 85.784 115.32C85.9754 115.4 86.1492 115.516 86.2956 115.663C86.4419 115.81 86.5578 115.984 86.6366 116.176C86.7155 116.367 86.7557 116.573 86.7551 116.78Z" fill="white"/>
<path opacity="0.4" d="M121.115 120.825L123.71 123.42L126.3 120.825H121.115Z" fill="white"/>
<path opacity="0.4" d="M127.515 129.04H62.5V152.295H127.515V129.04Z" fill="white"/>
<path opacity="0.3" d="M88.4151 131.705H65.5701V149.635H88.4151V131.705Z" fill="black"/>
<path d="M91.42 134.055C91.4305 133.833 91.5059 133.619 91.6368 133.44C91.7678 133.26 91.9486 133.123 92.1568 133.045C92.3649 132.967 92.5913 132.953 92.8079 133.002C93.0245 133.052 93.2217 133.164 93.375 133.325L93.125 133.56C93.0547 133.481 92.9683 133.419 92.8717 133.377C92.7751 133.334 92.6705 133.313 92.565 133.315C92.4412 133.315 92.3194 133.347 92.2107 133.406C92.1021 133.466 92.0101 133.551 91.9432 133.656C91.8764 133.76 91.8368 133.879 91.828 134.003C91.8192 134.126 91.8416 134.25 91.8931 134.363C91.9446 134.475 92.0236 134.573 92.1227 134.648C92.2219 134.722 92.3381 134.77 92.4607 134.788C92.5833 134.805 92.7084 134.792 92.8244 134.749C92.9405 134.705 93.0439 134.634 93.125 134.54L93.375 134.785C93.2217 134.946 93.0245 135.058 92.8079 135.108C92.5913 135.158 92.3649 135.143 92.1568 135.065C91.9486 134.987 91.7678 134.85 91.6368 134.671C91.5059 134.491 91.4305 134.277 91.42 134.055Z" fill="white"/>
<path d="M95.2951 134.185V135.105H94.9201V134.235C94.9201 133.95 94.7801 133.81 94.5401 133.81C94.4756 133.806 94.411 133.817 94.3512 133.841C94.2914 133.866 94.2379 133.904 94.1946 133.952C94.1514 134 94.1195 134.057 94.1014 134.119C94.0833 134.181 94.0794 134.246 94.0901 134.31V135.12H93.7151V132.895H94.0901V133.705C94.1601 133.636 94.2439 133.581 94.336 133.546C94.4281 133.511 94.5266 133.495 94.6251 133.5C94.7162 133.493 94.8077 133.506 94.8932 133.538C94.9787 133.57 95.0561 133.621 95.12 133.686C95.1838 133.751 95.2326 133.83 95.2629 133.916C95.2931 134.002 95.3041 134.094 95.2951 134.185Z" fill="white"/>
<path d="M97.11 134.165V135.105H96.76V134.91C96.7009 134.984 96.6243 135.043 96.5371 135.08C96.4498 135.118 96.3547 135.133 96.26 135.125C95.895 135.125 95.665 134.925 95.665 134.625C95.665 134.325 95.845 134.125 96.33 134.125H96.74C96.74 133.905 96.61 133.775 96.345 133.775C96.1649 133.769 95.9884 133.826 95.845 133.935L95.695 133.66C95.8953 133.525 96.1334 133.456 96.375 133.465C96.845 133.5 97.11 133.705 97.11 134.165ZM96.735 134.605V134.415H96.35C96.095 134.415 96.025 134.515 96.025 134.63C96.025 134.745 96.14 134.85 96.33 134.85C96.4148 134.858 96.4998 134.838 96.5727 134.794C96.6455 134.75 96.7024 134.684 96.735 134.605Z" fill="white"/>
<path d="M99.295 134.305C99.3007 134.414 99.2835 134.523 99.2447 134.624C99.2058 134.726 99.1461 134.818 99.0693 134.896C98.9925 134.973 98.9004 135.033 98.7989 135.073C98.6974 135.112 98.5888 135.13 98.48 135.125C98.3862 135.126 98.2933 135.108 98.2072 135.071C98.121 135.034 98.0436 134.979 97.98 134.91V135.685H97.61V133.5H97.965V133.71C98.0328 133.637 98.116 133.581 98.2086 133.544C98.3012 133.508 98.4008 133.493 98.5 133.5C98.6058 133.498 98.711 133.517 98.809 133.557C98.9071 133.597 98.996 133.657 99.0704 133.732C99.1447 133.807 99.203 133.897 99.2416 133.995C99.2802 134.094 99.2984 134.199 99.295 134.305ZM98.91 134.305C98.9149 134.241 98.9063 134.176 98.8848 134.115C98.8633 134.054 98.8293 133.999 98.7851 133.952C98.7409 133.904 98.6874 133.867 98.628 133.842C98.5685 133.817 98.5045 133.804 98.44 133.805C98.3074 133.805 98.1802 133.858 98.0864 133.951C97.9927 134.045 97.94 134.172 97.94 134.305C97.94 134.438 97.9927 134.565 98.0864 134.659C98.1802 134.752 98.3074 134.805 98.44 134.805C98.5045 134.806 98.5685 134.793 98.628 134.768C98.6874 134.743 98.7409 134.706 98.7851 134.659C98.8293 134.612 98.8633 134.556 98.8848 134.495C98.9063 134.434 98.9149 134.369 98.91 134.305Z" fill="white"/>
<path d="M100.615 135C100.511 135.076 100.384 135.115 100.255 135.11C100.181 135.118 100.107 135.11 100.037 135.086C99.9666 135.063 99.9026 135.023 99.8495 134.972C99.7964 134.92 99.7554 134.857 99.7296 134.788C99.7037 134.718 99.6936 134.644 99.7001 134.57V133.8H99.4401V133.5H99.7001V133.135H100.075V133.5H100.5V133.8H100.07V134.56C100.065 134.591 100.068 134.623 100.077 134.653C100.087 134.684 100.103 134.711 100.125 134.734C100.146 134.757 100.173 134.775 100.202 134.787C100.232 134.798 100.264 134.803 100.295 134.8C100.37 134.801 100.444 134.779 100.505 134.735L100.615 135Z" fill="white"/>
<path d="M102.37 134.425H101.11C101.137 134.536 101.202 134.634 101.293 134.703C101.384 134.772 101.496 134.808 101.61 134.805C101.69 134.808 101.77 134.795 101.845 134.766C101.92 134.736 101.988 134.692 102.045 134.635L102.245 134.865C102.124 134.985 101.97 135.069 101.803 135.105C101.637 135.141 101.463 135.13 101.302 135.071C101.142 135.012 101.001 134.909 100.897 134.773C100.793 134.638 100.73 134.475 100.715 134.305C100.712 134.196 100.732 134.087 100.773 133.986C100.813 133.884 100.875 133.792 100.952 133.715C101.03 133.638 101.123 133.578 101.225 133.539C101.327 133.499 101.436 133.481 101.545 133.485C101.654 133.481 101.762 133.499 101.864 133.539C101.965 133.579 102.057 133.64 102.133 133.718C102.209 133.796 102.268 133.888 102.307 133.99C102.345 134.092 102.361 134.201 102.355 134.31C102.375 134.34 102.37 134.385 102.37 134.425ZM101.11 134.175H102C101.981 134.069 101.925 133.973 101.842 133.904C101.759 133.835 101.655 133.798 101.547 133.798C101.44 133.798 101.336 133.835 101.253 133.904C101.17 133.973 101.114 134.069 101.095 134.175H101.11Z" fill="white"/>
<path d="M103.66 133.5V133.855H103.575C103.51 133.851 103.444 133.861 103.384 133.885C103.323 133.909 103.268 133.947 103.224 133.994C103.179 134.042 103.146 134.1 103.126 134.162C103.106 134.224 103.101 134.29 103.11 134.355V135.135H102.735V133.5H103.09V133.735C103.158 133.651 103.245 133.585 103.345 133.544C103.444 133.503 103.553 133.488 103.66 133.5Z" fill="white"/>
<path d="M104.71 134.055C104.71 133.365 105.085 132.975 105.585 132.975C106.085 132.975 106.465 133.365 106.465 134.055C106.465 134.745 106.085 135.135 105.585 135.135C105.085 135.135 104.71 134.745 104.71 134.055ZM106.07 134.055C106.07 133.555 105.87 133.315 105.57 133.315C105.27 133.315 105.07 133.545 105.07 134.055C105.07 134.565 105.27 134.795 105.57 134.795C105.87 134.795 106.07 134.56 106.07 134.055Z" fill="white"/>
<path d="M107.44 133V135.1H107.05V133.325H106.605V133H107.44Z" fill="white"/>
<path opacity="0.5" d="M121.67 137.205H91.84C91.5363 137.205 91.29 137.451 91.29 137.755V137.785C91.29 138.089 91.5363 138.335 91.84 138.335H121.67C121.974 138.335 122.22 138.089 122.22 137.785V137.755C122.22 137.451 121.974 137.205 121.67 137.205Z" fill="white"/>
<path opacity="0.5" d="M116.17 139.705H91.84C91.5363 139.705 91.29 139.951 91.29 140.255V140.285C91.29 140.589 91.5363 140.835 91.84 140.835H116.17C116.474 140.835 116.72 140.589 116.72 140.285V140.255C116.72 139.951 116.474 139.705 116.17 139.705Z" fill="white"/>
<path opacity="0.6" d="M73.2101 137.395V143.94L79.7551 140.67L73.2101 137.395Z" fill="white"/>
<path d="M126.935 73.3101L124.62 71.3151L122.31 73.3101V67.8251H126.935V73.3101Z" fill="#00677D"/>
<path d="M118.59 67.8251H115.09C114.861 67.8251 114.641 67.9162 114.478 68.0784C114.316 68.2406 114.225 68.4607 114.225 68.6901V71.0701C114.226 71.2991 114.318 71.5183 114.48 71.6803C114.642 71.8422 114.861 71.9338 115.09 71.9351H116.27V73.3101L117.17 71.9351H118.57C118.8 71.9351 119.02 71.8439 119.182 71.6817C119.344 71.5195 119.435 71.2995 119.435 71.0701V68.6901C119.436 68.4637 119.348 68.2459 119.19 68.084C119.032 67.922 118.816 67.829 118.59 67.8251Z" fill="#00677D"/>
<path d="M111.61 68.5C110.97 67.445 109.73 67.84 109.085 68.655C108.45 67.835 107.21 67.425 106.555 68.47C105.455 70.24 107.695 71.9 108.76 72.55L109.06 72.735L109.365 72.555C110.43 71.895 112.695 70.265 111.61 68.5Z" fill="#00677D"/>
<path d="M85.795 71.6901H63.71C63.0417 71.6901 62.5 72.2318 62.5 72.9001V72.9751C62.5 73.6433 63.0417 74.1851 63.71 74.1851H85.795C86.4633 74.1851 87.005 73.6433 87.005 72.9751V72.9001C87.005 72.2318 86.4633 71.6901 85.795 71.6901Z" fill="#00677D"/>
<path d="M93.005 67.8251H63.71C63.0417 67.8251 62.5 68.3668 62.5 69.0351V69.1101C62.5 69.7783 63.0417 70.3201 63.71 70.3201H93.005C93.6733 70.3201 94.215 69.7783 94.215 69.1101V69.0351C94.215 68.3668 93.6733 67.8251 93.005 67.8251Z" fill="#00677D"/>
<path opacity="0.4" d="M127.515 155.045H62.5V178.3H127.515V155.045Z" fill="white"/>
<path opacity="0.3" d="M88.4151 157.705H65.5701V175.635H88.4151V157.705Z" fill="black"/>
<path d="M91.42 160.055C91.4305 159.833 91.5059 159.619 91.6368 159.44C91.7678 159.26 91.9486 159.123 92.1568 159.045C92.3649 158.967 92.5913 158.953 92.8079 159.002C93.0245 159.052 93.2217 159.164 93.375 159.325L93.125 159.565C93.0547 159.486 92.9683 159.424 92.8717 159.382C92.7751 159.339 92.6705 159.318 92.565 159.32C92.4631 159.312 92.3605 159.325 92.2638 159.358C92.167 159.391 92.0782 159.444 92.003 159.513C91.9277 159.583 91.8676 159.667 91.8266 159.76C91.7855 159.854 91.7643 159.955 91.7643 160.058C91.7643 160.16 91.7855 160.261 91.8266 160.355C91.8676 160.448 91.9277 160.533 92.003 160.602C92.0782 160.671 92.167 160.724 92.2638 160.757C92.3605 160.791 92.4631 160.803 92.565 160.795C92.6708 160.796 92.7756 160.774 92.8722 160.731C92.9688 160.688 93.055 160.624 93.125 160.545L93.375 160.785C93.2217 160.946 93.0245 161.058 92.8079 161.108C92.5913 161.158 92.3649 161.143 92.1568 161.065C91.9486 160.987 91.7678 160.85 91.6368 160.671C91.5059 160.491 91.4305 160.277 91.42 160.055Z" fill="white"/>
<path d="M95.2951 160.19V161.105H94.9201V160.235C94.9201 159.95 94.7801 159.815 94.5401 159.815C94.4753 159.81 94.4103 159.82 94.35 159.844C94.2897 159.869 94.2358 159.906 94.1923 159.955C94.1489 160.003 94.117 160.06 94.0993 160.123C94.0816 160.185 94.0784 160.251 94.0901 160.315V161.125H93.7151V158.9H94.0901V159.71C94.1608 159.642 94.2447 159.588 94.3366 159.553C94.4286 159.518 94.5267 159.501 94.6251 159.505C94.716 159.499 94.8071 159.513 94.8922 159.545C94.9773 159.577 95.0543 159.628 95.118 159.693C95.1817 159.758 95.2305 159.836 95.2611 159.922C95.2916 160.008 95.3032 160.099 95.2951 160.19Z" fill="white"/>
<path d="M97.11 160.165V161.105H96.76V160.91C96.7015 160.985 96.625 161.044 96.5376 161.082C96.4502 161.119 96.3547 161.134 96.26 161.125C95.895 161.125 95.665 160.925 95.665 160.625C95.665 160.325 95.845 160.125 96.33 160.125H96.74C96.74 159.905 96.61 159.78 96.345 159.78C96.1659 159.775 95.9901 159.83 95.845 159.935L95.695 159.665C95.8936 159.525 96.1326 159.455 96.375 159.465C96.845 159.5 97.11 159.705 97.11 160.165ZM96.735 160.605V160.42H96.35C96.095 160.42 96.025 160.515 96.025 160.63C96.025 160.745 96.14 160.855 96.33 160.855C96.4153 160.861 96.5004 160.841 96.5731 160.796C96.6459 160.751 96.7026 160.684 96.735 160.605Z" fill="white"/>
<path d="M99.295 160.305C99.3007 160.414 99.2835 160.523 99.2447 160.624C99.2058 160.726 99.1461 160.819 99.0693 160.896C98.9925 160.973 98.9004 161.033 98.7989 161.073C98.6974 161.112 98.5888 161.13 98.48 161.125C98.3862 161.126 98.2933 161.108 98.2072 161.071C98.121 161.034 98.0436 160.979 97.98 160.91V161.685H97.61V159.5H97.965V159.71C98.0321 159.636 98.1152 159.579 98.208 159.543C98.3008 159.506 98.4007 159.492 98.5 159.5C98.6058 159.498 98.711 159.517 98.809 159.557C98.9071 159.597 98.996 159.657 99.0704 159.732C99.1447 159.807 99.203 159.897 99.2416 159.995C99.2802 160.094 99.2984 160.199 99.295 160.305ZM98.91 160.305C98.9149 160.241 98.9063 160.176 98.8848 160.115C98.8633 160.054 98.8293 159.999 98.7851 159.952C98.7409 159.905 98.6874 159.867 98.628 159.842C98.5685 159.817 98.5045 159.804 98.44 159.805C98.3074 159.805 98.1802 159.858 98.0864 159.952C97.9927 160.045 97.94 160.172 97.94 160.305C97.94 160.438 97.9927 160.565 98.0864 160.659C98.1802 160.752 98.3074 160.805 98.44 160.805C98.5045 160.806 98.5685 160.793 98.628 160.768C98.6874 160.743 98.7409 160.706 98.7851 160.659C98.8293 160.612 98.8633 160.556 98.8848 160.495C98.9063 160.434 98.9149 160.369 98.91 160.305Z" fill="white"/>
<path d="M100.615 161C100.509 161.073 100.383 161.109 100.255 161.105C100.181 161.113 100.107 161.105 100.037 161.081C99.9666 161.058 99.9026 161.018 99.8495 160.967C99.7964 160.915 99.7554 160.852 99.7296 160.783C99.7037 160.713 99.6936 160.639 99.7001 160.565V159.795H99.4401V159.5H99.7001V159.135H100.075V159.5H100.5V159.8H100.07V160.565C100.065 160.596 100.068 160.628 100.077 160.658C100.087 160.688 100.103 160.715 100.125 160.738C100.146 160.761 100.173 160.778 100.203 160.789C100.232 160.8 100.264 160.803 100.295 160.8C100.37 160.801 100.444 160.779 100.505 160.735L100.615 161Z" fill="white"/>
<path d="M102.37 160.425H101.11C101.136 160.537 101.201 160.636 101.292 160.706C101.383 160.777 101.495 160.813 101.61 160.81C101.691 160.812 101.771 160.798 101.846 160.768C101.921 160.738 101.988 160.693 102.045 160.635L102.245 160.865C102.124 160.985 101.97 161.069 101.803 161.105C101.637 161.142 101.463 161.13 101.302 161.071C101.142 161.012 101.001 160.909 100.897 160.773C100.793 160.638 100.73 160.475 100.715 160.305C100.712 160.196 100.732 160.087 100.773 159.986C100.813 159.884 100.875 159.792 100.952 159.715C101.03 159.639 101.123 159.578 101.225 159.539C101.327 159.499 101.436 159.481 101.545 159.485C101.654 159.481 101.763 159.501 101.864 159.541C101.965 159.582 102.057 159.643 102.133 159.721C102.209 159.799 102.268 159.893 102.307 159.995C102.345 160.097 102.361 160.206 102.355 160.315C102.375 160.345 102.37 160.39 102.37 160.425ZM101.11 160.175H102C101.981 160.069 101.925 159.973 101.842 159.904C101.759 159.836 101.655 159.798 101.547 159.798C101.44 159.798 101.336 159.836 101.253 159.904C101.17 159.973 101.114 160.069 101.095 160.175H101.11Z" fill="white"/>
<path d="M103.66 159.5V159.86C103.632 159.855 103.603 159.855 103.575 159.86C103.509 159.855 103.444 159.864 103.382 159.888C103.321 159.912 103.266 159.949 103.221 159.997C103.177 160.045 103.143 160.103 103.124 160.166C103.105 160.229 103.1 160.295 103.11 160.36V161.135H102.735V159.5H103.09V159.735C103.157 159.65 103.244 159.584 103.344 159.543C103.444 159.502 103.553 159.487 103.66 159.5Z" fill="white"/>
<path d="M104.71 160.055C104.71 159.365 105.085 158.975 105.585 158.975C106.085 158.975 106.465 159.365 106.465 160.055C106.465 160.745 106.085 161.135 105.585 161.135C105.085 161.135 104.71 160.745 104.71 160.055ZM106.07 160.055C106.07 159.555 105.87 159.315 105.57 159.315C105.27 159.315 105.07 159.55 105.07 160.055C105.07 160.56 105.27 160.795 105.57 160.795C105.87 160.795 106.07 160.56 106.07 160.055Z" fill="white"/>
<path d="M108.235 160.775V161.105H106.685V160.845L107.52 160.055C107.725 159.86 107.76 159.735 107.76 159.62C107.76 159.425 107.625 159.315 107.37 159.315C107.275 159.31 107.181 159.327 107.094 159.365C107.007 159.403 106.93 159.461 106.87 159.535L106.6 159.325C106.696 159.208 106.818 159.116 106.956 159.055C107.094 158.994 107.244 158.967 107.395 158.975C107.855 158.975 108.145 159.205 108.145 159.58C108.143 159.709 108.111 159.836 108.051 159.951C107.991 160.066 107.905 160.165 107.8 160.24L107.24 160.775H108.235Z" fill="white"/>
<path opacity="0.5" d="M121.67 163.205H91.84C91.5363 163.205 91.29 163.451 91.29 163.755V163.785C91.29 164.089 91.5363 164.335 91.84 164.335H121.67C121.974 164.335 122.22 164.089 122.22 163.785V163.755C122.22 163.451 121.974 163.205 121.67 163.205Z" fill="white"/>
<path opacity="0.5" d="M116.17 165.705H91.84C91.5363 165.705 91.29 165.951 91.29 166.255V166.285C91.29 166.589 91.5363 166.835 91.84 166.835H116.17C116.474 166.835 116.72 166.589 116.72 166.285V166.255C116.72 165.951 116.474 165.705 116.17 165.705Z" fill="white"/>
<path opacity="0.6" d="M73.2101 163.4V169.945L79.7551 166.67L73.2101 163.4Z" fill="white"/>
<path d="M69.5751 80.4651V84.1351H68.8951V82.5601H67.0001V84.1351H66.3151V80.4651H67.0001V81.9651H68.8951V80.4651H69.5751Z" fill="#00677D"/>
<path d="M70.2701 82.735C70.2571 82.4359 70.3339 82.1398 70.4907 81.8847C70.6474 81.6297 70.8769 81.4273 71.1496 81.3038C71.4223 81.1802 71.7257 81.1411 72.0208 81.1914C72.316 81.2417 72.5893 81.3792 72.8056 81.5862C73.0219 81.7931 73.1714 82.0601 73.2347 82.3527C73.2981 82.6453 73.2724 82.9501 73.161 83.228C73.0497 83.5059 72.8577 83.7441 72.6098 83.912C72.3619 84.0799 72.0695 84.1698 71.7701 84.17C71.5754 84.1825 71.3802 84.1545 71.1969 84.0877C71.0136 84.0208 70.8461 83.9167 70.7051 83.7818C70.5641 83.6469 70.4527 83.4842 70.3778 83.3041C70.3029 83.1239 70.2662 82.9301 70.2701 82.735ZM72.5901 82.735C72.5813 82.5731 72.5252 82.4173 72.4289 82.2868C72.3325 82.1564 72.2 82.057 72.0478 82.001C71.8955 81.9451 71.7303 81.9349 71.5723 81.9718C71.4144 82.0088 71.2708 82.0912 71.1591 82.2088C71.0475 82.3265 70.9728 82.4743 70.9443 82.634C70.9157 82.7936 70.9346 82.9581 70.9985 83.1072C71.0624 83.2563 71.1686 83.3833 71.304 83.4727C71.4393 83.5621 71.5979 83.6098 71.7601 83.61C71.8736 83.6124 71.9864 83.5911 72.0912 83.5474C72.196 83.5036 72.2905 83.4385 72.3686 83.3561C72.4468 83.2737 72.5068 83.1759 72.545 83.069C72.5831 82.962 72.5985 82.8483 72.5901 82.735Z" fill="#00677D"/>
<path d="M78.17 81.3351L77.135 84.1351H76.5L75.775 82.2051L75.04 84.1351H74.41L73.385 81.3351H74L74.735 83.4001L75.51 81.3351H76.06L76.815 83.4101L77.575 81.3351H78.17Z" fill="#00677D"/>
<path d="M81.7501 84C81.5689 84.1315 81.3488 84.1984 81.1251 84.19C80.9966 84.2065 80.8661 84.1937 80.7432 84.1527C80.6204 84.1117 80.5084 84.0434 80.4156 83.953C80.3228 83.8627 80.2516 83.7525 80.2074 83.6308C80.1631 83.509 80.147 83.3789 80.1601 83.25V81.9H79.6951V81.4H80.1601V80.76H80.8151V81.4H81.5651V81.9H80.8151V83.23C80.8151 83.505 80.9501 83.65 81.2001 83.65C81.3329 83.6548 81.4634 83.6143 81.5701 83.535L81.7501 84Z" fill="#00677D"/>
<path d="M81.97 82.735C81.9571 82.4359 82.0339 82.1398 82.1906 81.8847C82.3474 81.6297 82.5768 81.4273 82.8495 81.3038C83.1222 81.1802 83.4257 81.1411 83.7208 81.1914C84.0159 81.2417 84.2892 81.3792 84.5055 81.5862C84.7219 81.7931 84.8713 82.0601 84.9347 82.3527C84.998 82.6453 84.9723 82.9501 84.861 83.228C84.7496 83.5059 84.5576 83.7441 84.3098 83.912C84.0619 84.0799 83.7694 84.1698 83.47 84.17C83.2751 84.1833 83.0796 84.1558 82.896 84.0892C82.7123 84.0227 82.5445 83.9186 82.4034 83.7835C82.2622 83.6485 82.1508 83.4855 82.0762 83.305C82.0016 83.1244 81.9654 82.9303 81.97 82.735ZM84.29 82.735C84.2813 82.5733 84.2253 82.4177 84.1292 82.2873C84.033 82.157 83.9008 82.0576 83.7489 82.0015C83.5969 81.9454 83.4319 81.9349 83.2741 81.9715C83.1163 82.008 82.9726 82.0899 82.8608 82.2071C82.749 82.3242 82.6739 82.4716 82.6448 82.6309C82.6157 82.7903 82.6338 82.9546 82.697 83.1038C82.7602 83.2529 82.8656 83.3803 83.0003 83.4703C83.135 83.5602 83.2931 83.6088 83.455 83.61C83.569 83.6132 83.6823 83.5923 83.7877 83.5489C83.8931 83.5055 83.9882 83.4405 84.0669 83.358C84.1456 83.2755 84.2061 83.1775 84.2445 83.0702C84.283 82.9629 84.2985 82.8487 84.29 82.735Z" fill="#00677D"/>
<path d="M66.3151 84.9651H67.0001V88.6351H66.3151V84.9651Z" fill="#00677D"/>
<path d="M70.685 87.03V88.635H70.03V87.135C70.03 86.635 69.78 86.395 69.36 86.395C69.2503 86.3888 69.1405 86.407 69.0387 86.4482C68.9368 86.4895 68.8453 86.5527 68.7707 86.6335C68.6962 86.7143 68.6404 86.8105 68.6074 86.9154C68.5745 87.0203 68.5651 87.1311 68.58 87.24V88.655H67.925V85.855H68.55V86.215C68.6722 86.0829 68.822 85.9794 68.9889 85.9119C69.1557 85.8445 69.3354 85.8148 69.515 85.825C69.6748 85.8132 69.8351 85.8365 69.9848 85.8934C70.1345 85.9503 70.2699 86.0393 70.3815 86.1542C70.4931 86.2691 70.5781 86.4071 70.6305 86.5584C70.683 86.7097 70.7016 86.8707 70.685 87.03Z" fill="#00677D"/>
<path d="M71.315 87.235C71.3126 87.0406 71.3503 86.8477 71.4257 86.6685C71.5012 86.4892 71.6128 86.3275 71.7535 86.1933C71.8943 86.0591 72.0612 85.9554 72.2438 85.8886C72.4264 85.8218 72.6209 85.7933 72.815 85.805C73.0555 85.7877 73.2959 85.8397 73.5078 85.9549C73.7196 86.0701 73.8939 86.2437 74.01 86.455L73.51 86.75C73.4391 86.6293 73.3374 86.5295 73.2153 86.461C73.0932 86.3924 72.955 86.3576 72.815 86.36C72.5829 86.36 72.3604 86.4522 72.1963 86.6163C72.0322 86.7804 71.94 87.003 71.94 87.235C71.94 87.4671 72.0322 87.6897 72.1963 87.8537C72.3604 88.0178 72.5829 88.11 72.815 88.11C72.955 88.1125 73.0932 88.0776 73.2153 88.0091C73.3374 87.9406 73.4391 87.8408 73.51 87.72L74.01 88.015C73.8936 88.2265 73.7194 88.4004 73.5078 88.5164C73.2961 88.6324 73.0558 88.6857 72.815 88.67C72.6205 88.6818 72.4256 88.6532 72.2426 88.5861C72.0596 88.519 71.8925 88.4148 71.7517 88.2801C71.6108 88.1453 71.4994 87.983 71.4242 87.8031C71.3491 87.6233 71.3119 87.4299 71.315 87.235Z" fill="#00677D"/>
<path d="M76.2101 85.8051V86.4301C76.1602 86.4262 76.11 86.4262 76.0601 86.4301C75.9465 86.4216 75.8325 86.4386 75.7263 86.4799C75.6202 86.5211 75.5246 86.5855 75.4465 86.6684C75.3684 86.7513 75.3098 86.8505 75.2749 86.959C75.2401 87.0674 75.2299 87.1822 75.2451 87.2951V88.6551H74.5901V85.8551H75.2151V86.2651C75.3262 86.1081 75.4766 85.983 75.6512 85.9023C75.8258 85.8216 76.0185 85.7881 76.2101 85.8051Z" fill="#00677D"/>
<path d="M79.3601 87.4451H77.1651C77.2072 87.6484 77.3228 87.8292 77.4897 87.9528C77.6567 88.0763 77.8633 88.1341 78.0701 88.1151C78.2111 88.1207 78.3517 88.0965 78.4827 88.0439C78.6137 87.9914 78.7321 87.9117 78.8301 87.8101L79.1801 88.2151C79.0261 88.4167 78.8234 88.576 78.5911 88.6781C78.3588 88.7801 78.1044 88.8215 77.8517 88.7985C77.599 88.7755 77.3563 88.6887 77.1462 88.5463C76.9362 88.4039 76.7657 88.2106 76.6507 87.9844C76.5358 87.7582 76.48 87.5065 76.4888 87.2529C76.4976 86.9993 76.5705 86.7521 76.7008 86.5344C76.8311 86.3166 77.0146 86.1355 77.2339 86.008C77.4533 85.8804 77.7014 85.8106 77.9551 85.8051C78.1456 85.797 78.3358 85.829 78.5131 85.8992C78.6905 85.9694 78.8511 86.076 78.9845 86.2123C79.118 86.3486 79.2212 86.5114 79.2877 86.6902C79.3541 86.869 79.3822 87.0597 79.3701 87.2501C79.3701 87.3051 79.3651 87.3801 79.3601 87.4451ZM77.1601 87.0101H78.7451C78.7261 86.8169 78.6334 86.6385 78.4863 86.5119C78.3391 86.3852 78.1489 86.3201 77.9551 86.3301C77.7628 86.3222 77.5746 86.3866 77.4274 86.5106C77.2803 86.6346 77.1849 86.8092 77.1601 87.0001V87.0101Z" fill="#00677D"/>
<path d="M82.2651 87V88.64H81.6451V88.3C81.5414 88.4311 81.4066 88.534 81.2528 88.5996C81.0991 88.6651 80.9314 88.691 80.7651 88.675C80.1251 88.675 79.7251 88.325 79.7251 87.835C79.7251 87.345 80.0401 87.005 80.8851 87.005H81.6101V86.96C81.6101 86.58 81.3801 86.355 80.9151 86.355C80.6094 86.3518 80.311 86.4483 80.0651 86.63L79.8051 86.155C80.1539 85.918 80.5686 85.7972 80.9901 85.81C81.8001 85.805 82.2651 86.185 82.2651 87ZM81.6101 87.765V87.44H80.9351C80.4901 87.44 80.3701 87.605 80.3701 87.81C80.3701 88.015 80.5651 88.2 80.9051 88.2C81.0538 88.2093 81.2017 88.1718 81.3281 88.0929C81.4545 88.0141 81.5531 87.8977 81.6101 87.76V87.765Z" fill="#00677D"/>
<path d="M82.785 88.355L83.035 87.855C83.3368 88.0367 83.6828 88.1318 84.035 88.13C84.45 88.13 84.625 88.015 84.625 87.82C84.625 87.29 82.895 87.79 82.895 86.675C82.895 86.145 83.37 85.8 84.125 85.8C84.4893 85.7936 84.8497 85.876 85.175 86.04L84.925 86.54C84.6819 86.3955 84.4028 86.3227 84.12 86.33C83.725 86.33 83.535 86.46 83.535 86.645C83.535 87.21 85.265 86.705 85.265 87.8C85.265 88.3 84.765 88.665 83.995 88.665C83.5703 88.6802 83.1502 88.5726 82.785 88.355Z" fill="#00677D"/>
<path d="M88.4251 87.445H86.2301C86.2722 87.6484 86.3878 87.8292 86.5547 87.9527C86.7216 88.0763 86.9283 88.1341 87.1351 88.115C87.2761 88.1207 87.4167 88.0965 87.5477 88.0439C87.6787 87.9913 87.7971 87.9116 87.8951 87.81L88.2501 88.215C88.0363 88.4255 87.7668 88.5705 87.4734 88.6329C87.18 88.6954 86.8748 88.6728 86.5938 88.5678C86.3128 88.4627 86.0676 88.2796 85.8872 88.04C85.7067 87.8003 85.5984 87.5141 85.5751 87.215C85.5694 87.0244 85.6031 86.8347 85.6739 86.6577C85.7447 86.4806 85.8512 86.3201 85.9867 86.1859C86.1223 86.0518 86.2839 85.947 86.4617 85.878C86.6395 85.8091 86.8295 85.7774 87.0201 85.785C87.2106 85.7769 87.4008 85.809 87.5781 85.8792C87.7555 85.9493 87.9161 86.056 88.0495 86.1923C88.183 86.3286 88.2862 86.4914 88.3527 86.6702C88.4191 86.8489 88.4472 87.0397 88.4351 87.23C88.4351 87.305 88.4301 87.38 88.4251 87.445ZM86.2251 87.01H87.8151C87.785 86.8208 87.6884 86.6486 87.5427 86.5242C87.3969 86.3998 87.2116 86.3315 87.0201 86.3315C86.8285 86.3315 86.6432 86.3998 86.4975 86.5242C86.3518 86.6486 86.2552 86.8208 86.2251 87.01Z" fill="#00677D"/>
<path d="M68.875 90.3351L67.565 93.3601C67.506 93.6005 67.3669 93.8137 67.1706 93.9645C66.9743 94.1154 66.7325 94.1949 66.485 94.1901C66.212 94.1956 65.946 94.1034 65.735 93.9301L65.995 93.4301C66.13 93.5575 66.3093 93.6274 66.495 93.6251C66.725 93.6251 66.86 93.5151 66.995 93.2351L67.045 93.1251L65.82 90.3151H66.5L67.38 92.3851L68.265 90.3151L68.875 90.3351Z" fill="#00677D"/>
<path d="M69.0001 91.735C68.9871 91.4359 69.0639 91.1398 69.2207 90.8847C69.3774 90.6297 69.6069 90.4273 69.8796 90.3038C70.1523 90.1802 70.4557 90.1411 70.7508 90.1914C71.0459 90.2417 71.3192 90.3792 71.5356 90.5862C71.7519 90.7931 71.9014 91.0601 71.9647 91.3527C72.028 91.6453 72.0024 91.9501 71.891 92.228C71.7796 92.5059 71.5877 92.7441 71.3398 92.912C71.0919 93.0799 70.7994 93.1698 70.5001 93.17C70.3053 93.1825 70.1102 93.1545 69.9268 93.0877C69.7435 93.0208 69.5761 92.9167 69.4351 92.7818C69.2941 92.6469 69.1826 92.4842 69.1078 92.3041C69.0329 92.1239 68.9962 91.9301 69.0001 91.735ZM71.3201 91.735C71.3113 91.5731 71.2552 91.4173 71.1588 91.2868C71.0625 91.1564 70.93 91.057 70.7778 91.001C70.6255 90.9451 70.4602 90.9349 70.3023 90.9718C70.1444 91.0088 70.0007 91.0912 69.8891 91.2088C69.7775 91.3265 69.7028 91.4743 69.6742 91.634C69.6457 91.7936 69.6646 91.9581 69.7285 92.1072C69.7924 92.2563 69.8986 92.3833 70.034 92.4727C70.1693 92.5621 70.3279 92.6098 70.4901 92.61C70.6015 92.609 70.7115 92.5851 70.8133 92.5398C70.9152 92.4946 71.0066 92.4289 71.0821 92.3469C71.1575 92.2649 71.2153 92.1683 71.252 92.063C71.2886 91.9578 71.3033 91.8462 71.2951 91.735H71.3201Z" fill="#00677D"/>
<path d="M75.2951 90.3351V93.1351H74.6751V92.7801C74.5626 92.9081 74.423 93.0095 74.2665 93.0769C74.1099 93.1444 73.9404 93.1762 73.7701 93.1701C73.6052 93.1863 73.4388 93.1653 73.2831 93.1085C73.1275 93.0517 72.9866 92.9607 72.8709 92.8421C72.7552 92.7235 72.6676 92.5804 72.6147 92.4234C72.5617 92.2664 72.5448 92.0995 72.5651 91.9351V90.3351H73.2201V91.8351C73.2201 92.3351 73.4651 92.5851 73.8751 92.5851C74.2851 92.5851 74.6401 92.3001 74.6401 91.7401V90.3251L75.2951 90.3351Z" fill="#00677D"/>
<path d="M77.78 90.305V90.93C77.7285 90.9258 77.6766 90.9258 77.625 90.93C77.5119 90.9224 77.3984 90.9399 77.2929 90.9815C77.1873 91.0231 77.0924 91.0876 77.0148 91.1704C76.9373 91.2532 76.8792 91.3522 76.8446 91.4602C76.81 91.5682 76.7999 91.6826 76.815 91.795V93.155H76.16V90.355H76.78V90.765C76.892 90.6077 77.0432 90.4824 77.2187 90.4017C77.3941 90.3209 77.5877 90.2876 77.78 90.305Z" fill="#00677D"/>
<path d="M65.785 99.31L66.06 98.695C66.469 98.9995 66.9651 99.1643 67.475 99.165C68.14 99.165 68.42 98.925 68.42 98.61C68.42 97.685 65.875 98.29 65.875 96.7C65.875 96.01 66.425 95.42 67.6 95.42C68.1026 95.4123 68.5975 95.5439 69.03 95.8L68.775 96.42C68.419 96.2036 68.0116 96.0863 67.595 96.08C66.935 96.08 66.665 96.34 66.665 96.665C66.665 97.575 69.205 96.98 69.205 98.555C69.205 99.24 68.65 99.825 67.475 99.825C66.8702 99.8454 66.2757 99.6642 65.785 99.31Z" fill="#263238"/>
<path d="M71.465 97.97L70.79 98.67V99.765H70V95.5H70.8V97.7L72.915 95.5H73.81L72.01 97.415L73.92 99.785H73L71.465 97.97Z" fill="#263238"/>
<path d="M74.4501 95.5H75.2451V99.785H74.4501V95.5Z" fill="#263238"/>
<path d="M76.4 95.5H77.195V99.11H79.435V99.785H76.4V95.5Z" fill="#263238"/>
<path d="M80.0651 95.5H80.8601V99.11H83.1001V99.785H80.0651V95.5Z" fill="#263238"/>
<path d="M83.3351 99.3101L83.6101 98.6951C84.0196 98.9986 84.5154 99.1633 85.0251 99.1651C85.6901 99.1651 85.9751 98.9251 85.9751 98.6101C85.9751 97.6851 83.4251 98.2901 83.4251 96.7001C83.4251 96.0101 83.9801 95.4201 85.1551 95.4201C85.656 95.4131 86.1491 95.5446 86.5801 95.8001L86.3301 96.4201C85.972 96.2042 85.5632 96.0869 85.1451 96.0801C84.4851 96.0801 84.2151 96.3401 84.2151 96.6651C84.2151 97.5751 86.7551 96.9801 86.7551 98.5551C86.7551 99.2401 86.2001 99.8251 85.0251 99.8251C84.4202 99.8455 83.8258 99.6643 83.3351 99.3101Z" fill="#263238"/>
<path d="M90.565 101.405L88.24 100.265C88.24 100.265 87.55 98.735 87.5 98.765C87.45 98.795 83.05 97.86 83.05 97.86C83.05 97.86 83 100.455 83.495 101.01C83.99 101.565 86.995 101.815 87.15 101.91C87.305 102.005 87.65 101.695 87.65 101.695L90.15 103.32L90.565 101.405Z" fill="#EBB376"/>
<path d="M115.965 81.845C115.965 81.845 115 79.62 111.885 79.62C108.77 79.62 106.175 81.475 106.325 83.85C106.475 86.225 104.69 86 104.395 88.3C104.1 90.6 105.21 91.19 105.285 92.155C105.36 93.12 104.1 92.825 103.285 94.455C102.47 96.085 101.43 98.385 104.92 101.455C108.41 104.525 118.27 103.955 120.42 102.12C122.57 100.285 122.5 96.705 120.42 95.74C118.34 94.775 120.275 94.925 120.495 92.775C120.715 90.625 118.79 89.81 118.935 88.1C119.08 86.39 119.6 82 115.965 81.845Z" fill="#263238"/>
<path d="M103.86 96.28V102.395C103.86 102.395 103.335 103.05 102.55 103.895C101.723 104.798 100.816 105.625 99.84 106.365C98.9 107.045 97.955 107.51 97.19 107.415C94.77 107.1 88.24 103.35 88.24 103.35L89.33 100.465C89.33 100.465 96.745 104.28 97.19 103.885C97.635 103.49 102.5 96.625 103.86 96.28Z" fill="#00677D"/>
<path opacity="0.2" d="M102.55 103.89C101.723 104.793 100.816 105.62 99.8401 106.36C99.4851 103.63 102.615 100.265 102.615 100.265C102.615 100.265 102.66 102 102.55 103.89Z" fill="black"/>
<path d="M116 116.07H108.655H108.44H103.195C103.22 115.84 103.24 115.635 103.26 115.47C103.28 115.305 103.295 115.11 103.305 115C103.315 114.89 103.305 114.905 103.305 114.86C103.303 114.845 103.303 114.83 103.305 114.815H103.805H104.42L106 114.875L108.715 114.975L111.39 115.075L112.005 115.1L114.335 115.185L115.615 115.235C115.77 115.535 115.885 115.8 116 116.07Z" fill="#00677D"/>
<path opacity="0.4" d="M116 116.07H108.655H108.44H103.195C103.22 115.84 103.24 115.635 103.26 115.47C103.28 115.305 103.295 115.11 103.305 115C103.315 114.89 103.305 114.905 103.305 114.86C103.303 114.845 103.303 114.83 103.305 114.815H103.805H104.42L106 114.875L108.715 114.98L111.39 115.08H112.005L114.335 115.165L115.615 115.215C115.77 115.535 115.885 115.8 116 116.07Z" fill="white"/>
<path d="M115.645 116.07H111.49L111.375 116.065L108.67 115.905L105.955 115.75L104.405 115.66L103.795 115.625L103.265 115.595H103.26V115.47L103.22 113.455H103.23L103.44 113.475L103.865 113.51L104.475 113.56L111.44 114.15L112.05 114.2L114.275 114.385L115.615 114.5L115.63 115.275V115.28L115.645 116.07Z" fill="#263238"/>
<path d="M108.8 114.03V114.05L108.73 115.015V115.02L108.67 115.905L108.655 116.07V116.085L108.44 116.07L105.945 115.895L105.955 115.75L106.015 114.915L106.09 113.87V113.84L108.8 114.03Z" fill="white"/>
<path d="M112.06 113.835L112.05 114.2L112.045 114.265L112.02 115.14V115.145L111.99 116.07H111.375V116.065L111.405 115.12V115.115L111.435 114.225L111.44 114.15L111.45 113.815L112.05 113.835H112.06Z" fill="#00677D"/>
<path opacity="0.4" d="M112.06 113.835L112.05 114.2L112.045 114.265L112.02 115.14V115.145L111.99 116.07H111.375V116.065L111.405 115.12V115.115L111.435 114.225L111.44 114.15L111.45 113.815L112.05 113.835H112.06Z" fill="white"/>
<path d="M104.49 113.15L104.475 113.56L104.47 113.76L104.435 114.855L104.405 115.66L104.39 116.07H103.78L103.795 115.625L103.82 114.835L103.855 113.72L103.865 113.51L103.875 113.13L104.49 113.15Z" fill="#00677D"/>
<path opacity="0.4" d="M104.49 113.15L104.475 113.56L104.47 113.76L104.435 114.855L104.405 115.66L104.39 116.07H103.78L103.795 115.625L103.82 114.835L103.855 113.72L103.865 113.51L103.875 113.13L104.49 113.15Z" fill="white"/>
<path d="M103.245 113.685L115.615 114.5C115.81 111.425 116.035 110.5 116.96 106.81C117.255 105.625 117.625 104.31 118.105 102.775C118.36 101.955 118.64 101.08 118.955 100.135C119.19 99.42 119.455 98.635 119.725 97.855C118.046 97.3173 116.33 96.9029 114.59 96.615C112.755 96.2855 110.898 96.09 109.035 96.03C106.625 96.03 103.86 96.28 103.86 96.28C103.86 96.28 103.465 96.375 103.215 98.925C103 101.325 102.75 104.965 103.245 113.685Z" fill="#263238"/>
<path opacity="0.4" d="M103.245 113.685L115.615 114.5C115.81 111.425 116.035 110.5 116.96 106.81C117.255 105.625 117.625 104.31 118.105 102.775C118.36 101.955 118.64 101.08 118.955 100.135C119.19 99.42 119.455 98.635 119.725 97.855C118.046 97.3173 116.33 96.9029 114.59 96.615C112.755 96.2855 110.898 96.09 109.035 96.03C106.625 96.03 103.86 96.28 103.86 96.28C103.86 96.28 103.465 96.375 103.215 98.925C103 101.325 102.75 104.965 103.245 113.685Z" fill="white"/>
<path d="M110.055 98.7601C113.105 98.3701 114.02 97.0651 114.02 97.0651C112.085 95.2401 113.695 92.0651 113.695 92.0651L110 92.7651C110.087 93.2756 110.136 93.7921 110.145 94.3101C110.175 96.5351 109.145 96.5601 109.145 96.5601C108.54 97.7651 110.055 98.7601 110.055 98.7601Z" fill="#EBB376"/>
<path opacity="0.2" d="M110 92.7651C110.088 93.2756 110.136 93.7921 110.145 94.3101C110.88 94.2892 111.596 94.0706 112.217 93.6773C112.838 93.284 113.342 92.7305 113.675 92.0751L110 92.7651Z" fill="black"/>
<path d="M112.05 82.5C108.86 82.325 107.74 84 107.325 87.255C106.825 91.35 107.56 94.32 111.6 93.66C117.085 92.76 117.35 82.785 112.05 82.5Z" fill="#EBB376"/>
<path d="M109.4 87.1851C109.119 87.6473 108.784 88.0738 108.4 88.4551C108.487 88.5926 108.609 88.7035 108.755 88.7759C108.9 88.8482 109.063 88.879 109.225 88.8651L109.4 87.1851Z" fill="#D58745"/>
<path d="M111.365 87.0301C111.365 87.2901 111.47 87.5301 111.645 87.5301C111.82 87.5301 111.98 87.3401 112 87.0801C112.02 86.8201 111.895 86.5801 111.72 86.5801C111.545 86.5801 111.385 86.7701 111.365 87.0301Z" fill="#263238"/>
<path d="M111.79 86.6001L111.24 86.3301C111.24 86.3301 111.5 86.8351 111.79 86.6001Z" fill="#263238"/>
<path d="M108.115 86.72C108.115 86.985 108.22 87.22 108.395 87.22C108.57 87.22 108.725 87.035 108.745 86.77C108.765 86.505 108.645 86.27 108.47 86.27C108.295 86.27 108.135 86.46 108.115 86.72Z" fill="#263238"/>
<path d="M108.54 86.29L108 86C108 86 108.235 86.525 108.54 86.29Z" fill="#263238"/>
<path d="M112.875 85.57C112.847 85.5691 112.819 85.5618 112.794 85.5489C112.769 85.5359 112.747 85.5175 112.73 85.495C112.58 85.327 112.395 85.1948 112.187 85.1082C111.979 85.0217 111.755 84.983 111.53 84.995C111.482 84.9983 111.435 84.9825 111.399 84.9511C111.363 84.9197 111.341 84.8752 111.338 84.8275C111.334 84.7798 111.35 84.7327 111.381 84.6966C111.413 84.6605 111.457 84.6383 111.505 84.635C111.787 84.6168 112.069 84.6643 112.329 84.7736C112.589 84.8829 112.821 85.0511 113.005 85.265C113.032 85.3047 113.042 85.3531 113.035 85.4003C113.028 85.4476 113.003 85.4903 112.965 85.52C112.939 85.5436 112.909 85.5607 112.875 85.57Z" fill="#2E353A"/>
<path d="M107.92 84.9401C107.889 84.9399 107.858 84.9315 107.83 84.9157C107.803 84.9 107.781 84.8773 107.765 84.8501C107.753 84.8299 107.744 84.8074 107.741 84.7839C107.738 84.7605 107.739 84.7366 107.745 84.7136C107.751 84.6907 107.762 84.6693 107.776 84.6506C107.791 84.632 107.809 84.6165 107.83 84.6051C108.04 84.463 108.28 84.3707 108.531 84.3352C108.783 84.2996 109.039 84.3218 109.28 84.4001C109.323 84.4208 109.357 84.457 109.375 84.5015C109.392 84.546 109.392 84.5955 109.375 84.6401C109.354 84.6832 109.318 84.717 109.274 84.7346C109.229 84.7522 109.18 84.7524 109.135 84.7351C108.946 84.6784 108.747 84.6652 108.552 84.6964C108.357 84.7275 108.172 84.8023 108.01 84.9151C107.983 84.931 107.952 84.9396 107.92 84.9401Z" fill="#2E353A"/>
<path d="M109.615 90.145C109.747 90.5134 109.85 90.8911 109.925 91.275H110.135C111.07 91.235 111.485 90.905 111.67 90.555C111.752 90.3799 111.793 90.1884 111.79 89.995C111.791 89.8854 111.777 89.7762 111.75 89.67C111.186 89.9547 110.567 90.1134 109.935 90.135C109.74 90.145 109.615 90.145 109.615 90.145Z" fill="#263238"/>
<path d="M109.935 90.125L110.035 90.455C110.915 90.415 111.535 90.265 111.79 89.985C111.791 89.8754 111.777 89.7662 111.75 89.66C111.186 89.9447 110.567 90.1034 109.935 90.125Z" fill="white"/>
<path d="M110.135 91.265C111.07 91.225 111.485 90.895 111.67 90.545C111.315 90.5674 110.966 90.652 110.64 90.795C110.427 90.8955 110.251 91.0598 110.135 91.265Z" fill="#DE5753"/>
<path d="M115.245 88.0651C115.245 88.0651 113.895 85.3601 114.245 83.3501C114.245 83.3501 108.06 80.4201 107.395 86.8501C107.395 86.8501 107.09 81.1151 112.585 81.2851C118.08 81.4551 117.615 89.4851 114.65 91.7201C114.64 91.6951 116.08 89.7551 115.245 88.0651Z" fill="#263238"/>
<path d="M115.57 82.19C115.57 82.19 113.07 79.965 110.8 80.385C108.53 80.805 108.92 83.8 111.91 84.935C114.9 86.07 115.52 87.535 115.52 87.535L118.115 85.21L115.57 82.19Z" fill="#263238"/>
<path d="M116.115 87.7051L115.87 87.6501C115.87 87.6501 115.965 86.9051 113.995 86.2151C111.915 85.4901 109.555 84.6651 109.24 83.0001C109.172 82.7631 109.156 82.5145 109.191 82.2706C109.226 82.0267 109.313 81.7931 109.445 81.5851C109.526 81.4791 109.628 81.3904 109.744 81.3243C109.86 81.2582 109.988 81.216 110.12 81.2001V81.4501C110.022 81.4624 109.926 81.4944 109.841 81.5442C109.755 81.5941 109.68 81.6607 109.62 81.7401C109.51 81.9203 109.44 82.1217 109.413 82.331C109.386 82.5404 109.404 82.7531 109.465 82.9551C109.75 84.4801 112.04 85.2751 114.06 85.9801C116.28 86.7501 116.12 87.6651 116.115 87.7051Z" fill="#263238"/>
<path d="M114.685 88.7101C114.738 88.3432 114.934 88.012 115.23 87.7884C115.526 87.5647 115.897 87.4665 116.265 87.5151C117.265 87.6751 117.61 89.7351 115.12 90.0851C114.765 90.1351 114.585 89.7801 114.685 88.7101Z" fill="#EBB376"/>
<path d="M116.85 97.4051C116.85 97.4051 113.27 100.31 109.935 100.265C106.6 100.22 105.435 96.4701 105.435 96.4701C109.246 95.6002 113.232 95.9267 116.85 97.4051Z" fill="#EBB376"/>
<path d="M119.725 97.855L119.41 101.625L119.32 102.705L119.145 104.825L118.325 114.67L118.205 116.07H114.44C114.407 115.8 114.377 115.52 114.35 115.23C114.32 114.965 114.3 114.695 114.28 114.415V114.16C114.12 111.915 114.1 109.31 114.145 106.8C114.145 105.71 114.195 104.635 114.23 103.62C114.23 103.17 114.265 102.73 114.285 102.305C114.305 101.88 114.315 101.59 114.33 101.255C114.33 101.23 114.33 101.205 114.33 101.18C114.33 101.115 114.33 101.055 114.33 100.99C114.33 100.55 114.375 100.13 114.395 99.74C114.395 99.505 114.425 99.28 114.435 99.07C114.432 99.0484 114.432 99.0266 114.435 99.005C114.435 98.85 114.435 98.7 114.435 98.56C114.495 97.56 114.545 96.895 114.56 96.705C114.561 96.6867 114.561 96.6683 114.56 96.65C115.861 96.8385 117.147 97.1243 118.405 97.505L119.15 97.725L119.485 97.83L119.6 97.865H119.67L119.725 97.855Z" fill="#00677D"/>
<path opacity="0.4" d="M115.14 101.455L116.075 102.89L114.125 106.765C114.215 101.465 114.59 96.61 114.59 96.61L117.565 99.38L115.14 101.455Z" fill="white"/>
<path d="M107.92 96V96.035V96.065C107.885 96.13 107.825 96.24 107.75 96.395L107.69 96.52C107.665 96.565 107.645 96.615 107.62 96.665L107.545 96.825C107.335 97.275 107.045 97.895 106.755 98.7C106.465 99.505 106.04 100.65 105.655 101.94C105.495 102.475 105.335 103.045 105.18 103.655C105.135 103.81 105.095 103.97 105.055 104.13C104.965 104.495 104.875 104.875 104.785 105.265C104.164 107.979 103.715 110.729 103.44 113.5C103.44 113.57 103.44 113.645 103.44 113.715C103.405 114.085 103.375 114.46 103.345 114.84C103.343 114.855 103.343 114.87 103.345 114.885C103.345 114.93 103.345 114.975 103.345 115.025C103.345 115.22 103.32 115.42 103.305 115.62L103.275 116.095H102.7L101.9 115.725C101.767 111.941 101.837 108.152 102.11 104.375C102.225 102.95 102.39 101.56 102.61 100.295C102.695 99.835 102.785 99.385 102.89 98.965C103.046 98.2688 103.264 97.5878 103.54 96.93C103.629 96.723 103.729 96.5211 103.84 96.325H104.02L106.62 96.145L107.92 96Z" fill="#00677D"/>
<path opacity="0.4" d="M107.915 96C107.835 96.145 106.115 99.27 104.745 105.265L104.13 101.405L105.425 100.265L104.13 97.795L107.915 96Z" fill="white"/>
<path d="M124.735 109.5C124.677 109.667 124.581 109.818 124.455 109.942C124.329 110.065 124.176 110.158 124.008 110.213C123.841 110.269 123.662 110.284 123.487 110.259C123.313 110.235 123.146 110.17 123 110.07C122.383 109.725 121.858 109.236 121.47 108.645C121.16 108.2 120.745 107.53 120.315 106.82C119.4 105.285 118.45 103.585 118.45 103.585L119.73 97.8401C121.57 98.7351 125.425 108.03 124.735 109.5Z" fill="#00677D"/>
<path opacity="0.2" d="M123 110.085C122.383 109.74 121.858 109.251 121.47 108.66C121.16 108.215 120.745 107.545 120.315 106.835C120.641 106.238 121.004 105.662 121.4 105.11L122.33 107.725C122.33 107.725 123.96 108.095 124.22 108.945C124.32 109.27 123.765 109.725 123 110.085Z" fill="black"/>
<path d="M122.945 102.615L119.865 114.355C119.826 114.492 119.74 114.61 119.622 114.69C119.504 114.77 119.361 114.805 119.22 114.79L111.045 113.7C110.98 113.693 110.917 113.672 110.861 113.638C110.805 113.604 110.757 113.559 110.721 113.504C110.685 113.45 110.661 113.388 110.651 113.323C110.642 113.259 110.646 113.193 110.665 113.13L113.745 101.39C113.785 101.254 113.872 101.137 113.99 101.058C114.107 100.98 114.249 100.945 114.39 100.96L122.565 102.045C122.63 102.052 122.693 102.073 122.749 102.107C122.805 102.141 122.853 102.186 122.889 102.241C122.925 102.295 122.949 102.357 122.959 102.422C122.968 102.486 122.964 102.552 122.945 102.615Z" fill="#263238"/>
<path opacity="0.1" d="M122.945 102.615L119.865 114.355C119.826 114.492 119.74 114.61 119.622 114.69C119.504 114.77 119.362 114.805 119.22 114.79L111.42 113.75C111.355 113.743 111.292 113.722 111.236 113.688C111.18 113.654 111.132 113.609 111.095 113.554C111.058 113.5 111.034 113.439 111.024 113.374C111.013 113.309 111.017 113.243 111.035 113.18L114.12 101.44C114.158 101.304 114.244 101.186 114.361 101.107C114.478 101.029 114.62 100.994 114.76 101.01L122.565 102.045C122.63 102.052 122.693 102.073 122.749 102.107C122.805 102.141 122.853 102.186 122.889 102.241C122.925 102.295 122.949 102.357 122.959 102.422C122.968 102.486 122.964 102.552 122.945 102.615Z" fill="white"/>
<path opacity="0.3" d="M117.27 107.095C117.069 107.072 116.866 107.121 116.697 107.234C116.529 107.346 116.406 107.515 116.35 107.71C116.324 107.8 116.318 107.894 116.332 107.987C116.346 108.079 116.381 108.167 116.433 108.245C116.485 108.322 116.553 108.388 116.633 108.436C116.713 108.485 116.802 108.515 116.895 108.525C117.098 108.548 117.302 108.499 117.471 108.385C117.641 108.271 117.764 108.101 117.82 107.905C117.727 107.896 117.637 107.867 117.556 107.819C117.476 107.772 117.407 107.707 117.354 107.63C117.302 107.552 117.267 107.464 117.252 107.372C117.238 107.279 117.244 107.185 117.27 107.095Z" fill="white"/>
<path d="M123.61 112.285C123.06 112.575 121.815 112.135 121.44 111.985L121.32 111.94C121.32 111.94 120.645 109.725 122.41 108.53L122.45 108.505C123.015 108.205 124.755 108.595 124.81 109.18C125 111.545 124.265 111.94 123.61 112.285Z" fill="#00677D"/>
<path opacity="0.2" d="M122.535 110.395C122.365 111.036 121.978 111.598 121.44 111.985L121.32 111.94C121.32 111.94 120.645 109.725 122.41 108.53L122.45 108.505C122.605 108.705 122.845 109.23 122.535 110.395Z" fill="black"/>
<path d="M120 107.59C120 107.59 121.135 107.54 121.655 107.59C122.175 107.64 122.015 109.315 122.015 109.315L122.465 109.555C122.465 109.555 122.825 110.555 122.05 111.055L121.645 110.92C121.572 111.16 121.42 111.37 121.215 111.515C120.89 111.71 119.31 111.265 119.31 111.265L120 107.59Z" fill="#EBB376"/>
<path opacity="0.6" d="M67.485 59.385H68.505V58.025H67.485V59.385Z" fill="white"/>
<path opacity="0.6" d="M65.8201 59.385H66.8401V57.575H65.8201V59.385Z" fill="white"/>
<path opacity="0.6" d="M64.1651 59.385H65.1851V57.12H64.1651V59.385Z" fill="white"/>
<path opacity="0.6" d="M62.5 59.385H63.52V56.665H62.5V59.385Z" fill="white"/>
<path opacity="0.6" d="M122.205 57.53H121.6V58.89H122.205V57.53Z" fill="white"/>
<path opacity="0.6" d="M122.62 59.385H127.435V57.035H122.62V59.385Z" fill="white"/>
<g opacity="0.1">
<path d="M91.3 57.165L70.24 136.045L70.005 136.935L69.625 138.355L69.385 139.24L58.385 180.43V130.58L79 53.415H79.67C79.9438 53.4196 80.21 53.5058 80.4344 53.6626C80.6589 53.8193 80.8315 54.0396 80.93 54.295L81.745 56.295C81.8446 56.549 82.0176 56.7675 82.2421 56.9225C82.4666 57.0775 82.7322 57.1619 83.005 57.165H91.3Z" fill="white"/>
<path d="M131.54 97.4501V147.3L118.59 195.815H105.28L106.865 189.88L107.215 188.575L107.91 185.97L108.26 184.665L108.955 182.055L109.3 180.755L120.25 139.745V139.74L120.755 137.845V137.84L131.54 97.4501Z" fill="white"/>
<path d="M98.5 57.165L77.58 135.555L77.455 136.025L76.31 140.32L76.185 140.785L61.5 195.815H60.36C60.1043 195.818 59.8506 195.77 59.6136 195.674C59.3767 195.578 59.1613 195.435 58.98 195.255C58.8877 195.166 58.8056 195.067 58.735 194.96L73.2 140.785L73.325 140.32L74.47 136.025L74.595 135.555L95.5 57.165H98.5Z" fill="white"/>
</g>
<path d="M212.12 138.62H157.195C156.092 138.643 155.033 139.058 154.208 139.791C153.383 140.524 152.847 141.527 152.695 142.62L146.32 194.695H209.225L215.62 142.61C215.699 142.11 215.666 141.598 215.525 141.112C215.384 140.626 215.138 140.176 214.804 139.796C214.47 139.415 214.057 139.112 213.593 138.909C213.129 138.706 212.626 138.607 212.12 138.62Z" fill="#263238"/>
<path opacity="0.6" d="M212.12 138.62H157.195C156.092 138.643 155.033 139.058 154.208 139.791C153.383 140.524 152.847 141.527 152.695 142.62L146.32 194.695H209.225L215.62 142.61C215.699 142.11 215.666 141.598 215.525 141.112C215.384 140.626 215.138 140.176 214.804 139.796C214.47 139.415 214.057 139.112 213.593 138.909C213.129 138.706 212.626 138.607 212.12 138.62Z" fill="white"/>
<path opacity="0.2" d="M197.06 194.695H209.225L215.62 142.61C215.7 142.109 215.669 141.597 215.529 141.109C215.389 140.621 215.143 140.171 214.809 139.789C214.474 139.407 214.06 139.103 213.596 138.9C213.131 138.696 212.627 138.597 212.12 138.61H207.94C206.837 138.634 205.779 139.049 204.954 139.782C204.13 140.515 203.593 141.518 203.44 142.61L197.06 194.695Z" fill="black"/>
<path d="M205.7 208.555H201.435L199.695 195.25H207.005L205.7 208.555Z" fill="#263238"/>
<path d="M186.985 208.555H182.725L180.985 195.25H188.29L186.985 208.555Z" fill="#263238"/>
<path d="M155.22 208.555H150.96L149.22 195.25H156.525L155.22 208.555Z" fill="#263238"/>
<path d="M136.51 208.555H132.245L130.505 195.25H137.815L136.51 208.555Z" fill="#263238"/>
<path opacity="0.2" d="M186.985 208.555H182.725L180.985 195.25H188.29L186.985 208.555Z" fill="white"/>
<path opacity="0.2" d="M136.51 208.555H132.245L130.505 195.25H137.815L136.51 208.555Z" fill="white"/>
<path d="M208.83 194.405L208.445 199.305C208.431 199.477 208.353 199.637 208.226 199.754C208.099 199.871 207.933 199.936 207.76 199.935H130.08C129.907 199.936 129.741 199.871 129.614 199.754C129.487 199.637 129.409 199.477 129.395 199.305L129.01 194.405H208.83Z" fill="#263238"/>
<path opacity="0.2" d="M190.33 194.405L189.945 199.305C189.931 199.477 189.853 199.637 189.726 199.754C189.599 199.871 189.433 199.936 189.26 199.935H130.08C129.907 199.936 129.741 199.871 129.614 199.754C129.487 199.637 129.409 199.477 129.395 199.305L129.01 194.405H190.33Z" fill="white"/>
<path d="M180.08 183.105H156.08L154.335 163.135C154.17 161.225 153.294 159.447 151.882 158.151C150.469 156.855 148.622 156.135 146.705 156.135H121.145C120.699 156.135 120.257 156.229 119.849 156.408C119.441 156.588 119.074 156.851 118.773 157.18C118.472 157.509 118.242 157.898 118.099 158.32C117.955 158.743 117.901 159.19 117.94 159.635L118.34 164.23C118.405 164.962 118.717 165.65 119.227 166.181C119.736 166.711 120.411 167.051 121.14 167.145L122.045 167.26C122.589 167.329 123.093 167.581 123.473 167.976C123.853 168.371 124.087 168.884 124.135 169.43L126.34 194.62C126.417 195.506 126.824 196.33 127.479 196.931C128.134 197.531 128.991 197.865 129.88 197.865H180.08V183.105Z" fill="#263238"/>
<path opacity="0.6" d="M180.08 183.105H156.08L154.335 163.135C154.17 161.225 153.294 159.447 151.882 158.151C150.469 156.855 148.622 156.135 146.705 156.135H121.145C120.699 156.135 120.257 156.229 119.849 156.408C119.441 156.588 119.074 156.851 118.773 157.18C118.472 157.509 118.242 157.898 118.099 158.32C117.955 158.743 117.901 159.19 117.94 159.635L118.34 164.23C118.405 164.962 118.717 165.65 119.227 166.181C119.736 166.711 120.411 167.051 121.14 167.145L122.045 167.26C122.589 167.329 123.093 167.581 123.473 167.976C123.853 168.371 124.087 168.884 124.135 169.43L126.34 194.62C126.417 195.506 126.824 196.33 127.479 196.931C128.134 197.531 128.991 197.865 129.88 197.865H180.08V183.105Z" fill="white"/>
<path opacity="0.2" d="M136.635 163.135C136.471 161.226 135.597 159.447 134.185 158.151C132.773 156.855 130.927 156.135 129.01 156.135H146.705C148.622 156.135 150.469 156.855 151.882 158.151C153.295 159.447 154.17 161.225 154.335 163.135L156.08 183.105H138.385L136.635 163.135Z" fill="black"/>
<path opacity="0.1" d="M180.08 183.105H138.385L136.635 163.135C136.471 161.226 135.597 159.447 134.185 158.151C132.773 156.855 130.926 156.135 129.01 156.135H121.145C120.699 156.135 120.257 156.229 119.849 156.408C119.441 156.588 119.074 156.851 118.773 157.18C118.472 157.509 118.242 157.898 118.099 158.32C117.955 158.743 117.901 159.19 117.94 159.635L118.34 164.23C118.405 164.962 118.717 165.65 119.227 166.181C119.736 166.711 120.411 167.051 121.14 167.145L122.045 167.26C122.589 167.329 123.093 167.581 123.473 167.976C123.853 168.371 124.087 168.884 124.135 169.43L126.34 194.62C126.417 195.506 126.824 196.33 127.479 196.931C128.134 197.531 128.991 197.865 129.88 197.865H180.08V183.105Z" fill="white"/>
<path d="M175.94 143.25C174.116 142.705 172.366 141.937 170.73 140.965C170.258 140.672 169.831 140.314 169.46 139.9C169.368 139.795 169.284 139.683 169.21 139.565C170.995 133.335 172.8 130.605 176.58 130.32C179.465 134.03 175.94 143.25 175.94 143.25Z" fill="#263238"/>
<path opacity="0.2" d="M170.73 140.965C170.258 140.672 169.831 140.314 169.46 139.9C169.773 139.246 170.161 138.63 170.615 138.065C171.03 138.98 171.071 140.02 170.73 140.965Z" fill="black"/>
<path d="M106.31 206.155L103.595 202.665L111.845 196.44L114.56 199.925L106.31 206.155Z" fill="#FFC3BD"/>
<path opacity="0.2" d="M114.56 199.925L111.84 196.44L107.59 199.65L110.31 203.14L114.56 199.925Z" fill="black"/>
<path d="M105.175 201.32L109.3 204.13C109.372 204.177 109.424 204.249 109.446 204.332C109.468 204.415 109.459 204.503 109.42 204.58L107.665 208.16C107.618 208.249 107.552 208.327 107.473 208.389C107.394 208.45 107.302 208.495 107.205 208.519C107.107 208.543 107.005 208.546 106.906 208.528C106.807 208.51 106.713 208.472 106.63 208.415C105.21 207.415 104.575 206.85 102.765 205.615C101.65 204.855 99.07 203.335 97.53 202.285C95.99 201.235 96.945 199.655 97.68 199.955C100.975 201.3 102.885 201.28 104.405 201.125C104.676 201.099 104.948 201.168 105.175 201.32Z" fill="#263238"/>
<path d="M102.915 200.255C102.905 200.313 102.905 200.372 102.915 200.43C103.045 200.97 103.985 201.405 104.53 201.615C104.544 201.624 104.561 201.63 104.577 201.63C104.594 201.63 104.611 201.624 104.625 201.615C104.633 201.601 104.638 201.584 104.638 201.568C104.638 201.551 104.633 201.534 104.625 201.52C104.555 201.355 103.935 199.88 103.385 199.785C103.325 199.775 103.263 199.78 103.206 199.801C103.149 199.822 103.099 199.858 103.06 199.905C102.98 200.006 102.93 200.127 102.915 200.255ZM104.415 201.375C103.66 201.06 103.175 200.695 103.1 200.375C103.086 200.306 103.09 200.233 103.112 200.166C103.134 200.099 103.173 200.038 103.225 199.99C103.243 199.964 103.268 199.944 103.298 199.933C103.327 199.921 103.359 199.918 103.39 199.925C103.725 200 104.185 200.865 104.415 201.375Z" fill="#00677D"/>
<path d="M104.305 200.165C104.26 200.642 104.327 201.123 104.5 201.57C104.506 201.584 104.515 201.596 104.528 201.605C104.54 201.614 104.555 201.619 104.57 201.62C104.585 201.622 104.601 201.62 104.615 201.614C104.629 201.607 104.641 201.598 104.65 201.585C104.68 201.54 105.395 200.485 105.235 199.865C105.217 199.789 105.183 199.718 105.135 199.656C105.086 199.595 105.025 199.545 104.955 199.51C104.889 199.466 104.81 199.447 104.73 199.454C104.651 199.461 104.577 199.495 104.52 199.55C104.382 199.725 104.306 199.942 104.305 200.165ZM104.595 201.34C104.435 200.84 104.395 199.915 104.64 199.675C104.68 199.635 104.745 199.6 104.875 199.675C104.923 199.699 104.965 199.734 104.998 199.776C105.031 199.818 105.054 199.868 105.065 199.92C105.175 200.33 104.78 201.04 104.595 201.34Z" fill="#00677D"/>
<path d="M177.775 134.225L177.84 134.495L177.885 134.705L177.96 135.1C178.005 135.36 178.04 135.6 178.07 135.865C178.125 136.365 178.155 136.865 178.165 137.365C178.181 138.37 178.105 139.374 177.94 140.365C177.61 142.364 176.897 144.281 175.84 146.01C175.311 146.865 174.705 147.67 174.03 148.415C173.695 148.785 173.335 149.125 172.98 149.46L172.425 149.96C172.225 150.12 172.01 150.27 171.79 150.42C170.814 151.08 169.698 151.506 168.53 151.665C167.842 151.749 167.144 151.681 166.485 151.465C166.146 151.341 165.825 151.173 165.53 150.965C165.382 150.862 165.242 150.748 165.11 150.625L164.915 150.425L164.675 150.14C164.436 149.872 164.311 149.523 164.326 149.164C164.341 148.806 164.495 148.468 164.754 148.221C165.014 147.974 165.36 147.838 165.719 147.842C166.077 147.845 166.42 147.988 166.675 148.24C166.63 148.18 166.675 148.195 166.675 148.18H166.735L166.87 148.145C166.955 148.119 167.037 148.084 167.115 148.04C167.276 147.951 167.43 147.849 167.575 147.735C167.996 147.4 168.384 147.027 168.735 146.62L169.055 146.255L169.42 145.875C169.655 145.61 169.885 145.35 170.09 145.075C170.509 144.539 170.881 143.966 171.2 143.365C171.824 142.167 172.24 140.872 172.43 139.535C172.524 138.859 172.566 138.177 172.555 137.495C172.555 137.155 172.555 136.815 172.5 136.495L172.45 135.995L172.395 135.63L172.345 135.305C172.238 134.598 172.408 133.876 172.821 133.292C173.233 132.708 173.856 132.306 174.558 132.17C175.261 132.034 175.988 132.176 176.589 132.564C177.189 132.953 177.616 133.559 177.78 134.255L177.775 134.225Z" fill="#CE7A63"/>
<path d="M170.855 136.595C170.286 139.033 169.884 141.507 169.65 144C169.22 147.62 168.91 151.205 168.495 157.19L186.62 160.06C187.065 154.895 188.58 149.17 193.655 138.195C193.942 137.625 194.097 136.998 194.111 136.36C194.124 135.721 193.994 135.089 193.731 134.507C193.467 133.926 193.078 133.41 192.59 132.999C192.101 132.588 191.528 132.291 190.91 132.13C190.2 131.945 189.45 131.76 188.675 131.6C185.967 130.969 183.216 130.535 180.445 130.3C179.535 130.235 178.59 130.205 177.685 130.185C174.415 130.11 171.455 133.42 170.855 136.595Z" fill="#263238"/>
<path d="M187.5 122.245C186.775 124.925 185.88 129.84 187.62 131.63C187.62 131.63 185.08 131.245 179.685 134.575C178.125 132.335 179.285 131.62 179.285 131.62C182.33 130.91 182.42 128.69 182.055 126.62L187.5 122.245Z" fill="#CE7A63"/>
<path opacity="0.2" d="M185.285 124.025L182.065 126.605C182.156 127.1 182.204 127.602 182.21 128.105C183.365 127.94 185.03 126.69 185.24 125.495C185.347 125.012 185.363 124.513 185.285 124.025Z" fill="black"/>
<path d="M178.61 119.62C178.665 120.995 177.835 122.12 176.765 122.185C175.695 122.25 174.765 121.145 174.72 119.77C174.675 118.395 175.495 117.27 176.57 117.205C177.645 117.14 178.56 118.245 178.61 119.62Z" fill="#00677D"/>
<path d="M180 119.645C180.065 121.405 179 122.87 177.64 122.925C176.28 122.98 175.1 121.595 175.035 119.84C174.97 118.085 176.035 116.615 177.395 116.56C178.755 116.505 179.905 117.89 180 119.645Z" fill="#263238"/>
<path opacity="0.2" d="M180 119.645C180.065 121.405 179 122.87 177.64 122.925C176.28 122.98 175.1 121.595 175.035 119.84C174.97 118.085 176.035 116.615 177.395 116.56C178.755 116.505 179.905 117.89 180 119.645Z" fill="black"/>
<path d="M187.56 111.445C187.56 111.445 188.895 107.77 191.89 108.495C194.885 109.22 195.605 111.995 194.605 115.31C193.605 118.625 194.95 119.31 194.95 119.31C194.95 119.31 191.45 119.885 191.145 115.875C190.84 111.865 188.775 113.115 188.775 113.115L187.56 111.445Z" fill="#263238"/>
<path d="M187.38 115.675C187.8 120.065 188.065 121.905 186.27 124.585C183.565 128.62 178.2 128.445 176.51 124.34C175.01 120.645 174.555 114.095 178.445 111.485C179.261 110.894 180.22 110.533 181.223 110.438C182.226 110.344 183.235 110.519 184.147 110.947C185.059 111.374 185.84 112.039 186.409 112.87C186.977 113.701 187.312 114.67 187.38 115.675Z" fill="#CE7A63"/>
<path d="M182.265 117.905C182.315 118.27 182.17 118.605 181.94 118.655C181.71 118.705 181.485 118.445 181.44 118.08C181.395 117.715 181.53 117.375 181.76 117.33C181.99 117.285 182.215 117.535 182.265 117.905Z" fill="#263238"/>
<path d="M177.755 118.71C177.805 119.075 177.66 119.41 177.43 119.46C177.2 119.51 176.975 119.25 176.93 118.885C176.885 118.52 177.025 118.18 177.255 118.135C177.485 118.09 177.705 118.34 177.755 118.71Z" fill="#263238"/>
<path d="M177.35 118.13L176.47 118.055C176.47 118.055 177 118.655 177.35 118.13Z" fill="#263238"/>
<path d="M179.235 119.225C179.039 120.13 178.726 121.005 178.305 121.83C178.506 121.928 178.726 121.98 178.95 121.98C179.174 121.98 179.394 121.928 179.595 121.83L179.235 119.225Z" fill="#BA4D3C"/>
<path d="M181.81 122.74C181.621 122.817 181.425 122.875 181.225 122.915C181.212 122.918 181.198 122.918 181.185 122.915C181.172 122.912 181.159 122.907 181.148 122.899C181.137 122.891 181.128 122.88 181.122 122.868C181.115 122.857 181.111 122.843 181.11 122.83C181.105 122.802 181.112 122.773 181.127 122.748C181.143 122.724 181.167 122.707 181.195 122.7C181.646 122.608 182.07 122.415 182.436 122.137C182.803 121.858 183.101 121.5 183.31 121.09C183.32 121.063 183.341 121.041 183.367 121.029C183.393 121.017 183.423 121.015 183.45 121.025C183.476 121.038 183.495 121.06 183.504 121.087C183.514 121.114 183.512 121.144 183.5 121.17C183.15 121.884 182.548 122.443 181.81 122.74Z" fill="#263238"/>
<path d="M182.61 115.465C182.585 115.479 182.556 115.486 182.527 115.486C182.499 115.486 182.47 115.479 182.445 115.465C182.225 115.321 181.973 115.234 181.711 115.212C181.449 115.19 181.186 115.234 180.945 115.34C180.921 115.352 180.894 115.36 180.866 115.361C180.839 115.363 180.812 115.359 180.786 115.35C180.76 115.34 180.736 115.326 180.716 115.307C180.697 115.288 180.681 115.265 180.67 115.24C180.648 115.187 180.647 115.127 180.666 115.072C180.686 115.018 180.724 114.973 180.775 114.945C181.078 114.809 181.409 114.751 181.74 114.776C182.071 114.8 182.39 114.906 182.67 115.085C182.717 115.117 182.749 115.167 182.761 115.223C182.772 115.279 182.761 115.337 182.73 115.385C182.7 115.424 182.658 115.453 182.61 115.465Z" fill="#263238"/>
<path d="M175.58 116.685C175.53 116.705 175.475 116.705 175.425 116.685C175.373 116.661 175.333 116.618 175.312 116.565C175.292 116.511 175.293 116.452 175.315 116.4C175.433 116.073 175.623 115.777 175.873 115.535C176.123 115.293 176.424 115.112 176.755 115.005C176.782 114.999 176.81 114.999 176.837 115.004C176.864 115.009 176.89 115.02 176.913 115.035C176.935 115.051 176.955 115.071 176.97 115.094C176.985 115.117 176.995 115.143 177 115.17C177.009 115.227 176.997 115.286 176.966 115.335C176.935 115.384 176.886 115.42 176.83 115.435C176.57 115.523 176.333 115.67 176.137 115.863C175.941 116.056 175.792 116.291 175.7 116.55C175.69 116.579 175.674 116.606 175.654 116.629C175.633 116.653 175.608 116.671 175.58 116.685Z" fill="#263238"/>
<path d="M181.86 117.325L181 117.25C181 117.25 181.5 117.845 181.86 117.325Z" fill="#263238"/>
<path d="M182.825 112.31C183.025 113.248 183.434 114.129 184.021 114.889C184.608 115.648 185.357 116.265 186.215 116.695L186.77 120.005L187.45 122.03C187.45 122.03 190.885 121.3 190.295 115.53C189.895 111.65 188.07 110.53 186.795 110.195C186.088 110.028 185.426 109.709 184.855 109.26C184.025 108.585 182.355 107.925 179.275 109.085C174.73 110.8 176.04 114.62 176.04 114.62C176.577 113.75 177.323 113.029 178.21 112.52C179.46 111.88 181.65 111.545 182.825 112.31Z" fill="#263238"/>
<path d="M189.345 118.945C189.041 119.829 188.399 120.558 187.56 120.97C186.47 121.47 185.775 120.435 185.95 119.22C186.105 118.125 186.86 116.545 188.01 116.56C189.16 116.575 189.74 117.825 189.345 118.945Z" fill="#CE7A63"/>
<path d="M189.595 119.145C189.66 120.9 188.595 122.37 187.235 122.42C185.875 122.47 184.695 121.095 184.63 119.335C184.565 117.575 185.63 116.115 186.99 116.06C188.35 116.005 189.525 117.39 189.595 119.145Z" fill="#263238"/>
<path opacity="0.2" d="M189.595 119.145C189.66 120.9 188.595 122.37 187.235 122.42C185.875 122.47 184.695 121.095 184.63 119.335C184.565 117.575 185.63 116.115 186.99 116.06C188.35 116.005 189.525 117.39 189.595 119.145Z" fill="black"/>
<path d="M187.445 117.115C187.445 117.115 187.48 111.185 185.445 109.65L187.01 110.305C188.207 112.432 188.712 114.878 188.455 117.305L187.445 117.115Z" fill="#00677D"/>
<path opacity="0.2" d="M187.445 117.115C187.445 117.115 187.48 111.185 185.445 109.65L187.01 110.305C188.207 112.432 188.712 114.878 188.455 117.305L187.445 117.115Z" fill="black"/>
<path d="M189.765 119.275C189.82 120.65 188.995 121.775 187.92 121.84C186.845 121.905 185.92 120.8 185.875 119.425C185.83 118.05 186.65 116.925 187.725 116.86C188.8 116.795 189.715 117.9 189.765 119.275Z" fill="#00677D"/>
<path d="M162.4 147.115L162.59 148.295C162.624 148.514 162.71 148.721 162.841 148.901C162.971 149.08 163.142 149.225 163.34 149.325L165.225 150.26C165.596 150.444 166.005 150.538 166.419 150.531C166.833 150.525 167.24 150.42 167.605 150.225L168.065 149.98C167.89 147.98 166.235 145.98 166.235 145.98L165.83 145.355C165.751 145.223 165.646 145.109 165.522 145.019C165.398 144.928 165.257 144.863 165.107 144.828C164.958 144.793 164.803 144.787 164.651 144.813C164.5 144.838 164.355 144.893 164.225 144.975L162.975 145.765C162.758 145.91 162.588 146.114 162.486 146.354C162.384 146.594 162.354 146.858 162.4 147.115Z" fill="#CE7A63"/>
<path d="M184.425 181C177.425 185.695 161.635 182.78 147.315 179.73C145.46 182.237 143.287 184.493 140.85 186.44C134 192.075 125 196.59 119.105 199.22C115.425 200.87 112.945 201.78 112.945 201.78L109.125 197.045C109.125 197.045 117.375 190.625 126.495 183.625C132.695 178.86 139.295 173.82 143.965 170.35C144.222 170.165 144.51 170.026 144.815 169.94H144.84C145.293 169.823 145.757 169.758 146.225 169.745L147.225 169.68L148.02 169.63C152.96 169.3 163.76 168.725 163.76 168.725L168.8 157.05L187.11 158.205C187.11 158.205 190.5 176.93 184.425 181Z" fill="#00677D"/>
<path d="M107.405 197.395L112.24 203.36L114.88 201.775L109.615 195.435L107.405 197.395Z" fill="#263238"/>
<path opacity="0.2" d="M149.815 169.705C147.119 175.427 144.127 181.005 140.85 186.415C134 192.075 125 196.59 119.105 199.22C120.798 193.69 123.289 188.436 126.5 183.625C127.4 182.28 128.39 180.92 129.5 179.57C134.845 172.93 140.77 170.665 144.84 169.94H144.865C145.365 169.85 145.815 169.79 146.25 169.745C146.925 169.67 147.525 169.64 148.03 169.63C148.626 169.611 149.223 169.636 149.815 169.705Z" fill="black"/>
<path d="M123.49 203.68L119.43 201.93L123.67 192.505L127.73 194.25L123.49 203.68Z" fill="#FFC3BD"/>
<path opacity="0.2" d="M127.73 194.255L123.665 192.505L121.485 197.365L125.545 199.115L127.73 194.255Z" fill="black"/>
<path d="M120.17 200L125.135 200.5C125.221 200.507 125.301 200.545 125.36 200.607C125.42 200.668 125.455 200.749 125.46 200.835L125.645 204.835C125.645 204.935 125.625 205.035 125.585 205.126C125.545 205.218 125.486 205.301 125.412 205.369C125.338 205.436 125.251 205.488 125.156 205.52C125.061 205.552 124.96 205.564 124.86 205.555C123.13 205.355 122.305 205.175 120.12 204.96C118.775 204.83 115.785 204.74 113.93 204.56C112.075 204.38 112.155 202.56 112.93 202.445C116.47 202.035 118.13 201.1 119.395 200.235C119.617 200.067 119.892 199.983 120.17 200Z" fill="#263238"/>
<path d="M117.68 200.145C117.703 200.198 117.735 200.248 117.775 200.29C118.145 200.705 119.18 200.63 119.775 200.55C119.792 200.548 119.807 200.541 119.821 200.53C119.834 200.52 119.844 200.506 119.85 200.49C119.853 200.473 119.852 200.455 119.846 200.439C119.841 200.422 119.832 200.407 119.82 200.395C119.675 200.285 118.425 199.29 117.9 199.47C117.842 199.49 117.791 199.525 117.751 199.572C117.711 199.618 117.685 199.675 117.675 199.735C117.628 199.868 117.63 200.013 117.68 200.145ZM119.525 200.405C118.715 200.49 118.115 200.405 117.905 200.175C117.858 200.121 117.826 200.056 117.813 199.985C117.8 199.915 117.806 199.842 117.83 199.775C117.832 199.743 117.844 199.713 117.864 199.688C117.883 199.663 117.91 199.645 117.94 199.635C118.265 199.525 119.085 200.07 119.525 200.405Z" fill="#00677D"/>
<path d="M118.85 199.4C119.044 199.838 119.334 200.226 119.7 200.535C119.713 200.542 119.728 200.546 119.743 200.546C119.757 200.546 119.772 200.542 119.785 200.535C119.799 200.528 119.81 200.519 119.819 200.506C119.828 200.494 119.833 200.48 119.835 200.465C119.835 200.41 119.96 199.145 119.525 198.68C119.473 198.62 119.408 198.573 119.336 198.542C119.263 198.511 119.184 198.496 119.105 198.5C119.026 198.493 118.947 198.514 118.881 198.559C118.816 198.603 118.768 198.669 118.745 198.745C118.704 198.969 118.741 199.2 118.85 199.4ZM119.67 200.29C119.295 199.93 118.81 199.135 118.91 198.79C118.91 198.735 118.965 198.675 119.11 198.67C119.164 198.667 119.217 198.676 119.266 198.697C119.316 198.718 119.36 198.749 119.395 198.79C119.69 199.125 119.69 199.935 119.67 200.29Z" fill="#00677D"/>
<path opacity="0.3" d="M184.425 181C177.425 185.695 161.635 182.78 147.315 179.73C145.46 182.237 143.287 184.493 140.85 186.44C134 192.075 125 196.59 119.105 199.22C115.425 200.87 112.945 201.78 112.945 201.78L109.125 197.045C109.125 197.045 117.375 190.625 126.495 183.625C132.695 178.86 139.295 173.82 143.965 170.35C144.222 170.165 144.51 170.026 144.815 169.94H144.84C145.293 169.823 145.757 169.758 146.225 169.745L147.225 169.68L148.02 169.63C152.96 169.3 163.76 168.725 163.76 168.725L168.8 157.05L187.11 158.205C187.11 158.205 190.5 176.93 184.425 181Z" fill="black"/>
<path d="M185.365 163.91C185.365 163.91 157.985 159.16 147.69 159.595C137.625 160.02 121.54 194.62 121.54 194.62L127.34 197.12C139.57 185.16 146.65 176.38 149.815 169.72C173.385 180.49 182.255 180.4 182.255 180.4L185.365 163.91Z" fill="#00677D"/>
<path opacity="0.3" d="M185.365 163.91C185.365 163.91 157.985 159.16 147.69 159.595C137.625 160.02 121.54 194.62 121.54 194.62L127.34 197.12C139.57 185.16 146.65 176.38 149.815 169.72C173.385 180.49 182.255 180.4 182.255 180.4L185.365 163.91Z" fill="black"/>
<path d="M120.235 195.475L127.345 198.385L128.895 195.72L121.23 192.695L120.235 195.475Z" fill="#263238"/>
<path opacity="0.2" d="M149.815 169.705C149.815 169.705 150.74 167.505 152.315 167.25C153.89 166.995 167 168.09 167 168.09L149.815 169.705Z" fill="black"/>
<path d="M170.45 149.5L168.45 140.14C168.4 139.937 168.286 139.756 168.125 139.623C167.964 139.491 167.764 139.414 167.555 139.405H162.785C162.694 139.401 162.602 139.418 162.519 139.456C162.436 139.494 162.362 139.551 162.306 139.623C162.249 139.695 162.21 139.779 162.193 139.869C162.175 139.959 162.179 140.052 162.205 140.14L164.205 149.5C164.255 149.704 164.369 149.887 164.532 150.02C164.694 150.154 164.895 150.231 165.105 150.24H169.875C169.966 150.243 170.057 150.224 170.14 150.185C170.222 150.146 170.295 150.088 170.351 150.016C170.407 149.944 170.445 149.86 170.462 149.77C170.479 149.68 170.475 149.588 170.45 149.5Z" fill="#00677D"/>
<path opacity="0.2" d="M169.425 150.225H165.1C164.89 150.216 164.689 150.139 164.527 150.005C164.364 149.872 164.25 149.689 164.2 149.485L162.2 140.125C162.174 140.037 162.17 139.944 162.188 139.854C162.205 139.764 162.244 139.68 162.301 139.608C162.357 139.536 162.431 139.479 162.514 139.441C162.597 139.403 162.689 139.386 162.78 139.39H167.105C167.314 139.399 167.514 139.476 167.675 139.608C167.836 139.741 167.95 139.922 168 140.125L170 149.5C170.022 149.587 170.024 149.678 170.006 149.765C169.987 149.853 169.949 149.935 169.893 150.006C169.837 150.076 169.766 150.132 169.685 150.17C169.604 150.208 169.515 150.227 169.425 150.225Z" fill="black"/>
<path d="M168.435 144.71L169.77 144.415C170.017 144.359 170.275 144.363 170.52 144.427C170.766 144.491 170.992 144.614 171.18 144.785L172.97 146.395C173.323 146.712 173.595 147.109 173.763 147.553C173.931 147.996 173.99 148.474 173.935 148.945L173.865 149.535C171.685 150.18 168.865 149.265 168.865 149.265L168.03 149.095C167.857 149.065 167.692 149.002 167.544 148.908C167.396 148.814 167.268 148.692 167.167 148.548C167.067 148.404 166.996 148.242 166.959 148.071C166.921 147.9 166.918 147.722 166.95 147.55L167.265 145.885C167.326 145.597 167.469 145.334 167.677 145.125C167.884 144.917 168.148 144.773 168.435 144.71Z" fill="#CE7A63"/>
<path opacity="0.6" d="M181.65 141.5L182.75 140.5C182.781 140.471 182.82 140.451 182.861 140.44C182.903 140.43 182.946 140.431 182.988 140.441C183.029 140.452 183.067 140.474 183.098 140.503C183.129 140.532 183.152 140.569 183.165 140.61L183.575 141.945C183.589 141.987 183.591 142.032 183.581 142.075C183.572 142.119 183.551 142.158 183.521 142.191C183.491 142.224 183.453 142.248 183.41 142.261C183.368 142.274 183.323 142.275 183.28 142.265L181.78 141.955C181.728 141.952 181.678 141.933 181.637 141.901C181.596 141.869 181.567 141.824 181.552 141.774C181.538 141.724 181.54 141.67 181.557 141.621C181.575 141.572 181.607 141.53 181.65 141.5Z" fill="white"/>
<path opacity="0.2" d="M186.785 141.725C186.785 141.725 184.81 146.05 186.785 147.535C188.76 149.02 190.37 142.175 186.785 141.725Z" fill="black"/>
<path d="M193.93 141.455C193.765 142.165 193.61 142.76 193.43 143.395C193.25 144.03 193.045 144.635 192.84 145.25C192.417 146.473 191.937 147.682 191.4 148.875C190.858 150.073 190.252 151.241 189.585 152.375C188.897 153.545 188.125 154.663 187.275 155.72L187.21 155.8C187.122 155.911 187.023 156.013 186.915 156.105C186.299 156.612 185.552 156.933 184.76 157.03C184.197 157.1 183.627 157.082 183.07 156.975C182.243 156.81 181.441 156.543 180.68 156.18C179.389 155.568 178.157 154.838 177 154C175.89 153.2 174.84 152.355 173.83 151.47C172.82 150.585 171.86 149.685 170.925 148.69C170.799 148.558 170.701 148.403 170.635 148.232C170.57 148.062 170.539 147.881 170.544 147.699C170.549 147.516 170.59 147.337 170.665 147.171C170.74 147.004 170.847 146.855 170.98 146.73C171.204 146.52 171.491 146.391 171.797 146.361C172.103 146.331 172.409 146.403 172.67 146.565H172.7C173.76 147.235 174.85 147.935 175.94 148.565C177.03 149.195 178.115 149.85 179.21 150.415C180.243 150.978 181.318 151.459 182.425 151.855C182.855 152.015 183.304 152.117 183.76 152.16C183.925 152.16 184.035 152.16 184.015 152.13C183.871 152.141 183.734 152.199 183.625 152.295L183.26 152.685C183.867 151.758 184.423 150.798 184.925 149.81C185.425 148.81 185.895 147.755 186.325 146.685C186.755 145.615 187.155 144.525 187.52 143.42C187.71 142.87 187.89 142.315 188.055 141.76C188.22 141.205 188.395 140.625 188.53 140.145V140.06C188.729 139.364 189.191 138.773 189.819 138.413C190.446 138.053 191.19 137.951 191.891 138.13C192.592 138.309 193.196 138.755 193.574 139.372C193.952 139.989 194.074 140.729 193.915 141.435L193.93 141.455Z" fill="#CE7A63"/>
<path d="M192.31 132.76C195.405 134.95 195.55 138.22 193.88 144.48C191.645 145.6 186.215 144.185 186.215 144.185C186.215 144.185 187.925 134.465 192.31 132.76Z" fill="#263238"/>
<path d="M218.1 156.145H189.91C187.993 156.145 186.146 156.865 184.733 158.161C183.321 159.457 182.445 161.235 182.28 163.145L180.535 183.115H178.535V197.885H209.37C210.259 197.885 211.117 197.552 211.773 196.951C212.429 196.35 212.836 195.526 212.915 194.64L215.115 169.45C215.163 168.904 215.397 168.391 215.777 167.996C216.157 167.601 216.661 167.349 217.205 167.28L218.11 167.165C218.84 167.071 219.515 166.731 220.025 166.201C220.535 165.671 220.849 164.983 220.915 164.25L221.315 159.655C221.355 159.209 221.302 158.759 221.159 158.335C221.016 157.91 220.785 157.52 220.483 157.19C220.18 156.86 219.812 156.596 219.402 156.416C218.991 156.236 218.548 156.144 218.1 156.145Z" fill="#263238"/>
<path opacity="0.6" d="M218.1 156.145H189.91C187.993 156.145 186.146 156.865 184.733 158.161C183.321 159.457 182.445 161.235 182.28 163.145L180.535 183.115H178.535V197.885H209.37C210.259 197.885 211.117 197.552 211.773 196.951C212.429 196.35 212.836 195.526 212.915 194.64L215.115 169.45C215.163 168.904 215.397 168.391 215.777 167.996C216.157 167.601 216.661 167.349 217.205 167.28L218.11 167.165C218.84 167.071 219.515 166.731 220.025 166.201C220.535 165.671 220.849 164.983 220.915 164.25L221.315 159.655C221.355 159.209 221.302 158.759 221.159 158.335C221.016 157.91 220.785 157.52 220.483 157.19C220.18 156.86 219.812 156.596 219.402 156.416C218.991 156.236 218.548 156.144 218.1 156.145Z" fill="white"/>
<g opacity="0.2">
<path d="M192.58 194.63L194.785 169.44C194.831 168.894 195.063 168.381 195.443 167.986C195.823 167.591 196.326 167.338 196.87 167.27L197.78 167.155C198.509 167.06 199.183 166.72 199.692 166.19C200.201 165.66 200.514 164.972 200.58 164.24L200.98 159.645C201.019 159.2 200.965 158.752 200.821 158.329C200.677 157.906 200.447 157.518 200.145 157.189C199.843 156.859 199.476 156.597 199.067 156.417C198.658 156.237 198.217 156.145 197.77 156.145H218.1C218.547 156.145 218.988 156.237 219.397 156.417C219.806 156.597 220.173 156.859 220.475 157.189C220.777 157.518 221.007 157.906 221.151 158.329C221.295 158.752 221.349 159.2 221.31 159.645L220.91 164.24C220.844 164.973 220.53 165.661 220.02 166.191C219.51 166.721 218.835 167.061 218.105 167.155L217.2 167.27C216.656 167.339 216.152 167.591 215.772 167.986C215.392 168.381 215.158 168.894 215.11 169.44L212.91 194.63C212.831 195.516 212.424 196.34 211.768 196.941C211.112 197.542 210.254 197.875 209.365 197.875H189.04C189.929 197.875 190.785 197.541 191.441 196.941C192.096 196.34 192.502 195.516 192.58 194.63Z" fill="black"/>
</g>
<path opacity="0.1" d="M197.77 156.145H189.91C187.993 156.145 186.146 156.865 184.733 158.161C183.321 159.457 182.445 161.235 182.28 163.145L180.535 183.115H178.535V197.885H189.035C189.924 197.885 190.78 197.551 191.436 196.951C192.091 196.35 192.498 195.526 192.575 194.64L194.78 169.45C194.826 168.904 195.059 168.391 195.438 167.996C195.818 167.601 196.321 167.348 196.865 167.28L197.775 167.165C198.504 167.07 199.178 166.73 199.687 166.2C200.196 165.67 200.51 164.982 200.575 164.25L200.975 159.655C201.015 159.21 200.962 158.761 200.82 158.337C200.677 157.913 200.447 157.524 200.146 157.194C199.844 156.864 199.477 156.6 199.068 156.419C198.659 156.239 198.217 156.145 197.77 156.145Z" fill="white"/>
</svg>
