<svg width="250" height="250" viewBox="0 0 250 250" fill="none" xmlns="http://www.w3.org/2000/svg">
<path d="M250 191.2H0V191.325H250V191.2Z" fill="#EBEBEB"/>
<path d="M224.95 199.245H208.39V199.37H224.95V199.245Z" fill="#EBEBEB"/>
<path d="M165.61 200.605H161.265V200.73H165.61V200.605Z" fill="#EBEBEB"/>
<path d="M207.89 194.605H198.295V194.73H207.89V194.605Z" fill="#EBEBEB"/>
<path d="M47.825 195.445H26.23V195.57H47.825V195.445Z" fill="#EBEBEB"/>
<path d="M55.445 195.445H52.28V195.57H55.445V195.445Z" fill="#EBEBEB"/>
<path d="M112.575 197.555H65.735V197.68H112.575V197.555Z" fill="#EBEBEB"/>
<path d="M118.5 168.9H21.955C21.1987 168.899 20.4738 168.597 19.9395 168.062C19.4051 167.527 19.105 166.801 19.105 166.045V30.33C19.1116 29.578 19.4146 28.859 19.9482 28.3291C20.4819 27.7992 21.203 27.5013 21.955 27.5H118.5C119.257 27.5 119.983 27.8008 120.519 28.3362C121.054 28.8716 121.355 29.5978 121.355 30.355V166.045C121.355 166.802 121.054 167.528 120.519 168.064C119.983 168.599 119.257 168.9 118.5 168.9ZM21.955 27.6C21.2318 27.6013 20.5387 27.8895 20.0278 28.4014C19.5169 28.9132 19.23 29.6068 19.23 30.33V166.045C19.23 166.768 19.5169 167.462 20.0278 167.974C20.5387 168.485 21.2318 168.774 21.955 168.775H118.5C119.224 168.774 119.917 168.486 120.429 167.974C120.941 167.462 121.229 166.769 121.23 166.045V30.33C121.229 29.6064 120.941 28.9127 120.429 28.4011C119.917 27.8894 119.224 27.6013 118.5 27.6H21.955Z" fill="#EBEBEB"/>
<path d="M226.655 168.9H130.105C129.348 168.899 128.623 168.597 128.088 168.062C127.553 167.527 127.251 166.802 127.25 166.045V30.33C127.258 29.5776 127.562 28.8585 128.096 28.3288C128.631 27.7991 129.353 27.5013 130.105 27.5H226.655C227.406 27.5026 228.126 27.8011 228.659 28.3309C229.191 28.8606 229.493 29.5789 229.5 30.33V166.045C229.5 166.8 229.201 167.525 228.667 168.06C228.134 168.595 227.41 168.897 226.655 168.9ZM130.105 27.6C129.381 27.6013 128.688 27.8894 128.176 28.4011C127.664 28.9127 127.376 29.6064 127.375 30.33V166.045C127.376 166.769 127.664 167.462 128.176 167.974C128.688 168.486 129.381 168.774 130.105 168.775H226.655C227.379 168.774 228.072 168.486 228.584 167.974C229.096 167.462 229.384 166.769 229.385 166.045V30.33C229.384 29.6064 229.096 28.9127 228.584 28.4011C228.072 27.8894 227.379 27.6013 226.655 27.6H130.105Z" fill="#EBEBEB"/>
<path d="M140.53 164.98H174.575V48.945H140.53V164.98Z" fill="#FAFAFA"/>
<path d="M139.74 53.0649L175.36 53.0649V47.3699L139.74 47.3699V53.0649Z" fill="#F0F0F0"/>
<path d="M139.74 56.54L175.36 56.54V53.695L139.74 53.695V56.54Z" fill="#F0F0F0"/>
<path d="M139.74 60.765L175.36 60.765V57.92L139.74 57.92V60.765Z" fill="#F0F0F0"/>
<path d="M139.74 64.995H175.36V62.15L139.74 62.15V64.995Z" fill="#F0F0F0"/>
<path d="M139.74 69.22H175.36V66.375H139.74V69.22Z" fill="#F0F0F0"/>
<path d="M139.74 73.4449H175.36V70.5999H139.74V73.4449Z" fill="#F0F0F0"/>
<path d="M139.74 77.67H175.36V74.825H139.74V77.67Z" fill="#F0F0F0"/>
<path d="M139.74 81.895H175.36V79.05H139.74V81.895Z" fill="#F0F0F0"/>
<path d="M139.74 86.12H175.36V83.275H139.74V86.12Z" fill="#F0F0F0"/>
<path d="M139.74 90.345H175.36V87.5H139.74V90.345Z" fill="#F0F0F0"/>
<path d="M139.74 94.5699H175.36V91.7249H139.74V94.5699Z" fill="#F0F0F0"/>
<path d="M139.74 98.795H175.36V95.95H139.74V98.795Z" fill="#F0F0F0"/>
<path d="M139.74 103.02H175.36V100.175H139.74V103.02Z" fill="#F0F0F0"/>
<path d="M139.74 107.245H175.36V104.4H139.74V107.245Z" fill="#F0F0F0"/>
<path d="M139.74 111.47H175.36V108.625H139.74V111.47Z" fill="#F0F0F0"/>
<path d="M139.74 115.7H175.36V112.855H139.74V115.7Z" fill="#F0F0F0"/>
<path d="M139.74 119.925H175.36V117.08H139.74V119.925Z" fill="#F0F0F0"/>
<path d="M139.74 124.15H175.36V121.305H139.74V124.15Z" fill="#F0F0F0"/>
<path d="M139.74 128.375H175.36V125.53H139.74V128.375Z" fill="#F0F0F0"/>
<path d="M139.74 132.6H175.36V129.755H139.74V132.6Z" fill="#F0F0F0"/>
<path d="M139.74 136.825H175.36V133.98H139.74V136.825Z" fill="#F0F0F0"/>
<path d="M139.74 141.05H175.36V138.205H139.74V141.05Z" fill="#F0F0F0"/>
<path d="M139.74 145.275H175.36V142.43H139.74V145.275Z" fill="#F0F0F0"/>
<path d="M139.74 149.5H175.36V146.655H139.74V149.5Z" fill="#F0F0F0"/>
<path d="M139.74 153.725H175.36V150.88H139.74V153.725Z" fill="#F0F0F0"/>
<path d="M139.74 157.95H175.36V155.105H139.74V157.95Z" fill="#F0F0F0"/>
<path d="M139.74 162.18H175.36V159.335H139.74V162.18Z" fill="#F0F0F0"/>
<path d="M139.74 166.405H175.36V163.56H139.74V166.405Z" fill="#F0F0F0"/>
<path d="M183.08 164.98H217.125V48.945H183.08V164.98Z" fill="#FAFAFA"/>
<path d="M182.29 53.0649L217.91 53.0649V47.3699L182.29 47.3699V53.0649Z" fill="#F0F0F0"/>
<path d="M182.29 56.54L217.91 56.54V53.695L182.29 53.695V56.54Z" fill="#F0F0F0"/>
<path d="M182.29 60.765L217.91 60.765V57.92L182.29 57.92V60.765Z" fill="#F0F0F0"/>
<path d="M182.29 64.995H217.91V62.15L182.29 62.15V64.995Z" fill="#F0F0F0"/>
<path d="M182.29 69.22H217.91V66.375H182.29V69.22Z" fill="#F0F0F0"/>
<path d="M182.29 73.4449H217.91V70.5999H182.29V73.4449Z" fill="#F0F0F0"/>
<path d="M182.29 77.67H217.91V74.825H182.29V77.67Z" fill="#F0F0F0"/>
<path d="M182.29 81.895H217.91V79.05H182.29V81.895Z" fill="#F0F0F0"/>
<path d="M182.29 86.12H217.91V83.275H182.29V86.12Z" fill="#F0F0F0"/>
<path d="M182.29 90.345H217.91V87.5H182.29V90.345Z" fill="#F0F0F0"/>
<path d="M182.29 94.5699H217.91V91.7249H182.29V94.5699Z" fill="#F0F0F0"/>
<path d="M182.29 98.795H217.91V95.95H182.29V98.795Z" fill="#F0F0F0"/>
<path d="M182.29 103.02H217.91V100.175H182.29V103.02Z" fill="#F0F0F0"/>
<path d="M182.29 107.245H217.91V104.4H182.29V107.245Z" fill="#F0F0F0"/>
<path d="M182.29 111.47H217.91V108.625H182.29V111.47Z" fill="#F0F0F0"/>
<path d="M182.29 115.7H217.91V112.855H182.29V115.7Z" fill="#F0F0F0"/>
<path d="M182.29 119.925H217.91V117.08H182.29V119.925Z" fill="#F0F0F0"/>
<path d="M182.29 124.15H217.91V121.305H182.29V124.15Z" fill="#F0F0F0"/>
<path d="M182.29 128.375H217.91V125.53H182.29V128.375Z" fill="#F0F0F0"/>
<path d="M182.29 132.6H217.91V129.755H182.29V132.6Z" fill="#F0F0F0"/>
<path d="M182.29 136.825H217.91V133.98H182.29V136.825Z" fill="#F0F0F0"/>
<path d="M182.29 141.05H217.91V138.205H182.29V141.05Z" fill="#F0F0F0"/>
<path d="M182.29 145.275H217.91V142.43H182.29V145.275Z" fill="#F0F0F0"/>
<path d="M182.29 149.5H217.91V146.655H182.29V149.5Z" fill="#F0F0F0"/>
<path d="M182.29 153.725H217.91V150.88H182.29V153.725Z" fill="#F0F0F0"/>
<path d="M182.29 157.95H217.91V155.105H182.29V157.95Z" fill="#F0F0F0"/>
<path d="M182.29 162.18H217.91V159.335H182.29V162.18Z" fill="#F0F0F0"/>
<path d="M182.29 166.405H217.91V163.56H182.29V166.405Z" fill="#F0F0F0"/>
<path d="M77.27 165.69H111.315L111.315 49.6549H77.27L77.27 165.69Z" fill="#FAFAFA"/>
<path d="M76.48 53.775L112.1 53.775V48.08L76.48 48.08V53.775Z" fill="#F0F0F0"/>
<path d="M76.48 54.9301L112.1 54.9301V54.4051L76.48 54.4051V54.9301Z" fill="#F0F0F0"/>
<path d="M76.48 56.12L112.1 56.12V55.595L76.48 55.595V56.12Z" fill="#F0F0F0"/>
<path d="M76.48 57.3051L112.1 57.3051V56.7801L76.48 56.7801V57.3051Z" fill="#F0F0F0"/>
<path d="M76.48 58.495L112.1 58.495V57.97L76.48 57.97V58.495Z" fill="#F0F0F0"/>
<path d="M76.48 59.6851L112.1 59.6851V59.1601L76.48 59.1601V59.6851Z" fill="#F0F0F0"/>
<path d="M76.48 60.875L112.1 60.875V60.35L76.48 60.35V60.875Z" fill="#F0F0F0"/>
<path d="M76.48 62.0601L112.1 62.0601V61.5351L76.48 61.5351V62.0601Z" fill="#F0F0F0"/>
<path d="M76.48 63.25L112.1 63.25V62.725L76.48 62.725V63.25Z" fill="#F0F0F0"/>
<path d="M76.48 64.4449H112.1V63.9199L76.48 63.9199V64.4449Z" fill="#F0F0F0"/>
<path d="M76.48 65.63H112.1V65.105H76.48V65.63Z" fill="#F0F0F0"/>
<path d="M76.48 66.8199H112.1V66.2949H76.48V66.8199Z" fill="#F0F0F0"/>
<path d="M76.48 68.005H112.1V67.48H76.48V68.005Z" fill="#F0F0F0"/>
<path d="M76.48 69.2H112.1V68.6749H76.48V69.2Z" fill="#F0F0F0"/>
<path d="M76.48 70.385H112.1V69.86H76.48V70.385Z" fill="#F0F0F0"/>
<path d="M76.48 71.575H112.1V71.05H76.48V71.575Z" fill="#F0F0F0"/>
<path d="M76.48 72.76H112.1V72.235H76.48V72.76Z" fill="#F0F0F0"/>
<path d="M76.48 73.95H112.1V73.4249H76.48V73.95Z" fill="#F0F0F0"/>
<path d="M76.48 75.14H112.1V74.615H76.48V75.14Z" fill="#F0F0F0"/>
<path d="M34.715 165.69H68.76L68.76 49.6549H34.715L34.715 165.69Z" fill="#FAFAFA"/>
<path d="M33.925 53.775L69.545 53.775V48.08L33.925 48.08V53.775Z" fill="#F0F0F0"/>
<path d="M33.925 54.9301L69.545 54.9301V54.4051L33.925 54.4051V54.9301Z" fill="#F0F0F0"/>
<path d="M33.925 56.12L69.545 56.12V55.595L33.925 55.595V56.12Z" fill="#F0F0F0"/>
<path d="M33.925 57.3051L69.545 57.3051V56.7801L33.925 56.7801V57.3051Z" fill="#F0F0F0"/>
<path d="M33.925 58.495L69.545 58.495V57.97L33.925 57.97V58.495Z" fill="#F0F0F0"/>
<path d="M33.925 59.6851L69.545 59.6851V59.1601L33.925 59.1601V59.6851Z" fill="#F0F0F0"/>
<path d="M33.925 60.875L69.545 60.875V60.35L33.925 60.35V60.875Z" fill="#F0F0F0"/>
<path d="M33.925 62.0601L69.545 62.0601V61.5351L33.925 61.5351V62.0601Z" fill="#F0F0F0"/>
<path d="M33.925 63.25L69.545 63.25V62.725L33.925 62.725V63.25Z" fill="#F0F0F0"/>
<path d="M33.925 64.4449H69.545V63.9199L33.925 63.9199V64.4449Z" fill="#F0F0F0"/>
<path d="M33.925 65.63H69.545V65.105H33.925V65.63Z" fill="#F0F0F0"/>
<path d="M33.925 66.8199H69.545V66.2949H33.925V66.8199Z" fill="#F0F0F0"/>
<path d="M33.925 68.005H69.545V67.48H33.925V68.005Z" fill="#F0F0F0"/>
<path d="M33.925 69.2H69.545V68.6749H33.925V69.2Z" fill="#F0F0F0"/>
<path d="M33.925 70.385H69.545V69.86H33.925V70.385Z" fill="#F0F0F0"/>
<path d="M33.925 71.575H69.545V71.05H33.925V71.575Z" fill="#F0F0F0"/>
<path d="M33.925 72.76H69.545V72.235H33.925V72.76Z" fill="#F0F0F0"/>
<path d="M33.925 73.95H69.545V73.4249H33.925V73.95Z" fill="#F0F0F0"/>
<path d="M33.925 75.14H69.545V74.615H33.925V75.14Z" fill="#F0F0F0"/>
<path d="M125.6 180.15C125.6 180.15 123.23 174.975 125.94 169.87C128.65 164.765 129.44 163.57 127.705 162.525C125.97 161.48 125.205 166.605 125.205 166.605C124.348 164.288 124.261 161.756 124.955 159.385C126.155 155.695 126.91 149.685 125.27 149.04C123.63 148.395 124.955 156.54 123.53 159.315C122.805 157.366 122.336 155.33 122.135 153.26C121.94 150.295 122.245 145.565 120.95 144.35C119.655 143.135 118.825 143.975 120.095 150.515C120.861 154.424 121.285 158.392 121.36 162.375C121.36 162.375 118.55 153.795 116.66 153.545C114.77 153.295 114.77 156.075 116.39 158.485C118.01 160.895 121.125 165.21 121.635 167.435C121.635 167.435 118.545 160.975 115.765 162.935C112.985 164.895 118.185 168.815 120.505 170.225C122.825 171.635 124.41 180.5 124.41 180.5L125.6 180.15Z" fill="#E0E0E0"/>
<path d="M123.73 182.27C123.73 182.27 126.04 177.06 123.27 172C120.5 166.94 119.695 165.75 121.41 164.68C123.125 163.61 123.98 168.72 123.98 168.72C124.811 166.394 124.87 163.862 124.15 161.5C122.9 157.83 122.075 151.83 123.71 151.16C125.345 150.49 124.115 158.66 125.57 161.41C126.272 159.451 126.716 157.409 126.89 155.335C127.055 152.365 126.69 147.64 127.97 146.405C129.25 145.17 130.095 146 128.895 152.56C128.177 156.478 127.802 160.452 127.775 164.435C127.775 164.435 130.485 155.815 132.37 155.535C134.255 155.255 134.29 158.035 132.7 160.47C131.11 162.905 128.045 167.27 127.56 169.5C127.56 169.5 130.56 163 133.375 164.93C136.19 166.86 131.03 170.85 128.73 172.29C126.43 173.73 124.925 182.595 124.925 182.595L123.73 182.27Z" fill="#EBEBEB"/>
<path d="M134.38 178.555H115.3L116.845 192.21H132.835L134.38 178.555Z" fill="#EBEBEB"/>
<path d="M125 213.78C178.541 213.78 221.945 211.246 221.945 208.12C221.945 204.994 178.541 202.46 125 202.46C71.4587 202.46 28.055 204.994 28.055 208.12C28.055 211.246 71.4587 213.78 125 213.78Z" fill="#F5F5F5"/>
<path d="M194.33 151.405C194.33 151.405 181.955 148.905 170.01 150.115C158.065 151.325 175.63 166.935 175.63 166.935H178.1C178.1 166.935 168.79 157.04 169.31 154.575C169.83 152.11 193.27 155.36 193.27 155.36L194.33 151.405Z" fill="#263238"/>
<path opacity="0.2" d="M194.33 151.405C194.33 151.405 181.955 148.905 170.01 150.115C158.065 151.325 175.63 166.935 175.63 166.935H178.1C178.1 166.935 168.79 157.04 169.31 154.575C169.83 152.11 193.27 155.36 193.27 155.36L194.33 151.405Z" fill="white"/>
<path d="M189.865 166.395C193.77 151.103 196.033 135.437 196.615 119.665C196.674 118.165 197.312 116.746 198.394 115.706C199.476 114.666 200.919 114.085 202.42 114.085H212.835C214.371 114.085 215.844 114.693 216.933 115.776C218.021 116.859 218.637 118.329 218.645 119.865C218.685 129.365 218.02 150.635 212.645 166.395H189.865Z" fill="#263238"/>
<path opacity="0.4" d="M189.865 166.395C193.77 151.103 196.033 135.437 196.615 119.665C196.674 118.165 197.312 116.746 198.394 115.706C199.476 114.666 200.919 114.085 202.42 114.085H212.835C214.371 114.085 215.844 114.693 216.933 115.776C218.021 116.859 218.637 118.329 218.645 119.865C218.685 129.365 218.02 150.635 212.645 166.395H189.865Z" fill="white"/>
<path d="M186.825 163.75C188.515 157.35 192.325 140.8 193.13 118.935C193.192 117.309 193.882 115.77 195.055 114.642C196.228 113.513 197.793 112.884 199.42 112.885H210.71C212.373 112.886 213.969 113.546 215.147 114.72C216.326 115.894 216.992 117.487 217 119.15C217.045 129.43 216.325 150.455 210.525 167.54L189.025 166.75C188.669 166.734 188.32 166.638 188.006 166.469C187.692 166.3 187.419 166.064 187.208 165.776C186.997 165.488 186.853 165.157 186.787 164.806C186.72 164.456 186.734 164.095 186.825 163.75Z" fill="#00677D"/>
<path opacity="0.2" d="M186.825 163.75C188.515 157.35 192.325 140.8 193.13 118.935C193.192 117.309 193.882 115.77 195.055 114.642C196.228 113.513 197.793 112.884 199.42 112.885H210.71C212.373 112.886 213.969 113.546 215.147 114.72C216.326 115.894 216.992 117.487 217 119.15C217.045 129.43 216.325 150.455 210.525 167.54L189.025 166.75C188.669 166.734 188.32 166.638 188.006 166.469C187.692 166.3 187.419 166.064 187.208 165.776C186.997 165.488 186.853 165.157 186.787 164.806C186.72 164.456 186.734 164.095 186.825 163.75Z" fill="black"/>
<path d="M209.16 166.895H170.975V160.93C170.975 160.267 171.238 159.631 171.707 159.162C172.176 158.693 172.812 158.43 173.475 158.43H206.66C207.323 158.43 207.959 158.693 208.428 159.162C208.897 159.631 209.16 160.267 209.16 160.93V166.895Z" fill="#00677D"/>
<path d="M207.93 196.655L195.695 195.45V178.255H190.845V195.445L178.56 196.655C177.971 196.712 177.425 196.987 177.027 197.425C176.63 197.863 176.41 198.433 176.41 199.025V200.865H210.08V199.025C210.08 198.433 209.86 197.863 209.463 197.425C209.065 196.987 208.519 196.712 207.93 196.655Z" fill="#263238"/>
<path opacity="0.4" d="M207.93 196.655L195.695 195.45V178.255H190.845V195.445L178.56 196.655C177.971 196.712 177.425 196.987 177.027 197.425C176.63 197.863 176.41 198.433 176.41 199.025V200.865H210.08V199.025C210.08 198.433 209.86 197.863 209.463 197.425C209.065 196.987 208.519 196.712 207.93 196.655Z" fill="white"/>
<path d="M180.875 203.14C180.875 203.767 180.689 204.38 180.341 204.901C179.992 205.422 179.497 205.829 178.918 206.069C178.339 206.309 177.701 206.371 177.087 206.249C176.472 206.127 175.907 205.825 175.463 205.382C175.02 204.938 174.718 204.373 174.596 203.758C174.474 203.144 174.536 202.506 174.776 201.927C175.016 201.348 175.423 200.853 175.944 200.504C176.465 200.156 177.078 199.97 177.705 199.97C178.546 199.97 179.352 200.304 179.947 200.898C180.541 201.493 180.875 202.299 180.875 203.14Z" fill="#263238"/>
<path opacity="0.4" d="M177.705 204.81C177.375 204.81 177.052 204.712 176.777 204.529C176.503 204.345 176.289 204.084 176.162 203.779C176.036 203.474 176.003 203.138 176.067 202.814C176.132 202.49 176.291 202.193 176.524 201.959C176.758 201.726 177.055 201.567 177.379 201.502C177.703 201.438 178.039 201.471 178.344 201.597C178.649 201.724 178.91 201.938 179.094 202.212C179.277 202.487 179.375 202.81 179.375 203.14C179.374 203.583 179.197 204.007 178.884 204.319C178.572 204.632 178.148 204.809 177.705 204.81Z" fill="white"/>
<path d="M205.615 203.14C205.615 203.767 205.801 204.38 206.149 204.901C206.498 205.422 206.993 205.829 207.572 206.069C208.151 206.309 208.789 206.371 209.403 206.249C210.018 206.127 210.583 205.825 211.027 205.382C211.47 204.938 211.772 204.373 211.894 203.758C212.016 203.144 211.954 202.506 211.714 201.927C211.474 201.348 211.067 200.853 210.546 200.504C210.025 200.156 209.412 199.97 208.785 199.97C208.369 199.969 207.956 200.051 207.571 200.21C207.186 200.369 206.837 200.603 206.542 200.897C206.248 201.192 206.014 201.541 205.855 201.926C205.696 202.311 205.614 202.724 205.615 203.14Z" fill="#263238"/>
<path opacity="0.4" d="M208.785 204.81C208.455 204.81 208.132 204.712 207.857 204.529C207.583 204.345 207.369 204.084 207.242 203.779C207.116 203.474 207.083 203.138 207.147 202.814C207.212 202.49 207.371 202.193 207.604 201.959C207.838 201.726 208.135 201.567 208.459 201.502C208.783 201.438 209.119 201.471 209.424 201.597C209.729 201.724 209.99 201.938 210.174 202.212C210.357 202.487 210.455 202.81 210.455 203.14C210.455 203.583 210.279 204.008 209.966 204.321C209.653 204.634 209.228 204.81 208.785 204.81Z" fill="white"/>
<path d="M190 166.635H196.5V179.885C196.5 180.433 196.282 180.958 195.895 181.345C195.508 181.732 194.983 181.95 194.435 181.95H192.05C191.502 181.95 190.977 181.732 190.59 181.345C190.203 180.958 189.985 180.433 189.985 179.885V166.635H190Z" fill="#263238"/>
<path opacity="0.2" d="M190 166.635H196.5V179.885C196.5 180.433 196.282 180.958 195.895 181.345C195.508 181.732 194.983 181.95 194.435 181.95H192.05C191.502 181.95 190.977 181.732 190.59 181.345C190.203 180.958 189.985 180.433 189.985 179.885V166.635H190Z" fill="white"/>
<path d="M170.635 168.395H212.08C212.635 168.395 213.085 167.945 213.085 167.39V166.92C213.085 166.365 212.635 165.915 212.08 165.915H170.635C170.08 165.915 169.63 166.365 169.63 166.92V167.39C169.63 167.945 170.08 168.395 170.635 168.395Z" fill="#263238"/>
<g opacity="0.4">
<path d="M170.635 168.395H212.08C212.635 168.395 213.085 167.945 213.085 167.39V166.92C213.085 166.365 212.635 165.915 212.08 165.915H170.635C170.08 165.915 169.63 166.365 169.63 166.92V167.39C169.63 167.945 170.08 168.395 170.635 168.395Z" fill="white"/>
</g>
<path d="M216.33 151.405C216.33 151.405 203.955 148.905 192.01 150.115C180.065 151.325 197.63 166.935 197.63 166.935H200.1C200.1 166.935 190.79 157.04 191.31 154.575C191.83 152.11 215.27 155.36 215.27 155.36L216.33 151.405Z" fill="#263238"/>
<path opacity="0.4" d="M216.33 151.405C216.33 151.405 203.955 148.905 192.01 150.115C180.065 151.325 197.63 166.935 197.63 166.935H200.1C200.1 166.935 190.79 157.04 191.31 154.575C191.83 152.11 215.27 155.36 215.27 155.36L216.33 151.405Z" fill="white"/>
<path d="M63.645 154.085V154.585H56.025V154.2C56.025 153.275 56.985 152.515 58.215 152.465H58.62L61.2 152.36C62.53 152.295 63.645 153.085 63.645 154.085Z" fill="#263238"/>
<path opacity="0.2" d="M60.135 154.085V154.585H56.025V154.2C56.025 153.275 56.985 152.515 58.215 152.465H58.62C59.5 152.695 60.135 153.335 60.135 154.085Z" fill="white"/>
<path d="M125.78 206.285H126.545C126.591 206.285 126.635 206.267 126.669 206.236C126.702 206.204 126.722 206.161 126.725 206.115L127.935 159.17H124.39L125.605 206.115C125.606 206.16 125.625 206.204 125.658 206.235C125.691 206.267 125.734 206.285 125.78 206.285Z" fill="#263238"/>
<path d="M153.12 206.285H154.89L149.89 159.17H146.345L153.12 206.285Z" fill="#263238"/>
<path d="M38.99 206.285L45.78 159.17H42.24L37.24 206.285H38.99Z" fill="#263238"/>
<path d="M64.945 206.285H66.98H66.985L67.735 159.17H64.195L64.945 206.285Z" fill="#263238"/>
<g opacity="0.4">
<path d="M153.12 206.285H154.89L149.89 159.17H146.345L153.12 206.285Z" fill="white"/>
</g>
<path opacity="0.4" d="M64.945 206.285H66.98H66.985L67.735 159.17H64.195L64.945 206.285Z" fill="white"/>
<g opacity="0.2">
<path d="M125.78 206.285H126.545C126.591 206.285 126.635 206.267 126.669 206.236C126.702 206.204 126.722 206.161 126.725 206.115L127.935 159.17H124.39L125.605 206.115C125.606 206.16 125.625 206.204 125.658 206.235C125.691 206.267 125.734 206.285 125.78 206.285Z" fill="white"/>
</g>
<path opacity="0.2" d="M38.99 206.285L45.78 159.17H42.24L37.24 206.285H38.99Z" fill="white"/>
<path d="M71.115 154.85H81.2L82.805 140.77C82.7897 140.515 82.6776 140.276 82.4917 140.101C82.3058 139.927 82.0601 139.829 81.805 139.83H75.06C74.8048 139.829 74.5592 139.927 74.3733 140.101C74.1874 140.276 74.0753 140.515 74.06 140.77L71.115 154.85Z" fill="#263238"/>
<path d="M55.725 119.125H58.225L61.055 145.715H58.555C58.348 145.712 58.1493 145.633 57.9957 145.494C57.8421 145.355 57.7442 145.166 57.72 144.96L55.05 119.88C55.0369 119.785 55.0448 119.687 55.0729 119.595C55.1011 119.503 55.1489 119.418 55.2131 119.347C55.2773 119.275 55.3563 119.218 55.4447 119.179C55.5331 119.141 55.6287 119.123 55.725 119.125Z" fill="#263238"/>
<path d="M59.62 145.715H97.35C97.446 145.716 97.5413 145.697 97.6292 145.659C97.7172 145.62 97.7959 145.563 97.8599 145.492C97.9239 145.42 97.9718 145.335 98.0003 145.244C98.0288 145.152 98.0372 145.055 98.025 144.96L95.355 119.88C95.3298 119.675 95.2315 119.486 95.0782 119.347C94.9248 119.208 94.7267 119.129 94.52 119.125H56.79C56.6937 119.123 56.5981 119.141 56.5097 119.179C56.4213 119.218 56.3423 119.275 56.2781 119.347C56.2139 119.418 56.1661 119.503 56.1379 119.595C56.1098 119.687 56.1019 119.785 56.115 119.88L58.78 144.96C58.8063 145.166 58.9056 145.355 59.0598 145.493C59.2139 145.632 59.4127 145.711 59.62 145.715Z" fill="#263238"/>
<path d="M70.67 154.855H83.205C83.4701 154.855 83.685 154.64 83.685 154.375V154.24C83.685 153.975 83.4701 153.76 83.205 153.76H70.67C70.4049 153.76 70.19 153.975 70.19 154.24V154.375C70.19 154.64 70.4049 154.855 70.67 154.855Z" fill="#263238"/>
<path opacity="0.2" d="M59.62 145.715H97.35C97.446 145.716 97.5413 145.697 97.6292 145.659C97.7172 145.62 97.7959 145.563 97.8599 145.492C97.9239 145.42 97.9718 145.335 98.0003 145.244C98.0288 145.152 98.0372 145.055 98.025 144.96L95.355 119.88C95.3298 119.675 95.2315 119.486 95.0782 119.347C94.9248 119.208 94.7267 119.129 94.52 119.125H56.79C56.6937 119.123 56.5981 119.141 56.5097 119.179C56.4213 119.218 56.3423 119.275 56.2781 119.347C56.2139 119.418 56.1661 119.503 56.1379 119.595C56.1098 119.687 56.1019 119.785 56.115 119.88L58.78 144.96C58.8063 145.166 58.9056 145.355 59.0598 145.493C59.2139 145.632 59.4127 145.711 59.62 145.715Z" fill="white"/>
<path d="M60.325 143.26H95.9C95.985 143.264 96.0699 143.249 96.1485 143.216C96.2271 143.183 96.2975 143.134 96.3548 143.071C96.412 143.008 96.4547 142.933 96.4798 142.851C96.5049 142.77 96.5118 142.684 96.5 142.6L94.175 120.72C94.1533 120.54 94.0675 120.375 93.9334 120.253C93.7992 120.132 93.6258 120.063 93.445 120.06H57.855C57.7707 120.058 57.687 120.074 57.6097 120.107C57.5323 120.14 57.4631 120.19 57.407 120.253C57.3508 120.316 57.309 120.39 57.2845 120.471C57.26 120.551 57.2533 120.636 57.265 120.72L59.595 142.6C59.6166 142.779 59.7024 142.945 59.8366 143.066C59.9707 143.188 60.1442 143.256 60.325 143.26Z" fill="#00677D"/>
<path opacity="0.2" d="M70.67 154.855H83.205C83.4701 154.855 83.685 154.64 83.685 154.375V154.24C83.685 153.975 83.4701 153.76 83.205 153.76H70.67C70.4049 153.76 70.19 153.975 70.19 154.24V154.375C70.19 154.64 70.4049 154.855 70.67 154.855Z" fill="white"/>
<path opacity="0.2" d="M60.325 143.26H95.9C95.985 143.264 96.0699 143.249 96.1485 143.216C96.2271 143.183 96.2975 143.134 96.3548 143.071C96.412 143.008 96.4547 142.933 96.4798 142.851C96.5049 142.77 96.5118 142.684 96.5 142.6L94.175 120.72C94.1533 120.54 94.0675 120.375 93.9334 120.253C93.7992 120.132 93.6258 120.063 93.445 120.06H57.855C57.7707 120.058 57.687 120.074 57.6097 120.107C57.5323 120.14 57.4631 120.19 57.407 120.253C57.3508 120.316 57.309 120.39 57.2845 120.471C57.26 120.551 57.2533 120.636 57.265 120.72L59.595 142.6C59.6166 142.779 59.7024 142.945 59.8366 143.066C59.9707 143.188 60.1442 143.256 60.325 143.26Z" fill="black"/>
<path d="M70.905 154.535H62.145H40.19V159.17H62.145H70.905H151.94V154.535H70.905Z" fill="#00677D"/>
<path d="M93.63 153.7H94.57C94.5936 153.7 94.617 153.695 94.6389 153.686C94.6607 153.677 94.6805 153.664 94.6973 153.647C94.714 153.631 94.7272 153.611 94.7363 153.589C94.7453 153.567 94.75 153.544 94.75 153.52V152.52C94.75 152.496 94.7453 152.473 94.7363 152.451C94.7272 152.429 94.714 152.409 94.6973 152.393C94.6805 152.376 94.6607 152.363 94.6389 152.354C94.617 152.345 94.5936 152.34 94.57 152.34H93.895C93.8556 152.34 93.8174 152.353 93.7865 152.378C93.7557 152.402 93.734 152.437 93.725 152.475L93.46 153.475C93.4521 153.501 93.4506 153.529 93.4555 153.556C93.4603 153.583 93.4715 153.609 93.4881 153.63C93.5046 153.652 93.5261 153.67 93.5507 153.682C93.5754 153.694 93.6025 153.7 93.63 153.7Z" fill="#00677D"/>
<path d="M92.33 153.7H93.27C93.3177 153.7 93.3635 153.681 93.3973 153.647C93.431 153.613 93.45 153.568 93.45 153.52V152.52C93.45 152.472 93.431 152.426 93.3973 152.393C93.3635 152.359 93.3177 152.34 93.27 152.34H92.595C92.5556 152.34 92.5174 152.353 92.4865 152.378C92.4557 152.402 92.434 152.437 92.425 152.475L92.155 153.475C92.1481 153.502 92.1474 153.53 92.153 153.556C92.1586 153.583 92.1703 153.609 92.1872 153.63C92.2041 153.652 92.2258 153.67 92.2505 153.682C92.2753 153.694 92.3025 153.7 92.33 153.7Z" fill="#00677D"/>
<path d="M91.03 153.7H91.97C91.9936 153.7 92.017 153.695 92.0389 153.686C92.0607 153.677 92.0806 153.664 92.0973 153.647C92.114 153.631 92.1272 153.611 92.1363 153.589C92.1453 153.567 92.15 153.544 92.15 153.52V152.52C92.15 152.496 92.1453 152.473 92.1363 152.451C92.1272 152.429 92.114 152.409 92.0973 152.393C92.0806 152.376 92.0607 152.363 92.0389 152.354C92.017 152.345 91.9936 152.34 91.97 152.34H91.295C91.2552 152.341 91.2166 152.354 91.1851 152.378C91.1536 152.403 91.1307 152.437 91.12 152.475L90.855 153.475C90.8481 153.502 90.8474 153.53 90.853 153.556C90.8586 153.583 90.8703 153.609 90.8872 153.63C90.9041 153.652 90.9258 153.67 90.9505 153.682C90.9753 153.694 91.0025 153.7 91.03 153.7Z" fill="#00677D"/>
<path d="M89.73 153.7H90.67C90.7177 153.7 90.7635 153.681 90.7973 153.647C90.831 153.613 90.85 153.568 90.85 153.52V152.52C90.85 152.472 90.831 152.426 90.7973 152.393C90.7635 152.359 90.7177 152.34 90.67 152.34H90C89.9602 152.341 89.9216 152.354 89.8901 152.378C89.8586 152.403 89.8357 152.437 89.825 152.475L89.56 153.475C89.5532 153.501 89.5524 153.529 89.5577 153.555C89.5631 153.582 89.5743 153.607 89.5906 153.629C89.607 153.65 89.628 153.668 89.6521 153.68C89.6763 153.693 89.7029 153.699 89.73 153.7Z" fill="#00677D"/>
<path d="M88.43 153.7H89.37C89.4177 153.7 89.4635 153.681 89.4973 153.647C89.531 153.613 89.55 153.568 89.55 153.52V152.52C89.55 152.472 89.531 152.426 89.4973 152.393C89.4635 152.359 89.4177 152.34 89.37 152.34H88.695C88.6552 152.341 88.6166 152.354 88.5851 152.378C88.5536 152.403 88.5307 152.437 88.52 152.475L88.255 153.475C88.2481 153.502 88.2474 153.53 88.253 153.556C88.2586 153.583 88.2703 153.609 88.2872 153.63C88.3041 153.652 88.3258 153.67 88.3505 153.682C88.3753 153.694 88.4025 153.7 88.43 153.7Z" fill="#00677D"/>
<path d="M87.13 153.7H88.07C88.1177 153.7 88.1635 153.681 88.1973 153.647C88.231 153.613 88.25 153.568 88.25 153.52V152.52C88.25 152.472 88.231 152.426 88.1973 152.393C88.1635 152.359 88.1177 152.34 88.07 152.34H87.395C87.3552 152.341 87.3166 152.354 87.2851 152.378C87.2536 152.403 87.2308 152.437 87.22 152.475L86.955 153.475C86.9481 153.502 86.9474 153.53 86.953 153.556C86.9586 153.583 86.9703 153.609 86.9872 153.63C87.0041 153.652 87.0258 153.67 87.0505 153.682C87.0753 153.694 87.1025 153.7 87.13 153.7Z" fill="#00677D"/>
<path d="M85.83 153.7H86.77C86.8177 153.7 86.8635 153.681 86.8973 153.647C86.931 153.613 86.95 153.568 86.95 153.52V152.52C86.95 152.472 86.931 152.426 86.8973 152.393C86.8635 152.359 86.8177 152.34 86.77 152.34H86.095C86.055 152.34 86.016 152.353 85.9843 152.377C85.9526 152.402 85.93 152.436 85.92 152.475L85.655 153.475C85.6481 153.502 85.6474 153.53 85.653 153.556C85.6586 153.583 85.6703 153.609 85.6872 153.63C85.7041 153.652 85.7258 153.67 85.7505 153.682C85.7753 153.694 85.8025 153.7 85.83 153.7Z" fill="#00677D"/>
<path d="M84.53 153.7H85.47C85.4936 153.7 85.517 153.695 85.5389 153.686C85.5607 153.677 85.5806 153.664 85.5973 153.647C85.614 153.631 85.6272 153.611 85.6363 153.589C85.6453 153.567 85.65 153.544 85.65 153.52V152.52C85.65 152.496 85.6453 152.473 85.6363 152.451C85.6272 152.429 85.614 152.409 85.5973 152.393C85.5806 152.376 85.5607 152.363 85.5389 152.354C85.517 152.345 85.4936 152.34 85.47 152.34H84.795C84.755 152.34 84.716 152.353 84.6843 152.377C84.6526 152.402 84.63 152.436 84.62 152.475L84.355 153.475C84.3481 153.502 84.3474 153.53 84.353 153.556C84.3586 153.583 84.3703 153.609 84.3872 153.63C84.4041 153.652 84.4258 153.67 84.4505 153.682C84.4753 153.694 84.5025 153.7 84.53 153.7Z" fill="#00677D"/>
<path d="M83.23 153.7H84.17C84.2177 153.7 84.2635 153.681 84.2973 153.647C84.331 153.613 84.35 153.568 84.35 153.52V152.52C84.35 152.472 84.331 152.426 84.2973 152.393C84.2635 152.359 84.2177 152.34 84.17 152.34H83.5C83.46 152.34 83.421 152.353 83.3893 152.377C83.3576 152.402 83.335 152.436 83.325 152.475L83.06 153.475C83.0532 153.501 83.0524 153.529 83.0577 153.555C83.0631 153.582 83.0743 153.607 83.0906 153.629C83.107 153.65 83.128 153.668 83.1521 153.68C83.1763 153.693 83.2029 153.699 83.23 153.7Z" fill="#00677D"/>
<path d="M81.93 153.7H82.87C82.9177 153.7 82.9635 153.681 82.9973 153.647C83.031 153.613 83.05 153.568 83.05 153.52V152.52C83.05 152.472 83.031 152.426 82.9973 152.393C82.9635 152.359 82.9177 152.34 82.87 152.34H82.195C82.155 152.34 82.116 152.353 82.0843 152.377C82.0526 152.402 82.03 152.436 82.02 152.475L81.755 153.475C81.7481 153.502 81.7474 153.53 81.753 153.556C81.7586 153.583 81.7703 153.609 81.7872 153.63C81.8041 153.652 81.8258 153.67 81.8505 153.682C81.8753 153.694 81.9025 153.7 81.93 153.7Z" fill="#00677D"/>
<path d="M80.63 153.7H81.57C81.6177 153.7 81.6635 153.681 81.6973 153.647C81.731 153.613 81.75 153.568 81.75 153.52V152.52C81.75 152.472 81.731 152.426 81.6973 152.393C81.6635 152.359 81.6177 152.34 81.57 152.34H80.895C80.8547 152.339 80.8154 152.352 80.7835 152.376C80.7516 152.401 80.7292 152.436 80.72 152.475L80.455 153.475C80.4481 153.502 80.4474 153.529 80.453 153.556C80.4586 153.583 80.4703 153.609 80.4872 153.63C80.5041 153.652 80.5258 153.67 80.5505 153.682C80.5753 153.694 80.6025 153.7 80.63 153.7Z" fill="#00677D"/>
<path d="M79.33 153.7H80.27C80.2936 153.7 80.317 153.695 80.3389 153.686C80.3607 153.677 80.3806 153.664 80.3973 153.647C80.414 153.63 80.4272 153.611 80.4363 153.589C80.4453 153.567 80.45 153.544 80.45 153.52V152.52C80.45 152.496 80.4453 152.473 80.4363 152.451C80.4272 152.429 80.414 152.409 80.3973 152.393C80.3806 152.376 80.3607 152.363 80.3389 152.354C80.317 152.345 80.2936 152.34 80.27 152.34H79.595C79.5547 152.339 79.5154 152.352 79.4835 152.376C79.4516 152.401 79.4292 152.436 79.42 152.475L79.155 153.475C79.1481 153.502 79.1474 153.529 79.153 153.556C79.1586 153.583 79.1703 153.609 79.1872 153.63C79.2041 153.652 79.2258 153.67 79.2505 153.682C79.2753 153.694 79.3025 153.7 79.33 153.7Z" fill="#00677D"/>
<path d="M78.03 153.7H78.97C79.0177 153.7 79.0635 153.681 79.0973 153.647C79.131 153.613 79.15 153.568 79.15 153.52V152.52C79.15 152.472 79.131 152.426 79.0973 152.393C79.0635 152.359 79.0177 152.34 78.97 152.34H78.295C78.2547 152.339 78.2154 152.352 78.1835 152.376C78.1516 152.401 78.1292 152.436 78.12 152.475L77.855 153.475C77.8481 153.502 77.8474 153.529 77.853 153.556C77.8586 153.583 77.8703 153.609 77.8872 153.63C77.9041 153.652 77.9258 153.67 77.9505 153.682C77.9753 153.694 78.0025 153.7 78.03 153.7Z" fill="#00677D"/>
<path d="M76.725 153.7H77.67C77.7177 153.7 77.7635 153.681 77.7973 153.647C77.831 153.613 77.85 153.568 77.85 153.52V152.52C77.85 152.472 77.831 152.426 77.7973 152.393C77.7635 152.359 77.7177 152.34 77.67 152.34H77C76.9597 152.339 76.9204 152.352 76.8885 152.376C76.8566 152.401 76.8342 152.436 76.825 152.475L76.56 153.475C76.5533 153.501 76.5524 153.528 76.5574 153.554C76.5625 153.58 76.5733 153.605 76.5891 153.627C76.6049 153.648 76.6253 153.666 76.6488 153.679C76.6723 153.691 76.6983 153.699 76.725 153.7Z" fill="#00677D"/>
<path d="M75.425 153.7H76.37C76.4177 153.7 76.4635 153.681 76.4973 153.647C76.531 153.613 76.55 153.568 76.55 153.52V152.52C76.55 152.472 76.531 152.426 76.4973 152.393C76.4635 152.359 76.4177 152.34 76.37 152.34H75.69C75.6506 152.34 75.6124 152.353 75.5815 152.378C75.5507 152.402 75.529 152.437 75.52 152.475L75.255 153.475C75.2482 153.501 75.2474 153.529 75.2527 153.555C75.258 153.582 75.2693 153.607 75.2856 153.629C75.302 153.65 75.323 153.668 75.3471 153.68C75.3713 153.693 75.3979 153.699 75.425 153.7Z" fill="#00677D"/>
<path d="M74.48 154.59H95.52V153.025H74.48V154.59Z" fill="#263238"/>
<path opacity="0.2" d="M74.48 154.59H95.52V153.025H74.48V154.59Z" fill="white"/>
<path opacity="0.2" d="M74.485 154.59H81.3V153.025H74.485V154.59Z" fill="white"/>
<path opacity="0.2" d="M62.145 159.165H151.94V154.53H62.145V159.165Z" fill="white"/>
<path d="M44.125 198.755C44.1884 198.623 44.2191 198.478 44.2145 198.332C44.2098 198.185 44.17 198.043 44.0984 197.915C44.0268 197.787 43.9254 197.679 43.803 197.599C43.6805 197.519 43.5406 197.469 43.395 197.455C43.5208 197.081 43.5294 196.678 43.4194 196.299C43.3095 195.92 43.0864 195.584 42.78 195.335C42.7076 195.266 42.6143 195.224 42.515 195.215C42.4074 195.224 42.3056 195.268 42.225 195.34L40.525 196.56C40.3897 196.645 40.2752 196.76 40.19 196.895C39.84 197.565 41.095 198.43 40.58 198.985C40.43 199.145 40.195 199.175 40.01 199.29C39.605 199.545 39.555 200.1 39.37 200.54C39.185 200.98 38.52 201.315 38.27 200.91C38.455 200.49 37.895 200.13 37.44 200.075C36.985 200.02 36.505 199.995 36.255 199.575C35.605 200.14 34.155 198.575 34.19 197.925C33.937 197.973 33.7051 198.099 33.5261 198.284C33.3471 198.469 33.2297 198.705 33.19 198.96C33.1166 199.487 33.0982 200.019 33.135 200.55C33.135 201.58 32.785 202.59 32.805 203.62C32.805 204.42 33.13 205.31 33.86 205.62C34.2251 205.75 34.6137 205.801 35 205.77L43.36 205.715C43.5615 205.732 43.764 205.699 43.95 205.62C44.325 205.425 44.405 204.93 44.45 204.505L44.9 199.055L44.125 198.755Z" fill="#00677D"/>
<path opacity="0.3" d="M44.125 198.755C44.1884 198.623 44.2191 198.478 44.2145 198.332C44.2098 198.185 44.17 198.043 44.0984 197.915C44.0268 197.787 43.9254 197.679 43.803 197.599C43.6805 197.519 43.5406 197.469 43.395 197.455C43.5208 197.081 43.5294 196.678 43.4194 196.299C43.3095 195.92 43.0864 195.584 42.78 195.335C42.7076 195.266 42.6143 195.224 42.515 195.215C42.4074 195.224 42.3056 195.268 42.225 195.34L40.525 196.56C40.3897 196.645 40.2752 196.76 40.19 196.895C39.84 197.565 41.095 198.43 40.58 198.985C40.43 199.145 40.195 199.175 40.01 199.29C39.605 199.545 39.555 200.1 39.37 200.54C39.185 200.98 38.52 201.315 38.27 200.91C38.455 200.49 37.895 200.13 37.44 200.075C36.985 200.02 36.505 199.995 36.255 199.575C35.605 200.14 34.155 198.575 34.19 197.925C33.937 197.973 33.7051 198.099 33.5261 198.284C33.3471 198.469 33.2297 198.705 33.19 198.96C33.1166 199.487 33.0982 200.019 33.135 200.55C33.135 201.58 32.785 202.59 32.805 203.62C32.805 204.42 33.13 205.31 33.86 205.62C34.2251 205.75 34.6137 205.801 35 205.77L43.36 205.715C43.5615 205.732 43.764 205.699 43.95 205.62C44.325 205.425 44.405 204.93 44.45 204.505L44.9 199.055L44.125 198.755Z" fill="white"/>
<path d="M44.61 189.92H31.64L31.745 191.23L31.82 192.165L32.02 194.6L32.135 196L32.285 197.865L32.345 198.66V198.9L32.42 199.84L32.525 201.125L32.585 201.92L32.655 202.735L32.73 203.67L32.79 204.38L32.85 205.18L32.88 205.53H44.81V205.18L44.875 204.385L44.935 203.67L45.01 202.73L45.075 201.92L45.14 201.125L45.245 199.835L45.32 198.9V198.66L45.38 197.865L45.535 196L45.645 194.605L45.84 192.165L45.92 191.23L46.025 189.92H44.61ZM45.39 190.78L45.14 190.53H45.41L45.39 190.78ZM45.325 191.575L45.3 191.89L44.14 193.055L42.81 191.72L44 190.53H44.28L45.325 191.575ZM44.99 195.725L44.14 196.575L42.81 195.245L44.14 193.915L45.06 194.835L44.99 195.725ZM32.65 194.835L33.57 193.915L34.9 195.245L33.57 196.575L32.72 195.725L32.65 194.835ZM43.71 193.5L42.38 194.83L41.05 193.5L42.38 192.165L43.71 193.5ZM41.62 190.545H43.12L42.36 191.305L41.62 190.545ZM41.945 195.26L40.62 196.59L39.285 195.26L40.62 193.93L41.945 195.26ZM37.525 197L38.855 195.675L40.185 197L38.855 198.335L37.525 197ZM38.425 198.765L37.09 200.095L35.765 198.765L37.095 197.435L38.425 198.765ZM40.62 197.435L41.945 198.765L40.62 200.095L39.285 198.765L40.62 197.435ZM38.855 194.81L37.525 193.5L38.855 192.165L40.185 193.5L38.855 194.81ZM38.425 195.24L37.095 196.57L35.765 195.24L37.095 193.91L38.425 195.24ZM35.33 194.81L34 193.5L35.33 192.165L36.66 193.5L35.33 194.81ZM35.33 195.675L36.66 197L35.33 198.335L34 197L35.33 195.675ZM36.66 200.53L35.33 201.855L34 200.535L35.33 199.2L36.66 200.53ZM37.09 200.955L38.425 202.29L37.095 203.62L35.765 202.29L37.09 200.955ZM37.525 200.53L38.855 199.195L40.185 200.53L38.855 201.855L37.525 200.53ZM40.62 200.955L41.945 202.29L40.62 203.62L39.285 202.29L40.62 200.955ZM42.38 202.72L43.71 204.05L42.85 204.915H41.91L41.05 204.05L42.38 202.72ZM41.05 200.53L42.38 199.195L43.71 200.53L42.38 201.855L41.05 200.53ZM41.05 197L42.38 195.675L43.71 197L42.38 198.335L41.05 197ZM41.945 191.715L40.62 193.05L39.285 191.715L40.5 190.53H40.78L41.945 191.715ZM38.855 191.285L38.095 190.525H39.595L38.855 191.285ZM38.425 191.715L37.095 193.05L35.765 191.715L36.955 190.525H37.235L38.425 191.715ZM36.09 190.525L35.33 191.285L34.57 190.525H36.09ZM33.71 190.525L34.9 191.715L33.57 193.05L32.41 191.885V191.57L33.455 190.525H33.71ZM32.57 190.525L32.32 190.77V190.525H32.57ZM32.485 192.825L33.14 193.5L32.585 194.055L32.485 192.825ZM32.85 197.29L32.8 196.66L33.14 197L32.85 197.29ZM32.915 198.09L33.57 197.435L34.9 198.765L33.57 200.095L33.03 199.56L32.915 198.09ZM33.11 200.555V200.5L33.14 200.535L33.11 200.56V200.555ZM33.345 203.39L33.175 201.35L33.57 200.955L34.9 202.29L33.57 203.62L33.345 203.39ZM33.465 204.89L33.44 204.585L33.57 204.455L34 204.89H33.465ZM34 204.055L35.33 202.725L36.66 204.055L35.8 204.92H34.86L34 204.055ZM36.66 204.92L37.095 204.485L37.53 204.92H36.66ZM38.385 204.92L37.525 204.055L38.855 202.725L40.185 204.055L39.325 204.92H38.385ZM40.185 204.92L40.62 204.485L41.05 204.92H40.185ZM44.245 204.92H43.71L44.14 204.485L44.27 204.615L44.245 204.92ZM44.37 203.42L44.14 203.65L42.81 202.32L44.14 200.985L44.535 201.38L44.37 203.42ZM44.605 200.525V200.585L44.575 200.56L44.61 200.525H44.605ZM44.68 199.59L44.14 200.125L42.81 198.795L44.14 197.465L44.8 198.12L44.68 199.59ZM44.865 197.325L44.57 197.03L44.915 196.69L44.865 197.325ZM45.225 192.855L45.13 194.065L44.57 193.5L45.225 192.845V192.855Z" fill="#00677D"/>
<g opacity="0.6">
<path d="M44.61 189.92H31.64L31.745 191.23L31.82 192.165L32.02 194.6L32.135 196L32.285 197.865L32.345 198.66V198.9L32.42 199.84L32.525 201.125L32.585 201.92L32.655 202.735L32.73 203.67L32.79 204.38L32.85 205.18L32.88 205.53H44.81V205.18L44.875 204.385L44.935 203.67L45.01 202.73L45.075 201.92L45.14 201.125L45.245 199.835L45.32 198.9V198.66L45.38 197.865L45.535 196L45.645 194.605L45.84 192.165L45.92 191.23L46.025 189.92H44.61ZM45.39 190.78L45.14 190.53H45.41L45.39 190.78ZM45.325 191.575L45.3 191.89L44.14 193.055L42.81 191.72L44 190.53H44.28L45.325 191.575ZM44.99 195.725L44.14 196.575L42.81 195.245L44.14 193.915L45.06 194.835L44.99 195.725ZM32.65 194.835L33.57 193.915L34.9 195.245L33.57 196.575L32.72 195.725L32.65 194.835ZM43.71 193.5L42.38 194.83L41.05 193.5L42.38 192.165L43.71 193.5ZM41.62 190.545H43.12L42.36 191.305L41.62 190.545ZM41.945 195.26L40.62 196.59L39.285 195.26L40.62 193.93L41.945 195.26ZM37.525 197L38.855 195.675L40.185 197L38.855 198.335L37.525 197ZM38.425 198.765L37.09 200.095L35.765 198.765L37.095 197.435L38.425 198.765ZM40.62 197.435L41.945 198.765L40.62 200.095L39.285 198.765L40.62 197.435ZM38.855 194.81L37.525 193.5L38.855 192.165L40.185 193.5L38.855 194.81ZM38.425 195.24L37.095 196.57L35.765 195.24L37.095 193.91L38.425 195.24ZM35.33 194.81L34 193.5L35.33 192.165L36.66 193.5L35.33 194.81ZM35.33 195.675L36.66 197L35.33 198.335L34 197L35.33 195.675ZM36.66 200.53L35.33 201.855L34 200.535L35.33 199.2L36.66 200.53ZM37.09 200.955L38.425 202.29L37.095 203.62L35.765 202.29L37.09 200.955ZM37.525 200.53L38.855 199.195L40.185 200.53L38.855 201.855L37.525 200.53ZM40.62 200.955L41.945 202.29L40.62 203.62L39.285 202.29L40.62 200.955ZM42.38 202.72L43.71 204.05L42.85 204.915H41.91L41.05 204.05L42.38 202.72ZM41.05 200.53L42.38 199.195L43.71 200.53L42.38 201.855L41.05 200.53ZM41.05 197L42.38 195.675L43.71 197L42.38 198.335L41.05 197ZM41.945 191.715L40.62 193.05L39.285 191.715L40.5 190.53H40.78L41.945 191.715ZM38.855 191.285L38.095 190.525H39.595L38.855 191.285ZM38.425 191.715L37.095 193.05L35.765 191.715L36.955 190.525H37.235L38.425 191.715ZM36.09 190.525L35.33 191.285L34.57 190.525H36.09ZM33.71 190.525L34.9 191.715L33.57 193.05L32.41 191.885V191.57L33.455 190.525H33.71ZM32.57 190.525L32.32 190.77V190.525H32.57ZM32.485 192.825L33.14 193.5L32.585 194.055L32.485 192.825ZM32.85 197.29L32.8 196.66L33.14 197L32.85 197.29ZM32.915 198.09L33.57 197.435L34.9 198.765L33.57 200.095L33.03 199.56L32.915 198.09ZM33.11 200.555V200.5L33.14 200.535L33.11 200.56V200.555ZM33.345 203.39L33.175 201.35L33.57 200.955L34.9 202.29L33.57 203.62L33.345 203.39ZM33.465 204.89L33.44 204.585L33.57 204.455L34 204.89H33.465ZM34 204.055L35.33 202.725L36.66 204.055L35.8 204.92H34.86L34 204.055ZM36.66 204.92L37.095 204.485L37.53 204.92H36.66ZM38.385 204.92L37.525 204.055L38.855 202.725L40.185 204.055L39.325 204.92H38.385ZM40.185 204.92L40.62 204.485L41.05 204.92H40.185ZM44.245 204.92H43.71L44.14 204.485L44.27 204.615L44.245 204.92ZM44.37 203.42L44.14 203.65L42.81 202.32L44.14 200.985L44.535 201.38L44.37 203.42ZM44.605 200.525V200.585L44.575 200.56L44.61 200.525H44.605ZM44.68 199.59L44.14 200.125L42.81 198.795L44.14 197.465L44.8 198.12L44.68 199.59ZM44.865 197.325L44.57 197.03L44.915 196.69L44.865 197.325ZM45.225 192.855L45.13 194.065L44.57 193.5L45.225 192.845V192.855Z" fill="white"/>
</g>
<path d="M31.63 191.075H46.08C46.5329 191.075 46.9 190.708 46.9 190.255V190.2C46.9 189.747 46.5329 189.38 46.08 189.38H31.63C31.1771 189.38 30.81 189.747 30.81 190.2V190.255C30.81 190.708 31.1771 191.075 31.63 191.075Z" fill="#00677D"/>
<path d="M44.92 204.615H32.79C32.3371 204.615 31.97 204.982 31.97 205.435V205.49C31.97 205.943 32.3371 206.31 32.79 206.31H44.92C45.3729 206.31 45.74 205.943 45.74 205.49V205.435C45.74 204.982 45.3729 204.615 44.92 204.615Z" fill="#00677D"/>
<path d="M120.765 67.4239L135.516 64.8707C136.52 64.6969 137.193 63.7421 137.019 62.7381L134.466 47.9874C134.292 46.9834 133.338 46.3103 132.334 46.4841L117.583 49.0373C116.579 49.2111 115.906 50.1659 116.08 51.1699L118.633 65.9206C118.807 66.9246 119.761 67.5977 120.765 67.4239Z" fill="#00677D"/>
<path d="M125.925 65.0701C125.925 65.0701 129.29 70.1651 134.99 70.9551C134.99 70.9551 131.705 69.7501 130.94 63.9551L125.925 65.0701Z" fill="#00677D"/>
<path d="M130.795 55.5501L128.415 55.8351C128.415 55.8351 127.635 54.2451 127.14 50.5651C126.726 50.5706 126.316 50.6346 125.92 50.7551C125.535 50.9251 125.96 55.0451 125.96 55.0451C125.96 55.0451 121.65 55.3451 121.46 55.5451C121.33 55.6801 121.38 56.3151 121.46 56.7651C121.47 56.8942 121.526 57.0155 121.618 57.1072C121.71 57.1988 121.831 57.2548 121.96 57.2651H122.115L122.88 61.3151C122.905 61.4682 122.988 61.6058 123.112 61.699C123.236 61.7923 123.391 61.8338 123.545 61.8151L127.545 61.3151C127.942 61.2589 128.313 61.0847 128.61 60.8151L129 60.4601L131.5 60.3001L130.795 55.5501Z" fill="#00677D"/>
<path opacity="0.7" d="M130.795 55.5501L128.415 55.8351C128.415 55.8351 127.635 54.2451 127.14 50.5651C126.726 50.5706 126.316 50.6346 125.92 50.7551C125.535 50.9251 125.96 55.0451 125.96 55.0451C125.96 55.0451 121.65 55.3451 121.46 55.5451C121.33 55.6801 121.38 56.3151 121.46 56.7651C121.47 56.8942 121.526 57.0155 121.618 57.1072C121.71 57.1988 121.831 57.2548 121.96 57.2651H122.115L122.88 61.3151C122.905 61.4682 122.988 61.6058 123.112 61.699C123.236 61.7923 123.391 61.8338 123.545 61.8151L127.545 61.3151C127.942 61.2589 128.313 61.0847 128.61 60.8151L129 60.4601L131.5 60.3001L130.795 55.5501Z" fill="white"/>
<path d="M139.27 84.855C137.09 84.77 128.6 98.6 128.6 98.6L122.83 97.5L121.59 100.45C121.59 100.45 126.795 102.99 128.885 103.215C130.975 103.44 139 92.285 139 92.285L139.27 84.855Z" fill="#00677D"/>
<path opacity="0.2" d="M139.27 84.85L139 92.285C139 92.285 138.805 92.555 138.47 93.005C137.86 93.84 136.765 95.305 135.52 96.87C133.085 99.92 130.07 103.37 128.905 103.22C126.81 102.995 121.61 100.465 121.61 100.465L122.85 97.515L128.615 98.605C128.615 98.605 137.09 84.77 139.27 84.85Z" fill="white"/>
<path opacity="0.2" d="M138.45 93C137.84 93.835 136.745 95.3 135.5 96.865C135.545 93.915 138.125 90.245 138.125 90.245C138.125 90.245 138.31 91.45 138.45 93Z" fill="black"/>
<path d="M155.83 205.89H160.705C160.785 205.89 160.863 205.917 160.925 205.967C160.988 206.017 161.032 206.087 161.05 206.165L161.84 209.74C161.873 209.894 161.843 210.054 161.758 210.186C161.673 210.318 161.539 210.411 161.385 210.445H161.255C159.675 210.42 158.525 210.325 156.545 210.325C155.325 210.325 151.64 210.45 149.955 210.45C148.27 210.45 148.05 208.785 148.74 208.63C151.835 207.96 154.165 207.025 155.155 206.13C155.341 205.966 155.583 205.88 155.83 205.89Z" fill="#263238"/>
<path d="M135.14 205.76H140C140.079 205.76 140.156 205.788 140.218 205.838C140.28 205.888 140.323 205.957 140.34 206.035L141.135 209.615C141.166 209.769 141.135 209.929 141.049 210.06C140.963 210.191 140.828 210.283 140.675 210.315C140.632 210.32 140.588 210.32 140.545 210.315C138.97 210.285 137.82 210.19 135.835 210.19C134.615 210.19 130.935 210.32 129.25 210.32C127.565 210.32 127.345 208.655 128.035 208.5C131.13 207.825 133.455 206.89 134.45 206C134.642 205.836 134.888 205.75 135.14 205.76Z" fill="#263238"/>
<path d="M158.415 115.47H137.105C135.075 126.535 128.735 171.47 133.285 206.355H140.5C140.5 206.355 139.83 153.355 146.2 136.245C146.935 145.41 154.385 206.315 154.385 206.315H161.73C161.73 206.315 160.63 183.405 159.53 161.76C158.84 148.135 158.445 118.265 158.415 115.47Z" fill="#263238"/>
<path opacity="0.2" d="M146.2 136.245C145.152 139.247 144.356 142.331 143.82 145.465C143.225 137.31 145.61 128.665 145.61 128.665L146.2 136.245Z" fill="black"/>
<path d="M136.925 115.725H158.375V118.28L136.65 118.015L136.925 115.725Z" fill="black"/>
<path d="M151.48 114.575H150.715V119.11H151.48V114.575Z" fill="#263238"/>
<path d="M140.625 114.575H139.86V119.11H140.625V114.575Z" fill="#263238"/>
<path d="M146.705 115.275H142.735V118.135H146.705V115.275Z" fill="white"/>
<path d="M158.445 116.135C159.01 103.93 162.6 86.635 162.6 86.635C152.64 84.235 139.27 84.835 139.27 84.835C136.665 94.155 136.71 109.195 136.935 116.115L158.445 116.135Z" fill="#00677D"/>
<path opacity="0.2" d="M162.6 86.65C162.6 86.65 162.2 88.585 161.645 91.61C161.38 93.055 161.075 94.75 160.77 96.61C160.59 97.695 160.405 98.83 160.23 100C160.055 101.17 159.875 102.315 159.73 103.5C159.14 107.74 158.645 112.205 158.46 116.14H136.96C136.735 109.22 136.69 94.18 139.295 84.855C139.27 84.85 152.645 84.25 162.6 86.65Z" fill="white"/>
<path opacity="0.2" d="M161.645 91.61C161.38 93.055 161.075 94.75 160.77 96.61C160.59 97.695 160.405 98.83 160.23 100C158.65 95.855 161.34 90.255 161.34 90.255L161.645 91.61Z" fill="black"/>
<path d="M146.35 86.5L146.885 89.14C146.885 89.14 143.81 101.975 143.15 108.64L144.27 109.76L146.035 108.64C146.035 108.64 146.19 95.085 147.75 89.39L150.54 87.105L148.34 86.39L146.35 86.5Z" fill="#263238"/>
<path d="M154.7 85.305C152.86 86.98 148.34 86.36 148.34 86.36C148.34 86.36 145.525 85.59 146.115 84.71C147.775 84.435 148.58 83.66 148.91 82.67C149.094 82.0562 149.152 81.4116 149.08 80.775C149.053 80.4193 149.007 80.0654 148.94 79.715L154.525 75.58C153.79 78.31 152.895 83.33 154.7 85.305Z" fill="#EEC1BB"/>
<path opacity="0.2" d="M153.235 78.21C153.01 81.56 150.235 82.48 148.91 82.67C149.094 82.0562 149.152 81.4116 149.08 80.775L153.235 78.21Z" fill="black"/>
<path d="M153.88 83.1799L148.54 85.5899L148.23 83.6599L146.265 84.3499C145.924 84.4696 145.633 84.7012 145.439 85.0071C145.246 85.3129 145.162 85.6751 145.2 86.0349L145.42 88.1549L148.125 86.6549L149.475 88.5599L155.885 85.4999L153.88 83.1799Z" fill="#00677D"/>
<path opacity="0.3" d="M153.88 83.1799L148.54 85.5899L148.23 83.6599L146.265 84.3499C145.924 84.4696 145.633 84.7012 145.439 85.0071C145.246 85.3129 145.162 85.6751 145.2 86.0349L145.42 88.1549L148.125 86.6549L149.475 88.5599L155.885 85.4999L153.88 83.1799Z" fill="white"/>
<path d="M143.08 67.825C143.08 67.825 142.245 73.2 145.08 75.28C147.915 77.36 147.96 67.345 147.96 67.345L143.08 67.825Z" fill="#263238"/>
<path d="M153.365 79.575C152.765 80.4599 151.891 81.123 150.877 81.4618C149.863 81.8007 148.766 81.7965 147.755 81.45C146.438 81.0306 145.331 80.1238 144.66 78.915C144.567 78.7528 144.481 78.5859 144.405 78.415C143.01 75.125 142.58 69.375 146.06 67.23C147.249 66.4877 148.684 66.2477 150.05 66.5627C151.416 66.8777 152.601 67.7219 153.345 68.91C153.789 69.613 154.058 70.4119 154.13 71.24C154.545 75.07 154.97 77.31 153.365 79.575Z" fill="#EEC1BB"/>
<path d="M148.525 73.26C148.595 73.565 148.455 73.85 148.25 73.885C148.045 73.92 147.84 73.69 147.785 73.385C147.73 73.08 147.86 72.8 148.06 72.765C148.26 72.73 148.47 72.95 148.525 73.26Z" fill="#263238"/>
<path d="M145 73.85C145.07 74.155 144.925 74.44 144.725 74.47C144.525 74.5 144.315 74.28 144.265 73.97C144.215 73.66 144.335 73.38 144.535 73.35C144.735 73.32 144.965 73.555 145 73.85Z" fill="#263238"/>
<path d="M146.155 73.8149C145.945 74.8268 145.595 75.8045 145.115 76.7199C145.354 76.8359 145.616 76.8987 145.882 76.9038C146.148 76.909 146.411 76.8565 146.655 76.7499L146.155 73.8149Z" fill="#D4827D"/>
<path d="M143.46 72.5699C143.492 72.5806 143.526 72.583 143.56 72.5769C143.593 72.5708 143.624 72.5563 143.65 72.5349C143.821 72.3772 144.025 72.2612 144.248 72.1961C144.471 72.1311 144.706 72.1187 144.935 72.1599C144.958 72.1668 144.982 72.169 145.006 72.1664C145.03 72.1638 145.053 72.1564 145.074 72.1448C145.095 72.1331 145.113 72.1174 145.128 72.0986C145.143 72.0797 145.154 72.0581 145.16 72.0349C145.172 71.9872 145.166 71.9366 145.142 71.8936C145.117 71.8507 145.077 71.8189 145.03 71.8049C144.744 71.745 144.447 71.7546 144.165 71.8329C143.883 71.9112 143.624 72.0559 143.41 72.2549C143.372 72.2861 143.348 72.331 143.344 72.3798C143.339 72.4285 143.354 72.4771 143.385 72.5149C143.406 72.5379 143.432 72.5566 143.46 72.5699Z" fill="#263238"/>
<path d="M149 71.74C149.034 71.7348 149.066 71.7186 149.09 71.6938C149.115 71.669 149.13 71.637 149.135 71.6025C149.139 71.5681 149.133 71.5331 149.116 71.5029C149.098 71.4726 149.072 71.4488 149.04 71.435C148.792 71.2771 148.51 71.1814 148.218 71.1562C147.925 71.1309 147.631 71.1768 147.36 71.29C147.338 71.3001 147.318 71.3146 147.302 71.3325C147.286 71.3505 147.273 71.3715 147.265 71.3944C147.257 71.4173 147.254 71.4415 147.256 71.4656C147.258 71.4898 147.264 71.5134 147.275 71.535C147.297 71.5784 147.334 71.6117 147.38 71.6276C147.426 71.6435 147.476 71.6407 147.52 71.62C147.737 71.5381 147.97 71.5077 148.201 71.5311C148.432 71.5545 148.654 71.6312 148.85 71.755C148.874 71.7642 148.901 71.7676 148.927 71.765C148.953 71.7624 148.978 71.7538 149 71.74Z" fill="#263238"/>
<path d="M150.535 66.9399V68.6549C150.834 68.758 151.084 68.9687 151.237 69.2459C151.389 69.5231 151.433 69.8471 151.36 70.1549C150.98 71.6549 152.05 73.7499 153.25 74.4999C153.25 74.4999 153.21 73.8799 153.75 73.9649C154.29 74.0499 154.53 77.2749 153.695 78.9299C153.695 78.9299 155.065 77.3599 155.53 73.8899C155.96 70.6749 155.75 68.0649 154.97 66.9349L150.535 66.9399Z" fill="#263238"/>
<path d="M156.32 74.0699C156.042 75.0033 155.405 75.7888 154.55 76.2549C153.41 76.8599 152.55 75.9099 152.645 74.6899C152.725 73.6049 153.405 71.9499 154.645 71.8599C155.885 71.7699 156.645 72.9199 156.32 74.0699Z" fill="#EEC1BB"/>
<path d="M147.06 77.69C147.328 78.1011 147.567 78.5305 147.775 78.975L148.025 78.9C149.15 78.57 149.56 78.045 149.68 77.565C149.736 77.3299 149.736 77.085 149.68 76.85C149.649 76.7173 149.6 76.5895 149.535 76.47C148.931 76.9818 148.223 77.357 147.46 77.57C147.21 77.65 147.06 77.69 147.06 77.69Z" fill="#263238"/>
<path d="M147.44 77.57L147.66 77.945C148.72 77.63 149.425 77.27 149.66 76.85C149.629 76.7173 149.58 76.5895 149.515 76.47C148.911 76.9818 148.203 77.357 147.44 77.57Z" fill="white"/>
<path d="M148.025 78.8999C149.15 78.5699 149.56 78.0449 149.68 77.5649C149.254 77.7003 148.855 77.9083 148.5 78.1799C148.271 78.3649 148.105 78.6165 148.025 78.8999Z" fill="#DE5753"/>
<path d="M154.7 67.75C154.7 67.75 156.545 65.5 152.12 64.12C147.695 62.74 141.22 66.85 142.535 68.475C143.85 70.1 148.385 69.42 148.385 69.42C147.751 69.3436 147.152 69.0907 146.655 68.69C146.655 68.69 153.215 69.13 154.7 67.75Z" fill="#263238"/>
<path d="M162.6 86.655C165.405 87.605 167.325 105.045 167.29 106.56C167.255 108.075 162.96 108.73 162.6 105.56C162.24 102.39 160.77 95.65 160.77 95.65C160.77 95.65 160.38 92.6 160.77 90.75C161.16 88.9 162.6 86.655 162.6 86.655Z" fill="#00677D"/>
<path opacity="0.2" d="M162.6 86.655C165.405 87.605 167.325 105.045 167.29 106.56C167.255 108.075 162.96 108.73 162.6 105.56C162.24 102.39 160.77 95.65 160.77 95.65C160.77 95.65 160.38 92.6 160.77 90.75C161.16 88.9 162.6 86.655 162.6 86.655Z" fill="white"/>
<path d="M184.651 106.119L86.7728 95.5205L79.4003 163.608L177.278 174.206L184.651 106.119Z" fill="#00677D"/>
<path opacity="0.6" d="M184.651 106.119L86.7728 95.5205L79.4003 163.608L177.278 174.206L184.651 106.119Z" fill="white"/>
<path d="M175.275 171.885L81.88 161.78L88.8 97.8149L182.195 107.92L175.275 171.885ZM82.435 161.335L174.83 171.335L181.645 108.365L89.245 98.3649L82.435 161.335Z" fill="#00677D"/>
<path d="M176.32 173.125L170.875 172.535L171.085 170.61L86.25 161.43L86.04 163.355L80.595 162.77L81.185 157.325L83.16 157.54L89.16 102.235L87.16 102.02L87.75 96.575L93.195 97.165L92.99 99.09L177.825 108.27L178.03 106.345L183.5 106.93L182.91 112.375L180.935 112.165L174.935 167.465L176.935 167.68L176.32 173.125ZM171.425 172.095L175.875 172.595L176.375 168.145L174.375 167.93L180.465 111.63L182.465 111.845L182.965 107.395L178.515 106.895L178.305 108.82L92.44 99.535L92.65 97.605L88.2 97.105L87.7 101.555L89.675 101.77L83.585 158.07L81.585 157.855L81.085 162.305L85.535 162.805L85.745 160.88L171.575 170.165L171.425 172.095Z" fill="#00677D"/>
<path d="M90.155 99.565L91.29 99.69L91.165 100.825L90.03 100.705L90.155 99.565ZM89.71 99.015L89.655 99.515L89.535 100.655L89.48 101.155L89.98 101.21L91.12 101.335L91.62 101.385L91.675 100.885L91.795 99.75L91.85 99.25L91.35 99.195L90.21 99.075L89.71 99.02V99.015Z" fill="#00677D"/>
<path d="M83.7 159.225L84.835 159.345L84.71 160.48L83.575 160.36L83.7 159.225ZM83.255 158.67L83.2 159.17L83.08 160.305L83.025 160.805L83.525 160.855L84.665 160.98L85.165 161.035L85.22 160.535L85.34 159.4L85.395 158.9L84.895 158.85L83.755 158.725L83.255 158.67Z" fill="#00677D"/>
<path d="M179.365 109.22L180.5 109.34L180.38 110.48L179.24 110.355L179.365 109.22ZM178.92 108.665L178.865 109.165L178.745 110.3L178.69 110.8L179.19 110.85L180.33 110.975L180.83 111.03L180.885 110.53L181.01 109.395L181.06 108.895L180.56 108.84L179.425 108.715L178.925 108.66L178.92 108.665Z" fill="#00677D"/>
<path d="M172.91 168.875L174.045 169L173.925 170.135L172.785 170.01L172.91 168.875ZM172.465 168.325L172.41 168.825L172.29 169.965L172.235 170.465L172.735 170.52L173.87 170.64L174.37 170.695L174.425 170.195L174.55 169.055L174.6 168.555L174.1 168.5L172.965 168.38L172.465 168.325Z" fill="#00677D"/>
<path d="M108.45 110.115C108.525 109.631 108.741 109.18 109.071 108.818C109.4 108.456 109.829 108.198 110.303 108.077C110.777 107.957 111.277 107.978 111.739 108.138C112.202 108.299 112.607 108.591 112.905 108.98L112.295 109.44C112.16 109.251 111.985 109.093 111.783 108.977C111.581 108.862 111.357 108.791 111.125 108.77C110.91 108.741 110.691 108.755 110.482 108.812C110.273 108.869 110.077 108.967 109.906 109.101C109.735 109.235 109.593 109.402 109.488 109.591C109.382 109.781 109.316 109.99 109.293 110.205C109.269 110.421 109.289 110.639 109.352 110.847C109.414 111.055 109.517 111.248 109.655 111.415C109.793 111.583 109.964 111.721 110.156 111.821C110.348 111.921 110.559 111.982 110.775 112C111.007 112.028 111.242 112.006 111.465 111.936C111.687 111.865 111.892 111.747 112.065 111.59L112.565 112.175C112.191 112.491 111.733 112.691 111.247 112.749C110.76 112.807 110.268 112.721 109.83 112.501C109.392 112.282 109.029 111.939 108.784 111.515C108.54 111.09 108.425 110.604 108.455 110.115H108.45Z" fill="#00677D"/>
<path d="M116.83 112.62L116.75 113.34L113.305 112.965L113.805 108.365L117.16 108.73L117.085 109.445L114.585 109.175L114.455 110.37L116.68 110.61L116.6 111.315L114.38 111.075L114.245 112.34L116.83 112.62Z" fill="#00677D"/>
<path d="M120.71 113.765L119.92 112.32H119.74L118.7 112.21L118.555 113.55L117.705 113.455L118.205 108.86L120.095 109.065C121.305 109.195 121.99 109.89 121.88 110.91C121.856 111.226 121.733 111.526 121.528 111.768C121.324 112.009 121.048 112.18 120.74 112.255L121.635 113.88L120.71 113.765ZM119.975 109.765L118.975 109.66L118.78 111.49L119.78 111.6C120.53 111.68 120.955 111.38 121.015 110.8C121.075 110.22 120.725 109.845 120 109.765H119.975Z" fill="#00677D"/>
<path d="M123.79 110.18L122.265 110.015L122.345 109.29L126.245 109.715L126.17 110.435L124.645 110.27L124.225 114.145L123.37 114.055L123.79 110.18Z" fill="#00677D"/>
<path d="M126.89 109.785L127.745 109.875L127.245 114.475L126.39 114.38L126.89 109.785Z" fill="#00677D"/>
<path d="M129.76 110.82L129.61 112.215L131.83 112.455L131.75 113.18L129.53 112.94L129.34 114.7L128.485 114.61L128.985 110.01L132.34 110.375L132.265 111.09L129.76 110.82Z" fill="#00677D"/>
<path d="M133.17 110.46L134.02 110.555L133.52 115.155L132.665 115.06L133.17 110.46Z" fill="#00677D"/>
<path d="M134.685 112.955C134.716 112.635 134.813 112.324 134.969 112.043C135.125 111.761 135.337 111.514 135.591 111.318C135.846 111.121 136.139 110.978 136.45 110.899C136.762 110.819 137.087 110.804 137.405 110.855C137.747 110.878 138.08 110.977 138.38 111.143C138.68 111.31 138.94 111.541 139.14 111.82L138.535 112.28C138.4 112.09 138.225 111.932 138.023 111.816C137.821 111.699 137.597 111.627 137.365 111.605C137.096 111.579 136.824 111.62 136.575 111.725C136.325 111.831 136.106 111.997 135.938 112.208C135.769 112.42 135.655 112.67 135.608 112.936C135.56 113.203 135.58 113.477 135.665 113.734C135.75 113.991 135.898 114.222 136.095 114.407C136.293 114.592 136.533 114.725 136.795 114.794C137.057 114.863 137.331 114.865 137.594 114.8C137.857 114.736 138.1 114.607 138.3 114.425L138.8 115.01C138.427 115.326 137.969 115.525 137.483 115.583C136.997 115.641 136.505 115.556 136.068 115.337C135.63 115.118 135.266 114.776 135.022 114.353C134.777 113.929 134.661 113.443 134.69 112.955H134.685Z" fill="#00677D"/>
<path d="M142.54 115.05L140.24 114.805L139.67 115.805L138.79 115.71L141.36 111.335L142.2 111.425L143.775 116.245L142.885 116.15L142.54 115.05ZM142.33 114.35L141.68 112.245L140.6 114.165L142.33 114.35Z" fill="#00677D"/>
<path d="M145.5 112.525L143.975 112.36L144.05 111.64L147.955 112.06L147.875 112.785L146.35 112.62L145.935 116.495L145.08 116.4L145.5 112.525Z" fill="#00677D"/>
<path d="M148.58 112.13L149.435 112.225L148.935 116.82L148.08 116.73L148.58 112.13Z" fill="#00677D"/>
<path d="M150.1 114.62C150.13 114.121 150.309 113.643 150.614 113.246C150.918 112.85 151.335 112.554 151.809 112.397C152.284 112.24 152.794 112.229 153.275 112.364C153.756 112.5 154.185 112.777 154.507 113.159C154.829 113.542 155.029 114.012 155.082 114.509C155.134 115.006 155.036 115.507 154.801 115.948C154.565 116.389 154.203 116.749 153.761 116.982C153.319 117.215 152.817 117.31 152.32 117.255C151.998 117.237 151.682 117.154 151.394 117.01C151.105 116.866 150.848 116.664 150.64 116.417C150.433 116.171 150.277 115.884 150.184 115.575C150.091 115.266 150.063 114.941 150.1 114.62ZM154.19 115.065C154.226 114.745 154.166 114.422 154.018 114.137C153.87 113.851 153.64 113.616 153.359 113.461C153.077 113.306 152.755 113.238 152.435 113.266C152.115 113.293 151.81 113.415 151.559 113.617C151.308 113.818 151.122 114.089 151.025 114.396C150.929 114.702 150.925 115.031 151.015 115.34C151.105 115.648 151.285 115.924 151.531 116.13C151.778 116.337 152.08 116.465 152.4 116.5C152.613 116.529 152.829 116.515 153.036 116.458C153.243 116.401 153.436 116.302 153.604 116.168C153.771 116.033 153.91 115.866 154.01 115.677C154.111 115.487 154.172 115.279 154.19 115.065Z" fill="#00677D"/>
<path d="M160.295 113.395L159.795 117.995L159.095 117.92L156.895 114.53L156.555 117.645L155.71 117.555L156.21 112.955L156.915 113.03L159.115 116.42L159.45 113.305L160.295 113.395Z" fill="#00677D"/>
<path opacity="0.6" d="M155.585 131.14L109.83 126.19C109.317 126.134 108.803 126.285 108.4 126.608C107.998 126.932 107.741 127.402 107.685 127.915C107.629 128.428 107.78 128.942 108.103 129.345C108.427 129.747 108.897 130.004 109.41 130.06L155.165 135.01C155.419 135.038 155.676 135.015 155.921 134.943C156.167 134.871 156.396 134.752 156.595 134.592C156.794 134.432 156.96 134.234 157.082 134.009C157.205 133.785 157.282 133.539 157.31 133.285C157.338 133.031 157.315 132.774 157.243 132.528C157.171 132.283 157.052 132.054 156.892 131.855C156.732 131.656 156.534 131.49 156.31 131.368C156.085 131.245 155.839 131.168 155.585 131.14Z" fill="white"/>
<path d="M166.71 141.185H166.68L96.84 133.63C96.7737 133.623 96.713 133.589 96.6713 133.537C96.6296 133.485 96.6102 133.419 96.6175 133.352C96.6248 133.286 96.6581 133.225 96.7102 133.184C96.7622 133.142 96.8287 133.123 96.895 133.13L166.735 140.69C166.768 140.693 166.799 140.703 166.828 140.718C166.857 140.734 166.883 140.755 166.903 140.781C166.924 140.806 166.939 140.836 166.948 140.868C166.957 140.899 166.959 140.932 166.955 140.965C166.948 141.025 166.919 141.08 166.874 141.121C166.829 141.161 166.771 141.184 166.71 141.185Z" fill="#00677D"/>
<path d="M166.935 139.09H166.905L102.54 132.125C102.474 132.117 102.415 132.084 102.373 132.033C102.332 131.981 102.313 131.916 102.32 131.85C102.323 131.817 102.333 131.786 102.348 131.757C102.364 131.728 102.385 131.702 102.411 131.682C102.437 131.661 102.466 131.646 102.498 131.637C102.529 131.628 102.562 131.626 102.595 131.63L166.96 138.59C167.026 138.593 167.089 138.623 167.133 138.672C167.178 138.721 167.201 138.786 167.197 138.853C167.194 138.919 167.165 138.981 167.115 139.026C167.066 139.07 167.001 139.093 166.935 139.09Z" fill="#00677D"/>
<path d="M139.105 140.415L96.605 135.82C96.5387 135.813 96.478 135.779 96.4363 135.727C96.3946 135.675 96.3752 135.609 96.3825 135.542C96.3898 135.476 96.4231 135.415 96.4752 135.374C96.5272 135.332 96.5937 135.313 96.66 135.32L139.13 139.915C139.163 139.917 139.195 139.925 139.225 139.939C139.254 139.953 139.281 139.973 139.303 139.997C139.325 140.021 139.342 140.05 139.353 140.081C139.364 140.112 139.369 140.145 139.368 140.177C139.366 140.21 139.358 140.242 139.344 140.272C139.33 140.302 139.31 140.329 139.285 140.351C139.261 140.373 139.233 140.39 139.202 140.401C139.171 140.412 139.138 140.417 139.105 140.415Z" fill="#00677D"/>
<path d="M168.535 124.315H168.5L104.14 117.35C104.074 117.343 104.013 117.309 103.971 117.257C103.93 117.205 103.91 117.139 103.918 117.073C103.925 117.006 103.958 116.946 104.01 116.904C104.062 116.862 104.129 116.843 104.195 116.85L168.56 123.815C168.626 123.823 168.685 123.856 168.727 123.907C168.768 123.959 168.787 124.024 168.78 124.09C168.775 124.151 168.747 124.209 168.702 124.25C168.656 124.292 168.597 124.315 168.535 124.315Z" fill="#00677D"/>
<path d="M168.305 126.41H168.28L98.44 118.85C98.3737 118.843 98.313 118.809 98.2713 118.757C98.2295 118.705 98.2102 118.639 98.2175 118.573C98.2248 118.506 98.2581 118.446 98.3102 118.404C98.3622 118.362 98.4287 118.343 98.495 118.35L168.335 125.905C168.368 125.907 168.4 125.915 168.43 125.93C168.459 125.944 168.486 125.964 168.507 125.989C168.529 126.013 168.546 126.042 168.557 126.073C168.567 126.104 168.572 126.137 168.57 126.17C168.568 126.203 168.56 126.235 168.545 126.265C168.531 126.294 168.511 126.321 168.486 126.342C168.462 126.364 168.433 126.381 168.402 126.392C168.371 126.402 168.338 126.407 168.305 126.405V126.41Z" fill="#00677D"/>
<path d="M129.5 126.64L97.97 123.23C97.9037 123.223 97.843 123.189 97.8013 123.137C97.7595 123.085 97.7402 123.019 97.7475 122.953C97.7548 122.886 97.7881 122.826 97.8402 122.784C97.8922 122.742 97.9587 122.723 98.025 122.73L129.555 126.145C129.621 126.153 129.68 126.186 129.722 126.237C129.763 126.289 129.782 126.354 129.775 126.42C129.766 126.485 129.733 126.544 129.682 126.585C129.63 126.626 129.565 126.646 129.5 126.64Z" fill="#00677D"/>
<path d="M168.07 128.6H168.045L98.205 121.04C98.1722 121.036 98.1404 121.026 98.1114 121.01C98.0825 120.995 98.0569 120.973 98.0363 120.947C98.0156 120.922 98.0002 120.892 97.991 120.86C97.9818 120.829 97.9789 120.795 97.9825 120.762C97.9861 120.73 97.9962 120.698 98.0121 120.669C98.028 120.64 98.0494 120.614 98.0752 120.594C98.1009 120.573 98.1305 120.558 98.1622 120.548C98.1939 120.539 98.2272 120.536 98.26 120.54L168.095 128.1C168.161 128.103 168.224 128.133 168.268 128.182C168.313 128.231 168.336 128.296 168.333 128.362C168.329 128.429 168.3 128.491 168.25 128.536C168.201 128.58 168.136 128.603 168.07 128.6Z" fill="#00677D"/>
<path d="M159.255 164.31L156.37 162.335L153.13 163.645L154.25 153.275L160.38 153.94L159.255 164.31Z" fill="#00677D"/>
<path opacity="0.2" d="M159.255 164.31L156.37 162.335L153.13 163.645L154.25 153.275L160.38 153.94L159.255 164.31Z" fill="black"/>
<path d="M158.175 145.66L159.185 145.075L159.825 146.055L160.955 145.74L161.33 146.845L162.5 146.82L162.59 147.99L163.73 148.25L163.525 149.405L164.565 149.945L164.08 151.01L164.95 151.795L164.215 152.705L164.865 153.68L163.93 154.38L164.315 155.485L163.23 155.93L163.335 157.095L162.175 157.26L161.98 158.415L160.815 158.28L160.34 159.35L159.25 158.935L158.525 159.855L157.565 159.18L156.635 159.89L155.875 158.995L154.8 159.45L154.285 158.4L153.13 158.57L152.895 157.425L151.73 157.305L151.79 156.135L150.69 155.73L151.035 154.61L150.075 153.945L150.69 152.945L149.92 152.065L150.765 151.25L150.24 150.2L151.26 149.625L151.015 148.48L152.145 148.175L152.19 147.005L153.365 146.99L153.7 145.87L154.84 146.145L155.44 145.14L156.475 145.695L157.31 144.87L158.175 145.66Z" fill="#00677D"/>
<path opacity="0.2" d="M158.025 147.025L158.835 146.555L159.345 147.34L160.245 147.085L160.545 147.97L161.48 147.95L161.55 148.885L162.465 149.095L162.3 150.015L163.13 150.445L162.74 151.3L163.44 151.92L162.85 152.65L163.37 153.43L162.62 153.99L162.93 154.87L162.065 155.225L162.145 156.155L161.22 156.285L161.065 157.21L160.135 157.1L159.755 157.96L158.885 157.625L158.305 158.36L157.54 157.82L156.8 158.385L156.19 157.675L155.33 158.035L154.925 157.195L154 157.335L153.81 156.42L152.88 156.32L152.93 155.39L152.05 155.065L152.33 154.17L151.56 153.64L152.05 152.845L151.435 152.135L152.11 151.49L151.695 150.65L152.505 150.19L152.31 149.275L153.215 149.03L153.25 148.1L154.185 148.085L154.455 147.19L155.365 147.41L155.845 146.61L156.67 147.05L157.335 146.395L158.025 147.025Z" fill="white"/>
<path d="M157.445 152.88L158.145 152.96L158.095 153.425L157.34 153.345L157.135 154.21L156.665 154.16L156.87 153.295L156 153.2L155.8 154.065L155.33 154.015L155.535 153.15L154.835 153.075L154.885 152.605L155.64 152.685L155.86 151.78L155.16 151.705L155.21 151.235L155.965 151.315L156.17 150.45L156.64 150.5L156.435 151.37L157.3 151.46L157.505 150.595L157.975 150.645L157.77 151.51L158.465 151.585L158.42 152.055L157.665 151.975L157.445 152.88ZM156.975 152.83L157.19 151.925L156.325 151.83L156.105 152.735L156.975 152.83Z" fill="#00677D"/>
<path d="M160.15 150.885L159.76 154.495L159.09 154.425L159.42 151.37L158.655 151.29L158.715 150.73L160.15 150.885Z" fill="#00677D"/>
<path d="M102.075 142.095C102.193 142.025 102.333 142.004 102.467 142.036C102.6 142.068 102.716 142.15 102.79 142.265C102.853 142.36 102.944 142.433 103.051 142.473C103.158 142.512 103.275 142.517 103.385 142.485C103.517 142.448 103.658 142.464 103.779 142.528C103.9 142.592 103.991 142.7 104.035 142.83C104.071 142.934 104.138 143.025 104.228 143.089C104.317 143.154 104.425 143.189 104.535 143.19C104.672 143.188 104.805 143.239 104.907 143.332C105.008 143.425 105.07 143.553 105.08 143.69C105.083 143.807 105.125 143.92 105.199 144.011C105.273 144.101 105.376 144.164 105.49 144.19C105.623 144.221 105.74 144.302 105.815 144.417C105.89 144.531 105.919 144.67 105.895 144.805C105.874 144.917 105.89 145.032 105.941 145.134C105.991 145.236 106.073 145.319 106.175 145.37C106.295 145.434 106.387 145.541 106.432 145.67C106.476 145.799 106.47 145.94 106.415 146.065C106.367 146.169 106.354 146.285 106.377 146.397C106.401 146.508 106.459 146.609 106.545 146.685C106.646 146.777 106.709 146.904 106.72 147.041C106.731 147.177 106.69 147.313 106.605 147.42C106.532 147.508 106.49 147.616 106.485 147.73C106.479 147.844 106.511 147.956 106.575 148.05C106.65 148.164 106.678 148.303 106.655 148.437C106.632 148.572 106.559 148.692 106.45 148.775C106.358 148.842 106.29 148.937 106.256 149.047C106.223 149.156 106.226 149.273 106.265 149.38C106.311 149.509 106.306 149.65 106.25 149.775C106.194 149.9 106.092 149.999 105.965 150.05C105.86 150.093 105.771 150.169 105.712 150.266C105.652 150.363 105.625 150.477 105.635 150.59C105.647 150.727 105.605 150.862 105.52 150.969C105.434 151.076 105.311 151.146 105.175 151.165C105.063 151.18 104.958 151.231 104.877 151.31C104.796 151.389 104.742 151.493 104.725 151.605C104.702 151.74 104.628 151.862 104.518 151.944C104.408 152.027 104.271 152.065 104.135 152.05C104.022 152.038 103.908 152.062 103.809 152.118C103.71 152.175 103.632 152.261 103.585 152.365C103.531 152.49 103.43 152.589 103.304 152.642C103.178 152.694 103.037 152.695 102.91 152.645C102.803 152.605 102.687 152.599 102.577 152.63C102.467 152.661 102.37 152.725 102.3 152.815C102.215 152.923 102.092 152.994 101.956 153.013C101.82 153.033 101.682 153 101.57 152.92C101.478 152.853 101.368 152.817 101.255 152.817C101.142 152.817 101.032 152.853 100.94 152.92C100.831 153.004 100.693 153.042 100.556 153.027C100.42 153.013 100.294 152.945 100.205 152.84C100.131 152.754 100.031 152.694 99.9209 152.668C99.8105 152.642 99.6947 152.652 99.59 152.695C99.4649 152.749 99.324 152.752 99.1965 152.704C99.069 152.657 98.9646 152.562 98.905 152.44C98.8552 152.338 98.774 152.254 98.6733 152.201C98.5726 152.148 98.4576 152.128 98.345 152.145C98.209 152.164 98.0708 152.131 97.9584 152.052C97.846 151.973 97.7679 151.855 97.74 151.72C97.7174 151.609 97.6602 151.508 97.5767 151.432C97.4931 151.355 97.3875 151.308 97.275 151.295C97.1353 151.287 97.0043 151.225 96.9106 151.121C96.8169 151.017 96.7682 150.88 96.775 150.74C96.7809 150.626 96.7501 150.513 96.6872 150.417C96.6242 150.322 96.5323 150.249 96.425 150.21C96.2967 150.162 96.1915 150.068 96.1311 149.945C96.0706 149.822 96.0595 149.681 96.1 149.55C96.1339 149.442 96.1323 149.326 96.0954 149.219C96.0585 149.112 95.9883 149.019 95.895 148.955C95.7827 148.877 95.7046 148.759 95.6767 148.625C95.6488 148.491 95.6732 148.351 95.745 148.235C95.8039 148.138 95.8308 148.025 95.8218 147.912C95.8128 147.799 95.7685 147.691 95.695 147.605C95.6039 147.502 95.5561 147.369 95.5617 147.231C95.5673 147.094 95.6258 146.965 95.725 146.87C95.8076 146.791 95.8629 146.688 95.8827 146.576C95.9025 146.463 95.8858 146.347 95.835 146.245C95.7724 146.123 95.7598 145.981 95.7999 145.849C95.84 145.717 95.9297 145.607 96.05 145.54C96.1483 145.484 96.2261 145.398 96.272 145.294C96.3179 145.191 96.3295 145.076 96.305 144.965C96.2759 144.831 96.2997 144.69 96.3714 144.573C96.4431 144.456 96.5572 144.37 96.69 144.335C96.8008 144.305 96.8989 144.24 96.9701 144.15C97.0412 144.06 97.0815 143.95 97.085 143.835C97.0938 143.701 97.1526 143.575 97.2499 143.483C97.3472 143.39 97.4757 143.337 97.61 143.335C97.723 143.333 97.8324 143.295 97.9223 143.227C98.0123 143.159 98.078 143.063 98.11 142.955C98.1485 142.823 98.2368 142.711 98.3562 142.643C98.4756 142.575 98.6168 142.556 98.75 142.59C98.8609 142.616 98.9772 142.606 99.0823 142.562C99.1873 142.518 99.2758 142.442 99.335 142.345C99.4041 142.227 99.5163 142.141 99.6479 142.105C99.7796 142.068 99.9202 142.084 100.04 142.15C100.14 142.204 100.255 142.224 100.367 142.208C100.48 142.192 100.584 142.14 100.665 142.06C100.765 141.966 100.897 141.913 101.035 141.913C101.173 141.913 101.305 141.966 101.405 142.06C101.495 142.142 101.612 142.191 101.734 142.197C101.856 142.203 101.976 142.167 102.075 142.095Z" fill="#00677D"/>
<path opacity="0.2" d="M101.175 152.095C103.721 152.095 105.785 150.031 105.785 147.485C105.785 144.939 103.721 142.875 101.175 142.875C98.629 142.875 96.565 144.939 96.565 147.485C96.565 150.031 98.629 152.095 101.175 152.095Z" fill="white"/>
<path d="M101.42 145.195L102.005 146.785L103.64 147.205L102.31 148.25L102.415 149.935L101.01 148.99L99.44 149.615L99.905 147.985L98.825 146.685L100.515 146.625L101.42 145.195Z" fill="#00677D"/>
<path d="M121.6 153.656C124.007 151.718 124.388 148.196 122.45 145.789C120.513 143.382 116.991 143.001 114.584 144.939C112.176 146.876 111.796 150.398 113.733 152.805C115.671 155.212 119.193 155.593 121.6 153.656Z" fill="#00677D"/>
<path opacity="0.2" d="M122.28 149.77C122.19 150.6 121.856 151.384 121.32 152.024C120.784 152.664 120.071 153.131 119.27 153.365C118.469 153.6 117.616 153.592 116.82 153.341C116.024 153.091 115.319 152.611 114.796 151.96C114.273 151.31 113.955 150.519 113.881 149.687C113.807 148.856 113.982 148.021 114.383 147.289C114.784 146.557 115.392 145.96 116.132 145.574C116.872 145.188 117.71 145.03 118.54 145.12C119.653 145.241 120.672 145.798 121.373 146.671C122.074 147.543 122.401 148.657 122.28 149.77Z" fill="white"/>
<g opacity="0.2">
<path d="M117.565 154.13C116.612 154.026 115.712 153.643 114.977 153.028C114.243 152.412 113.707 151.593 113.438 150.674C113.169 149.754 113.179 148.775 113.466 147.861C113.753 146.947 114.305 146.138 115.052 145.538C115.798 144.937 116.706 144.572 117.661 144.487C118.615 144.403 119.573 144.603 120.414 145.063C121.254 145.523 121.94 146.222 122.383 147.071C122.827 147.921 123.008 148.882 122.905 149.835C122.836 150.468 122.644 151.081 122.339 151.639C122.033 152.197 121.621 152.69 121.125 153.089C120.629 153.487 120.059 153.785 119.448 153.963C118.838 154.142 118.198 154.199 117.565 154.13ZM118.565 144.79C117.67 144.693 116.766 144.864 115.968 145.281C115.17 145.698 114.513 146.342 114.082 147.133C113.65 147.923 113.463 148.824 113.543 149.72C113.624 150.617 113.969 151.47 114.534 152.171C115.1 152.872 115.86 153.389 116.72 153.657C117.58 153.925 118.5 153.932 119.363 153.677C120.227 153.422 120.995 152.917 121.572 152.225C122.148 151.533 122.506 150.685 122.6 149.79C122.725 148.594 122.372 147.397 121.618 146.461C120.864 145.524 119.77 144.923 118.575 144.79H118.565Z" fill="white"/>
</g>
<path d="M118.975 149.505L118.27 147.61L117.175 149.315L115.42 147.46L115.845 150.795L116.89 150.905L117.8 151.005L118.005 151.03L118.915 151.125L119.96 151.24L121.085 148.07L118.975 149.505Z" fill="#00677D"/>
<path d="M120.83 100.46L122.065 99.33L123.065 99.44L123.255 98L121.445 97.585C121.445 97.585 118.945 97.24 118.055 97.235C117.69 97.235 117.265 97.235 116.25 99.47C116.08 99.87 120.83 100.46 120.83 100.46Z" fill="#EEC1BB"/>
<path d="M161.645 103.61C161.9 103.038 162.221 102.498 162.6 102C162.935 101.705 165.985 102.38 166.495 102.795C167.005 103.21 166.76 104.15 166.76 104.15C166.76 104.15 165.91 105.48 165.33 105.41C164.75 105.34 161.805 105.19 161.645 104.975C161.485 104.76 161.645 103.61 161.645 103.61Z" fill="#EEC1BB"/>
</svg>
